<?xml version="1.0" encoding="UTF-8" standalone="no"?>
<svg
   width="800.83179"
   height="491.36136"
   version="1.1"
   id="svg6"
   sodipodi:docname="Americana-SP.svg"
   inkscape:version="1.2.2 (b0a8486541, 2022-12-01)"
   xmlns:inkscape="http://www.inkscape.org/namespaces/inkscape"
   xmlns:sodipodi="http://sodipodi.sourceforge.net/DTD/sodipodi-0.dtd"
   xmlns="http://www.w3.org/2000/svg"
   xmlns:svg="http://www.w3.org/2000/svg">
  <defs
     id="defs10" />
  <sodipodi:namedview
     id="namedview8"
     pagecolor="#ffffff"
     bordercolor="#000000"
     borderopacity="0.25"
     inkscape:showpageshadow="2"
     inkscape:pageopacity="0.0"
     inkscape:pagecheckerboard="0"
     inkscape:deskcolor="#d1d1d1"
     showgrid="false"
     inkscape:zoom="0.72642968"
     inkscape:cx="296.65638"
     inkscape:cy="202.35957"
     inkscape:window-width="1366"
     inkscape:window-height="699"
     inkscape:window-x="0"
     inkscape:window-y="0"
     inkscape:window-maximized="1"
     inkscape:current-layer="svg6" />
  <path
     style="fill:#000000;stroke:none"
     d="m 445.80685,79.361357 c -2.249,9.49 -5.439,18.422 -10,27.000003 2.004,-0.024 4.706,0.303 6.402,-1.028 3.019,-2.368 1.753,-7.527003 5.017,-10.114003 8.091,-6.411 17.13,3.711 20.581,10.142003 3.11,-5.806003 3.363,-13.544003 10.015,-16.972003 7.589,-3.911 18.197,1.253 25.985,1.879 5.934,0.477 12.471,-0.716 17.867,2.535 3.161,1.905 4.802,5.943 4.76,9.558003 -0.055,4.859 -4.365,15.239 -7.905,18.581 -2.355,2.224 -5.785,2.663 -8.088,4.929 -5.6,5.511 -8.693,13.6 -13.973,19.361 -4.772,5.206 -11.762,6.976 -15.661,13.129 6.463,2.046 12.036,6.662 14.773,13.014 1.465,3.398 1.546,7.013 4.147,9.909 3.613,4.022 7.569,-0.199 11.91,1.4 5.912,2.176 8.597,8.351 15.17,9.677 0,4.956 0.669,10.467 -1.769,14.985 -2.821,5.231 -7.794,7.973 -9.231,14.015 5.003,-1.846 11.96,-7.291 14.559,-12.019 4.651,-8.461 5.698,-21.165 13.884,-27.378 1.956,-1.484 4.2,-1.559 6.558,-1.598 9.87,-0.166 15.414,6.99 13.85,16.976 -0.8,5.108 -6.496,5.88 -8.851,10.019 7.617,-1.476 11.112,-0.413 18,3 -0.615,-4.218 -3.319,-7.019 -4.487,-11 -1.284,-4.379 -0.397,-9.739 0.931,-14 2.574,-8.259 9.233,-9.439 15.556,-13.939 6.325,-4.501 11.62,-11.067 19,-13.982 3.702,-1.463 7.2,-0.114 11,-0.208 5.68,-0.141 11.264,-1.49 17,-0.738 5.674,0.744 6.616,4.833 10.545,7.884 4.914,3.817 18.022,8.313 14.847,16.964 -3.323,9.056 -19.078,5.153 -26.352,8.532 -6.157,2.861 -8.822,11.493 -13.04,16.487 8.141,16.401 25.973,24.159 42,30.998 5.772,2.462 17.715,4.643 21.168,10.374 2.363,3.922 -3.631,5.221 -6.168,5.628 1.582,4.834 7.19,6.02 9.107,11.001 1.306,3.396 2.89,11.473 2.205,14.999 -0.748,3.849 -3.41,6.976 -4.011,11 -0.813,5.442 0.391,10.263 -3.44,14.826 -2.403,2.863 -5.523,5.492 -8.865,7.175 -3.421,1.722 -6.851,1.652 -8.996,4.999 8.186,0.888 15.072,9.783 18.401,-1.955 0.385,-1.358 0.46,-2.648 0.599,-4.045 7.299,-1.593 6.113,-10.074 7.344,-15.996 0.872,-4.193 4.766,-9.135 8.695,-10.94 4.177,-1.919 9.641,1.503 13.961,1.936 -3.7,-5.463 -15.167,-10.302 -13.638,-17.957 1.038,-5.201 7.696,-6.03 11.638,-8.085 5.826,-3.035 16.979,-11.548 23.529,-6.216 2.192,1.784 3.334,4.766 4.471,7.258 2.737,-1.028 5.985,-3.521 9,-3.159 3.239,0.389 6.601,3.467 8.996,5.483 5.251,4.42 10.694,10.384 13.587,16.676 1.638,3.562 1.929,7.467 3.741,11 2.821,5.502 6.729,10.396 9.353,16 2.525,5.393 3.011,12.753 8.323,16 3.576,-6.383 5.656,-16.92 -0.264,-22.61 -4.211,-4.047 -10.081,-4.828 -11.391,-11.391 -0.91,-4.559 1.89,-14.164 8.356,-10.931 5.381,2.691 9.238,11.047 12.299,15.932 h 2 c 0.577,-8.847 -8.963,-20.474 -17,-23.746 -2.627,-1.07 -5.288,-0.183 -8,-0.506 -4.343,-0.518 -7.951,-3.506 -10.66,-6.763 -11.223,-13.496 0.712,-32.188 1.74,-46.985 0.525,-7.554 -3.039,-14.69 1.199,-21.981 2.807,-4.828 8.125,-5.607 12.721,-8.019 -6.587,-2.758 -15.874,1.342 -19.737,7.043 -1.949,2.878 -2.287,7.817 -6.322,8.545 -5.319,0.96 -9.654,-4.37 -14.941,-4.378 -3.293,-0.005 -7.473,3.317 -10.581,1.657 -2.391,-1.277 -2.821,-4.694 -4.262,-6.762 -1.956,-2.809 -5.019,-4.401 -8.157,-5.56 -10.21,-3.774 -20.71,-1.018 -31,-3.835 -6.719,-1.839 -11.263,-5.758 -8,-12.71 -6.618,-9.636 -3.532,-17.405 1,-27 -3.739,-0.989 -7.108,-1.909 -11,-2 v 6 c -8.143,-1.083 -14.023,-8.111 -21,-12 -5.549,6.004 -14.582,0.442 -22,0.746 -7.795,0.319 -12.818,4.653 -20,6.705 -3.415,0.976 -9.122,5.053 -12.397,1.93 -1.642,-1.566 -1.65,-4.291 -1.494,-6.381 0.43,-5.789 1.891,-11.069 1.891,-17 -4.978,5.502 -8.437,15.214 -15.015,18.682 -8.014,4.226 -18.111,-1.204 -25.985,-3.084 -5.108,-1.22 -10.779,-0.598 -16,-0.598 0.761,-9.558 6.162,-16.131 8.443,-25 1.17,-4.551 -0.295,-9.454 0.99,-13.946003 0.76,-2.658 3.798,-4.372 3.863,-7.183 0.246,-10.673 -11.906,-15.876 -19.281,-20.111 -2.155,-1.237 -5.261,-4.602 -7.891,-4.433 -4.944,0.317 -3.796,8.776 -10.139,8.404 -4.274,-0.25 -10.128,-2.654 -13.815,-4.773 -3.334,-1.915 -6.704,-5.371 -10.961,-4.547 -3.603,0.698 -5.719,5.17 -9.213,6.579 -4.572,1.845 -8.624,-1.565 -12.996,-0.194 -4.02,1.261 -6.313,5.338 -10,7.176 -2.739,1.366 -6.033,1.026 -9,1.028"
     id="path176"
     inkscape:label="Zona Rural" />
  <path
     style="fill:#000000;stroke:none"
     d="m 119.80685,384.36136 c -0.339,7.899 -1.704,15.273 1.132,23 4.338,11.819 14.931,20.702 20.079,32.089 1.958,4.33 2.207,9.358 3.499,13.911 3.737,13.166 7.343,26.097 14.29,38 5.005,-2.857 10.21,-4.997 16,-5.685 2.989,-0.355 6.087,0.646 9,-0.247 4.401,-1.35 9.221,-4.808 12.985,-7.428 5.391,-3.753 7.875,-9.759 12.454,-14.315 5.719,-5.69 12.504,-10.448 18.471,-15.904 4.95,-4.525 9.598,-9.906 15.094,-13.773 3.91,-2.751 9.452,-5.533 13.996,-7.014 3.852,-1.254 8.467,-1.154 11.57,-4.144 6.836,-6.588 3.382,-20.481 10.658,-26.853 3.423,-2.997 8.099,-4.532 11.772,-7.246 8.484,-6.269 19.619,-19.002 28.517,-6.109 1.249,1.809 1.866,3.64 2.483,5.718 10.105,-2.753 18.966,-13.462 27.285,-19.641 7.388,-5.487 17.354,-8.577 25.715,-12.359 -1.029,-2.869 -2.524,-8.322 -6.133,-8.787 -5.383,-0.694 -12.881,4.745 -17.867,6.49 -11.758,4.115 -24.762,7.529 -37,9.837 -13.102,2.471 -26.77,5.87 -40,7.286 -7.622,0.816 -15.337,0.507 -23,1.34 -5.063,0.55 -9.951,2.335 -15,2.741 -8.612,0.692 -17.416,-0.75 -26,0.277 -6.063,0.726 -11.884,3.034 -18,3.645 -11.951,1.195 -24.004,0.002 -36,1.344 -12.311,1.377 -23.475,3.827 -36,3.827 z"
     id="path190"
     inkscape:label="AP-10" />
  <path
     style="display:inline;fill:#000000;stroke:none"
     d="m 213.80685,372.36136 c 33.868,0 67.713,-5.728 101,-12 -10.904,-19.881 -19.464,-40.995 -32,-60 -8.273,2.456 -14.623,9.086 -23,11.897 -5.132,1.721 -11.872,0.771 -16.196,4.251 -7.418,5.971 -10.926,14.599 -15.052,22.852 -5.212,10.423 -11.419,21.881 -14.752,33"
     id="path188"
     inkscape:label="AP-09" />
  <path
     style="fill:#000000;stroke:none"
     d="m 107.80685,309.36136 c 1.354,8.674 8.14,15.238 9.711,24 2.861,15.961 -0.041,32.153 2.289,48 16.319,0 31.784,-4.588 48,-4.985 12.103,-0.297 29.299,2.516 39.957,-4.743 7.472,-5.089 9.235,-15.504 12.508,-23.272 3.404,-8.08 7.805,-16.556 12.45,-24 2.341,-3.75 5.282,-6.954 7.085,-11 -3.658,-2.95 -6.485,-6.736 -10.001,-9.871 -6.769,-6.036 -12.565,-8.192 -12.999,-18.129 -6.877,1.442 -15.084,4.639 -20.696,8.966 -3.822,2.947 -5.143,7.613 -10.309,8.69 -14.109,2.942 -28.057,-3.826 -41.995,-3.462 -4.209,0.11 -8.04,2.41 -12,3.598 -7.886,2.365 -16.058,3.971 -24,6.208"
     id="path186"
     inkscape:label="AP-08" />
  <path
     style="fill:#000000;stroke:none"
     d="m 231.80685,190.36136 c -4.886,-1.372 -7.699,-4.568 -10,-9 -8.613,5.947 -18.225,8.816 -25.33,17.004 -1.522,1.753 -2.959,3.599 -2.937,6.035 0.026,2.845 2.464,5.723 0.559,8.407 -1.996,2.811 -6.411,4.207 -9.122,6.279 -5.402,4.127 -9.938,9.23 -15.26,13.426 -7.973,6.287 -16.215,12.233 -24.235,18.44 -3.268,2.529 -7.89,5.279 -9.348,9.394 -2.009,5.67 8.932,9.336 9.895,15.015 0.494,2.909 -1.544,5.32 -2.242,8 -1.102,4.229 -2.011,8.71 -2.98,13 13.812,0.114 30.384,7.47 43.96,3.566 5.15,-1.48 8.191,-7.722 13.041,-10.304 4.902,-2.609 15.171,-5.109 16.476,-11.281 1.65,-7.802 -4.705,-14.942 -6.477,-21.981 4.978,0 10.385,0.67 15,-1.533 5.503,-2.628 10.117,-6.895 15,-10.466 1.958,-1.432 4.405,-3.835 6.998,-3.813 2.525,0.02 5.019,2.487 7.002,3.812 0.086,-10.33 5.284,-19.119 6.286,-29 0.457,-4.502 -2.683,-8.415 -2.046,-13 0.432,-3.109 3.052,-5.83 3.024,-8.956 -0.036,-4.026 -5.335,-5.289 -7.37,-8.177 -2.578,-3.655 -1.894,-8.637 -1.894,-12.867 -4.956,1.455 -14.014,4.648 -16.821,9.263 -1.536,2.526 -1.171,5.908 -1.179,8.737"
     id="path180"
     inkscape:label="AP-07" />
  <path
     style="fill:#000000;stroke:none"
     d="m 191.80685,211.36136 c -0.757,-2.862 -2.162,-5.98 -1.527,-8.985 1.759,-8.329 13.716,-15.001 20.527,-18.706 2.795,-1.521 7.552,-5.353 10.812,-5.145 2.786,0.177 4.835,4.443 7.188,5.836 0.888,-7.906 7.73,-9.453 14,-12.665 4.909,-2.514 9.329,-5.728 14,-8.628 2.075,-1.289 5.529,-2.315 6.933,-4.405 1.984,-2.956 -0.51,-9.023 -0.933,-12.302 -7.51,1.172 -13.477,9.167 -21,8.645 -8.972,-0.622 -15.655,-6.377 -23,-10.694 -11.944,-7.02 -22.521,-13.534 -33,-22.781 -3.748,-3.308 -8.281,-6.071 -11.045,-10.344 -6.492,-10.037 -7.1,-22.939003 -13.994,-32.825003 -6.147,-8.815 -13.999,-15.254 -21.871,-22.411 -6.4,-5.819 -12.121,-11.886 -18.92,-17.3 -9.447,-7.521 -9.493,-17.245 -11.831,-28.29 -0.898,-4.2380003 -0.557,-10.92800035 -6.358,-10.32300035 -6.500004,0.679 -12.746004,3.45800005 -18.981004,5.14200005 -18.0827,4.8850003 -36.8403,11.1490003 -51.4861,23.5410003 -5.1041,4.318 -8.5741,10.242 -12.9545,15.215 -3.3421,3.794 -7.6806,6.834 -9.9258997,11.468 -1.8334,3.784 -1.6847,8.139 -3.5671,11.867 -2.0254,4.012 -5.43319996,7.139 -4.79479996,12.075 0.6542,5.059 5.99629996,7.432 8.81249996,11.186 3.1593997,4.211 3.4374997,9.401 6.0045997,13.825003 2.5486,4.392 7.2275,6.848 10.0571,11.019 3.2142,4.737 0.8467,12.495 4.4576,16.282 2.5167,2.64 7.054,2.667 10.3572,3.546 7.1325,1.898 14.515,6.421 22.0247,6.748 3.616,0.158 6.3847,-2.72 10.0297,-2.142 7.248,1.149 19.027,10.173 23.678,15.761 3.963,4.762 -0.465,11.169 1.576,16.79 3.841004,10.574 9.791004,20.725 14.419004,31 2.859,6.347 2.793,14.022 6.398,19.961 2.406,3.964 6.648,6.621 9.73,10.039 3.402,3.773 8.82,13.365 14.199,14.083 4.545,0.606 10.877,-6.183 14.27,-8.75 4.548,-3.438 9.348,-6.457 13.625,-10.253 6.96,-6.176 13.438,-13.298 22.09,-17.08"
     id="path4"
     inkscape:label="AP-06" />
  <path
     style="fill:#000000;stroke:none"
     d="m 415.80685,215.36136 c -8.024,7.009 -23.116,5.897 -33,9.345 -9.657,3.369 -19.456,6.846 -29,10.454 -6.199,2.344 -11.301,5.714 -18,6.88 -13.143,2.289 -24.169,-2.822 -37,-2.66 -10.829,0.136 -21.332,5.413 -32,6.981 1.302,3.66 3.137,7.105 3.698,11 1.078,7.474 0.002,13.717 3.27,21 2.601,5.795 8.14,9.48 11.02,15 1.471,2.821 1.706,6.119 3.147,9 9.557,19.105 19.904,38.068 29.865,57 19.33,-2.844 36.301,-12.569 55,-17 2.551,8.83 11.499,14.958 21,13.446 13.056,-2.078 26.047,-6.047 39,-8.731 6.356,-1.318 12.396,-3.744 19,-2.256 8.608,1.94 17.936,6.305 24.7,11.969 11.424,9.568 20.835,23.382 35.3,28.981 7.009,2.713 13.413,-8.215 16,-13.409 -5.175,-3.406 0.207,-7.742 3.081,-11.039 7.336,-8.414 15.951,-15.183 22.919,-23.961 -3.596,-5.942 -9.929,-9.935 -13,-16 l 6,-3 c -11.635,-17.589 -28.232,-33.512 -46.004,-44.771 -6.031,-3.821 -12.856,-5.918 -18.957,-9.566 -5.125,-3.065 -9.726,-6.647 -15.039,-9.505 -14.181,-7.629 -28.932,-12.666 -41.471,-23.332 -4.911,-4.177 -5.349,-11.181 -9.529,-15.826"
     id="path182"
     inkscape:label="AP-05" />
  <path
     style="fill:#000000;stroke:none"
     d="m 254.80685,247.36136 c 4.693,-0.142 7.688,-2.294 12.004,-3.791 8.06,-2.795 17.569,-5.667 25.996,-6.908 11.472,-1.69 21.834,4.05 33,3.49 9.769,-0.49 17.174,-4.466 26,-7.837 8.896,-3.397 18.106,-6.058 27,-9.554 8.411,-3.307 17.254,-4.194 26,-6.284 3.109,-0.743 8.29,-1.454 9.137,-5.225 0.62,-2.763 -1.405,-6.375 -2.362,-8.891 -2.496,-6.565 -5.553,-13.095 -6.968,-20 -2.559,-12.49 -6.25,-25.559 -12.042,-37 -8.588,-16.965 -22.677,-31.022 -33.994,-46.090003 -3.97,-5.285 -6.741,-11.431 -10.442,-16.91 -5.054,-7.481 -13.542,-12.434 -16.989,-21 -4.372,-10.862 -2.34,-24.529 -2.34,-36 -6.485,1.85 -13.895,4.448 -18.54,9.599 -7.642,8.473 -9.978,20.684 -18.054,29.268 -4.477,4.758 -14.032,2.588 -14.304,11.137 -0.11,3.448 1.586,6.584 1.754,9.996 0.188,3.817 -1.246,7.266 0.223,11 3.466,8.809003 11.214,15.629003 8.423,26.000003 -1.233,4.579 -4.083,11.094 -7.716,14.215 -3.851,3.308 -10.072,5.074 -13.093,9.244 -3.24,4.472 2.455,10.552 -1.296,15.123 -3.359,4.092 -10.506,4.454 -12.794,9.722 -1.599,3.683 -1.061,10.317 1.715,13.241 2.83,2.98 7.321,4.65 7.32,9.455 0,3.293 -2.487,5.855 -3.035,9 -0.774,4.439 2.567,8.445 2.031,13 -1.301,11.058 -6.626,20.477 -6.634,32"
     id="path174"
     inkscape:label="AP-04" />
  <path
     style="fill:#000000;stroke:none"
     d="m 544.80685,215.36136 c 1.67,-4.91 5.307,-8.516 9.286,-11.791 2.442,-2.01 5.883,-3.107 7.107,-6.267 3.777,-9.75 -8.154,-18.915 -16.129,-11.624 -7.172,6.557 -7.459,18.664 -12.489,26.639 -3.51,5.566 -10.651,8.777 -15.476,13.133 -3.046,2.749 -4.213,6.881 -7.343,9.696 -3.954,3.556 -9.226,5.002 -13.956,7.214 1.074,2.318 3.327,5.317 2.978,7.985 -0.754,5.767 -11.297,8.184 -15.978,9.015 4.006,6.116 14.837,8.512 21,12.436 12.522,7.973 23.487,18.296 33.079,29.549 4.839,5.676 16.769,14.313 8.921,21.015 2.789,3.959 10.583,9.084 11.017,14.05 0.28,3.211 -3.411,6.665 -5.253,8.949 -6.705,8.315 -15.667,14.877 -22.764,23.001 5.345,10.326 -8.498,17.21 -13.929,24.454 -1.442,1.923 -2.208,4.332 -3.071,6.546 4.716,-0.693 9.237,-2.353 14,-2.829 4.351,-0.436 8.687,0.08 13,-0.84 5.877,-1.253 11.273,-4.005 17,-5.712 6.819,-2.033 13.591,-3.497 18.852,-8.829 6.33,-6.415 1.301,-21.875 10.373,-26.719 5.634,-3.009 10.336,4.999 15.775,4.349 4.39,-0.525 7.892,-5.031 12,-6.605 10.024,-3.842 26.099,-3.212 33.363,-12.003 6.083,-7.363 7.649,-17.885 13,-25.664 2.165,-3.146 5.408,-3.006 8.637,-4.376 3.451,-1.463 7.13,-4.133 9.486,-7.061 3.243,-4.031 2.101,-8.968 2.699,-13.711 0.413,-3.271 2.086,-5.898 2.972,-9 1.286,-4.499 0.506,-14.092 -2.671,-17.701 -2.077,-2.36 -5.8,-3.08 -6.824,-6.352 -1.097,-3.505 1.543,-5.098 4.338,-5.947 -3.554,-6.262 -12.649,-7.317 -18.83,-10.141 -14.042,-6.414 -29.907,-12.893 -39.281,-25.86 -9.184,-12.703 7.462,-28.299 20.111,-29.815 3.934,-0.471 15.082,1.148 15.248,-5.203 0.186,-7.072 -10.036,-8.414 -13.95,-11.584 -2.928,-2.37 -3.48,-6.318 -7.317,-7.794 -4.455,-1.712 -10.41,-0.42 -14.981,0.112 -3.941,0.458 -8.173,-0.762 -12,0.225 -7.457,1.922 -13.095,8.898 -19,13.377 -3.761,2.853 -9.305,4.245 -12.297,7.947 -3.299,4.081 -4.766,12.879 -2.769,17.736 1.371,3.337 6.38,8.824 2.462,12.343 -3.546,3.183 -8.634,-2.713 -12.381,-2.766 -2.713,-0.038 -4.822,2.069 -7.185,3.087 -3.401,1.467 -7.255,2.38 -10.83,3.336"
     id="path178"
     inkscape:label="AP-03" />
  <path
     style="fill:#000000;stroke:none"
     d="m 331.80685,24.361357 c 0,11.462 -1.964,25.113 2.343,36 2.963,7.492 10.388,11.616 14.936,18.004 4.62,6.487 8.073,13.74 13.007,19.996 11.829,14.995003 26.629,30.446003 34.53,48.000003 9.476,21.053 12.152,44.082 22.091,65 2.581,5.432 4.003,12.345 8.307,16.699 10.378,10.501 24.753,15.831 37.786,21.941 4.628,2.17 9.781,6.311 15,6.669 5.332,0.365 11.157,-3.43 16,-5.309 -0.638,-2.724 -3.157,-6.132 -2.887,-8.892 0.535,-5.48 11.963,-6.129 15.044,-10.322 3.565,-4.853 3.311,-11.694 6.696,-16.786 3.529,-5.306 9.985,-9.673 8.983,-16.892 -0.724,-5.225 -9.579,-10.065 -12.836,-14.108 -2.602,1.025 -6.029,3.638 -8.924,3.057 -6.086,-1.22 -7.148,-9.46 -8.964,-14.057 -2.816,-7.129 -9.653,-11.779 -17.112,-12 2.359,-9.923 12.15,-11.762 18.366,-18.518 5.384,-5.852 8.474,-14.512 14.132,-19.969 2.253,-2.173 5.692,-2.131 7.942,-4.241 3.089,-2.897 7.306,-13.078 6.839,-17.268 -1.108,-9.940003 -14.451,-7.371003 -21.279,-8.188003 -6.593,-0.789 -17.716,-5.852 -23.736,-1.213 -2.755,2.123 -4.223,6.184 -5.21,9.397003 -0.816,2.656 -0.995,5.244 -1.054,8 -8.216,-1.271 -9.561,-11.673003 -17.995,-12.417003 -8.27,-0.73 -4.725,9.537003 -10.153,12.223003 -1.799,0.891 -3.962,0.428 -5.852,1.017 -2.128,0.663 -3.819,2.203 -5.941,2.875 -1.076,0.341 -2.347,-0.042 -2.883,-1.075 -1.681,-3.239 3.578,-7.379 5.212,-9.623 4.611,-6.332003 7.415,-17.300003 8.612,-25.000003 -22.652,-8.803 -31.844,-34.332 -52.001,-46.601 -5.922,-3.605 -14.252,-3.817 -20.999,-4.572 -12.775,-1.43 -25.07,-1.827 -38,-1.827"
     id="path172"
     inkscape:label="AP-02" />
  <path
     style="fill:#000000;stroke:none"
     d="m 212.80685,259.36136 c 4.517,10.125 3.448,22.259 8.317,31.995 2.081,4.161 6.095,5.537 9.398,8.419 3.822,3.336 6.631,8.233 11.285,10.558 3.636,1.817 8.225,0.831 12,0.013 11.004,-2.382 18.181,-9.34 28,-13.985 -1.966,-7.008 -8.862,-11.238 -11.671,-18 -1.501,-3.612 -2.931,-8.066 -2.986,-12 -0.062,-4.497 1.623,-11.643 -2.856,-14.821 -3.216,-2.282 -7.94,-0.61 -11.487,-2.357 -2.865,-1.412 -5.465,-5.232 -9,-4.516 -6.753,1.366 -12.976,9.61 -19,12.891 -3.794,2.066 -7.816,1.803 -12,1.803"
     id="path184"
     inkscape:label="AP-01" />
</svg>
