<?xml version="1.0" encoding="UTF-8" standalone="no"?>
<!-- Created with Inkscape (http://www.inkscape.org/) -->

<svg
   version="1.1"
   id="svg2"
   width="683.73792"
   height="535.2384"
   viewBox="0 0 683.73792 535.2384"
   sodipodi:docname="Botelhos-MG.svg"
   inkscape:version="1.2.2 (b0a8486541, 2022-12-01)"
   xmlns:inkscape="http://www.inkscape.org/namespaces/inkscape"
   xmlns:sodipodi="http://sodipodi.sourceforge.net/DTD/sodipodi-0.dtd"
   xmlns="http://www.w3.org/2000/svg"
   xmlns:svg="http://www.w3.org/2000/svg">
  <defs
     id="defs6" />
  <sodipodi:namedview
     id="namedview4"
     pagecolor="#ffffff"
     bordercolor="#000000"
     borderopacity="0.25"
     inkscape:showpageshadow="2"
     inkscape:pageopacity="0.0"
     inkscape:pagecheckerboard="0"
     inkscape:deskcolor="#d1d1d1"
     showgrid="false"
     inkscape:zoom="0.83729219"
     inkscape:cx="490.86807"
     inkscape:cy="267.52907"
     inkscape:window-width="1366"
     inkscape:window-height="699"
     inkscape:window-x="0"
     inkscape:window-y="0"
     inkscape:window-maximized="1"
     inkscape:current-layer="svg2">
    <inkscape:page
       x="0"
       y="0"
       id="page8"
       width="683.73792"
       height="535.2384" />
  </sodipodi:namedview>
  <path
     d="m 107.12381,59.139999 v 14.784986 l -24.641625,29.569945 9.856653,22.17747 -15.582147,19.99569 20.40476,12.03843 -4.92832,14.78497 -39.426612,22.17747 v 17.24913 L 20.772399,216.84642 5.9874265,236.55973 18.30824,263.66551 0,274.91515 l 7.8867998,6.01774 4.0890402,1.6293 4.2906,-0.71337 3.574266,-1.70249 3.64548,-3.72754 2.10144,-2.19656 1.151747,-7.56892 1.219026,-1.87769 2.776374,-1.11011 5.559879,-0.42678 10.152107,3.72828 2.313613,-0.38392 2.386293,-2.01668 2.337254,-1.97503 4.82828,-6.46892 1.989813,-1.74832 1.056386,-0.47977 3.565147,0.2888 3.85912,0.50786 1.808213,0.5303 2.034654,3.51586 2.295613,2.34638 0.619493,2.28698 -1.43464,1.65543 -3.390933,1.26239 -3.547653,0.44676 -0.6116,1.44916 4.53528,9.59373 2.03812,1.95211 3.926146,1.22912 2.756413,2.5785 2.670414,4.76939 0.4672,2.18349 0.51132,2.3905 4.423413,6.09904 1.985133,16.60452 0.03973,4.13264 3.05728,1.43908 1.836787,4.11317 0.982227,2.45431 -1.747094,3.72656 -3.414346,3.06245 -2.699987,1.36514 -1.071907,1.21755 v 1.84492 l -4.923399,4.46432 -4.685107,2.98829 -2.144067,2.91486 -1.50856,0.29496 -0.754533,-0.5532 -0.158693,-2.0662 0.833626,-2.17684 -0.317626,-1.1069 -2.183747,0.1476 -3.29532,2.28748 -1.03224,2.61964 0.27796,2.28748 3.05704,5.7186 2.739654,3.06196 1.905786,0.2952 1.191173,0.18458 1.58816,1.21729 5.042414,5.38641 1.588146,0.88538 3.533613,-0.70082 4.248214,0.88539 1.508813,3.61541 2.183733,1.88164 0.198614,1.54947 -0.99256,1.66009 -3.65288,1.69683 -0.119067,0.92233 0.714613,1.21755 5.67768,4.13167 1.508814,0.36888 0.47632,0.95929 -0.119067,1.43859 1.310202,0.25824 1.66749,-1.54922 0.67495,-1.5125 4.12944,-4.98032 1.50856,-0.47978 3.77189,0.77474 1.62783,1.6601 0.9928,2.43484 -0.31763,2.50852 -5.87628,7.30427 -1.78677,0.99601 -0.15868,1.36515 2.62039,2.91412 0.5559,1.43883 2.22343,1.29097 4.3278,-0.99601 2.50137,-0.70082 2.2631,-1.47553 1.27052,-1.51251 -1.07216,-2.61916 -1.19094,-0.84841 0.0397,-1.10689 0.63525,-1.03274 2.89835,-0.81169 2.06448,-1.47555 2.06472,0.62714 1.34988,-0.33218 1.38978,-2.13962 0.47632,-4.72183 1.78676,-3.32021 3.73223,-4.02127 4.62129,-1.22371 1.45336,-0.21512 1.69115,-0.72397 2.33012,-2.26949 0.95461,-0.0781 2.86362,1.3824 3.00405,2.76528 0.72988,1.30428 0.98271,0.44356 7.2715,-0.7565 5.7553,-2.06078 2.44248,-2.16526 3.76204,-0.7565 1.57213,0.8346 1.65641,3.31308 -0.0559,1.17392 -1.74068,2.81728 -1.6564,0.49555 -3.20071,2.94788 -0.89844,4.46061 0.87035,3.91286 0.56158,0.73038 2.3863,-0.20872 h 3.48136 l 28.67571,-17.33982 0.77768,-39.20631 -22.55447,-6.50465 -1.77346,-5.53032 -1.77272,-5.52736 -0.8287,-2.58441 -1.14411,1.07314 -13.91537,13.05267 -5.13604,4.81742 -0.60891,0.5712 -0.26809,-0.48198 -9.6652,-17.37185 -13.60439,-24.45336 -1.54453,-2.77639 0.8908,-2.06225 1.06549,-2.46614 11.84523,-27.41922 5.36325,-12.4157 0.80504,-1.8634 12.28188,-4.63558 24.11775,-9.10262 17.18581,4.7285 1.10714,-5.2647 5.48647,-26.0876 -4.95815,-12.83359 -26.34583,-17.44358 -16.82359,-27.95124 -17.20232,-28.58305 -6.89053,-6.89029 -5.60203,-5.60227 -7.22073,-7.220746 -2.46416,-24.641626 -19.71331,-12.320813 z"
     style="display:inline;fill:#000000;fill-opacity:1;fill-rule:evenodd;stroke:none;stroke-width:0.982677;stroke-linecap:square;stroke-linejoin:bevel;stroke-miterlimit:10;stroke-dasharray:none;stroke-opacity:1"
     id="path28"
     inkscape:label="Palmeiral" />
  <path
     d="m 639.38296,73.924985 -27.10579,-14.784986 -7.39248,24.641639 -9.85665,-7.392493 -22.86496,2.12756 -38.73911,7.729093 -29.56996,27.105782 19.07188,19.87347 11.89674,26.70907 -3.02624,20.56885 11.83586,12.44552 15.94142,-3.35103 15.49712,9.55603 3.1731,25.79288 25.75371,5.96772 18.52212,-11.59267 11.93493,7.38165 V 192.2048 l 27.10579,-4.92832 22.17745,-24.64163 -12.3208,-34.49829 -32.03413,-17.24914 z"
     style="display:inline;fill:#000000;fill-opacity:1;fill-rule:evenodd;stroke:none;stroke-width:0.982677;stroke-linecap:square;stroke-linejoin:bevel;stroke-miterlimit:10;stroke-dasharray:none;stroke-opacity:1"
     id="path30"
     inkscape:label="São Gonçalo de Botelhos" />
  <path
     id="path26-3"
     style="display:inline;fill:#000000;fill-opacity:1;fill-rule:evenodd;stroke:none;stroke-width:0.982677;stroke-linecap:square;stroke-linejoin:bevel;stroke-miterlimit:10;stroke-dasharray:none;stroke-opacity:1"
     d="M 311.65022,0 299.32795,12.320306 269.75763,7.3925731 259.90217,12.320306 232.7967,49.283199 v 17.249999 l -14.78516,19.712893 -19.71289,7.392573 -14.78515,19.712896 -34.49805,2.46484 17.20117,28.58204 16.82422,27.95117 26.3457,17.44336 4.95899,12.83398 -5.48828,26.08788 -1.10547,5.26368 -17.1875,-4.72656 -24.11719,9.10156 -12.28125,4.63476 -0.80468,1.86524 -5.36328,12.41407 -11.84571,27.41992 -1.06641,2.46679 -0.89063,2.0625 1.54493,2.77539 13.60547,24.45313 9.66407,17.37304 0.26757,0.48047 0.60937,-0.57031 5.13672,-4.81836 13.91407,-13.05273 1.14452,-1.07227 0.83008,2.58399 1.77149,5.52735 1.77343,5.53124 22.55469,6.5039 -0.77735,39.20704 -28.67577,17.33984 3.92968,2.19141 1.82618,0.78124 1.23437,-0.46874 0.56251,-2.13867 0.81445,-0.70508 4.15429,-0.13093 3.28907,-1.66992 0.97851,0.93945 -0.67383,1.56641 -3.02735,3.46288 -1.68554,6.59767 -0.86914,2.11328 -2.83593,2.34765 -1.03907,3.13086 1.0664,3.46876 -1.23437,1.51366 -4.43749,1.45899 -2.2461,-0.28711 -1.96485,0.93945 -0.5332,1.14844 1.12305,1.79883 2.07812,1.30469 10.2461,-1.09571 4.85742,-1.33008 7.27148,1.80079 2.72461,1.64257 1.20703,0.39063 1.65625,-4.7461 v -1.27929 l 1.59962,-0.44336 2.66796,0.83594 2.13281,0.25976 1.23633,-0.625 1.87891,0.19141 1.09571,1.37304 1.99413,5.26954 0.16797,2.18945 -0.54492,1.66211 -0.0273,1.51367 1.48632,1.17383 2.5,-0.73047 1.65625,-1.19922 1.59962,-0.54883 3.3418,-0.73047 3.19921,-2.66015 0.67383,-2.89453 1.40429,-1.72266 3.22852,-3.39062 5.44727,-0.70313 4.96874,1.51172 1.54494,-2.18945 3.22656,-2.85157 0.8164,0.008 3.50781,2.63477 0.70312,0.73047 3.19923,0.57422 -0.44922,2.63281 -0.33594,3.52148 0.58984,2.79102 0.58985,0.67773 0.16796,0.99219 -0.95507,1.43359 -2.30274,0.44336 -3.03124,-0.0508 -7.15822,-2.86914 -0.26952,1.26562 0.77343,4.9668 0.16993,4.87695 -0.75781,2.45313 -3.23048,3.28515 -0.78515,1.80078 0.11134,1.72071 -1.96484,4.82422 -0.86914,1.07031 -0.2539,0.93945 1.09569,2.00781 -1.32031,1.48633 -2.52538,0.99024 -4.4922,-0.36328 -4.91406,0.96484 -1.9082,1.87695 -1.34766,0.0254 -2.75195,1.07031 -1.57227,2.58203 0.19727,2.39844 -2.24609,3.70312 1.62694,4.33008 -0.60546,2.0625 0.0391,1.64258 1.86523,1.80664 2.96485,6.70117 1.0957,0.62696 -0.0567,0.91211 -3.34179,2.84375 0.19727,1.7207 1.54492,0.59961 v 0.80859 l -1.62891,2.18946 -1.32032,0.0781 -2.89062,1.12304 -0.89843,1.56446 0.0547,1.58984 1.37696,1.30469 2.35741,0.78125 3.00391,-0.73047 0.95508,0.70508 -1.7129,2.76367 -1.15038,1.64258 0.73046,1.19922 1.20703,0.33984 3.78907,-1.61719 3.73437,-0.39062 5.19336,-1.85157 1.76953,-0.18164 0.5332,-1.53906 -0.33593,-3 1.12109,-0.75586 1.37696,0.41797 2.89062,3.70312 0.75781,2.16407 1.15235,8.39258 1.86718,2.95117 -1.0332,1.6582 -2.81836,0.33203 -5.12109,-0.55273 -6.51172,0.26953 -0.99413,1.78906 -0.67384,2.91992 0.19726,4.6836 -0.96678,2.8164 -0.89844,1.34961 1.58789,2.28711 1.50976,-0.51562 1.98437,0.29492 2.30274,0.92187 5.5586,-1.10742 2.38281,0.29492 1.1914,1.29102 3.05664,0.62695 2.38281,-0.2207 2.06446,-0.99609 3.81054,-11.61524 1.50978,-0.48047 3.61328,0.51758 2.06445,1.84375 0.87304,2.21094 -0.87304,3.54101 -0.67579,1.17969 0.35743,1.10742 1.42968,0.47852 11.59376,-5.05274 1.58788,-1.36328 -0.39648,-4.9414 -0.65039,-2.84375 -1.66797,-3.35547 0.57617,-1.56836 2.73243,-2.31445 1.88085,-0.625 0.92774,1.35546 v 1.7461 l -0.95508,0.70508 -0.39258,1.33007 0.64454,2.11133 0.98241,3.49414 1.09571,0.41797 1.03906,-0.67773 3.3125,-5.2168 3.95898,-4.17187 4.71484,-2.37305 3.95899,-2.89453 0.56251,-2.39844 -0.14063,-1.25195 -2.33008,-2.78907 -3.48243,-5.89453 0.70314,-1.7207 2.55468,-3.10352 0.92578,-2.0332 0.19727,-1.95703 1.68359,-1.98242 3.67774,-0.91211 1.60156,1.12109 1.62695,-0.0781 3.20117,0.4961 7.27148,0.39062 1.76954,-0.41602 2.86328,0.36329 2.02149,0.96484 0.89844,-0.625 1.375,-5.86719 -1.48829,-3.88672 -0.0273,-1.35547 1.70118,-3.17187 -1.2383,-2.26758 -32.03514,-12.32031 32.03514,-36.96289 -19.71484,-19.71289 27.10547,-27.10547 14.78516,9.85547 32.03516,-7.39259 41.89062,9.85743 24.64063,-9.85743 29.5703,-2.46484 27.10547,-12.32031 36.96289,-39.42578 56.67579,-24.64257 2.46484,-32.03322 22.17773,-12.32226 12.32032,-24.64063 -11.93555,-7.38085 -18.52149,11.5918 -25.7539,-5.9668 -3.17383,-25.79297 -15.49609,-9.55664 -15.9414,3.35156 -11.83595,-12.44531 3.0254,-20.57031 -11.89649,-26.70898 -19.07227,-19.87306 -29.56836,-7.39257 -46.8203,-34.498052 -51.74806,2.46484 -41.89062,-4.92968 z"
     inkscape:label="Centro de Botelhos" />
</svg>
