<?xml version="1.0" encoding="UTF-8" standalone="no"?>
<!-- Created with Inkscape (http://www.inkscape.org/) -->

<svg
   version="1.1"
   id="svg2"
   width="416.90536"
   height="536.14941"
   viewBox="0 0 416.90537 536.14942"
   sodipodi:docname="Caruaru-PE.svg"
   inkscape:version="1.2.2 (b0a8486541, 2022-12-01)"
   xmlns:inkscape="http://www.inkscape.org/namespaces/inkscape"
   xmlns:sodipodi="http://sodipodi.sourceforge.net/DTD/sodipodi-0.dtd"
   xmlns="http://www.w3.org/2000/svg"
   xmlns:svg="http://www.w3.org/2000/svg">
  <defs
     id="defs6" />
  <sodipodi:namedview
     id="namedview4"
     pagecolor="#ffffff"
     bordercolor="#000000"
     borderopacity="0.25"
     inkscape:showpageshadow="2"
     inkscape:pageopacity="0.0"
     inkscape:pagecheckerboard="0"
     inkscape:deskcolor="#d1d1d1"
     showgrid="false"
     inkscape:zoom="1.6745844"
     inkscape:cx="270.81346"
     inkscape:cy="349.34041"
     inkscape:window-width="1366"
     inkscape:window-height="699"
     inkscape:window-x="0"
     inkscape:window-y="0"
     inkscape:window-maximized="1"
     inkscape:current-layer="svg2">
    <inkscape:page
       x="0"
       y="0"
       id="page8"
       width="416.90536"
       height="536.14941" />
  </sodipodi:namedview>
  <path
     id="path2104"
     style="display:inline;fill:#000000;fill-opacity:1;fill-rule:evenodd;stroke:#232323;stroke-width:0.982677;stroke-linecap:square;stroke-linejoin:bevel;stroke-miterlimit:10;stroke-dasharray:none;stroke-opacity:1"
     d="m 274.01758,252.80664 -0.002,0.002 -10.05468,0.41602 2.22265,3.03125 0.9375,1.27734 1.44141,1.98633 0.55664,0.875 0.29883,0.79297 -0.004,0.004 0.35742,1.01171 -0.37695,0.0977 -3.00976,0.77149 -2.80079,-0.0195 -2.80468,0.25 -2.71289,0.79102 -2.22852,0.97852 -4.00586,-0.66407 -2.7168,1.42774 -3.00195,0.9707 -2.03711,0.98047 -1.16992,0.98242 -1.05664,-0.2793 -0.86914,-0.45898 -2.03125,0.5293 -0.52149,-1.44922 -3.6582,1.18164 -6.32812,2.89648 -4.67774,5.47657 -4.75781,2.76367 -10.99414,3.43945 -9.08203,1.93164 7.27929,6.36133 4.48047,1.66016 1.83008,1.09765 1.15039,1.18164 1.14258,2.17578 0.37891,1.08789 1.53711,1.18555 3.5664,1.20117 -9.5957,5.27149 -11.6875,6.42187 -4.42969,2.01953 -3.48633,0.69532 -9.95508,0.0156 -8.36328,0.47852 -3.75781,-1.38282 -2.58984,0.0605 -1.56641,0.17774 -4.38867,-1.38868 -3.57422,-0.11718 -5.81641,2.21484 -4.40625,1.41016 -2.04101,1.25 -1.64063,-0.10352 -1.73047,-1.36719 -3.47656,-0.29882 -0.98828,0.25585 -1.04297,0.27149 -1.84961,1.42969 -1.41211,1.34375 -6.50976,7.51953 0.95898,1.28125 5.9043,0.33008 1.61914,1.93359 0.17187,3.17773 0.2754,1.23828 0.45507,0.79493 -0.79687,0.62695 0.008,0.88672 1.77539,16.51953 0.0703,0.65625 5.95508,55.26172 0.35352,3.2832 2.54687,-1.53515 1.02735,-0.26172 0.66211,0.16015 0.45507,0.45118 2.74219,1.35937 1.62696,0.32227 1.95117,-0.64454 h 3.4707 l 2.2793,-0.21484 1.41015,0.10742 2.60157,-0.85742 1.19335,0.64258 1.57422,-0.69727 0.86524,-0.19922 0.0918,0.0293 h 0.002 l 0.26953,0.10547 0.45508,0.29297 1.40625,0.84375 1.13867,0.64453 1.41016,-0.5918 2.54882,-0.80468 2.49414,-1.12696 1.57422,-0.53711 1.62696,-0.42773 h 1.41015 l 2.76563,0.21484 1.46484,0.85742 1.51563,-0.10742 -2.01368,-3.55859 -0.83984,-2.75195 0.18164,-2.41211 1.51563,-4.31055 5.57226,-7.98438 0.94922,0.26758 3.42383,1.74024 0.58984,0.30664 0.84766,0.38281 0.89453,0.20117 0.92188,0.1211 1.02343,0.006 4.73828,-0.59765 1.61133,0.0684 1.5625,0.47461 1.97266,0.73828 1.05078,0.37695 0.50781,0.0859 0.42774,0.008 0.48828,-0.10742 0.44922,-0.13086 2.55273,-0.74023 1.5332,-0.41602 0.79297,-0.16211 0.83985,-0.0937 1.41796,-0.0937 0.31836,0.0195 3.05664,-0.22656 -0.19726,-0.55469 -0.25781,-0.28125 -0.78907,-0.96289 -0.0254,-0.0586 0.008,-0.0566 0.0371,-0.0801 0.0703,-0.084 -0.53711,-0.3789 -0.27539,-0.19531 -0.54492,-0.4336 -0.6543,-0.41601 -0.30273,-0.16407 -0.77344,-0.30664 -0.40039,-0.23047 -1.16602,-0.93359 -0.36719,-0.45312 -0.33789,-0.59375 -0.10742,-0.22461 -0.14258,-0.30274 -0.23242,-0.60156 -0.11719,-0.20898 -0.0957,-0.17188 -0.27148,-0.34375 -0.53321,-0.47852 -0.22656,-0.10742 -0.21094,-0.14062 -0.18359,-0.20313 -0.17383,-0.25586 -0.30078,-0.49414 -0.26172,-0.44336 -0.33398,-0.56836 -0.34961,-0.45703 -0.34375,-0.44726 -0.36719,-0.47852 -1.24609,-1.62695 -0.46485,-0.42383 -0.73633,-0.71094 -0.65429,-0.4707 -0.26563,-0.19141 -0.49023,-0.21289 -0.26953,-0.11718 -0.98633,-0.27735 -0.99805,-0.27929 -0.59179,-0.16602 -0.79493,-0.375 -0.14257,-0.13867 -0.87891,-0.8418 -0.78906,-0.62305 -1.63086,-1.05273 -0.24219,-0.13086 0.0156,-0.53516 0.0156,-0.57812 0.0195,-0.72461 0.0176,-0.61719 0.0176,-0.65625 0.0195,-0.68554 -0.0566,-1.06836 -1.62891,-3.7793 -1.66797,-1.6875 0.50977,-2.0293 -1.78711,-6.49609 -0.73438,-0.6836 -0.56054,-1.31054 -1.41211,-5.83399 -0.86524,-0.25195 -1.42578,-9.29687 2.94727,0.25195 2.91406,-0.27735 3.48828,0.85157 2.59766,0.28906 2.56445,0.5918 5.66406,2.67773 2.33008,0.47852 3.2461,-0.45313 0.92968,0.13867 3.13086,1.90235 2.87696,2.47461 0.75781,-0.72461 0.3125,-1.04493 -0.23047,-3.66601 -0.4707,-3.5918 1.18359,-3.8164 0.80273,-0.44141 0.98047,0.11328 5.3711,1.38672 0.75195,0.81836 1.33594,2.00391 2.77539,1.57421 7.99414,-2.62109 0.74414,-0.20703 -0.30469,-4.92188 -1.4043,-2.96093 -1.05859,-2.27149 -1.54687,-3.26367 -0.0566,-0.12109 4.71484,-4.03321 11.5332,-9.83789 4.41797,-15.00781 0.006,-0.72656 0.48437,-2.05274 0.9668,-1.69726 0.81055,-1.20508 2.43164,0.0156 1.51172,2.36523 16.84765,27.25195 16.37696,26.52539 0.51562,1.39453 5.24024,28.11133 12.28711,-4.47656 10.29492,3.43359 0.33789,0.25196 -0.33594,-0.25391 -1.39062,-1.03906 -1.71485,-2.03321 -2.04297,-1.2246 -1.5,-1.62696 -1.60546,-2.33398 -1.0625,-2.22852 -2.05469,0.5918 -1.29492,-0.71875 1.48828,-4.02539 1.41797,-1.80664 1.20898,-2.71875 0.33594,-1.71289 0.0156,-2.01953 1.96289,-2.50782 0.0684,-1.61523 0.49219,-1.6582 0.94531,-3.17774 1.32422,-3.52344 1.74414,-2.10742 0.87695,-1.71094 0.0176,-2.72656 0.61133,-2.01367 0.3418,-2.41797 1.52929,-2.51562 0.0195,-2.42188 -0.625,-3.33594 0.21875,-0.5039 0.87109,-0.69922 1.23828,-3.20898 0.082,-0.21485 -0.79883,-1.31836 -3.8789,-1.13672 -1.93555,-1.73242 -1.72265,-0.92383 -0.43946,-1.17187 -0.0898,-0.24219 1.30664,-1.20117 0.008,-1.11133 -0.63672,-1.41797 0.60547,-1.30859 -0.53125,-1.82031 0.98047,-0.90235 0.23242,-2.21875 -0.75195,-0.71289 -1.8125,-3.44336 -1.61328,-0.92187 -2.04883,-0.41797 -0.79688,-1.72461 0.33204,-1.10547 0.0117,-1.51367 -0.44531,-1.16406 -14.1582,-9.63086 z m 81.79297,111.32227 -4.54102,0.42187 -0.92578,1.1543 -0.0137,1.66601 0.68945,1.66993 -0.0723,2.625 -0.39063,1.76562 -1.03711,1.10156 -1.54492,0.94727 0.52539,2.17578 -0.29688,0.14258 1.68165,1.69336 1.15625,2.62695 0.6875,2.94336 -0.0254,2.19531 2.25196,0.44727 0.2793,1.04101 -5.08985,3.65039 -4.12305,1.82618 -0.76562,2.52148 0.33008,1.50586 -3.61914,1.12891 -2.91407,-0.43164 -2.64453,0.67187 -2.21875,1.05859 -1.12109,0.74024 -3.33984,-0.36914 -1.05274,1.04883 -2.67187,0.77539 -0.30469,1.05859 -0.73047,1.52344 -2.22656,1.02539 -1.75781,-1.42969 -1.33985,-0.0176 -1.72265,-0.38672 -2.19727,0.20899 0.35156,1.43555 -2.21094,1.53515 -1.09961,-0.96875 -0.43945,-1.89453 -1.83789,1.81836 -2.5293,1.46484 -0.57812,0.57032 -2.09961,1.94336 1.79883,3.68359 -2.60156,1.57812 -1.03907,0.60938 -0.74804,0.0117 -1.12891,-0.31055 -1.81445,1.41602 -2.19922,0.31445 -2.98047,2.28125 -2.18359,-1.16016 -1.93165,-0.01 -0.7246,-0.32813 -1.46094,-1.48047 0.004,-0.41601 -1.05664,-0.008 -0.73828,-0.42188 -0.42383,-0.006 -1.14843,1.46875 -1.38672,-0.0117 -0.43946,1.45313 -0.002,1.04687 0.002,0.0332 1.31055,0.33398 1.88477,0.48047 1.15234,0.24219 0.002,0.004 -3.20507,6.27735 -2.64063,-5.41992 -5.125,5.79101 -1.84765,-0.30469 -0.35352,-1.04492 -3.03516,-0.67578 -0.70312,-0.58789 -4.04883,-0.30469 -1.92383,1.03516 -0.71094,-0.004 0.13282,-0.73633 0.17382,-0.63281 0.0723,-0.125 -0.75195,0.36914 -0.33985,0.27539 -0.21289,0.28516 -0.33593,0.44726 -1.1836,2.13672 -1.15625,1.97852 -0.27344,0.45312 -0.11718,0.14063 -0.11719,0.10742 -0.17578,0.14453 -0.18945,0.12305 -1.14258,0.5918 -1.58008,0.8125 -0.82422,0.44531 -0.27539,0.23437 -0.20313,0.28516 -0.19726,0.40625 -1.26953,3.34766 -0.26758,0.79296 -0.0957,0.44336 -0.3711,1.95899 -0.33203,2.00195 -0.0254,0.1211 -0.0605,0.28515 -0.0371,0.19141 -0.10351,0.38281 -0.11719,0.25 -0.37695,0.6582 -0.20508,0.35547 -0.78516,1.30664 -0.0137,0.0234 -0.21875,0.17188 -0.1914,0.0937 -0.37305,0.39844 -0.39649,-0.43164 -0.91796,-0.92578 -0.17969,-0.17578 -3.05078,-2.79297 -4.34375,-4.15039 -0.16797,-0.17969 -0.0449,-0.0469 -0.0137,-0.0176 -0.043,0.14844 -0.0254,0.24804 -0.01,0.43555 -0.0293,0.21484 -0.0293,0.15821 -0.0859,0.23828 -0.0801,0.35547 -0.0469,0.1875 -0.0332,0.20508 -0.0547,0.22461 -0.0879,0.16992 -0.21679,0.30859 -0.11719,0.1543 -0.1543,0.27539 -0.1582,0.21094 -0.37109,0.40429 -0.13282,0.16992 -0.26757,0.46875 -0.23633,0.42774 -0.30469,0.57617 -0.10742,0.21094 -0.18946,0.42773 -0.16992,0.26953 -0.14258,0.14844 -0.13476,0.10938 -0.0937,0.0605 -0.14649,0.10547 -0.0976,0.12891 -0.21485,0.4707 -0.15039,0.36719 -0.084,0.20117 -0.0859,0.16211 -0.22265,0.16602 -0.33008,0.1621 -0.1211,0.0176 h -0.22461 l -0.31445,-0.0391 -0.25976,0.008 -0.67383,0.0508 -0.85547,0.0274 -0.50977,0.008 1.16016,-1.86914 0.52734,-4.92383 -1.16211,-1.65039 -0.85742,-0.46289 -0.41015,0.35742 -0.86719,-0.0195 -0.0195,-2.46094 -1.54297,-1.48632 -0.8086,-0.32813 -0.0684,-6.45703 0.73243,-0.50195 0.96484,0.18359 2.03906,0.91602 0.01,-1.23633 0.70312,-0.91602 3.8125,-3.44531 -0.35937,-1.76758 -4.83985,-2.51953 0.21485,-0.48242 -22.94336,3.79492 -9.8125,7.83594 -7.27734,-2.95313 -45.79688,16.41211 0.54492,5.04688 1.08399,10.01953 0.66211,6.13281 0.33789,3.11719 0.29101,2.69531 2.18555,20.20117 -1.35938,17.45508 -0.125,1.59375 -0.59765,7.66406 12.85547,-9.78125 17.6914,-2.52929 12.63868,-7.58204 h 5.05468 l 20.32227,-7.88867 5.75976,3.38282 3.41407,3.9375 1.6875,1.94531 1.82226,1.17969 3.07227,0.94531 2.83984,1.4043 1.44336,2.46484 0.89258,10.99219 -4.07422,7.95898 1.25195,5.6875 1.51758,6.89063 7.39649,-4.45508 0.41796,-5.01563 -0.13281,-2.7539 4.61328,-2.44727 2.51172,-1.5332 0.32813,-0.19922 6.72656,-3.58399 6.11133,-3.64648 3.51953,-3.38672 0.86523,-3.47851 -1.48437,-2.48047 -1.38867,-0.91602 -0.83985,-0.006 -0.69336,-0.98242 0.7793,-1.03906 0.25781,-0.99805 -0.49609,-1.19141 -0.74414,-0.94335 -0.28321,-0.66993 -0.18554,-10.41797 5.06836,-0.99609 1.45508,-0.28711 3.16015,-0.84766 2.27735,0.18946 0.87695,1.26562 4.03125,-0.66601 6.39258,-0.0391 3.67773,0.20313 0.76953,-0.16797 3.0918,-0.67773 3.41016,0.80859 0.47851,6.10938 -0.36328,1.75 -0.53711,1.39062 -0.0117,1.74414 0.42383,1.66406 1.57031,0.88282 3.32813,-0.14844 1.5664,1.58398 2.1875,0.27735 3.86914,-2.06446 2.45508,-0.50781 2.375,-1.25781 12.62696,-1.61328 0.86718,-0.11133 1.87891,-4.10352 0.62891,-3.36328 0.37304,-0.25586 2.44336,0.68164 1.50977,-1.46289 0.70898,0.375 0.55664,-0.81054 0.95117,-0.21485 2.88086,0.0977 1.5918,-1.98047 1.26563,-0.50781 3.0957,-1.81836 2.375,-0.79297 1.70312,-0.87305 2.20899,0.0176 2.61328,-0.86719 1.82227,-0.94726 3.625,0.83789 1.50976,-1.53711 2.01953,-0.7207 2.29297,-0.35352 1.19141,-1.17187 0.48828,-1.91211 1.18359,0.082 0.48242,-1.10352 1.11133,-0.8789 -0.46875,-0.88477 -0.14648,-1.40234 0.99804,-1.4668 0.96094,-1.91211 0.64258,-1.76563 0.57617,-2.57226 1.10742,-0.95313 2.83985,-4.77148 2.31054,-2.93359 1.01954,-2.36719 1.76953,-1.30078 1.81836,-0.35547 1.50976,-1.39258 -0.0273,-1.25195 1.43555,-2.41992 0.48828,-1.69336 2.15429,-3.23047 1.67774,-1.6211 3.30273,-3.19336 5.53711,-4.10742 0.56836,-1.46679 2.42383,-2.27149 1.27344,-1.53711 0.88476,-1.83984 1.18946,-0.875 1.12304,-2.42383 2.17383,-0.64844 2.78125,-2.5625 -0.0117,-0.10156 -0.35351,-3.41406 -0.004,-0.0254 0.85937,-1.41993 0.33985,-0.5625 -0.62696,-0.66796 -2.08789,-0.60547 -1.17578,-1.1875 -0.22265,-1.23828 -0.71094,-0.4668 0.008,-1.16797 0.004,-0.52734 -0.46289,-1.47852 0.0156,-1.62109 -1.75586,-3.03711 -0.45898,-2.14063 -1.96485,-1.04687 -1.26562,0.43359 -1.5,-0.23242 -0.55859,-1.73633 1.07421,-1.39453 0.44141,-0.99219 -0.64258,-1.03515 0.084,-0.81055 0.79297,-0.69531 1.58789,-0.91211 0.83593,-0.87696 2.41211,-0.86718 2.33985,-1.38477 0.61719,-1.0293 0.16992,-1.61914 0.56445,-1.6914 0.43945,-0.62696 1.73828,-0.39257 1.22657,-0.58008 0.71875,-1.24805 0.01,-0.95898 -0.46484,-0.96289 -1.77344,-1.42188 -0.35547,-0.0508 -2.85937,1.05273 -2.29688,0.3379 -2.96094,-1.63672 -3.49804,-2.19727 -2.10938,0.1875 -3.56445,-0.0762 -5.22266,-2.46094 -2.1289,-0.7207 -3.5293,1.99219 -6.17187,1.875 -1.83985,0.38867 -2.09961,-1.17383 -1.01758,-1.16797 -1.02539,-0.0625 -1.4707,1.45703 -1,-0.25976 -1.33398,-1.92774 -1.89063,-0.51953 -2.16211,0.23633 -2.43164,-0.0664 -1.23633,-0.76367 -1.23242,-1.42383 -2.11719,-2.03711 z"
     inkscape:label="Zona Rural" />
  <path
     d="m 261.62208,187.41389 20.27407,-40.64101 18.71877,-37.42896 10.34726,-21.966851 11.37366,-22.747326 3.79123,-7.582443 6.3187,-13.901146 2.73082,-4.103745 -1.31581,-1.038289 -0.93656,-1.588901 -1.35132,-1.882468 -1.32831,-1.156701 -1.15734,-0.120688 -1.91103,-0.09617 -3.10956,-0.962339 -1.73827,-1.234548 -0.46379,-2.122073 0.21053,-1.250977 -1.00404,-2.325535 -2.05686,-2.036771 -1.19891,-0.54126 -1.27992,-0.03197 -2.15303,0.605331 -0.9655,0.307216 -3.27852,0.891063 -3.81107,1.34601 -2.81359,1.117273 -1.87867,0.513205 -1.97586,-0.673574 -2.70795,-1.828759 -0.42866,-0.311891 -0.2813,-0.125868 -0.0763,-0.0369 -0.11109,-0.05308 -2.12991,-2.266266 -2.45077,-1.746364 -2.01541,-0.907239 -1.03185,-0.117654 -1.14191,0.209402 -0.11879,-6.32e-4 -1.47782,-0.119171 -2.26778,-0.127385 -2.13168,-0.419183 -4.00593,-1.072789 -5.83242,-2.081886 -0.0796,-0.0302 -0.18704,-0.04107 -0.22166,-0.07178 -0.19752,-0.05194 -0.19348,-0.0479 -0.0484,-0.0039 -0.1653,-0.04398 -0.28219,-0.0039 -0.0847,-0.03602 -0.14103,-0.07178 -0.56831,-0.155692 -0.16934,-0.03993 -0.25401,-0.0479 -0.0967,-0.02793 -0.45153,-0.07987 -0.43928,-0.103753 -0.54416,-0.08391 -0.60066,0.0081 -0.12498,0.02388 h -0.6248 l -0.10476,-0.01592 -0.16126,-0.008 -0.41122,-0.0599 -0.2257,-0.05586 -0.35069,-0.05194 -0.9593,-0.191583 -0.19348,-0.0599 -0.14925,-0.03589 -0.1773,-0.05598 -0.33869,-0.12372 -0.20144,-0.08379 -0.0766,-0.01997 -0.85858,-0.283457 -0.24997,-0.111714 -0.1169,-0.02793 -0.11285,-0.04398 -0.0847,-0.03197 -0.13712,-0.05978 -0.0845,-0.05598 -0.0806,-0.06382 -0.0324,-0.03993 -0.21761,-0.171616 -0.0967,-0.03602 -0.14925,-0.06382 -0.0564,-0.01201 -0.20157,-0.07582 -0.37887,-0.103753 -0.49993,-0.09579 -0.14508,-0.03602 -0.15721,-0.01984 h -0.46354 l -0.0766,0.01188 h -0.14912 l -0.1049,-0.008 -0.70933,-0.175659 -0.18552,-0.06786 -0.0403,-0.02793 -0.28611,-0.05586 -0.36282,-0.05194 -0.38696,-0.02388 -0.16934,-0.01997 -0.13699,-0.02793 -0.32251,-0.03993 -0.35069,-0.06395 -0.0968,-0.03185 -0.21357,-0.02401 h -0.27411 l -0.0565,-0.008 -0.52002,-0.143687 -0.58853,-0.06786 -0.0926,0.008 h -0.25401 l -0.21762,-0.03197 -0.39909,-0.111715 -0.0524,-0.01201 -0.0523,-0.01997 -0.20561,-0.0039 -0.0928,0.03589 -0.14103,0.09175 -0.0444,0.02806 -0.14104,0.143687 -0.0444,0.03185 -0.17743,0.09984 h -0.10477 l -0.10476,-0.01997 -0.21774,-0.01592 -0.0725,-0.01997 -0.15721,-0.01605 -0.15721,-0.0039 -0.20953,-0.02793 -0.2621,-0.01201 -0.48363,-0.004 -0.31846,-0.03185 h -0.10085 l -0.25793,-0.01605 -0.1653,-0.02388 -0.20156,-0.04398 -0.0604,-0.01997 -0.13307,-0.02388 -0.16126,-0.01997 -0.37078,0.02401 -0.18539,0.03981 -0.3225,0.123846 -0.0685,0.01997 -0.15329,0.03185 -0.0483,0.01997 -0.10489,0.02401 -0.17326,0.01188 -0.11285,0.02806 -0.21774,-0.004 -0.20953,-0.01201 -0.12498,-0.05586 -0.0525,-0.008 -0.0604,0.008 -0.0363,0.03197 -0.0202,0.05586 -0.004,0.227473 -0.0564,0.151776 -0.0363,0.03185 -0.15329,0.07987 -0.14912,0.01997 -0.0483,0.01201 h -0.10084 l -0.10477,-0.01592 -0.17743,-0.04398 -0.17326,-0.08783 -0.14116,-0.05181 -0.18943,-0.05598 -0.0444,-0.02793 -0.51598,-0.470996 -0.0523,-0.06395 -0.21774,-0.239479 -0.0766,-0.119677 -0.13699,-0.135725 -0.0444,-0.03197 -0.22571,-0.335397 -0.0403,-0.111714 -0.0162,-0.07583 -0.0403,-0.143687 -0.0241,-0.0479 -0.0806,-0.259572 -0.0162,-0.0479 -0.0282,-0.04385 -0.11285,-0.09983 -0.10843,-0.04929 h -0.12473 l -0.48895,-0.180336 -0.25881,-0.1139885 -0.21572,-0.16138 -0.14862,-0.08063 -0.115,-0.04284 -0.0767,-0.0047 -0.11993,-0.02376 -0.12461,0.0048 -0.0527,0.01896 -0.22052,0.109187 -0.25401,0.17566 -0.0528,0.02376 -0.0575,0.01415 h -0.0575 l -0.0623,-0.0047 -0.11032,-0.02856 -0.0719,-0.01415 -0.0575,-0.01908 -0.1054,-0.05219 -0.46505,-0.199418 -0.28283,-0.03791 h -0.0671 l -0.0671,-0.0095 h -0.14861 l -0.0623,-0.01428 -0.1102,-0.0047 -0.27803,-0.05232 -0.0959,-0.0095 -0.26842,-0.04739 -0.36434,-0.232655 -0.22052,-0.104511 -0.0958,-0.06167 -0.10553,-0.04739 -0.0623,-0.01428 -0.22532,-0.09491 -0.22533,-0.08075 -0.10539,-0.04752 -0.10072,-0.05699 -0.1102,-0.04739 -0.0575,-0.03324 -0.10553,-0.05219 -0.25881,-0.17566 -0.10552,-0.0618 -0.86288,-0.598129 -0.27322,-0.147099 -0.13902,-0.08543 -0.15809,-0.109187 -0.17263,-0.109187 -0.39302,-0.318084 -0.0959,-0.123467 -0.0432,-0.07115 -0.0191,-0.05699 -0.23493,-0.389233 -0.1054,-0.09971 -0.22052,-0.142423 -0.18703,-0.04752 -0.22052,-0.02376 -0.41704,-0.0047 -1.2415,-0.816503 -0.0623,-0.01908 -0.23013,-0.04739 -0.34993,-0.09971 -0.115,-0.0618 -0.0863,-0.03791 -0.0623,-0.04752 -0.19184,-0.113863 -0.0383,-0.05232 -0.0815,-0.16138 -0.0575,-0.170858 -0.024,-0.123467 -0.0815,-0.22305 -0.091,-0.12827 -0.0911,-0.08063 -0.0671,-0.04752 -0.0863,-0.04271 -0.14861,-0.06167 -0.27803,-0.16138 -0.39782,-0.213699 -0.14483,-0.06091 -0.38253,-0.119423 -0.35953,-0.151902 -0.0575,-0.03324 -0.22533,-0.09503 -0.1102,-0.05699 -0.27802,-0.132819 -0.45545,-0.232655 -0.25401,-0.180336 -0.0575,-0.01428 -0.11512,-0.0618 -0.23,-0.142297 -0.20612,-0.08075 -0.0719,-0.03324 -0.35954,-0.151902 -0.0528,-0.02856 -0.1102,-0.04271 -0.13901,-0.07115 -0.20132,-0.242132 -0.0911,-0.180336 -0.26842,-0.147226 -0.0575,-0.02376 -0.15822,-0.05219 -0.14382,-0.07115 -0.21572,-0.06647 -0.17262,-0.04271 -0.0671,-0.0048 -0.41703,-0.123467 -0.41223,-0.05687 -0.0671,-0.02856 -0.29723,-0.06167 h -0.18211 l -0.1294,0.0095 -0.12941,0.02376 -0.10552,0.03791 -0.0575,0.01428 -0.0623,0.02376 -0.13902,0.03324 -0.22052,0.09491 -0.11032,0.06647 -0.23,0.104385 -0.15342,0.09971 -0.0336,0.04752 -0.22052,0.389233 -0.0479,0.113989 -0.0383,0.05699 -0.024,0.05687 -0.0719,0.104511 -0.0911,0.09023 -0.0479,0.03324 -0.1246,0.04739 -0.23973,0.0618 -0.41224,0.04739 -0.0575,0.02376 -0.10072,0.06647 -0.0863,0.09023 -0.0958,0.08543 -0.12941,0.137622 -0.0528,0.04271 -0.20612,0.137748 -0.34032,0.189813 -0.1102,0.05219 -0.35473,0.104511 -0.13902,0.04752 -0.12473,0.05219 -0.0527,0.03324 -0.11501,0.05219 -0.11032,0.04272 -0.12941,0.03324 -0.22532,0.08075 -0.1198,0.03324 -0.1102,0.04272 -0.11033,0.06647 -0.13901,0.113863 -0.0383,0.04752 -0.048,0.03324 -0.091,0.08543 -0.10072,0.07115 -0.49855,0.460507 -0.1102,0.06647 -0.29242,0.08075 -0.12941,0.05687 -0.0528,0.01908 -0.0431,0.04271 -0.0336,0.057 -0.0383,0.109187 -0.0863,0.170858 -0.0383,0.04752 -0.22052,0.199291 -0.0767,0.09023 -0.13421,0.199419 -0.0288,0.113863 -0.005,0.0618 v 0.384429 l -0.0191,0.12827 -0.0288,0.05219 -0.0527,0.02843 -0.0575,0.01428 -0.0671,-0.0048 -0.0576,-0.01415 -0.0431,-0.04272 -0.0288,-0.05232 -0.0623,-0.170858 -0.0191,-0.06167 -0.0432,-0.03804 -0.0575,0.0048 -0.0479,0.03324 -0.0288,0.05219 -0.0335,0.04752 -0.0576,0.170857 -0.13421,0.674079 -0.0767,0.356123 -0.091,0.683557 -0.024,0.09971 v 0.284847 l 0.0671,0.227852 0.0767,0.213573 0.0144,0.09023 -0.01,0.280045 -0.0192,0.05699 -0.0383,0.194616 -0.0192,0.07127 -0.0384,0.08543 0.0192,0.261089 v 0.22305 l -0.0192,0.1851375 -0.1102,0.289649 -0.0288,0.123342 -0.0191,0.132945 -0.005,0.166182 -0.0144,0.123467 -0.024,0.132819 -0.0575,0.213699 v 0.170858 l 0.01,0.06647 0.005,0.123468 0.024,0.057 0.0575,0.09958 0.0671,0.204221 0.01,0.170858 0.0143,0.06167 0.024,0.156704 0.01,0.137621 0.0192,0.132946 0.0671,0.118665 0.0527,0.03804 0.0959,0.03791 0.14381,0.0095 0.1677,0.04284 0.0623,0.08543 0.0288,0.128143 v 0.57437 l 0.0144,0.128143 0.0671,0.104512 0.1198,0.161379 0.0192,0.05699 0.01,0.06167 -0.005,0.313281 0.0192,0.0618 0.091,0.156577 0.0144,0.118665 -0.0741,0.138506 -0.17048,0.378996 -0.1677,0.208896 0.015,0.254518 0.18577,0.510172 0.78415,1.160872 2.97738,3.402242 0.31075,3.265253 -1.0436,2.586498 -1.42006,2.76696 -1.23682,3.53822 -0.90295,1.885122 -0.0485,1.298999 -0.56451,0.754074 -5.24654,0.155693 -4.76393,0.907239 -1.67016,-0.06584 -0.53089,0.295968 -0.84228,0.09402 -1.95135,0.121698 -5.07114,0.328446 -2.42928,-0.256539 -1.16606,0.352836 -1.78149,0.09617 -1.87868,0.641474 -2.91697,0.529887 -1.6469,-0.632755 -2.63983,0.08025 -2.14684,0.0714 -6.06621,1.833182 -1.1984,0.962212 -2.52647,0.09617 -1.39884,0.156956 -2.04966,1.059394 -1.96865,1.776187 -1.39252,0.368633 -1.48262,0.338556 -1.92392,0.06812 -1.5477,0.29938 -2.16845,0.607986 -4.55187,1.766709 -2.15291,1.519521 -2.14444,0.529634 -7.00858,-0.226841 -1.44231,0.434095 -0.56198,0.259445 -0.15494,0.03324 -0.0598,0.0071 -0.91786,0.15127 -1.09642,0.515479 -1.48477,0.959811 -2.40098,2.255272 -0.0737,0.121698 -1.43789,2.373052 -1.13104,0.707189 -1.45331,0.621002 -0.39668,0.231138 -0.20359,0.104512 -0.74814,-0.138759 -0.97245,-0.392392 -2.24453,-1.678247 -1.27473,-2.440283 -0.78668,-1.506 0.18842,-1.349801 -0.29154,-0.882091 -0.90686,-0.481106 -1.49008,-0.24049 -3.15985,-0.212687 -2.74561,0.117275 -1.11184,-0.0671 -0.70504,0.02679 -1.07114,0.120813 -1.04398,0.281941 -0.71856,-0.120814 -0.59661,-0.443067 -1.01681,-1.154553 -0.43397,-0.416277 -0.28472,-0.161127 -0.33893,-0.107418 -0.36611,-0.389358 -0.21686,-0.671299 -0.0814,-0.295336 -0.0677,-0.53709 -0.0272,-1.074053 0.19664,-0.669656 0.21016,-0.552128 0.43384,-0.765322 0.29824,-0.429545 0.42032,-0.443067 0.48819,-0.322254 0.7456,-0.362567 0.73221,-0.456464 0.98977,-0.684694 0.51522,-0.496776 0.16265,-0.241754 0.10855,-0.268419 0.027,-0.40288 -0.0719,-0.778085 -0.0365,-0.64514 -0.1356,-0.214709 -0.29824,-0.362567 -0.45091,-0.533931 -2.04005,-1.060657 -2.35903,-0.453557 -3.872984,-0.353594 -1.78655,0.20422 -1.05358,0.340199 -1.91495,0.184759 -1.14053,-0.346391 -0.90686,-0.962212 -0.61544,-1.796155 -1.14406,-6.155174 -3.60065,1.834319 -1.84822,-0.375457 -1.06091,0.187918 -0.95274,0.628711 -0.80235,0.860228 -0.0428,1.138883 1.22078,2.08732 -0.69455,0.885377 -2.35423,0.923415 -2.56691,0.37887 -1.49374,1.357131 -1.3776,1.690632 -1.65752,-0.01441 -1.59282,-0.997091 -1.14369,-0.2506 -0.45987,0.464298 -0.62227,0.630228 -0.64678,1.971435 -0.11715,1.528368 -0.71818,1.454944 -0.90219,0.782761 -1.47466,0.709211 -0.7777,0.0824 -1.28978,-0.612409 -0.93112,0.369139 -0.82131,1.533549 -0.19512,1.579549 1.10236,1.675468 4.12245,1.419433 0.31467,0.589409 -0.27802,0.936937 -0.62012,0.266902 -1.03968,-0.281056 -1.24428,0.269682 -2.16162,2.576641 -1.17515,0.915201 -1.34791,0.0078 -1.16643,0.266523 -1.65689,0.712497 -2.82459,4.186646 -1.40414,1.588269 -0.82548,0.499177 -1.37406,0.242386 -2.09819,-0.03968 -1.16871,0.242638 -0.90585,0.626942 -0.54745,1.091114 0.31872,1.215718 0.22658,2.506377 -0.35448,1.274229 -1.3134,1.919622 -1.56299,0.760014 -2.98509,-0.212435 -3.3776,-0.647035 -1.28092,0.679513 -0.63731,5.181463 -1.07279,4.760763 -1.10223,1.638187 -0.95741,0.500315 -2.92695,0.745607 -0.39884,0.597243 0.44914,0.697459 1.76683,0.219259 0.41577,0.643125 0.18918,0.78453 -0.002,1.08062 -0.84393,2.45381 -1.85151,2.37772 -1.39795,0.62998 -3.63692,-0.48983 -4.00921,-1.16315 -1.13067,-1.22696 -0.77619,-1.15544 -0.69329,-0.23215 -1.07911,0.39947 -0.84051,0.85138 -0.54126,1.71326 -0.02,0.90471 1.60268,1.28598 1.6881,1.93188 3.54783,2.329451 -0.36181,1.33805 -0.72299,0.81145 -0.0119,0.98294 0.81663,1.41134 -0.0699,0.8663 -0.64514,1.03753 -1.17376,-0.0713 -0.82017,-0.39934 -2.04625,-0.99456 -1.1998,-0.0114 -0.78554,0.59598 -0.63831,1.0853 -0.12739,1.65133 -1.03803,0.87603 -1.0429699,-0.0736 -2.22443,-1.07456 -1.26728,-0.13509 -1.34917,0.44129 -1.12903,2.16252 -0.21294,1.43232 -0.99848,1.47251 -1.11462,0.75483 -0.0158,0.53772 -0.0557,1.81549 -0.25515,0.54872 -0.61506002,4.56893 0.43738,0.91735 1.65727002,2.08163 1.91596,1.10261 0.46935,0.86137 -0.59282,1.38051 0.005,0.94945 1.70883,1.82509 1.24567,2.97624 0.11942,0.65878 -0.3062,1.78011 0.0543,0.16037 0.53166,1.57588 0.92291,1.72678 0.39074,2.23897 0.35739,5.93111 1.0112499,2.63338 -0.22116,1.32238 0.52736,0.76937 3.5731,1.09654 0.91027,0.71086 0.58954,1.63237 2.37899,3.05434 0.0115,9.76909 0.46215,2.23594 -0.0581,4.39819 -1.30583,4.06836 0.38405,1.80361 0.005,0.86756 -0.70959,1.15291 -1.68735,3.59977 -1.88512,2.10703 -1.34841,0.5836 -3.1026099,0.85365 -2.27082,2.0556 -0.82825,1.26817 -2.77164,6.32754 0.62492,2.30342 0.0612,1.31505 0.53545,0.84216 -0.94187,1.21837 0.27524,2.15986 -0.30279,1.69051 -1.07153,1.79817 0.43738,1.73487 0.74422,0.89119 2.91343,1.035 0.79338,0.81385 0.99266,1.01832 1.85619,0.83142 1.5296299,0.0919 0.42803,0.47327 0.28446,0.90181 -0.39024,1.18008 0.27398,1.57462 2.15721,2.89384 -0.78845,2.01225 0.52205,1.17452 1.59282,1.21901 1.71552,0.66573 1.00973,0.74245 0.66107,0.90016 1.16239,2.42462 1.69025,0.66472 2.18842,0.13497 1.40338,-0.63642 1.92114,-0.31214 0.30848,0.64741 -0.0699,1.00379 0.23519,1.02603 0.55781,0.90004 0.70858,0.69986 0.38355,0.86882 0.0792,0.18097 0.3814,0.87135 0.55655,0.44698 0.99507,0.34677 2.0115,-0.29104 1.03866,0.87097 0.83306,0.44421 4.99582,-2.25035 2.36673,10.82723 2.31593,3.41045 0.0164,2.2827 -1.13319,1.72222 5.79842,9.66269 2.29621,0.55567 1.1006,1.88765 2.89573,-2.207 1.65866,-0.40301 1.73284,0.0109 1.57172,-0.24757 5.22114,-1.2693 3.94047,-2.43004 10.48273,-4.52672 2.35978,-0.60938 4.10615,-2.22077 2.553,-0.44939 16.538324,-1.12991 3.84165,-0.80942 2.13016,0.0168 14.36355,1.05345 18.0701,-0.12423 4.71653,-1.27663 1.94528,-0.13572 0.30102,0.25452 2.49816,2.11765 2.17604,1.38076 2.21192,0.12005 1.62125,0.42993 3.53026,0.0283 1.17768,-0.15039 0.73335,-0.67686 1.40376,-0.35195 6.05067,0.0436 0.69329,0.8946 0.26905,1.52256 1.76291,3.93983 1.19778,4.35321 0.47971,3.61784 1.51611,2.94224 3.01832,1.48957 1.79022,0.0124 0.39567,-0.25692 1.0072,0.0588 0.30861,3.51257 0.609,1.10324 1.45254,0.37672 1.59813,-0.19664 4.44179,-1.95601 0.6162,0.26614 0.72109,0.89448 0.4389,1.04915 -0.0747,2.67142 1.17364,0.42791 2.55768,1.65613 9.08326,-1.93213 10.99467,-3.43915 4.75647,-2.76456 4.679,-5.4749 6.32767,-2.89662 3.65891,-1.18311 0.52066,1.44913 2.03045,-0.52799 0.86958,0.4581 1.05775,0.27992 1.16896,-0.98331 2.0369,-0.97991 3.0029,-0.9708 2.71654,-1.42652 4.00517,0.66385 2.22874,-0.97927 2.71388,-0.79174 2.80436,-0.24908 2.80096,0.0203 3.00859,-0.77265 0.37659,-0.0967 -0.35738,-1.0134 0.005,-0.003 -1.2e-4,-2.5e-4 -0.29901,-0.79211 -0.55617,-0.87628 -1.44243,-1.98597 -0.93605,-1.27612 -2.22381,-3.03197 10.05483,-0.41704 -14.86677,-12.5181 -10.10993,-25.27481 12.58319,-27.60098 z"
     style="display:inline;fill:#000000;fill-opacity:1;fill-rule:evenodd;stroke:#232323;stroke-width:0.982677;stroke-linecap:square;stroke-linejoin:bevel;stroke-miterlimit:10;stroke-dasharray:none;stroke-opacity:1"
     id="path28" />
  <path
     d="m 334.50832,268.61035 -0.80361,-0.41703 -0.88955,0.64426 -1.67281,2.45898 -1.08303,2.82105 -0.72665,2.58549 -0.25199,1.88272 0.0468,1.49601 0.44774,2.35991 -0.44837,2.47226 -0.40326,2.22936 -0.95223,1.17023 -1.06306,0.34525 -5.91544,-4.02312 0.44572,1.1629 -0.0109,1.51484 -0.333,1.10565 0.79692,1.72349 2.04928,0.41817 1.61355,0.92101 1.81308,3.44509 0.75079,0.71249 -0.23278,2.21774 -0.97952,0.90332 0.53051,1.81992 -0.6047,1.30911 0.63579,1.41842 -0.008,1.11133 -1.30671,1.20081 0.0906,0.2415 0.4394,1.17275 1.72298,0.92379 1.93517,1.73133 3.8788,1.13762 0.79994,1.31871 -0.083,0.21395 -1.23784,3.20826 -0.87071,0.70024 -0.21876,0.50335 0.62366,3.33665 -0.0186,2.4212 -1.52976,2.51548 -0.34133,2.41753 -0.61165,2.01504 -0.0168,2.72525 -0.87843,1.71237 -1.74409,2.10615 -1.32263,3.52407 -0.94628,3.17742 -0.49286,1.65879 -0.0677,1.61443 -1.96272,2.50814 -0.0154,2.01883 -0.33629,1.71426 -1.20889,2.71793 -1.41804,1.80765 -1.48844,4.02527 1.29458,0.7173 2.05509,-0.59105 1.06357,2.22961 1.60482,2.33287 1.49918,1.62643 2.04423,1.2257 1.71464,2.0326 1.39011,1.03905 0.3833,0.28662 0.4418,0.66372 0.16909,0.25388 0.14406,0.21635 0.52774,0.79388 0.0375,0.11324 0.70226,2.11398 -0.77492,2.41678 1.18109,0.91495 0.87097,-0.59801 0.64489,0.30697 0.42171,1.518 0.40098,0.66081 0.62088,-0.0562 2.17123,-1.24504 1.67547,0.41501 0.38468,-1.4121 1.3014,-0.74637 1.56439,0.56805 1.03134,-0.7499 0.43649,-0.70454 0.64805,0.10616 1.07443,0.96638 0.84443,-0.4049 0.29534,-0.14141 -0.52395,-2.17528 1.54454,-0.94755 1.03652,-1.10224 0.39113,-1.76557 0.0727,-2.62403 -0.68963,-1.67092 0.0123,-1.66637 0.9262,-1.15417 4.54112,-0.42146 2.81005,0.37369 2.11803,2.03551 1.23266,1.42398 1.23593,0.76431 2.43169,0.0672 2.16264,-0.23619 1.89031,0.51801 1.33451,1.92859 0.9986,0.25982 1.47112,-1.45658 1.0249,0.0614 1.01744,1.16933 2.10046,1.17377 1.8395,-0.38911 6.17312,-1.87564 3.5276,-1.99242 2.12953,0.72122 5.2238,2.46114 3.56438,0.0758 2.10855,-0.18817 3.49816,2.19764 2.9607,1.63655 2.29785,-0.33704 2.85884,-1.05232 0.35498,0.0511 1.30759,0.26285 -6.41878,-14.92705 -16.34548,-38.03062 -5.24642,-12.21583 -5.40261,-12.57801 -1.52951,-3.56096 -13.97255,-7.95057 -12.6374,-6.31871 -19.42104,-9.59154 z"
     style="display:inline;fill:#000000;fill-opacity:1;fill-rule:evenodd;stroke:#232323;stroke-width:0.982677;stroke-linecap:square;stroke-linejoin:bevel;stroke-miterlimit:10;stroke-dasharray:none;stroke-opacity:1"
     id="path32" />
  <path
     d="m 73.797256,268.51065 9.79664,9.95347 12.53643,12.73383 6.957784,7.06545 21.50596,21.83124 0.34955,1.05004 -0.21888,1.37116 0.35612,1.71098 0.46038,0.56754 0.1289,1.713 0.31581,0.4231 6.50991,-7.51913 1.41298,-1.34449 1.84861,-1.42942 1.04258,-0.27145 0.98926,-0.25591 3.47667,0.29938 1.72931,1.36661 1.64197,0.1035 2.04082,-1.24996 4.40514,-1.41072 5.81688,-2.21483 3.57499,0.11829 4.38708,1.38847 1.56691,-0.17907 2.59079,-0.0603 3.75774,1.38253 8.36356,-0.4787 9.95461,-0.0144 3.48552,-0.69518 4.42954,-2.01946 11.68859,-6.42271 9.59608,-5.27195 -3.56779,-1.20042 -1.53608,-1.18565 -0.37899,-1.0877 -1.14242,-2.17527 -1.15127,-1.18135 -1.82939,-1.09907 -4.47996,-1.65917 -7.28117,-6.36154 -2.55768,-1.65613 -1.17364,-0.42791 0.0747,-2.67142 -0.4389,-1.04915 -0.72109,-0.89448 -0.6162,-0.26614 -4.44179,1.95601 -1.59813,0.19664 -1.45254,-0.37672 -0.609,-1.10324 -0.30861,-3.51257 -1.0072,-0.0588 -0.39567,0.25692 -1.79022,-0.0124 -3.01832,-1.48957 -1.51611,-2.94224 -0.47971,-3.61784 -1.19778,-4.35321 -1.76291,-3.93983 -0.26905,-1.52256 -0.69329,-0.8946 -6.05067,-0.0436 -1.40376,0.35195 -0.73335,0.67686 -1.17768,0.15039 -3.53026,-0.0283 -1.62125,-0.42993 -2.21192,-0.12005 -2.17604,-1.38076 -2.49816,-2.11765 -0.30102,-0.25452 -1.94528,0.13572 -4.71653,1.27663 -18.0701,0.12423 -14.36355,-1.05345 -2.13016,-0.0168 -3.84165,0.80942 -16.538324,1.12991 -2.553,0.44939 -4.10615,2.22077 -2.35978,0.60938 -10.48273,4.52672 -3.94047,2.43004 -5.22114,1.2693 -1.57172,0.24757 -1.73284,-0.0109 -1.65866,0.40301 -2.89573,2.207 1.219,2.09212 2.29167,-0.0172 1.71148,-1.15278 1.03842,0.67901 2.41538,1.57942 11.99796,-4.65448 z"
     style="display:inline;fill:#000000;fill-opacity:1;fill-rule:evenodd;stroke:#232323;stroke-width:0.982677;stroke-linecap:square;stroke-linejoin:bevel;stroke-miterlimit:10;stroke-dasharray:none;stroke-opacity:1"
     id="path34" />
  <path
     d="m 167.23583,411.58276 -0.0934,-0.0291 -0.86591,0.19841 -1.57273,0.69771 -1.19322,-0.644 -2.60318,0.85858 -1.41008,-0.10729 -2.27777,0.21471 h -3.47099 l -1.95248,0.644 -1.62694,-0.322 -2.74181,-1.35991 -0.45533,-0.45052 -0.66081,-0.15987 -1.02805,0.2616 -2.5477,1.53443 2.38342,22.06643 0.84342,7.80814 45.79745,-16.41093 7.27712,2.95361 9.81332,-7.83759 22.94334,-3.7935 -0.21458,0.48263 4.83835,2.51926 0.36093,1.76646 -3.8141,3.44584 -0.70238,0.91697 -0.01,1.23556 -2.0388,-0.91697 -0.96575,-0.18337 -0.73158,0.50183 0.0684,6.45734 0.80955,0.32819 1.54126,1.48641 0.0196,2.46139 0.86819,0.0192 0.4097,-0.35713 0.85834,0.46341 1.16087,1.65045 -0.52673,4.92252 -1.15948,1.86882 0.50853,-0.007 0.8558,-0.0268 0.67459,-0.0519 0.25932,-0.007 0.31353,0.0385 h 0.22533 l 0.12182,-0.0166 0.32845,-0.16264 0.22305,-0.16542 0.0868,-0.16303 0.0844,-0.20169 0.14951,-0.3656 0.21395,-0.47074 0.0992,-0.12878 0.14596,-0.10628 0.0928,-0.0608 0.13497,-0.10894 0.14305,-0.14786 0.1701,-0.27031 0.18893,-0.42727 0.10843,-0.21168 0.30431,-0.57525 0.23556,-0.42929 0.26779,-0.46873 0.13294,-0.16845 0.37205,-0.40503 0.15683,-0.2113 0.15418,-0.27461 0.11866,-0.15544 0.2161,-0.30861 0.0881,-0.16858 0.0542,-0.22469 0.0339,-0.20624 0.0475,-0.18615 0.0796,-0.35638 0.0864,-0.23809 0.0288,-0.15771 0.0293,-0.21458 0.01,-0.43688 0.0245,-0.24655 0.043,-0.14925 -0.0157,-0.0234 -0.15519,-0.25427 -0.13573,-0.24415 -0.0114,-0.024 -0.009,-0.021 -0.0152,-0.0411 -0.14824,-0.46152 -0.0752,-0.8414 -0.0129,-2.30822 -0.0107,-1.86288 0.003,-0.4806 2.5e-4,-1.26501 0.15557,-1.173 0.24239,-1.42234 0.72184,-3.13092 0.14104,-0.51977 0.21534,-0.92658 0.2985,-1.30696 0.1864,-0.77556 0.19019,-0.87324 0.0418,-0.19196 0.61633,-2.36193 0.36724,-1.73739 0.0278,-0.16732 0.0226,-0.11627 0.20245,-1.48881 0.003,-0.0688 0.13484,-2.32136 0.005,-1.61835 0.0895,-1.50663 0.0676,-0.84051 0.015,-0.0967 0.11019,-0.4188 0.0997,-0.40187 0.10022,-0.40352 0.0322,-0.0689 0.0485,-0.0976 0.14028,-0.28245 0.22128,-0.37823 0.18766,-0.32087 0.0906,-0.13332 0.0642,-0.0943 0.53696,-0.77909 0.2132,-0.30924 0.57487,-0.83407 0.43069,-0.62479 0.3776,-0.66372 0.27727,-0.61759 0.21129,-0.63579 0.36257,-1.09149 0.10439,-0.35309 -0.24454,-0.13383 -0.20485,-0.11032 -0.1888,-0.0614 -0.30494,-0.1399 -0.26008,-0.0895 -0.27044,-0.10919 -0.27032,-0.11411 -0.33489,-0.0708 -0.35675,0.033 -0.49981,-0.10843 -0.13143,-0.0724 -0.12018,-0.0387 -0.11488,0.008 -0.47112,-0.0744 -0.29394,-0.0307 -0.28498,-0.0646 -0.42171,-0.0518 -0.27764,-0.0249 -0.57172,-0.0651 -0.39188,-0.0916 -0.34753,0.0263 -0.24643,-0.0765 -0.29584,-0.17174 -0.37306,-0.2463 -0.24858,-0.18084 -0.26728,-0.32099 -0.21585,-0.17579 -0.31088,-0.47845 -0.14444,-0.18426 -0.12486,-0.18147 -0.19992,-0.0724 -0.11955,0.005 -0.13156,0.0703 -0.20611,0.079 -0.23809,0.0647 -0.23038,0.12397 -0.14596,0.23026 -0.10136,0.31315 -0.24971,0.37445 -0.23026,0.46834 -0.35902,0.78163 -0.44206,1.23694 -0.19373,1.04739 -0.0708,0.93062 -0.18438,1.69405 0.076,1.05358 0.78428,1.82939 0.53898,1.32238 0.52003,0.90382 0.17629,0.68432 -0.1356,0.5501 -0.51522,0.30848 -1.35587,0.34892 -0.87464,0.23405 -1.28118,0.34285 -0.73221,-0.0805 -0.67787,-0.0269 -0.67787,0.4025 -0.37963,0.0671 -1.74914,-0.0536 -0.67787,0.1073 -0.76608,0.3287 -0.39732,0.29154 -0.18299,0.1543 -0.17629,0.0939 -0.22634,0.0775 -0.21698,-0.11412 -0.3498,-0.13105 -0.24416,-0.0403 -0.23303,0.0708 -0.19399,0.11702 -0.32806,0.15797 -0.90573,0.25805 -0.44066,0.10729 -0.51106,0.0909 -0.48553,0.0634 -0.2305,0.11399 -0.34159,0.0842 h -0.56944 l -0.27537,0.0299 -0.22368,0.0737 -0.13826,0.11108 -0.24137,0.16403 -0.25086,-0.0336 -0.26033,0.12448 -0.22772,0.0902 -0.13143,0.0304 -0.16416,0.0116 -0.195,-0.14912 -0.21445,-0.12777 -0.15178,-0.0317 -0.33641,0.0921 -0.21875,0.0949 -0.24921,0.25591 -0.24377,0.19259 -0.21547,0.13193 -0.42184,0.16315 -0.42158,0.11538 -0.3512,0.0724 -0.27802,0.007 -0.29142,-0.0805 -0.18905,0.0121 -0.40756,0.15557 -0.4068,0.0603 -0.65032,0.0761 -1.09756,0.008 -1.02742,0.34184 -0.69152,-0.0402 -1.1524,0.10729 -0.93555,0.30861 -0.66435,0.12069 -2.35915,0.59041 -2.15581,-0.20131 -0.80412,-0.18476 -1.95235,-0.805 -0.70505,-1.2343 -0.16276,-0.644 0.54239,-0.96588 -0.65082,-0.85871 -0.43385,-1.23429 -2.82016,-1.12701 h -1.51864 l -2.06091,0.48301 -0.59648,0.53671 -1.89827,0.75129 -2.54896,0.53658 h -1.89814 l -1.51851,0.10742 -1.46442,-0.85871 -2.76582,-0.21458 h -1.41009 l -1.62706,0.42929 -1.57285,0.53658 -2.49475,1.12701 -2.54897,0.805 -1.41008,0.59029 -1.13888,-0.644 -1.40528,-0.84329 -0.45634,-0.29319 -0.27044,-0.10615 z"
     style="display:inline;fill:#000000;fill-opacity:1;fill-rule:evenodd;stroke:#232323;stroke-width:0.982677;stroke-linecap:square;stroke-linejoin:bevel;stroke-miterlimit:10;stroke-dasharray:none;stroke-opacity:1"
     id="path36" />
  <path
     d="m 223.50514,391.60112 0.19828,0.55428 -3.05749,0.2281 -0.31859,-0.0201 -1.41691,0.0939 -0.84051,0.0939 -0.79325,0.161 -1.53203,0.4159 -2.55364,0.74156 -0.44964,0.13055 -0.48806,0.10729 -0.42714,-0.007 -0.50841,-0.0872 -1.0508,-0.37558 -1.97219,-0.73866 -1.56173,-0.47554 -1.61152,-0.0672 -4.73865,0.59711 -1.02363,-0.007 -0.92202,-0.12082 -0.89486,-0.20119 -0.84746,-0.3824 -0.58891,-0.30697 -3.42435,-1.73916 -0.94907,-0.26829 -5.57196,7.98469 -1.51687,4.30999 -0.18046,2.41324 0.83887,2.75104 2.01718,3.55995 h 1.89814 l 2.54896,-0.53658 1.89827,-0.75129 0.59648,-0.53671 2.06091,-0.48301 h 1.51864 l 2.82016,1.12701 0.43385,1.23429 0.65082,0.85871 -0.54239,0.96588 0.16276,0.644 0.70505,1.2343 1.95235,0.805 0.80412,0.18476 2.15581,0.20131 2.35915,-0.59041 0.66435,-0.12069 0.93555,-0.30861 1.1524,-0.10729 0.69152,0.0402 1.02742,-0.34184 1.09756,-0.008 0.65032,-0.0761 0.4068,-0.0603 0.40756,-0.15557 0.18905,-0.0121 0.29142,0.0805 0.27802,-0.007 0.3512,-0.0724 0.42158,-0.11538 0.42184,-0.16315 0.21547,-0.13193 0.24377,-0.19259 0.24921,-0.25591 0.21875,-0.0949 0.33641,-0.0921 0.15178,0.0317 0.21445,0.12777 0.195,0.14912 0.16416,-0.0116 0.13143,-0.0304 0.22772,-0.0902 0.26033,-0.12448 0.25086,0.0336 0.24137,-0.16403 0.13826,-0.11108 0.22368,-0.0737 0.27537,-0.0299 h 0.56944 l 0.34159,-0.0842 0.2305,-0.11399 0.48553,-0.0634 0.51106,-0.0909 0.44066,-0.10729 0.90573,-0.25805 0.32806,-0.15797 0.19399,-0.11702 0.23303,-0.0708 0.24416,0.0403 0.3498,0.13105 0.21698,0.11412 0.22634,-0.0775 0.17629,-0.0939 0.18299,-0.1543 0.39732,-0.29154 0.76608,-0.3287 0.67787,-0.1073 1.74914,0.0536 0.37963,-0.0671 0.67787,-0.4025 0.67787,0.0269 0.73221,0.0805 1.28118,-0.34285 -0.0102,-0.96702 -4.81157,-9.13874 -0.26273,-2.40047 0.4993,-4.17073 -0.68279,-1.82926 -0.69266,-0.16403 -0.62922,0.26058 -0.61935,0.0772 -0.31215,-0.0289 -0.0517,-0.34272 0.24744,-0.17111 0.35234,-0.68887 0.0897,-0.57664 0.009,-0.84759 0.15544,-0.51776 0.10893,-0.23695 0.26096,-0.33211 0.25755,-0.25161 0.53633,-0.38532 0.36194,-0.25527 0.21698,-0.1979 0.15936,-0.22811 0.20448,-0.44344 0.28105,-1.17377 -4.80904,0.15266 -9.19472,-0.63174 0.23253,0.60167 0.14331,0.30393 0.10602,0.22469 0.33831,0.5932 0.368,0.45229 1.16504,0.93542 0.40124,0.22874 0.77278,0.30709 0.30367,0.16492 0.65361,0.41627 0.54391,0.4322 0.27588,0.19525 0.53734,0.38026 -0.0704,0.0842 -0.036,0.0784 -0.009,0.0575 0.0248,0.058 0.79034,0.96424 0.25679,0.27966 z"
     style="display:inline;fill:#000000;fill-opacity:1;fill-rule:evenodd;stroke:#232323;stroke-width:0.982677;stroke-linecap:square;stroke-linejoin:bevel;stroke-miterlimit:10;stroke-dasharray:none;stroke-opacity:1"
     id="path38" />
  <path
     d="m 227.46924,391.6288 0.0517,0.34272 0.31215,0.0289 0.61935,-0.0772 0.62922,-0.26058 0.69266,0.16403 0.68279,1.82926 -0.4993,4.17073 0.26273,2.40047 4.81157,9.13874 0.0102,0.96702 0.87464,-0.23405 1.35587,-0.34892 0.51522,-0.30848 0.1356,-0.5501 -0.17629,-0.68432 -0.52003,-0.90382 -0.53898,-1.32238 -0.78428,-1.82939 -0.076,-1.05358 0.18438,-1.69405 0.0708,-0.93062 0.19373,-1.04739 0.44206,-1.23694 0.35902,-0.78163 0.23026,-0.46834 0.24971,-0.37445 0.10136,-0.31315 0.14596,-0.23026 0.23038,-0.12397 0.23809,-0.0647 0.20611,-0.079 0.13156,-0.0703 0.11955,-0.005 0.19992,0.0724 0.12486,0.18147 0.14444,0.18426 0.31088,0.47845 0.21585,0.17579 0.26728,0.32099 0.24858,0.18084 0.37306,0.2463 0.29584,0.17174 0.24643,0.0765 0.34753,-0.0263 0.39188,0.0916 0.57172,0.0651 0.27764,0.0249 0.42171,0.0518 0.28498,0.0646 0.29394,0.0307 -0.042,-0.11158 -0.011,-0.20144 0.0306,-0.2597 v -0.18299 l 0.0925,-0.32542 0.12321,-0.31517 -0.0719,-0.29483 -0.0665,-0.0659 -0.25199,-0.24946 -0.31858,-0.25414 -0.35967,-0.26437 -0.30822,-0.33552 -0.0823,-0.32542 0.072,-0.10173 0.16442,-0.1423 0.18488,-0.20333 0.18501,-0.25427 0.16442,-0.29483 0.10274,-0.28472 0.19524,-0.28472 0.28763,-0.16264 0.15039,-0.33098 0.0757,-0.28927 0.14381,-0.29495 0.25692,-0.73209 0.12334,-0.13218 0.17086,-0.34602 -0.22596,-0.69859 -0.82914,-0.77227 -0.95994,-1.69253 -1.63161,-0.43157 -0.31859,-0.70921 -0.49476,-0.11235 0.007,-0.21294 -0.22823,-0.0241 0.0668,-0.75029 0.073,-0.80209 0.0319,-0.23304 -1.72235,-0.51864 -0.83673,-0.30317 -0.874,-0.0369 -0.59762,0.13307 -1.11298,0.49526 -0.82914,0.1035 -0.69265,-0.16353 -0.80665,-0.27511 -0.38987,-0.0536 -0.34917,0.0335 -0.34904,0.10059 -0.3153,0.15102 -0.29142,0.23808 -0.13901,0.20132 -0.14243,0.2482 -0.0906,0.37861 -0.28105,1.17377 -0.20448,0.44344 -0.15936,0.22811 -0.21698,0.1979 -0.36194,0.25527 -0.53633,0.38532 -0.25755,0.25161 -0.26096,0.33211 -0.10893,0.23695 -0.15544,0.51776 -0.009,0.84759 -0.0897,0.57664 -0.35234,0.68887 -0.24744,0.17111 z"
     style="display:inline;fill:#000000;fill-opacity:1;fill-rule:evenodd;stroke:#232323;stroke-width:0.982677;stroke-linecap:square;stroke-linejoin:bevel;stroke-miterlimit:10;stroke-dasharray:none;stroke-opacity:1"
     id="path40" />
  <path
     d="m 240.27765,384.54836 -0.1,0.3 v 0.8 l -0.1,0.7 0.2,0.1 v 0.2 l 0.5,0.1 0.3,0.7 1.7,0.4 0.9,1.7 0.9,0.8 0.2,0.7 0.2,-0.7 0.1,-0.3 0.1,-0.1 -0.1,-0.3 0.1,-0.3 -0.1,-0.1 0.1,-0.1 0.2,-0.1 0.4,-0.1 h 0.7 l 0.6,0.2 0.3,0.1 0.3,0.1 0.4,-0.2 h 0.4 0.2 l 0.8,0.2 0.4,0.1 h 0.3 l 0.2,-0.1 0.3,-0.5 v -0.1 l -0.1,-0.2 v -0.8 l -0.1,-0.6 v -0.3 l 0.1,-0.3 -0.1,-0.1 -0.1,-0.3 -0.1,-0.5 -0.1,-0.3 -0.1,-0.1 v -0.2 l 0.2,-0.2 0.3,-0.2 v -0.2 l -0.1,-0.1 -0.2,-0.2 -0.6,-0.5 -0.2,-0.2 -0.2,-0.3 -0.2,-0.3 -0.2,-0.2 -0.3,-0.1 -0.2,-0.2 -0.1,-0.3 -0.1,-0.5 v -0.2 l -0.2,-0.2 -0.1,-0.3 -0.2,-0.1 -0.1,-0.1 -0.1,0.1 -0.2,0.3 -0.1,0.2 -0.1,0.3 v 0.4 l -0.1,1 -0.1,0.4 -0.2,0.5 -0.3,0.4 -0.4,0.5 -0.6,0.7 -0.4,0.3 -0.4,0.2 -0.6,0.1 -0.5,-0.2 -0.6,-0.3 -2.3,-0.9 z"
     style="display:inline;fill:#000000;fill-opacity:1;fill-rule:evenodd;stroke:#232323;stroke-width:0.982677;stroke-linecap:square;stroke-linejoin:bevel;stroke-miterlimit:10;stroke-dasharray:none;stroke-opacity:1"
     id="path42" />
  <path
     d="m 247.57765,399.14836 v -0.1 -0.1 l 0.9,-2.3 0.1,-0.5 v -0.1 h -0.1 l 0.1,-0.1 0.3,-1.2 v -0.5 l 0.2,-1.2 v -0.3 l 0.2,-0.9 v -0.2 l 0.1,-0.3 0.2,-0.3 0.2,-0.3 0.2,-0.3 0.6,-0.5 1,-0.7 0.2,-0.3 0.1,-0.1 0.2,-0.3 v -0.1 l 0.1,-0.1 v -0.2 l 0.1,-0.4 v -0.3 l -0.1,-0.5 v -0.1 l -0.1,-1 -0.1,-0.8 -0.1,-1.3 -0.2,-1 -0.1,-0.9 -0.1,-0.2 v -0.4 l -0.1,-0.7 v -0.2 l -0.3,-0.1 -0.8,-0.3 -0.6,-0.1 h -0.4 l -0.7,0.1 -0.5,0.2 -0.2,0.2 -0.2,0.2 -0.1,0.1 0.1,0.1 0.2,0.1 0.1,0.3 0.2,0.2 v 0.2 l 0.1,0.5 0.1,0.3 0.2,0.2 0.3,0.1 0.2,0.2 0.2,0.3 0.2,0.3 0.2,0.2 0.6,0.5 0.2,0.2 0.1,0.1 v 0.2 l -0.3,0.2 -0.2,0.2 v 0.2 l 0.1,0.1 0.1,0.3 0.1,0.5 0.1,0.3 0.1,0.1 -0.1,0.3 v 0.3 l 0.1,0.6 v 0.8 l 0.1,0.2 v 0.1 l -0.3,0.5 -0.2,0.1 h -0.3 l -0.4,-0.1 -0.8,-0.2 h -0.2 -0.4 l -0.4,0.2 -0.3,-0.1 -0.3,-0.1 -0.6,-0.2 h -0.7 l -0.4,0.1 -0.2,0.1 -0.1,0.1 0.1,0.1 -0.1,0.3 0.1,0.3 -0.1,0.1 -0.1,0.3 -0.2,0.7 -0.2,0.3 -0.1,0.2 -0.3,0.7 -0.1,0.3 -0.1,0.3 -0.1,0.3 -0.3,0.2 -0.2,0.3 -0.1,0.2 -0.2,0.3 -0.2,0.3 -0.2,0.2 -0.1,0.1 -0.1,0.1 0.1,0.4 1.2,1.1 v 0.3 l -0.2,0.7 0.2,0.7 0.4,0.1 h 0.2 0.1 l 0.1,0.1 0.5,0.1 h 0.4 0.3 l 0.3,0.2 0.2,0.1 0.3,0.1 0.3,0.1 0.2,0.1 0.2,0.1 z"
     style="display:inline;fill:#000000;fill-opacity:1;fill-rule:evenodd;stroke:#232323;stroke-width:0.982677;stroke-linecap:square;stroke-linejoin:bevel;stroke-miterlimit:10;stroke-dasharray:none;stroke-opacity:1"
     id="path44" />
  <path
     d="m 272.44931,418.66135 -0.0809,-0.0308 -0.9842,-0.30481 -0.3373,-0.0814 -0.58094,-0.26703 -0.96423,-0.35005 -0.64072,-0.26096 -3.357,-0.87553 -1.23808,-0.0844 -1.31745,-0.52724 -14.71727,-3.50864 -1.54884,-0.33755 -3.52306,-0.31113 -0.13484,2.32136 -0.003,0.0688 -0.20245,1.48881 -0.0226,0.11627 -0.0278,0.16732 -0.36724,1.73739 -0.61633,2.36193 -0.0418,0.19196 -0.19019,0.87324 -0.1864,0.77556 -0.2985,1.30696 -0.21534,0.92658 -0.14104,0.51977 -0.72184,3.13092 -0.24239,1.42234 -0.15557,1.173 -2.5e-4,1.26501 -0.003,0.4806 0.0107,1.86288 0.0129,2.30822 0.0752,0.8414 0.14824,0.46152 0.0152,0.0411 0.009,0.021 0.0114,0.024 0.13573,0.24415 0.15519,0.25427 0.0157,0.0234 0.0138,0.0163 0.045,0.0475 0.16656,0.18046 4.34487,4.14911 3.04991,2.79274 0.18109,0.17743 0.91735,0.92556 0.39631,0.43005 0.37381,-0.39807 0.19146,-0.0935 0.21736,-0.17098 0.0139,-0.0233 0.78478,-1.30658 0.2051,-0.35675 0.37799,-0.6574 0.11778,-0.24984 0.10211,-0.38317 0.0371,-0.19209 0.0612,-0.2851 0.0245,-0.12157 0.33351,-2.0005 0.37027,-1.9588 0.0966,-0.44433 0.26703,-0.79325 1.27019,-3.34803 0.19575,-0.40465 0.20422,-0.28548 0.27587,-0.23391 0.82245,-0.44686 1.5803,-0.8117 1.1423,-0.59156 0.19032,-0.12321 0.17667,-0.14432 0.11652,-0.10729 0.1174,-0.14091 0.27372,-0.45394 1.15582,-1.97725 1.18387,-2.13825 0.33502,-0.44622 0.21395,-0.28498 0.33906,-0.27499 0.75244,-0.36888 3.15416,-1.44218 1.72413,-0.77366 0.7772,-0.3488 0.40995,-0.23543 0.29433,-0.24593 0.83015,-0.86945 0.48123,-0.50398 0.32731,-0.34285 0.29268,-0.31619 0.94389,-0.94515 0.002,-0.14798 z"
     style="display:inline;fill:#000000;fill-opacity:1;fill-rule:evenodd;stroke:#232323;stroke-width:0.982677;stroke-linecap:square;stroke-linejoin:bevel;stroke-miterlimit:10;stroke-dasharray:none;stroke-opacity:1"
     id="path46" />
  <path
     d="m 267.2595,395.76414 -0.29243,-0.36257 -0.2027,-0.11917 -0.22039,-0.0667 -0.58095,-0.0414 -0.37722,0.0567 -0.88715,0.35916 -0.53077,0.30153 -0.36775,0.0907 -0.51876,0.17251 -0.26514,-0.003 -1.07847,-0.0447 -0.25831,0.049 -0.23152,0.20296 -0.17288,0.24819 -0.0907,0.21358 -0.114,0.2645 -0.0219,0.19158 -0.21167,0.63945 0.0284,0.60875 0.10704,0.43333 0.2741,0.43107 0.0852,0.19954 0.0312,0.15392 0.042,0.20612 -0.0215,0.29761 -0.0593,0.3124 -0.0907,0.28105 -0.23076,0.22508 -0.19702,0.23859 -0.23998,0.15519 -0.22949,0.0933 -0.45331,0.0402 -0.46152,0.1 -0.33375,0.11588 -0.33173,0.1907 -1.27031,0.40225 -0.86225,0.20877 -0.55908,0.31644 -0.50525,0.24782 -0.45646,0.0135 -0.2923,-0.0278 -0.14584,-0.0139 -0.76797,0.14584 -0.27221,-0.0659 -0.21395,-0.11007 -1.68369,-1.805 -0.33274,-0.48565 -0.35802,-0.36876 -0.35081,-0.24656 -0.46354,-0.21951 -0.34424,-0.12233 -0.16012,-0.057 -0.62972,-0.24365 -0.49425,-0.0974 -0.3517,-0.0805 -0.30203,-0.0899 -0.402,-0.17553 -0.0166,0.0267 -0.10439,0.35309 -0.36257,1.09149 -0.21129,0.63579 -0.27727,0.61759 -0.3776,0.66372 -0.43069,0.62479 -0.57487,0.83407 -0.2132,0.30924 -0.53696,0.77909 -0.0642,0.0943 -0.0906,0.13332 -0.18766,0.32087 -0.22128,0.37823 -0.14028,0.28245 -0.0485,0.0976 -0.0322,0.0689 -0.10022,0.40352 -0.0997,0.40187 -0.11019,0.4188 -0.015,0.0967 -0.0676,0.84051 -0.0895,1.50663 -0.005,1.61835 3.52306,0.31113 1.54884,0.33755 14.71727,3.50864 1.31745,0.52724 0.20788,-0.74801 0.58208,-0.29534 0.0716,-0.0502 0.0598,-0.16542 -0.021,-0.40768 0.0926,-0.0118 -0.60899,-3.42941 -0.50146,-1.03374 -0.14924,-0.81524 -0.0418,-0.95703 0.20295,-2.04991 0.71642,-2.96562 0.0597,-0.49627 0.3225,-0.29534 -0.20599,-1.69556 0.009,-0.68823 0.40894,-1.49463 1.0388,-1.80475 0.74977,-1.23808 z"
     style="display:inline;fill:#000000;fill-opacity:1;fill-rule:evenodd;stroke:#232323;stroke-width:0.982677;stroke-linecap:square;stroke-linejoin:bevel;stroke-miterlimit:10;stroke-dasharray:none;stroke-opacity:1"
     id="path48" />
  <path
     d="m 256.61135,395.84211 -0.003,-0.21787 -0.81259,0.012 -0.41375,0.0245 -0.0291,-0.003 -0.0214,-0.0144 -0.007,-0.0311 -0.001,-0.37685 -0.0191,-0.0298 -0.0178,-0.0138 -0.0326,-0.0152 -0.28472,-0.0474 -0.53633,-0.0814 -0.23064,-0.036 -0.25666,-0.0356 -0.0895,-2.48122 -0.40604,0.0236 -0.021,0.46468 -4.60583,-0.13977 -0.69253,3.74547 0.29824,0.0492 -0.82118,2.3383 -0.0364,0.0852 -0.0342,0.0631 0.402,0.17553 0.30203,0.0899 0.3517,0.0805 0.49425,0.0974 0.62972,0.24365 0.16012,0.057 0.34424,0.12233 0.46354,0.21951 0.35081,0.24656 0.35802,0.36876 0.33274,0.48565 1.68369,1.805 0.21395,0.11007 0.27221,0.0659 0.76797,-0.14584 0.14584,0.0139 0.2923,0.0278 0.45646,-0.0135 0.50525,-0.24782 0.55908,-0.31644 0.86225,-0.20877 1.27031,-0.40225 0.33173,-0.1907 0.33375,-0.11588 0.46152,-0.1 0.45331,-0.0402 0.22949,-0.0933 0.23998,-0.15519 0.19702,-0.23859 0.23076,-0.22508 0.0907,-0.28105 0.0593,-0.3124 0.0215,-0.29761 -0.042,-0.20612 -0.0312,-0.15392 -0.0852,-0.19954 -0.2741,-0.43107 -0.10704,-0.43333 -0.0284,-0.60875 0.21167,-0.63945 -0.4969,-0.8419 -0.79704,0.49033 -1.58498,0.57601 -0.62808,-1.91052 -0.93012,0.25123 z"
     style="display:inline;fill:#000000;fill-opacity:1;fill-rule:evenodd;stroke:#232323;stroke-width:0.982677;stroke-linecap:square;stroke-linejoin:bevel;stroke-miterlimit:10;stroke-dasharray:none;stroke-opacity:1"
     id="path50" />
  <path
     d="m 259.12038,390.37997 0.33047,-1.03917 -2.02502,-0.68015 -1.30772,0.29761 -3.03916,0.0244 -1.2664,-0.0465 -0.25489,0.27751 -1.02995,0.77379 -0.52256,0.43801 -0.26235,0.30975 -0.19626,0.31429 -0.1557,0.34007 -0.29344,0.42121 -0.17806,0.4739 -0.096,0.55845 4.60583,0.13977 0.021,-0.46468 0.40604,-0.0236 -0.071,-1.48275 2.59396,-0.72905 1.52571,-0.25515 1.21559,0.35233 z"
     style="display:inline;fill:#000000;fill-opacity:1;fill-rule:evenodd;stroke:#232323;stroke-width:0.982677;stroke-linecap:square;stroke-linejoin:bevel;stroke-miterlimit:10;stroke-dasharray:none;stroke-opacity:1"
     id="path52" />
  <path
     d="m 255.33131,395.64294 0.0214,0.0144 0.0291,0.003 0.41375,-0.0245 0.81259,-0.012 0.003,0.21787 0.93012,-0.25123 0.59926,-0.17882 1.92518,-0.67888 0.42677,-0.68659 0.4006,-0.24757 0.264,-0.4739 0.13042,-0.67888 -0.38671,0.0425 -0.39909,-1.44597 -0.26399,0.0547 -0.0676,-0.13977 -0.11285,-0.48553 -0.2616,0.0116 -0.67547,-0.3038 -1.21559,-0.35233 -1.52571,0.25515 -2.59396,0.72905 0.071,1.48275 0.0895,2.48122 0.25666,0.0356 0.23064,0.036 0.53633,0.0814 0.28472,0.0474 0.0326,0.0152 0.0178,0.0138 0.0191,0.0298 10e-4,0.37685 0.007,0.0311 z"
     style="display:inline;fill:#000000;fill-opacity:1;fill-rule:evenodd;stroke:#232323;stroke-width:0.982677;stroke-linecap:square;stroke-linejoin:bevel;stroke-miterlimit:10;stroke-dasharray:none;stroke-opacity:1"
     id="path54" />
  <path
     d="m 251.74254,381.30619 -0.2113,-0.0168 -0.0622,-0.0166 0.0486,0.33363 0.001,0.0174 0.0351,0.25818 0.14824,0.83685 0.14659,1.01971 0.14786,1.34854 0.1011,0.79856 0.1054,0.92771 0.0154,0.13547 0.059,0.53823 -0.008,0.27335 -0.0963,0.41109 -0.0444,0.18944 -0.0181,0.0419 -0.014,0.0277 -0.0639,0.12637 -0.15746,0.31063 -0.0629,0.0685 1.2664,0.0465 3.03916,-0.0244 1.30772,-0.29761 2.02502,0.68015 1.27057,-1.10338 0.0671,-0.39744 0.45697,0.0929 0.32832,0.0157 -0.39151,-0.69834 -1.49639,-2.3618 -1.07342,-1.19967 -3.4854,-2.4619 -0.49564,-0.12182 -1.48692,0.21559 -0.66927,0.0437 -0.73272,-0.0581 z"
     style="display:inline;fill:#000000;fill-opacity:1;fill-rule:evenodd;stroke:#232323;stroke-width:0.982677;stroke-linecap:square;stroke-linejoin:bevel;stroke-miterlimit:10;stroke-dasharray:none;stroke-opacity:1"
     id="path56" />
  <path
     d="m 286.70986,392.65533 0.6004,-0.56931 0.13636,-0.35347 -0.013,-0.62328 -0.24681,-0.66182 -0.62328,-0.7197 -0.70138,-1.58068 -0.72159,-1.4691 -0.11917,-0.16176 -0.10742,-0.29963 -1.12321,1.6028 -0.55845,0.60394 -0.48704,0.24415 -1.03248,0.10287 h -0.75964 l -0.59749,0.006 -1.13636,0.11563 -0.28573,0.006 -0.62328,-0.17352 -0.24023,-0.17995 -0.70782,-0.72602 -0.98054,-1.18236 -0.22078,-0.24428 -0.71755,-0.48502 -1.21749,-0.35663 -0.69644,-0.0113 -0.42045,0.10275 -0.57146,0.17515 -0.40086,0.2324 -0.21357,0.19045 0.32554,0.19714 0.57955,0.4739 0.49349,0.28119 0.26298,-0.0337 0.14609,-0.0273 0.21749,0.11083 0.6526,0.88676 0.43586,0.34223 0.0625,0.13888 0.003,0.24984 -0.10716,1.08909 0.45317,1.00316 0.0695,0.099 0.64286,-0.44345 2.27271,0.19285 2.9286,-0.10287 0.70782,0.14786 2.35713,1.61923 0.91558,0.14773 1.36711,0.0425 z"
     style="display:inline;fill:#000000;fill-opacity:1;fill-rule:evenodd;stroke:#232323;stroke-width:0.982677;stroke-linecap:square;stroke-linejoin:bevel;stroke-miterlimit:10;stroke-dasharray:none;stroke-opacity:1"
     id="path58" />
  <path
     d="m 293.00493,389.85223 0.86794,-0.40958 1.44243,-0.14533 0.94831,-0.26437 0.77455,-0.17174 4.18045,-2.26008 2.89827,-1.14987 -0.0268,-1.33489 -0.78794,-1.30848 -0.0885,-0.68179 0.50246,-0.21686 -0.70314,-1.13218 -2.55579,0.78289 -1.64615,1.06722 -3.20206,3.0829 -4.69467,1.77758 -1.99002,0.50221 -2.29722,-1.1102 -1.60571,-0.36345 0.11917,0.16176 0.72159,1.4691 0.70138,1.58068 0.62328,0.7197 0.24681,0.66182 0.013,0.62328 -0.13636,0.35347 -0.6004,0.56931 1.88272,-0.57146 0.59181,-0.44168 0.59105,-0.44104 0.59725,-0.45065 0.21205,-0.13889 0.0691,-0.0349 0.13939,-0.0523 0.16189,-0.0461 0.67622,-0.20966 0.67282,-0.21306 0.70074,-0.20334 z"
     style="display:inline;fill:#000000;fill-opacity:1;fill-rule:evenodd;stroke:#232323;stroke-width:0.982677;stroke-linecap:square;stroke-linejoin:bevel;stroke-miterlimit:10;stroke-dasharray:none;stroke-opacity:1"
     id="path60" />
  <path
     d="m 271.87765,386.24836 -0.6,0.7 -0.3,0.7 -0.7,2 -0.4,0.3 -0.6,0.1 -0.6,0.1 -6.1,-1.2 -0.6,-0.4 -0.4,-0.6 h -0.3 l -0.5,-0.1 -0.1,0.4 -1.2,1.1 -0.4,1 0.7,0.3 h 0.3 l 0.1,0.5 0.1,0.1 h 0.2 l 0.4,1.4 h 0.4 l -0.1,0.7 -0.3,0.5 -0.4,0.2 -0.4,0.7 -1.9,0.7 -0.6,0.1 0.6,2 1.6,-0.6 0.8,-0.5 0.5,0.8 v -0.2 l 0.1,-0.2 0.1,-0.2 0.2,-0.3 0.2,-0.2 h 0.3 1 0.3 l 0.5,-0.2 0.4,-0.1 0.5,-0.3 0.9,-0.3 0.4,-0.1 0.6,0.1 h 0.2 l 0.2,0.2 0.3,0.3 0.1,0.4 0.2,0.5 0.1,0.8 v 0.5 l 0.1,0.4 0.2,0.5 0.2,0.5 0.3,0.4 0.2,0.1 0.3,0.1 h 0.1 0.1 l 0.1,-0.1 0.2,-0.2 0.5,-0.1 0.2,-0.1 0.6,-0.1 0.4,-0.1 v -0.1 l 0.3,-0.1 0.2,-0.2 0.1,-0.2 0.1,-0.1 0.4,-0.1 0.2,-0.1 0.2,-0.1 0.1,-0.2 0.1,-0.2 0.2,-0.4 0.1,-0.1 v -0.1 l 0.2,-1.4 0.7,-1.6 0.3,-0.6 1.1,-2.7 -0.5,-1 0.1,-1.1 v -0.2 -0.2 l -0.5,-0.3 -0.6,-0.9 -0.2,-0.1 h -0.2 -0.3 l -0.4,-0.2 -0.6,-0.5 z"
     style="display:inline;fill:#000000;fill-opacity:1;fill-rule:evenodd;stroke:#232323;stroke-width:0.982677;stroke-linecap:square;stroke-linejoin:bevel;stroke-miterlimit:10;stroke-dasharray:none;stroke-opacity:1"
     id="path62" />
  <path
     d="m 264.26596,416.40633 1.23808,0.0844 3.357,0.87553 0.64072,0.26096 0.96423,0.35005 0.58094,0.26703 0.3373,0.0814 0.9842,0.30481 0.0809,0.0308 0.92126,-0.98446 0.18641,-0.0436 0.75382,-0.8419 0.1198,-0.13421 0.67218,-0.71262 0.0593,-0.062 0.11854,-0.0527 0.0599,-0.068 0.39543,-0.43144 0.10084,-0.1375 0.15469,-0.196 0.16567,-0.18185 0.20662,-0.18249 -0.26184,-0.42917 -0.22128,-0.71199 -0.0603,-0.47693 -0.50449,-0.78011 -0.14849,-1.34727 -0.69013,-2.49261 -0.68078,-0.48388 -0.29091,-0.67977 -0.58182,-1.12688 v -0.28788 l -0.1423,-0.36749 -0.3033,-0.45318 -0.31568,-1.18197 -0.0124,-0.27563 -0.16087,-0.40414 -1.27499,0.0612 -0.68077,0.12259 -0.43675,-0.36131 -0.21926,0.0672 -0.47037,-0.18374 -0.50752,-0.30621 -0.53228,-0.69809 0.76747,-0.34298 0.0743,-0.45482 0.13762,-0.28623 0.30797,-0.28788 -0.0845,-0.47151 -0.0324,-0.18071 0.014,-0.42032 -0.5841,-0.18906 -0.78605,-0.20523 -0.45494,-0.31846 -0.21964,-0.34905 -0.49728,-1.3268 -1.0388,1.80475 -0.40894,1.49463 -0.009,0.68823 0.20599,1.69556 -0.3225,0.29534 -0.0597,0.49627 -0.71642,2.96562 -0.20295,2.04991 0.0418,0.95703 0.14924,0.81524 0.50146,1.03374 0.60899,3.42941 -0.0926,0.0118 0.021,0.40768 -0.0598,0.16542 -0.0716,0.0502 -0.58208,0.29534 -0.20788,0.74801 z"
     style="display:inline;fill:#000000;fill-opacity:1;fill-rule:evenodd;stroke:#232323;stroke-width:0.982677;stroke-linecap:square;stroke-linejoin:bevel;stroke-miterlimit:10;stroke-dasharray:none;stroke-opacity:1"
     id="path64" />
  <path
     d="m 251.34168,380.33766 0.2324,0.077 -0.27309,-2.15114 -0.22002,0.0421 -0.3177,0.0883 -4.334,-5.39238 -0.19095,-0.10641 -0.44673,-0.67256 -1.02768,-2.0388 -0.20902,-1.98483 -0.53115,-0.97472 -3.77265,-3.21344 0.20031,-1.0714 0.0777,-0.46253 5.95752,-27.38829 -7.99429,2.62049 -2.77518,-1.57474 -1.33666,-2.00316 -0.75104,-0.8189 -5.37203,-1.38595 -0.98016,-0.11335 -0.80197,0.44092 -1.18387,3.81738 0.471,3.59054 0.22911,3.66611 -0.31189,1.04562 -0.75761,0.72336 -2.87678,-2.47453 -3.13155,-1.90231 -0.92923,-0.1385 -3.24617,0.45343 -2.32958,-0.47871 -5.66471,-2.67711 -2.56514,-0.59219 -2.59687,-0.28977 -3.48792,-0.85037 -2.9152,0.27726 -2.94704,-0.25199 1.42575,9.29747 0.86567,0.25199 1.41298,5.83292 0.56022,1.31024 0.73411,0.68356 1.78642,6.49727 -0.50929,2.02818 1.66764,1.6881 1.62946,3.77935 0.056,1.06849 -0.019,0.68495 -0.0181,0.65689 -0.0171,0.61721 -0.02,0.724 -0.0159,0.5779 -0.0148,0.53507 0.24125,0.13244 1.63225,1.05143 0.78945,0.62252 0.87767,0.8433 0.14318,0.13762 0.7954,0.37596 0.5908,0.16568 0.9981,0.27992 0.98711,0.27688 0.26918,0.11652 0.49058,0.21243 0.26514,0.19133 0.65487,0.47239 0.736,0.71073 0.46505,0.4231 1.24605,1.62668 0.36699,0.47909 0.34311,0.44799 0.3498,0.45659 0.33439,0.56704 0.2621,0.44421 0.30089,0.49399 0.17288,0.2568 0.18363,0.20232 0.21129,0.14078 0.22583,0.10666 0.53393,0.47921 0.27145,0.3445 0.0957,0.17073 0.11677,0.20877 9.19472,0.63174 4.80904,-0.15266 0.0906,-0.37861 0.14243,-0.2482 0.13901,-0.20132 0.29142,-0.23808 0.3153,-0.15102 0.34904,-0.10059 0.34917,-0.0335 0.38987,0.0536 0.80665,0.27511 0.69265,0.16353 0.82914,-0.1035 1.11298,-0.49526 0.59762,-0.13307 0.874,0.0369 0.83673,0.30317 1.72235,0.51864 0.29799,0.0897 2.31972,0.8922 0.57576,0.31379 0.50221,0.16049 0.6234,-0.10868 0.38987,-0.16366 0.43081,-0.33805 0.57007,-0.64716 0.44105,-0.54075 0.31896,-0.44016 0.18047,-0.44282 0.0698,-0.44395 0.0747,-0.95602 0.0373,-0.36901 0.11184,-0.31859 0.12878,-0.2717 0.15936,-0.25831 0.0778,-0.12916 0.0814,-0.0553 0.19663,-0.1979 0.27803,-0.20789 0.47365,-0.25451 0.69063,-0.084 0.44724,-0.006 0.59446,0.15696 0.78125,0.29129 0.23897,0.0765 z"
     style="display:inline;fill:#000000;fill-opacity:1;fill-rule:evenodd;stroke:#232323;stroke-width:0.982677;stroke-linecap:square;stroke-linejoin:bevel;stroke-miterlimit:10;stroke-dasharray:none;stroke-opacity:1"
     id="path66" />
  <path
     d="m 251.30099,378.26348 -0.0661,-0.54164 0.0505,-0.68381 0.1514,-0.59548 4.37886,-7.03789 2.99696,-5.1941 0.61342,-5.80057 0.80981,-11.18587 -0.15506,-3.54821 -0.19702,1.31909 -0.31632,0.51397 -0.1313,0.36029 -0.4298,1.05156 -1.62365,2.34525 -1.19385,0.94515 -1.08038,0.40174 -1.05054,0.14761 -1.27145,-0.0827 -1.33123,-0.25995 -0.14318,-0.49627 -0.60293,-2.22709 0.11942,-7.58523 -4.34196,-5.02084 -5.95752,27.38829 -0.0777,0.46253 -0.20031,1.0714 3.77265,3.21344 0.53115,0.97472 0.20902,1.98483 1.02768,2.0388 0.44673,0.67256 0.19095,0.10641 4.334,5.39238 0.3177,-0.0883 0.22002,-0.0421 z"
     style="display:inline;fill:#000000;fill-opacity:1;fill-rule:evenodd;stroke:#232323;stroke-width:0.982677;stroke-linecap:square;stroke-linejoin:bevel;stroke-miterlimit:10;stroke-dasharray:none;stroke-opacity:1"
     id="path68" />
  <path
     d="m 263.5254,292.46333 -0.027,0.26311 0.0574,0.42715 0.38759,1.05484 0.0976,0.26564 0.60647,0.48009 0.10603,1.69556 0.75711,1.06546 0.86503,-1.71072 1.44787,0.31518 1.55389,-2.77594 -0.87931,-1.83053 1.23922,-2.55161 -1.51282,-2.36421 -2.4322,-0.0154 -0.81068,1.20359 -0.96664,1.69746 -0.48325,2.05244 -0.006,0.72791 z"
     style="display:inline;fill:#000000;fill-opacity:1;fill-rule:evenodd;stroke:#232323;stroke-width:0.982677;stroke-linecap:square;stroke-linejoin:bevel;stroke-miterlimit:10;stroke-dasharray:none;stroke-opacity:1"
     id="path70" />
  <path
     d="m 259.42608,358.40999 -0.61342,5.80057 -2.99696,5.1941 -4.37886,7.03789 -0.1514,0.59548 -0.0505,0.68381 0.0661,0.54164 0.27309,2.15114 0.16846,0.89157 0.73272,0.0581 0.66927,-0.0437 1.48692,-0.21559 0.49564,0.12182 3.4854,2.4619 1.07342,1.19967 1.49639,2.3618 0.39151,0.69834 0.41034,0.5817 0.56666,0.41792 6.08478,1.18248 0.65929,-0.034 0.56313,-0.17326 0.40414,-0.29192 0.69127,-1.96436 0.36977,-0.724 0.59156,-0.69278 -0.003,-0.002 -0.79767,-0.54 -0.58347,-1.32642 -0.20839,-0.43435 -0.0492,-0.34386 0.1102,-0.55845 0.39479,-1.04827 0.0288,-0.19955 0.15254,-0.62226 0.0785,-0.47416 0.18791,-0.24832 -0.54606,-0.45824 0.0153,-1.37697 -0.0627,-1.28472 -0.7034,0.047 -1.55364,0.38191 -1.35296,-2.46329 -0.28472,-2.45544 -0.0609,-0.11399 -0.1356,-1.82484 -0.39075,-1.25705 -0.28384,-0.65828 -0.36914,-0.47668 -0.0308,-0.18375 -0.37672,-0.67041 -0.25376,-0.7556 -0.31859,-0.7111 -0.678,-2.00594 -0.027,-1.85833 -0.27626,-1.88108 -0.57714,-0.67584 -3.5333,-1.36004 z"
     style="display:inline;fill:#000000;fill-opacity:1;fill-rule:evenodd;stroke:#232323;stroke-width:0.982677;stroke-linecap:square;stroke-linejoin:bevel;stroke-miterlimit:10;stroke-dasharray:none;stroke-opacity:1"
     id="path72" />
  <path
     d="m 283.34376,361.37927 0.51182,-0.70441 0.17958,-0.21976 0.21534,-0.23316 0.10109,-0.0941 0.19285,-0.1859 0.195,-0.16706 0.23429,-0.18956 0.3311,-0.26779 0.002,-0.005 0.2166,-0.38848 0.0135,-0.31707 -0.039,-0.322 1.5932,-0.93921 2.20321,-2.42196 3.68279,-3.30582 1.67281,-0.75989 2.06091,-1.79792 0.86769,-0.28181 -1.13889,-6.46758 -38.2653,-15.31223 -0.48389,0.33704 -0.01,0.008 0.16972,0.40414 0.91874,1.96234 0.18464,0.42436 0.19663,0.40768 0.17036,0.4269 0.078,0.30607 0.0796,0.3052 0.0711,0.38746 0.0585,0.45381 0.067,0.88563 0.0771,2.10084 0.0508,1.00796 0.0221,0.43612 0.0407,1.1222 0.0593,1.29571 0.0746,1.195 0.0339,1.09275 0.0288,1.15316 0.0187,0.96449 0.15506,3.54821 -0.80981,11.18587 3.5333,1.36004 0.57714,0.67584 0.27626,1.88108 0.027,1.85833 0.678,2.00594 0.31859,0.7111 0.25376,0.7556 0.37672,0.67041 0.0308,0.18375 0.36914,0.47668 0.28384,0.65828 0.39075,1.25705 0.1356,1.82484 0.0609,0.11399 0.28472,2.45544 1.35296,2.46329 1.55364,-0.38191 0.7034,-0.047 0.0627,1.28472 -0.0153,1.37697 0.54606,0.45824 -0.0206,-0.0498 0.22027,-0.27764 0.36952,-0.483 0.17629,-0.22469 0.23304,-0.2415 0.19057,-0.19462 0.21357,-0.19626 0.18135,-0.16353 0.3263,-0.27499 0.0474,-0.036 0.0348,-0.0286 0.0839,-0.0579 0.11614,-0.10161 0.15847,-0.11386 0.20587,-0.1677 0.11689,-0.0839 0.14748,-0.13674 0.0915,-0.10312 0.0873,-0.11146 0.10767,-0.16189 0.0661,-0.0931 0.10502,-0.1433 0.0661,-0.10578 0.19664,-0.29761 0.4983,-0.74725 0.36016,-0.58701 0.31948,-0.56186 0.14735,-0.24655 0.12207,-0.2046 0.38987,-0.70517 0.10931,-0.20043 0.41438,-0.75395 0.12878,-0.22557 0.0449,-0.0888 0.0423,-0.10325 0.0306,-0.10894 0.0186,-0.15683 0.009,-0.18539 -0.009,-0.22633 -0.0449,-0.41855 0.002,-0.19614 0.002,-0.17692 0.0119,-0.15354 0.0169,-0.18198 0.0382,-0.19449 0.0373,-0.16442 0.0389,-0.14166 0.061,-0.19373 0.0703,-0.19967 0.14242,-0.35802 0.25844,-0.75723 0.14406,-0.41931 0.26274,-0.75559 0.21521,-0.67168 0.0737,-0.21307 0.0432,-0.15683 0.12801,-0.3723 0.0762,-0.29192 0.13699,-0.41489 0.0697,-0.21572 0.10515,-0.25831 0.083,-0.13913 0.0983,-0.13257 0.12714,-0.12233 0.22532,-0.16782 0.31695,-0.1744 0.25085,-0.14091 0.34071,-0.22633 0.19486,-0.13093 1.06938,-0.80336 0.58473,-0.43611 0.3814,-0.29509 0.17111,-0.16112 0.16618,-0.19449 0.0711,-0.0923 z"
     style="display:inline;fill:#000000;fill-opacity:1;fill-rule:evenodd;stroke:#232323;stroke-width:0.982677;stroke-linecap:square;stroke-linejoin:bevel;stroke-miterlimit:10;stroke-dasharray:none;stroke-opacity:1"
     id="path74" />
  <path
     d="m 271.16193,399.22957 -0.39858,0.15417 -0.55023,0.0919 -0.22381,0.0373 -0.46885,0.12928 -0.23644,0.21066 -0.11589,0.0953 -0.0853,0.0432 -0.0128,5e-4 0.0845,0.47151 -0.30797,0.28788 -0.13762,0.28623 -0.0743,0.45482 -0.76747,0.34298 0.53228,0.69809 0.50752,0.30621 0.47037,0.18374 0.21926,-0.0672 0.43675,0.36131 0.68077,-0.12259 1.27499,-0.0612 0.16087,0.40414 0.0124,0.27563 0.31568,1.18197 0.3033,0.45318 0.1423,0.36749 v 0.28788 l 0.58182,1.12688 0.29091,0.67977 0.68078,0.48388 0.69013,2.49261 0.14849,1.34727 0.50449,0.78011 0.0603,0.47693 0.22128,0.71199 0.26184,0.42917 0.90952,-0.98938 0.33072,-0.34424 0.21307,-0.22255 0.68886,-0.76494 1.59737,-1.71401 0.64691,-0.68773 0.23884,-0.27423 0.18059,-0.17617 0.12322,-0.12195 0.56704,-0.58005 1.23101,-1.38961 0.34411,-0.55036 0.20789,-0.25692 0.18741,-0.28485 0.11159,-0.22469 0.0894,-0.35448 0.0394,-0.49235 0.10034,-1.31935 0.0428,-0.78516 -3.62252,-0.79035 -1.11373,-0.37065 -0.77189,-0.26273 -0.70138,-0.20612 -0.68773,-0.18286 -0.72854,-0.22672 -0.30077,-0.0962 -0.37597,-0.13421 -0.40553,-0.14469 -0.41173,-0.0954 -0.93289,-0.29268 -0.95084,-0.29824 -0.67345,-0.2113 -0.0576,-0.0181 -0.01,-0.003 -0.26349,-0.0854 -0.10173,-0.0259 -0.44636,-0.12372 -0.0334,-0.009 -0.13598,-0.0598 -0.10287,-0.0579 -0.0202,-0.0162 -0.0444,-0.0627 -0.059,-0.0723 -0.042,-0.0427 -0.0583,0.0188 z"
     style="display:inline;fill:#000000;fill-opacity:1;fill-rule:evenodd;stroke:#232323;stroke-width:0.982677;stroke-linecap:square;stroke-linejoin:bevel;stroke-miterlimit:10;stroke-dasharray:none;stroke-opacity:1"
     id="path76" />
  <path
     d="m 266.36692,423.39077 -3.15416,1.44218 -0.0727,0.12511 -0.17326,0.63124 -0.13206,0.73739 0.70946,0.003 1.92493,-1.03399 4.04776,0.30482 0.70403,0.58776 3.03589,0.67471 0.35195,1.04486 1.84784,0.30482 5.12573,-5.79034 2.63996,5.42019 3.20459,-6.2789 -5e-4,-0.003 -1.15355,-0.24226 -1.88411,-0.48047 -1.31138,-0.33452 -0.002,-0.0332 0.003,-1.04625 0.43991,-1.45305 1.38594,0.0109 1.14811,-1.46796 0.42348,0.005 0.73828,0.4231 1.05737,0.008 -0.004,0.41628 1.46025,1.48022 0.72589,0.32655 1.93049,0.0109 2.18337,1.15923 2.98078,-2.2803 2.19992,-0.31555 1.81486,-1.41501 1.12751,0.31025 0.74801,-0.0109 1.03942,-0.6095 2.60129,-1.57829 -1.79831,-3.68431 2.10085,-1.94275 0.5774,-0.57146 2.52988,-1.46392 1.83697,-1.81776 0.43991,1.89397 1.09996,0.96865 2.21092,-1.53468 -0.35196,-1.43675 0.044,-2.3728 -0.70403,-1.13193 -4.64715,-2.73208 -0.81954,-0.90876 -1.61683,-3.02046 -0.80854,-4.12536 -0.48666,-1.35245 -0.0523,-1.35777 -0.28864,-0.89258 -0.51434,-0.86667 -0.71376,-0.64286 -2.89827,1.14987 -4.18045,2.26008 -0.77455,0.17174 -0.94831,0.26437 -1.44243,0.14533 -0.86794,0.40958 -0.70074,0.20334 -0.67282,0.21306 -0.67622,0.20966 -0.16189,0.0461 -0.13939,0.0523 -0.0691,0.0349 -0.21205,0.13889 -0.59725,0.45065 -0.59105,0.44104 -0.59181,0.44168 -1.88272,0.57146 -1.36711,-0.0425 -0.91558,-0.14773 -2.35713,-1.61923 -0.70782,-0.14786 -2.9286,0.10287 -2.27271,-0.19285 -0.64286,0.44345 -0.0695,-0.099 -1.04511,2.71616 -0.3076,0.60533 -0.70314,1.55705 -0.20371,1.46569 -0.0346,0.0896 -0.0346,0.0896 -0.19853,0.38203 -0.0947,0.21926 -0.18286,0.21913 -0.1169,0.032 -0.20978,0.0742 -0.42411,0.18742 -0.14103,0.0834 -0.0672,0.16859 -0.19348,0.19234 -0.26715,0.15847 0.0382,0.0607 0.059,0.0723 0.0444,0.0627 0.0202,0.0162 0.10287,0.0579 0.13598,0.0598 0.0334,0.009 0.44636,0.12372 0.10173,0.0259 0.26349,0.0854 0.01,0.003 0.0576,0.0181 0.67345,0.2113 0.95084,0.29824 0.93289,0.29268 0.41173,0.0954 0.40553,0.14469 0.37597,0.13421 0.30077,0.0962 0.72854,0.22672 0.68773,0.18286 0.70138,0.20612 0.77189,0.26273 1.11373,0.37065 3.62252,0.79035 -0.0428,0.78516 -0.10034,1.31935 -0.0394,0.49235 -0.0894,0.35448 -0.11159,0.22469 -0.18741,0.28485 -0.20789,0.25692 -0.40098,0.46556 -1.27524,1.33501 -0.72817,0.8155 -0.34904,0.3819 -0.30596,0.34272 -0.14937,0.16972 -0.41501,0.44194 -0.2252,0.23025 -0.39492,0.41931 -0.74118,0.80159 -0.71288,0.80298 -0.23594,0.23569 -0.41286,0.45482 -0.40655,0.41754 -0.22027,0.21357 -0.40402,0.31682 -0.0512,0.0312 -0.0876,0.0781 -0.0339,0.0393 -0.0489,0.0801 -0.0896,0.17957 -0.0762,0.15165 -0.11753,0.16429 -0.25932,0.29255 -0.0901,0.0942 -0.0411,0.10932 -0.0593,0.062 -0.67218,0.71262 -0.1198,0.13421 -0.75382,0.8419 -0.18641,0.0436 -0.92126,0.98446 -0.002,0.14798 -0.94389,0.94515 -0.29268,0.31619 -0.32731,0.34285 -0.48123,0.50398 -0.83015,0.86945 -0.29433,0.24593 -0.40995,0.23543 -0.7772,0.3488 -1.72413,0.77366 z m 15.497,-14.57384 0.91558,-1.01769 0.55276,0.54152 -0.93491,1.08833 z"
     style="display:inline;fill:#000000;fill-opacity:1;fill-rule:evenodd;stroke:#232323;stroke-width:0.982677;stroke-linecap:square;stroke-linejoin:bevel;stroke-miterlimit:10;stroke-dasharray:none;stroke-opacity:1"
     id="path78" />
  <path
     d="m 281.86392,408.81693 0.53343,0.61216 0.93491,-1.08833 -0.55276,-0.54152 z"
     style="display:inline;fill:#000000;fill-opacity:1;fill-rule:evenodd;stroke:#232323;stroke-width:0.982677;stroke-linecap:square;stroke-linejoin:bevel;stroke-miterlimit:10;stroke-dasharray:none;stroke-opacity:1"
     id="path80" />
  <path
     d="m 304.11688,385.45126 0.71376,0.64286 0.51434,0.86667 0.28864,0.89258 0.0523,1.35777 0.48666,1.35245 0.80854,4.12536 1.61683,3.02046 0.81954,0.90876 4.64715,2.73208 0.70403,1.13193 -0.044,2.3728 2.1979,-0.20826 1.72248,0.38733 1.33969,0.0172 1.75723,1.42904 2.22709,-1.02439 0.7307,-1.52369 0.30443,-1.05889 2.67067,-0.77467 1.05269,-1.0503 3.34045,0.37015 1.1222,-0.7403 2.21837,-1.05876 2.64463,-0.67143 2.91418,0.43043 3.61898,-1.12776 -0.3306,-1.5065 0.76558,-2.52218 4.12346,-1.82509 5.08895,-3.64994 -0.27827,-1.0417 -2.25313,-0.44761 0.026,-2.19525 -0.68723,-2.94413 -1.15695,-2.62555 -1.68128,-1.69455 -0.84443,0.4049 -1.07443,-0.96638 -0.64805,-0.10616 -0.43649,0.70454 -1.03134,0.7499 -1.56439,-0.56805 -1.3014,0.74637 -0.38468,1.4121 -1.67547,-0.41501 -2.17123,1.24504 -0.62088,0.0562 -0.40098,-0.66081 -0.42171,-1.518 -0.64489,-0.30697 -0.87097,0.59801 -1.18109,-0.91495 0.77492,-2.41678 -0.70226,-2.11398 -0.0375,-0.11324 -0.52774,-0.79388 -0.14406,-0.21635 -0.39985,0.11108 -0.27031,0.066 -0.23051,0.0487 -0.15847,0.0284 -0.24492,0.0336 -0.46682,0.042 -0.57374,0.036 -0.67623,0.0243 -0.48174,0.021 -0.13218,0.005 -0.17794,0.004 -0.0567,0.006 -0.0638,0.0147 -0.0874,0.0353 -0.11197,0.0562 -0.0982,0.0814 -0.28219,0.24731 -0.21269,0.18034 -0.22292,0.14507 -0.25591,0.13662 -0.24327,0.094 -0.3287,0.10893 -0.22204,0.0638 -0.14495,0.0469 -0.0882,0.0471 -0.0719,0.0527 -0.10173,0.0754 -0.21774,0.18867 -0.24403,0.24744 -0.13396,0.13244 -0.14823,0.14091 -0.34159,0.33464 -0.56767,0.46038 -0.53558,0.44016 -0.18981,0.15772 -0.40933,0.29344 -0.10767,0.0671 -0.30923,0.14849 -0.13219,0.0545 -0.18893,0.047 -0.1399,0.0226 -0.21862,0.009 -0.31606,0.005 -0.65677,0.005 -0.58638,0.0578 -0.4169,0.0294 -0.32453,0.0167 -0.15089,0.0126 -0.12625,0.0235 -0.13307,0.0394 -0.10679,0.0344 -0.0957,0.0319 -0.25426,0.0796 -0.23556,0.0931 -0.39492,0.15936 -0.20852,0.072 -0.18981,0.0705 -0.32364,0.0838 -0.16404,0.0311 -0.18071,0.0243 -0.28308,0.0273 -0.52483,0.11892 -0.47706,0.0647 -0.63668,0.11993 -0.63465,0.10098 -0.37507,0.0513 -0.17516,0.0202 -0.35195,0.0407 -0.46733,0.0705 -0.46544,0.0589 -0.29243,0.021 -0.67395,10e-4 -0.083,1.3e-4 -0.24314,5.1e-4 -0.28422,0.0157 -0.60293,0.0318 -0.14571,0.007 -0.37962,-0.0307 -0.4475,0.0148 -0.17035,0.004 -0.17957,0.0177 -0.16353,0.0201 -0.25098,0.0354 -0.299,0.0334 -0.0771,0.0176 -0.0992,0.0344 -0.22115,0.0973 -0.51434,0.20295 -0.20258,0.0839 -0.28725,0.13408 -0.2712,0.14179 -0.23467,0.15759 -0.18982,0.0973 -0.0639,0.0284 -0.0886,0.0394 -0.14748,0.0646 -0.15001,0.0629 -0.41058,0.15431 -0.55795,0.1912 -0.20257,0.0738 -0.30684,0.0914 -0.46607,0.11412 -0.13471,0.0234 -0.20763,0.0118 -0.14066,0.0126 -0.31518,0.0243 -0.127,0.0192 -0.10249,0.023 0.70314,1.13218 -0.50246,0.21686 0.0885,0.68179 0.78794,1.30848 0.0268,1.33489 z"
     style="display:inline;fill:#000000;fill-opacity:1;fill-rule:evenodd;stroke:#232323;stroke-width:0.982677;stroke-linecap:square;stroke-linejoin:bevel;stroke-miterlimit:10;stroke-dasharray:none;stroke-opacity:1"
     id="path82" />
  <path
     d="m 269.73719,289.16156 -1.23922,2.55161 0.87931,1.83053 -1.55389,2.77594 -1.44787,-0.31518 -0.86503,1.71072 -0.75711,-1.06546 -0.10603,-1.69556 -0.60647,-0.48009 -0.0976,-0.26564 -0.38759,-1.05484 -0.0574,-0.42715 0.027,-0.26311 -4.41829,15.00692 -11.53302,9.8391 -4.71438,4.03197 0.0569,0.12107 1.54593,3.26462 1.05927,2.27119 1.40427,2.96145 0.30506,4.92113 -0.74447,0.20776 4.34196,5.02084 -0.11942,7.58523 0.60293,2.22709 0.14318,0.49627 1.33123,0.25995 1.27145,0.0827 1.05054,-0.14761 1.08038,-0.40174 1.19385,-0.94515 1.62365,-2.34525 0.4298,-1.05156 0.1313,-0.36029 0.31632,-0.51397 0.19702,-1.31909 -0.0187,-0.96449 -0.0288,-1.15316 -0.0339,-1.09275 -0.0746,-1.195 -0.0593,-1.29571 -0.0407,-1.1222 -0.0221,-0.43612 -0.0508,-1.00796 -0.0771,-2.10084 -0.067,-0.88563 -0.0585,-0.45381 -0.0711,-0.38746 -0.0796,-0.3052 -0.078,-0.30607 -0.17036,-0.4269 -0.19663,-0.40768 -0.18464,-0.42436 -0.91874,-1.96234 -0.16972,-0.40414 0.01,-0.008 0.48389,-0.33704 38.2653,15.31223 1.13889,6.46758 -0.86769,0.28181 -2.06091,1.79792 -1.67281,0.75989 -3.68279,3.30582 -2.20321,2.42196 -1.5932,0.93921 0.039,0.322 -0.0135,0.31707 -0.2166,0.38848 -0.002,0.005 -0.3311,0.26779 -0.23429,0.18956 -0.195,0.16706 -0.19285,0.1859 -0.10109,0.0941 -0.21534,0.23316 -0.17958,0.21976 -0.51182,0.70441 -0.0711,0.0923 -0.16618,0.19449 -0.17111,0.16112 -0.3814,0.29509 -0.58473,0.43611 -1.06938,0.80336 -0.19486,0.13093 -0.34071,0.22633 -0.25085,0.14091 -0.31695,0.1744 -0.22532,0.16782 -0.12714,0.12233 -0.0983,0.13257 -0.083,0.13913 -0.10515,0.25831 -0.0697,0.21572 -0.13699,0.41489 -0.0762,0.29192 -0.12801,0.3723 -0.0432,0.15683 -0.0737,0.21307 -0.21521,0.67168 -0.26274,0.75559 -0.14406,0.41931 -0.25844,0.75723 -0.14242,0.35802 -0.0703,0.19967 -0.061,0.19373 -0.0389,0.14166 -0.0373,0.16442 -0.0382,0.19449 -0.0169,0.18198 -0.0119,0.15354 -0.002,0.17692 -0.002,0.19614 0.0449,0.41855 0.009,0.22633 -0.009,0.18539 -0.0186,0.15683 -0.0306,0.10894 -0.0423,0.10325 -0.0449,0.0888 -0.12878,0.22557 -0.41438,0.75395 -0.10931,0.20043 -0.38987,0.70517 -0.12207,0.2046 -0.14735,0.24655 -0.31948,0.56186 -0.36016,0.58701 -0.4983,0.74725 -0.19664,0.29761 -0.0661,0.10578 -0.10502,0.1433 -0.0661,0.0931 -0.10767,0.16189 -0.0873,0.11146 -0.0915,0.10312 -0.14748,0.13674 -0.11689,0.0839 -0.20587,0.1677 -0.15847,0.11386 -0.11614,0.10161 -0.0839,0.0579 -0.0348,0.0286 -0.0474,0.036 -0.3263,0.27499 -0.18135,0.16353 -0.21357,0.19626 -0.19057,0.19462 -0.23304,0.2415 -0.17629,0.22469 -0.36952,0.483 -0.22027,0.27764 0.0206,0.0498 -0.18791,0.24832 -0.0785,0.47416 -0.15254,0.62226 -0.0288,0.19955 -0.39479,1.04827 -0.1102,0.55845 0.0492,0.34386 0.20839,0.43435 0.58347,1.32642 0.79767,0.54 0.003,0.002 0.008,-0.01 0.21357,-0.19045 0.40086,-0.2324 0.57146,-0.17515 0.42045,-0.10275 0.69644,0.0113 1.21749,0.35663 0.71755,0.48502 0.22078,0.24428 0.98054,1.18236 0.70782,0.72602 0.24023,0.17995 0.62328,0.17352 0.28573,-0.006 1.13636,-0.11563 0.59749,-0.006 h 0.75964 l 1.03248,-0.10287 0.48704,-0.24415 0.55845,-0.60394 1.12321,-1.6028 0.10742,0.29963 1.60571,0.36345 2.29722,1.1102 1.99002,-0.50221 4.69467,-1.77758 3.20206,-3.0829 1.64615,-1.06722 2.55579,-0.78289 0.10249,-0.023 0.127,-0.0192 0.31518,-0.0243 0.14066,-0.0126 0.20763,-0.0118 0.13471,-0.0234 0.46607,-0.11412 0.30684,-0.0914 0.20257,-0.0738 0.55795,-0.1912 1.86629,-1.5261 3.15783,-0.96423 0.22621,0.56818 1.06129,3.02173 0.31316,0.30127 0.36547,-0.0861 -0.20877,-0.4993 0.37407,-0.52521 4.21912,-1.50651 5.18475,-1.29988 5.72411,-3.92556 1.61216,-0.79628 2.02413,-0.51232 0.63086,-0.0912 -0.4418,-0.66372 -0.3833,-0.28662 -10.29569,-3.43282 -12.28659,4.47591 -5.24074,-28.11153 -0.51573,-1.39314 -16.37744,-26.5268 -16.8463,-27.25054 z"
     style="display:inline;fill:#000000;fill-opacity:1;fill-rule:evenodd;stroke:#232323;stroke-width:0.982677;stroke-linecap:square;stroke-linejoin:bevel;stroke-miterlimit:10;stroke-dasharray:none;stroke-opacity:1"
     id="path84" />
</svg>
