<?xml version="1.0" encoding="UTF-8" standalone="no"?>
<!-- Created with Inkscape (http://www.inkscape.org/) -->

<svg
   width="192.61021mm"
   height="206.54167mm"
   viewBox="0 0 192.61021 206.54167"
   version="1.1"
   id="svg9277"
   inkscape:version="1.2.2 (b0a8486541, 2022-12-01)"
   sodipodi:docname="Caucaia-CE.svg"
   xmlns:inkscape="http://www.inkscape.org/namespaces/inkscape"
   xmlns:sodipodi="http://sodipodi.sourceforge.net/DTD/sodipodi-0.dtd"
   xmlns="http://www.w3.org/2000/svg"
   xmlns:svg="http://www.w3.org/2000/svg">
  <sodipodi:namedview
     id="namedview9279"
     pagecolor="#ffffff"
     bordercolor="#000000"
     borderopacity="0.25"
     inkscape:showpageshadow="2"
     inkscape:pageopacity="0.0"
     inkscape:pagecheckerboard="0"
     inkscape:deskcolor="#d1d1d1"
     inkscape:document-units="mm"
     showgrid="false"
     inkscape:zoom="0.4187009"
     inkscape:cx="373.77517"
     inkscape:cy="379.74602"
     inkscape:window-width="780"
     inkscape:window-height="679"
     inkscape:window-x="26"
     inkscape:window-y="23"
     inkscape:window-maximized="0"
     inkscape:current-layer="svg9277" />
  <defs
     id="defs9274" />
  <path
     style="fill:#000000;stroke:none;stroke-width:0.264583"
     d="m 34.389399,66.974692 c 2.018506,0.579967 4.092046,-0.699293 6.085417,0.171715 2.599796,1.136121 4.09231,3.815556 5.373423,6.178285 1.899179,3.503348 4.363772,6.690254 4.123002,10.847917 -0.115094,1.985169 -1.582209,2.761456 -2.556934,4.278312 -0.798512,1.242748 -0.766233,3.113088 -0.197114,4.442619 0.762529,1.78091 2.597943,2.237052 4.105539,3.173148 2.084917,1.294871 4.803511,3.516048 6.163998,5.568422 1.64809,2.48655 0.08625,5.95577 0.573352,8.73125 0.632619,3.60601 3.050911,6.34629 4.030927,9.78958 1.064948,3.74148 -1.449916,6.71433 -2.484173,10.06449 -0.3429,1.11125 -0.102393,2.04099 -0.102923,3.16468 -2.64e-4,1.14829 -0.241829,2.28282 -0.243681,3.43958 -0.0019,1.20095 -0.723371,5.00619 0.589756,5.48244 0.54954,0.19949 1.216555,0.23468 1.791494,0.33734 0.436033,0.0781 0.876829,0.16933 1.322652,0.13335 3.101711,-0.25109 2.285206,-4.00632 3.259402,-5.94916 0.428361,-0.85407 1.250686,-1.26894 1.865048,-1.95527 1.111515,-1.24222 1.768475,-2.35585 3.342481,-3.12314 2.26404,-1.10358 4.963319,-0.74639 7.408334,-0.74639 1.109133,0 2.410618,0.16351 3.435614,-0.34872 2.902479,-1.45045 2.905919,-5.62981 5.323417,-7.43956 2.102908,-1.57427 5.003006,0.0987 7.080779,-1.82668 2.071952,-1.92035 2.124869,-5.84517 3.047206,-8.37671 1.763713,-4.84214 5.314685,-9.14373 7.621855,-13.758331 0.71464,-1.429279 2.29393,-4.131998 1.95738,-5.780617 -0.21881,-1.071827 -1.77667,-0.619919 -2.53709,-0.54954 -2.55693,0.236538 -5.108305,0.638969 -7.672912,0.763588 -2.832364,0.137848 -5.622131,0.274902 -8.466666,0.274902 -1.401234,0 -2.86729,0.124619 -4.233333,-0.245269 -1.92114,-0.520435 -3.931444,-1.811337 -5.55625,-2.94005 -1.904471,-1.323445 -3.595952,-3.025245 -4.339432,-5.281347 -0.384439,-1.166284 -0.06535,-2.288646 -0.316441,-3.439584 -0.18759,-0.859631 -0.792692,-1.541727 -1.030288,-2.38125 -0.264054,-0.93345 -0.08705,-1.954212 -0.211137,-2.910416 -0.294746,-2.269067 -0.857779,-5.173134 -0.02857,-7.408069 0.550862,-1.484313 2.310871,-1.898915 2.802731,-3.441171 0.384175,-1.204648 0.01323,-2.511954 0.44794,-3.702844 0.581554,-1.593585 1.732491,-3.948377 2.785797,-5.281347 0.627857,-0.79428 1.485636,-1.371071 2.147888,-2.137305 1.362339,-1.576652 2.835804,-3.465777 4.620683,-4.592637 1.448329,-0.914135 2.977092,-0.0545 4.497917,-0.0085 0.903816,0.02725 1.730375,-0.416189 2.645833,-0.387085 1.344877,0.0426 2.514071,0.416983 3.599921,-0.661988 1.276614,-1.268412 1.627452,-3.608916 2.456127,-5.187421 0.37809,-0.72046 0.991394,-1.501245 0.991923,-2.353468 5.29e-4,-0.981604 -1.090348,-1.301486 -1.756569,-1.783821 -1.237461,-0.896405 -2.411153,-2.155557 -2.033063,-3.800207 0.200554,-0.873125 0.870479,-1.529027 1.135327,-2.38125 0.541337,-1.741487 0.423069,-3.685646 1.384829,-5.291667 0.829998,-1.386416 2.515925,-2.454539 3.056735,-3.96875 0.3339,-0.935037 -0.0815,-1.949185 0.1987,-2.910416 0.44529,-1.526964 1.76662,-2.801647 1.44224,-4.497917 -0.4609,-2.409507 -2.73579,-3.903715 -4.277517,-5.57993 C 96.91388,9.0540681 95.324263,6.2753341 93.431434,3.7431391 92.757011,2.8406461 91.146492,5.2910949e-4 89.924382,1.0948516e-7 88.850967,-4.4989051e-4 87.67119,1.3863901 86.889082,2.0207021 c -2.624138,2.12852 -5.6515,4.38957 -7.773458,7.033921 -1.205177,1.5018019 -1.792552,3.5062849 -2.512484,5.2679869 -1.090348,2.667873 -2.374106,5.300318 -3.547798,7.9375 -4.316677,9.699889 -8.557947,19.427295 -12.920397,29.104166 l -3.411009,7.672917 c -0.534723,1.194329 -0.946414,2.683668 -1.801283,3.688556 -1.52691,1.794668 -3.326077,0.1143 -4.922837,-0.709877 -3.279511,-1.69254 -6.492875,-3.502025 -9.789584,-5.160963 -0.966522,-0.486304 -2.544233,-1.753658 -3.675327,-1.225021 -0.695325,0.324909 -1.000654,1.092994 -0.918633,1.819805 0.239977,2.126985 1.160463,4.121679 0.674688,6.349999 -0.263525,1.208088 -1.343555,2.097617 -1.901561,3.175 z"
     id="path30"
     inkscape:label="Catuana" />
  <path
     style="fill:#000000;stroke:none;stroke-width:0.264583"
     d="m 104.34364,20.165403 c -1.6457,0.915194 -0.28919,3.601509 -1.12474,5.004065 -0.82894,1.390915 -2.28547,2.289969 -3.1197,3.705225 -0.977902,1.658937 -0.827354,3.279246 -1.363929,5.027083 -0.276225,0.899584 -1.014412,1.678782 -1.043516,2.645834 -0.07329,2.449247 3.164415,2.364052 3.938055,4.244975 0.53076,1.289843 -0.50482,2.387335 -1.11389,3.427941 -0.783434,1.338263 -1.165228,2.870994 -1.915586,4.233333 -0.854869,1.551517 -2.028561,2.887927 -3.885936,3.085042 -0.607218,0.06429 -1.20597,-0.120121 -1.807104,-0.05715 -0.864658,0.09022 -1.510241,0.674423 -2.426493,0.615685 -1.285082,-0.08255 -2.584715,-1.112308 -3.89308,-0.573352 -1.515004,0.624417 -2.943225,2.551906 -3.925887,3.812911 -1.823773,2.340768 -3.994679,4.771231 -4.959615,7.668947 -0.402166,1.207294 -0.08096,2.493963 -0.578114,3.703902 -0.59399,1.445684 -2.499519,1.952096 -2.743465,3.444611 -0.460639,2.820723 -0.297391,6.198129 0.329671,8.991071 0.168011,0.748506 0.624152,1.380331 0.822325,2.116666 0.353748,1.316302 0.0217,2.655359 0.520171,3.96875 1.272117,3.353594 5.178954,6.084358 8.607425,7.011988 1.308364,0.353748 2.887398,0.131762 4.233333,0.131762 2.661179,0 5.290873,0.03228 7.9375,-0.219604 2.114021,-0.201348 4.233065,-0.303742 6.349995,-0.530225 0.87022,-0.09313 2.03783,-0.01111 2.82231,-0.457729 1.04987,-0.597694 0.0979,-1.945217 -0.39317,-2.572015 -1.01758,-1.299369 -2.57942,-2.884487 -3.10779,-4.468548 -0.69453,-2.082535 -0.064,-4.705879 0.1905,-6.833129 0.16695,-1.394354 0.12938,-2.930525 0.72734,-4.223014 1.10172,-2.380721 2.67573,-4.753769 3.97377,-7.041886 0.7284,-1.283758 1.728,-2.613818 2.01322,-4.081991 0.2368,-1.219465 0.0516,-2.473061 0.1688,-3.703108 0.50112,-5.266002 0.68501,-10.602913 0.74772,-15.875 0.0304,-2.555081 -0.2802,-5.146675 -0.0439,-7.672917 0.16324,-1.743075 0.045,-3.541712 0.045,-5.291666 0,-1.380596 0.11297,-2.900892 -0.49054,-4.188355 -0.42863,-0.9144 -1.30387,-1.663964 -1.9558,-2.422525 -0.67522,-0.785812 -2.24155,-3.347032 -3.53483,-2.627577 z"
     id="path570"
     inkscape:label="Guararú" />
  <path
     style="fill:#000000;stroke:none;stroke-width:0.264583"
     d="m 111.91231,27.287193 c 0,7.02019 0.37889,14.158383 -0.0114,21.166666 -0.0556,0.995628 -0.45085,1.91479 -0.50641,2.910417 -0.15081,2.710392 -0.24262,5.507831 -0.32517,8.202083 -0.0296,0.969169 0.41328,1.915054 0.23733,2.886869 -0.21616,1.191948 -1.22237,2.423583 -1.81531,3.463131 -1.05119,1.842294 -2.03967,3.716602 -3.09562,5.55625 -0.6858,1.194594 -1.56316,2.366433 -1.9476,3.704167 -0.32094,1.116806 -0.17092,2.294466 -0.21907,3.439583 -0.0683,1.618192 -0.40138,3.756554 0.25849,5.291667 0.42201,0.981339 1.26021,1.803135 1.89892,2.645833 0.89376,1.179248 1.50283,2.500048 2.345,3.704166 0.50271,0.718344 1.18613,1.334294 1.5912,2.116667 1.0713,2.070894 0.82736,4.4323 2.29897,6.35 3.52531,4.595018 7.8232,8.599228 11.61389,12.964588 1.25359,1.44383 2.56487,2.83474 3.85762,4.24365 0.61066,0.66569 1.23137,1.60337 2.09894,1.9468 0.85064,0.33655 1.98967,0.15955 2.88687,0.15955 2.05343,0 4.04389,-0.10108 6.08542,-0.24078 5.27553,-0.36142 10.61561,0.14314 15.875,-0.47757 3.8182,-0.45032 7.79939,-0.0532 11.64167,-0.31618 2.14577,-0.1471 4.40742,0.0942 4.49791,-2.66964 0.78423,-0.25612 0.92684,-0.51171 1.05834,-1.32292 1.42451,-0.44582 2.29129,-2.6625 2.91041,-3.96875 -3.35941,0 -6.71248,-0.24818 -10.05416,-0.26432 -1.50284,-0.007 -3.84123,0.44556 -5.23532,-0.1598 -0.7657,-0.33259 -1.13956,-1.27874 -1.53246,-1.95713 -0.89667,-1.54649 -2.80167,-3.79809 -1.70207,-5.72029 0.62918,-1.099608 2.38919,-1.767152 3.44276,-2.368814 2.9292,-1.672167 6.03568,-2.906184 8.99584,-4.475692 2.24578,-1.190889 4.31667,-2.775214 6.61458,-3.862652 3.32211,-1.572154 7.47315,-2.091002 11.1125,-2.093383 -0.0751,-2.359554 -1.98702,-5.118894 -3.96875,-6.351323 -1.40335,-0.87286 -3.5642,-1.489604 -4.49051,-2.988204 -0.6387,-1.032933 0.14817,-2.528888 0.25718,-3.625056 -1.48643,-0.865188 -1.58301,-2.926027 -1.5875,-4.497917 1.83038,0 3.73935,0.213519 5.55624,0.103452 1.07236,-0.06509 2.08889,-0.378619 3.175,-0.363273 1.00172,0.01429 1.92485,0.417248 2.91042,0.450586 1.60205,0.0545 3.25014,-1.229784 3.96875,-2.572015 -1.86452,-0.508794 -3.66845,-1.20306 -5.55625,-1.65391 -0.78396,-0.187061 -1.60946,-0.141023 -2.38125,-0.369623 -0.72866,-0.2159 -1.35863,-0.682625 -2.11667,-0.810419 -0.88,-0.148167 -1.76,0.16801 -2.64583,0.102129 -2.55878,-0.189706 -4.89796,-1.063096 -7.40833,-1.411816 -1.2319,-0.170921 -2.45666,0.275431 -3.70417,0.126206 -1.82959,-0.219075 -3.66606,-1.241425 -5.29166,-2.060046 -6.22512,-3.134783 -11.62394,-7.982215 -16.39385,-12.972521 -2.08254,-2.178843 -3.74703,-4.982104 -6.10632,-6.868583 -2.34606,-1.875631 -5.22288,-2.999581 -7.92692,-4.216664 -1.67507,-0.754063 -3.08557,-1.979084 -4.7625,-2.704836 -3.19114,-1.381389 -6.58521,-2.284677 -9.78958,-3.660245 -2.45454,-1.0541 -4.22407,-3.319463 -6.61459,-4.510088 z"
     id="path820"
     inkscape:label="(Centro de) Caucaia" />
  <path
     style="fill:#000000;stroke:none;stroke-width:0.264583"
     d="m 29.891483,62.350305 c -4.401609,0.87921 -6.874669,5.712619 -9.335956,9.145852 -0.906939,1.265237 -2.325687,2.607998 -2.534973,4.209785 -0.104695,0.801159 -0.266091,2.323571 0.388911,2.927879 1.078415,0.994834 2.770346,0.834232 3.153463,2.628371 0.242358,1.134534 -0.648494,1.769269 -1.116409,2.669646 -0.435187,0.837142 -0.726043,2.232025 -0.839682,3.175 -0.235347,1.952625 0.262573,3.864769 0.215979,5.797021 -0.03045,1.263385 -0.543533,2.425171 -0.503237,3.704166 0.05913,1.87669 0.542078,3.720835 -0.243972,5.544605 -0.781553,1.81346 -3.121607,2.08201 -4.794541,2.47227 -1.941142,0.45297 -4.3035012,1.63698 -5.3966008,3.36047 -1.3246364,2.08862 0.9169136,4.3397 1.3235248,6.34974 0.39587,1.95712 -1.424675,3.17817 -1.4276383,5.02708 -0.00233,1.44807 1.4417673,2.77813 0.9515475,4.23307 -0.9188979,2.72759 -4.7574464,4.02987 -6.800162,5.68828 -0.8955357,0.72707 -1.2380917,1.81795 -1.8153327,2.77468 -0.47460999,0.78687 -1.07365299,1.43087 -1.08487099,2.39554 -0.02733,2.35003 -0.283475,4.8469 1.29659099,6.80033 1.479576,1.82906 3.9960016,2.77389 4.9603285,5.09534 0.5110427,1.23031 -0.7820025,1.97617 -0.6508486,3.17924 0.348033,3.19219 3.0056402,5.51629 3.9330312,8.46666 0.3559969,1.13242 -0.4143904,2.88978 0.2237317,3.82879 0.7594867,1.11786 2.6238727,0.35745 3.6441587,1.08929 1.915795,1.37451 2.190512,3.8092 5.075873,3.49488 4.236244,-0.4617 6.86779,-5.93566 8.251825,-9.47526 0.568061,-1.45256 0.78449,-3.33825 2.082271,-4.34631 1.302808,-1.0123 3.087688,-0.60987 4.482571,-1.56157 1.791494,-1.22264 3.365235,-2.82125 5.027083,-4.21137 3.624792,-3.03266 7.217304,-6.10448 10.847917,-9.12999 5.009356,-4.17486 10.850033,-8.07455 11.595629,-15.1466 0.401373,-3.80629 -3.3528,-7.15195 -3.9878,-10.84791 -0.272521,-1.58592 -0.551127,-3.14564 -0.440267,-4.7625 0.0926,-1.35388 0.580496,-2.93 -0.02064,-4.23228 -0.49583,-1.07368 -1.505744,-1.74704 -2.361671,-2.50402 -1.22899,-1.086375 -2.271713,-2.298432 -3.726921,-3.107263 -1.665552,-0.925512 -3.597804,-1.453621 -4.349221,-3.385873 -0.63156,-1.624806 -1.029758,-3.69861 -0.124883,-5.291402 0.913342,-1.608137 2.46671,-2.550319 2.799556,-4.497916 0.31459,-1.8415 -0.578115,-3.465778 -1.41896,-5.027084 -1.647561,-3.059377 -3.164682,-7.214393 -5.90259,-9.435041 -1.189302,-0.964671 -2.468827,-1.263386 -3.968485,-1.03214 -1.432719,0.220927 -3.338513,0.888471 -4.609836,-0.176477 -2.052902,-1.720056 3.953934,-4.045479 0.371475,-5.403585 -0.427566,-0.16219 -0.873918,-0.310092 -1.317889,-0.420159 -0.624152,-0.154781 -1.2192,-0.189706 -1.852083,-0.06323 z"
     id="path1886"
     inkscape:label="Sítios Novos" />
  <path
     style="fill:#000000;stroke:none;stroke-width:0.264583"
     d="m 188.64148,89.728859 c -4.50215,0 -9.34402,0.63791 -13.22916,3.034241 -4.00712,2.471209 -8.28517,4.344459 -12.43542,6.548967 -1.15147,0.611717 -4.014,1.609993 -4.47516,2.942163 -0.15796,0.45588 0.055,0.84402 0.27463,1.23402 0.54981,0.97578 1.40335,3.0525 2.45163,3.54357 1.20941,0.5662 3.34301,0.15901 4.65932,0.15954 3.34248,10e-4 6.98182,0.82179 10.30843,0.20426 1.74916,-0.32465 2.51036,-2.2561 3.26601,-3.64384 1.29038,-2.37041 2.06455,-5.29855 3.75021,-7.408073 1.95633,-2.448455 4.92495,-3.2004 5.42951,-6.614848 z"
     id="path2908"
     inkscape:label="Jurema" />
  <path
     style="fill:#000000;stroke:none;stroke-width:0.264583"
     d="m 99.212315,169.63303 c 1.352025,0.21114 2.230175,0.96044 3.439585,1.51791 1.42134,0.65511 3.48562,0.4109 4.53654,1.71741 1.96877,2.4474 -0.89376,4.65932 -1.79837,6.81885 -1.04907,2.50428 -0.99854,4.78975 -0.88609,7.40833 3.49488,-0.51038 5.92058,-4.30742 7.87532,-6.87917 0.61119,-0.80433 1.12713,-1.88992 1.96295,-2.48602 1.36684,-0.9742 3.29353,0.18494 4.44923,0.98636 0.63871,0.44292 1.28694,1.03876 2.11164,0.68316 2.17514,-0.93821 1.30149,-3.76767 1.66635,-5.5335 0.27649,-1.33879 1.46844,-2.20583 1.98252,-3.43958 0.38629,-0.92763 0.13388,-2.01665 0.5969,-2.9001 0.6948,-1.32556 2.30981,-1.86055 3.05726,-3.18929 1.63962,-2.91359 2.02221,-6.67729 4.40002,-9.21146 1.05516,-1.12475 2.51487,-2.40295 3.9124,-3.07049 0.86545,-0.41355 2.25927,-0.4109 2.56063,-1.5076 0.3945,-1.43642 -0.45085,-3.04694 -0.56329,-4.46273 -0.0717,-0.90037 0.35427,-1.74704 0.33231,-2.64583 -0.0233,-0.94456 -0.53102,-1.76239 -0.80195,-2.64583 -0.41037,-1.33854 -0.36936,-2.78078 -1.211,-3.95844 -1.25624,-1.75736 -2.63101,-1.41896 -4.28413,-2.34368 -1.68487,-0.94218 -2.58101,-2.82522 -4.01532,-4.06347 -0.99589,-0.86016 -2.39818,-1.27608 -3.17129,-2.38046 -0.99854,-1.42716 -1.59015,-4.49447 -0.59267,-6.03541 0.7702,-1.18956 3.54542,-2.22408 2.73976,-3.9624 -0.87762,-1.89362 -3.2893,-3.52557 -4.6392,-5.11677 -2.63578,-3.10674 -5.43455,-6.09838 -8.13171,-9.15829 -1.3589,-1.54173 -2.97736,-3.0271 -4.06135,-4.785255 -0.75116,-1.21867 -0.86096,-2.669381 -1.41288,-3.96875 -1.41975,0.77523 -1.69122,2.815432 -2.29447,4.233334 -0.3937,0.925251 -1.01494,1.750221 -1.47399,2.645831 -1.89203,3.69253 -4.45426,7.04612 -6.149445,10.84792 -1.172897,2.63022 -1.110985,5.84808 -2.668058,8.31427 -1.013089,1.60469 -2.738437,2.70642 -4.611952,2.98317 -1.251744,0.18495 -3.053556,-0.28919 -4.017698,0.7448 -2.072481,2.2225 -2.642658,6.26137 -5.77215,7.53454 -1.36816,0.55642 -2.824427,0.0497 -4.233068,0.13838 -2.955396,0.18574 -9.459384,-0.28813 -7.877969,4.62651 0.86016,2.67387 3.361267,3.54991 5.128948,5.36522 0.812006,0.8337 1.011237,2.40903 2.247635,2.75273 1.791229,0.49794 3.322638,-0.88239 4.999302,-0.59373 1.205442,0.20717 1.97485,1.42584 3.164681,1.58353 1.25783,0.16669 2.061105,-1.37319 3.421327,-0.63262 1.648884,0.89747 1.677194,3.68538 2.015596,5.2832 0.169334,0.79984 0.42889,1.5502 0.334963,2.38125 -0.116152,1.03056 -0.732102,2.08545 -0.310092,3.12976 0.737923,1.82642 3.274219,1.9775 4.522523,3.30729 0.795337,0.8472 0.804069,2.05819 1.230577,3.08795 0.569119,1.37451 1.737254,2.55852 2.153444,3.96875 0.268023,0.90832 0.135731,1.973 0.135731,2.91042 z"
     id="path3228"
     inkscape:label="Tucunduba" />
  <path
     style="fill:#000000;stroke:none;stroke-width:0.264583"
     d="m 167.47482,118.83303 c -2.64372,0 -5.31337,-0.31221 -7.9375,-0.26062 -1.94258,0.0384 -3.88038,0.42968 -5.82084,0.51488 -2.43919,0.10663 -4.97946,0.254 -7.40833,0.254 -1.15491,0 -2.27409,-0.28231 -3.43958,-0.23336 -1.67693,0.0709 -3.35095,0.37729 -5.02709,0.46355 -3.90049,0.20029 -8.81009,-0.90064 -11.48212,2.99032 -1.65682,2.413 0.76729,4.84902 2.48497,6.11611 1.3925,1.02711 2.07089,2.69531 3.46445,3.68749 0.98557,0.70168 2.12646,0.50271 3.14113,1.02579 1.55417,0.80143 3.42398,3.06229 3.83805,4.75642 0.17013,0.69665 0.11298,1.42452 0.30956,2.11667 0.28231,0.99351 0.93663,1.86267 1.04352,2.91042 0.10133,0.99192 -0.38338,1.92246 -0.36962,2.91015 0.01,0.67945 0.22542,1.63909 1.04484,1.72905 1.10357,0.12118 2.02247,-1.20068 2.54476,-1.99337 1.69968,-2.58022 1.54966,-5.49275 4.30027,-7.50518 2.62229,-1.91849 5.24854,-1.32106 8.20103,-1.54992 1.78435,-0.13812 3.5634,-1.01098 5.29166,-1.43854 1.397,-0.34555 3.3192,-0.69665 4.34869,-1.80896 1.09326,-1.18163 0.30269,-2.72944 0.64453,-4.07802 0.33734,-1.33086 1.33085,-1.93384 0.92445,-3.46313 -0.35877,-1.34911 -1.69386,-2.64372 -1.82695,-3.96875 -0.13176,-1.31551 1.34647,-2.05582 1.73012,-3.175 z"
     id="path3972"
     inkscape:label="Mirambê" />
  <path
     style="fill:#000000;stroke:none;stroke-width:0.264583"
     d="m 67.462315,137.35386 c -0.460639,2.47967 -0.69162,5.94995 -3.705225,6.76461 -0.86942,0.23495 -1.774825,0.0286 -2.644775,-0.0743 -0.67892,-0.0804 -1.460235,0.0185 -2.105024,-0.23522 -2.27383,-0.89535 -1.368425,-5.88672 -1.145382,-7.77796 0.08705,-0.73819 0.388673,-2.77601 -0.756443,-2.86993 -1.063625,-0.0873 -2.166673,1.34884 -2.876286,1.96479 -2.522537,2.19075 -5.301456,4.15105 -7.713927,6.45187 -2.370137,2.26113 -5.045869,4.18121 -7.553325,6.28174 -1.722966,1.4433 -3.301471,3.08583 -5.101696,4.43574 -1.26656,0.94985 -3.591983,0.7575 -4.535752,1.87907 -0.695854,0.82709 -0.76491,2.30267 -1.227402,3.28798 -1.116806,2.38019 -2.496608,4.77096 -4.067175,6.8781 -0.781579,1.04828 -1.683279,2.16668 -2.87364,2.7649 -0.84582,0.42519 -2.636308,0.49292 -2.983812,1.52982 -0.249528,0.74427 0.30607,1.55707 0.257837,2.32093 -0.07874,1.24724 -1.219094,2.16614 -1.153663,3.43852 0.05456,1.06151 0.9094,1.91267 1.581785,2.65351 1.427374,1.57242 3.012228,3.0017 4.403937,4.57755 0.8636,0.97764 1.07659,2.36617 2.159,3.1676 0.885031,0.6551 2.117196,0.90064 3.147219,1.24407 l 6.35,2.11666 c 5.127889,1.71715 10.214768,3.6277 15.345833,5.33824 2.708804,0.90302 5.594614,1.53643 8.191764,2.7641 3.036094,1.43563 5.648325,5.12551 7.9375,7.50781 0.940594,0.97923 2.169054,2.82179 3.714486,2.77681 1.738841,-0.0508 3.769254,-2.50349 5.027083,-3.54886 2.620433,-2.17779 5.310981,-4.26852 7.9375,-6.43758 1.348052,-1.11336 2.847975,-2.77309 4.497916,-3.41021 1.423988,-0.54981 2.924175,0.56356 4.233334,1.02235 2.100262,0.73554 4.922837,1.38747 7.132373,0.7149 1.502565,-0.4572 1.835675,-2.3114 2.464855,-3.55256 0.53181,-1.04881 1.30175,-1.97935 1.46526,-3.175 0.19024,-1.39223 -0.47492,-2.64689 -0.37253,-3.96875 0.11748,-1.51632 1.06151,-3.53906 1.52612,-5.02708 0.48789,-1.56342 2.62308,-2.96254 2.24049,-4.73393 -0.28284,-1.30942 -2.04788,-1.2819 -3.07552,-1.51817 -1.18374,-0.272 -2.10132,-1.0676 -3.17923,-1.58936 -0.683947,-0.33126 -1.48881,-0.52414 -2.076979,-1.02473 -1.204648,-1.02526 -0.210079,-2.04893 -0.443971,-3.30464 -0.252941,-1.35917 -1.3716,-2.48259 -1.953947,-3.70417 -0.381794,-0.80116 -0.407194,-1.79943 -0.896673,-2.54159 -0.458523,-0.69532 -1.328473,-0.90064 -2.03544,-1.24804 -1.110721,-0.54557 -2.277798,-1.42213 -2.828131,-2.56434 -0.525992,-1.09114 -0.08308,-2.06745 0.09525,-3.17103 0.245004,-1.51448 -0.06853,-3.02604 -0.411692,-4.49765 -0.11721,-0.50245 -0.178329,-1.25651 -0.557477,-1.64439 -0.712258,-0.72787 -2.262981,0.37783 -3.178175,0.25691 -1.405996,-0.186 -2.299229,-1.56898 -3.704166,-1.70286 -1.877484,-0.17912 -3.877205,1.5285 -5.785644,0.43683 -0.950119,-0.54345 -1.148292,-1.79678 -1.791494,-2.61064 -0.692414,-0.8763 -1.769269,-1.279 -2.555346,-2.05608 -1.384564,-1.36922 -2.416175,-4.26032 -4.4196,-4.58629 z"
     id="path4992"
     inkscape:label="Bom Princípio" />
</svg>
