<?xml version="1.0" encoding="UTF-8" standalone="no"?>
<svg
   width="136.31847mm"
   height="84.139893mm"
   viewBox="0 0 136.31847 84.139893"
   version="1.1"
   id="svg5"
   xml:space="preserve"
   xmlns="http://www.w3.org/2000/svg"
   xmlns:svg="http://www.w3.org/2000/svg"><defs
     id="defs2" /><path
     id="zona_rural"
     style="display:inline;fill:#000000;stroke:none;stroke-width:0;stroke-linecap:square;stroke-linejoin:bevel;stroke-miterlimit:10;paint-order:stroke fill markers;stop-color:#000000"
     d="m 88.390988,10.39627 -0.169499,0.46405 -0.50953,0.41445 0.105937,0.65267 -0.429948,0.90072 -1.299145,0.14624 -0.447001,-0.99012 -0.978752,0.4005 -0.670243,-0.22996 0.279569,-1.16531 -0.997872,0.60978 -0.989604,-0.5519 -0.18035,1.28778 -0.82889,0.34365 -1.274858,0.10335 -0.573091,-0.91933 -0.236162,0.40256 -0.755509,-0.27647 -0.227893,0.74983 -0.870231,0.85369 -1.346171,-0.34571 -0.08165,-0.0279 0.144177,0.41807 -1.021643,0.41754 0.366386,0.80047 -0.851628,1.96887 0.02997,0.78962 -1.955953,1.61747 1.689302,-0.55087 0.654224,0.34778 0.487309,-0.53743 -0.260966,-0.55604 0.644405,-1.12035 0.427364,-0.53226 1.5875,0.56017 0.890902,1.51205 -0.0088,0.64182 h 0.835607 l 0.371037,-0.84181 1.025261,-2.4908 1.781803,-0.54984 1.920296,0.56638 3.50728,0.54312 0.790649,1.05626 -1.266072,3.56206 -1.4087,0.19223 0.07493,0.3328 -0.507463,1.09554 -0.813387,-0.0935 -0.05581,0.75396 0.178283,0.40669 -1.726509,0.95291 -0.350366,0.8568 -0.352434,-0.13643 -0.226343,0.42633 0.680062,0.2775 -1.168404,0.87282 -0.507979,-0.14521 -0.930176,0.83406 0.710551,-0.0853 0.327629,0.5364 0.468705,-0.48886 0.614949,0.31523 -0.152962,0.74207 0.42478,0.6072 0.956531,-0.31368 0.545703,0.51884 -0.100769,0.48989 -1.070219,0.0863 1.689303,1.73581 -0.334347,0.65164 1.735812,-0.5302 1.363224,0.97823 0.45992,0.8692 1.159619,-0.67696 0.13746,2.05569 -1.354956,0.83509 -0.08372,0.85938 -0.801502,0.52348 0.126091,0.52917 -0.841292,0.76326 -0.289388,-0.29559 -0.253732,0.41496 0.316777,0.21394 -0.188102,0.8692 0.53175,0.23719 0.03617,-1.20096 1.571997,-0.64388 0.243396,-0.72141 2.111496,-2.16472 0.97462,-2.23242 1.05213,-2.06448 2.40864,0.25425 0.51315,2.09755 -0.0522,0.71933 -0.84129,1.06144 -2.27325,1.25057 3.4029,-1.11208 2.13165,1.04283 -0.5271,-1.4211 -0.71572,-0.64027 0.061,-1.41542 1.02113,-2.312 1.39371,-0.0341 2.069117,-1.94665 2.08463,-1.46089 0.86145,0.46043 3.31039,-0.7953 1.66501,1.14308 -0.015,1.35858 0.50488,-0.24702 0.88211,0.28216 1.26039,1.8464 -0.91829,0.89607 -0.83561,0.35088 -1.13326,-0.37724 -1.03353,0.93741 -0.67903,-0.008 -1.89291,1.85828 -0.89917,0.88522 0.53951,0.61443 0.70383,1.61799 1.91203,1.09141 0.0951,0.57826 0.64441,-0.16175 0.96015,0.90537 2.7683,0.28474 2.78691,1.26814 0.27492,-0.0501 1.4211,0.94775 -0.38395,0.77101 -1.18753,0.0982 -0.16019,0.51469 1.35237,1.07642 -0.185,1.80144 0.9002,0.66301 -1.40973,2.49804 0.14934,0.64027 -0.0155,1.53376 -1.48622,0.90072 -1.58646,0.91674 -0.35399,-0.49609 -0.52451,0.25114 -0.092,1.20458 0.64028,-0.24856 0.90795,-0.72399 0.51573,0.17105 0.22841,-0.0889 1.70326,0.60771 -0.70694,-1.38338 0.88005,-0.40824 1.32395,0.14056 -0.25838,-0.44907 -0.39843,-0.45734 0.0636,-0.12402 -0.003,-0.004 0.0424,-0.96842 0.97151,-0.0915 -0.60823,-0.32452 0.06,-1.11467 1.25884,-1.4211 0.0517,0.0243 0.009,-0.0103 0.11989,0.0703 0.64596,0.30127 0.65474,-0.0496 0.0403,-0.076 0.14107,0.0625 0.12816,-0.01 0.25632,0.17983 0.81907,0.36173 -0.60513,-0.68471 0.006,-0.0677 -0.0419,-0.0486 -0.01,-0.67231 -0.38343,0.0946 -0.31213,0.14417 -0.0579,-0.0527 -0.1757,0.0434 -1.09502,-1.10277 0.39326,-0.46096 1.21077,-1.63039 1.69499,-0.19275 0.47387,-0.10025 1.27383,-0.97462 0.53795,0.0997 0.31419,-0.22169 0.13385,0.30541 h 0.002 l 5.1e-4,0.004 0.60823,1.38544 0.16433,0.12764 0.44132,-0.49041 0.30851,-0.44028 0.0801,0.009 0.35295,-0.39171 0.81132,1.25315 0.1943,0.12454 1.35547,0.73691 0.0966,0.19327 0.24495,0.15658 0.0992,0.42168 1.61903,0.9617 -0.0708,0.10955 0.44804,0.25942 -0.72813,0.67076 0.11679,1.20561 0.83561,0.89297 0.46199,1.20147 0.61081,0.863 0.90899,0.93586 0.22324,1.59163 0.3297,0.1416 0.29921,0.0114 0.0532,-0.13075 -0.0718,-1.33376 0.094,-0.11938 -0.0553,-0.21497 0.72605,-0.51005 0.40256,0.33642 0.0196,0.003 -0.74982,-1.80867 -0.57258,-1.11983 -0.30231,-0.0811 -0.27698,0.12713 -1.11621,-0.16743 0.2744,-0.48369 -0.41238,-0.55087 -0.20464,-0.16589 0.003,-0.10335 -0.43253,-0.57722 0.69091,-0.98496 1.16117,0.47129 h 0.23048 l 0.0734,0.12351 0.0971,0.0393 1.8526,3.05718 0.62684,-0.83199 -0.5023,-0.20102 0.093,-0.6072 -0.23874,-0.44752 -0.36639,0.0589 -0.12609,-0.69298 -0.0171,-0.0181 -0.1726,-0.10956 -0.005,-0.0755 -0.0569,-0.0599 0.0444,-0.15813 -0.0791,-1.35237 -1.15239,-0.3545 -0.94877,-0.99374 -1.49139,0.58343 -1.02732,-0.416 -1.03973,-2.31459 0.19585,-1.25625 -0.28215,-1.45108 0.64337,-0.69091 -0.19431,-0.9803 1.08986,-2.80706 -0.40256,-0.41135 0.65526,-2.25723 1.06092,-0.9064 0.61339,-0.66301 -1.39164,-0.47801 -0.48731,0.59997 -1.52187,0.58032 0.31833,0.81959 -1.09244,1.34721 -2.68253,-1.52756 -1.79989,1.06764 -0.55035,-0.0346 -0.12816,-1.58285 -2.31614,-1.40094 -3.51916,0.36793 -1.757,-0.77359 -0.74052,0.23047 -0.41393,-2.06395 0.62063,-0.93793 -0.65371,-0.33848 -0.0284,-1.91461 1.10743,-1.1064 -1.28416,0.16123 -1.01751,-0.83974 0.21291,1.24489 -0.99994,0.61753 -2.5337,-3.21066 -0.61081,-0.0791 0.0791,0.84129 -0.20412,0.67335 -1.53841,-0.092 -0.65577,-0.95343 -1.84175,0.33125 -1.33325,-0.0114 -2.66444,1.25832 -0.14417,0.39481 -0.92243,-0.71004 0.0584,-0.7431 0.42529,-0.20981 0.13849,-0.66249 0.56845,-0.0295 -0.30283,-0.65629 0.76326,-1.21801 -0.9188,0.0879 -0.7829,-0.39998 0.1018,0.83096 -0.734837,0.86351 -0.48731,-0.42529 v 1.07642 l -0.6351,1.45107 -1.45004,0.22531 -3.64319,-1.72858 -0.98444,0.85835 c 0,0 -0.77962,-0.0792 -1.10329,-0.15296 -0.32367,-0.0737 2.33836,-4.40232 2.33836,-4.40232 l -0.49816,-0.42788 0.16226,-1.04541 -0.56637,-0.85318 0.42995,-0.68988 0.98185,0.76946 -0.1788,-0.83251 0.85318,-0.26613 -0.96635,-0.20877 0.12712,-0.60152 -1.51618,-0.58808 -0.0698,-0.87643 -1.09244,-0.31109 0.15503,-0.96273 -0.64492,-0.20102 -0.647503,0.80615 -0.501778,-0.55139 -0.65164,0.24288 0.116789,-1.05006 0.808219,-0.70849 -0.887284,0.10284 z" /><path
     id="ap-10"
     style="display:inline;fill:#000000;stroke:none;stroke-width:0;stroke-linecap:square;stroke-linejoin:bevel;stroke-miterlimit:10;paint-order:stroke fill markers;stop-color:#000000"
     d="m 63.223532,58.49462 -9.069214,3.22203 -0.0052,-0.009 c -0.02753,0.002 -2.31252,0.70641 -2.31252,0.70641 l -19.893876,1.84744 -3.12229,0.44906 -2.652035,-0.0346 -6.056995,0.60772 0.372071,3.87366 1.772501,3.46697 1.105876,1.06919 3.496944,10.44639 0.892969,-0.72347 2.358512,-0.66508 0.505396,0.48215 1.813326,-0.48783 0.422713,-0.44287 2.459282,-1.9699 0.727604,-1.20096 2.159558,-1.85622 1.351855,-1.38958 0.710034,-0.5395 0.272335,-0.88315 0.624252,-0.0475 0.852661,-0.74259 4.130497,-1.17048 0.743624,-3.8225 1.035079,-1.10536 0.689363,-0.0429 1.915129,-1.70842 0.650089,-0.6718 2.537313,-0.709 0.858346,2.81378 c 0,0 4.750703,-3.6742 5.138187,-3.84111 0.237693,-0.10238 2.613354,-1.49207 4.72271,-2.7311 l -0.103353,-0.0336 z" /><path
     id="ap-09"
     style="display:inline;fill:#000000;stroke:none;stroke-width:0;stroke-linecap:square;stroke-linejoin:bevel;stroke-miterlimit:10;paint-order:stroke fill markers;stop-color:#000000"
     d="m 48.253903,50.55351 -2.455664,1.90582 -4.119645,1.04542 -1.840715,2.36729 -4.247803,8.05119 16.246554,-1.50895 c 0,0 2.28499,-0.70442 2.31252,-0.70642 l 0.0052,0.009 z" /><path
     id="ap-08"
     style="display:inline;fill:#000000;stroke:none;stroke-width:0;stroke-linecap:square;stroke-linejoin:bevel;stroke-miterlimit:10;paint-order:stroke fill markers;stop-color:#000000"
     d="m 36.96777,48.39136 -3.948596,1.62523 -1.175122,1.64486 -7.034713,-0.70538 -0.890385,0.23719 0.0016,-0.005 -5.653918,1.15911 0.974617,3.49332 0.754993,0.51883 0.111104,8.92401 0.0047,0.005 -5.17e-4,-0.004 6.056995,-0.60771 2.652035,0.0346 3.12229,-0.44907 3.646805,-0.33848 4.24832,-8.0517 1.845882,-2.37402 -2.280481,-1.711 -0.295589,-0.71882 -0.425297,0.22376 -0.695565,-0.7736 -0.337447,0.39636 -0.492476,-1.04077 z" /><path
     id="ap-07"
     style="display:inline;fill:#000000;stroke:none;stroke-width:0;stroke-linecap:square;stroke-linejoin:bevel;stroke-miterlimit:10;paint-order:stroke fill markers;stop-color:#000000"
     d="m 43.363762,28.54761 -4.152718,2.10685 -0.280603,1.59784 -1.156002,-1.5689 -5.167126,4.00544 0.685746,1.46606 -8.866126,7.04712 -0.0036,-0.003 -1.500684,2.06499 1.951819,1.99522 -0.797367,1.65107 0.415478,0.31522 -0.573608,1.96784 0.890385,-0.23719 7.034713,0.70538 1.175122,-1.64486 3.949629,-1.62574 -0.207222,-2.84789 -0.329179,-0.77205 -0.666626,-0.42788 0.01499,-0.31367 0.344682,0.0238 0.224793,0.19378 1.021126,-0.0222 1.513086,-0.83974 2.499072,-1.99006 1.400948,1.01751 -0.165364,-1.38338 1.62264,-4.63847 -0.709001,-1.89446 0.884184,-1.04232 -0.302307,-0.95549 -0.857829,-0.55242 -0.468705,-0.78807 z m -0.527616,13.902 0.0078,0.006 0.0021,-0.002 z" /><path
     id="ap-06"
     style="display:inline;fill:#000000;stroke:none;stroke-width:0;stroke-linecap:square;stroke-linejoin:bevel;stroke-miterlimit:10;paint-order:stroke fill markers;stop-color:#000000"
     d="M 17.674374,0 14.871961,0.98392 11.916586,1.3131 5.8719934,5.02037 4.1661544,6.34432 3.1538124,7.95921 1.9420004,9.27954 0,14.53348 l 0.8593794,0.67128 1.172538,2.06396 -0.08527,0.8046 1.709973,1.52859 0.780314,0.88108 0.626835,1.08624 0.05581,1.20613 1.177706,0.7431 5.2766806,1.25006 0.433049,-0.75396 4.673099,3.33623 -0.74259,1.33893 4.550627,10.7394 3.938777,3.7729 8.866126,-7.04712 -0.685746,-1.46606 5.167126,-4.00544 1.156002,1.5689 0.280603,-1.59784 4.152718,-2.10685 0.0036,-0.016 1.930115,-1.0051 -0.558105,-2.8944 -0.0078,-5.2e-4 -0.565857,-0.0522 -2.855123,1.72909 -2.802413,-0.31212 -7.60522,-6.03684 -1.804541,-1.96474 -1.542542,-4.91908 -7.750948,-6.83834 -0.971,-1.32964 -0.471806,-4.73097 z" /><path
     id="ap-05"
     style="display:inline;fill:#000000;stroke:none;stroke-width:0;stroke-linecap:square;stroke-linejoin:bevel;stroke-miterlimit:10;paint-order:stroke fill markers;stop-color:#000000"
     d="m 70.825652,36.79569 -13.999146,4.49016 -2.216402,0.0687 -4.350122,-0.80873 -6.371704,2.26033 c 0.107646,-0.0124 1.007173,0.0398 1.007173,0.0398 l 0.849561,0.96996 -0.382406,2.30115 0.453719,0.74931 0.355534,1.79938 2.041219,1.81074 5.94124,11.24014 9.069214,-3.22203 1.102775,2.15594 2.209684,0.71676 10.321334,-2.46187 3.938261,1.95802 2.66392,3.14089 2.430859,1.72496 2.123902,0.52969 1.951302,-2.4474 -0.665593,-0.63355 4.959907,-5.68027 -2.27428,-2.62465 1.24488,-0.48989 -6.769093,-6.76807 -5.031218,-3.07216 0.0057,-0.0109 3.235978,-1.4025 v -5.2e-4 l -3.24528,1.40664 -7.747331,-3.86282 z" /><path
     style="display:inline;fill:#000000;stroke:none;stroke-width:0;stroke-linecap:square;stroke-linejoin:bevel;stroke-miterlimit:10;paint-order:stroke fill markers;stop-color:#000000"
     d="M 70.825652,36.79569 70.742452,36.68252 67.549882,25.84494 65.689013,22.72265 57.269372,12.51448 56.177966,9.23303 55.982112,4.41989 c -0.387687,0.0226 -1.391129,0.28215 -1.391129,0.28215 l -1.599386,1.22577 -1.555977,2.9409 -1.522905,1.81281 -0.545703,0.98599 -1.154968,-0.12971 -1.211296,0.56431 -0.01188,0.95963 0.560689,1.58181 -0.351917,0.82218 0.06356,1.66759 1.610238,2.59778 0.05478,0.60823 0.204639,0.41496 -1.11001,2.38539 -2.32854,1.4242 -0.955497,0.0558 0.560689,2.9068 -1.930115,1.0051 -0.579292,2.6262 0.468705,0.78807 0.857829,0.55242 0.302307,0.95549 -0.884184,1.04232 0.709001,1.89446 -1.62264,4.63847 0.167948,1.40302 1.069702,0.38499 6.403227,-2.27118 4.350122,0.80873 2.216402,-0.0687 z"
     id="ap-04" /><path
     style="display:inline;fill:#000000;stroke:none;stroke-width:0;stroke-linecap:square;stroke-linejoin:bevel;stroke-miterlimit:10;paint-order:stroke fill markers;stop-color:#000000"
     d="m 107.52005,26.6299 -3.31039,0.7953 -0.86145,-0.46043 -2.08463,1.46089 -2.069117,1.94665 -1.39371,0.0341 -1.02113,2.312 -0.061,1.41542 0.71572,0.64027 0.5271,1.4211 -2.13165,-1.04283 -3.4029,1.11208 2.27325,-1.25057 0.84129,-1.06144 0.0522,-0.71933 -0.51315,-2.09755 -2.40864,-0.25425 -1.05213,2.06448 -0.97462,2.23242 -2.111498,2.16472 -0.243396,0.72141 -1.571997,0.64388 -0.03617,1.20096 -0.02067,-0.009 -0.245464,0.32918 -2.685107,1.25574 0.941028,1.64434 -3.235978,1.4025 -0.0057,0.0109 5.031218,3.07217 6.769094,6.76806 -1.24488,0.48989 2.27428,2.62465 -4.959908,5.68027 0.665593,0.63355 -3.745508,4.69739 8.026383,-1.32757 3.98425,-2.08617 1.50947,-4.71496 1.891877,1.62936 2.41897,-1.58595 5.51233,-1.4981 1.42937,-3.17862 0.55603,-0.72295 0.092,-1.202 0.52451,-0.25114 0.35399,0.49609 1.58646,-0.91674 1.48622,-0.90072 0.0155,-1.53376 -0.14934,-0.64027 1.40973,-2.49804 -0.9002,-0.66301 0.185,-1.80144 -1.35237,-1.07642 0.16019,-0.51469 1.18753,-0.0982 0.38395,-0.77101 -1.4211,-0.94775 -0.27492,0.0501 -2.78691,-1.26814 -2.7683,-0.28474 -0.96015,-0.90537 -0.64441,0.16175 -0.0951,-0.57826 -1.91203,-1.09141 -0.70383,-1.61799 -0.53951,-0.61443 0.89917,-0.88522 1.89291,-1.85828 0.67903,0.008 1.03353,-0.93741 1.13326,0.37724 0.83561,-0.35088 0.91829,-0.89607 -1.26039,-1.8464 -0.88211,-0.28216 -0.50488,0.24702 0.015,-1.35858 z"
     id="ap-03" /><path
     id="ap-02"
     style="display:inline;fill:#000000;stroke:none;stroke-width:0;stroke-linecap:square;stroke-linejoin:bevel;stroke-miterlimit:10;paint-order:stroke fill markers;stop-color:#000000"
     d="m 55.971261,4.1522 0.206706,5.08083 1.091406,3.28145 8.419641,10.20817 1.860869,3.12229 3.19257,10.83758 2.936771,3.99045 7.747331,3.86282 3.24528,-1.40664 -0.941028,-1.64434 2.685107,-1.25574 0.245464,-0.32918 -0.51108,-0.22789 0.188102,-0.8692 -0.316777,-0.21394 0.253732,-0.41496 0.289388,0.29559 0.841292,-0.76326 -0.126091,-0.52917 0.801502,-0.52348 0.08372,-0.85938 1.354956,-0.83509 -0.13746,-2.05569 -1.159619,0.67696 -0.45992,-0.8692 -1.363224,-0.97823 -1.735812,0.5302 0.334347,-0.65164 -1.689303,-1.73581 1.070219,-0.0863 0.100769,-0.48989 -0.545703,-0.51884 -0.956531,0.31368 -0.42478,-0.6072 0.152962,-0.74207 -0.614949,-0.31523 -0.468705,0.48886 -0.327629,-0.5364 -0.710551,0.0853 0.930176,-0.83406 0.507979,0.14521 1.168404,-0.87282 -0.680062,-0.2775 0.226343,-0.42633 0.352434,0.13643 0.350366,-0.8568 1.726509,-0.95291 -0.178283,-0.40669 0.05581,-0.75396 0.813387,0.0935 0.507463,-1.09554 -0.07493,-0.3328 1.4087,-0.19223 1.266072,-3.56206 -0.790649,-1.05626 -3.50728,-0.54312 -1.920296,-0.56638 -1.781803,0.54984 -1.025261,2.4908 -0.371037,0.84181 h -0.835612 l 0.0088,-0.64182 -0.890902,-1.51205 -1.5875,-0.56017 -0.427364,0.53226 -0.644405,1.12035 0.260966,0.55604 -0.487309,0.53743 -0.654224,-0.34778 -1.689302,0.55087 1.955953,-1.61747 -0.02997,-0.78962 0.851628,-1.96887 -0.366386,-0.80047 0.923975,-0.37775 -0.04754,-0.12248 -0.06666,-0.15658 -3.653524,-1.95181 -1.21853,-2.25568 -5.031218,-4.24315 z" /><path
     id="ap-01"
     style="display:inline;fill:#000000;stroke:none;stroke-width:0;stroke-linecap:square;stroke-linejoin:bevel;stroke-miterlimit:10;paint-order:stroke fill markers;stop-color:#000000"
     d="m 41.383521,41.39489 -2.499072,1.99006 -1.513086,0.83974 -1.021126,0.0222 -0.224793,-0.19378 -0.344682,-0.0238 -0.01499,0.31367 0.666626,0.42788 0.329179,0.77205 0.207222,2.84789 -10e-4,5.1e-4 0.189136,1.4826 0.492476,1.04076 0.337447,-0.39635 0.695565,0.77359 0.425297,-0.22376 0.295589,0.71882 2.280481,1.71101 -0.0052,0.007 4.119645,-1.04542 2.455664,-1.90582 -0.04083,-0.077 L 46.17185,48.666 45.816316,46.86662 45.362597,46.11731 45.745003,43.81616 44.895442,42.8462 c 0,0 -0.899527,-0.0522 -1.007173,-0.0398 l -0.03152,0.0109 -1.019059,-0.36691 0.0083,0.004 -0.0021,0.002 -0.0078,-0.006 -0.04909,-0.0176 -0.0026,-0.0196 z" /></svg>
