<?xml version="1.0" encoding="UTF-8" standalone="no"?>
<svg width="1000.0001" height="617.2326" viewBox="0 0 264.58337 163.30946" version="1.1" id="svg5" xml:space="preserve"
   xmlns="http://www.w3.org/2000/svg" xmlns:svg="http://www.w3.org/2000/svg">
   <defs id="defs2" />
   <path class="neighborhood"
      d="m 171.5605,20.178404 -0.32899,0.900689 -0.98896,0.804416 0.20561,1.266787 -0.83449,1.748232 -2.52156,0.283839 -0.86758,-1.92175 -1.8997,0.777342 -1.30089,-0.446336 0.54263,-2.261781 -1.93681,1.183537 -1.92075,-1.071197 -0.35005,2.499488 -1.60881,0.667 -2.4744,0.200594 -1.11233,-1.784354 -0.45838,0.78134 -1.46638,-0.536608 -0.44232,1.455366 -1.68906,1.65695 -2.61282,-0.670997 -0.15849,-0.05415 0.27985,0.811444 -1.98294,0.810416 0.71113,1.553653 -1.65295,3.821433 0.0582,1.532596 -3.79636,3.139391 3.27882,-1.069199 1.2698,0.675017 0.94583,-1.043114 -0.50651,-1.079233 1.25074,-2.174518 0.82947,-1.033077 3.08123,1.087247 1.72918,2.93478 -0.0171,1.245725 h 1.62184 l 0.72016,-1.63389 1.98997,-4.834461 3.45834,-1.067201 3.72716,1.099303 6.80736,1.054157 1.53461,2.050124 -2.45736,6.9137 -2.73419,0.373104 0.14552,0.64594 -0.98495,2.126363 -1.57872,-0.181475 -0.10826,1.463381 0.34601,0.789355 -3.35102,1.849529 -0.68003,1.662987 -0.68405,-0.264801 -0.43932,0.827476 1.31995,0.538608 -2.26778,1.69408 -0.98595,-0.281842 -1.80541,1.618849 1.37913,-0.165561 0.6359,1.041115 0.90972,-0.948843 1.19358,0.611838 -0.29689,1.440304 0.82446,1.178531 1.85657,-0.60883 1.05916,1.00703 -0.19559,0.950843 -2.07722,0.167501 3.27883,3.369081 -0.64895,1.264786 3.36908,-1.02908 2.64592,1.898674 0.89269,1.687054 2.25072,-1.313929 0.26679,3.989943 -2.62986,1.62085 -0.16249,1.667994 -1.55566,1.016037 0.24473,1.02708 -1.6329,1.481432 -0.56166,-0.573719 -0.49247,0.805408 0.61482,0.415241 -0.36507,1.687056 1.03208,0.460367 0.0702,-2.330975 3.05112,-1.249724 0.47243,-1.400206 4.09825,-4.201563 1.89167,-4.332965 2.04211,-4.007006 4.675,0.493481 0.99599,4.071192 -0.10126,1.396166 -1.63287,2.060177 -4.41223,2.427268 6.60478,-2.158468 4.13738,2.024058 -1.02308,-2.758253 -1.38916,-1.242716 0.11841,-2.747228 1.98195,-4.487424 2.70508,-0.06619 4.016,-3.778308 4.04613,-2.835481 1.67201,0.89366 6.42523,-1.543618 3.23167,2.218635 -0.0291,2.636905 0.97994,-0.479448 1.7121,0.547653 2.44632,3.583728 -1.78232,1.739206 -1.62186,0.681033 -2.19958,-0.732196 -2.00602,1.819445 -1.31794,-0.01551 -3.67399,3.606786 -1.74523,1.718147 1.04716,1.192566 1.36608,3.140401 3.7111,2.118345 0.18458,1.122362 1.25075,-0.313945 1.86359,1.757257 5.37306,0.552661 5.4092,2.461367 0.5336,-0.09723 2.75824,1.839514 -0.7452,1.496475 -2.30493,0.190598 -0.31092,0.998977 2.62488,2.089253 -0.35909,3.496463 1.74722,1.286856 -2.73618,4.848515 0.28987,1.242717 -0.0301,2.976916 -2.88465,1.74824 -3.0792,1.77932 -0.68707,-0.96288 -1.01805,0.48744 -0.17857,2.338 1.24275,-0.48244 1.76226,-1.4052 1.00099,0.332 0.44333,-0.17256 3.3059,1.17953 -1.37211,-2.68504 1.70811,-0.79237 2.5697,0.27282 -0.5015,-0.8716 -0.77332,-0.88768 0.12346,-0.24071 -0.007,-0.008 0.0823,-1.879634 1.88563,-0.177592 -1.18054,-0.62987 0.11645,-2.163493 2.44332,-2.758253 0.10026,0.04716 0.0175,-0.01999 0.2327,0.136446 1.25375,0.584743 1.27083,-0.09627 0.0782,-0.147517 0.27381,0.121305 0.24876,-0.0194 0.49749,0.349038 1.58976,0.702091 -1.17452,-1.328972 0.0114,-0.131399 -0.0813,-0.09433 -0.0194,-1.304904 -0.74419,0.183611 -0.60584,0.279823 -0.11234,-0.10228 -0.34103,0.08424 -2.12536,-2.140395 0.76329,-0.894691 2.35003,-3.164467 3.28985,-0.374113 0.91974,-0.194579 2.47241,-1.891667 1.04412,0.19351 0.60983,-0.430285 0.25979,0.592779 h 0.003 l 9.8e-4,0.0078 1.18052,2.689039 0.31896,0.24774 0.85656,-0.951851 0.59881,-0.854551 0.15547,0.01748 0.68506,-0.76028 1.5747,2.432274 0.37712,0.241723 2.63086,1.430289 0.1875,0.375122 0.47544,0.30391 0.19252,0.818452 3.14244,1.866588 -0.13734,0.21263 0.8696,0.503515 -1.41324,1.301896 0.22669,2.340001 1.62185,1.73319 0.89668,2.331968 1.18554,1.67502 1.76429,1.81643 0.4333,3.08925 0.63992,0.27483 0.58075,0.0221 0.10321,-0.25377 -0.1393,-2.58874 0.18245,-0.23171 -0.1073,-0.41724 1.4092,-0.98997 0.78135,0.65297 0.038,0.006 -1.45535,-3.5105 -1.11133,-2.173509 -0.58675,-0.157414 -0.5376,0.246751 -2.16649,-0.324969 0.53259,-0.938808 -0.8004,-1.069197 -0.3972,-0.321982 0.007,-0.200594 -0.8395,-1.120344 1.34099,-1.911735 2.25376,0.914741 h 0.44734 l 0.1424,0.239722 0.18846,0.07628 3.59576,5.933759 1.21665,-1.614827 -0.97492,-0.390166 0.18051,-1.178531 -0.46338,-0.868603 -0.71114,0.114316 -0.24472,-1.345022 -0.0332,-0.03513 -0.335,-0.212649 -0.01,-0.146538 -0.1104,-0.11626 0.0862,-0.306919 -0.15351,-2.624853 -2.2367,-0.688058 -1.8415,-1.928777 -2.89469,1.132395 -1.99394,-0.807426 -2.01805,-4.49245 0.38013,-2.438291 -0.54764,-2.816439 1.24874,-1.341008 -0.37714,-1.90269 2.11535,-5.448301 -0.78135,-0.7984 1.27182,-4.38112 2.05917,-1.759256 1.19054,-1.286855 -2.70107,-0.927783 -0.94584,1.164499 -2.95383,1.126359 0.61785,1.590765 -2.12034,2.614836 -5.20661,-2.964882 -3.49344,2.072211 -1.06819,-0.06715 -0.24875,-3.072198 -4.49546,-2.719123 -6.83044,0.714126 -3.4102,-1.501481 -1.4373,0.447325 -0.80342,-4.005979 1.20459,-1.820453 -1.26879,-0.656965 -0.0553,-3.716119 2.14945,-2.147442 -2.49247,0.312936 -1.9749,-1.629875 0.41324,2.416243 -1.94081,1.198579 -4.91772,-6.231656 -1.18555,-0.153529 0.15351,1.632883 -0.39617,1.306925 -2.98595,-0.178567 -1.2728,-1.850539 -3.5747,0.642933 -2.58775,-0.02213 -5.17149,2.442309 -0.27982,0.766296 -1.79037,-1.378136 0.11333,-1.442303 0.82547,-0.407226 0.26879,-1.285845 1.10332,-0.05726 -0.58777,-1.273812 1.48144,-2.364069 -1.78334,0.170608 -1.51954,-0.776333 0.19758,1.612835 -1.42625,1.67601 -0.94584,-0.825457 v 2.089253 l -1.23269,2.816421 -2.81441,0.437311 -7.07117,-3.355049 -1.91074,1.665994 c 0,0 -1.51317,-0.153722 -2.14138,-0.296883 -0.62824,-0.143042 4.53856,-8.544583 4.53856,-8.544583 l -0.96689,-0.830485 0.31493,-2.029065 -1.09927,-1.655959 0.83451,-1.339008 1.90567,1.493466 -0.34703,-1.615841 1.65597,-0.516539 -1.87561,-0.405206 0.24672,-1.167508 -2.94279,-1.141421 -0.13539,-1.701087 -2.12034,-0.603802 0.3009,-1.86859 -1.25176,-0.390166 -1.25675,1.56468 -0.97391,-1.070208 -1.26479,0.471412 0.22668,-2.03809 1.56869,-1.375127 -1.72214,0.199605 z"
      data-name="Zona Rural" id="zona_rural" />
   <path class="neighborhood"
      d="m 122.71228,113.5338 -17.60268,6.25374 -0.0101,-0.0175 c -0.0534,0.004 -4.48844,1.3711 -4.48844,1.3711 l -38.612567,3.58574 -6.060139,0.8716 -5.147408,-0.0671 -11.756188,1.17953 0.722165,7.5185 3.440295,6.72914 2.146425,2.07523 6.787347,20.27568 1.733187,-1.40422 4.5777,-1.29086 0.980938,0.93581 3.519533,-0.94683 0.820456,-0.85958 4.773287,-3.82343 1.412226,-2.33098 4.191545,-3.60278 2.623854,-2.69708 1.378124,-1.04713 0.528582,-1.71414 1.211629,-0.0922 1.654952,-1.44131 8.016995,-2.27183 1.443321,-7.41918 2.009012,-2.14543 1.338005,-0.0833 3.717126,-3.31592 1.261778,-1.30392 4.92473,-1.37612 1.66599,5.46136 c 0,0 9.22078,-7.13137 9.97285,-7.45533 0.46134,-0.19871 5.07233,-2.896 9.16643,-5.30087 l -0.20059,-0.0652 z"
      data-name="AP-10" id="ap-10" />
   <path class="neighborhood"
      d="m 93.657322,98.120692 -4.766265,3.699068 -7.995932,2.02907 -3.572695,4.59475 -8.244677,15.62676 31.533387,-2.92875 c 0,0 4.43499,-1.36723 4.48843,-1.37111 l 0.0101,0.0175 z"
      data-name="AP-09" id="ap-09" />
   <path class="neighborhood"
      d="m 71.751757,93.924115 -7.663937,3.154455 -2.280826,3.19255 -13.653868,-1.369089 -1.728173,0.460368 0.0031,-0.0099 -10.973844,2.249741 1.89166,6.78028 1.465387,1.00701 0.215645,17.32085 0.0091,0.01 -9.9e-4,-0.008 11.756189,-1.17953 5.147407,0.0672 6.060137,-0.87161 7.078185,-0.65696 8.24568,-15.62777 3.582722,-4.60781 -4.426246,-3.32092 -0.573718,-1.395166 -0.82547,0.434297 -1.350041,-1.501501 -0.654961,0.769306 -0.95586,-2.020059 z"
      data-name="AP-08" id="ap-08" />
   <path class="neighborhood"
      d="m 84.165914,55.408838 -8.060125,4.089243 -0.54463,3.101291 -2.243717,-3.045122 -10.029015,7.77427 1.330984,2.845515 -17.208507,13.677949 -0.007,-0.0059 -2.912719,4.007995 3.78834,3.872578 -1.547633,3.204607 0.806414,0.611819 -1.113333,3.819435 1.728173,-0.46037 13.653869,1.369092 2.280826,-3.192553 7.665943,-3.155444 -0.402204,-5.527548 -0.638912,-1.498493 -1.293872,-0.830485 0.0291,-0.608809 0.669003,0.0462 0.436307,0.376113 1.981931,-0.04308 2.93679,-1.629873 4.850516,-3.862564 2.719141,1.974914 -0.320961,-2.68504 3.149427,-9.002933 -1.376121,-3.677009 1.716138,-2.023069 -0.586726,-1.854495 -1.664983,-1.072207 -0.909722,-1.529585 z m -1.024064,26.982773 0.01519,0.01159 0.0041,-0.0039 z"
      data-name="AP-07" id="ap-07" />
   <path class="neighborhood"
      d="M 34.304676,0 28.865397,1.9097174 23.129229,2.5486317 11.397113,9.7441737 8.0862032,12.313865 6.1213208,15.448249 3.7692819,18.010913 0,28.208429 l 1.6679931,1.302906 2.2758111,4.005999 -0.1655029,1.561667 3.3189334,2.966883 1.5145329,1.710111 1.2166411,2.108314 0.1083232,2.341011 2.2858431,1.442303 10.241653,2.426277 0.840516,-1.463381 9.070146,6.475379 -1.441313,2.598766 8.832437,20.844396 7.644881,7.322924 17.208506,-13.677949 -1.330984,-2.845515 10.029016,-7.77427 2.243715,3.045122 0.544631,-3.101291 8.060125,-4.089243 0.007,-0.03106 3.746213,-1.950827 -1.08324,-5.617819 -0.01519,-9.9e-4 L 85.722366,47.706814 80.18078,51.062852 74.7415,50.457051 59.980378,38.739972 56.477893,34.926556 53.483931,25.378978 38.439905,12.106257 36.555263,9.5255216 35.639523,0.34305238 Z"
      data-name="AP-06" id="ap-06" />
   <path class="neighborhood"
      d="m 137.46745,71.417761 -27.17133,8.715077 -4.30188,0.133342 -8.443264,-1.569686 -12.367015,4.387135 c 0.208933,-0.02407 1.954849,0.07725 1.954849,0.07725 l 1.648938,1.882621 -0.742224,4.466367 0.880637,1.454354 0.690064,3.492467 3.96186,3.514514 11.531515,21.816298 17.60268,-6.25373 2.14042,4.18452 4.28883,1.39118 20.03297,-4.77831 7.64387,3.80038 5.17047,6.09624 4.71811,3.34802 4.12237,1.02808 3.78731,-4.75021 -1.29185,-1.22969 9.62682,-11.02499 -4.41421,-5.09425 2.41621,-0.95085 -13.13832,-13.13632 -9.76523,-5.962842 0.0111,-0.02115 6.2808,-2.722151 v -9.9e-4 l -6.29885,2.730185 -15.03701,-7.497453 z"
      data-name="AP-05" id="ap-05" />
   <path class="neighborhood"
      d="m 137.46745,71.417761 -0.16149,-0.219653 -6.19654,-21.034955 -3.61181,-6.060138 -16.34191,-19.813318 -2.11835,-6.369055 -0.38014,-9.3419565 c -0.75246,0.043865 -2.70008,0.5476327 -2.70008,0.5476327 l -3.10429,2.3791318 -3.020036,5.708072 -2.955848,3.518534 -1.059169,1.913735 -2.241709,-0.251759 -2.351039,1.095283 -0.02306,1.862575 1.088256,3.070177 -0.683045,1.595791 0.123364,3.236673 3.125352,5.042102 0.106333,1.180529 0.397188,0.805407 -2.154447,4.629869 -4.519528,2.76427 -1.85455,0.108307 1.088257,5.641887 -3.746214,1.950826 -1.124364,5.097266 0.909724,1.529585 1.664983,1.072207 0.586757,1.854536 -1.716139,2.023069 1.376121,3.677009 -3.149427,9.002932 0.325975,2.72316 2.076213,0.747237 12.4282,-4.408194 8.443262,1.569685 4.30188,-0.133342 z"
      data-name="AP-04" id="ap-04" />
   <path class="neighborhood"
      d="m 208.68861,51.686702 -6.42523,1.54362 -1.67201,-0.893661 -4.04613,2.83548 -4.016,3.778307 -2.70509,0.06619 -1.98194,4.487422 -0.11839,2.74723 1.38915,1.242717 1.02305,2.758251 -4.13737,-2.024057 -6.60477,2.158467 4.4122,-2.427267 1.63289,-2.060179 0.10125,-1.396166 -0.99599,-4.071192 -4.675,-0.493479 -2.0421,4.007005 -1.89168,4.332964 -4.09827,4.201565 -0.47239,1.400205 -3.05113,1.249723 -0.0702,2.330976 -0.0402,-0.01748 -0.47641,0.638915 -5.2116,2.437302 1.82648,3.191543 -6.28082,2.72215 -0.0111,0.02115 9.76521,5.962861 13.13833,13.136316 -2.41623,0.95084 4.41421,5.09426 -9.62681,11.02499 1.29185,1.22968 -7.26975,9.11729 15.57862,-2.57673 7.73315,-4.0491 2.92976,-9.15139 3.672,3.16246 4.69504,-3.0782 10.69905,-2.90771 2.7743,-6.16946 1.07921,-1.40321 0.17856,-2.33299 1.01805,-0.48745 0.68706,0.96288 3.07921,-1.77932 2.88465,-1.74824 0.03,-2.976917 -0.28987,-1.242716 2.73619,-4.848514 -1.74722,-1.286856 0.35906,-3.496465 -2.62484,-2.089251 0.31091,-0.998978 2.30492,-0.190598 0.74521,-1.496474 -2.75825,-1.839515 -0.5336,0.09723 -5.40919,-2.461366 -5.37306,-0.552661 -1.8636,-1.757256 -1.25076,0.313944 -0.18456,-1.122361 -3.71112,-2.118346 -1.36608,-3.140402 -1.04715,-1.192564 1.74523,-1.718148 3.674,-3.606786 1.31794,0.01551 2.00601,-1.819445 2.19957,0.732196 1.62185,-0.681033 1.78233,-1.739208 -2.44631,-3.583726 -1.71212,-0.547654 -0.97992,0.479449 0.0291,-2.636905 z"
      data-name="AP-03" id="ap-03" />
   <path class="neighborhood"
      d="m 108.63615,8.0591187 0.4012,9.8615233 2.11835,6.369055 16.34191,19.813318 3.61181,6.060138 6.19654,21.034955 5.70006,7.745174 15.03701,7.497452 6.29885,-2.730185 -1.82646,-3.191545 5.21159,-2.4373 0.47643,-0.638915 -0.99197,-0.442317 0.36509,-1.687055 -0.61484,-0.415241 0.49246,-0.805407 0.5617,0.573717 1.63289,-1.481433 -0.24475,-1.027079 1.55568,-1.016037 0.16248,-1.667995 2.62987,-1.620847 -0.2668,-3.989946 -2.25073,1.31393 -0.89267,-1.687054 -2.64593,-1.898674 -3.36906,1.02908 0.64894,-1.264786 -3.27884,-3.369082 2.07723,-0.167501 0.19559,-0.950842 -1.05917,-1.007029 -1.85657,0.608829 -0.82446,-1.178531 0.29689,-1.440303 -1.19357,-0.611839 -0.90973,0.948843 -0.6359,-1.041115 -1.37913,0.165562 1.80541,-1.61885 0.98595,0.281842 2.26778,-1.69408 -1.31994,-0.538608 0.43931,-0.827475 0.68405,0.264801 0.68003,-1.662987 3.35103,-1.849529 -0.34603,-0.789356 0.10826,-1.463381 1.57874,0.181474 0.98495,-2.126361 -0.14552,-0.645942 2.73419,-0.373104 2.45735,-6.913699 -1.5346,-2.050124 -6.80736,-1.054158 -3.72716,-1.099301 -3.45836,1.067199 -1.98996,4.834462 -0.72016,1.63389 h -1.62186 l 0.0171,-1.245724 -1.72919,-2.934779 -3.08123,-1.08725 -0.82947,1.033079 -1.25074,2.174516 0.50651,1.079235 -0.94582,1.043114 -1.2698,-0.675017 -3.27882,1.069199 3.79636,-3.139391 -0.0582,-1.532597 1.65294,-3.821433 -0.71111,-1.553653 1.79335,-0.733187 -0.0923,-0.237724 -0.12937,-0.303911 -7.09124,-3.788321 -2.36507,-4.378111 -9.76523,-8.2356466 z"
      data-name="AP-02" id="ap-02" />
   <path class="neighborhood"
      d="m 80.322409,80.344475 -4.850517,3.862562 -2.93679,1.629875 -1.981931,0.04308 -0.436306,-0.376113 -0.669005,-0.0462 -0.02908,0.608811 1.29387,0.830484 0.638914,1.498494 0.402203,5.527547 -0.002,9.89e-4 0.367099,2.877618 0.95586,2.020041 0.654961,-0.769285 1.350041,1.501475 0.825471,-0.434297 0.573716,1.395194 4.426248,3.32094 -0.01013,0.0135 7.995933,-2.02908 4.766265,-3.699058 -0.07925,-0.149445 -3.961859,-3.514514 -0.690065,-3.492468 -0.880635,-1.454354 0.742223,-4.466367 -1.648938,-1.88262 c 0,0 -1.745916,-0.101317 -1.95485,-0.07725 l -0.06118,0.02116 -1.977919,-0.712146 0.01617,0.0078 -0.0041,0.0039 -0.01519,-0.01159 -0.09528,-0.03417 -0.0051,-0.03803 z"
      data-name="AP-01" id="ap-01" />
</svg>