<?xml version="1.0" encoding="UTF-8" standalone="no"?>
<svg version="1.1" id="svg2" width="931.93372" height="535.23749" viewBox="0 0 931.93372 535.23748"
   xmlns="http://www.w3.org/2000/svg" xmlns:svg="http://www.w3.org/2000/svg">
   <defs id="defs6" />
   <path class="neighborhood"
      d="m 411.75791,157.30834 -6.5957,0.16601 -4.89257,2.73438 -2.94922,1.2539 -8.55665,-1.6621 -5.7832,-0.42384 -4.2793,1.66212 -5.4453,2.25194 -3.92188,0.16602 -0.17773,2.82617 -1.60352,3.32227 -3.73438,-3.91407 -3.20898,1.16407 -2.85742,2.99609 -4.36133,2.15625 -3.30273,-0.1621 -3.6543,1.99413 -3.83204,3.32423 -1.96093,0.74804 -3.82813,0.0781 -2.67383,1.24609 -2.04883,2.74219 -1.07421,-0.91016 -3.11915,2.6582 -6.4121,5.23047 -3.66016,3.74024 -4.00586,3.15625 -5.35156,4.57031 -4.62109,2.73046 -7.49609,0.75978 -8.19923,1.4121 -6.06445,3.15626 -5.96875,0.55077 -0.0215,-0.28905 -0.20117,-0.28126 -0.5,-0.0411 h -0.5586 l -0.56836,-0.1152 -0.51757,-0.20508 -0.4629,0.0703 -0.43358,0.3125 -0.40626,0.24218 -0.54101,0.12107 -0.36719,0.25977 -0.32226,0.20703 -0.60158,-0.21875 -0.48046,-0.42578 -0.62304,-0.54883 -0.36328,-0.1328 -0.36134,0.0899 -0.17382,0.38868 0.0899,0.3203 0.005,0.6836 -0.20508,0.625 0.12106,0.28126 -0.0664,0.29101 0.0215,0.60156 -0.19336,0.24609 -0.50196,-0.0312 -0.24413,-0.31054 -0.31251,-0.40626 -0.63476,-0.74609 -0.49024,-0.1152 -0.4453,-0.10347 -0.60156,-0.48828 -0.2129,-0.9453 -0.4336,-0.8711 -0.66796,-1.00781 -0.51368,-0.21876 -0.27344,0.15821 -0.60156,0.39452 -0.27734,0.4883 -0.22851,0.5996 -0.33399,0.1875 -0.40234,-0.13477 -0.42187,-0.63476 -0.40235,-0.99609 0.005,-0.65039 0.0957,-0.97071 0.37891,-0.61133 0.72265,-0.31249 0.14648,-0.65431 -0.18945,-0.71679 -0.35742,-0.47656 -0.90234,-0.0937 -0.7129,0.40431 -0.53514,0.56054 -0.25,0.57422 -0.3965,0.6621 -0.40038,0.18751 h -0.52344 l -0.55664,0.009 -0.43555,-0.0196 -0.37304,0.19923 -0.27149,0.53711 -0.59766,0.14844 -0.36718,0.0625 -0.47266,0.27735 -0.44532,0.26953 -0.56836,-0.13477 -0.23437,-0.26952 -0.37891,-0.084 -0.40038,-0.12307 -0.15626,-0.30273 -0.0899,-0.41407 -0.41211,-0.0312 -0.37305,0.0644 -0.47266,-0.28907 -0.42382,-0.43164 -0.47852,-0.56445 -0.35743,-0.39648 -0.15039,-0.375 -0.21093,-0.30469 -0.21289,-0.30274 -0.38867,-0.10746 -0.39649,0.0605 -0.46288,-0.11133 -0.25,-0.3379 -0.14063,-0.30273 -0.41212,-0.41992 -0.41015,-0.30469 -0.32813,-0.0429 -0.30273,0.2754 -0.17774,0.42187 -0.20702,0.29297 -0.55664,0.11134 -0.58399,0.0917 -0.26172,-0.0781 -0.0723,-0.2832 v -0.40626 l 0.0273,-0.29492 -0.12694,-0.23828 -0.20702,-0.25781 -0.33008,-0.0976 -0.2832,0.0801 -0.18946,0.30664 -0.28906,0.30468 -0.2793,0.24415 -0.40625,0.33789 -0.10547,0.45703 0.0723,0.55664 0.21093,0.43359 0.4297,0.24024 0.45117,0.3125 0.14453,0.46094 -0.005,0.42186 -0.11333,0.38087 0.086,0.39844 0.19921,0.16015 0.44531,-0.0723 0.36328,-0.30079 0.2168,-0.25196 0.1172,-0.29882 -0.10747,-0.2461 -0.24415,-0.2832 -0.25585,-0.31836 -0.0273,-0.22265 0.25,-0.23828 0.17773,-0.0957 0.20117,0.12106 0.35156,0.41992 0.39454,0.38478 0.36913,0.28514 0.52735,0.2754 0.57422,0.3125 0.41211,0.36328 -0.0937,0.41992 -0.32814,0.2754 -0.50194,0.18164 -0.6465,0.38476 -0.60156,0.36718 -0.53516,0.16211 -0.42382,-0.12107 -0.46679,-0.24804 -0.37891,0.0429 -0.42969,0.10746 -0.22852,0.25391 -0.0879,0.29688 -0.18554,0.43555 -0.4668,0.21289 -0.30664,0.25585 -0.33399,0.46094 -0.23437,0.24218 -0.18946,0.19532 -0.23828,0.23828 -0.30078,0.26954 -0.008,0.48437 v 0.41797 l 0.14453,0.21875 0.34571,0.10547 0.12893,0.14453 0.0937,0.25585 0.23438,0.20118 0.1328,0.27929 -0.22071,0.34376 -0.40233,0.35937 -0.57423,0.32227 -0.36133,0.34765 -0.45116,0.40235 -0.3965,0.41015 -0.28905,0.40625 -0.56836,0.31641 -0.21095,0.44727 -0.1953,0.57421 -0.37306,0.71875 -0.1953,0.46289 -0.0449,0.68555 -0.1621,0.69336 -0.25391,0.60352 0.21093,0.43749 0.65626,0.42579 h 0.76953 l 0.43945,-0.17774 0.26758,-0.10346 0.20702,0.0723 -0.0391,0.42579 -0.0996,0.58203 -0.15039,0.41016 -0.37891,0.1621 -0.48633,0.26954 -0.42969,0.50585 -0.35547,0.70117 -0.21093,0.39648 -0.2793,0.44142 h -0.49024 l -0.43945,-0.28516 -0.17773,-0.26954 -0.10747,-0.44336 -0.51757,-0.41405 -0.45118,-0.46876 -0.42968,-0.11907 -0.53321,-0.22461 -0.48632,-0.3164 -0.77735,-0.19923 -0.45312,-0.25781 -0.83398,-0.4082 -0.42383,-0.31055 -0.12893,-0.60742 -0.22267,-0.54102 -0.57421,-0.15625 -0.61134,-0.30468 -0.79101,-0.50391 -0.5254,-0.0449 -0.17773,0.29883 0.12307,0.47265 0.52344,0.40039 0.5625,0.18164 0.36914,0.3789 -0.0391,0.71095 -0.41407,0.2832 -0.38281,0.0429 -0.57421,-0.14453 -0.5625,-0.13093 -0.63673,-0.2246 -0.44336,-0.2168 -0.60156,0.73828 -0.56835,0.8203 -0.36719,0.50978 -0.5918,0.31054 -0.98046,0.35352 -1.16992,0.25976 -0.96875,0.082 -0.53516,-0.0508 -0.67969,-0.084 -0.40039,0.21875 -0.18945,0.36328 0.0449,0.65431 0.19923,0.61328 -0.0996,0.34178 -0.15625,0.35352 0.0567,0.49806 0.32227,0.39452 0.85352,0.12893 0.80273,-0.17773 1.32421,0.27149 0.58596,0.0469 0.38866,0.1152 0.33398,0.35351 0.10161,0.43556 -0.27929,0.76757 -0.42384,0.69727 -0.58985,0.2168 -0.91404,0.24023 -0.34571,0.33202 -0.96875,0.58204 -1.00196,0.4668 -0.6914,0.39452 -0.60156,0.53907 -0.45704,0.57227 -0.21094,0.36328 -0.33398,0.51953 0.009,0.36328 0.36914,0.43555 0.66798,0.20702 0.40038,0.13478 0.32422,0.36522 0.46289,0.5215 0.55664,0.29101 0.51759,0.50585 0.70116,0.42579 0.41212,0.53907 0.20117,0.44726 0.12307,0.22851 0.34374,0.20704 0.32423,0.43555 0.44531,0.71678 0.45704,0.56251 0.71288,0.60156 0.8125,0.58203 0.50195,0.41406 0.70117,0.30079 0.73634,0.50976 0.70117,0.7168 0.625,0.94531 0.17773,0.43554 -0.012,0.61328 0.40235,0.8711 0.31055,0.56056 0.23437,0.65429 -0.12693,0.58593 0.32813,0.86915 0.46679,0.86132 0.46876,0.45704 1.125,1.00585 1.04686,0.8418 0.85743,0.70703 0.51367,0.27929 0.5293,0.0332 h 9.9e-4 l -0.19335,0.39258 -0.20119,0.30078 0.27931,0.46679 0.51171,0.58204 0.45704,0.51953 0.45702,0.32226 0.43361,0.8086 0.23437,0.42578 -0.0879,0.66602 -0.25782,0.64257 -0.49023,0.50977 -0.42187,0.60156 -0.39063,0.87304 -0.40038,0.56055 -0.2461,0.50781 -0.23437,0.51954 -0.1152,0.41992 0.10547,0.31836 -0.16798,0.22852 -0.45702,0.28906 -0.34571,0.42578 -0.0332,0.62305 0.0449,0.63476 0.16798,0.41407 0.31054,0.29101 0.51367,0.29101 0.28907,0.0312 0.40038,0.17578 -0.012,0.61329 -0.13476,0.60156 2.74219,0.42773 v 3.98632 l -0.91016,7.70899 -2.13867,6.64453 -4.27734,7.31055 1.62109,3.90429 0.87305,5.06642 -2.65625,3.90234 -7.12891,1.33008 -11.60352,3.73632 -3.36913,10.88087 -1.26563,9.05273 -6.9336,3.57031 -3.40624,12.70704 0.71484,6.64257 2.85156,5.31445 15.68555,1.99414 10.89063,-4.07031 9.26953,-5.97852 6.77344,-7.64062 6.57812,1.08008 1.97852,4.23633 -0.35743,8.96289 16.39648,-8.9668 19.96485,-1.66016 4.79492,-5.56445 4.11719,-6.72656 0.51563,-5.89648 -0.64063,-5.75391 h 0.001 l 0.36915,-0.0411 1.35937,-0.24024 0.62306,0.14648 0.27342,-0.0996 0.13868,-0.39844 0.60156,-0.15626 1.37696,-0.22461 1.09766,-0.21093 1.08593,-0.0488 0.66211,-0.0547 0.9082,-0.38085 0.89649,-0.76172 0.35741,-0.90235 0.33399,-0.86328 0.51759,-0.74413 0.875,-0.8965 0.74218,-0.79492 0.45508,-0.21874 0.35742,-0.0411 0.32813,0.14257 0.37891,0.22852 0.28905,0.39454 0.56836,1.19336 0.47852,1.31834 0.31249,0.65431 0.20118,0.31055 0.36718,0.28124 0.4004,0.082 0.38476,-0.25587 0.48438,-0.41796 0.35156,-0.27735 0.24609,-0.32226 0.19336,-0.1172 0.30079,-0.0723 0.31249,0.12493 0.4004,0.35156 0.23437,0.6543 -0.0567,0.60352 -0.4336,0.71484 -0.55664,0.54102 -0.7793,0.36328 -0.60156,0.46679 -0.49218,0.40431 -0.5,0.70702 -0.20118,0.73634 0.23438,0.71678 0.56836,1.00587 0.71289,0.80079 0.23437,0.37304 0.42187,1.12109 0.51368,1.07032 0.53516,0.96484 0.64061,0.69921 0.80664,0.44336 1.13672,0.43555 0.72462,0.0723 0.60156,-0.3418 0.24414,-0.61328 -0.27734,-0.81055 -0.35743,-1.18164 -0.27929,-1.15429 -0.009,-1.3379 0.25586,-1.18358 0.20117,-1.04884 0.22265,-1.28711 0.0723,-1.13867 0.0508,-0.39844 0.25,-0.20312 0.26172,-0.0664 0.35547,0.20704 0.30273,0.35351 0.93555,0.85156 0.71289,0.36328 0.79101,0.43556 0.43359,0.25 0.49024,0.40429 0.47852,0.39454 0.0567,0.21874 0.43358,0.19727 0.37891,0.12307 0.41211,0.21876 0.2461,0.45702 -0.0781,0.74804 -0.33399,0.79884 -0.26757,0.48828 -0.20117,0.2793 -0.0879,0.38476 0.0429,0.47657 0.17968,0.29101 0.56836,0.33203 0.34376,0.32227 0.55859,0.7168 0.0547,0.48828 -0.0781,0.48632 -0.0449,0.375 -0.0332,0.31054 0.14453,0.38478 0.48047,0.29101 0.85743,0.3418 0.79101,0.32227 0.90235,0.36328 0.81249,0.18749 0.97071,0.31055 0.75585,0.3418 1.0918,0.46874 1.0918,0.28907 1.03711,0.375 0.99218,0.40429 1.1797,0.42579 1.02538,0.33203 1.08008,0.5918 1.14844,0.60156 1.09179,0.54101 0.99024,0.24805 0.79688,0.11907 0.81836,0.0585 0.625,0.16602 0.32227,0.31054 -0.0664,0.32227 -0.25586,0.31055 -0.53516,0.67578 -0.52344,0.59179 -0.39062,0.54884 -0.0449,0.32225 0.2461,0.33204 0.73437,0.25 1.40429,0.23828 0.7129,0.16602 0.42382,0.1875 0.22267,0.31055 0.0996,0.50976 -0.15429,0.50781 -0.2793,0.43555 -0.0332,0.42579 0.32226,0.56054 0.72461,0.70703 0.93555,0.66407 0.99218,0.66405 0.47852,0.25977 0.49023,0.0937 0.49611,-0.008 0.78124,-0.64257 1.01758,-0.73046 0.39648,-0.41212 0.1152,-0.64648 0.2461,-0.43555 0.41796,-0.26757 0.52344,-0.11334 0.58398,0.15234 0.25782,0.3418 0.12106,0.50781 -0.0547,0.56055 0.0664,0.70702 0.43358,0.53907 0.20118,0.50977 0.15625,0.36328 0.21093,0.32031 0.23438,0.14648 1.53321,-0.0176 0.54687,0.012 0.76172,0.0253 1.0918,0.19727 0.86913,0.34374 0.75587,0.71486 0.3789,0.78905 -0.0781,0.47852 -0.35548,0.25976 -0.39063,0.17579 -0.40038,0.19726 -0.21094,0.36328 -0.1016,0.7168 0.0899,0.45703 0.26757,0.50781 0.60158,0.19727 0.45116,-0.11133 0.52344,-0.41406 0.31641,-0.45117 0.66992,-0.42579 0.38476,-0.30664 0.46095,-0.10746 0.42382,0.24804 0.0332,0.32226 -0.0899,0.58203 -0.0781,0.64259 0.0567,0.57226 0.46876,0.2793 0.55077,-0.0371 0.54688,-0.10347 0.33008,0.0899 1.20312,0.47852 0.91407,0.10347 0.58008,-0.14454 0.35547,-0.375 0.53514,-0.33204 2.22852,-0.93358 0.4668,0.0215 0.64648,-0.10546 0.55664,-0.35156 0.69142,-0.0429 0.64648,0.16798 0.53516,-0.27148 0.8457,-0.53907 1.53711,-1.68164 0.86913,-0.49805 7.19727,-3.15624 1.13672,-0.53907 0.17773,-0.33202 -0.1328,-1.08008 -0.46874,-1.66016 0.0899,-0.81055 0.35547,-0.31055 0.71289,-0.0625 1.58204,0.24805 0.93555,-0.14453 0.42383,-0.47852 -0.0899,-0.47656 -0.68945,-0.12493 -0.625,-0.26954 -0.89062,-0.49804 -0.35548,-0.70702 0.0879,-0.95508 -0.0449,-0.49806 -0.57812,-0.95508 0.0879,-0.53905 0.60158,-0.49805 1.76172,-0.66407 0.46678,-0.31249 0.0664,-0.37306 0.22266,-0.93554 0.20117,-0.78711 -0.31251,-0.66601 -0.62303,-0.45508 -1.02539,-0.10547 -0.66797,-0.37305 -0.89062,-0.89258 -0.51368,-1.1621 -1.00195,-0.56055 -0.17773,-0.41601 -0.24611,-2.53322 -0.37889,-0.3535 -0.64648,-0.31055 -0.24415,-0.45704 0.20116,-0.81055 0.57815,-0.28905 0.53514,0.10347 1.44923,0.082 0.33397,-0.16602 1.26954,-2.84376 0.66797,-0.72656 1.87109,-0.58202 1.13672,-0.16602 0.35743,-0.16602 0.19921,-0.31055 -0.0215,-2.20116 0.20117,-0.26953 1.83984,-2.66016 4.63476,-2.6582 9.01953,-9.38478 -0.46289,-6.89453 -4.2793,-8.30664 1.7832,-7.30859 1.42579,-9.96874 3.20899,-4.98243 v -5.31641 l 2.60156,-6.06446 5.34765,-2.99022 -2.60156,-3.9043 3.20899,-4.65234 3.67186,-1.74415 -2.95897,-3.24023 -7.02344,-0.41602 -2.49609,-7.9746 1.68554,-9.72071 v -4.32031 l 0.89063,-6.48047 4.45507,-6.8125 2.67384,-2.99218 -0.89063,-5.1504 -1.42579,-2.49219 0.17773,-4.32031 -3.74218,-1.8203 -1.07032,-5.98243 -0.53516,-8.47461 3.20899,-3.99023 -1.96095,-3.65625 3.20899,-2.16016 z m -143.64843,78.88281 0.0215,0.46679 0.37891,0.65234 h -10e-4 l -0.37696,-0.65234 -0.001,-0.001 z m 1.95702,2.86523 0.13672,0.41406 0.36524,0.69531 -0.36718,-0.69531 z m 4.04492,5.52149 10e-4,0.001 -0.0332,1.15235 -0.27931,0.70508 0.27735,-0.70704 z m -7.19334,0.4082 0.005,0.42577 -0.001,10e-4 z m -5.76172,0.69531 h 10e-4 l -0.0332,0.33984 -0.0235,0.49805 0.0215,-0.49609 z m -5.53125,0.55273 h 0.001 l -0.29492,0.37891 z m 17.31249,3.59376 -0.36132,0.82616 -0.27931,0.68555 -0.37889,0.64258 0.37694,-0.64453 0.2793,-0.6836 z m -24.21288,0.41992 -0.1328,0.82031 -10e-4,0.001 0.1328,-0.82032 z m 22.81445,2.41015 -0.4004,0.69726 -0.0664,0.57032 0.0801,0.83399 -0.082,-0.83595 0.0664,-0.5703 z m -0.18945,3.17773 0.012,0.58204 0.0703,0.37695 -0.0723,-0.37891 z m 3.33006,4.17579 -0.16601,0.35156 -0.31249,0.28125 -1.10743,1.02148 -1.03125,0.76368 v -0.001 l 1.0293,-0.76367 1.10938,-1.02148 0.31054,-0.28125 z m -3.51952,3.39453 -0.62305,0.67579 -0.63672,0.65233 -0.12107,0.375 -0.0449,0.43555 0.22265,0.74805 -0.001,-10e-4 -0.22265,-0.74804 0.0449,-0.43555 0.12307,-0.37305 0.63477,-0.6543 z m -0.74609,4.14453 0.15624,1.14063 0.1328,1.16211 -0.13476,-1.16407 z m 0.375,3.29296 0.0703,0.69336 0.0195,0.48439 -0.0215,-0.48633 z m 9.07225,5.7422 0.22267,0.35938 0.0761,0.46288 -0.0781,-0.46288 z m 0.12107,2.26952 0.0352,0.69727 -0.13476,0.64063 0.1328,-0.64258 z m -0.0996,1.33986 -0.55664,1.10156 -0.32423,0.83984 -0.75585,0.65429 -0.82421,0.5 -0.85939,0.52931 -0.68945,0.39452 -0.45703,0.0293 0.45508,-0.0312 0.6914,-0.39453 0.85743,-0.5293 0.82421,-0.5 0.75781,-0.65234 0.32227,-0.8418 z m -4.46875,4.04882 -0.95704,0.0215 -0.8457,0.1152 -0.63476,0.40429 -0.40235,0.6211 0.4004,-0.62306 0.63476,-0.40429 0.84765,-0.1152 z m 5.23242,31.42774 0.1504,1.47461 0.20116,0.88281 -10e-4,-0.001 -0.20117,-0.88281 z"
      data-name="Faria" id="faria" />
   <path class="neighborhood"
      d="m 250.28315,356.32916 -1.78248,5.97897 3.92153,15.27912 -2.13905,15.94263 -8.19946,14.94537 -9.98192,8.30266 -14.26004,5.97794 -11.40782,-3.65322 -10.33851,-8.9668 -11.7644,-0.66415 -10.17819,-10.54473 -11.92473,1.24544 -6.25664,3.40421 -8.35999,7.88773 -16.0423,0.99622 -16.59515,9.38195 -9.4293,7.22316 -7.129925,-4.64944 -7.84307,-7.97038 -6.77335,-7.97059 -1.4261,-14.94537 -16.43108,-5.13935 -1.05084,0.41951 -0.56073,0.0664 -0.51088,-0.054 -0.30943,0.3572 -0.15784,0.45273 0.0457,0.57318 0.37589,0.50466 1.001,1.80262 0.081,0.40081 -0.26998,0.48181 -0.61264,0.15991 -1.58872,0.77463 -0.51295,0.16198 -0.40289,-0.0249 -0.92624,-0.15576 -3.15044,-0.94908 -0.92831,-0.41741 -0.21806,-0.24092 -0.50049,-0.84939 0.002,-0.50259 0.56488,-0.80784 0.69364,-1.54926 0.28659,-1.52642 0.38212,-0.30944 0.15784,-0.95322 -0.0976,-1.07576 -0.80994,-1.24398 -1.11521,-1.29174 -1.85039,-1.77355 -0.51089,-0.003 -0.41119,0.88055 -0.48389,0.26167 -1.04253,-0.31567 -1.0716,0.0685 -0.45897,0.18899 -0.40704,0.26167 -0.30736,0.3572 -0.5628,0.35513 -0.33228,0.3572 -0.48596,0.25959 -1.55549,0.49634 -0.96985,0.54412 -0.71648,0.64171 -0.28244,0.45273 -0.43612,1.04876 -0.027,0.45482 -0.48597,0.33228 -0.84731,1.2855 -0.40705,0.2596 -2.03937,0.35098 -0.5358,0.23674 -0.69156,0.71232 -0.25544,0.4299 -1.22737,0.87846 -0.43404,0.45067 -0.18068,0.42988 0.20145,0.45481 0.65833,0.71856 0.40497,0.90754 0.55865,0.1703 1.01968,0.12254 0.50673,0.28866 0.53165,0.98023 1.04045,0.62511 0.55865,0.47973 0.40497,0.90755 0.58149,0.81408 0.65626,1.29174 -0.0561,1.19206 -0.48388,0.2139 -1.06953,-0.0519 -0.45896,-0.19312 -2.10583,-1.65519 -0.50881,-0.0976 -0.45896,-0.23881 -0.99061,-0.31567 -0.53581,0.16613 -0.15783,1.12146 0.0955,1.19205 0.65833,0.95739 0.73517,0.79124 0.45897,0.19313 0.20144,0.42989 -0.18068,0.45274 -0.5358,0.0457 -0.96569,-0.12253 -0.96985,0.37796 -1.12144,-0.0291 -3.383037,-0.89508 -0.61472,0.49841 -0.178601,0.52543 0.807858,1.36235 0.888852,0.52957 0.535803,0.0249 0.355125,0.40706 0.17652,0.42989 0.0229,0.45481 -0.585643,0.0935 -0.436119,0.47559 -0.483885,-0.0269 -0.404967,-0.33436 -0.510881,-0.0271 -0.483884,0.28452 -0.51296,0.90545 -0.411196,0.47559 -0.508805,-0.003 -0.407044,-0.31152 -1.042532,-0.31359 -0.508806,-0.0748 -1.044608,0.0685 -1.04253,-0.26582 -0.510883,-0.001 -0.533727,0.0457 -1.198288,0.32812 -0.845238,0.68948 -1.032148,3.09852 0.02492,0.45482 0.504652,0.93245 0.09761,1.05085 0.201447,0.45273 0.303205,0.40705 0.431965,0.26582 0.612643,-0.0228 0.560724,-0.14122 0.888852,0.64794 0.533727,0.002 0.355125,0.40705 0.176524,0.50257 0.429888,0.47973 2.064296,0.054 0.533725,-0.0457 0.485962,-0.16407 0.355125,0.38213 0.02285,0.47765 -0.589798,0.73933 -0.07684,0.50049 0.224289,0.90755 -0.357201,0.33228 -0.434038,0.21439 -0.386276,0.95323 -0.818242,0.59396 -0.307359,0.40289 -0.510883,0.0935 -0.174448,-0.93039 -0.303205,-0.35927 -0.508805,-0.12046 -0.407044,-0.26582 -0.409122,0.30944 0.04984,0.45273 0.253364,0.43196 0.02284,0.45274 -0.483884,0.0228 -0.431964,-0.43196 -0.431965,-0.26375 -0.481807,-0.0976 -0.232597,0.40497 -0.05192,0.45273 -0.510883,0.11839 -0.282438,0.38004 -0.027,0.47766 0.174446,1.14636 -0.458962,0.16615 -0.483884,-0.0976 -0.382123,-0.28867 -0.508805,-0.16822 -0.434041,0.23675 -0.261672,1.52642 -0.791244,0.73725 -0.13084,0.54826 0.151604,0.52542 0.508804,0.0498 0.510882,-0.23675 0.483884,-0.0228 0.328128,0.3842 -0.178601,0.42781 -0.409121,0.28451 0.07476,0.47766 0.735172,0.7684 0.427812,0.9553 0.04984,0.47766 -0.182754,1.07368 -0.0043,0.57318 -0.282437,0.57111 -0.483884,0.28452 -0.431967,-0.21598 -0.176524,-0.47766 -0.431965,-0.2409 -0.48596,0.11631 -1.042532,-0.0519 -0.560724,-0.33436 -0.05192,0.52334 0.683252,0.83901 0.201447,0.42989 -0.745556,1.95423 0.174448,0.55034 0.708173,1.41011 0.1246,0.52542 -0.0021,0.55034 -0.232596,0.5005 0.203522,0.42989 0.558647,0.0249 0.940769,0.55242 0.176524,0.45481 -0.307358,0.38005 -0.791244,0.54618 -0.899236,1.3582 -0.07892,0.57111 0.122533,1.07576 -0.23052,0.40496 -1.146369,-0.0519 -0.33228,0.33228 -0.257518,0.52334 -0.10384,0.54826 0.1246,0.62095 -0.05192,0.45481 -0.537878,0.28452 -1.293819,-1.03215 -0.585645,0.0935 -0.562802,0.18899 -0.178601,0.45273 -0.309436,0.40497 -1.609485,1.16298 -0.361356,1.23982 -0.157834,1.07369 0.348895,1.76732 -0.0041,0.93038 -0.440272,1.45373 -0.288668,1.90854 -0.363432,1.47865 -0.66664,1.28551 -0.589799,0.73933 0.176525,0.45273 1.95838,0.93869 1.293819,0.86393 1.121448,0.22014 0.913773,0.57526 0.68533,0.74348 1.092373,0.48181 1.069529,0.26582 0.836932,0.74348 0.508806,0.16822 2.033143,1.01138 0.508804,0.12046 0.612644,0.002 0.99269,0.29074 1.044608,0.0519 1.576257,0.45896 0.814089,0.57734 1.065375,0.60019 0.508805,0.16821 0.510882,0.0498 0.818242,-0.6874 0.434042,-0.23883 0.508805,-0.0685 -0.13084,0.97815 0.608488,0.78917 -0.359279,0.30943 -0.508805,-0.0976 -0.07892,0.45273 0.251288,0.95531 -0.027,0.47765 -0.359279,0.30944 -0.483884,-0.0498 -0.332281,0.38005 -0.027,0.45481 0.407045,0.26375 0.893006,-0.59395 0.535802,-0.11631 0.355126,0.33436 -0.054,0.57318 -0.255442,0.42782 -0.969845,0.2596 -0.357201,0.40496 -0.107987,0.95322 0.07269,1.07576 -0.05815,1.66972 -0.30736,0.40496 -0.456887,-0.26374 -0.253364,-0.43196 -0.1246,-0.90754 -0.560724,0.0457 -0.535803,0.26167 -0.610566,0.0457 -0.990612,-0.69778 -0.560724,-0.16822 -0.458963,0.18898 -0.13084,0.59602 0.04984,0.47766 0.456887,0.28868 0.583568,0.81407 0.1246,0.54827 -0.05607,0.93038 -0.30736,0.38213 -0.15368,0.45273 0.481808,0.28867 -0.05192,0.45273 -1.557567,0.47143 -0.409121,0.30735 -0.23052,0.47766 0.253364,0.45481 0.533727,0.16822 1.019686,0.004 0.481808,0.19314 0.151603,0.57318 -0.027,0.5005 -0.411197,0.42781 -0.483884,0.23675 -0.13084,0.50258 -0.533726,0.0934 0.07269,0.45273 0.305284,0.38213 0.431964,0.26582 0.683253,0.81409 -0.523549,1.97832 0.496966,1.13432 0.702982,0.28555 1.717893,1.2824 4.207715,0.47599 0.762169,0.69572 -0.07892,0.45273 -0.30736,0.40497 -0.309436,1.00099 -0.02908,0.57111 0.330204,0.3842 0.483884,0.16822 0.585645,0.0748 0.456887,0.21598 0.382125,0.31152 0.30321,0.45481 0.48388,0.16821 0.48388,-0.0457 0.30321,0.3842 0.0997,0.47765 0.48389,0.21598 0.99269,0.0997 0.51088,-0.16614 0.92,-0.63965 0.56073,-0.0457 0.53372,0.0727 1.42258,1.31874 -0.20768,0.95323 0.55865,0.24091 1.57834,0.38835 0.17652,0.47766 0.32813,0.4548 0.99061,1.00723 2.31143,1.48696 0.73725,0.60018 0.58564,0.17029 -0.69156,0.80786 -0.42573,0.0665 0.14122,0.86393 24.71547,-8.4607 8.30703,16.61404 18.6908,-4.15351 10.383775,14.53729 20.76756,-4.15351 14.53729,10.38378 26.99781,-8.30703 24.92108,4.15352 35.30484,-6.23027 76.51392,-37.24869 0.66663,-0.45481 0.18276,-0.47558 -0.2056,-2.41526 0.39457,-1.07161 0.004,-0.50258 -0.36759,-1.55549 0.0107,-0.95738 0.30113,-2.07468 -0.0665,-1.02799 -0.2492,-0.45689 -0.70819,-0.77048 -0.93869,-0.31982 -0.17444,-0.55034 -0.96776,-0.17652 -0.4486,-0.86393 -0.53788,0.0436 -0.84523,0.47142 -0.48596,0.0187 -0.42989,-0.21805 -0.80371,-1.22737 -0.76009,-0.62718 -0.86184,-0.53372 -0.80787,-0.72272 -0.0727,-0.4548 0.1599,-0.59603 0.66872,-0.71233 0.13294,-0.52334 -0.0915,-0.93247 -0.22429,-0.50465 -0.38004,-0.33643 -0.22428,-0.43197 0.0145,-1.55341 -0.12253,-0.50258 -0.19938,-0.47973 -0.68117,-0.72271 -0.19937,-0.43196 0.20768,-0.42989 0.0809,-0.45273 -0.11627,-1.10068 -0.2762,-0.3842 -0.1184,-0.90962 -0.32189,-0.90962 0.0561,-0.50258 0.23259,-0.40289 0.108,-0.47765 -0.14952,-0.45481 -0.65419,-0.72271 -0.22429,-0.50465 -0.32812,-0.33644 0.10587,-0.45273 0.35928,-0.33228 1.0986,-0.18068 0.43612,-0.28244 -0.0915,-1.00515 -0.19937,-0.50257 -0.32606,-0.38628 -0.0727,-0.45481 0.13293,-0.59603 -0.11627,-0.98023 -0.5981,-1.41427 -0.4299,-0.33851 0.0291,-0.47765 0.26167,-0.54827 0.13706,-1.04876 -0.0457,-0.50257 -0.25129,-0.43197 0.18482,-0.5005 0.4112,-0.38004 1.4828,-0.36759 1.0197,0.008 2.13698,0.4735 1.14844,0.0332 0.96984,-0.0872 0.43612,-0.23467 0.60019,-1.45165 0.59603,-0.97608 1.8753,-1.17752 -0.44441,-1.46203 -0.38005,-0.3842 -2.08922,-0.18691 -0.53372,-0.14745 -1.26682,-0.89508 -1.0903,-0.60641 -0.48388,0.0436 -0.83694,-0.58149 -0.35304,-0.40913 -0.22222,-0.57526 0.59395,-0.78293 -0.0208,-0.50258 -1.26475,-0.92 -1.06122,-1.15468 -0.88678,-0.55864 -0.14744,-0.47973 0.11627,-1.50358 -0.42988,-0.21806 -0.32812,-0.33851 -0.90548,-1.34573 -0.19728,-0.55035 -0.11841,-1.05291 0.0312,-3.08191 0.44236,-0.85562 1.28549,-0.92208 1.07992,-1.01761 1.53681,-0.58357 0.77255,-0.82862 -0.0208,-0.47973 -0.29491,-0.98231 -0.0415,-1.00307 0.0809,-0.54827 0.36135,-0.30736 0.43612,-0.21182 -0.0727,-0.45481 0.13293,-0.47558 0.28451,-0.45272 0.0353,-0.9304 0.38628,-0.38005 -0.14952,-0.50257 -0.40497,-0.26583 -0.96569,-0.36759 -0.19938,-0.45481 0.23676,-0.57319 0.4112,-0.30528 0.48596,-0.11626 2.09128,-0.054 1.0467,-0.22846 0.67078,-0.71025 0.56071,-0.0436 0.32815,0.33644 0.45689,0.24299 0.53786,-0.13708 0.48805,-0.45066 0.0872,-1.12144 -0.13915,-1.4122 0.13293,-0.45273 0.36343,-0.56903 0.53372,0.0748 0.38628,-0.28244 0.1308,-0.45273 0.0353,-0.95531 -0.14745,-0.45481 -0.0167,-1.00515 0.108,-0.45273 0.30944,-0.38005 0.15783,-0.47556 0.0603,-0.9304 -0.0208,-0.50256 -0.27412,-0.57528 -0.35514,-0.36135 0.0561,-0.47765 0.64588,-0.80786 0.15784,-0.45274 0.35304,-2.05183 0.0519,-0.79747 0.008,-0.18068 -0.0664,-0.95738 -0.29074,-1.50772 -0.0167,-1.07576 -0.62928,-0.72064 -0.22429,-0.45688 0.004,-0.55035 0.41744,-0.87847 0.31567,-0.95322 0.49426,-0.92832 0.38627,-0.37796 0.89716,-0.49428 1.53057,-0.0831 0.84732,-0.68533 0.31151,-0.4029 0.99269,0.008 1.49943,-2.04144 0.87223,-0.49428 0.56073,0.0291 0.84939,-0.75803 0.36136,-0.45065 0.78501,-2.09544 1.16091,-1.18375 0.33434,-0.47558 0.34059,-0.90547 0.0561,-0.47765 0.43612,-0.25752 0.99478,0.0789 0.40912,-0.25752 0.4112,-0.33228 0.0107,-0.9304 0.51088,-0.23467 0.5358,-0.0436 1.5285,0.22844 0.43612,-0.21182 -0.0208,-0.47766 -0.40498,-0.26581 -1.12352,0.0375 -0.38004,-0.29076 0.18275,-0.4278 0.48804,-0.23468 1.14845,-0.18068 0.51296,-0.23467 0.28451,-0.42781 0.53788,-0.20976 0.4112,-0.30736 0.48181,0.12466 0.45688,0.24091 0.0479,0.4548 0.17236,0.43196 0.5088,0.12467 0.46312,-0.2596 0.61888,-0.73518 -0.3032,-0.36134 0.44235,-0.95116 -0.40498,-0.26582 -0.0707,-0.45481 0.25752,-0.40497 0.5628,-0.18483 0.66248,0.0291 0.62926,0.96153 0.20975,1.93763 -0.0665,1.55132 0.42989,0.24298 4.80145,-0.77046 2.83894,-0.85979 0.43612,-0.20975 1.04668,-0.25544 0.2596,-0.45066 0.0664,-1.50564 0.19313,-1.43088 0.0167,-1.67388 0.33434,-3.00714 0.70196,-1.30836 0.74763,-0.71025 0.95323,-1.18581 0.29074,-1.001 0.0107,-1.05084 0.21392,-0.93039 0.79747,-0.71025 1.48488,-0.56072 0.89716,-0.49428 1.65932,-0.36758 2.11828,-0.14745 1.4828,-0.53788 0.82241,-0.54204 0.33436,-0.40289 -0.0209,-1.29132 -0.96716,-0.87058 -0.45896,-0.4735 -0.007,-0.77608 -0.23384,-0.14538 -0.21163,-0.32168 -0.15596,-0.36322 -0.20061,-0.5088 -0.43445,-0.53976 -0.0669,-0.70588 0.0557,-0.56052 -0.12254,-0.5086 -0.25626,-0.34267 -0.58419,-0.15201 -0.52376,0.11427 -0.41827,0.26624 -0.24505,0.4359 -0.11653,0.64734 -0.39604,0.41161 -1.01866,0.73019 -0.78002,0.64358 -0.49614,0.007 -0.49032,-0.0935 -0.47889,-0.25958 -0.99167,-0.66435 -0.93577,-0.66436 -0.72417,-0.70589 -0.32294,-0.56051 0.0335,-0.42553 0.27851,-0.43612 0.15596,-0.5086 -0.10027,-0.50859 -0.22284,-0.31152 -0.42344,-0.18692 -0.71297,-0.16592 -1.40368,-0.23884 -0.73516,-0.2492 -0.24527,-0.33208 0.0445,-0.32189 0.39004,-0.55014 0.52355,-0.59166 0.53476,-0.67475 0.25626,-0.31151 0.0667,-0.32189 -0.32295,-0.31131 -0.62385,-0.16613 -0.81845,-0.0585 -0.79706,-0.118 -0.99144,-0.249 -1.09176,-0.53996 -1.1476,-0.60206 -1.08054,-0.59165 -1.02488,-0.33229 -1.18106,-0.42552 -0.99144,-0.40498 -1.03609,-0.37361 -1.09175,-0.29073 -1.09176,-0.46708 -0.75761,-0.34266 -0.9692,-0.3113 -0.81327,-0.18692 -0.90234,-0.36343 -0.79103,-0.32168 -0.85791,-0.34267 -0.4789,-0.29053 -0.14496,-0.3842 0.0335,-0.31151 0.0445,-0.37362 0.0779,-0.48804 -0.0557,-0.48783 -0.55699,-0.71627 -0.34536,-0.3219 -0.5682,-0.33207 -0.17818,-0.29075 -0.0447,-0.47744 0.0891,-0.3842 0.20061,-0.28037 0.26749,-0.48783 0.33415,-0.79934 0.0779,-0.74742 -0.24506,-0.45689 -0.41224,-0.21805 -0.3788,-0.12467 -0.43446,-0.19709 -0.0556,-0.21807 -0.47911,-0.39457 -0.49012,-0.40476 -0.43445,-0.24922 -0.79104,-0.4359 -0.71295,-0.36343 -0.93579,-0.85128 -0.30092,-0.35304 -0.35638,-0.20768 -0.26125,0.066 -0.25127,0.20395 -0.0496,0.3981 -0.0729,1.13848 -0.22284,1.28718 -0.2004,1.04856 -0.25628,1.18353 0.0107,1.33909 0.27871,1.15239 0.35636,1.18335 0.2785,0.80972 -0.24506,0.61265 -0.60164,0.34244 -0.72416,-0.0727 -1.13619,-0.4359 -0.80724,-0.44278 -0.64109,-0.69924 -0.53476,-0.96548 -0.51255,-1.06912 -0.42324,-1.12124 -0.23405,-0.37381 -0.71296,-0.79935 -0.56819,-1.00702 -0.23385,-0.71627 0.20041,-0.73704 0.50133,-0.70589 0.49032,-0.40496 0.60164,-0.46707 0.77982,-0.36343 0.55698,-0.53974 0.43446,-0.71648 0.0557,-0.60206 -0.23385,-0.65397 -0.40122,-0.35305 -0.31193,-0.12467 -0.30072,0.0727 -0.19439,0.11773 -0.24505,0.32191 -0.35159,0.27661 -0.4841,0.41888 -0.38482,0.25608 -0.40102,-0.0831 -0.36759,-0.28036 -0.20061,-0.31152 -0.31194,-0.65397 -0.4791,-1.31852 -0.5682,-1.19393 -0.2895,-0.39438 -0.3788,-0.22845 -0.32812,-0.14163 -0.35658,0.0415 -0.45668,0.21785 -0.7414,0.79582 -0.8739,0.89652 -0.51878,0.7439 -0.33415,0.86164 -0.35657,0.90319 -0.89612,0.76155 -0.90859,0.38045 -0.66227,0.0555 -1.08677,0.0483 -1.09673,0.21143 -1.37648,0.22469 -0.60163,0.15576 -0.13873,0.39811 -0.27351,0.10013 -0.62387,-0.14537 -1.35902,0.23883 -0.37007,0.0413 0.64151,5.75697 -0.51691,5.89632 -4.11759,6.72704 -4.7948,5.56404 -19.96407,1.66079 -16.39888,8.96888 z"
      data-name="Ponto Chique do Martelo" id="ponto_chique_do_martelo" />
   <path class="neighborhood"
      d="m 11.062277,257.12442 1.252907,2.06284 -0.14745,0.45481 -1.032148,1.24812 -0.31982,1.12353 -0.01869,0.69155 0.259595,0.52336 0.26167,0.90339 0.299054,1.97706 0.334357,0.42782 0.897159,0.66041 0.693636,0.82861 0.826549,1.2336 0.182755,0.54619 0.699866,1.35404 1.825468,2.25536 -1.138062,2.14528 -0.311514,0.97608 0.04569,1.55133 0.606413,0.95739 0.402891,0.86185 0.04569,1.0737 -0.309437,1.0259 -1.050838,1.42674 -0.996842,1.14221 -0.510883,0.2596 -0.180677,0.45273 -0.508806,-10e-4 -0.94077,-0.43197 -0.859776,-1.31666 -1.545107,-1.5098 -0.863929,-0.60018 -1.067454,-0.43404 -0.63341,-0.86186 -1.040455,-0.50465 -0.483884,-0.0727 -0.508805,0.0685 -1.096527,0.42573 -0.560724,0.0208 -0.431965,-0.21599 -1.044608,-0.0997 -1.144292,-0.0748 -0.510883,0.11627 -0.357201,0.33228 -0.07892,0.6438 -0.0021,0.5981 0.398736,1.57626 -0.107987,1.5991 0.04777,0.5005 0.809935,1.4122 0.380047,0.3115 0.533725,0.1703 0.456887,0.26376 0.63341,0.7414 0.658331,1.0529 0.888852,0.48182 2.060143,0.12666 0.915847,0.40912 0.253364,0.43196 0.1246,0.47766 0.172371,1.50357 0.303207,0.3842 1.146369,0.004 1.426732,-0.51919 0.535803,-0.0707 1.603254,0.26997 0.508806,-0.26167 1.096526,-0.0913 0.483884,0.0976 0.07269,0.45481 -0.05192,0.59603 -0.566955,1.40597 -0.107987,1.14428 0.228444,0.47974 0.328127,0.38212 0.839009,0.55242 0.27621,0.98023 0.481806,0.16821 0.508806,0.0249 0.332281,-0.35514 0.08307,-1.12145 0.205598,-0.47764 0.562802,-0.85563 1.686326,-1.28344 0.5628,-0.2845 0.558648,-0.0935 0.51088,0.003 0.481808,0.19314 0.735172,0.74348 0.830703,2.41319 0.429888,0.33643 1.094449,0.33852 0.938695,0.64794 1.576257,0.6251 0.508805,0.0748 0.560724,0.0249 0.357203,-0.30736 0.23052,-0.45275 -0.504652,-0.83692 -0.176524,-0.57526 -0.09553,-1.1443 0.05192,-0.50257 0.23052,-0.42781 0.79332,-0.76218 0.3842,-0.35512 0.483884,-0.14121 0.967768,0.17029 0.99269,0.0519 0.535803,-0.38005 1.376885,-0.66248 0.56072,-0.14122 2.31974,-0.42158 1.19621,-0.0436 1.50149,0.36344 1.06953,0.004 1.04253,0.12453 1.01761,0.29075 0.83694,0.62302 3.05075,1.32498 0.40705,0.26374 0.35097,0.95531 0.0249,0.4548 -0.2326,0.47559 -0.58564,0.21182 -1.12145,0.13915 -1.09445,-0.0271 -0.55865,-0.24092 -0.5358,-10e-4 -1.04461,0.40081 -0.3842,0.30944 -0.82032,1.28551 -0.10591,0.90755 0.0976,1.02592 0.5545,1.36234 0.1246,0.45482 -0.002,0.52541 -0.18068,0.47557 -0.893,0.45067 -0.81616,0.6168 -0.20768,0.54825 -0.30736,0.38212 -0.43404,0.28452 -0.48388,0.16407 -0.53374,-0.0727 -0.71024,-0.71856 -0.53374,-10e-4 -1.43088,0.97192 -1.12352,0.45067 -0.61056,0.0208 -1.551341,-0.57943 -0.508805,-10e-4 -0.585646,0.14122 -0.3842,0.28451 -0.205598,0.47765 -0.07892,0.59603 0.04984,0.45273 0.355125,0.36136 0.201444,0.42988 0.172372,1.48074 0.326051,0.9553 0.355125,0.31152 0.431964,0.21598 0.483884,0.17029 0.508805,-0.0228 0.50882,0.16821 0.4548,0.90963 0.80994,0.79124 0.93868,0.69571 1.1713,0.31358 0.5088,10e-4 1.53058,-0.51919 0.55864,0.0499 0.5088,0.28866 0.38006,0.28868 0.0665,2.38619 -0.5088,0.1184 -0.56073,-0.0748 -1.11729,-0.45688 -1.04461,-0.0519 -1.29797,-0.007 -1.07161,0.13914 -3.385112,-0.012 -1.019687,0.0913 -0.508805,-0.0976 -1.042532,-0.40912 -1.042531,-0.0748 -0.334357,0.35512 -0.05815,1.62402 -0.205599,0.42782 -0.483884,0.1184 -1.680094,0.0167 -2.367503,-0.31774 -2.801542,0.012 -2.340504,-0.10587 -0.46104,0.23883 -0.255442,0.49842 -0.07892,0.52542 0.251287,0.50257 0.839009,0.57525 0.558647,0.17031 2.953148,0.1308 2.060141,0.48389 2.674861,-0.0603 1.042531,0.14745 1.603256,0.29281 1.474496,0.86394 0.533727,0.0748 1.682172,-0.35306 1.734097,-0.54202 1.47657,0.007 0.50881,0.28866 0.30321,0.42989 0.12252,1.00308 -0.56487,1.40596 0.0457,1.07368 0.42988,0.83901 2.28236,2.18059 1.11106,1.74656 0.32813,1.07368 -0.006,1.05084 -0.10384,0.47765 0.0498,0.57319 -0.23259,0.40496 -0.81617,0.49635 -0.56072,0.0457 -1.57834,-0.22015 -1.06953,0.2596 -2.31765,0.0145 -0.359287,0.38005 -0.12876,0.57317 0.681177,1.3146 0.40705,0.35928 1.01761,0.12254 2.16605,-0.25336 0.53373,0.0499 1.95838,0.89092 0.45689,0.24092 0.35512,0.31151 -0.054,0.45273 -0.48389,0.11627 -1.60325,-0.0997 -0.53581,0.16405 -0.30736,0.38005 -0.23259,0.54826 -1.14284,0.78148 -0.3788,0.59686 -0.0152,0.66934 -0.12876,0.45273 0.0498,0.54827 0.32813,0.33644 0.48388,0.28866 1.01761,0.1703 1.45166,-0.28036 1.01968,0.12253 0.53373,0.24092 1.19206,0.81616 1.47449,0.60225 0.22845,0.4299 0.50673,0.21805 1.0446,0.14745 0.40497,0.33435 0.0498,0.45481 -0.15575,0.54827 -1.06953,0.18692 -0.81824,0.56902 -0.0831,1.55134 -0.12876,0.52334 -0.33229,0.33435 -0.28243,0.57111 -0.004,1.02592 -0.28451,0.97816 -0.002,0.47764 0.48181,0.216 1.04461,-0.25752 1.01968,0.0499 0.86393,0.43404 0.50881,10e-4 0.45896,-0.26168 0.63757,-0.0685 1.62817,0.31566 0.51088,-0.18898 0.35721,-0.30736 0.46104,-0.2139 0.55864,-0.0457 0.91585,0.55243 0.45689,0.16821 0.48388,0.0499 1.07161,-0.37797 0.40912,-0.28452 0.53373,-0.0935 1.47865,0.0291 0.43196,-0.21183 0.23675,-1.52851 0.30944,-0.95322 0.28244,-0.50051 0.30736,-0.28451 0.81616,-0.33228 2.17436,-0.38628 0.51089,-0.1869 1.01968,-0.0145 0.5628,-0.13706 1.23775,-1.23152 0.48388,-0.0436 0.38005,0.29074 0.2949,0.95947 -0.23467,0.45065 -0.4112,0.28244 -0.28452,0.38004 -0.31566,0.88056 -0.28452,0.40496 -0.0291,0.47766 0.12252,0.45481 0.45274,0.41119 0.19937,0.50258 0.0145,0.95531 -0.3842,0.28451 -0.5358,-0.007 -0.46104,0.18691 -0.11214,0.97816 -0.15991,0.50049 -0.43612,0.3302 -0.10799,0.47767 0.91377,0.4631 0.44858,0.93662 0.0395,1.028 0.22428,0.50257 0.43196,0.22015 0.43612,-0.28244 0.53374,0.0768 0.70608,0.84316 0.50674,0.14744 0.38834,-0.40288 0.31567,-0.92832 0.56073,0.0291 1.49942,0.44443 0.17237,0.43197 0.0665,1.00307 -0.5441,0.83279 -0.0809,0.45272 0.2762,0.3842 0.75802,0.6521 0.53373,0.10174 1.07576,-0.44443 2.14528,-0.31359 0.48181,0.19522 0.74971,1.36857 0.32813,0.38628 0.40498,0.26583 0.48596,-0.0913 0.72062,-0.66041 0.45688,0.17029 0.24922,0.47974 0.0727,0.4548 0.53372,0.10173 0.50882,0.004 0.53788,-0.20975 0.38628,-0.33021 0.4361,-0.21183 0.96986,-0.0851 0.43196,0.24297 0.35305,0.31359 -0.0976,1.83793 0.32813,0.33851 0.46104,-0.21182 0.108,-0.45274 0.5358,-0.11427 0.27622,0.40912 0.0145,1.00308 -0.69571,0.63964 -0.0291,0.45273 0.30113,0.38628 0.0665,0.9553 -0.15784,0.47766 -0.38628,0.40288 -0.31566,0.9034 -0.43612,0.23467 -1.61156,0.36759 -0.5358,-0.004 -1.14222,-0.34474 -0.98854,-0.51296 -1.0446,-0.0809 -2.07054,0.45896 -0.89922,0.49219 -1.02178,0.32605 -0.36134,0.40288 0.35097,2.89292 -0.20975,0.45275 -0.4112,0.25958 -2.02069,0.60227 -1.02384,0.44443 -0.5088,-0.1973 -0.96986,0.23051 -0.67079,0.71025 -1.0716,-0.0107 -0.38628,0.33021 -0.15782,0.50049 -0.87433,0.63756 -0.13291,0.45274 0.0727,0.52542 0.60018,0.91376 0.39666,1.03216 0.3219,1.00723 0.28867,1.55549 -0.44235,0.88054 16.43108,5.13934 1.42612,14.94538 6.77333,7.97059 7.84307,7.97038 7.129925,4.64944 9.4293,-7.22316 16.59515,-9.38195 16.0423,-0.99622 8.35999,-7.88774 6.25665,-3.40421 11.92473,-1.24543 10.17819,10.54472 11.7644,0.66415 10.3385,8.96681 11.40783,3.65322 14.26004,-5.97794 9.98192,-8.30266 8.19945,-14.94538 2.13906,-15.94262 -3.92154,-15.27911 1.78248,-5.97899 0.35659,-8.96887 -1.97853,-4.23512 -6.57751,-1.07972 -6.77353,7.64018 -9.26899,5.97919 -10.89092,4.06898 -15.68593,-1.99306 -2.85201,-5.31462 -0.71295,-6.64354 3.40441,-12.70621 6.93408,-3.5712 1.26559,-9.05258 3.36891,-10.8799 11.60386,-3.73755 7.13014,-1.32892 2.65574,-3.90367 -0.87326,-5.06646 -1.62217,-3.90388 4.2779,-7.30935 2.13907,-6.645 0.9092,-7.70849 v -3.98716 l -2.74048,-0.42699 0.13374,-0.60225 0.0107,-0.61244 -0.401,-0.17652 -0.28972,-0.0312 -0.51254,-0.29076 -0.31194,-0.29074 -0.16716,-0.41536 -0.0445,-0.63341 0.0335,-0.62301 0.34536,-0.42575 0.45668,-0.29073 0.16719,-0.22846 -0.10532,-0.31816 0.11653,-0.41909 0.23384,-0.51917 0.24504,-0.50882 0.40103,-0.56072 0.39002,-0.87224 0.42324,-0.60226 0.49034,-0.5088 0.25626,-0.6438 0.0891,-0.66456 -0.23404,-0.42574 -0.43447,-0.80993 -0.45668,-0.32189 -0.45688,-0.5192 -0.51234,-0.58148 -0.27848,-0.46728 0.2004,-0.30112 0.19584,-0.39355 -0.53,-0.0323 -0.51254,-0.28036 -0.85769,-0.70609 -1.04732,-0.84109 -1.12518,-1.00723 -0.46789,-0.45688 -0.4679,-0.86185 -0.32812,-0.86871 0.12745,-0.58503 -0.23383,-0.65417 -0.31194,-0.56073 -0.40103,-0.87223 0.0107,-0.61285 -0.17818,-0.43612 -0.62385,-0.94494 -0.70196,-0.71648 -0.73516,-0.5088 -0.70195,-0.30113 -0.50133,-0.41535 -0.81326,-0.58149 -0.71295,-0.60225 -0.45688,-0.56095 -0.44547,-0.71648 -0.32314,-0.43611 -0.34536,-0.20768 -0.12254,-0.22844 -0.20061,-0.4465 -0.41223,-0.53995 -0.70174,-0.42575 -0.51754,-0.50526 -0.55697,-0.29075 -0.46291,-0.52292 -0.32314,-0.36344 -0.40103,-0.135 -0.66852,-0.20767 -0.36757,-0.43612 -0.0107,-0.36342 0.33415,-0.5194 0.21162,-0.36343 0.4569,-0.57112 0.60142,-0.53996 0.69074,-0.39457 1.00265,-0.46727 0.96923,-0.58171 0.34537,-0.33228 0.91356,-0.23882 0.59042,-0.21807 0.42345,-0.69571 0.27848,-0.76861 -0.10027,-0.43611 -0.33415,-0.35305 -0.39002,-0.11427 -0.58419,-0.0481 -1.3258,-0.27019 -0.80225,0.17674 -0.85272,-0.12827 -0.32314,-0.3946 -0.0557,-0.49841 0.15597,-0.35326 0.10027,-0.34266 -0.2006,-0.61264 -0.0444,-0.65419 0.1894,-0.36364 0.40101,-0.21805 0.67951,0.0831 0.53477,0.0519 0.96923,-0.0831 1.16982,-0.25958 0.98022,-0.35306 0.59063,-0.31152 0.3676,-0.5088 0.5682,-0.82052 0.60164,-0.73725 0.26727,-1.08012 -0.0403,-0.44941 -0.0935,-0.53704 -0.43446,-0.65439 -0.958,-0.41535 -1.09175,-0.30113 -1.29735,-0.0484 -1.06953,0.0831 -1.20929,0.13146 -0.92479,0.14538 -1.40368,-0.0831 -1.14137,0.0555 -0.9468,0.40518 -0.7466,0.56072 -0.4627,0.81679 -0.50133,0.99705 -0.1894,0.91376 -0.0719,0.42948 -0.90256,0.6334 -1.08054,0.11427 -1.3987,0.038 -1.27014,-0.2596 -1.10275,-0.48824 -1.05853,-0.29075 -1.55964,0.0208 -1.4259,0.0415 -1.48676,0.24256 -1.16464,0.10013 -1.49297,-0.13498 -1.65995,-0.36343 -1.35904,-0.59188 -0.53476,-0.40496 -0.20061,-0.66477 0.0781,-0.55035 0.27851,-1.14243 0.54577,-1.94197 0.36779,-0.83069 0.53456,-0.79976 0.39001,-1.12167 0.0221,-0.83069 0.1784,-0.56093 0.25605,-1.19434 -0.0444,-0.93454 -0.24505,-0.57132 -0.41224,-0.48804 -0.6573,-0.51918 -0.99144,-0.38441 -1.4261,-0.3842 -0.77983,-0.34267 -0.27849,-0.49864 -0.23404,-0.77877 -0.11134,-0.72707 -0.45688,-0.89301 -0.44548,-1.05935 -0.33436,-0.97628 -0.32292,-0.88284 -0.50133,-0.6334 -1.1364,-1.17358 -1.11397,-1.16339 -0.57942,-0.42575 -0.6685,-0.29074 -0.6733,-0.10027 -0.5682,0.14536 -0.81325,0.60248 -0.91356,0.7686 -0.91959,0.74411 -0.60164,0.8309 -0.71296,0.5088 -1.30357,0.86207 -1.42591,0.45688 -1.24168,0.58524 -1.2365,0.52956 -0.7576,0.54017 -0.68574,0.83755 -0.47288,1.19808 -0.42345,1.46432 -0.3626,1.50212 -0.21163,1.78643 -0.14474,1.50585 v 1.24605 l 0.25606,1.18396 0.52376,0.94514 0.53476,0.63341 0.12254,0.3842 -0.0275,0.37756 -0.30695,0.19376 -0.53476,0.0208 -0.45668,-0.18692 -0.81325,-0.41556 -0.59043,-0.36343 -0.59041,-0.31152 -0.86892,-0.34265 -0.76881,-0.47765 -0.41224,-0.5921 -0.3898,-0.66456 -0.35659,-0.91397 -0.36759,-0.88284 -0.25626,-0.34265 -0.5682,-0.33228 -0.63507,-0.0623 -0.99644,0.19065 -0.68575,0.0689 -1.26993,-0.0727 -0.91356,-0.47765 -0.45688,-0.48826 -0.33416,-0.79954 -0.24505,-0.89322 v -0.59188 l -0.17819,-0.69592 -0.40123,-0.59186 -0.60142,-0.73747 -0.59043,-1.09049 -0.16717,-0.89302 0.26728,-0.34286 0.64628,-0.21807 0.73517,-0.30112 0.86892,-0.29076 0.25627,-0.33248 0.12253,-0.33228 0.0559,-0.92436 -0.0669,-1.44356 0.0221,-1.06973 0.11133,-1.27742 0.17839,-1.3397 0.0333,-0.87246 v -0.65438 l -0.25628,-0.53995 -0.54599,-0.41556 -0.90234,-0.36344 -1.01366,-0.42573 -1.27014,-0.51939 -1.2365,-0.44652 -1.16984,-0.34287 -1.20328,-0.40497 -0.99144,-0.45688 -1.11397,-0.58169 -0.83568,-0.62324 -0.76861,-0.7061 -0.31194,-0.43633 0.0333,-0.36343 0.36758,-0.45709 0.54598,-0.56072 0.57921,-0.71669 0.44567,-0.62323 0.28972,-0.84131 0.52354,-0.71669 0.30071,-0.45688 0.50133,-0.22844 0.95822,-0.24941 0.91336,-0.30114 0.64628,-0.39458 0.24506,-0.47787 -0.0107,-0.57131 -0.31194,-0.70609 -0.45668,-0.55056 -0.61285,-0.73745 -0.51232,-0.72707 -0.0557,-0.39459 0.0891,-0.46748 -0.14496,-0.47765 -0.44546,-0.62324 -0.59042,-0.43632 -0.66852,-0.58148 -0.59041,-0.71669 -0.26749,-0.5194 -0.51234,-0.79976 -0.59062,-0.48824 -0.8465,-0.28038 -0.7576,-0.0519 -0.395,0.18025 -0.25128,0.40144 -0.2004,0.73745 -0.39001,0.86206 -0.51235,0.644 -0.41721,0.31505 -0.61285,0.28057 -0.47392,0.39106 -0.73538,0.45688 -0.89113,0.55054 -0.22284,0.46748 -0.35035,0.86559 -0.35658,0.44671 -0.54078,0.0897 -0.86912,-0.0831 -0.78232,-0.17528 -0.96632,-0.1678 -0.8496,-0.009 -1.10005,0.22679 -0.85791,0.50901 -0.64878,0.57276 -0.26458,0.4866 -0.0107,0.49861 0.12253,0.61286 0.0447,0.86206 0.64773,0.001 1.15863,0.78938 -0.15243,1.06433 -25.13082,23.7342 -18.690815,6.23028 -16.61404,16.61404 -18.69079,2.07676 -6.23027,-18.6908 -44.48057,43.78361 z"
      data-name="Padre Brito" id="padre_brito" />
   <path class="neighborhood"
      d="m 422.90806,240.30144 -3.67192,1.74448 -3.20837,4.65215 2.60237,3.90429 -5.34744,2.99054 -2.60259,6.06412 v 5.31628 l -3.20837,4.98401 -1.42613,9.9678 -1.78247,7.30936 4.27811,8.30597 0.46334,6.894 -9.01935,9.38528 -4.63449,2.65763 -1.84084,2.65991 0.4681,-0.26999 0.93579,-0.12467 2.36168,0.6438 0.46789,0.26976 0.7576,0.16615 1.64874,0.0831 2.85201,-0.22844 5.70401,-1.07971 1.04732,0.0831 0.53476,0.0623 0.28949,-0.16613 0.42346,-0.31132 0.66829,-0.0415 0.24528,0.14538 0.958,0.76818 0.60164,1.37024 0.46788,0.20768 0.71296,0.0208 0.55699,-0.3113 0.15597,-0.39459 -0.15597,-0.72665 -0.11134,-0.93434 0.24504,-0.29074 0.40104,-0.16615 1.09175,-0.31151 0.42345,0.16614 0.15596,0.39458 -0.17818,0.80974 -0.0447,0.56052 0.49012,1.49504 0.0224,0.78896 -0.20063,0.60205 -1.11397,1.43276 -1.78248,1.95173 -1.29236,1.16278 -0.0891,0.47744 0.24507,1.45332 0.37879,0.24921 0.91358,0.24921 0.62384,0.39438 0.557,0.99664 0.22284,1.34968 -0.0891,1.05872 0.13354,0.58149 0.3788,0.83051 0.42345,0.45668 0.57921,0.10386 0.89134,-0.0415 0.53476,-0.22844 0.40102,-0.37362 0.62386,-0.93432 0.24506,-0.0831 0.77982,-0.0208 1.20326,0.58128 1.3146,1.18354 0.93579,0.35284 1.76024,-0.53974 0.62387,-0.0208 0.17818,0.35305 -0.15597,0.68512 -0.33416,0.12467 -0.64627,-0.10387 -0.42325,0.14536 -0.13374,0.45668 0.24507,0.72667 0.15595,0.60205 -0.35636,0.18691 -1.3146,-0.8928 -0.44567,0.10386 -1.64873,1.18334 -0.0893,0.31152 0.17838,0.51897 1.40368,0.97587 1.09176,0.74742 0.13373,0.31151 0.13355,0.66436 0.49032,0.16615 0.62386,-0.3946 0.53476,-0.56051 0.3788,-0.7682 1.20307,-0.74741 0.71316,-0.35306 1.31458,-0.45668 1.29216,-0.32709 1.64894,-0.0831 0.69073,-0.20746 0.77983,-0.4569 0.66829,-0.85125 0.40103,-0.0829 1.5152,0.87184 0.3788,0.62301 0.6685,0.22824 0.7574,-0.39437 0.35658,-0.49843 0.17818,-0.60205 0.44567,-0.29054 0.49012,-0.0415 0.53476,-0.0208 0.28971,-0.14536 0.20061,-0.31152 0.0221,-0.29054 -0.1385,-0.41202 -0.21807,-0.35618 -0.28949,-0.60225 0.13353,-0.37361 0.49032,-0.18691 0.46789,0.0208 0.17819,0.33228 0.35657,0.20747 0.86892,-0.0208 0.28971,-0.249 0.31192,-1.16278 0.24507,-0.20768 0.28969,-0.0208 0.15597,0.7061 -0.0891,0.26977 -0.44568,0.33228 -0.20062,0.49823 0.17818,0.3115 h 0.40124 l 0.5792,-0.39458 0.4679,-0.0415 0.62385,0.12467 0.26748,-0.16615 0.0221,-0.26977 -0.44566,-0.66436 -0.0891,-0.43612 0.17818,-0.39436 0.71316,-0.43612 0.84668,-0.10387 0.557,0.14536 0.35636,-0.10387 0.4679,-0.58129 0.95821,-0.91356 0.4679,-0.16613 0.28971,0.0831 0.24507,0.41536 0.33414,0.1244 0.26748,-0.14517 0.4679,-0.51919 0.35637,-0.0623 0.49032,0.16614 0.24507,0.47744 0.5792,0.18691 0.98044,0.0831 0.40101,0.10386 0.0447,0.22844 -0.24507,0.33208 0.11133,0.24922 0.57942,0.12453 1.35902,0.0831 0.51255,0.1869 0.22284,0.14518 0.53476,0.2492 0.80204,1.03817 1.1364,0.99663 0.28951,0.43592 0.22284,0.10386 0.0891,-0.26997 -0.11133,-0.53975 0.20063,-0.22844 0.31193,0.10387 0.91336,0.76819 1.38144,1.55714 0.22284,-0.0623 0.26748,-0.47744 0.22284,-0.68514 0.3786,-0.12453 0.31213,0.10387 0.20042,0.62282 0.11146,0.43591 0.40102,-0.14516 0.33416,-0.29075 0.62385,-0.16614 0.82448,0.0208 0.40101,-0.10387 0.55699,0.0623 0.3788,0.22844 0.62385,0.0831 0.2675,0.0415 0.44546,0.31131 0.20062,0.41534 -0.0669,0.43591 -0.3788,0.3946 -0.55698,0.56051 -0.0447,0.35305 0.26749,0.3736 0.60163,0.14537 0.66831,-0.0208 0.31193,-0.24921 0.44567,-0.33207 0.40102,0.0208 0.49032,0.26978 0.53476,0.14537 0.60143,-0.0415 h 1.06953 l 0.51255,0.18691 0.53476,0.85127 0.51233,0.33206 0.82448,0.20768 2.18351,0.24922 0.9582,-0.31152 0.51235,-0.45668 0.6685,-1.49484 -0.0644,-0.57818 -10e-4,-0.81285 0.64629,-2.05556 0.22263,-0.53976 0.66851,-0.35304 0.84669,-0.0415 1.28115,0.33747 0.8251,0.06 1.37274,-0.126 0.72125,-0.44297 1.40971,-2.08487 0.422,-0.57649 -0.008,-0.56531 0.19666,-0.21389 0.20498,0.0307 0.46705,0.16034 0.73767,-0.45066 0.34432,-0.80184 0.23758,-0.0917 0.29511,0.0381 1.4014,1.31376 0.62303,1.27534 -0.60724,-1.66867 -0.81991,-3.90347 2.95875,-4.73397 0.96258,-3.90347 2.13906,-2.9899 3.56496,1.3289 7.95002,0.5813 -1.78248,-4.31883 6.06039,-1.66099 1.78248,-1.6612 1.42611,-5.31545 3.20838,-5.31587 2.38847,-2.90704 2.95897,-4.4021 3.81458,-3.90388 -3.10163,-2.07655 -19.00128,-12.54257 -3.92153,-1.99368 -11.7644,-16.28136 -20.67702,-0.99684 1.4261,-16.94695 -2.49543,-2.99073 -4.99105,0.33228 -0.96259,4.23698 -3.67191,2.74132 -5.34744,0.66478 -3.92154,1.66141 -5.704,2.99052 -6.6666,0.58149 -8.9124,2.32618 -4.74144,-1.24606 -2.74506,-6.06433 z"
      data-name="Colônia Rodrigo Silva" id="colonia_rodrigo_silva" />
   <path class="neighborhood"
      d="m 494.10213,330.68019 0.3568,0.49988 0.40498,0.31359 1.04252,0.22428 0.4818,0.43405 0.0707,0.47765 -0.31358,0.97607 -0.33644,0.38005 -1.25851,1.04046 -0.18276,0.45273 -0.0187,2.05599 -0.0809,0.45273 -0.23468,0.45273 -1.07991,1.01762 -0.004,0.47765 0.17444,0.47973 0.5088,0.0519 1.07576,-0.42159 1.055,-1.13805 0.82032,-0.56696 1.58664,-0.4652 1.0716,-0.20559 0.97192,-0.32605 0.84524,-0.54204 0.79748,-0.71024 0.90339,-1.14015 0.48596,-0.25958 1.14845,-0.13294 0.48388,0.14744 0.96362,0.5815 0.5088,0.17029 2.19098,-0.0291 0.3032,0.38422 -0.23468,0.54825 0.14331,0.95739 0.35512,0.33642 0.22429,0.43198 0.35512,0.31358 0.48388,0.0291 0.75803,0.62719 1.01761,0.29489 0.40496,0.29075 0.17444,0.47765 -0.20974,0.45273 0.12466,0.45482 0.32812,0.3385 0.0187,0.54827 -0.66871,0.73517 -1.36234,1.11314 -0.67079,0.85354 -1.25852,1.01762 -0.66872,0.71025 -0.77879,1.4288 -0.33434,0.37797 -0.97608,0.75801 -0.46104,0.28246 -0.51296,0.16197 0.27205,0.91171 0.38004,0.33642 0.14745,0.47974 -0.28244,0.42781 0.0187,0.57319 0.45688,0.24297 0.19937,0.47973 -0.38834,0.56903 -0.0107,1.10068 -0.16615,1.55135 0.35306,0.31358 0.46104,-0.18692 0.25958,-0.4278 -0.0727,-0.45481 0.5171,-0.80787 0.4112,-0.2845 0.28451,-0.38004 0.56073,-0.13915 0.5088,0.19521 0.35306,0.36136 0.12253,0.47972 -0.004,0.47766 0.38004,0.31358 1.0986,-0.30112 0.56488,-0.37797 0.58564,-0.0187 -0.10587,0.47767 -0.72062,0.82861 -1.04876,0.32606 -0.28452,0.40497 0.0872,1.52849 1.14844,-0.15784 0.74556,-0.63756 0.23466,-0.47557 0.3842,-0.33228 0.45896,0.17029 0.0707,0.4548 -0.25751,0.40498 -0.0811,0.5005 0.0415,0.95738 0.32188,0.90962 0.30322,0.40912 0.39874,0.95946 0.17444,0.47766 0.0457,0.50256 0.0291,2.36544 -0.13706,0.9553 -0.20767,0.45274 -0.108,0.61887 0.19936,0.47973 0.87016,-0.4465 0.63133,0.79332 0.26999,0.9823 0.97192,-0.18276 0.69571,-0.73516 0.46104,-0.30736 0.48389,0.0519 0.28451,-0.38005 1.09653,-0.0623 0.96776,0.1516 -0.0809,0.45273 0.0457,0.4548 1.26681,0.94286 0.19938,0.43196 0.0976,0.52542 -0.10587,0.45274 0.0976,0.47973 1.163,0.94077 0.65416,1.05707 0.93663,0.58149 -0.0811,0.45272 1.09652,0.0561 1.39765,0.58565 0.45896,-0.18692 0.18276,-0.42988 0.0312,-0.47765 0.74556,-0.68534 0.2326,-0.50049 0.92416,-0.47143 0.4818,0.0768 0.35512,0.31359 0.91171,0.55657 0.5088,0.19522 0.61057,0.0768 0.48596,-0.0436 1.07576,-0.51711 0.5088,0.004 0.99268,0.2222 0.37797,0.38628 0.0332,2.00823 0.14746,0.57318 0.78501,0.65211 0.48596,-0.18692 -0.19521,-1.05291 0.18274,-0.42781 0.51296,-0.18899 1.04462,-0.0375 0.5358,-0.11627 0.23468,-0.42781 0.0809,-0.50051 0.36135,-0.45065 0.40913,-0.25959 1.01968,-0.0167 0.53581,0.0997 1.34572,0.60849 0.5109,-0.0915 0.69362,-0.71025 0.84732,-0.61472 0.23468,-0.47557 0.0811,-0.4548 -0.0479,-0.52543 0.48804,-0.21183 1.0716,-0.25337 0.43612,-0.23467 0.46312,-0.40289 0.35928,-0.5898 0.20975,-0.31359 0.2326,-0.42781 -0.0976,-0.45481 0.11213,-0.95531 0.20768,-0.47557 0.30944,-0.38004 0.48596,-0.2596 0.5628,-0.16199 2.72886,0.0457 0.48389,-0.0436 0.3842,-0.30736 -0.14331,-0.93246 -0.25128,-0.40912 -0.14745,-0.57526 0.15784,-0.45066 0.48596,-0.16406 2.08921,0.0415 2.06222,0.42159 0.92001,-0.39874 1.45788,-0.41742 1.55549,-0.0831 0.43612,-0.25959 0.51711,-0.90338 0.89924,-0.63758 0.46104,-0.16406 1.45372,-0.20352 0.48596,-0.18691 0.38628,-0.33228 0.80163,-1.30628 0.46104,-0.18899 0.28452,-0.42781 -0.0727,-0.52541 -0.40497,-0.3136 0.30944,-0.35512 2.07468,-0.96362 0.23258,-0.47557 -0.35304,-0.31359 -0.99477,0.0145 -2.07052,0.62926 -0.94908,0.54203 -0.35928,0.30736 -0.43404,0.21183 -0.48596,0.0685 -0.48388,-0.12467 -0.24921,-0.45481 0.054,-0.4548 0.6438,-0.75801 0.77048,-0.56904 0.41741,-0.90339 0.87016,-0.49427 1.48281,-0.29905 0.40912,-0.30736 0.98023,-1.16299 -0.12253,-0.45481 -0.72688,-1.36857 0.004,-0.47766 0.68117,-1.95422 1.00515,-1.20867 2.56688,-1.93969 1.3582,-0.75387 0.3842,-0.30736 1.3312,-0.6334 0.76632,0.007 1.27305,0.17652 4.66937,1.01345 3.10164,0.74743 3.67191,-2.07613 1.42611,-3.98634 1.31896,-4.23554 -0.35659,-5.31504 0.10693,-3.40506 2.38868,-5.23237 5.70403,-3.65427 2.49543,-4.6511 5.34744,-4.31883 6.8805,1.9102 2.38848,-6.22901 6.8805,1.24585 0.24941,-10.88076 -2.49543,-8.97053 v -13.95476 l -5.70401,-1.66142 -6.31003,-3.07338 0.24964,-2.90726 -5.53684,-8.11429 -10.86226,6.78517 -11.30088,-0.41534 -11.15842,4.73478 -9.26896,5.64858 -3.92154,9.6353 -4.6345,2.32576 -8.19944,-1.99346 -6.41696,0.99684 -3.8146,0.91356 -5.45438,3.07338 -3.81457,3.9039 -2.95898,4.40209 -2.38846,2.90704 -3.20839,5.31588 -1.42611,5.31545 -1.78248,1.6612 -6.06038,1.66099 1.78248,4.31883 -7.95004,-0.5813 -3.56496,-1.3289 -2.13904,2.98989 -0.96259,3.90348 -2.95875,4.73396 0.8199,3.90348 0.60724,1.66867 z"
      data-name="Ponte do Cosme" id="ponte_do_cosme" />
   <path class="neighborhood"
      d="m 662.56399,387.95233 0.38004,0.17238 1.85039,1.92098 0.85979,1.3416 0.22636,0.50466 0.45688,0.3842 0.14953,0.55033 0.75801,1.43712 0.60225,1.55756 0.19938,1.09861 0.35097,0.90962 0.55657,0.86393 1.15883,2.41943 -0.007,1.07576 0.39874,1.57832 1.13392,2.39658 0.78708,0.79332 0.27621,0.50258 1.74863,1.94384 0.88885,0.69778 0.96569,0.57942 0.45896,0.16822 0.51088,-0.0457 1.04255,0.29283 1.55133,0.77254 0.48388,0.12254 1.39974,0.60433 1.06953,0.29075 1.42464,0.69986 0.73517,0.79332 0.73103,1.43712 0.38004,0.36135 0.17652,0.45481 0.55657,0.86185 1.24398,0.96362 2.7704,1.59079 0.81201,0.72064 0.65833,0.93454 1.04046,1.1526 0.25128,0.45481 19.13834,2.35504 22.70912,1.74344 14.01022,-5.39645 -1.42591,-13.28438 3.10164,-9.54831 -3.45821,-4.06856 -1.06934,-13.28543 -0.71314,-12.28941 0.96256,-10.54617 -2.74504,-4.40127 -0.46334,-1.57772 3.31534,-7.05888 5.70401,-2.98949 2.03211,-4.23535 -1.78248,-16.94216 5.70381,-8.63764 0.46353,-6.39517 -4.63449,-8.63785 -4.27791,-8.63826 3.20838,-2.65784 0.24964,-4.23616 -0.71296,-6.6452 -5.76008,-3.97325 5.51045,-3.08731 -4.74144,-8.8881 -1.78248,-3.3228 -5.95343,-2.74132 -3.67212,-4.23658 -2.85201,-2.65825 -1.42589,-3.32303 -0.71295,-4.65213 -4.27812,-2.65825 -3.92133,0.99685 -2.38868,-0.74764 -4.6345,-6.97852 -4.38485,-4.23679 -9.62556,0.33228 -7.84288,-0.33228 -8.19944,-2.99094 -6.41696,-6.64624 -8.11556,-5.37797 1.69859,4.38091 -1.06954,3.32323 -0.60598,4.237 1.42589,4.32007 2.03211,6.7293 -6.77355,4.31987 -1.06952,3.65529 2.13904,3.3228 0.10693,6.89504 2.74506,3.73816 -1.31915,3.90431 -4.2779,4.65173 -2.13907,6.97768 -7.48629,-1.32912 -5.4546,3.40568 -5.34744,7.30976 -3.92152,11.29631 -1.42591,5.31587 -9.62556,7.97349 -6.77333,5.98001 -9.16203,-2.07654 -6.88049,-1.9102 -5.34744,4.31882 -2.49544,4.65111 -5.70402,3.65425 -2.38868,5.23239 -0.10693,3.40505 0.35657,5.31504 -1.31894,4.23555 -1.42611,3.98633 -3.67192,2.07612 -3.10164,-0.74741 -4.66936,-1.01347 0.61887,0.42782 0.0601,0.1599 0.40081,0.23884 0.48804,0.23052 0.56072,0.12254 0.65832,0.7684 0.40706,0.3136 1.52434,0.74762 1.37064,0.98646 0.53582,0.17029 0.93869,0.89093 0.37589,0.98023 0.38004,0.43196 0.50882,0.19522 0.51088,-0.14122 0.5088,-0.0208 0.53581,0.1703 0.45688,0.26374 0.99476,0.0768 0.48389,-0.13914 0.30944,-0.38212 0.6874,0.0519 1.39766,0.91585 0.32813,0.3842 0.20144,0.47766 0.95945,1.55964 0.20146,0.5981 0.24713,1.41219 0.17445,0.45481 -0.0291,0.47766 -0.30736,0.38004 -0.0291,0.47766 0.4278,0.95946 0.12253,0.9553 0.65834,0.79334 0.20145,0.5254 0.21597,2.0103 0.60435,1.53266 0.17444,0.66872 0.0208,0.55033 1.59495,2.18267 0.52957,0.93454 0.3032,0.3842 0.38212,0.28866 1.17129,0.0312 1.37483,0.3655 2.90329,0.58774 1.30006,0.10173 1.88777,0.0107 1.06952,0.12453 0.48388,0.0997 1.01761,0.60226 2.80363,0.3489 1.52641,0.2949 0.5628,-0.21183 0.9927,0.22013 1.14637,0.50674 0.40496,0.26582 0.78501,0.9117 0.83902,0.60225 0.5088,0.17029 1.17129,0.12467 1.26889,1.08199 1.82963,1.10898 1.16713,1.12975 0.50882,0.3136 0.96569,0.36343 1.83584,0.22429 1.50149,0.5088 0.20146,0.43196 0.93661,1.29383 0.35304,0.40912 0.45897,0.21805 0.45688,0.16823 3.92507,0.30736 1.50357,0.31773 2.00823,1.06331 1.73201,0.34266 0.56072,0.21807 1.06331,1.07991 0.5088,0.3385 0.99269,0.33851 1.68218,0.10387 2.47341,0.30113 1.63025,0.24713 1.1443,0.31567 0.48388,0.19315 1.39765,0.9636 0.88885,0.74556 0.73311,0.83901 0.5088,0.33851 0.53372,0.19314 1.09653,0.007 0.97192,-0.52127 0.35928,-0.30944 0.58772,-0.1869 1.04668,0.0519 0.93871,0.839 z"
      data-name="Mantiqueira do Palmital" id="mantiqueira_do_palmital" />
   <path class="neighborhood"
      d="m 797.16724,322.83815 -2.17476,-9.68391 -5.31173,0.7142 -3.24431,-0.0496 -1.03381,-2.2757 -2.13885,-6.97666 -3.20858,-3.32238 -4.31364,-7.02672 -6.73782,-6.59494 -3.20838,-4.9838 -4.31384,-7.69168 -8.56246,0.99103 0.71294,6.6452 -0.24962,4.23617 -3.20838,2.65783 4.27791,8.63827 4.63449,8.63785 -0.46353,6.39516 -5.70381,8.63764 1.78248,16.94217 -2.03211,4.23535 -5.70401,2.98948 -3.31534,7.05889 0.46332,1.57771 2.74506,4.40128 -0.96258,10.54617 0.71316,12.28941 1.06932,13.28542 3.45822,4.06857 -3.10163,9.54831 1.42589,13.28438 -14.0102,5.39645 -22.70912,-1.74344 -19.13834,-2.35504 0.95738,2.32389 0.6521,1.93761 2.77246,5.72562 0.1184,1.53057 0.4029,0.95738 0.0208,1.05291 0.2492,1.05292 0.40081,1.05291 0.68325,0.98231 0.0497,0.45481 0.32813,0.47973 0.76008,0.79124 1.37275,0.89301 1.14637,0.38628 0.96568,0.50672 1.59911,1.37066 0.48389,0.26583 0.35512,0.40704 1.93345,0.6791 1.50358,0.34267 0.43197,0.21598 0.30112,1.05291 -0.0312,0.98023 -0.77671,2.00407 -0.10386,0.45273 -0.0312,0.98023 0.0228,0.47766 0.37382,1.41219 0.0644,2.07883 0.25336,0.47973 0.38004,0.33644 0.94078,0.50673 3.53878,1.30628 2.2886,1.42257 1.72786,1.25021 0.30321,0.35928 0.55656,0.88885 0.40289,0.98023 0.0436,1.12352 0.14952,0.93247 -0.11426,1.96045 0.0976,0.95531 0.20144,0.50258 0.32813,0.3842 0.47972,0.95946 0.11627,1.9833 0.15161,0.45481 1.62193,1.84831 1.62611,1.17752 0.3032,0.43197 0.1516,0.45481 1.16715,1.12975 0.3032,0.43197 0.8307,1.84416 0.68532,0.79124 0.99063,0.67495 0.5358,0.21598 1.0446,-0.0665 1.4828,-0.56488 0.89508,-0.45065 0.43612,-0.33228 0.30736,-0.3572 0.054,-0.45481 0.36344,-0.97608 0.35928,-0.47765 0.53788,-0.33228 1.01968,-0.0415 0.58772,0.0976 0.42989,0.38421 0.5088,0.2409 1.09654,0.17445 1.53057,0.10176 2.27196,-0.20352 1.14637,0.004 1.22322,0.14953 1.52849,0.39043 1.20036,-0.0415 0.96776,0.0748 0.53788,-0.16407 0.74348,-0.71232 1.78601,-0.15991 0.30944,-0.42782 0.89508,-0.66456 0.51088,-0.11837 1.30214,0.006 1.60533,0.26997 2.13905,0.51295 0.89092,0.57734 1.21907,1.00931 0.94076,0.41119 0.86393,0.65003 0.30322,0.40704 0.48388,0.33644 1.55341,0.53372 1.49527,1.55965 0.43196,0.28867 0.53581,0.19521 0.51088,-0.16614 1.04668,-0.0665 1.58457,-0.54203 0.99475,-0.0187 0.76217,0.6251 1.71956,2.58764 1.24191,1.5368 0.812,0.74348 0.43196,0.28867 0.51089,0.0748 0.5088,0.027 0.48596,-0.16614 0.51088,0.027 0.4839,0.16821 0.40497,0.36136 0.55864,0.81616 0.72893,1.81924 1.67179,2.08714 0.63135,1.41219 0.27413,1.028 -0.44028,1.57626 -0.49012,0.90546 -0.38835,1.001 -0.21182,1.41012 -0.49219,1.36027 -0.0291,0.95531 0.32814,0.43196 0.5358,0.19314 0.56073,-0.0208 0.48596,-0.16614 0.48388,0.0976 0.40704,0.26583 1.44543,1.44126 0.99476,0.24298 0.96569,0.4112 0.48596,-0.0228 0.45896,0.17029 0.45689,0.40705 0.3032,0.43196 0.20146,0.50258 0.12666,4.90114 0.55658,0.83901 0.71024,0.71856 0.76217,0.60226 0.96361,1.22321 1.45166,0.67494 0.81201,0.65002 1.85039,2.18268 1.14221,1.20036 1.39975,0.60434 3.31657,0.11006 0.48388,0.0748 0.43196,0.26374 3.39342,0.20768 1.04668,-0.25752 0.947,-0.59395 0.51088,-0.14122 1.65934,-0.18275 2.24497,-0.0374 0.35513,0.31151 0.99476,0.1246 2.55232,0.0353 1.42467,0.62718 0.81201,0.6251 1.01552,1.12768 2.59388,1.73201 1.01346,1.36859 0.6251,2.48795 0.37796,0.90962 0.19938,0.90754 -0.007,1.00515 -0.13293,0.93039 0.0955,1.36235 4.29474,-18.06154 16.61405,-10.38378 V 485.3955 l 16.61404,-14.53729 8.30701,-16.61405 10.38379,-10.38377 10.38377,10.38377 h 16.61406 l 1.05146,-4.73147 -12.08464,-5.77566 -8.23517,-5.71171 -9.58963,-7.23957 -8.94812,-5.04776 -1.4261,-3.65301 -0.32086,-8.90035 -7.52201,-4.71589 -8.16395,1.72681 -2.88752,10.89321 -9.98212,4.98131 -8.16373,7.0404 -10.01764,0.92977 -4.63449,-6.3096 -4.95535,-6.24335 -5.38316,-14.34706 0.39229,-4.91527 -4.30469,-3.15978 -3.93046,-2.88503 -2.13906,-6.31043 0.35658,-11.29277 4.2779,-12.62169 6.83397,-7.70684 2.8271,-3.18824 -3.95706,-7.6898 -0.71294,-8.63681 -0.71316,-5.64732 v -2.32535 l -4.63448,-0.99643 -2.49543,-2.65762 -2.4597,-4.26899 z"
      data-name="São Sebastião dos Torres" id="sao_sebastiao_dos_torres" />
   <path class="neighborhood"
      d="m 910.14089,449.51298 3.10204,-13.95933 18.6908,-18.6908 -20.76756,-29.07458 -6.23026,-33.2281 -10.38378,-12.46051 8.30703,-24.92108 -10.38379,-18.6908 -7.05868,-14.11736 -2.33344,-0.0705 -4.99086,2.99032 -0.74866,4.60146 -5.31192,1.37897 -4.99087,2.99011 -3.92153,1.6612 -6.09611,5.93018 -5.31192,-1.27908 -9.30449,-0.0499 -3.88583,3.37224 -14.65212,1.27885 -3.92154,5.31567 -7.80736,2.04312 -6.09611,1.94342 -8.87666,6.36172 2.4597,4.26898 2.49543,2.65764 4.63448,0.99641 v 2.32535 l 0.71316,5.64732 0.71294,8.63681 3.95706,7.68981 -2.8271,3.18824 -6.83397,7.70684 -4.2779,12.62169 -0.35658,11.29276 2.13906,6.31044 3.93046,2.88503 4.30469,3.15977 -0.39229,4.91528 5.38316,14.34706 4.95535,6.24335 4.63449,6.3096 10.01764,-0.92977 8.16373,-7.0404 9.98212,-4.98131 2.88752,-10.89321 8.16395,-1.72682 7.52201,4.7159 0.32086,8.90035 1.4261,3.65301 8.94812,5.04776 9.58963,7.23957 8.23517,5.71171 12.08464,5.77566 z"
      data-name="Correia de Almeida" id="correia_de_almeida" />
   <path class="neighborhood"
      d="m 885.41669,284.37042 -1.24833,-2.49668 -10.38378,-16.61404 -1.88922,-43.45052 -14.15912,-4.01603 -3.17288,-4.27022 -3.20836,1.32933 -2.17479,1.94405 h -5.34744 l -1.06952,4.98484 6.45268,7.02836 1.03382,7.26075 -3.88583,-0.947 -7.12991,-1.32912 -7.8786,-0.0499 -2.45992,-0.9472 -1.81818,-2.70831 -2.8518,-4.98462 -2.49564,-4.98463 -3.56496,-3.98799 -6.41698,-3.32323 -17.82499,-2.32616 -3.20838,3.98777 -16.36338,2.04394 3.17286,6.26412 -1.06952,10.30154 -3.92133,3.32302 4.27789,17.94379 -5.31192,1.71125 -4.66998,-0.0499 -7.48651,5.98084 -6.67324,6.8888 -5.51045,3.08732 5.76008,3.97324 8.56246,-0.99103 4.31384,7.69168 3.20838,4.9838 6.73784,6.59495 4.31362,7.0267 3.20858,3.32239 2.13886,6.97665 1.03381,2.27571 3.24431,0.0496 5.31172,-0.7142 2.17479,9.68391 8.87666,-6.36172 6.09611,-1.94343 7.80736,-2.04311 3.92154,-5.31566 14.65212,-1.27887 3.88583,-3.37224 9.30449,0.0497 5.31192,1.27908 6.09611,-5.93017 3.92153,-1.6612 4.99087,-2.99012 5.31192,-1.37896 0.74866,-4.60147 4.99086,-2.99032 2.33344,0.0707 z"
      data-name="Costas da Mantiqueira" id="costas_da_mantiqueira" />
   <path class="neighborhood"
      d="m 892.47537,101.19598 -2.07673,-4.153513 -2.07677,-4.1535 2.07677,-22.844308 -12.46055,-8.307027 -2.07676,-39.458359 h -10.38376 l -29.0746,14.537293 -12.46052,-4.153519 -22.84431,45.688625 h -16.61405 l -8.30702,10.383785 -8.30702,-4.153518 -8.30702,12.460528 -18.6908,2.07676 -2.07676,8.307033 -40.70815,25.20039 -0.40123,8.39093 h -4.27791 l -4.97321,1.71207 1.78247,5.65065 -0.0177,5.6008 1.42592,3.32385 2.852,0.33248 3.56497,3.98862 4.63448,3.65613 -1.05167,6.03256 -2.49542,1.66181 -8.5739,2.94152 -4.26005,3.37348 -0.35657,4.3207 -0.0179,2.9413 -3.20837,4.32048 3.58281,8.69082 -6.06059,1.66181 -8.51429,9.18903 8.11556,5.37797 6.41696,6.64624 8.19944,2.99093 7.84287,0.33228 9.62556,-0.33228 4.38486,4.2368 4.6345,6.97852 2.38868,0.74764 3.92132,-0.99685 4.27812,2.65825 0.71295,4.65213 1.42589,3.32302 2.85201,2.65825 3.67212,4.23659 5.95343,2.74132 1.78248,3.3228 4.74144,8.88809 6.67324,-6.8888 7.48651,-5.98085 4.67,0.0499 5.31192,-1.71124 -4.27791,-17.9438 3.92133,-3.32301 1.06952,-10.30153 -3.17286,-6.26412 16.36338,-2.04395 3.20838,-3.98778 17.82499,2.32617 6.41698,3.32322 3.56496,3.988 2.49564,4.98463 2.8518,4.98463 1.81818,2.7083 2.45992,0.9472 7.8786,0.0499 7.12992,1.32912 3.88582,0.947 -1.03382,-7.26075 -6.45268,-7.02837 1.06952,-4.98483 h 5.34744 l 2.17478,-1.94406 3.20838,-1.32932 3.17287,4.27022 14.15912,4.01603 -0.18755,-4.31488 20.76756,-18.6908 v -14.53728 l -8.30701,-2.07676 14.53729,-26.99782 -6.23028,-53.99566 z"
      data-name="Senhora das Dores" id="senhora_das_dores" />
   <path class="neighborhood"
      d="m 566.6725,128.88974 0.48846,0.77151 0.52084,0.68802 0.88575,0.974 0.58481,0.66228 1.55695,1.64832 0.33415,0.51235 0.59581,0.65459 0.5574,0.84108 0.31733,0.87265 0.3734,1.90625 0.35078,0.96072 0.55157,1.07512 0.62947,1.07515 0.27848,0.58169 0.25088,0.80164 0.0667,0.66311 0.0335,1.11667 0.005,3.44326 -0.0557,3.72902 0.15598,0.9713 0.23405,0.91916 0.50134,1.27763 3.41543,5.36551 0.514,0.85417 0.19667,0.23716 0.0976,0.28701 0.22305,0.63258 0.27123,0.91045 0.23653,1.13308 0.0141,0.23467 0.0547,0.71316 0.0368,1.45974 -0.0395,0.45814 -0.044,1.48218 -0.0493,1.88404 -0.11013,1.42071 -0.20623,0.98936 -0.23156,1.04169 -0.0549,0.86498 v 0.63632 l 0.0204,0.56945 0.44422,2.13511 0.11774,0.87577 0.008,0.67681 -0.0847,0.67515 -0.05,0.18629 -0.112,0.54452 -0.20061,0.68554 -0.20062,0.68802 -0.15866,0.5842 -0.12547,0.61284 -0.0947,0.5842 -0.0667,0.644 -0.0255,1.19518 0.0831,1.42942 0.12066,3.0383 0.0305,0.95033 0.0307,0.39728 0.0587,0.87493 0.1096,1.3366 0.0603,1.39746 0.0528,0.72956 0.1088,0.57132 0.14184,0.53994 0.20622,0.54018 0.50092,0.9958 2.22192,2.2564 3.72632,3.65592 0.74784,0.71938 2.01259,1.9939 0.5412,0.43425 0.57317,0.38441 0.95988,0.50942 1.00204,0.35014 0.76528,0.16843 0.61016,0.0697 0.68512,0.008 5.417,-0.35617 2.05724,-0.0708 1.00723,0.0843 0.9144,0.13026 1.31645,0.30632 1.7829,0.64028 1.77957,0.82406 0.93433,0.42842 4.56948,2.143 2.01092,0.882 0.73912,0.39916 0.77588,0.55013 0.7711,0.63155 0.39334,0.40455 0.7142,0.78646 0.40663,0.65688 0.26727,0.52979 0.26458,0.53995 0.64338,1.65621 0.23322,0.541 0.34556,0.98749 0.35659,0.90402 0.73019,1.82546 2.6167,6.67823 1.10402,3.03185 0.75178,1.93387 0.76674,2.00116 0.35533,0.90796 4.07667,-7.52096 2.13906,-3.98779 1.06952,-8.97241 5.36531,-3.60567 7.46864,-4.70239 4.29577,-2.60882 6.04272,0.28244 h 3.20839 l 8.99505,1.9052 8.51428,-9.18901 6.0606,-1.66183 -3.58283,-8.6908 3.20839,-4.32048 0.0179,-2.94132 0.35658,-4.32068 4.26004,-3.37348 8.5739,-2.94152 2.49542,-1.66182 1.05168,-6.03256 -4.63449,-3.65614 -3.56496,-3.9886 -2.85201,-0.33249 -1.4259,-3.32385 0.0177,-5.6008 -1.78248,-5.65066 4.97321,-1.71206 h 4.27791 l 0.40122,-8.39094 -2.90372,1.79744 -16.61404,4.15352 -14.53729,-6.23028 -4.1535,10.38379 -10.38379,4.15351 -24.92107,-10.38378 -16.61404,-18.6908 -8.30702,4.15351 -10.38378,-6.23027 -20.76756,-2.07676 -2.43894,-0.40641 -0.3952,10.17485 0.0297,0.78398 0.007,0.55822 0.009,0.53706 0.0839,0.90026 0.4143,1.48095 0.17964,0.53871 0.28223,0.6656 z"
      data-name="Pinheiro Grosso" id="pinheiro_grosso" />
   <path class="neighborhood"
      d="m 605.13922,254.20096 5.53684,8.11431 -0.24964,2.90724 6.31002,3.0734 5.70402,1.6614 v 13.95476 l 2.49541,8.97055 -0.24941,10.88074 -6.88049,-1.24585 -2.38847,6.22903 9.16201,2.07654 6.77335,-5.98002 9.62556,-7.97348 1.42589,-5.31588 3.92152,-11.29631 5.34744,-7.30976 5.45461,-3.40568 7.4863,1.32913 2.13905,-6.97769 4.2779,-4.65173 1.31916,-3.9043 -2.74505,-3.73816 -0.10693,-6.89504 -2.13906,-3.3228 1.06952,-3.6553 6.77356,-4.31986 -2.0321,-6.7293 -1.4259,-4.32008 0.60599,-4.237 1.06953,-3.32322 -1.69858,-4.38091 -8.99505,-1.90522 h -3.20838 l -6.04273,-0.28244 -4.29577,2.60883 -7.46864,4.7024 -5.3653,3.60565 -1.06953,8.97243 -2.13905,3.98777 -4.07668,7.52097 -13.52902,9.55744 -4.4563,1.16298 z"
      data-name="Galego" id="galego" />
   <path class="neighborhood"
      d="m 209.17667,0 -0.45703,0.14453 -0.19532,0.2207 -0.21679,0.52735 -0.41211,0.32226 -0.28516,0.31446 0.21289,0.38476 0.40625,0.5586 0.0508,0.5332 -0.15039,0.57812 -0.88086,0.125 -0.57812,0.0723 -0.67969,-0.041 -0.16797,-0.17578 -0.2832,-0.26758 -0.23438,0.25977 0.0547,0.62305 0.20117,0.57226 0.15039,0.75586 -0.15625,0.7793 -0.37304,0.33594 -0.44532,0.23828 -0.18945,0.47851 0.15039,0.23438 0.60742,-0.1211 0.5,0.19727 0.40235,0.40625 -0.15625,0.69531 -0.32813,0.61133 -0.53516,0.0195 -0.37304,0.20117 0.0332,0.42578 0.68945,0.19727 0.15235,0.62109 -0.17969,0.63282 -0.66797,0.29101 -0.47851,-0.0937 -0.24024,-0.0586 -0.17187,0.40234 -0.0117,0.73828 0.43554,0.39454 0.40626,0.41796 -0.1504,0.71485 -0.41796,0.68945 -0.2461,0.53906 0.16211,0.78711 0.0781,0.69727 -0.34375,0.30078 -0.53516,0.33203 -0.49023,0.043 -0.47852,-0.1875 -0.40234,-0.38476 -0.61328,-0.39454 -0.52344,0.11329 -0.5,-0.082 -0.12305,-0.22852 0.0332,-0.48828 -0.30078,-0.29297 -0.26758,-0.42578 -0.53515,-0.47656 -0.67969,-0.59375 -0.16601,-0.33204 -0.46876,-0.44726 -0.7246,-0.45703 -0.64454,-0.25977 -0.27929,-0.65429 0.0996,-0.49805 -0.19922,-0.53125 -0.39063,-0.44727 -0.77929,-0.17578 -0.61328,-0.0937 -1.0918,0.0527 -0.95313,0.29297 -0.83984,0.20508 -0.875,0.37695 -0.80273,0.17774 -0.74024,0.23437 -0.45117,0.7207 -0.36914,1.05079 -0.23242,0.55078 -0.60743,0.20312 -0.75781,-0.20703 -0.76758,-0.32226 -0.58007,-0.55079 -0.33399,-0.61328 -0.25195,0.0137 -0.44922,0.11133 -0.39063,0.55078 -0.74609,0.22852 -0.53516,-0.125 -0.11132,-0.36328 0.20117,-0.58203 0.38867,-0.64454 -0.0781,-0.57226 -0.55665,-0.23828 -0.76757,-0.19727 -0.16797,-0.30078 0.3457,-0.3125 0.0879,-0.45703 -0.58984,-0.76953 -0.51172,-0.53711 -0.80469,3.15039 16.82227,23.29297 8.30664,4.15429 v 22.84375 l 8.30664,4.1543 2.07812,39.45899 18.68946,2.07617 4.15429,22.84375 20.76758,6.23047 14.53711,8.30664 v 24.92187 l -10.38281,8.30664 v 14.53711 l -16.61524,6.23047 -0.0351,1.4336 h -0.004 l 0.41211,0.30468 0.41211,0.41993 0.14063,0.30273 0.25,0.33789 0.46093,0.11133 0.39649,-0.0606 0.39062,0.10742 0.21094,0.30274 0.21094,0.30469 0.15039,0.375 0.35742,0.39648 0.47851,0.56445 0.42383,0.43164 0.47266,0.28907 0.375,-0.0645 0.41211,0.0312 0.0879,0.41407 0.15625,0.30273 0.40039,0.12305 0.37891,0.084 0.23437,0.26953 0.56836,0.13477 0.44531,-0.26953 0.47266,-0.27735 0.36914,-0.0625 0.5957,-0.14843 0.27344,-0.53711 0.37305,-0.19922 0.43359,0.0195 0.5586,-0.01 h 0.52343 l 0.40039,-0.1875 0.39453,-0.66211 0.25196,-0.57421 0.53515,-0.56055 0.71289,-0.4043 0.90235,0.0937 0.35547,0.47656 0.18945,0.7168 -0.14453,0.6543 -0.72461,0.3125 -0.37891,0.61133 -0.0937,0.9707 -0.006,0.65039 0.40039,0.99609 0.42383,0.63477 0.40235,0.13476 0.33398,-0.1875 0.22656,-0.5996 0.2793,-0.48829 0.60156,-0.39453 0.27344,-0.1582 0.51172,0.21875 0.66992,1.00781 0.43359,0.8711 0.21094,0.94531 0.60156,0.48828 0.44727,0.10351 0.49023,0.11524 0.63477,0.74609 0.31055,0.40625 0.24609,0.31055 0.50195,0.0312 0.19336,-0.24609 -0.0215,-0.60157 0.0664,-0.29101 -0.12304,-0.28125 0.20703,-0.625 -0.006,-0.6836 -0.0898,-0.32031 0.17382,-0.38867 0.36133,-0.0898 0.36133,0.13281 0.625,0.54883 0.47852,0.42578 0.60156,0.21875 0.32226,-0.20703 0.36915,-0.25977 0.53906,-0.12109 0.4082,-0.24219 0.43359,-0.3125 0.46094,-0.0703 0.51953,0.20508 0.56836,0.11523 h 0.55664 l 0.50196,0.041 0.19922,0.28125 0.0234,0.28906 5.9668,-0.55078 6.06641,-3.15625 8.19921,-1.41211 7.4961,-0.75977 4.62109,-2.73047 5.35156,-4.57031 4.00586,-3.15625 3.65821,-3.74023 6.41211,-5.23047 3.11914,-2.65821 1.07422,0.91016 2.05078,-2.74219 2.67382,-1.24609 3.82813,-0.0781 1.96094,-0.74804 3.83203,-3.32422 3.6543,-1.99414 3.30078,0.16211 4.36328,-2.15625 2.85547,-2.9961 3.20898,-1.16211 3.73438,3.91211 1.60547,-3.32226 0.17773,-2.82617 3.92187,-0.16602 5.44532,-2.25195 4.27734,-1.66211 5.78516,0.42383 8.55468,1.66211 2.95118,-1.25391 4.89257,-2.73438 6.59571,-0.16601 5.3457,2.99023 -3.20703,2.16211 1.96094,3.6543 -3.20899,3.99023 0.53516,8.47461 1.06836,5.98243 3.74414,1.82031 -0.17774,4.32031 1.42579,2.49219 0.89062,5.15234 -2.67383,2.99024 -4.45703,6.8125 -0.89062,6.48046 v 4.32032 l -1.6836,9.7207 2.49414,7.97461 7.02344,0.41602 2.95899,3.24023 h 0.002 l 2.74609,6.06445 4.74024,1.2461 8.91211,-2.32618 6.66796,-0.58203 5.70313,-2.99023 3.92187,-1.66211 5.34766,-0.66406 3.67188,-2.74219 0.96289,-4.23633 4.99023,-0.33203 2.49609,2.99023 -1.42578,16.94727 20.67578,0.99609 11.76563,16.28125 3.92187,1.99414 19,12.54297 3.10157,2.07617 5.45312,-3.07421 3.81445,-0.91211 6.41797,-0.99805 8.19922,1.99414 4.63477,-2.32617 3.92187,-9.63477 9.26758,-5.64843 11.1582,-4.73438 11.30274,0.41406 10.86133,-6.78515 5.93554,-3.85352 4.45704,-1.16406 13.52928,-9.55664 -0.35546,-0.90821 -0.76758,-2.00195 -0.75195,-1.93359 -1.10351,-3.03125 -2.61719,-6.67969 -0.73047,-1.82422 -0.35547,-0.9043 -0.3457,-0.98828 -0.23438,-0.54101 -0.64257,-1.65625 -0.26563,-0.53906 -0.26563,-0.5293 -0.4082,-0.6582 -0.71289,-0.78516 -0.39453,-0.4043 -0.76953,-0.63281 -0.77735,-0.54883 -0.73828,-0.40039 -2.01172,-0.88086 -4.56835,-2.14453 -0.93555,-0.42773 -1.7793,-0.82422 -1.7832,-0.64063 -1.31641,-0.30664 -0.91406,-0.1289 -1.00781,-0.084 -2.05664,0.0703 -5.41602,0.35547 -0.68555,-0.008 -0.61132,-0.0703 -0.76368,-0.16797 -1.00195,-0.34961 -0.96094,-0.50977 -0.57226,-0.38476 -0.54102,-0.4336 -2.01367,-1.99414 -0.74805,-0.71875 -3.72656,-3.65625 -2.2207,-2.25586 -0.50196,-0.99609 -0.20507,-0.54101 -0.14258,-0.53907 -0.10938,-0.57226 -0.0527,-0.72852 -0.0606,-1.39844 -0.10937,-1.33593 -0.0586,-0.875 -0.0293,-0.39649 -0.0312,-0.95117 -0.1211,-3.03906 -0.082,-1.42969 0.0254,-1.19336 0.0664,-0.64453 0.0937,-0.58398 0.12695,-0.61329 0.15821,-0.58398 0.20117,-0.6875 0.19922,-0.68555 0.11328,-0.54492 0.0488,-0.1875 0.0859,-0.67383 -0.01,-0.67773 -0.11719,-0.875 -0.44336,-2.13477 -0.0215,-0.57031 v -0.63672 l 0.0547,-0.86523 0.23242,-1.04102 0.20704,-0.98828 0.10937,-1.42187 0.0488,-1.88477 0.0449,-1.48047 0.0391,-0.45898 -0.0371,-1.45899 -0.0547,-0.71289 -0.0137,-0.23633 -0.23633,-1.13281 -0.27149,-0.91016 -0.22265,-0.63281 -0.0977,-0.28711 -0.19727,-0.23633 -0.51367,-0.85546 -3.41601,-5.36524 -0.50196,-1.27734 -0.23242,-0.91797 -0.15625,-0.97266 0.0547,-3.72851 -0.004,-3.44336 -0.0332,-1.11719 -0.0684,-0.66211 -0.25,-0.80273 -0.2793,-0.58008 -0.6289,-1.07617 -0.55078,-1.07422 -0.35157,-0.96094 -0.37304,-1.90625 -0.31836,-0.87305 -0.55664,-0.84179 -0.59571,-0.6543 -0.33398,-0.51172 -1.55664,-1.64844 -0.58594,-0.66211 -0.88476,-0.97461 -0.52149,-0.6875 -0.48828,-0.77148 -0.28125,-0.66602 -0.17969,-0.53906 -0.41406,-1.48047 -0.084,-0.90039 -0.01,-0.53711 -0.006,-0.55859 -0.0293,-0.7832 0.39453,-10.17578 -10.02148,-1.66993 -4.1543,-10.38281 H 526.96659 L 504.1209,76.27298 495.81425,74.19681 h -6.23046 l -18.69141,-8.30664 -22.84375,8.30664 -14.53711,-8.30664 -18.6914,2.07617 -4.15235,-10.38476 -12.46093,10.38476 -16.61328,-4.15429 -6.23047,4.15429 -18.69033,-12.46031 V 43.04509 l -25.19532,-12.59765 -8.0332,-4.01563 -10.38282,12.46094 2.07618,4.15234 h -14.53711 l -4.1543,6.23047 -16.61327,-8.30664 -20.76759,16.61328 16.61329,-37.38086 -28.83399,-6.01172 -1.02343,-0.1582 -0.90625,0.0801 -0.98048,0.29101 -1.03711,0.45704 -0.74608,0.26953 -0.76954,0.30078 -0.34571,0.42773 -0.16016,0.41797 -0.27929,0.23828 0.0391,0.75586 -0.11133,0.61328 0.006,0.94922 -0.006,0.88086 -0.70117,0.10352 -0.53516,-0.16602 -0.43359,-0.4375 -0.37891,-0.44726 -0.30078,-0.4668 -0.4121,-0.29102 -0.30859,-0.006 -0.17773,0.3418 -0.25586,0.25977 -0.46094,0.0801 -0.46289,0.0352 -0.2793,0.17578 -0.11719,0.42383 -0.45507,0.12304 -0.5586,-0.18554 -0.22265,-0.39454 -0.23438,-0.42773 -0.45703,-0.16602 h -0.48828 l -0.49805,0.19141 -0.65039,0.31836 -0.36719,0.28125 -0.51367,0.4668 -0.27734,0.61328 -0.0117,0.62305 -0.30664,0.38867 -0.55078,0.0586 -0.31055,-0.22852 -0.006,-0.30859 0.084,-0.38867 0.0449,-0.51953 -0.16797,-0.35157 -0.39649,0.0234 -0.36718,0.19727 -0.21094,0.43555 -0.27344,0.35156 -0.34375,0.01 -0.23437,-0.13477 -0.0332,-0.19726 0.18946,-0.22852 v -0.33203 l -0.14454,-0.33398 -0.041,-0.84766 0.14062,-0.58594 0.31641,-0.69336 0.28516,-0.76172 0.23437,-0.67578 0.11133,-0.47656 -0.10156,-0.42773 -0.28906,-0.20704 -0.18946,-0.66992 0.0215,-0.49414 -0.01,-0.75781 -0.24609,-0.67578 -0.28907,-0.61328 -0.43359,-0.26953 h -0.40234 l -0.65625,-0.0312 -0.53516,-0.16797 -1.02539,-0.2168 -1.13672,-0.28125 h -0.4668 l -0.71289,-0.0215 -1.30468,-0.50781 -0.73438,-0.40625 -0.50195,-0.45703 -0.58985,-0.57227 -0.3789,-0.33203 -0.85742,-0.43555 -0.95899,-0.5 -0.68945,-0.37304 -0.72461,-0.60352 -0.61328,-0.4043 -0.4336,-0.625 -0.46875,-0.76757 -0.3457,-0.67579 -0.44531,-0.68554 -0.67969,-0.39649 -0.58984,-0.31054 -0.66797,-0.35352 -1.0918,-0.17773 -0.35742,-0.18555 -0.23437,-0.38477 0.20117,-0.64453 -0.39063,-0.39453 z"
      data-name="Centro" id="centro" />
</svg>