<?xml version="1.0" encoding="UTF-8" standalone="no"?>
<svg version="1.1" id="svg2" width="1000" height="574.32983" viewBox="0 0 1000 574.32983"
   xmlns="http://www.w3.org/2000/svg" xmlns:svg="http://www.w3.org/2000/svg">
   <defs id="defs6" />
   <path class="neighborhood"
      d="m 441.83175,168.79777 -7.07744,0.17814 -5.24991,2.93409 -3.16462,1.34548 -9.18161,-1.78349 -6.20559,-0.4548 -4.59185,1.78352 -5.84301,2.41642 -4.20833,0.17814 -0.19071,3.03259 -1.72064,3.56492 -4.00713,-4.19994 -3.44335,1.24909 -3.06612,3.21491 -4.67987,2.31374 -3.54396,-0.17394 -3.9212,2.13978 -4.11192,3.56702 -2.10415,0.80268 -4.10773,0.0838 -2.86912,1.3371 -2.19847,2.94248 -1.15267,-0.97664 -3.34697,2.85235 -6.88042,5.61249 -3.92749,4.01342 -4.29844,3.38677 -5.74243,4.90412 -4.9586,2.92989 -8.04359,0.81527 -8.79808,1.51523 -6.50738,3.38679 -6.4047,0.591 -0.0231,-0.31016 -0.21586,-0.30181 -0.53652,-0.0441 h -0.5994 l -0.60987,-0.12361 -0.55537,-0.22006 -0.49671,0.0754 -0.46525,0.33533 -0.43593,0.25987 -0.58052,0.12991 -0.39401,0.27874 -0.3458,0.22215 -0.64552,-0.23472 -0.51555,-0.45688 -0.66854,-0.58892 -0.38982,-0.1425 -0.38773,0.0965 -0.18651,0.41707 0.0965,0.34369 0.005,0.73353 -0.22006,0.67065 0.1299,0.3018 -0.0713,0.31227 0.0231,0.64549 -0.20748,0.26407 -0.53862,-0.0335 -0.26196,-0.33322 -0.33534,-0.43594 -0.68112,-0.80058 -0.52605,-0.12361 -0.47782,-0.11103 -0.6455,-0.52394 -0.22845,-1.01435 -0.46527,-0.93472 -0.71674,-1.08142 -0.5512,-0.23473 -0.29341,0.16976 -0.6455,0.42334 -0.29759,0.52396 -0.2452,0.64339 -0.35839,0.2012 -0.43172,-0.14462 -0.45269,-0.68112 -0.43173,-1.06884 0.005,-0.69789 0.10269,-1.04161 0.40659,-0.65598 0.77543,-0.33531 0.15718,-0.7021 -0.20329,-0.76915 -0.38353,-0.51136 -0.96824,-0.10055 -0.76497,0.43384 -0.57423,0.60148 -0.26825,0.61616 -0.42546,0.71046 -0.42963,0.20121 h -0.56167 l -0.59729,0.01 -0.46737,-0.021 -0.40028,0.21378 -0.29132,0.57634 -0.64131,0.15929 -0.394,0.0671 -0.50718,0.29761 -0.47785,0.28921 -0.60987,-0.14461 -0.25149,-0.28921 -0.40658,-0.0901 -0.42962,-0.13206 -0.16768,-0.32484 -0.0965,-0.44431 -0.44221,-0.0335 -0.4003,0.0691 -0.50718,-0.31018 -0.45478,-0.46317 -0.51347,-0.60567 -0.38353,-0.42544 -0.16138,-0.40239 -0.22633,-0.32694 -0.22844,-0.32486 -0.41706,-0.1153 -0.42545,0.0649 -0.49668,-0.11946 -0.26826,-0.36258 -0.15091,-0.32484 -0.44222,-0.45059 -0.4401,-0.32694 -0.3521,-0.046 -0.32484,0.29551 -0.19072,0.45268 -0.22214,0.31437 -0.5973,0.11947 -0.62664,0.0984 -0.28084,-0.0838 -0.0776,-0.30389 v -0.43593 l 0.0293,-0.31646 -0.13621,-0.25568 -0.22214,-0.27664 -0.35419,-0.10473 -0.30389,0.0859 -0.20329,0.32903 -0.31018,0.32694 -0.2997,0.26198 -0.43592,0.36257 -0.11317,0.49041 0.0776,0.59729 0.22634,0.46526 0.46108,0.25779 0.48412,0.33532 0.15509,0.49461 -0.005,0.45267 -0.1216,0.40869 0.0923,0.42754 0.21376,0.17185 0.47783,-0.0776 0.38982,-0.32276 0.23263,-0.27036 0.12576,-0.32065 -0.11532,-0.26407 -0.26198,-0.30389 -0.27454,-0.34161 -0.0293,-0.23891 0.26826,-0.25569 0.19071,-0.10269 0.21586,0.12991 0.37724,0.45059 0.42335,0.41288 0.39609,0.30597 0.56587,0.29551 0.61616,0.33532 0.44221,0.38982 -0.10054,0.45059 -0.35211,0.29551 -0.5386,0.19491 -0.69372,0.41286 -0.6455,0.394 -0.57424,0.17395 -0.45478,-0.12991 -0.50088,-0.26616 -0.40659,0.046 -0.46107,0.11531 -0.24521,0.27246 -0.0943,0.31856 -0.19909,0.46736 -0.50089,0.22844 -0.32904,0.27454 -0.35839,0.4946 -0.25148,0.25987 -0.2033,0.20959 -0.25568,0.25568 -0.32275,0.28923 -0.009,0.51974 v 0.4485 l 0.15509,0.23473 0.37096,0.11317 0.13835,0.15509 0.10054,0.27454 0.2515,0.21587 0.1425,0.29969 -0.23683,0.36886 -0.43172,0.38562 -0.61617,0.34581 -0.38772,0.37304 -0.48411,0.43174 -0.42546,0.4401 -0.31016,0.43593 -0.60987,0.33952 -0.22636,0.47993 -0.20956,0.61615 -0.40031,0.77125 -0.20957,0.4967 -0.0482,0.73562 -0.17394,0.744 -0.27245,0.6476 0.22634,0.46944 0.70419,0.45689 h 0.82573 l 0.47155,-0.19072 0.28712,-0.11102 0.22214,0.0776 -0.0419,0.45689 -0.10688,0.62454 -0.16137,0.44012 -0.40659,0.17394 -0.52185,0.28923 -0.46107,0.54279 -0.38143,0.75238 -0.22634,0.42544 -0.2997,0.47366 h -0.52604 l -0.47155,-0.30599 -0.19071,-0.28922 -0.11532,-0.47574 -0.55537,-0.4443 -0.48414,-0.50299 -0.46106,-0.12777 -0.57215,-0.24101 -0.52184,-0.33951 -0.83413,-0.21378 -0.48621,-0.27664 -0.8949,-0.43802 -0.45478,-0.33323 -0.13835,-0.65178 -0.23893,-0.58054 -0.61615,-0.16766 -0.65599,-0.32693 -0.84879,-0.54072 -0.56377,-0.0482 -0.19071,0.32066 0.13206,0.50717 0.56167,0.42963 0.60358,0.19491 0.3961,0.40657 -0.0419,0.76288 -0.44431,0.30388 -0.41077,0.046 -0.61615,-0.15509 -0.60359,-0.14049 -0.68323,-0.24101 -0.47574,-0.23263 -0.6455,0.7922 -0.60986,0.88021 -0.39401,0.54702 -0.63502,0.33322 -1.05207,0.37934 -1.25537,0.27873 -1.03951,0.088 -0.57424,-0.0545 -0.72934,-0.0901 -0.42963,0.23473 -0.20329,0.38981 0.0482,0.7021 0.21378,0.65808 -0.10687,0.36674 -0.16766,0.37934 0.0608,0.53444 0.3458,0.42333 0.91586,0.13835 0.86136,-0.19071 1.42093,0.29132 0.62876,0.0503 0.41704,0.12362 0.35838,0.37932 0.10903,0.46738 -0.29969,0.82363 -0.4548,0.7482 -0.63293,0.23263 -0.9808,0.25778 -0.37096,0.35627 -1.0395,0.62455 -1.07514,0.50089 -0.7419,0.42334 -0.6455,0.57844 -0.49042,0.61407 -0.22634,0.38981 -0.35838,0.55747 0.01,0.38982 0.3961,0.46736 0.71677,0.22214 0.42962,0.14462 0.3479,0.3919 0.4967,0.55959 0.5973,0.31226 0.55539,0.5428 0.75237,0.45689 0.44222,0.57844 0.21586,0.47993 0.13206,0.24519 0.36885,0.22217 0.34791,0.46736 0.47783,0.76913 0.49042,0.60359 0.76495,0.6455 0.87184,0.62454 0.53862,0.4443 0.75238,0.32276 0.79012,0.54699 0.75238,0.76916 0.67065,1.01435 0.19071,0.46735 -0.0129,0.65807 0.43174,0.93473 0.33323,0.6015 0.25149,0.70208 -0.1362,0.62872 0.35209,0.93263 0.50089,0.92423 0.503,0.49042 1.20716,1.07932 1.12332,0.90328 0.92006,0.75867 0.55118,0.29969 0.56796,0.0356 h 0.001 l -0.20748,0.42126 -0.21588,0.32275 0.29971,0.50088 0.54908,0.62455 0.49043,0.55747 0.49039,0.3458 0.46528,0.86766 0.25149,0.45688 -0.0943,0.71466 -0.27665,0.6895 -0.52603,0.54701 -0.45269,0.64549 -0.41916,0.93681 -0.42962,0.60149 -0.26407,0.5449 -0.25149,0.55748 -0.12362,0.45059 0.11318,0.34162 -0.18025,0.24521 -0.4904,0.31017 -0.37096,0.45688 -0.0356,0.66855 0.0482,0.68113 0.18025,0.44431 0.33322,0.31226 0.55119,0.31227 0.31018,0.0335 0.42963,0.18861 -0.0129,0.65809 -0.1446,0.64549 2.94247,0.45897 v 4.27748 l -0.97663,8.27203 -2.29488,7.12983 -4.58975,7.8445 1.7395,4.18945 0.93681,5.43646 -2.85026,4.18736 -7.64958,1.42722 -12.45102,4.00922 -3.6152,11.67558 -1.35807,9.71392 -7.44001,3.83108 -3.65503,13.63513 0.76705,7.12773 3.05983,5.7026 16.83119,2.13979 11.68606,-4.3676 9.94655,-6.41517 7.26816,-8.19868 7.05857,1.15897 2.12302,4.54574 -0.38353,9.61752 17.59404,-9.62171 21.42303,-1.78142 5.14513,-5.97086 4.4179,-7.21786 0.55329,-6.32714 -0.68742,-6.17416 h 10e-4 l 0.39611,-0.0441 1.45865,-0.25779 0.66857,0.15718 0.29339,-0.10688 0.14881,-0.42754 0.6455,-0.16767 1.47753,-0.24102 1.17783,-0.22633 1.16524,-0.0524 0.71047,-0.0587 0.97453,-0.40867 0.96197,-0.81735 0.38352,-0.96826 0.35838,-0.92633 0.55539,-0.79848 0.93891,-0.96198 0.79639,-0.85298 0.48832,-0.23471 0.38352,-0.0441 0.3521,0.15298 0.40658,0.24521 0.31016,0.42336 0.60987,1.28052 0.51347,1.41462 0.33532,0.7021 0.21587,0.33324 0.394,0.30178 0.42964,0.088 0.41287,-0.27456 0.51975,-0.44849 0.37724,-0.29761 0.26406,-0.34579 0.20749,-0.12576 0.32276,-0.0776 0.33531,0.13405 0.42964,0.37724 0.25149,0.70209 -0.0608,0.6476 -0.46527,0.76705 -0.59729,0.58053 -0.83622,0.38981 -0.6455,0.50089 -0.52813,0.43384 -0.53652,0.75866 -0.21587,0.79012 0.2515,0.76913 0.60987,1.07933 0.76496,0.85928 0.25149,0.40029 0.45268,1.20297 0.5512,1.14849 0.57424,1.03531 0.6874,0.75028 0.86556,0.47574 1.21974,0.46737 0.77755,0.0776 0.64549,-0.36677 0.26197,-0.65807 -0.29759,-0.86975 -0.38354,-1.26795 -0.29969,-1.23859 -0.01,-1.43562 0.27454,-1.27002 0.21587,-1.12545 0.23891,-1.38112 0.0776,-1.22183 0.0545,-0.42754 0.26826,-0.21796 0.28083,-0.0713 0.38144,0.22216 0.32484,0.37933 1.00388,0.91376 0.76496,0.38981 0.84878,0.46737 0.46526,0.26826 0.52604,0.43382 0.51347,0.42336 0.0608,0.23471 0.46525,0.21168 0.40659,0.13206 0.44221,0.23474 0.26407,0.4904 -0.0838,0.80267 -0.35839,0.85719 -0.28711,0.52394 -0.21586,0.2997 -0.0943,0.41286 0.046,0.51138 0.1928,0.31227 0.60988,0.35628 0.36886,0.3458 0.59939,0.76916 0.0587,0.52394 -0.0838,0.52184 -0.0482,0.40239 -0.0356,0.33322 0.15508,0.41288 0.51557,0.31227 0.92005,0.36676 0.84878,0.34581 0.96826,0.38981 0.87183,0.20119 1.04161,0.33323 0.81106,0.36676 1.17154,0.50298 1.17154,0.31018 1.11286,0.40239 1.06465,0.43382 1.26586,0.45689 1.10027,0.35628 1.15897,0.63502 1.23232,0.6455 1.17153,0.58052 1.06256,0.26617 0.85508,0.12777 0.87814,0.0628 0.67064,0.17815 0.34581,0.33322 -0.0712,0.3458 -0.27454,0.33324 -0.57425,0.72513 -0.56167,0.63502 -0.41915,0.58892 -0.0482,0.34579 0.26407,0.35629 0.78801,0.26826 1.50686,0.25568 0.76496,0.17815 0.45478,0.20119 0.23893,0.33324 0.10688,0.54699 -0.16556,0.5449 -0.2997,0.46736 -0.0356,0.45689 0.3458,0.60148 0.77753,0.75867 1.00388,0.71257 1.06465,0.71255 0.51347,0.27874 0.52604,0.10055 0.53234,-0.009 0.8383,-0.6895 1.0919,-0.78381 0.42544,-0.44222 0.12361,-0.6937 0.26408,-0.46736 0.44849,-0.28711 0.56167,-0.12162 0.62663,0.16347 0.27665,0.36676 0.1299,0.5449 -0.0587,0.60149 0.0712,0.75866 0.46524,0.57844 0.21588,0.547 0.16766,0.38982 0.22634,0.3437 0.25149,0.15718 1.6452,-0.0189 0.58681,0.0129 0.81735,0.0272 1.17155,0.21168 0.9326,0.36884 0.81108,0.76708 0.40658,0.84668 -0.0838,0.51347 -0.38144,0.27873 -0.41916,0.18863 -0.42963,0.21166 -0.22634,0.38982 -0.10902,0.76915 0.0965,0.49041 0.28712,0.5449 0.64551,0.21168 0.48412,-0.11946 0.56167,-0.4443 0.33952,-0.48413 0.71885,-0.45689 0.41286,-0.32903 0.49461,-0.11531 0.45478,0.26616 0.0356,0.34579 -0.0965,0.62454 -0.0838,0.68953 0.0609,0.61405 0.50299,0.2997 0.591,-0.0398 0.58682,-0.11102 0.35419,0.0965 1.29099,0.51347 0.98084,0.11103 0.62244,-0.1551 0.38144,-0.40239 0.57422,-0.35629 2.39129,-1.00177 0.50089,0.0231 0.6937,-0.11316 0.59729,-0.37723 0.74192,-0.046 0.6937,0.18025 0.57425,-0.29131 0.90747,-0.57844 1.64937,-1.80446 0.93261,-0.53443 7.72294,-3.38676 1.21975,-0.57845 0.19071,-0.35627 -0.1425,-1.15896 -0.50298,-1.78142 0.0965,-0.86975 0.38143,-0.33323 0.76496,-0.0671 1.69759,0.26616 1.00388,-0.15508 0.45478,-0.51347 -0.0965,-0.51137 -0.73981,-0.13405 -0.67065,-0.28923 -0.95567,-0.53442 -0.38144,-0.75866 0.0943,-1.02483 -0.0482,-0.53444 -0.62034,-1.02484 0.0943,-0.57842 0.64552,-0.53442 1.89039,-0.71258 0.50087,-0.33531 0.0712,-0.40031 0.23892,-1.00387 0.21587,-0.8446 -0.33534,-0.71465 -0.66853,-0.48832 -1.10029,-0.11317 -0.71675,-0.4003 -0.95567,-0.95777 -0.5512,-1.24698 -1.07513,-0.60149 -0.19071,-0.44639 -0.26409,-2.71824 -0.40656,-0.37932 -0.6937,-0.33323 -0.26198,-0.49042 0.21585,-0.86976 0.62038,-0.31016 0.57422,0.11103 1.55508,0.088 0.35837,-0.17815 1.36226,-3.05146 0.71676,-0.77962 2.00775,-0.62453 1.21974,-0.17815 0.38354,-0.17814 0.21376,-0.33324 -0.0231,-2.36192 0.21586,-0.28922 1.97422,-2.85445 4.97327,-2.85235 9.67829,-10.07022 -0.49669,-7.39809 -4.59185,-8.91334 1.91344,-7.84239 1.52992,-10.69684 3.44337,-5.34633 v -5.70471 l 2.79157,-6.50739 5.73823,-3.20862 -2.79157,-4.18946 3.44337,-4.99214 3.94004,-1.87154 -3.17509,-3.47689 -7.53641,-0.4464 -2.6784,-8.55705 1.80865,-10.43069 v -4.63585 l 0.95568,-6.95379 4.78046,-7.31007 2.86913,-3.21072 -0.95568,-5.52658 -1.52993,-2.67421 0.19071,-4.63585 -4.0155,-1.95325 -1.14849,-6.41938 -0.57425,-9.09357 3.44337,-4.28167 -2.10417,-3.92329 3.44336,-2.31794 z"
      data-name="Faria" id="faria" />
   <path class="neighborhood"
      d="m 268.56325,382.35461 -1.91267,6.41566 4.20795,16.39507 -2.29528,17.10705 -8.79833,16.03694 -10.71098,8.90907 -15.30156,6.41455 -12.24102,-3.92004 -11.09361,-9.62171 -12.62364,-0.71266 -10.92158,-11.31489 -12.79569,1.3364 -6.71361,3.65285 -8.97058,8.46383 -17.214,1.06898 -17.80722,10.06718 -10.11799,7.75073 -7.65068,-4.98903 -8.415909,-8.55252 -7.268059,-8.55274 -1.530259,-16.03694 -17.631168,-5.51472 -1.127591,0.45015 -0.601684,0.0712 -0.548194,-0.0579 -0.33203,0.38328 -0.169368,0.4858 0.04904,0.61504 0.403344,0.54152 1.07411,1.93428 0.08692,0.43009 -0.289698,0.517 -0.657386,0.17159 -1.704756,0.8312 -0.550415,0.17382 -0.432316,-0.0267 -0.993891,-0.16714 -3.38054,-1.0184 -0.996112,-0.4479 -0.233987,-0.25851 -0.537044,-0.91143 0.0021,-0.5393 0.606137,-0.86684 0.744302,-1.66241 0.307522,-1.63791 0.410029,-0.33204 0.169368,-1.02284 -0.104728,-1.15433 -0.869096,-1.33484 -1.196662,-1.38609 -1.985539,-1.90308 -0.548204,-0.003 -0.441222,0.94486 -0.519232,0.28078 -1.118674,-0.33872 -1.149868,0.0735 -0.492492,0.20279 -0.436769,0.28079 -0.329809,0.38329 -0.603905,0.38106 -0.356549,0.38329 -0.521454,0.27855 -1.669099,0.53259 -1.040686,0.58387 -0.76881,0.68857 -0.303068,0.4858 -0.467974,1.12536 -0.02897,0.48804 -0.521464,0.35655 -0.909195,1.37939 -0.43678,0.27856 -2.188321,0.37661 -0.574934,0.25403 -0.74207,0.76435 -0.274096,0.4613 -1.317015,0.94262 -0.465741,0.48359 -0.193876,0.46127 0.216163,0.48803 0.706413,0.77104 0.434548,0.97383 0.599452,0.18274 1.094156,0.13149 0.54374,0.30974 0.57048,1.05182 1.116442,0.67077 0.599453,0.51477 0.434548,0.97383 0.623961,0.87354 0.704191,1.38609 -0.0602,1.27912 -0.519222,0.22953 -1.147645,-0.0557 -0.492482,-0.20722 -2.259635,-1.77608 -0.545972,-0.10473 -0.492481,-0.25625 -1.062962,-0.33873 -0.574945,0.17827 -0.169357,1.20336 0.102475,1.27912 0.706413,1.02731 0.788865,0.84903 0.492492,0.20724 0.216153,0.46129 -0.193877,0.48581 -0.574933,0.049 -1.036222,-0.13148 -1.040686,0.40557 -1.203347,-0.0312 -3.630126,-0.96045 -0.659618,0.53481 -0.191645,0.56381 0.866862,1.46185 0.953771,0.56825 0.574937,0.0267 0.381063,0.43679 0.189412,0.46129 0.02457,0.48803 -0.628417,0.10032 -0.467972,0.51033 -0.519227,-0.0289 -0.434545,-0.35878 -0.548195,-0.0291 -0.519225,0.3053 -0.550426,0.97158 -0.441229,0.51032 -0.545966,-0.003 -0.436774,-0.33428 -1.118676,-0.33649 -0.545968,-0.0803 -1.120904,0.0735 -1.118674,-0.28524 -0.548197,-10e-4 -0.572709,0.049 -1.285808,0.35208 -0.906972,0.73984 -1.107534,3.32483 0.02674,0.48804 0.541511,1.00055 0.104739,1.12761 0.21616,0.48579 0.325351,0.43678 0.463514,0.28524 0.657389,-0.0245 0.601678,-0.15153 0.953772,0.69526 0.572709,0.002 0.381063,0.43678 0.189417,0.53927 0.461286,0.51477 2.215067,0.058 0.572707,-0.049 0.521456,-0.17606 0.381062,0.41004 0.02452,0.51254 -0.632875,0.79333 -0.08245,0.53704 0.240671,0.97384 -0.38329,0.35655 -0.465739,0.23005 -0.414489,1.02285 -0.878004,0.63734 -0.329808,0.43232 -0.548197,0.10033 -0.187189,-0.99835 -0.325351,-0.38551 -0.545967,-0.12926 -0.436773,-0.28523 -0.439003,0.33204 0.05348,0.4858 0.271869,0.46351 0.02451,0.4858 -0.519226,0.0245 -0.463513,-0.46351 -0.463515,-0.28302 -0.516997,-0.10472 -0.249585,0.43454 -0.05571,0.4858 -0.548196,0.12704 -0.303067,0.40779 -0.02897,0.51255 0.187187,1.23009 -0.492483,0.17828 -0.519226,-0.10472 -0.410032,-0.30976 -0.545967,-0.1805 -0.465743,0.25404 -0.280784,1.6379 -0.849034,0.7911 -0.140397,0.5883 0.162677,0.5638 0.545966,0.0534 0.548196,-0.25404 0.519226,-0.0245 0.352093,0.41226 -0.191645,0.45906 -0.439003,0.30529 0.08022,0.51254 0.788867,0.82453 0.459058,1.02507 0.05348,0.51255 -0.196102,1.1521 -0.0046,0.61504 -0.303066,0.61282 -0.519226,0.3053 -0.463517,-0.23175 -0.189417,-0.51255 -0.463514,-0.25849 -0.521454,0.1248 -1.118676,-0.0557 -0.601678,-0.35878 -0.05571,0.56156 0.733155,0.90029 0.216161,0.46129 -0.80001,2.09696 0.187189,0.59054 0.759896,1.5131 0.133701,0.5638 -0.0023,0.59053 -0.249585,0.53706 0.218387,0.46128 0.599449,0.0267 1.009481,0.59277 0.189417,0.48803 -0.329807,0.40781 -0.849035,0.58607 -0.964914,1.4574 -0.08468,0.61282 0.131483,1.15433 -0.247357,0.43454 -1.230097,-0.0557 -0.356549,0.35655 -0.276326,0.56156 -0.111425,0.5883 0.133701,0.66631 -0.05571,0.48803 -0.577164,0.3053 -1.388316,-1.10754 -0.628419,0.10033 -0.603908,0.20279 -0.191646,0.4858 -0.332036,0.43455 -1.727038,1.24792 -0.387749,1.33037 -0.169362,1.15211 0.374378,1.8964 -0.0044,0.99834 -0.472428,1.5599 -0.309752,2.04794 -0.389976,1.58665 -0.71533,1.3794 -0.6328763,0.79332 0.189418,0.4858 2.1014153,1.00725 1.388317,0.92703 1.203356,0.23622 0.980513,0.61727 0.735384,0.79779 1.172158,0.517 1.147645,0.28523 0.898059,0.79778 0.545968,0.18051 2.181639,1.08525 0.545966,0.12926 0.65739,0.002 1.065194,0.31198 1.120904,0.0557 1.691383,0.49248 0.873548,0.61951 1.143188,0.64402 0.545967,0.1805 0.548195,0.0534 0.878005,-0.73761 0.465743,-0.25627 0.545967,-0.0735 -0.140396,1.0496 0.65293,0.84681 -0.38552,0.33203 -0.545967,-0.10473 -0.08468,0.48579 0.269642,1.02509 -0.02897,0.51253 -0.38552,0.33204 -0.519226,-0.0534 -0.35655,0.4078 -0.02897,0.48803 0.436775,0.28302 0.958229,-0.63733 0.574935,-0.12481 0.381064,0.35878 -0.05794,0.61505 -0.274099,0.45906 -1.04068,0.27856 -0.38329,0.43454 -0.115874,1.02284 0.078,1.15433 -0.0624,1.79167 -0.329809,0.43454 -0.490257,-0.283 -0.271869,-0.46351 -0.133701,-0.97382 -0.601678,0.049 -0.574937,0.28078 -0.65516,0.049 -1.062964,-0.74874 -0.601678,-0.18051 -0.492484,0.20278 -0.140397,0.63956 0.05348,0.51254 0.490256,0.30977 0.626191,0.87353 0.1337,0.58831 -0.06017,0.99833 -0.329809,0.41004 -0.164904,0.4858 0.516998,0.30975 -0.05571,0.4858 -1.671328,0.50586 -0.439002,0.3298 -0.247357,0.51255 0.271869,0.48803 0.572709,0.1805 1.094162,0.004 0.516998,0.20725 0.162676,0.61504 -0.02897,0.53706 -0.44123,0.45906 -0.519226,0.25404 -0.140396,0.53928 -0.572708,0.10023 0.078,0.48579 0.327581,0.41004 0.463514,0.28524 0.733156,0.87355 -0.561788,2.12281 0.533263,1.21717 0.754326,0.3064 1.843364,1.37607 4.515037,0.51075 0.817836,0.74654 -0.08468,0.48579 -0.329809,0.43455 -0.332036,1.0741 -0.0312,0.61282 0.354321,0.41226 0.519226,0.18051 0.628419,0.0803 0.490257,0.23176 0.410034,0.33427 0.325356,0.48803 0.519222,0.18049 0.519221,-0.049 0.325356,0.41226 0.106982,0.51253 0.519232,0.23176 1.065194,0.10698 0.548193,-0.17827 0.987195,-0.68637 0.601684,-0.049 0.572702,0.078 1.526482,1.41506 -0.222849,1.02285 0.599453,0.2585 1.693618,0.41672 0.189413,0.51255 0.352096,0.48801 1.062961,1.0808 2.480252,1.59556 0.791097,0.64402 0.628414,0.18273 -0.74207,0.86686 -0.456825,0.0714 0.151535,0.92703 26.52063,-9.07865 8.913756,17.82749 20.055933,-4.45687 11.14218,15.59906 22.28438,-4.45688 15.59906,11.14219 28.96967,-8.91376 26.74125,4.45689 37.88343,-6.68532 82.10232,-39.96925 0.71531,-0.48802 0.19611,-0.51032 -0.22061,-2.59166 0.42338,-1.14988 0.004,-0.53929 -0.39444,-1.6691 0.0115,-1.0273 0.32312,-2.22621 -0.0713,-1.10307 -0.2674,-0.49027 -0.75992,-0.82675 -1.00725,-0.34318 -0.18718,-0.59053 -1.03844,-0.18942 -0.48137,-0.92703 -0.57716,0.0468 -0.90697,0.50585 -0.52145,0.0201 -0.46129,-0.23398 -0.86241,-1.31701 -0.8156,-0.67299 -0.92479,-0.5727 -0.86687,-0.77551 -0.078,-0.48802 0.17157,-0.63956 0.71757,-0.76436 0.14265,-0.56156 -0.0982,-1.00058 -0.24067,-0.5415 -0.4078,-0.36101 -0.24066,-0.46352 0.0156,-1.66686 -0.13148,-0.53929 -0.21394,-0.51477 -0.73092,-0.77549 -0.21393,-0.46351 0.22285,-0.46129 0.0868,-0.4858 -0.12476,-1.18107 -0.29637,-0.41226 -0.12705,-0.97606 -0.3454,-0.97605 0.0602,-0.53929 0.24958,-0.43232 0.11589,-0.51253 -0.16045,-0.48803 -0.70197,-0.7755 -0.24067,-0.5415 -0.35208,-0.36102 0.1136,-0.48579 0.38552,-0.35655 1.17884,-0.19388 0.46797,-0.30307 -0.0982,-1.07856 -0.21393,-0.53928 -0.34988,-0.41449 -0.078,-0.48803 0.14264,-0.63956 -0.12476,-1.05183 -0.64178,-1.51756 -0.4613,-0.36324 0.0312,-0.51253 0.28079,-0.58832 0.14707,-1.12535 -0.049,-0.53928 -0.26965,-0.46352 0.19832,-0.53706 0.44124,-0.40779 1.5911,-0.39444 1.09417,0.009 2.29306,0.50809 1.23232,0.0356 1.04068,-0.0936 0.46797,-0.25181 0.64403,-1.55767 0.63956,-1.04737 2.01227,-1.26353 -0.47687,-1.56881 -0.40781,-0.41226 -2.24181,-0.20056 -0.5727,-0.15822 -1.35935,-0.96046 -1.16993,-0.6507 -0.51922,0.0468 -0.89807,-0.62396 -0.37883,-0.43902 -0.23845,-0.61727 0.63733,-0.84011 -0.0223,-0.53929 -1.35713,-0.9872 -1.13873,-1.23901 -0.95155,-0.59944 -0.15821,-0.51477 0.12477,-1.6134 -0.46128,-0.23399 -0.35209,-0.36323 -0.97161,-1.44402 -0.21169,-0.59055 -0.12706,-1.12981 0.0335,-3.307 0.47467,-0.91812 1.37938,-0.98942 1.15879,-1.09194 1.64906,-0.62619 0.82897,-0.88914 -0.0223,-0.51477 -0.31645,-1.05405 -0.0445,-1.07634 0.0868,-0.58831 0.38775,-0.32981 0.46797,-0.22729 -0.078,-0.48803 0.14264,-0.51031 0.30529,-0.48579 0.0379,-0.99835 0.41449,-0.40781 -0.16044,-0.53928 -0.43455,-0.28524 -1.03622,-0.39444 -0.21394,-0.48803 0.25405,-0.61505 0.44123,-0.32758 0.52146,-0.12475 2.24402,-0.058 1.12315,-0.24514 0.71977,-0.76213 0.60166,-0.0468 0.35212,0.36101 0.49026,0.26074 0.57714,-0.14709 0.5237,-0.48358 0.0936,-1.20335 -0.14932,-1.51534 0.14264,-0.4858 0.38998,-0.61059 0.5727,0.0803 0.41449,-0.30307 0.14036,-0.4858 0.0379,-1.02508 -0.15822,-0.48803 -0.0179,-1.07856 0.11589,-0.4858 0.33204,-0.40781 0.16936,-0.51029 0.0647,-0.99836 -0.0223,-0.53926 -0.29414,-0.6173 -0.38108,-0.38774 0.0602,-0.51254 0.69306,-0.86686 0.16937,-0.48581 0.37882,-2.20169 0.0557,-0.85572 0.009,-0.19387 -0.0713,-1.02731 -0.31198,-1.61784 -0.0179,-1.15433 -0.67524,-0.77327 -0.24067,-0.49025 0.004,-0.59055 0.44793,-0.94263 0.33873,-1.02284 0.53036,-0.99612 0.41448,-0.40557 0.96268,-0.53038 1.64236,-0.0892 0.90921,-0.73538 0.33426,-0.43233 1.0652,0.009 1.60894,-2.19054 0.93594,-0.53038 0.60168,0.0312 0.91143,-0.8134 0.38775,-0.48356 0.84235,-2.24849 1.2457,-1.27021 0.35876,-0.51031 0.36546,-0.97161 0.0602,-0.51253 0.46797,-0.27633 1.06744,0.0847 0.439,-0.27633 0.44123,-0.35655 0.0115,-0.99835 0.5482,-0.25181 0.57493,-0.0468 1.64014,0.24512 0.46797,-0.22729 -0.0223,-0.51255 -0.43456,-0.28522 -1.20557,0.0402 -0.4078,-0.312 0.1961,-0.45904 0.52368,-0.25183 1.23233,-0.19387 0.55043,-0.25181 0.30529,-0.45906 0.57716,-0.22508 0.44123,-0.32981 0.51701,0.13377 0.49024,0.2585 0.0514,0.48802 0.18495,0.46351 0.54596,0.13378 0.49695,-0.27856 0.66408,-0.78888 -0.32534,-0.38773 0.47465,-1.02063 -0.43456,-0.28524 -0.0759,-0.48803 0.27633,-0.43454 0.60391,-0.19833 0.71086,0.0312 0.67522,1.03176 0.22507,2.07915 -0.0714,1.66462 0.46129,0.26073 5.15214,-0.82673 3.04629,-0.92259 0.46797,-0.22507 1.12313,-0.27409 0.27856,-0.48358 0.0713,-1.61561 0.20723,-1.53539 0.0179,-1.79613 0.35876,-3.22678 0.75323,-1.40392 0.80224,-0.76212 1.02285,-1.27242 0.31197,-1.07411 0.0115,-1.12759 0.22954,-0.99835 0.85572,-0.76212 1.59333,-0.60167 0.96268,-0.53039 1.78052,-0.39442 2.27299,-0.15822 1.5911,-0.57717 0.88248,-0.58163 0.35878,-0.43231 -0.0224,-1.38564 -1.0378,-0.93416 -0.49248,-0.50809 -0.008,-0.83276 -0.25092,-0.156 -0.22708,-0.34517 -0.16736,-0.38975 -0.21526,-0.54596 -0.46618,-0.57919 -0.0718,-0.75743 0.0598,-0.60146 -0.13149,-0.54575 -0.27497,-0.3677 -0.62686,-0.16311 -0.56202,0.12262 -0.44882,0.28568 -0.26294,0.46774 -0.12504,0.69462 -0.42497,0.44167 -1.09306,0.78353 -0.83699,0.69058 -0.53238,0.008 -0.52613,-0.10033 -0.51387,-0.27854 -1.0641,-0.71287 -1.00411,-0.71288 -0.77706,-0.75745 -0.34653,-0.60145 0.0359,-0.45661 0.29885,-0.46797 0.16735,-0.54575 -0.1076,-0.54573 -0.23911,-0.33428 -0.45437,-0.20057 -0.76504,-0.17804 -1.5062,-0.25628 -0.78886,-0.2674 -0.26318,-0.35634 0.0477,-0.3454 0.41853,-0.59032 0.56178,-0.63487 0.57382,-0.72403 0.27498,-0.33426 0.0716,-0.3454 -0.34654,-0.33405 -0.66941,-0.17827 -0.87823,-0.0628 -0.85527,-0.12662 -1.06386,-0.26718 -1.1715,-0.5794 -1.23141,-0.64603 -1.15946,-0.63487 -1.09974,-0.35656 -1.26732,-0.45659 -1.06385,-0.43456 -1.11177,-0.4009 -1.17149,-0.31197 -1.1715,-0.50119 -0.81294,-0.36769 -1.03999,-0.33403 -0.87267,-0.20058 -0.96824,-0.38997 -0.84881,-0.34517 -0.92057,-0.3677 -0.51387,-0.31175 -0.15555,-0.41226 0.0359,-0.33427 0.0478,-0.4009 0.0836,-0.52369 -0.0598,-0.52346 -0.59768,-0.76858 -0.37058,-0.34541 -0.6097,-0.35633 -0.19119,-0.31198 -0.048,-0.51231 0.0956,-0.41227 0.21526,-0.30084 0.28703,-0.52346 0.35855,-0.85773 0.0836,-0.80201 -0.26295,-0.49026 -0.44235,-0.23397 -0.40647,-0.13378 -0.46619,-0.21148 -0.0597,-0.234 -0.51411,-0.42339 -0.52591,-0.43432 -0.46619,-0.26742 -0.84881,-0.46774 -0.76502,-0.38997 -1.00414,-0.91346 -0.3229,-0.37882 -0.38241,-0.22285 -0.28033,0.0708 -0.26962,0.21884 -0.0532,0.42718 -0.0782,1.22163 -0.23911,1.38119 -0.21504,1.12515 -0.275,1.26997 0.0115,1.43689 0.29907,1.23656 0.38239,1.26978 0.29884,0.86886 -0.26296,0.6574 -0.64558,0.36745 -0.77705,-0.078 -1.21918,-0.46774 -0.8662,-0.47512 -0.68791,-0.75031 -0.57382,-1.03599 -0.54999,-1.14721 -0.45415,-1.20313 -0.25114,-0.40112 -0.76504,-0.85773 -0.60968,-1.08057 -0.25093,-0.76858 0.21504,-0.79087 0.53795,-0.75745 0.52613,-0.43454 0.64558,-0.50118 0.83678,-0.38998 0.59766,-0.57916 0.46619,-0.76881 0.0598,-0.64603 -0.25093,-0.70174 -0.43052,-0.37883 -0.33472,-0.13378 -0.32268,0.078 -0.20859,0.12633 -0.26295,0.34542 -0.37727,0.29682 -0.51945,0.44947 -0.41293,0.27478 -0.43031,-0.0892 -0.39444,-0.30083 -0.21526,-0.33428 -0.33472,-0.70173 -0.51409,-1.41482 -0.6097,-1.28113 -0.31065,-0.42319 -0.40647,-0.24513 -0.35208,-0.15198 -0.38262,0.0445 -0.49004,0.23376 -0.79555,0.85395 -0.93773,0.962 -0.55667,0.79823 -0.35855,0.92457 -0.38262,0.96916 -0.96157,0.81717 -0.97495,0.40824 -0.71064,0.0596 -1.16614,0.0518 -1.17684,0.22687 -1.47701,0.2411 -0.64557,0.16714 -0.14887,0.42719 -0.29348,0.10744 -0.66944,-0.15599 -1.45828,0.25628 -0.3971,0.0443 0.68837,6.17745 -0.55467,6.32697 -4.41833,7.21837 -5.145,5.97042 -21.4222,1.7821 -17.59661,9.62394 z"
      data-name="Ponto Chique do Martelo" id="ponto_chique_do_martelo" />
   <path class="neighborhood"
      d="m 11.87024,275.90419 1.344416,2.2135 -0.158219,0.48803 -1.107534,1.33928 -0.343179,1.20559 -0.02006,0.74206 0.278556,0.56159 0.280781,0.96937 0.320896,2.12146 0.358778,0.45906 0.962686,0.70865 0.744297,0.88913 0.886918,1.3237 0.196103,0.58608 0.750983,1.45294 1.958796,2.42008 -1.221184,2.30197 -0.334266,1.04737 0.04903,1.66464 0.650704,1.02731 0.432317,0.9248 0.04903,1.15212 -0.332038,1.10083 -1.127589,1.53094 -1.069649,1.22564 -0.548196,0.27856 -0.193874,0.4858 -0.545968,-10e-4 -1.009481,-0.46352 -0.922572,-1.41282 -1.657958,-1.62008 -0.9270288,-0.64401 -1.1454183,-0.46574 -0.6796728,-0.92481 -1.1164474,-0.54151 -0.5192258,-0.078 -0.5459669,0.0735 -1.1766148,0.45683 -0.601678,0.0223 -0.4635147,-0.23177 -1.1209037,-0.10698 -1.2278685,-0.0803 -0.54819666,0.12476 -0.38329013,0.35655 -0.08468413,0.69082 L 0,301.92066 l 0.42785875,1.69139 -0.11587412,1.71589 0.051259,0.53706 0.86909077,1.51534 0.4078048,0.33425 0.572707,0.18274 0.4902569,0.28303 0.6796728,0.79555 0.706414,1.1298 0.9537717,0.51701 2.210611,0.13591 0.9827384,0.439 0.2718691,0.46351 0.1337005,0.51255 0.1849606,1.61339 0.3253525,0.41226 1.2300973,0.004 1.530937,-0.55711 0.574937,-0.0759 1.720352,0.28969 0.545968,-0.28078 1.176613,-0.098 0.519226,0.10473 0.078,0.48803 -0.05571,0.63956 -0.608364,1.50866 -0.115874,1.22786 0.245129,0.51478 0.352093,0.41002 0.900288,0.59277 0.296384,1.05183 0.516996,0.18049 0.545968,0.0267 0.35655,-0.38108 0.08914,-1.20336 0.220614,-0.51252 0.603908,-0.91813 1.809491,-1.37717 0.603906,-0.30528 0.59945,-0.10033 0.548194,0.003 0.516998,0.20724 0.788867,0.79778 0.891376,2.58945 0.461286,0.361 1.174385,0.36325 1.007255,0.69526 1.691383,0.67075 0.545967,0.0803 0.601678,0.0267 0.383292,-0.32981 0.247357,-0.48582 -0.541511,-0.89805 -0.189417,-0.61727 -0.102507,-1.22788 0.05571,-0.53928 0.247357,-0.45905 0.851262,-0.81785 0.412261,-0.38106 0.519226,-0.15152 1.038451,0.18273 1.065194,0.0557 0.574937,-0.40781 1.47745,-0.71087 0.601673,-0.15153 2.489169,-0.45237 1.283578,-0.0468 1.611155,0.38999 1.147646,0.004 1.118674,0.13363 1.091934,0.31198 0.898068,0.66853 3.27357,1.42175 0.43678,0.283 0.376604,1.02509 0.02672,0.48801 -0.249589,0.51033 -0.628414,0.22729 -1.203358,0.14931 -1.174386,-0.0291 -0.599452,-0.25851 -0.574934,-0.001 -1.120906,0.43009 -0.412261,0.33204 -0.880234,1.3794 -0.113646,0.97384 0.104729,1.10085 0.594999,1.46184 0.133701,0.48804 -0.0021,0.56378 -0.193877,0.51031 -0.958222,0.48358 -0.875771,0.66185 -0.222848,0.5883 -0.329809,0.41002 -0.465741,0.3053 -0.519222,0.17606 -0.572723,-0.078 -0.762114,-0.77104 -0.572723,-10e-4 -1.535389,1.04291 -1.205579,0.48359 -0.655154,0.0223 -1.664647,-0.62175 -0.545967,-0.001 -0.62842,0.15154 -0.412261,0.30529 -0.220615,0.51253 -0.08468,0.63957 0.05348,0.48579 0.381063,0.38775 0.216157,0.46128 0.184962,1.58889 0.349865,1.02507 0.381062,0.33428 0.463514,0.23175 0.519225,0.18273 0.545967,-0.0245 0.545983,0.1805 0.488018,0.97607 0.869096,0.84903 1.007239,0.74652 1.256849,0.33648 0.545962,10e-4 1.64237,-0.55711 0.599441,0.0535 0.545962,0.30974 0.407819,0.30977 0.07136,2.56047 -0.545962,0.12705 -0.601684,-0.0803 -1.198895,-0.49024 -1.120905,-0.0557 -1.392771,-0.008 -1.149878,0.14931 -3.632353,-0.0129 -1.094162,0.098 -0.545967,-0.10473 -1.118676,-0.439 -1.118675,-0.0803 -0.358778,0.38105 -0.0624,1.74264 -0.220616,0.45906 -0.519225,0.12705 -1.802805,0.0179 -2.540419,-0.34095 -3.006161,0.0129 -2.511449,-0.1136 -0.494713,0.25627 -0.274099,0.53483 -0.08468,0.56379 0.269641,0.53928 0.900288,0.61726 0.599449,0.18275 3.168839,0.14035 2.210609,0.51924 2.870227,-0.0647 1.118675,0.15822 1.720354,0.3142 1.58219,0.92704 0.572709,0.0803 1.805034,-0.37885 1.860751,-0.5816 1.584415,0.008 0.545973,0.30974 0.325355,0.46129 0.131469,1.07634 -0.606127,1.50865 0.04904,1.1521 0.461277,0.90029 2.449059,2.33985 1.192209,1.87413 0.352096,1.1521 -0.0064,1.12759 -0.111425,0.51253 0.05344,0.61506 -0.249578,0.43454 -0.875781,0.5326 -0.601674,0.049 -1.693618,-0.23623 -1.147646,0.27856 -2.486926,0.0156 -0.385529,0.40781 -0.138164,0.61503 0.730929,1.41061 0.43678,0.38552 1.091933,0.13149 2.324254,-0.27186 0.572712,0.0535 2.101416,0.95599 0.49026,0.25852 0.381057,0.33426 -0.05794,0.4858 -0.519232,0.12476 -1.720348,-0.10698 -0.574944,0.17603 -0.329809,0.40781 -0.249578,0.5883 -1.22631,0.83856 -0.406467,0.64045 -0.01631,0.71823 -0.138164,0.4858 0.05344,0.58831 0.352096,0.36101 0.519221,0.30975 1.091934,0.18274 1.557686,-0.30084 1.094155,0.13148 0.572712,0.25851 1.279126,0.87577 1.582183,0.64624 0.245135,0.4613 0.543741,0.23398 1.120895,0.15822 0.434548,0.35877 0.05344,0.48802 -0.167125,0.58832 -1.147646,0.20057 -0.878003,0.61058 -0.08917,1.66465 -0.138164,0.56156 -0.35656,0.35877 -0.303058,0.61282 -0.0043,1.10085 -0.30529,1.04961 -0.0021,0.51252 0.517,0.23178 1.120906,-0.27633 1.094155,0.0535 0.927029,0.46575 0.545973,0.001 0.492481,-0.28079 0.684137,-0.0735 1.747087,0.33872 0.548194,-0.20278 0.3833,-0.32981 0.494713,-0.22953 0.599442,-0.049 0.982741,0.59277 0.49026,0.1805 0.519222,0.0535 1.149878,-0.40557 0.439001,-0.3053 0.572712,-0.10033 1.586648,0.0312 0.463509,-0.2273 0.254042,-1.64015 0.33204,-1.02284 0.303069,-0.53706 0.329809,-0.30529 0.87577,-0.35655 2.333171,-0.4145 0.548204,-0.20055 1.094155,-0.0155 0.603905,-0.14708 1.328153,-1.32146 0.519221,-0.0468 0.407808,0.31198 0.316439,1.02955 -0.25181,0.48356 -0.441233,0.30307 -0.3053,0.4078 -0.338716,0.94487 -0.3053,0.43454 -0.03123,0.51254 0.131469,0.48803 0.485807,0.44122 0.213932,0.53929 0.01556,1.02509 -0.412261,0.30529 -0.574934,-0.008 -0.494713,0.20057 -0.120331,1.0496 -0.171589,0.53704 -0.467973,0.35432 -0.115878,0.51256 0.98051,0.49692 0.481343,1.00503 0.04239,1.10308 0.240661,0.53928 0.463509,0.23623 0.467974,-0.30307 0.572723,0.0824 0.75765,0.90474 0.543751,0.15821 0.416704,-0.43231 0.338725,-0.99612 0.601685,0.0312 1.608934,0.47689 0.184959,0.46352 0.07136,1.07633 -0.58384,0.89362 -0.08681,0.48578 0.296373,0.41226 0.813384,0.69973 0.572712,0.10917 1.154331,-0.47689 2.301967,-0.33649 0.517,0.20947 0.804467,1.46853 0.352096,0.4145 0.434559,0.28524 0.521453,-0.098 0.773252,-0.70864 0.49025,0.18273 0.267422,0.51477 0.07801,0.48802 0.572702,0.10916 0.545983,0.004 0.577165,-0.22507 0.414493,-0.35432 0.467952,-0.2273 1.040696,-0.0913 0.46351,0.26072 0.378836,0.33649 -0.104729,1.97217 0.352096,0.36323 0.494713,-0.22729 0.115888,-0.48581 0.574934,-0.12261 0.296394,0.439 0.01556,1.07634 -0.746524,0.68636 -0.03123,0.4858 0.323124,0.41449 0.07136,1.02507 -0.169368,0.51255 -0.414493,0.4323 -0.338715,0.96939 -0.467974,0.25181 -1.729264,0.39443 -0.574934,-0.004 -1.225645,-0.36992 -1.060741,-0.55042 -1.120895,-0.0868 -2.221767,0.49248 -0.964897,0.52814 -1.096408,0.34986 -0.387732,0.43231 0.376604,3.10421 -0.225069,0.48582 -0.441234,0.27854 -2.168276,0.64626 -1.098619,0.47689 -0.545962,-0.21171 -1.040696,0.24734 -0.719783,0.76213 -1.149867,-0.0115 -0.414493,0.35433 -0.169347,0.53705 -0.938189,0.68412 -0.142617,0.48581 0.07801,0.5638 0.644015,0.98049 0.425631,1.10755 0.345411,1.0808 0.309754,1.6691 -0.474658,0.94485 17.631168,5.5147 1.53028,16.03696 7.268038,8.55274 8.415912,8.55252 7.65068,4.98903 10.11799,-7.75073 17.80722,-10.06718 17.21399,-1.06898 8.97059,-8.46385 6.71362,-3.65284 12.79568,-1.3364 10.92159,11.31489 12.62364,0.71265 11.0936,9.62173 12.24103,3.92004 15.30156,-6.41455 10.71098,-8.90907 8.79832,-16.03696 2.29529,-17.10703 -4.20796,-16.39506 1.91267,-6.41568 0.38263,-9.62394 -2.12304,-4.54444 -7.05791,-1.15858 -7.26826,8.1982 -9.94597,6.4159 -11.68637,4.36617 -16.83159,-2.13863 -3.06032,-5.70279 -0.76502,-7.12877 3.65306,-13.63424 7.44053,-3.83203 1.35803,-9.71376 3.61496,-11.67454 12.45138,-4.01054 7.65091,-1.42598 2.84971,-4.18878 -0.93704,-5.4365 -1.74065,-4.18901 4.59035,-7.84321 2.2953,-7.13034 0.97561,-8.2715 v -4.27837 l -2.94064,-0.45818 0.14351,-0.64623 0.0115,-0.65718 -0.43029,-0.18941 -0.31088,-0.0335 -0.54997,-0.31199 -0.33473,-0.31198 -0.17937,-0.4457 -0.0478,-0.67967 0.036,-0.66851 0.37058,-0.45685 0.49004,-0.31196 0.1794,-0.24515 -0.11301,-0.3414 0.12504,-0.44969 0.25092,-0.55709 0.26293,-0.54599 0.43032,-0.60167 0.41851,-0.93595 0.45415,-0.64624 0.52616,-0.54597 0.27497,-0.69082 0.0956,-0.7131 -0.25113,-0.45683 -0.46621,-0.86909 -0.49003,-0.3454 -0.49025,-0.55712 -0.54976,-0.62395 -0.29882,-0.50141 0.21504,-0.32311 0.21014,-0.42229 -0.56871,-0.0347 -0.54997,-0.30084 -0.92034,-0.75766 -1.12381,-0.90252 -1.20736,-1.0808 -0.50207,-0.49025 -0.50207,-0.92479 -0.35208,-0.93216 0.13675,-0.62776 -0.2509,-0.70195 -0.33473,-0.60169 -0.43032,-0.93593 0.0115,-0.65761 -0.19119,-0.46798 -0.66941,-1.01395 -0.75323,-0.76881 -0.78886,-0.54596 -0.75322,-0.32313 -0.53794,-0.44568 -0.87266,-0.62396 -0.76502,-0.64624 -0.49025,-0.60192 -0.47801,-0.76881 -0.34674,-0.46796 -0.37059,-0.22285 -0.13149,-0.24513 -0.21526,-0.47911 -0.44234,-0.57939 -0.75299,-0.45684 -0.55534,-0.54216 -0.59765,-0.31199 -0.49672,-0.56111 -0.34674,-0.38999 -0.43032,-0.14486 -0.71735,-0.22284 -0.39441,-0.46797 -0.0115,-0.38996 0.35856,-0.55734 0.22708,-0.38997 0.49027,-0.61283 0.64534,-0.5794 0.74119,-0.42339 1.07588,-0.5014 1.04002,-0.6242 0.3706,-0.35654 0.98028,-0.25627 0.63355,-0.23399 0.45437,-0.74653 0.29882,-0.82475 -0.10759,-0.46796 -0.35855,-0.37883 -0.41851,-0.12262 -0.62686,-0.0516 -1.42263,-0.28993 -0.86085,0.18965 -0.915,-0.13764 -0.34674,-0.42342 -0.0598,-0.53481 0.16736,-0.37906 0.1076,-0.36769 -0.21525,-0.65738 -0.0476,-0.70197 0.20324,-0.3902 0.4303,-0.23398 0.72914,0.0892 0.57382,0.0557 1.04002,-0.0892 1.25527,-0.27854 1.05181,-0.37885 0.63377,-0.33427 0.39445,-0.54596 0.6097,-0.88045 0.64558,-0.7911 0.28679,-1.159 -0.0432,-0.48224 -0.10033,-0.57626 -0.4662,-0.70219 -1.02797,-0.44568 -1.17148,-0.32313 -1.39211,-0.0519 -1.14765,0.0892 -1.29761,0.14106 -0.99233,0.156 -1.50621,-0.0892 -1.22473,0.0596 -1.01595,0.43477 -0.80113,0.60168 -0.4965,0.87644 -0.53794,1.06988 -0.20323,0.98049 -0.0772,0.46085 -0.96848,0.67967 -1.15946,0.12261 -1.50085,0.0408 -1.36291,-0.27856 -1.1833,-0.5239 -1.13584,-0.31199 -1.67355,0.0223 -1.53004,0.0445 -1.59535,0.26028 -1.24971,0.10744 -1.60201,-0.14484 -1.78119,-0.38997 -1.4583,-0.63511 -0.57382,-0.43454 -0.21526,-0.71332 0.0838,-0.59055 0.29886,-1.22587 0.58563,-2.08381 0.39465,-0.89136 0.5736,-0.85817 0.4185,-1.20359 0.0237,-0.89137 0.19143,-0.6019 0.27475,-1.28157 -0.0476,-1.00279 -0.26295,-0.61305 -0.44235,-0.52369 -0.7053,-0.5571 -1.06386,-0.41248 -1.53025,-0.41226 -0.83679,-0.3677 -0.29883,-0.53506 -0.25114,-0.83565 -0.11947,-0.78017 -0.49025,-0.95824 -0.47801,-1.13672 -0.35878,-1.04759 -0.34651,-0.94732 -0.53795,-0.67966 -1.2194,-1.25929 -1.19533,-1.24837 -0.62174,-0.45684 -0.71732,-0.31198 -0.72248,-0.10759 -0.6097,0.15598 -0.87265,0.64648 -0.98028,0.82474 -0.98676,0.79846 -0.64558,0.89158 -0.76503,0.54596 -1.39878,0.92504 -1.53006,0.49025 -1.33237,0.62798 -1.32681,0.56824 -0.81293,0.57962 -0.73582,0.89873 -0.50742,1.28558 -0.45438,1.57127 -0.38908,1.61183 -0.22709,1.91691 -0.15531,1.61583 v 1.33706 l 0.27476,1.27043 0.56201,1.01418 0.57382,0.67967 0.13149,0.41226 -0.0295,0.40514 -0.32937,0.20791 -0.57381,0.0223 -0.49004,-0.20058 -0.87265,-0.44591 -0.63355,-0.38997 -0.63353,-0.33427 -0.93239,-0.36768 -0.82496,-0.51254 -0.44235,-0.63534 -0.41827,-0.7131 -0.38263,-0.98072 -0.39444,-0.94733 -0.27498,-0.36767 -0.6097,-0.35655 -0.68145,-0.0668 -1.06922,0.20457 -0.73583,0.0739 -1.36269,-0.078 -0.98028,-0.51254 -0.49025,-0.52392 -0.35857,-0.85794 -0.26294,-0.95846 v -0.63511 l -0.19121,-0.74674 -0.43053,-0.63509 -0.64535,-0.79134 -0.63355,-1.17013 -0.17938,-0.95825 0.2868,-0.3679 0.69348,-0.234 0.78887,-0.32311 0.93238,-0.312 0.27499,-0.35676 0.13148,-0.35655 0.06,-0.99187 -0.0718,-1.549 0.0237,-1.14786 0.11946,-1.37072 0.19142,-1.43754 0.0357,-0.93619 v -0.70217 l -0.275,-0.57939 -0.58587,-0.44591 -0.96824,-0.38998 -1.0877,-0.45683 -1.3629,-0.55732 -1.32682,-0.47914 -1.25528,-0.36791 -1.29116,-0.43455 -1.06386,-0.49025 -1.19533,-0.62417 -0.89671,-0.66876 -0.82475,-0.75767 -0.33472,-0.4682 0.0357,-0.38998 0.39443,-0.49047 0.58585,-0.60167 0.62152,-0.76904 0.47822,-0.66875 0.31088,-0.90276 0.56178,-0.76903 0.32267,-0.49025 0.53795,-0.24513 1.0282,-0.26762 0.98007,-0.32314 0.69348,-0.4234 0.26296,-0.51277 -0.0115,-0.61304 -0.33472,-0.75766 -0.49004,-0.59077 -0.65761,-0.79131 -0.54974,-0.78017 -0.0598,-0.42341 0.0956,-0.50163 -0.15555,-0.51253 -0.47799,-0.66876 -0.63354,-0.46819 -0.71735,-0.62395 -0.63353,-0.76904 -0.28703,-0.55733 -0.54976,-0.85818 -0.63376,-0.52389 -0.90832,-0.30086 -0.81294,-0.0557 -0.42385,0.19341 -0.26963,0.43076 -0.21504,0.79131 -0.41849,0.92503 -0.54977,0.69103 -0.44768,0.33806 -0.65762,0.30106 -0.50853,0.41963 -0.78909,0.49025 -0.95622,0.59075 -0.23911,0.50162 -0.37594,0.92881 -0.38262,0.47934 -0.58028,0.0962 -0.9326,-0.0892 -0.83946,-0.18808 -1.0369,-0.18006 -0.91165,-0.01 -1.1804,0.24336 -0.92056,0.54619 -0.69617,0.61459 -0.2839,0.52214 -0.0115,0.53503 0.13148,0.65762 0.048,0.92502 0.69504,0.001 1.24325,0.84704 -0.16356,1.14206 -26.96632,25.4677 -20.05595,6.68532 -17.82749,17.82749 -20.055922,2.22844 -6.685314,-20.05593 -47.729327,46.98146 z"
      data-name="Padre Brito" id="padre_brito" />
   <path class="neighborhood"
      d="m 453.79628,257.8525 -3.94011,1.87189 -3.4427,4.99193 2.79244,4.18945 -5.738,3.20897 -2.79268,6.50702 v 5.70457 l -3.4427,5.34803 -1.53029,10.69583 -1.91266,7.84322 4.59057,8.91262 0.49718,7.39752 -9.6781,10.07076 -4.97298,2.85173 -1.97529,2.85419 0.50229,-0.28971 1.00413,-0.13378 2.53418,0.69082 0.50206,0.28947 0.81293,0.17828 1.76916,0.0892 3.06032,-0.24512 6.12062,-1.15857 1.12381,0.0892 0.57382,0.0668 0.31063,-0.17827 0.45439,-0.33406 0.7171,-0.0445 0.26319,0.156 1.02797,0.82429 0.64559,1.47032 0.50205,0.22285 0.76503,0.0223 0.59767,-0.33403 0.16736,-0.42341 -0.16736,-0.77972 -0.11947,-1.00259 0.26294,-0.31197 0.43033,-0.17829 1.17149,-0.33426 0.45438,0.17828 0.16735,0.42339 -0.1912,0.86889 -0.048,0.60146 0.52592,1.60423 0.024,0.84658 -0.21528,0.64603 -1.19533,1.5374 -1.91267,2.09428 -1.38675,1.24771 -0.0956,0.51231 0.26297,1.55947 0.40645,0.26741 0.98031,0.26741 0.6694,0.42318 0.59769,1.06944 0.23911,1.44825 -0.0956,1.13605 0.1433,0.62396 0.40646,0.89117 0.45438,0.49003 0.62152,0.11145 0.95644,-0.0445 0.57382,-0.24513 0.43031,-0.4009 0.66942,-1.00256 0.26296,-0.0892 0.83678,-0.0223 1.29114,0.62373 1.41061,1.26998 1.00414,0.37862 1.88881,-0.57917 0.66943,-0.0223 0.1912,0.37883 -0.16737,0.73516 -0.35856,0.13378 -0.69347,-0.11146 -0.45417,0.15598 -0.14351,0.49003 0.26297,0.77975 0.16734,0.64602 -0.38238,0.20056 -1.41062,-0.95801 -0.47822,0.11145 -1.76915,1.26977 -0.0958,0.33427 0.19141,0.55687 1.5062,1.04715 1.1715,0.80201 0.1435,0.33426 0.1433,0.71288 0.52613,0.17829 0.66943,-0.42342 0.57381,-0.60145 0.40647,-0.82431 1.29094,-0.802 0.76525,-0.37884 1.41059,-0.49004 1.38654,-0.35098 1.76937,-0.0892 0.74118,-0.22261 0.83679,-0.49027 0.7171,-0.91342 0.43032,-0.089 1.62587,0.93552 0.40646,0.66851 0.71733,0.24491 0.81272,-0.42317 0.38262,-0.53484 0.1912,-0.64602 0.47822,-0.31176 0.52591,-0.0445 0.57382,-0.0223 0.31087,-0.15598 0.21526,-0.33427 0.0237,-0.31176 -0.14862,-0.44211 -0.234,-0.3822 -0.31063,-0.64623 0.14328,-0.4009 0.52613,-0.20056 0.50207,0.0223 0.1912,0.35654 0.38262,0.22263 0.93238,-0.0223 0.31087,-0.26719 0.3347,-1.2477 0.26297,-0.22285 0.31085,-0.0223 0.16736,0.75767 -0.0956,0.28947 -0.47823,0.35655 -0.21527,0.53462 0.19119,0.33425 h 0.43055 l 0.6215,-0.4234 0.50208,-0.0445 0.66941,0.13378 0.28702,-0.17829 0.0237,-0.28947 -0.47821,-0.71288 -0.0956,-0.46798 0.1912,-0.42316 0.76524,-0.46797 0.90852,-0.11146 0.59769,0.15598 0.38238,-0.11146 0.50208,-0.62375 1.02819,-0.98028 0.50208,-0.17826 0.31087,0.0892 0.26297,0.44569 0.35854,0.13349 0.28702,-0.15577 0.50207,-0.55711 0.3824,-0.0668 0.52613,0.17827 0.26297,0.51231 0.62151,0.20056 1.05204,0.0892 0.4303,0.11145 0.048,0.24512 -0.26297,0.35634 0.11946,0.26742 0.62174,0.13362 1.45828,0.0892 0.54998,0.20055 0.23912,0.15579 0.57382,0.2674 0.86062,1.11399 1.2194,1.06943 0.31065,0.46775 0.23912,0.11145 0.0956,-0.28969 -0.11947,-0.57917 0.21529,-0.24512 0.33471,0.11145 0.98007,0.8243 1.48234,1.67087 0.23911,-0.0668 0.28702,-0.51231 0.23911,-0.73518 0.40626,-0.13363 0.33492,0.11146 0.21506,0.66831 0.1196,0.46774 0.43031,-0.15576 0.35857,-0.31198 0.66941,-0.17828 0.8847,0.0223 0.4303,-0.11146 0.59767,0.0669 0.40647,0.24512 0.66941,0.0892 0.28704,0.0445 0.478,0.33405 0.21527,0.44567 -0.0718,0.46775 -0.40646,0.42342 -0.59766,0.60145 -0.048,0.37884 0.28703,0.40088 0.64557,0.15599 0.71712,-0.0223 0.33471,-0.26741 0.47822,-0.35632 0.43031,0.0223 0.52614,0.28948 0.57381,0.15599 0.64536,-0.0445 h 1.14765 l 0.54998,0.20056 0.57382,0.91344 0.54975,0.35631 0.8847,0.22285 2.34299,0.26743 1.02818,-0.33428 0.54977,-0.49003 0.71733,-1.60402 -0.0691,-0.62041 -10e-4,-0.87222 0.69349,-2.20569 0.23889,-0.57919 0.71734,-0.37882 0.90853,-0.0445 1.37472,0.36212 0.88537,0.0644 1.473,-0.1352 0.77393,-0.47533 1.51267,-2.23714 0.45282,-0.6186 -0.009,-0.6066 0.21102,-0.22951 0.21995,0.0329 0.50116,0.17206 0.79155,-0.48358 0.36947,-0.8604 0.25493,-0.0984 0.31667,0.0409 1.50375,1.40971 0.66853,1.36849 -0.65159,-1.79054 -0.87979,-4.18857 3.17485,-5.07973 1.03288,-4.18857 2.2953,-3.20828 3.82533,1.42596 8.53067,0.62376 -1.91267,-4.63427 6.50303,-1.7823 1.91267,-1.78253 1.53027,-5.70368 3.44271,-5.70413 2.56292,-3.11936 3.17509,-4.72362 4.09318,-4.18901 -3.32816,-2.22822 -20.38909,-13.45865 -4.20795,-2.13929 -12.62364,-17.47052 -22.18723,-1.06964 1.53026,-18.18472 -2.67769,-3.20916 -5.35558,0.35654 -1.0329,4.54644 -3.94009,2.94154 -5.73801,0.71334 -4.20796,1.78275 -6.12061,3.20894 -7.15351,0.62396 -9.56334,2.49608 -5.08774,-1.33707 -2.94556,-6.50725 z"
      data-name="Colônia Rodrigo Silva" id="colonia_rodrigo_silva" />
   <path class="neighborhood"
      d="m 530.1902,354.8323 0.38286,0.53639 0.43456,0.3365 1.11866,0.24066 0.51699,0.46575 0.0759,0.51253 -0.33648,1.04736 -0.36101,0.40781 -1.35043,1.11646 -0.19611,0.48579 -0.0201,2.20616 -0.0868,0.48579 -0.25182,0.4858 -1.15879,1.09194 -0.004,0.51254 0.18718,0.51477 0.54596,0.0557 1.15433,-0.45238 1.13206,-1.22117 0.88023,-0.60837 1.70253,-0.49918 1.14986,-0.22061 1.04291,-0.34986 0.90698,-0.58163 0.85572,-0.76211 0.96937,-1.22343 0.52146,-0.27854 1.23233,-0.14265 0.51922,0.15821 1.034,0.62397 0.54596,0.18273 2.351,-0.0312 0.32535,0.41228 -0.25182,0.58829 0.15378,1.02732 0.38105,0.36099 0.24067,0.46353 0.38106,0.33648 0.51922,0.0312 0.8134,0.673 1.09193,0.31642 0.43454,0.31199 0.18718,0.51254 -0.22506,0.48579 0.13377,0.48804 0.35208,0.36323 0.0201,0.58831 -0.71755,0.78886 -1.46185,1.19445 -0.71978,0.91588 -1.35044,1.09194 -0.71756,0.76213 -0.83567,1.53315 -0.35876,0.40558 -1.04737,0.81337 -0.49472,0.30309 -0.55042,0.1738 0.29192,0.9783 0.4078,0.36099 0.15822,0.51478 -0.30307,0.45906 0.0201,0.61505 0.49025,0.26072 0.21393,0.51477 -0.4167,0.61059 -0.0115,1.18107 -0.17829,1.66466 0.37885,0.33648 0.49471,-0.20057 0.27854,-0.45905 -0.078,-0.48803 0.55487,-0.86687 0.44123,-0.30528 0.30529,-0.4078 0.60169,-0.14931 0.54596,0.20947 0.37885,0.38775 0.13148,0.51476 -0.004,0.51254 0.4078,0.33649 1.17884,-0.32312 0.60614,-0.40557 0.62841,-0.0201 -0.1136,0.51256 -0.77325,0.88913 -1.12536,0.34987 -0.3053,0.43455 0.0936,1.64013 1.23232,-0.16937 0.80001,-0.68413 0.2518,-0.5103 0.41226,-0.35655 0.49248,0.18273 0.0759,0.48802 -0.27631,0.43456 -0.087,0.53705 0.0445,1.02731 0.34539,0.97605 0.32537,0.439 0.42786,1.02954 0.18718,0.51255 0.049,0.53926 0.0312,2.53821 -0.14707,1.02507 -0.22284,0.48581 -0.11589,0.66407 0.21392,0.51477 0.93372,-0.47911 0.67744,0.85126 0.28971,1.05404 1.0429,-0.1961 0.74653,-0.78886 0.49471,-0.32981 0.51923,0.0557 0.30529,-0.4078 1.17662,-0.0669 1.03844,0.16268 -0.0868,0.48579 0.049,0.48802 1.35934,1.01173 0.21394,0.4635 0.10473,0.5638 -0.11361,0.48581 0.10473,0.51477 1.24795,1.00948 0.70193,1.13427 1.00504,0.62396 -0.087,0.48579 1.17661,0.0602 1.49973,0.62842 0.49248,-0.20057 0.19611,-0.46128 0.0335,-0.51253 0.80001,-0.7354 0.24959,-0.53704 0.99166,-0.50587 0.51699,0.0824 0.38105,0.3365 0.9783,0.59722 0.54597,0.20948 0.65516,0.0824 0.52145,-0.0468 1.15433,-0.55488 0.54597,0.004 1.06518,0.23843 0.40558,0.4145 0.0356,2.1549 0.15823,0.61505 0.84235,0.69973 0.52145,-0.20057 -0.20947,-1.12981 0.19609,-0.45906 0.55042,-0.20279 1.12092,-0.0402 0.57493,-0.12476 0.25182,-0.45906 0.0868,-0.53706 0.38774,-0.48357 0.43902,-0.27855 1.09415,-0.0179 0.57495,0.10699 1.444,0.65293 0.54822,-0.0982 0.74428,-0.76212 0.90921,-0.65962 0.25182,-0.5103 0.087,-0.48802 -0.0514,-0.56381 0.52369,-0.2273 1.14986,-0.27187 0.46798,-0.25181 0.49694,-0.43232 0.38552,-0.63288 0.22507,-0.33649 0.24959,-0.45906 -0.10473,-0.48803 0.12032,-1.02508 0.22285,-0.5103 0.33204,-0.4078 0.52146,-0.27856 0.6039,-0.17382 2.92817,0.049 0.51923,-0.0468 0.41226,-0.32981 -0.15377,-1.00056 -0.26964,-0.439 -0.15822,-0.61728 0.16937,-0.48357 0.52146,-0.17605 2.2418,0.0445 2.21284,0.45239 0.9872,-0.42787 1.56436,-0.4479 1.6691,-0.0892 0.46798,-0.27855 0.55487,-0.96936 0.96492,-0.68415 0.49472,-0.17604 1.55989,-0.21839 0.52145,-0.20056 0.4145,-0.35655 0.86018,-1.40169 0.49471,-0.20279 0.3053,-0.45906 -0.078,-0.56378 -0.43455,-0.33651 0.33204,-0.38105 2.22621,-1.034 0.24957,-0.51031 -0.37882,-0.33649 -1.06743,0.0156 -2.22175,0.67522 -1.01839,0.58161 -0.38553,0.32981 -0.46574,0.22731 -0.52145,0.0735 -0.51922,-0.13378 -0.26741,-0.48803 0.0579,-0.48801 0.69082,-0.81338 0.82676,-0.6106 0.44789,-0.96937 0.93372,-0.53037 1.59111,-0.32089 0.439,-0.32981 1.05182,-1.24793 -0.13148,-0.48803 -0.77997,-1.46853 0.004,-0.51254 0.73092,-2.09696 1.07856,-1.29695 2.75436,-2.08136 1.4574,-0.80893 0.41226,-0.32981 1.42843,-0.67966 0.82229,0.008 1.36603,0.18942 5.01041,1.08747 3.32818,0.80202 3.94009,-2.22777 1.53027,-4.27749 1.4153,-4.5449 -0.38264,-5.70323 0.11474,-3.65376 2.56315,-5.61453 6.12064,-3.92117 2.67769,-4.99081 5.738,-4.63426 7.38304,2.04971 2.56293,-6.68396 7.38303,1.33684 0.26763,-11.67546 -2.67769,-9.62572 v -14.97398 l -6.12062,-1.78277 -6.7709,-3.29785 0.26787,-3.1196 -5.94124,-8.70694 -11.65561,7.28075 -12.12627,-0.44568 -11.9734,5.0806 -9.94595,6.06114 -4.20796,10.33904 -4.97299,2.49562 -8.79831,-2.13905 -6.88564,1.06964 -4.09321,0.98029 -5.85275,3.29785 -4.09318,4.18903 -3.1751,4.72361 -2.56291,3.11936 -3.44272,5.70414 -1.53027,5.70368 -1.91267,1.78253 -6.50301,1.78231 1.91267,4.63426 -8.5307,-0.62375 -3.82533,-1.42596 -2.29527,3.20826 -1.0329,4.18858 -3.17485,5.07972 0.87978,4.18858 0.6516,1.79055 z"
      data-name="Ponte do Cosme" id="ponte_do_cosme" />
   <path class="neighborhood"
      d="m 710.95612,416.28746 0.4078,0.18498 1.98554,2.06128 0.92258,1.43959 0.2429,0.54152 0.49025,0.41226 0.16045,0.59052 0.81337,1.54209 0.64624,1.67132 0.21394,1.17885 0.3766,0.97605 0.59722,0.92703 1.24347,2.59614 -0.008,1.15433 0.42786,1.6936 1.21674,2.57162 0.84457,0.85126 0.29638,0.53929 1.87635,2.08581 0.95377,0.74875 1.03622,0.62174 0.49248,0.1805 0.5482,-0.049 1.11869,0.31421 1.66464,0.82897 0.51922,0.13149 1.50197,0.64847 1.14765,0.31198 1.52869,0.75098 0.78887,0.85126 0.78442,1.54208 0.4078,0.38775 0.18941,0.48802 0.59722,0.9248 1.33484,1.034 2.97274,1.70698 0.87132,0.77327 0.70641,1.0028 1.11645,1.23678 0.26964,0.48803 20.53616,2.52705 24.36774,1.87078 15.03349,-5.7906 -1.53005,-14.25464 3.32817,-10.24569 -3.71079,-4.36572 -1.14744,-14.25577 -0.76523,-13.187 1.03287,-11.31644 -2.94553,-4.72273 -0.49719,-1.69295 3.55749,-7.57444 6.12062,-3.20784 2.18053,-4.54469 -1.91267,-18.17957 6.1204,-9.26852 0.49739,-6.86226 -4.97299,-9.26873 -4.59035,-9.26918 3.44271,-2.85197 0.26787,-4.54555 -0.76503,-7.13055 -6.18078,-4.26345 5.91292,-3.3128 -5.08775,-9.53727 -1.91267,-3.56549 -6.38825,-2.94154 -3.94032,-4.54601 -3.06032,-2.8524 -1.53003,-3.56574 -0.76502,-4.99191 -4.59059,-2.8524 -4.20773,1.06966 -2.56315,-0.80225 -4.97299,-7.48821 -4.70511,-4.54624 -10.32859,0.35655 -8.4157,-0.35655 -8.79831,-3.20939 -6.88564,-7.13166 -8.7083,-5.77077 1.82265,4.70088 -1.14766,3.56595 -0.65024,4.54646 1.53004,4.6356 2.18053,7.22079 -7.26828,4.63539 -1.14763,3.92226 2.29527,3.56549 0.11474,7.39864 2.94555,4.01119 -1.4155,4.18947 -4.59034,4.99148 -2.29531,7.48731 -8.03307,-1.42619 -5.85299,3.65442 -5.738,7.84365 -4.20794,12.12136 -1.53006,5.70413 -10.32859,8.55586 -7.26803,6.41677 -9.83121,-2.2282 -7.38302,-2.04972 -5.73801,4.63426 -2.6777,4.99081 -6.12063,3.92115 -2.56314,5.61455 -0.11474,3.65375 0.38261,5.70324 -1.41527,4.5449 -1.53027,4.27749 -3.94011,2.22775 -3.32817,-0.802 -5.0104,-1.08749 0.66407,0.45907 0.0645,0.17158 0.43008,0.25628 0.52369,0.24736 0.60167,0.13149 0.7064,0.82452 0.43679,0.3365 1.63568,0.80223 1.47075,1.05851 0.57495,0.18272 1.00725,0.95601 0.40334,1.05182 0.4078,0.46351 0.54598,0.20948 0.5482,-0.15154 0.54596,-0.0223 0.57494,0.18274 0.49025,0.283 1.06742,0.0824 0.51923,-0.1493 0.33204,-0.41003 0.73761,0.0557 1.49974,0.98274 0.3521,0.41227 0.21615,0.51254 1.02952,1.67356 0.21618,0.64178 0.26518,1.51533 0.18719,0.48803 -0.0312,0.51255 -0.3298,0.40779 -0.0312,0.51255 0.45905,1.02954 0.13147,1.02507 0.70643,0.85129 0.21616,0.56377 0.23175,2.15713 0.64849,1.6446 0.18718,0.71756 0.0223,0.59053 1.71144,2.34208 0.56825,1.0028 0.32534,0.41226 0.41003,0.30974 1.25684,0.0335 1.47524,0.3922 3.11534,0.63066 1.39502,0.10916 2.02564,0.0115 1.14764,0.13362 0.51922,0.10698 1.09193,0.64625 3.0084,0.37438 1.6379,0.31644 0.60391,-0.2273 1.0652,0.23621 1.2301,0.54375 0.43454,0.28524 0.84234,0.97828 0.9003,0.64624 0.54596,0.18273 1.25684,0.13377 1.36157,1.16102 1.96326,1.18998 1.25237,1.21226 0.54599,0.33651 1.03622,0.38997 1.96992,0.24067 1.61116,0.54596 0.21617,0.46351 1.00502,1.38833 0.37883,0.439 0.49249,0.23398 0.49025,0.18052 4.21175,0.3298 1.61338,0.34094 2.15491,1.14097 1.85851,0.36769 0.60168,0.234 1.14097,1.15878 0.54596,0.36322 1.06519,0.36324 1.80505,0.11145 2.65406,0.32313 1.74932,0.26518 1.22787,0.33872 0.51923,0.20726 1.49973,1.03398 0.95377,0.80001 0.78665,0.90029 0.54596,0.36324 0.5727,0.20724 1.17662,0.008 1.04291,-0.55934 0.38552,-0.33204 0.63065,-0.20055 1.12312,0.0557 1.00727,0.90028 z"
      data-name="Mantiqueira do Palmital" id="mantiqueira_do_palmital" />
   <path class="neighborhood"
      d="m 855.39048,346.4175 -2.3336,-10.3912 -5.69969,0.76636 -3.48126,-0.0532 -1.10932,-2.44191 -2.29507,-7.48622 -3.44292,-3.56504 -4.6287,-7.53994 -7.22994,-7.07662 -3.44271,-5.3478 -4.62891,-8.25346 -9.18784,1.06341 0.76501,7.13055 -0.26785,4.54557 -3.44272,2.85195 4.59036,9.26919 4.97298,9.26874 -0.49738,6.86225 -6.1204,9.26851 1.91266,18.17958 -2.18053,4.5447 -6.12061,3.20782 -3.55749,7.57445 0.49716,1.69295 2.94555,4.72274 -1.03288,11.31643 0.76525,13.187 1.14742,14.25576 3.7108,4.36573 -3.32817,10.2457 1.53003,14.25464 -15.03347,5.79059 -24.36774,-1.87078 -20.53616,-2.52704 1.02731,2.49362 0.69972,2.07913 2.97496,6.1438 0.12705,1.64236 0.43232,1.02731 0.0223,1.12981 0.2674,1.12982 0.43009,1.12981 0.73315,1.05406 0.0533,0.48803 0.3521,0.51477 0.81559,0.84903 1.47301,0.95823 1.2301,0.41449 1.03621,0.54373 1.71591,1.47077 0.51923,0.28525 0.38106,0.43677 2.07466,0.7287 1.6134,0.36769 0.46352,0.23176 0.32311,1.12981 -0.0335,1.05182 -0.83344,2.15045 -0.11144,0.48579 -0.0335,1.05183 0.0245,0.51254 0.40112,1.51534 0.0691,2.23066 0.27187,0.51477 0.40779,0.36101 1.0095,0.54374 3.79724,1.40169 2.45575,1.52647 1.85406,1.34152 0.32536,0.38552 0.59721,0.95377 0.43232,1.05183 0.0468,1.20558 0.16044,1.00057 -0.1226,2.10364 0.10472,1.02508 0.21616,0.53929 0.35209,0.41226 0.51476,1.02954 0.12476,2.12815 0.16269,0.48803 1.74039,1.98331 1.74487,1.26352 0.32535,0.46352 0.16267,0.48803 1.2524,1.21226 0.32534,0.46352 0.89138,1.97886 0.73537,0.84903 1.06298,0.72424 0.57494,0.23176 1.12089,-0.0714 1.5911,-0.60614 0.96046,-0.48356 0.46797,-0.35655 0.32981,-0.38329 0.0579,-0.48803 0.38999,-1.04737 0.38552,-0.51253 0.57716,-0.35655 1.09416,-0.0445 0.63064,0.10472 0.46129,0.41228 0.54596,0.25849 1.17663,0.18719 1.64236,0.1092 2.4379,-0.21839 1.2301,0.004 1.31256,0.16045 1.64013,0.41895 1.28803,-0.0445 1.03844,0.0803 0.57717,-0.17605 0.79778,-0.76435 1.91646,-0.17159 0.33204,-0.45906 0.96045,-0.7131 0.54819,-0.12702 1.39725,0.006 1.72258,0.28969 2.29528,0.55041 0.95599,0.61951 1.30811,1.08303 1.00947,0.44122 0.92703,0.69751 0.32537,0.43677 0.51922,0.36101 1.66686,0.5727 1.60449,1.67356 0.46351,0.30976 0.57494,0.20947 0.54819,-0.17828 1.12313,-0.0714 1.7003,-0.58161 1.06741,-0.0201 0.81783,0.67076 1.84516,2.77663 1.33261,1.64905 0.87131,0.79778 0.46351,0.30975 0.5482,0.0803 0.54597,0.029 0.52145,-0.17828 0.54819,0.029 0.51925,0.1805 0.43454,0.38775 0.59945,0.87577 0.78216,1.95212 1.7939,2.23958 0.67746,1.51533 0.29415,1.10308 -0.47243,1.69139 -0.52592,0.97159 -0.41672,1.07411 -0.22729,1.51311 -0.52814,1.45962 -0.0312,1.02509 0.35211,0.46351 0.57493,0.20724 0.60168,-0.0223 0.52146,-0.17828 0.51922,0.10473 0.43677,0.28524 1.551,1.54653 1.06741,0.26073 1.03623,0.44123 0.52145,-0.0245 0.49248,0.18272 0.49026,0.43678 0.32535,0.46351 0.21617,0.53929 0.13591,5.25911 0.59723,0.90029 0.76212,0.77104 0.81783,0.64625 1.03399,1.31255 1.55769,0.72423 0.87132,0.6975 1.98553,2.3421 1.22564,1.28803 1.50198,0.64848 3.55881,0.1181 0.51922,0.0803 0.46351,0.283 3.64127,0.22285 1.12312,-0.27633 1.01617,-0.63733 0.54819,-0.15153 1.78054,-0.1961 2.40894,-0.0401 0.38106,0.33426 1.06742,0.1337 2.73873,0.0379 1.52873,0.67299 0.87132,0.67075 1.08969,1.21005 2.78333,1.85851 1.08748,1.46855 0.67075,2.66966 0.40557,0.97606 0.21394,0.97382 -0.008,1.07857 -0.14264,0.99834 0.10248,1.46185 4.60841,-19.38071 17.82751,-11.14219 v -22.28437 l 17.82749,-15.59906 8.91373,-17.8275 11.1422,-11.14218 11.14218,11.14218 h 17.82751 l 1.12825,-5.07705 -12.96727,-6.1975 -8.83665,-6.12888 -10.29003,-7.76833 -9.60167,-5.41644 -1.53026,-3.91982 -0.3443,-9.55041 -8.0714,-5.06032 -8.76022,1.85293 -3.09842,11.68882 -10.71119,5.34514 -8.75999,7.55461 -10.74931,0.99768 -4.97298,-6.77044 -5.31727,-6.69935 -5.77634,-15.39494 0.42094,-5.27427 -4.61909,-3.39056 -4.21753,-3.09574 -2.29529,-6.77133 0.38262,-12.11757 4.59035,-13.54355 7.3331,-8.26973 3.03359,-3.4211 -4.24608,-8.25145 -0.76501,-9.26762 -0.76524,-6.05979 v -2.49518 l -4.97298,-1.06921 -2.67769,-2.85173 -2.63935,-4.58078 z"
      data-name="São Sebastião dos Torres" id="sao_sebastiao_dos_torres" />
   <path class="neighborhood"
      d="m 976.61546,482.34436 3.32861,-14.97889 20.05593,-20.05593 -22.28437,-31.19812 -6.68531,-35.655 -11.14219,-13.3706 8.91376,-26.74125 -11.1422,-20.05594 -7.57423,-15.14846 -2.50387,-0.0756 -5.35538,3.20873 -0.80334,4.93754 -5.69989,1.47969 -5.35539,3.2085 -4.20795,1.78253 -6.54135,6.3633 -5.69989,-1.3725 -9.98407,-0.0535 -4.16964,3.61854 -15.72228,1.37225 -4.20796,5.70392 -8.37759,2.19234 -6.54136,2.08537 -9.52499,6.82636 2.63935,4.58078 2.67769,2.85174 4.97297,1.06919 v 2.49519 l 0.76525,6.05979 0.76501,9.26762 4.24608,8.25145 -3.03359,3.42111 -7.3331,8.26973 -4.59035,13.54354 -0.38263,12.11756 2.2953,6.77134 4.21753,3.09575 4.61909,3.39055 -0.42094,5.27428 5.77633,15.39494 5.31728,6.69934 4.97298,6.77044 10.74931,-0.99767 8.75999,-7.55462 10.71119,-5.34513 3.09842,-11.68883 8.76022,-1.85294 8.0714,5.06034 0.3443,9.55041 1.53026,3.91982 9.60167,5.41643 10.29003,7.76833 8.83665,6.12888 12.96727,6.19751 z"
      data-name="Correia de Almeida" id="correia_de_almeida" />
   <path class="neighborhood"
      d="m 950.08546,305.14017 -1.3395,-2.67903 -11.14219,-17.82749 -2.0272,-46.62404 -15.19327,-4.30936 -3.40462,-4.5821 -3.44269,1.42642 -2.33363,2.08604 h -5.73801 l -1.14763,5.34892 6.92396,7.54169 1.10933,7.79106 -4.16964,-1.01616 -7.65066,-1.4262 -8.45404,-0.0535 -2.63958,-1.01639 -1.95098,-2.90611 -3.06009,-5.34869 -2.67791,-5.3487 -3.82534,-4.27926 -6.88566,-3.56595 -19.12689,-2.49606 -3.44271,4.27903 -17.55852,2.19322 3.4046,6.72164 -1.14764,11.05394 -4.20773,3.56573 4.59033,19.25436 -5.69989,1.83624 -5.01106,-0.0536 -8.03331,6.41767 -7.16064,7.39194 -5.91292,3.31281 6.18079,4.26344 9.18784,-1.06342 4.62891,8.25347 3.44271,5.3478 7.22996,7.07663 4.62868,7.53992 3.44292,3.56504 2.29508,7.48621 1.10932,2.44193 3.48126,0.0532 5.69968,-0.76637 2.33363,10.39121 9.52499,-6.82637 6.54136,-2.08537 8.37759,-2.19234 4.20796,-5.7039 15.72228,-1.37228 4.16964,-3.61854 9.98407,0.0533 5.69989,1.3725 6.54135,-6.36329 4.20795,-1.78253 5.35539,-3.20851 5.69989,-1.47968 0.80334,-4.93755 5.35538,-3.20873 2.50387,0.0759 z"
      data-name="Costas da Mantiqueira" id="costas_da_mantiqueira" />
   <path class="neighborhood"
      d="m 957.65969,108.5871 -2.22841,-4.45688 -2.22845,-4.456859 2.22845,-24.512803 -13.37064,-8.913753 -2.22844,-42.340306 H 928.69004 L 897.4919,39.505562 884.12129,35.04868 859.60848,84.074296 h -17.8275 l -8.91374,11.142192 -8.91375,-4.456881 -8.91374,13.370613 -20.05594,2.22844 -2.22844,8.91376 -43.68138,27.04097 -0.43053,9.00379 h -4.59036 l -5.33644,1.83711 1.91265,6.06336 -0.019,6.00987 1.53007,3.56662 3.0603,0.35676 3.82535,4.27994 4.97297,3.92317 -1.12848,6.47316 -2.67768,1.78318 -9.20012,3.15637 -4.57119,3.61987 -0.38262,4.63627 -0.0192,3.15613 -3.44271,4.63603 3.84449,9.32558 -6.50324,1.78319 -9.13615,9.86017 8.7083,5.77077 6.88564,7.13166 8.79831,3.20938 8.41569,0.35655 10.32859,-0.35655 4.70512,4.54625 4.973,7.48821 2.56314,0.80225 4.20772,-1.06966 4.59059,2.8524 0.76502,4.99192 1.53003,3.56572 3.06032,2.8524 3.94032,4.54602 6.38826,2.94154 1.91266,3.56549 5.08775,9.53726 7.16063,-7.39194 8.03331,-6.41768 5.01109,0.0535 5.69989,-1.83622 -4.59036,-19.25437 4.20773,-3.56572 1.14764,-11.05393 -3.4046,-6.72164 17.55852,-2.19323 3.44272,-4.27904 19.12688,2.49607 6.88566,3.56594 3.82534,4.27927 2.67792,5.3487 3.06009,5.34869 1.95097,2.90611 2.63959,1.01638 8.45403,0.0536 7.65068,1.42619 4.16963,1.01617 -1.10933,-7.79106 -6.92397,-7.5417 1.14764,-5.34891 h 5.738 l 2.33362,-2.08605 3.44271,-1.42641 3.40461,4.5821 15.19327,4.30935 -0.20125,-4.63002 22.28438,-20.05594 v -15.59905 l -8.91374,-2.22844 15.59906,-28.96968 -6.68532,-57.93937 z"
      data-name="Senhora das Dores" id="senhora_das_dores" />
   <path class="neighborhood"
      d="m 608.06094,138.30355 0.52414,0.82786 0.55888,0.73827 0.95044,1.04514 0.62752,0.71065 1.67067,1.76871 0.35855,0.54977 0.63933,0.7024 0.59811,0.90251 0.34051,0.93638 0.40067,2.04548 0.3764,1.03089 0.59186,1.15365 0.67544,1.15367 0.29882,0.62418 0.26921,0.86019 0.0716,0.71154 0.0359,1.19823 0.005,3.69475 -0.0598,4.00137 0.16737,1.04225 0.25115,0.98629 0.53795,1.37094 3.66489,5.7574 0.55154,0.91656 0.21104,0.25448 0.10472,0.30797 0.23934,0.67878 0.29104,0.97695 0.25381,1.21584 0.0151,0.25181 0.0587,0.76524 0.0395,1.56636 -0.0424,0.4916 -0.0472,1.59044 -0.0529,2.02164 -0.11817,1.52448 -0.22129,1.06162 -0.24847,1.11777 -0.0589,0.92816 v 0.68279 l 0.0219,0.61104 0.47666,2.29106 0.12634,0.93973 0.009,0.72624 -0.0909,0.72447 -0.0536,0.19989 -0.12018,0.58429 -0.21527,0.73561 -0.21527,0.73827 -0.17025,0.62687 -0.13463,0.6576 -0.10162,0.62687 -0.0716,0.69104 -0.0274,1.28247 0.0892,1.53382 0.12947,3.26021 0.0327,1.01974 0.0329,0.4263 0.063,0.93883 0.1176,1.43422 0.0647,1.49953 0.0566,0.78285 0.11675,0.61304 0.1522,0.57938 0.22128,0.57963 0.53751,1.06853 2.3842,2.42121 3.99848,3.92294 0.80246,0.77192 2.15959,2.13953 0.58073,0.46596 0.61503,0.41249 1.02999,0.54663 1.07522,0.37571 0.82118,0.18073 0.65472,0.0748 0.73516,0.009 5.81265,-0.38219 2.20749,-0.076 1.0808,0.0905 0.98118,0.13977 1.4126,0.3287 1.91312,0.68704 1.90955,0.88425 1.00257,0.45971 4.90322,2.29952 2.1578,0.94642 0.7931,0.42831 0.83255,0.59031 0.82742,0.67768 0.42207,0.4341 0.76636,0.8439 0.43633,0.70486 0.28679,0.56848 0.2839,0.57939 0.69038,1.77717 0.25025,0.58052 0.3708,1.05961 0.38263,0.97005 0.78352,1.95878 2.80782,7.166 1.18466,3.25329 0.80669,2.07511 0.82274,2.14732 0.38128,0.97428 4.37442,-8.07028 2.29529,-4.27905 1.14764,-9.62773 5.75718,-3.86902 8.01413,-5.04584 4.60952,-2.79936 6.48407,0.30307 h 3.44272 l 9.65203,2.04435 9.13614,-9.86016 6.50325,-1.7832 -3.84451,-9.32556 3.44273,-4.63604 0.0192,-3.15614 0.38263,-4.63626 4.57118,-3.61987 9.20012,-3.15636 2.67768,-1.78319 1.12849,-6.47317 -4.97298,-3.92317 -3.82534,-4.27992 -3.06031,-0.35678 -1.53005,-3.56661 0.019,-6.00987 -1.91267,-6.06337 5.33644,-1.83711 h 4.59036 l 0.43052,-9.00379 -3.1158,1.92872 -17.82749,4.45688 -15.59906,-6.68532 -4.45686,11.14219 -11.1422,4.45688 -26.74125,-11.14219 -17.82749,-20.05593 -8.91374,4.45687 -11.14219,-6.68531 -22.28437,-2.22845 -2.61708,-0.43609 -0.42406,10.918 0.0319,0.84124 0.008,0.59899 0.01,0.57628 0.09,0.96602 0.44456,1.58911 0.19276,0.57806 0.30285,0.71421 z"
      data-name="Pinheiro Grosso" id="pinheiro_grosso" />
   <path class="neighborhood"
      d="m 649.33718,272.76721 5.94124,8.70696 -0.26788,3.11957 6.77089,3.29788 6.12063,1.78274 v 14.97399 l 2.67767,9.62573 -0.26763,11.67545 -7.38302,-1.33685 -2.56292,6.68399 9.83118,2.2282 7.26806,-6.41678 10.32859,-8.55585 1.53004,-5.70414 4.20793,-12.12136 5.73801,-7.84365 5.853,-3.65442 8.03308,1.4262 2.29528,-7.48732 4.59035,-4.99148 1.41551,-4.18946 -2.94554,-4.01119 -0.11474,-7.39864 -2.29529,-3.56549 1.14763,-3.92227 7.26829,-4.63537 -2.18052,-7.2208 -1.53005,-4.63561 0.65025,-4.54646 1.14765,-3.56594 -1.82264,-4.70088 -9.65203,-2.04437 h -3.44271 l -6.48408,-0.30307 -4.60952,2.79937 -8.01413,5.04586 -5.75717,3.86899 -1.14765,9.62776 -2.29528,4.27903 -4.37443,8.07028 -14.51715,10.25549 -4.78178,1.24793 z"
      data-name="Galego" id="galego" />
   <path class="neighborhood"
      d="m 224.45445,0 -0.49041,0.15508613 -0.20959,0.23681942 -0.23262,0.56586642 -0.44221,0.34579713 -0.30599,0.3374274 0.22844,0.412862 0.43592,0.5993988 0.0545,0.5721437 -0.16137,0.6203446 -0.9452,0.1341297 -0.62034,0.077581 -0.72934,-0.043995 -0.18023,-0.1886185 -0.30389,-0.2871234 -0.2515,0.278743 0.0587,0.6685561 0.21586,0.6140565 0.16137,0.8110663 -0.16766,0.8362182 -0.40028,0.3604763 -0.47785,0.2556834 -0.20329,0.5134593 0.16138,0.2514985 0.65178,-0.1299448 0.53652,0.2116781 0.43174,0.4359216 -0.16766,0.7460938 -0.3521,0.6559803 -0.57425,0.02092 -0.40028,0.215863 0.0356,0.456878 0.73981,0.211678 0.16348,0.666453 -0.19282,0.67904 -0.71676,0.312265 -0.51345,-0.100544 -0.25779,-0.06288 -0.18442,0.431726 -0.0126,0.792202 0.46735,0.423356 0.43593,0.448487 -0.16138,0.767061 -0.44849,0.739806 -0.26407,0.578432 0.17395,0.844598 0.0838,0.748197 -0.36885,0.322749 -0.57425,0.35628 -0.52604,0.04614 -0.51347,-0.201195 -0.43172,-0.412862 -0.65807,-0.423356 -0.56168,0.121565 -0.53651,-0.08799 -0.13204,-0.24521 0.0356,-0.523943 -0.32275,-0.314368 -0.28712,-0.456878 -0.57423,-0.511367 -0.72934,-0.637116 -0.17813,-0.356291 -0.503,-0.479927 -0.77752,-0.49041 -0.69162,-0.278743 -0.29969,-0.702078 0.10688,-0.534427 -0.21377,-0.570051 -0.41916,-0.479937 -0.83621,-0.188619 -0.65807,-0.100544 -1.17155,0.05655 -1.02274,0.314368 -0.90118,0.220059 -0.93891,0.404481 -0.86136,0.190722 -0.7943,0.251488 -0.48413,0.773338 -0.3961,1.127538 -0.24939,0.591007 -0.6518,0.217956 -0.81316,-0.222151 -0.82364,-0.345797 -0.62244,-0.591019 -0.35838,-0.658072 -0.27035,0.0147 -0.48203,0.119461 -0.41916,0.591008 -0.80059,0.245211 -0.57424,-0.13413 -0.11945,-0.389813 0.21586,-0.62454 0.41706,-0.691616 -0.0838,-0.614056 -0.5973,-0.255684 -0.82363,-0.211678 -0.18024,-0.322748 0.37095,-0.335325 0.0943,-0.49041 -0.63292,-0.8257347 -0.5491,-0.5763392 -0.86346,3.3804869 18.05093,24.994235 8.91334,4.457709 V 66.24558 l 8.91333,4.45772 2.2299,42.34098 20.0545,2.22781 4.45771,24.51221 22.28439,6.68552 15.59887,8.91334 v 26.74211 l -11.14114,8.91334 v 15.59886 l -17.82878,6.68553 -0.0377,1.53831 h -0.004 l 0.44221,0.32693 0.44221,0.4506 0.1509,0.32484 0.26826,0.36257 0.4946,0.11946 0.42544,-0.065 0.41915,0.11526 0.22635,0.32485 0.22635,0.32695 0.16137,0.40239 0.38353,0.42543 0.51346,0.60568 0.45478,0.46317 0.50718,0.31018 0.40239,-0.0692 0.44221,0.0335 0.0943,0.44431 0.16766,0.32484 0.42964,0.13204 0.40658,0.0901 0.25149,0.28922 0.60987,0.14461 0.47784,-0.28921 0.50718,-0.29761 0.3961,-0.0671 0.63921,-0.15927 0.29341,-0.57634 0.4003,-0.21377 0.46525,0.0209 0.5994,-0.0107 h 0.56166 l 0.42964,-0.2012 0.42334,-0.71047 0.27037,-0.61614 0.57423,-0.6015 0.76496,-0.43383 0.96826,0.10055 0.38143,0.51137 0.20328,0.76915 -0.15508,0.70209 -0.77754,0.33532 -0.40658,0.65598 -0.10054,1.0416 -0.006,0.69789 0.42963,1.06884 0.45479,0.68114 0.43173,0.1446 0.35838,-0.2012 0.2431,-0.64339 0.2997,-0.52395 0.6455,-0.42335 0.29341,-0.16975 0.5491,0.23472 0.71885,1.08142 0.46525,0.93473 0.22635,1.01435 0.6455,0.52394 0.47994,0.11107 0.52603,0.12366 0.68113,0.80058 0.33323,0.43592 0.26407,0.33323 0.53861,0.0335 0.20748,-0.26406 -0.0231,-0.64551 0.0713,-0.31226 -0.13202,-0.30179 0.22215,-0.67065 -0.006,-0.73353 -0.0964,-0.34371 0.18651,-0.41705 0.38773,-0.0964 0.38772,0.14251 0.67064,0.58891 0.51347,0.45688 0.6455,0.23473 0.3458,-0.22215 0.39611,-0.27875 0.57843,-0.12993 0.43802,-0.25988 0.46525,-0.33532 0.49461,-0.0754 0.55748,0.22006 0.60987,0.12365 h 0.59729 l 0.53862,0.044 0.21378,0.30179 0.0251,0.31018 6.40261,-0.59101 6.50948,-3.38678 8.79806,-1.51524 8.0436,-0.81527 4.9586,-2.92989 5.74243,-4.90412 4.29844,-3.38677 3.9254,-4.01341 6.88043,-5.61249 3.34696,-2.85236 1.15267,0.97663 2.20057,-2.94247 2.86911,-1.3371 4.10773,-0.0838 2.10416,-0.80267 4.11191,-3.56701 3.9212,-2.13979 3.54186,0.17395 4.68197,-2.31374 3.06402,-3.21493 3.44336,-1.24698 4.00713,4.19784 1.72273,-3.56491 0.19071,-3.03259 4.20832,-0.17815 5.84303,-2.41642 4.58975,-1.78351 6.20769,0.45479 9.1795,1.7835 3.16672,-1.34549 5.24991,-2.93409 7.07745,-0.17814 5.73614,3.20863 -3.44127,2.32003 2.10417,3.9212 -3.44337,4.28167 0.57425,9.09357 1.14639,6.41937 4.0176,1.95327 -0.19072,4.63585 1.52992,2.67421 0.95567,5.52866 -2.86912,3.20864 -4.78256,7.31007 -0.95567,6.95378 v 4.63586 l -1.80656,10.43068 2.6763,8.55706 7.53642,0.4464 3.17511,3.47689 h 0.002 l 2.94666,6.50738 5.08646,1.33712 9.56303,-2.49608 7.15497,-0.62454 6.11967,-3.20863 4.20832,-1.78351 5.73824,-0.71256 3.94006,-2.94247 1.03322,-4.54574 5.3547,-0.35629 2.6784,3.20863 -1.52991,18.18506 22.18589,1.06885 12.62496,17.47039 4.20832,2.13979 20.38771,13.45908 3.3281,2.22781 5.85141,-3.29875 4.09305,-0.97873 6.88672,-1.07094 8.79807,2.13979 4.97328,-2.49607 4.20832,-10.33847 9.94446,-6.06098 11.97317,-5.08017 12.12827,0.4443 11.65461,-7.28072 6.36906,-4.13497 4.78257,-1.24908 14.51743,-10.25464 -0.38142,-0.97454 -0.82365,-2.14817 -0.80687,-2.07481 -1.1841,-3.25265 -2.80835,-7.16756 -0.78382,-1.95745 -0.38143,-0.97035 -0.37095,-1.06046 -0.2515,-0.58053 -0.6895,-1.77722 -0.28503,-0.57843 -0.28503,-0.56796 -0.43802,-0.70627 -0.76496,-0.84251 -0.42334,-0.43383 -0.82574,-0.67902 -0.83412,-0.58892 -0.7922,-0.42963 -2.15866,-0.9452 -4.90201,-2.30116 -1.00388,-0.45897 -1.90925,-0.88442 -1.91344,-0.68742 -1.41256,-0.32904 -0.98082,-0.13831 -1.08142,-0.0901 -2.20685,0.0754 -5.8116,0.38143 -0.73562,-0.009 -0.65597,-0.0754 -0.81945,-0.18024 -1.07513,-0.37514 -1.03113,-0.547 -0.61406,-0.41286 -0.58053,-0.46527 -2.16074,-2.13979 -0.80269,-0.77125 -3.99874,-3.92329 -2.38289,-2.42062 -0.53863,-1.06885 -0.22004,-0.58052 -0.153,-0.57844 -0.11737,-0.61406 -0.0566,-0.78173 -0.065,-1.50058 -0.11736,-1.4335 -0.0629,-0.93891 -0.0314,-0.42545 -0.0335,-1.02064 -0.12994,-3.26102 -0.088,-1.53412 0.0272,-1.28052 0.0712,-0.6916 0.10055,-0.62663 0.13622,-0.65809 0.16976,-0.62663 0.21587,-0.73771 0.21377,-0.73562 0.12155,-0.58472 0.0524,-0.2012 0.0922,-0.72304 -0.0107,-0.72723 -0.12575,-0.93891 -0.47574,-2.29069 -0.0231,-0.61196 v -0.68323 l 0.0587,-0.92842 0.2494,-1.11706 0.22216,-1.06046 0.11736,-1.52572 0.0524,-2.02243 0.0482,-1.5886 0.042,-0.4925 -0.0398,-1.56555 -0.0587,-0.76496 -0.0147,-0.25359 -0.25359,-1.21555 -0.29132,-0.97663 -0.23891,-0.67903 -0.10484,-0.30808 -0.21167,-0.25359 -0.55119,-0.91794 -3.66551,-5.75711 -0.53862,-1.37063 -0.2494,-0.98502 -0.16766,-1.0437 0.0587,-4.00083 -0.004,-3.69486 -0.0356,-1.19878 -0.0734,-0.71047 -0.26826,-0.86136 -0.29969,-0.62245 -0.67484,-1.15477 -0.59101,-1.15268 -0.37724,-1.03112 -0.40029,-2.04548 -0.34161,-0.93682 -0.5973,-0.90327 -0.63922,-0.70209 -0.35837,-0.54909 -1.67033,-1.76884 -0.62874,-0.71047 -0.94938,-1.04579 -0.55958,-0.73772 -0.52394,-0.82782 -0.30179,-0.71467 -0.19282,-0.57843 -0.4443,-1.5886 -0.0901,-0.96615 -0.0107,-0.57634 -0.006,-0.59939 -0.0314,-0.8404 0.42334,-10.919 -10.75342,-1.7919 -4.45772,-11.14114 H 565.455 l -24.51428,-26.742119 -8.91335,-2.227809 h -6.68552 l -20.05659,-8.913337 -24.5122,8.913337 -15.59887,-8.913337 -20.05657,2.227808 -4.45563,-11.143238 -13.37105,11.143238 -17.82667,-4.457709 -6.68553,4.457709 -20.05543,-13.370382 V 46.189003 l -27.03553,-13.517753 -8.61993,-4.308922 -11.14115,13.371058 2.22782,4.455617 h -15.59887 l -4.45772,6.685529 -17.82667,-8.913337 -22.2844,17.826675 17.82668,-40.111071 -30.93995,-6.450802 -1.09818,-0.169755 -0.97244,0.08595 -1.05209,0.312264 -1.11286,0.490421 -0.80057,0.289216 -0.82575,0.322749 -0.37096,0.45897 -0.17186,0.448497 -0.29969,0.255684 0.042,0.811066 -0.11946,0.658073 0.006,1.018549 -0.006,0.945195 -0.75238,0.111081 -0.57425,-0.178145 -0.46526,-0.469454 -0.40658,-0.479927 -0.32275,-0.500894 -0.4422,-0.312276 -0.33113,-0.0064 -0.19071,0.366764 -0.27455,0.278743 -0.4946,0.08595 -0.4967,0.03777 -0.2997,0.188618 -0.12575,0.454786 -0.48831,0.132026 -0.5994,-0.199091 -0.23891,-0.423356 -0.2515,-0.458971 -0.49041,-0.178145 h -0.52394 l -0.53443,0.20539 -0.69789,0.341612 -0.39401,0.301792 -0.55119,0.500894 -0.29759,0.658072 -0.0126,0.668556 -0.32903,0.417058 -0.59101,0.06288 -0.33323,-0.245211 -0.006,-0.331128 0.0901,-0.417058 0.0482,-0.557475 -0.18023,-0.377248 -0.42545,0.02511 -0.394,0.211678 -0.22635,0.467362 -0.29341,0.377237 -0.36886,0.01073 -0.25148,-0.144613 -0.0356,-0.211667 0.2033,-0.245211 v -0.356281 l -0.1551,-0.358373 -0.044,-0.909571 0.15089,-0.628736 0.33952,-0.744001 0.30599,-0.817354 0.25148,-0.725138 0.11947,-0.511366 -0.10898,-0.458971 -0.31017,-0.222162 -0.2033,-0.718849 0.0231,-0.530231 -0.0107,-0.813158 -0.26407,-0.725138 -0.31018,-0.658072 -0.46526,-0.289216 h -0.43172 l -0.70418,-0.03348 -0.57425,-0.180238 -1.10028,-0.232635 -1.21975,-0.301792 h -0.50089 l -0.76496,-0.02307 -1.39997,-0.544899 -0.78802,-0.435922 -0.53861,-0.4904101 -0.63293,-0.6140673 -0.40657,-0.3562807 -0.92005,-0.4673615 -1.02903,-0.5365188 -0.73981,-0.400286 -0.77753,-0.6475997 -0.65807,-0.4338291 -0.46527,-0.6706486 -0.50299,-0.8236315 -0.37095,-0.7251481 -0.47783,-0.7356103 -0.72933,-0.4254487 -0.63292,-0.3332211 -0.71676,-0.3793403 -1.17154,-0.190711 -0.38353,-0.1991021 -0.25149,-0.4128727 0.21587,-0.691605 -0.41916,-0.42334555 z"
      data-name="Centro" id="centro" />
</svg>