<?xml version="1.0" encoding="UTF-8" standalone="no"?>
<svg width="1000.0001" height="804.09436" viewBox="0 0 264.58338 212.74997" version="1.1" id="svg5" xml:space="preserve"
   xmlns="http://www.w3.org/2000/svg" xmlns:svg="http://www.w3.org/2000/svg">
   <defs id="defs2" />
   <path class="neighborhood"
      d="m 141.36424,155.93433 -1.39215,-5.43362 -4.52477,-2.06745 -3.49072,5.72553 -2.23417,1.42393 v 0.50275 l -1.56404,1.36879 h -2.5689 l -4.2374,3.09112 0.15764,1.34283 3.39666,3.00159 3.4758,4.10765 3.91887,0.88096 0.74473,-1.5887 1.56405,-0.44697 -1.50826,-2.7927 5.19489,-9.10404 h 3.01587 z"
      data-name="Zona Urbana" id="zona_urbana" />
   <path class="neighborhood"
      d="M 129.41495,0 105.67725,9.5509973 99.421062,17.203214 96.349407,15.750744 86.79841,3.7417749 80.039473,5.6412057 72.666852,6.7024998 69.427181,9.662576 66.634473,8.9924557 61.719176,11.44978 l 2.402184,4.524121 -0.335385,7.9876 1.396679,3.630196 -1.34089,6.143958 0.893926,2.066799 3.183883,0.279596 0.949067,2.681129 3.463477,1.842993 1.39603,4.245177 -1.340241,3.015864 0.167368,1.954573 -4.132949,2.234815 -0.391174,2.401535 1.340241,1.396029 -3.965581,5.026875 v 3.686635 l -1.39603,1.731414 -0.670769,5.753432 3.016514,1.731415 -0.05579,4.300317 -2.904934,0.558541 -0.558542,2.736918 -2.513113,0.838138 -0.502753,2.066798 1.95522,1.842992 -2.346394,3.518619 -0.446315,2.681129 -2.457972,0.782348 -1.172872,-2.457972 -2.345745,2.848497 1.564047,2.569551 -1.787853,2.848497 1.22931,0.502753 -1.2851,4.579908 -1.731414,-0.89327 -2.569551,5.69699 1.2851,3.01587 -1.619836,4.97108 0.223157,3.79822 -1.284451,1.11708 0.558542,2.0668 -3.239671,0.83748 0.446963,1.11709 3.128092,1.22932 1.340241,3.74178 -0.72591,3.07229 1.507608,1.0613 -0.167367,3.63019 -4.803718,1.0613 -3.183233,1.73141 -3.575055,7.7638 -1.228663,-0.39054 -0.670121,-1.67562 -1.228661,-0.50275 1.284451,-2.17837 -3.518617,-0.39117 -3.686635,1.61983 0.167368,2.62534 -3.742423,-0.39118 -1.563398,3.29547 -1.564047,-0.67012 -1.061294,3.12744 -1.842993,0.11223 -1.340889,1.78721 -1.34024,-4.41256 -4.692138,1.22867 0.05579,2.40218 -2.121939,-0.89393 -3.6308457,1.78721 -1.2286611,1.61983 3.8540025,1.0055 -0.1680167,2.62535 2.569551,-0.39118 1.619835,1.61984 -2.011009,3.35126 2.346394,1.11707 -0.223807,1.67563 -3.29546,-0.67012 -7.3726195,3.79821 -0.7259092,2.62469 1.6756247,1.50826 0.8932768,2.17837 -1.0055039,2.17839 1.5640454,3.35124 -2.6811297,4.07717 0.7265582,3.23967 H 1.3966789 L 0.05578963,191.30214 0,195.43509 l 1.2844512,1.00551 0.7823479,-1.61984 2.6811297,-1.00551 2.8484974,0.61434 0.5027519,-1.28445 2.3457459,1.17287 2.066798,-2.12259 0.167368,-1.5634 1.508257,0.16737 1.284451,2.12259 -0.558541,1.39603 1.228662,1.7872 3.29546,0.50275 0.782348,-1.0055 2.345745,-0.0557 3.518618,4.46833 4.300965,-0.61433 1.284451,-1.06129 3.239671,2.40219 1.508257,2.06614 1.45182,-0.39052 -0.614332,-1.61984 0.782348,-1.89943 3.183234,-1.89879 2.122587,1.67564 v 1.56403 l 0.949715,1.89879 -1.731414,3.12809 3.909792,2.56955 0.05579,1.06064 1.787203,1.17353 1.061295,-1.0613 3.239671,3.74178 4.468334,-2.01036 1.452467,-2.23417 h 3.071655 l 1.452467,-1.78719 -1.508257,-2.56956 1.172873,-1.11709 -0.502752,-1.56403 0.558541,-2.84851 2.178377,-2.28995 2.736919,-0.39117 -1.061293,3.18388 0.446962,1.11707 2.345746,0.7817 3.35125,-2.73691 -0.949068,-0.89328 2.178378,-1.11709 1.507608,1.17288 0.05579,-1.73141 1.787852,-1.22932 0.502753,1.39668 3.35125,1.95458 -1.843642,1.34089 4.747929,3.46283 -0.167368,-2.56891 5.641205,-5.80923 0.837488,-1.78719 -2.401533,-1.22866 0.223157,-2.01101 5.362259,1.28444 0.167368,1.11709 -0.502753,0.72655 0.782348,4.6357 9.327847,5.92081 1.73141,-2.3464 -1.67562,-1.61984 -0.39118,-1.89878 2.51376,-1.11707 1.22867,1.45246 5.97659,-3.79821 -0.55855,-3.23967 2.45734,-2.34574 1.45246,1.28444 2.90428,-2.17838 -0.16801,-0.94971 1.17352,-0.39052 1.67563,0.83748 3.74178,-3.46283 -0.0557,-6.92565 4.97108,-2.40219 -0.44696,-3.63019 2.29061,-0.11223 0.0928,-0.1985 -3.91887,-0.88096 -3.4758,-4.10765 -3.39666,-3.00159 -0.15765,-1.34283 4.2374,-3.09112 h 2.5689 l 1.56404,-1.36879 v -0.50275 l 2.23417,-1.42393 3.49073,-5.72553 4.52477,2.06745 1.39214,5.43362 4.47222,-0.99384 0.83814,-2.62533 14.01932,-0.50275 3.51862,-0.94907 0.67078,0.50275 2.12193,-1.39668 0.39117,2.28996 0.7817,1.2851 -0.33473,1.73141 -1.11708,-0.0557 1.56404,2.68048 1.61983,0.2796 -0.44696,1.06129 1.50761,2.01036 -0.5021,1.45247 1.843,1.0613 -0.2796,0.89392 1.2851,1.61984 -1.11709,2.56889 v 2.23417 l 1.56405,1.0613 0.0557,3.74242 2.06615,1.67562 1.84364,-0.27958 0.89328,2.06679 4.07781,-1.73141 1.34024,2.23416 1.06129,0.1116 2.23416,1.95522 2.96008,-1.7314 2.12259,-5.30647 1.0613,-0.89393 4.97108,1.06129 2.7927,-0.67012 2.73693,2.23417 3.35125,0.78235 3.0723,-0.67078 4.07717,0.67078 0.94971,-1.00551 0.33473,-17.5386 17.03585,1.89944 5.75278,4.02136 1.22931,-2.62533 1.00486,-0.50276 2.51376,0.83813 2.90429,-7.87537 1.45246,-0.33537 1.0613,0.61432 0.61433,4.07717 0.72591,-0.16738 2.28995,0.72591 0.44697,1.45248 1.89943,-0.16738 4.13294,3.18323 0.67013,1.95523 1.00551,-0.44697 0.67011,-1.34023 -5.3616,-6.64671 -0.55855,-2.56956 1.67562,-0.61433 3.23903,1.34024 3.0723,-0.94906 0.33538,-1.95523 1.00486,-1.11708 -0.16737,-2.12259 -1.45246,-1.17287 0.27959,-3.40704 1.28446,-0.61433 -0.44697,-1.45247 -1.7872,-0.0557 -0.83749,0.67013 -1.0613,-0.50211 -0.1116,-2.17837 -2.40218,-1.73207 -2.51311,0.67077 -1.67563,-2.23417 -0.50275,-2.23416 h 2.90429 l 0.44696,0.89327 2.90429,-2.01036 0.83813,-3.51927 -3.23967,0.55855 0.27895,-1.22866 4.74792,-2.45733 -0.94971,-1.2851 0.83813,-3.23968 -4.41254,3.85401 -1.89943,0.61498 1.73142,-3.29546 -2.28996,-1.61984 -1.73141,0.83749 -1.34025,3.35126 -1.50826,-2.40155 0.78171,-2.40153 -0.83749,-1.73206 -1.7872,2.17838 -2.3464,-1.0613 1.11709,-2.06615 -1.0613,-0.61433 v -1.34089 l 2.01101,-0.0558 3.12809,-0.44696 -2.73692,-2.06615 0.0557,-0.67077 2.51312,-1.17287 0.2238,-2.62469 -3.85401,1.28445 -1.22866,-0.72591 0.0557,-1.73206 1.78721,-0.16737 1.0055,-1.61984 -0.7259,-3.01586 -3.46348,1.73141 -1.39604,2.8485 -4.8595,0.50275 2.17838,-2.01101 1.45246,-0.64741 0.39053,-0.91663 2.56956,-1.89879 -3.23967,-1.0055 1.22866,-1.95457 1.67562,-0.33539 -1.95457,-1.675623 -0.55854,-1.34024 -4.46834,-3.128092 -5.58542,1.619835 -2.68112,-1.228661 -1.11708,-1.787853 -0.1116,-11.115044 -1.78785,-2.960075 -0.0557,-1.284452 -2.23417,-1.2851 -1.56405,-2.848498 -1.95457,-0.446314 -1.0055,-2.066799 -5.47384,-1.731414 -11.39399,0.390525 -1.22931,-7.875373 -6.47869,-17.537947 1.39603,-4.580561 -1.78721,-2.122588 h -2.12258 l -8.7693,-2.960075 -1.89878,-2.68113 -1.95522,-0.725911 -4.80307,-3.630845 -4.24518,-0.502752 -2.40153,1.787853 -1.56405,-0.391174 -2.73692,2.62534 -1.17287,-1.396679 -5.25068,1.34089 -3.12745,-0.335385 -1.45246,-2.234166 -1.39603,-0.781699 -2.0668,1.563398 -8.88089,-1.563398 -0.33537,-1.452468 -2.01037,-0.279595 -4.74792,-4.02137 -0.44696,-7.149463 -0.78171,-6.4786945 z"
      data-name="Zona Rural" id="zona_rural" />
</svg>