<?xml version="1.0" encoding="UTF-8" standalone="no"?>
<svg version="1.1" id="svg2" width="1000" height="677.85834" viewBox="0 0 1000 677.85834"
   xmlns="http://www.w3.org/2000/svg" xmlns:svg="http://www.w3.org/2000/svg">
   <path class="neighborhood"
      d="m 573.25958,262.1017 -1.36036,0.57028 -0.004,-0.009 -1.45537,0.60888 -3.00878,1.5029 -2.98797,1.50587 -0.24652,0.12178 -2.189,1.09895 -0.45444,0.22871 -2.47413,1.29498 -0.99796,0.46039 -3.49587,1.83554 -2.43852,1.36033 -0.52273,0.26137 -1.50586,0.74848 -0.66531,0.3386 -3.882,1.93655 -5.25418,2.55432 0.297,0.70393 4.10772,0.98312 3.75723,0.84352 3.76023,0.86433 3.65327,0.86132 2.98501,0.68908 -0.0534,0.27624 0.89698,3.19883 0.5079,1.83556 0.66532,2.23653 1.17618,3.88793 1.08409,3.81962 1.26232,3.87902 0.71878,2.26919 0.35049,1.4019 0.0267,0.11587 2.21275,0.46928 2.69691,0.57324 2.15632,0.49601 0.092,0.0208 0.44552,0.0922 0.36236,0.0534 0.17218,0.0326 2.93748,0.62966 0.55243,0.14545 4.01863,0.80489 3.93248,0.79007 1.76427,0.35345 2.11771,0.42771 3.83447,0.70689 0.78709,0.16034 3.9414,0.79302 3.93544,0.77818 2.34048,0.46039 1.54745,0.32075 3.39786,0.69799 0.50194,0.10098 4.07505,0.75146 5.24529,1.01576 2.72956,0.53465 1.78803,0.32374 2.21873,0.48116 0.34453,0.0595 2.24246,0.38909 0.9059,0.17827 4.06318,0.78114 4.16117,0.81086 1.41082,0.24652 2.18306,0.43067 0.56729,0.11281 4.12257,0.75738 0.35643,0.0655 2.30186,0.40693 2.13257,0.35938 0.12464,-0.0125 0.005,0.0179 0.56731,-0.0143 -0.77819,-2.13851 -1.20883,-3.32359 -0.3,-0.82569 -0.80193,-2.2009 -1.17322,-3.22261 -0.45146,-1.25637 -0.31781,-0.91185 -0.0891,-0.25543 0.0179,-0.009 -0.24951,-0.597 -0.0237,0.0126 -0.005,-0.0126 -0.2168,-0.54352 -1.85041,-4.63345 -0.62077,-1.2326 -0.93857,-1.71676 -0.13954,-0.3564 -1.1643,-3.02361 -1.00687,-2.61374 -0.74552,-1.93951 -0.64453,-1.80288 -0.26137,-0.7574 -0.61779,-1.57121 -0.58213,-1.53258 -2.05238,-5.41757 -1.71082,-4.36614 -3.71269,-9.85496 -2.12068,0.85245 -3.83447,1.6009 -3.94733,1.54449 -4.11662,1.63062 -3.74537,0.87619 -2.90778,0.9742 -0.74253,0.24653 -0.94451,0.25247 -3.85823,1.23854 -2.06427,0.63561 -2.15631,0.66532 -3.95328,1.23262 -1.10491,0.3564 -3.48398,0.98907 -3.6711,1.13162 -1.02769,0.3891 -2.40582,0.68313 -0.50492,-0.009 -0.21682,-0.21681 -0.28215,-0.32969 -3.3444,-6.66204 -2.98203,-5.9225 -2.56917,-5.16804 -0.20792,-0.55841 -0.0594,-0.297 0.0267,-0.28513 0.13666,-0.35345 z"
      data-name="Jardim Floresta" id="jardim_floresta" />
   <path class="neighborhood"
      d="m 546.6381,191.48043 -0.31781,0.12769 -5.58686,2.31374 -2.00782,0.96828 -2.29296,1.20588 -1.76427,0.97123 -2.42958,1.48509 -3.94139,2.41176 -0.14546,-0.0126 -0.12769,-0.0891 -0.13649,-0.17217 -2.29889,-3.16617 -5.57795,7.77584 -0.46928,0.62966 -1.52369,2.40286 -0.97123,1.60983 0.35344,0.43957 -0.36236,0.41582 -2.8751,3.71271 -1.37815,1.76722 -1.46726,2.05536 -2.05237,2.87508 -0.79304,1.295 -1.35142,2.20387 -1.04252,1.93949 -1.23262,2.29296 -0.95934,2.07613 -0.70394,1.52371 -1.11973,2.86024 -0.38612,0.98908 -1.19103,3.55227 -1.30689,4.43741 -0.12465,0.54058 -0.6861,3.05331 -0.23169,1.51775 -0.43958,2.90778 -0.15747,1.81773 -0.32375,4.79977 0.005,5.01658 0.17523,5.06115 2.20979,0.51975 1.43458,0.33566 3.49588,0.85837 1.7702,0.36829 1.96029,0.43363 2.44741,0.54057 1.37519,0.3178 3.10975,0.71583 0.6267,0.12769 0.33858,0.0773 4.0305,0.90888 4.81463,1.24153 2.99391,0.70095 8.42929,1.97219 3.19885,0.74848 0.36533,0.0951 0.61779,0.1693 -0.29702,-0.70393 5.2542,-2.55432 3.882,-1.93653 0.6653,-0.33861 1.5029,-0.74848 0.52571,-0.26433 2.43851,-1.35736 3.49586,-1.83556 0.99797,-0.46037 2.47413,-1.29795 0.45444,-0.22869 2.189,-1.09601 0.24652,-0.12178 2.98797,-1.50586 3.00876,-1.5029 1.45539,-0.60887 0.004,0.009 1.36035,-0.57026 0.0414,-0.0624 0.0951,-0.13954 0.0832,-0.27623 0.0179,-0.29405 -0.0237,-0.24058 0.0126,-0.70986 0.15442,-0.8376 0.2465,-0.51382 4.1998,-6.23733 0.40691,-0.5762 0.51384,-0.73065 0.84056,-1.22371 -0.97719,-1.10192 -0.0386,0.0565 -1.81477,-3.55525 -1.36923,-2.70284 -0.31485,-0.58809 -0.2079,-0.3891 -0.1277,-0.24356 -0.17218,-0.3267 -0.54352,-1.02174 -1.41973,-2.65532 -1.25936,-2.48304 -0.80193,-1.58309 -0.56137,-1.1346 -1.38705,-2.55137 -1.35142,-2.52759 -0.7277,-1.4227 -0.58511,-1.26529 -0.9356,-1.70783 -0.35344,-0.6861 -0.16931,-0.34455 -0.23464,-0.48414 -0.99202,-1.92168 -0.76631,-1.30687 -0.75144,-1.27717 -1.48211,-2.47709 -0.20197,-0.40098 -1.90981,-3.57903 -0.84352,-1.70784 -0.26136,-0.51976 -1.19401,-2.0702 -1.09599,0.18118 -0.65344,-2.06725 -0.54056,-1.91872 -0.39502,-1.29498 -0.83463,-2.7058 -0.24058,-0.72174 -0.70391,-1.6722 -0.59108,-0.86431 -0.57026,-0.65344 -1.29202,-1.0841 -1.95139,-1.52962 z"
      data-name="Caranã" id="carana" />
   <path class="neighborhood"
      d="m 494.68124,268.46377 -0.42474,0.21088 -0.009,-0.004 -1.69298,0.65048 -0.90294,0.34749 -2.57213,0.98313 -1.76428,0.75442 -5.13242,2.2484 -2.74739,1.13756 -1.09302,0.45444 -1.47616,0.5465 -2.44443,0.90591 -2.52464,0.93558 -2.24246,0.82867 -2.52462,0.83462 -3.71567,1.21777 0.21682,0.70987 0.89402,3.184 1.02174,3.87902 0.47522,4.14336 0.47819,2.09099 0.4782,0.75739 0.33563,0.695 0.23463,0.47523 0.30593,0.66235 0.27324,0.58216 0.61779,0.0624 0.34157,0.12465 0.35643,0.30294 0.3178,0.41286 0.84948,1.50884 0.43067,0.52571 0.6267,0.7158 0.50789,0.4782 1.13756,0.99798 0.91481,0.61481 1.22371,0.80195 0.50196,0.36532 0.7247,0.61778 0.58811,0.65345 1.78803,2.47413 1.52666,3.00282 0.88212,1.96328 -0.29403,5.13242 -0.0208,0.34751 -0.0773,1.12569 -0.23166,4.46115 -0.0536,1.11678 -0.18414,3.39192 -0.12464,2.28702 -0.2198,3.43943 -0.51681,8.21543 -0.13362,1.79992 -0.16931,2.6078 -0.13361,2.73254 0.81977,0.75738 0.0683,1.73457 0.0624,2.14445 0.78114,0.36534 3.81962,-0.25841 0.92372,-0.0565 2.56324,-0.16034 3.06222,-0.199 0.41582,-0.0237 3.5731,-0.24651 0.89105,-0.0506 0.82867,-0.0475 1.28906,-0.11281 0.32374,-0.0445 0.32671,-0.0506 1.00984,-0.0743 -1.00984,0.0714 0.12177,-3.08599 0.15747,-2.59887 0.32077,-5.62844 0.23169,-3.82259 0.0296,-0.58511 0.19603,-2.58404 0.3594,-6.69175 0.35642,-5.11759 0.13649,-2.17413 0.0326,-0.50493 0.13056,-1.69001 0.38317,-4.9661 0.27919,-4.41364 0.0683,-0.91183 0.0832,-1.37221 0.66828,-7.5145 0.10402,-3.61467 0.16034,-2.22464 0.15155,-2.20683 0.33562,-4.87402 0.20792,-1.63952 0.0506,-1.06332 0.33265,-4.44036 0.43364,-6.86997 0.15747,-1.99297 -0.005,-0.004 0.0179,-0.32374 -0.0179,-0.004 -3.49588,-0.85837 -1.43458,-0.33564 -2.20681,-0.51975 h -0.004 v -0.004 l -0.005,-0.009 -0.46631,-0.21086 0.004,0.12178 z"
      data-name="Santa Tereza" id="santa_tereza" />
   <path class="neighborhood"
      d="m 504.55403,270.81018 -0.0237,0.41583 h 0.004 l -0.1485,1.90387 -0.43365,6.86997 -0.33266,4.44036 -0.0506,1.06331 -0.20792,1.63953 -0.33561,4.87402 -0.15138,2.20683 -0.16033,2.22464 -0.10403,3.61467 -0.66827,7.5145 -0.0832,1.37219 -0.0683,0.91185 -0.2792,4.41362 -0.38314,4.96612 -0.13057,1.69001 -0.0326,0.50493 -0.13649,2.17413 -0.35642,5.11759 -0.3594,6.69175 -0.19601,2.58404 -0.0296,0.58511 -0.23169,3.82259 -0.32077,5.62844 -0.15747,2.59887 -0.12177,3.08598 3.97407,-0.28217 3.25825,-0.2079 0.76036,-0.0595 3.98001,-0.23467 0.26732,-0.0179 3.85523,-0.26434 0.33564,-0.0386 3.2137,-0.21388 0.34751,-0.0237 4.0899,-0.27624 3.95328,-0.26434 0.29701,-0.0208 3.73347,-0.25247 0.6089,-0.0386 0.48116,-6.78382 0.39799,-6.91154 0.51384,-7.19371 0.48116,-7.09868 0.47226,-6.9947 0.47225,-6.99173 0.61185,-9.06491 -0.3178,-0.64453 0.35046,-6.29373 0.53465,-7.18777 0.62968,-7.55014 0.0267,-0.32966 -0.009,-0.004 0.0267,-0.27919 -8.39659,-1.96327 -2.99393,-0.70094 -4.81461,-1.24153 -4.0305,-0.90888 -0.33859,-0.0773 -0.62671,-0.12769 -3.10973,-0.71583 -1.37518,-0.31779 -2.44743,-0.54057 -1.9603,-0.43364 z"
      data-name="Tancredo Neves" id="tancredo_neves" />
   <path class="neighborhood"
      d="m 536.39997,278.2029 -0.0267,0.27918 0.009,0.004 -0.0267,0.32968 -0.62966,7.55013 -0.53464,7.18776 -0.35047,6.29375 0.31781,0.64453 -0.61185,9.0649 -0.47225,6.99173 -0.47226,6.99471 -0.48118,7.09865 -0.51382,7.19371 -0.398,6.91154 -0.48116,6.78384 3.78397,-0.2584 3.184,-0.21386 0.86728,-0.0595 1.96921,-0.13057 2.14741,-0.14545 0.6267,-0.0414 2.80977,-0.1901 0.46633,-0.0326 1.16726,-0.0773 1.16727,-0.0802 1.7019,-0.11281 1.14054,-0.0773 2.70878,-0.18416 1.43755,-0.0951 0.82571,-0.0565 0.92966,-0.0624 0.53758,-0.0386 0.3891,-0.0237 4.06613,-0.27622 2.69393,-0.18118 1.25043,-0.0832 3.94733,-0.26732 -0.297,-8.88669 -0.0981,-3.42162 0.009,-3.66218 -0.0475,-7.02441 0.78114,-8.61344 0.0504,-0.43661 0.7277,-8.85107 -0.092,-0.0208 -2.15633,-0.49601 -2.6969,-0.57324 -2.21275,-0.46929 -0.0267,-0.11586 -0.35345,-1.40488 -0.71582,-2.26624 -1.26232,-3.87901 -1.0841,-3.81962 -1.17617,-3.88791 -0.66532,-2.23655 -0.5079,-1.83852 -0.89699,-3.19885 0.0534,-0.27324 -2.98501,-0.68908 -3.65327,-0.86135 -3.76022,-0.8643 -3.75724,-0.84354 -4.10772,-0.98313 h -0.005 l -0.61186,-0.1693 -0.36533,-0.0951 -3.19884,-0.74848 z"
      data-name="Caimbé" id="caimbe" />
   <path class="neighborhood"
      d="m 562.53731,395.87138 -1.93357,0.34453 -0.22869,0.73365 -1.03659,3.83445 -0.37721,1.22075 -2.43847,8.88966 -1.96329,7.26201 -1.93356,6.61749 0.48116,0.36236 -0.29107,1.24749 0.34454,0.0595 1.1435,0.32375 3.05926,0.88509 3.16321,0.95046 0.46631,0.14851 3.04144,0.97715 3.08598,0.9564 3.03253,0.97124 1.52072,0.46335 1.77316,0.60591 1.35738,0.51976 0.97717,0.4188 1.55043,0.65342 2.40877,0.96532 2.81275,1.19696 2.41771,1.00094 1.0544,0.38614 3.51368,1.18507 3.07412,0.94451 2.95231,0.91481 2.96125,0.89996 1.41973,0.41285 2.24247,0.66234 3.76022,1.15539 0.75144,0.22277 0.32374,0.0773 0.60592,0.15442 4.99579,1.5029 4.86511,1.3841 3.33845,0.96232 4.18792,1.27123 4.67798,1.41974 3.12164,0.73065 3.1038,0.95936 0.95936,0.32968 2.34642,0.68315 1.12569,0.33562 0.0296,-0.35047 h 0.004 l 0.4782,-0.9059 0.55245,-1.26826 0.78412,-2.07613 0.69502,-1.57419 0.49601,-1.14646 1.52962,-2.72067 1.56528,-2.4682 2.32265,-2.97312 0.98313,-1.0544 1.24747,-1.22964 -0.48414,-0.49305 -12.07071,-12.27861 -7.34815,-7.9006 -2.21872,-4.93342 -3.08892,-4.27701 -4.39288,-2.70878 -2.60482,-0.27325 -3.21666,0.20492 -0.52869,0.0891 -12.6469,-0.3594 -7.9719,0.84649 -1.55041,-0.12177 -10.98067,-3.97702 -2.53055,-1.28906 -0.71581,-0.16034 -1.76724,-0.38908 -4.56512,-0.81084 -4.44632,-1.12867 z"
      data-name="Cinturão Verde" id="cinturao_verde" />
   <path class="neighborhood"
      d="m 504.82431,398.63278 4.13606,-0.37212 0.42101,-0.0375 1.46215,-0.13146 2.03211,-0.18276 0.44258,-0.04 2.62975,-0.23679 0.896,-0.0655 1.76473,-0.17379 2.23366,-0.21283 0.26173,-0.023 2.43803,-0.18559 1.31982,-0.10653 1.18541,-0.0958 2.74815,-0.22271 2.57335,-0.20814 1.37149,-0.11084 1.25731,-0.10151 2.39059,-0.19359 0.35332,-0.0285 0.55161,-0.0484 1.7187,-0.14994 2.5696,-0.22504 1.3231,-0.11551 1.3231,-0.1155 1.31838,-0.56617 1.2047,0.71231 3.73012,2.01376 1.2963,0.51871 1.25262,0.22928 3.49003,-0.81941 3.03476,-0.93545 1.04823,-0.18701 1.93343,-0.34441 5.37365,0.47643 4.44757,1.12857 4.5641,0.81002 1.76664,0.39091 -0.14241,-0.16625 -0.42145,-0.57556 -0.73062,-5.81248 -0.78182,-5.90695 -0.72122,-5.5879 -0.78183,-5.87217 -0.7278,-5.61844 -0.84996,-5.44365 -0.0461,-0.33313 -1.23005,-8.93181 -0.70948,-5.58601 -3.94812,0.26638 -1.24933,0.0841 -2.69413,0.18184 -4.06464,0.27437 -0.3895,0.0264 -0.53891,0.0362 -0.92844,0.0626 -0.82551,0.056 -1.43726,0.0967 -2.71103,0.18324 -1.13845,0.0766 -1.70366,0.11514 -1.16759,0.0786 -1.16708,0.0789 -0.46658,0.0314 -2.80968,0.18936 -0.62491,0.0423 -2.14813,0.14528 -1.9696,0.13254 -0.86687,0.0586 -3.18558,0.2147 -3.78368,0.25561 -0.60751,0.0409 -3.73294,0.2509 -0.29743,0.0203 -3.95519,0.26594 -4.08767,0.27486 -0.34956,0.0235 -3.21188,0.21614 -0.33499,0.0362 -3.85653,0.26594 -0.26688,0.0183 -3.98054,0.23351 -0.76068,0.0612 -3.25935,0.20577 -3.97163,0.28427 -0.32843,0.0516 0.16734,0.21567 0.1329,0.3519 0.52246,4.43633 1.37244,9.31519 0.41769,3.95661 0.0185,0.12303 0.76256,5.81532 0.24105,1.72339 0.55017,3.92841 0.8199,5.65085 0.63006,5.70208 0.46374,3.63616 z"
      data-name="Asa Branca" id="asa_branca" />
   <path class="neighborhood"
      d="m 558.96021,402.00347 0.3773,-1.22068 1.03837,-3.83206 0.22693,-0.73579 -1.04823,0.18701 -3.03476,0.93547 -3.49003,0.8194 -1.25262,-0.22928 -1.2963,-0.51872 -3.73012,-2.01376 -1.2047,-0.7123 -1.31838,0.56619 -1.3231,0.1155 -1.3231,0.1155 -2.5696,0.22505 -1.7187,0.14993 -0.55161,0.0484 -0.35332,0.0285 -2.39059,0.19357 -1.25731,0.10151 -1.37149,0.11084 -2.57335,0.20813 -2.74815,0.22272 -1.18541,0.0958 -1.31982,0.10654 -2.43803,0.18557 -0.26173,0.023 -2.23366,0.21283 -1.76473,0.17379 -0.896,0.0655 -2.62975,0.23679 -0.44258,0.04 -2.03211,0.18275 -1.46215,0.13165 -0.42101,0.0375 -4.13606,0.37212 -1.35221,0.1216 -3.43084,0.25654 -9.88701,1.11918 -2.4996,0.17343 -0.88942,0.0795 -2.90649,2.17776 -0.83773,0.64697 -0.71557,0.6592 -0.90492,0.6512 -0.57557,0.46563 -2.52357,1.98747 -2.27735,1.73749 -3.07797,2.93843 1.10883,0.85559 1.81456,1.96395 1.10932,2.21535 0.90727,2.11431 1.00829,2.21535 1.81456,3.62534 1.15959,1.91322 1.51197,1.86294 1.1093,1.30901 1.613,1.05716 1.41141,0.70524 1.61299,0.5032 2.26843,0.50369 2.26184,1.45417 1.68584,1.5176 0.95048,1.38324 0.42711,1.30805 0.54407,1.88269 0.28897,1.5801 0.1537,3.07422 0.0784,2.31587 0.29555,3.06059 0.70242,3.25981 1.04307,2.45778 1.7732,2.72842 2.16836,2.61047 1.93952,0.8227 3.21236,0.20908 6.46558,-1.46358 10.38457,-0.3021 6.56331,0.55864 4.63225,-12.15215 -0.79358,-0.28848 4.58947,-15.50357 2.97508,-9.52008 0.66906,0.20485 3.39042,1.03697 0.50932,0.16626 2.94362,0.95521 1.56506,0.53515 0.2927,-1.24838 -0.48066,-0.36037 1.93156,-6.61782 1.96491,-7.26246 2.43709,-8.89092 z"
      data-name="Jóquei Clube" id="joquei_clube" />
   <path class="neighborhood"
      d="m 476.02403,408.70868 2.27735,-1.73751 2.52357,-1.98745 0.57557,-0.46562 0.90492,-0.65121 0.71557,-0.6592 -0.26547,-2.77164 -6.76957,0.72451 -3.68126,0.43601 -2.08236,-0.0215 -1.16006,-0.6 -0.27908,-0.17486 -2.43664,-1.21879 -0.34533,-0.17236 -1.73093,-1.01487 -0.47596,-0.34957 -0.31809,-0.30165 -0.1494,-0.20813 -1.15866,2.86325 -1.0285,3.78462 -0.13666,0.38435 -1.52044,4.71492 -0.20249,0.82224 -0.12357,0.50414 -0.57462,2.39106 -0.29788,1.14737 -0.20487,0.78701 -0.24855,0.93452 -0.17994,0.68596 -0.11945,0.4224 -0.0664,0.2354 -0.17343,0.45621 -0.19217,0.27394 -6.61782,21.47345 -0.1198,1.19672 1.74172,0.35755 0.36178,0.0818 2.9403,0.80625 3.00562,0.93876 3.10572,0.96978 2.95814,0.91102 3.13766,0.91573 2.97131,0.86499 3.0841,0.935 2.97741,0.92514 3.03381,0.94062 0.51072,0.1607 3.11276,0.94392 1.66326,0.54128 1.38652,0.45621 0.27064,0.14796 1.25071,0.88095 1.1878,0.89695 2.62786,2.19044 1.34846,1.13281 1.34189,0.99419 1.75817,1.33436 0.89458,0.45952 0.63664,0.16966 0.88848,0.10707 1.35458,-0.3585 1.6877,-0.8025 -1.7732,-2.7284 -1.04306,-2.45778 -0.70244,-3.25981 -0.29554,-3.06059 -0.0784,-2.31587 -0.15371,-3.07422 -0.28895,-1.58011 -0.54409,-1.88268 -0.42709,-1.30805 -0.9505,-1.38324 -1.68582,-1.5176 -2.26183,-1.45417 -2.26844,-0.50369 -1.61298,-0.5032 -1.41144,-0.70526 -1.61298,-1.05714 -1.1093,-1.30901 -1.51197,-1.86294 -1.15961,-1.91324 -1.81454,-3.62534 -1.0083,-2.21533 -0.90728,-2.11432 -1.10931,-2.21533 -1.81454,-1.96396 -1.10883,-0.85559 3.07795,-2.93843 z"
      data-name="Olímpico" id="olimpico" />
   <path class="neighborhood"
      d="m 481.03731,354.97778 -1.45135,0.23117 -2.51416,0.20438 -2.1613,0.0911 -0.66955,-0.0556 -0.49145,0.0258 -3.38667,0.17003 -3.48016,0.13917 -3.56707,0.25326 0.30304,7.19995 0.41534,6.96174 0.45998,6.99182 0.41581,6.97959 0.23964,3.14703 0.37963,4.61109 -0.86593,2.81535 -0.65921,1.45324 -0.59576,1.19058 -0.0813,0.14706 0.1494,0.20816 0.3181,0.30165 0.47594,0.34957 1.73092,1.01485 0.34534,0.17235 2.43663,1.21879 0.27909,0.17487 1.16007,0.6 2.08236,0.0215 3.68127,-0.43602 6.76957,-0.7245 0.26545,2.77162 0.83775,-0.64697 2.90649,-2.17776 0.88941,-0.0794 2.49959,-0.17343 9.88703,-1.11918 3.43082,-0.25654 1.35223,-0.1216 -0.46375,-3.63616 -0.63006,-5.70206 -0.8199,-5.65087 -0.55017,-3.92841 -0.24105,-1.72339 -0.76256,-5.81532 -0.0185,-0.12303 -0.41769,-3.95661 -1.37244,-9.31519 -0.52246,-4.43631 -0.1329,-0.35192 -0.16733,-0.21567 -0.32231,0.0461 -1.28833,0.11227 -0.82835,0.0461 -0.89224,0.0504 -3.57366,0.24714 -0.41487,0.024 -3.06389,0.19967 -2.56207,0.1598 -0.92466,0.056 -3.81798,0.25889 z"
      data-name="Cambará" id="cambara" />
   <path class="neighborhood"
      d="m 486.62333,451.50902 -0.27062,-0.14796 -1.38654,-0.45622 -1.66325,-0.54126 -3.11275,-0.94393 -0.51072,-0.1607 -3.03381,-0.94062 -2.97742,-0.92514 -3.08409,-0.93501 -2.97131,-0.86497 -3.13766,-0.91574 -2.95816,-0.91103 -3.10569,-0.96978 -3.00562,-0.93875 -2.94032,-0.80625 -0.36177,-0.0818 -1.74172,-0.35755 -1.6271,3.26591 -0.85701,2.50477 -1.31698,3.85793 -0.76256,2.12088 -0.19732,0.45481 -0.30025,0.69068 -0.61126,1.65528 -0.63854,1.73655 -1.21596,3.44306 -1.62052,4.80184 -1.01438,2.43945 -1.19953,-0.0974 13.67682,6.63942 10.5058,3.05262 6.03613,1.67924 3.43834,2.28954 4.39732,1.23713 4.0529,-5.1768 6.4623,-5.18101 8.55968,-4.28501 9.37629,-4.32965 3.4144,-1.25544 -3.21236,-0.20906 -1.93952,-0.82272 -2.16836,-2.61047 -1.68769,0.80248 -1.35457,0.3585 -0.88849,-0.10707 -0.63665,-0.16967 -0.89457,-0.45949 -1.75818,-1.33436 -1.34188,-0.99421 -1.34846,-1.13281 -2.62787,-2.19042 -1.18779,-0.89695 -1.25073,-0.88097 z"
      data-name="Jardim Tropical" id="jardim_tropical" />
   <path class="neighborhood"
      d="m 447.95154,394.67431 -4.04163,0.2866 -2.92997,0.11747 -0.36695,0.0197 -6.51586,0.37635 -0.8819,0.0522 -6.22219,0.36882 -2.16225,0.12644 -4.79151,0.2805 0.54784,9.59713 0.32185,6.20951 0.0319,0.68926 0.18373,3.22834 0.1598,3.10146 0.17947,3.27249 0.20909,3.13764 0.15872,3.18791 0.18183,3.23117 0.0179,0.47313 -0.47267,0.0301 -2.84211,0.1381 -2.71713,0.18136 -2.72605,0.13487 -2.78244,0.12734 -2.77024,0.18842 0.41582,6.39605 0.0161,0.23915 0.36788,6.25696 2.68331,-0.18184 2.58509,-0.14563 2.84493,-0.1598 2.80499,-0.15783 2.86139,-0.17056 0.52388,-0.0282 6.94669,-0.44258 6.80388,-0.39751 0.21425,-0.0126 0.21097,-0.009 6.71976,-0.29316 5.01563,-0.24526 1.62708,-3.26591 0.11981,-1.19672 6.6178,-21.47346 0.19217,-0.27393 0.17344,-0.45621 0.0664,-0.23541 0.11944,-0.42239 0.17994,-0.68596 0.24857,-0.93454 0.20485,-0.78701 0.29788,-1.14735 0.57462,-2.39108 0.12357,-0.50413 0.20249,-0.82223 1.52044,-4.71494 0.13666,-0.38433 1.02849,-3.78462 1.15865,-2.86325 0.0813,-0.14707 0.59576,-1.19058 0.6592,-1.45324 -2.58698,0.26218 -3.43414,0.37633 -3.62674,0.33077 -0.13398,-1.33294 -6.92978,0.29411 z"
      data-name="Sílvio Botelho" id="silvio_botelho" />
   <path class="neighborhood"
      d="m 446.55587,371.11815 -6.83728,0.40987 -0.55839,0.0355 -6.39473,1.66922 -3.98596,0.19604 -3.02955,0.1485 -6.97391,0.47523 -0.43066,0.0237 -0.28217,0.0267 -2.94046,0.24949 -2.38502,0.18118 -5.44429,0.33266 -1.9009,0.17827 -6.65908,0.4277 -2.45631,0.15747 0.24949,2.57512 -2.8157,0.1871 0.17235,2.73848 -1.69001,0.0445 -1.14054,0.84054 0.22869,2.25732 0.009,0.0143 0.009,0.0237 0.29701,3.97109 0.26732,6.38879 0.36533,6.39474 0.38611,6.32048 0.33266,6.41851 0.0326,0.52868 -0.52869,0.0237 -2.84838,0.15442 -2.71472,0.1693 -2.74739,0.14546 0.29998,6.37098 0.36236,6.43038 2.80383,-0.17828 0.32077,6.41553 0.0326,0.46333 2.63749,-0.17827 v 0.004 l 3.23449,-0.16034 3.01173,-0.12178 2.73552,-0.16626 2.74443,-0.1693 2.68204,-0.13362 2.71473,-0.17236 2.76818,-0.18711 2.78303,-0.1277 2.7266,-0.13666 2.71769,-0.18116 2.84243,-0.13667 0.47225,-0.0296 -0.0179,-0.47523 -0.18118,-3.22857 -0.16034,-3.18991 -0.20792,-3.1365 -0.17827,-3.2731 -0.16034,-3.10083 -0.18414,-3.22857 -0.0326,-0.68907 -0.32079,-6.2106 -0.54947,-9.59653 4.79383,-0.27922 2.16228,-0.12465 6.21948,-0.37125 0.88215,-0.0506 6.5165,-0.37721 0.3683,-0.0208 2.92857,-0.11586 4.04237,-0.28813 6.92937,-0.29404 0.13361,1.33361 3.62655,-0.3297 3.43348,-0.37721 2.58701,-0.26136 0.86728,-2.81571 -0.38018,-4.61265 -0.24056,-3.14539 -3.49588,0.10098 -3.42162,0.18118 -0.40395,-6.94124 -3.57308,0.22571 -3.51368,0.19605 -3.47509,0.20196 -0.0208,-0.34751 -0.21682,-3.54338 z"
      data-name="Pintolândia" id="pintolandia" />
   <path class="neighborhood"
      d="m 647.51929,110.22004 -2.68501,1.2534 -3.91168,5.84526 -1.00689,8.557 -1.22966,4.32752 -1.71376,4.02752 -3.62953,4.63047 -1.48211,2.34939 -3.42754,2.2187 -13.90626,-0.45444 -11.48262,-0.85837 -9.92919,1.0752 -1.10788,1.50883 0.50492,4.02753 -0.6861,4.13445 -2.31968,3.3236 -5.64626,2.21573 -6.04723,-2.51869 -4.66018,-6.95312 -7.08676,-7.11945 -2.81869,-1.3039 -2.73552,-0.17227 -2.67907,0.45741 -2.72659,1.29201 -2.92559,4.87699 -2.02565,3.5523 -2.81571,1.93951 -5.13242,1.91576 -4.72254,-0.89996 -4.35126,-3.61171 -1.31876,-0.95342 -2.56324,-0.0713 -0.15155,2.2187 0.0267,5.53636 0.20197,2.79491 0.19307,7.41648 0.3861,2.98202 1.20886,2.86916 0.20494,0.41879 0.33862,0.74849 1.02469,2.22762 0.66234,1.53556 1.9306,4.07504 0.0981,0.21683 0.38017,0.81976 1.18807,1.00689 2.14741,1.63951 1.96623,1.53557 1.40489,1.18212 0.70095,0.55245 2.03753,1.65735 0.98016,0.81976 0.4574,0.39504 0.58511,0.46927 1.95138,1.52964 1.29202,1.08409 0.57028,0.65343 0.59107,0.86432 0.70393,1.67219 0.24058,0.72176 0.8346,2.7058 0.39502,1.29498 0.54058,1.91872 0.65343,2.06723 1.09599,-0.18118 1.194,2.0702 0.26137,0.51977 0.84352,1.70784 1.9098,3.57904 0.20197,0.40097 1.48211,2.4771 0.75144,1.27717 0.76631,1.30685 0.99202,1.9217 0.23466,0.48414 0.16931,0.34454 0.35345,0.68609 0.93559,1.70784 0.58513,1.2653 0.7277,1.42269 1.35142,2.5276 1.38706,2.55136 0.56134,1.13459 0.80195,1.5831 1.25934,2.48305 1.41974,2.65531 0.54353,1.02174 0.17218,0.32671 0.1277,0.24355 0.20792,0.38909 0.31483,0.5881 1.36923,2.70282 1.81477,3.55528 0.0386,-0.0565 0.97717,1.10193 0.0447,-0.0683 3.29686,-4.87106 1.71081,-2.55432 2.17119,-3.2731 1.50882,-2.22762 0.65344,-0.95936 1.14648,-1.69297 0.6178,-0.8762 0.54057,-0.83462 3.42162,-5.12054 0.22869,-0.32672 3.76319,-5.56607 0.50788,-0.65047 0.50791,-0.81975 0.70986,-1.08114 4.38097,-6.6175 1.29795,-1.92168 2.48901,-3.64735 0.40986,-0.87322 0.86135,-1.83852 0.98313,-1.60389 0.85836,-1.41974 0.5168,-0.79599 3.64735,-5.63734 2.26623,-3.35925 0.97719,-1.44943 0.87916,-1.3039 2.48305,-3.67409 5.83931,-8.65203 1.86526,-2.76522 2.6761,-3.96514 1.57121,-2.3286 0.23464,-0.34752 0.92669,-1.29498 1.36329,-2.08504 0.26434,-0.40691 0.61781,-1.2445 0.54948,-1.3128 0.51679,-1.86823 1.23262,-4.45522 1.6811,-6.57295 2.9761,-11.64596 3.45726,-13.01224 0.30592,-1.82664 0.0981,-1.46132 -0.0504,-1.80288 -0.29999,-1.75833 -0.26434,-1.69001 z"
      data-name="Cauamé" id="cauame" />
   <path class="neighborhood"
      d="m 794.42894,94.891084 -1.58906,0.421761 -1.25636,1.060344 -1.38706,2.257316 -3.61172,1.363298 -6.1482,-1.205881 -8.55105,-0.09801 -6.27892,-0.291076 -4.91855,0.677195 -8.27783,3.739429 -6.10068,4.28889 3.37409,5.43241 2.88105,5.72645 2.34344,4.22059 2.04346,4.03049 4.60671,8.20949 1.85337,3.24044 0.0861,0.16335 0.23168,0.37721 0.10994,0.22573 0.19307,0.40988 0.65938,1.30093 0.68313,1.34548 2.59591,4.83541 0.3891,0.57918 2.08503,3.72159 2.02863,3.95327 0.40098,0.58216 2.01078,3.65923 1.66327,2.94639 0.25543,0.46037 2.74739,4.67798 13.1964,24.39385 1.5029,2.78305 1.15837,1.9276 0.68608,1.13163 0.16626,0.23466 0.9356,1.9187 1.78803,2.6464 1.18806,3.25233 1.47914,2.72363 0.26732,0.47522 1.60685,2.92857 1.41082,2.41771 1.73753,2.92262 0.98312,2.06129 0.0981,0.16034 0.15442,0.25839 -0.34157,0.22277 3.49587,6.88481 0.55245,0.12465 0.48414,0.13057 0.85837,0.23463 0.54651,0.13056 0.58214,-0.0683 0.65344,-0.35049 1.69002,-1.30983 1.86525,-1.96327 1.23856,-1.39597 0.87915,-1.4732 2.6464,1.5326 0.88511,-1.01876 1.12867,-1.29498 1.99,-2.28999 5.30171,-6.10068 -3.16321,-2.76226 -0.27622,-0.23463 -0.17828,-0.16034 -3.01173,-2.62561 -2.48602,-2.16524 -0.43066,-0.64453 5.17696,-6.00564 0.38612,-0.27028 4.69284,-5.37598 4.48791,-5.42943 4.75817,-5.1651 0.32077,-0.37127 4.678,-5.38487 4.73144,-5.31658 4.59779,-5.3433 0.29405,-0.42176 -2.94342,-2.60185 0.26138,-0.3 1.89794,-2.15038 2.13552,-2.54542 0.32374,-0.44553 4.59484,-5.08786 0.0386,-0.0475 0.0267,-0.0356 0.199,-0.32671 3.19588,-3.53448 0.2079,-0.2287 0.5079,-0.41286 23.36014,-25.59959 -5.3433,0.50195 -5.06115,-0.50789 -13.85278,-4.38098 -4.99284,-1.01282 -4.1374,0.30593 -3.4929,1.34547 -2.0405,0.39207 -6.33236,1.77318 -11.89842,0.0149 -2.31672,-0.0861 -3.61172,-0.84055 -10.10445,-7.67784 -9.70644,-7.25311 -8.57188,-6.041288 -2.38205,-1.740508 z"
      data-name="Paraviana" id="paraviana" />
   <path class="neighborhood"
      d="m 861.38077,269.03082 11.08044,2.99997 21.43446,-25.39952 14.50047,-8.48123 49.46278,-29.11039 40.86639,-8.48779 -5.69691,-18.8973 2.22055,-2.5024 2.19287,-4.29817 0.73238,-2.35865 0.54183,-2.58791 1.16381,-4.34939 0.12016,-2.3591 -1.879,-3.10382 -2.58597,-1.7624 -3.34208,-1.67877 -1.96873,-0.21425 -5.56202,0.65826 -1.5119,-0.10478 -0.90163,-0.98762 -0.78652,-1.21596 -1.80615,-2.19514 -2.4488,-2.50477 -1.90761,-2.29097 -1.00732,-0.21284 -2.47892,-0.52436 -3.38207,-0.77572 -2.64149,-0.9303 -1.91033,-0.444 -2.18572,-0.39562 -1.07606,-1.7873 -0.93919,-2.7533 -0.24757,-1.34752 -0.0486,-2.19654 -1.32408,-1.59279 -1.23847,-1.0332 -3.06439,-2.27501 -2.1538,-1.50539 -2.49626,-0.93077 -11.9144,2.06264 -4.21643,-1.98934 -7.76706,-3.61971 -3.26076,-0.94862 -3.49003,-0.3383 -7.84364,2.52261 -1.91556,-0.80578 -1.01394,-2.90602 0.2105,-2.77351 -0.12465,-2.07861 -1.81453,-2.31587 h -4.43585 l -5.32338,1.91792 -5.44413,2.61799 -23.36226,25.60015 -0.50697,0.41205 -0.20625,0.22881 -3.19638,3.53468 -0.19873,0.32747 -0.0282,0.0353 -0.038,0.0465 -4.59651,5.088 -0.32138,0.44683 -2.13593,2.54422 -1.89726,2.15238 -0.26357,0.29882 2.94453,2.60155 -0.29411,0.42098 -4.59655,5.34453 -4.73371,5.31633 -4.6778,5.38351 -0.32092,0.37353 -4.7572,5.16504 -4.48893,5.42956 -4.69191,5.37555 -0.38621,0.26922 -5.17585,6.00606 0.42897,0.64368 2.48597,2.16743 3.01126,2.6255 0.18042,0.15783 0.27627,0.2354 3.16207,2.76224 -5.30177,6.10004 -1.99121,2.29098 -1.1267,1.2963 -0.88565,1.01911 -2.28488,2.6288 -2.1876,2.51745 -1.95034,2.24352 0.61644,6.30536 1.79716,0.35003 5.29332,1.81221 5.00809,1.51339 0.99045,0.45057 3.04931,0.93123 0.79922,0.53093 1.09145,0.60188 0.72357,0.70759 1.39357,0.90353 2.15424,1.63648 0.59155,0.41816 0.31951,0.22505 0.73109,0.60423 0.84147,0.38858 1.66328,1.46028 0.77384,0.9087 1.34329,1.05479 1.05856,0.6545 2.06687,1.91322 2.08471,2.67063 1.04071,1.55848 0.29695,0.29646 1.4133,1.4119 0.81048,0.80908 0.70573,0.65451 0.50415,1.05716 1.46168,1.1079 0.42099,1.00922 0.48629,0.29976 1.02569,0.45528 0.38574,0.40033 0.30258,0.70522 v 0.80534 l 0.20158,0.9566 0.60469,0.8058 0.85699,0.40266 -0.16626,0.72496 z"
      data-name="Caçari" id="cacari" />
   <path class="neighborhood"
      d="m 746.30951,107.10138 -7.99566,3.06816 -13.40725,3.22262 -5.91656,3.37409 -3.74237,14.93986 -3.89685,3.19589 -6.05317,-11.35192 -10.57374,0.17524 -9.95893,2.00188 -8.62828,-2.5276 -9.61142,-9.51636 -8.75006,-4.90372 -10.25593,1.44052 0.76928,4.47899 0.26433,1.69001 0.3,1.75833 0.0504,1.80289 -0.0981,1.46131 -0.30593,1.82664 -3.45726,13.01224 -2.97608,11.64596 -1.68112,6.57296 -1.23262,4.45522 -0.5168,1.86823 -0.54947,1.3128 -0.61779,1.2445 -0.26434,0.40691 -1.3633,2.08504 -0.9267,1.29498 -0.23463,0.34752 -1.57123,2.3286 -2.6761,3.96515 -1.86524,2.76521 -5.83933,8.65204 -2.48305,3.67408 -0.87915,1.30389 -0.97719,1.44945 -2.26623,3.35923 -3.64735,5.63734 -0.5168,0.79601 -0.85837,1.41972 -0.98312,1.60389 -0.86133,1.83852 -0.40989,0.87324 -2.48898,3.64733 -1.29798,1.9217 -4.38096,6.61749 -0.70985,1.08113 -0.50792,0.81977 -0.50788,0.65047 -3.76318,5.56607 -0.22871,0.3267 -3.42162,5.12055 -0.54056,0.83461 -0.61779,0.8762 -1.14649,1.69299 -0.65343,0.95936 -1.50883,2.2276 -2.17118,3.27312 -1.71082,2.55432 -3.29687,4.87106 -0.88511,1.29202 -0.51382,0.73065 -0.40692,0.5762 -4.19979,6.23731 -0.24651,0.51384 -0.15443,0.8376 -0.0126,0.70985 0.0237,0.24059 -0.0179,0.29405 -0.0832,0.27621 -0.0951,0.13954 -0.22871,0.34455 -0.13667,0.35344 -0.0267,0.28513 0.0595,0.29703 0.20791,0.55838 2.56917,5.16805 2.98205,5.92249 3.34438,6.66207 0.28215,0.32966 0.21683,0.21683 0.50493,0.009 2.40582,-0.68314 1.02769,-0.38908 3.6711,-1.13163 3.48398,-0.98906 1.1049,-0.35643 3.95327,-1.23261 2.15633,-0.6653 2.06426,-0.63562 3.85823,-1.23855 0.9445,-0.25248 0.74254,-0.24651 2.90777,-0.97421 3.74536,-0.87618 4.11663,-1.63063 3.94735,-1.5445 3.83445,-1.60089 2.12068,-0.85243 3.71271,9.85496 1.7108,4.36613 2.05238,5.41755 0.58215,1.5326 0.61779,1.5712 0.26136,0.75739 0.64453,1.80288 0.74551,1.93951 1.00689,2.61374 1.16132,3.02361 0.14259,0.35642 0.93857,1.71674 0.62075,1.23262 1.85041,4.63344 0.22275,0.55541 0.0237,-0.0126 0.24951,0.597 1.01874,-0.57621 2.02269,-1.1049 2.03157,-1.11083 2.72363,-1.47913 2.05535,-1.13461 2.78303,-1.57121 0.49305,-0.27918 0.2673,-0.15155 0.18714,-0.13056 3.48696,-1.89794 1.42269,-0.75144 3.78396,-2.07316 1.39301,-0.76631 1.74646,-0.95341 1.24449,-0.6772 8.0313,-4.38097 4.19978,-2.2781 0.85541,-0.4782 1.74942,-0.94154 0.33562,-0.18415 0.85836,-0.49899 1.04848,-0.55839 1.32764,-0.77818 0.34455,-0.19601 3.6622,-2.11476 0.36532,-0.21088 -15.61407,-15.67646 0.005,-0.009 -0.009,-0.009 -2.99391,-9.44213 20.32771,-10.22028 20.35147,-10.14604 69.5075,-34.65869 6.46304,-3.22262 v -0.005 l 2.57512,-1.29794 -0.34749,-0.57325 -1.15837,-1.92762 -1.5029,-2.78303 -13.19637,-24.39386 -2.7474,-4.67799 -0.25544,-0.46036 -1.66328,-2.94639 -2.01078,-3.65923 -0.40097,-0.58216 -2.02863,-3.95327 -2.08503,-3.7216 -0.38909,-0.57918 -2.59591,-4.83541 -0.68314,-1.34548 -0.65938,-1.30092 -0.19306,-0.40988 -0.10994,-0.22574 -0.23166,-0.37721 -0.0861,-0.16335 -1.85337,-3.24043 -4.60671,-8.2095 -2.04346,-4.0305 -2.34344,-4.22058 -2.88105,-5.72645 -3.34439,-5.38489 z"
      data-name="Aeroporto" id="aeroporto" />
   <path class="neighborhood"
      d="m 445.18367,266.57772 -3.19292,2.63453 -3.3325,3.89387 0.35345,0.76629 3.0949,7.25311 3.88793,8.48275 6.82539,14.04883 5.00471,11.5123 1.19401,3.184 0.20196,0.54355 2.69691,7.12836 0.297,0.79006 1.45241,3.7216 1.18212,2.61671 1.33657,3.52556 1.61279,3.82851 1.36924,3.3741 1.05738,2.63156 0.43957,1.1138 0.68016,1.65438 2.40584,6.19276 0.49006,-0.0267 0.67125,0.0565 2.1593,-0.092 2.51573,-0.20197 1.44943,-0.23167 -0.78116,-0.36533 -0.0624,-2.14444 -0.0683,-1.73458 -0.81977,-0.75738 0.13361,-2.73254 0.16931,-2.60778 0.13666,-1.79993 0.51384,-8.21545 0.21979,-3.43943 0.12465,-2.28701 0.18414,-3.39193 0.0534,-1.11675 0.23166,-4.46117 0.0773,-1.12569 0.0208,-0.34751 0.29402,-5.13243 -0.88213,-1.96327 -1.52666,-3.00282 -1.78803,-2.47413 -0.58809,-0.65343 -0.72472,-0.61781 -0.50195,-0.36532 -1.2237,-0.80194 -0.91481,-0.61481 -1.13756,-0.99798 -0.50791,-0.4782 -0.6267,-0.7158 -0.43065,-0.52571 -0.84948,-1.51182 -0.31781,-0.40988 -0.35642,-0.30294 -0.34157,-0.12465 -0.61779,-0.0624 -0.27324,-0.58215 -0.30593,-0.66234 -0.23465,-0.47522 -0.33563,-0.69502 -0.47819,-0.75739 -0.47818,-2.09099 -0.47522,-4.14336 -1.02174,-3.87902 -0.89403,-3.184 -0.21681,-0.70987 -7.84418,2.56919 -1.93951,-4.52653 -1.93951,-4.52055 -0.12178,-0.19307 -0.10689,-0.0832 -0.10994,-0.0445 -0.11281,-0.0237 -0.21088,0.0326 -2.1682,0.98313 -0.61185,-1.3247 -2.18307,-4.92155 z"
      data-name="Jardim Primavera" id="jardim_primavera" />
   <path class="neighborhood"
      d="m 459.10774,254.83969 -0.37721,0.0355 -0.0179,-0.0126 h -0.0208 l -1.05736,1.51181 -3.54636,3.21966 -4.56216,3.68299 -0.11281,0.0891 -0.56728,0.4574 -3.07412,2.26623 -0.5881,0.4871 0.88215,1.88604 2.18306,4.92155 0.61184,1.32468 2.16821,-0.98311 0.21088,-0.0326 0.11281,0.0267 0.10995,0.0414 0.10689,0.0832 0.12178,0.19305 1.93951,4.52057 1.93951,4.52653 7.84416,-2.56921 3.71566,-1.21775 2.52464,-0.83462 2.24247,-0.82867 2.52462,-0.93558 2.44443,-0.90592 1.47616,-0.54649 1.09303,-0.45444 2.74737,-1.13756 5.13243,-2.24841 1.76428,-0.75442 2.57213,-0.98312 0.90294,-0.34751 1.69297,-0.65047 0.005,0.004 0.4277,-0.21088 -6.65611,-1.5623 -5.93437,-1.31281 -2.96718,-0.67719 -2.69095,-0.61185 -2.26622,-0.5168 -1.44054,-0.35644 -0.43365,-0.16625 -0.70985,-0.27326 -0.68016,-0.35345 -0.55839,-0.27029 -0.56433,-0.38909 -0.39503,-0.29998 -7.67487,-4.96311 -2.587,-1.8623 z"
      data-name="Piscicultura" id="piscicultura" />
   <path class="neighborhood"
      d="m 494.59214,189.83494 -0.26139,0.34751 -1.37516,2.55136 -2.55434,4.43445 -0.97421,2.86619 -0.25245,2.26623 -1.41084,1.36032 -1.76425,2.46522 -1.11084,2.7682 -1.76429,3.12458 -0.8049,2.41475 -0.20197,4.78194 -8.51839,15.8606 -4.3186,5.69081 -3.19292,2.11475 -2.57214,2.81867 -2.67019,4.02754 -1.72267,5.12055 2.587,1.86228 7.67487,4.96311 0.39504,0.29999 0.5643,0.38908 0.55841,0.2703 0.68017,0.35344 0.70985,0.27326 0.43365,0.16626 1.44053,0.35642 2.26622,0.5168 2.69095,0.61185 2.96718,0.67719 5.93437,1.3128 8.90154,2.09099 v -0.009 l 0.47226,0.11586 v -0.005 h -0.004 v -0.0125 l -0.17522,-5.04926 -0.005,-5.01658 0.32374,-4.79977 0.15747,-1.81773 0.43959,-2.90778 0.23168,-1.51775 0.68611,-3.05331 0.12465,-0.54056 1.30687,-4.43742 1.19102,-3.55228 0.38613,-0.98908 1.11973,-2.86024 0.70393,-1.5237 0.95935,-2.07612 1.23262,-2.29296 1.04252,-1.93951 1.35142,-2.20385 0.79303,-1.295 2.05238,-2.8751 1.46726,-2.05534 1.37814,-1.76724 2.87511,-3.71271 0.36236,-0.41582 -0.34157,-0.42472 -0.0126,-0.0144 -2.83055,-2.65531 -3.03846,-2.86323 -3.05333,-2.92262 -3.13349,-2.99095 -0.38019,-0.3475 -3.00282,-2.90185 -1.38706,-1.28011 -1.17024,-1.08114 -0.39206,-0.29702 -0.51977,-0.45444 -0.63266,-0.43365 -1.59498,-0.98311 z"
      data-name="União" id="uniao" />
   <path class="neighborhood"
      d="m 529.25083,148.83201 -0.63857,0.4069 0.15155,1.00689 -0.47227,0.95341 -1.36033,1.36035 -3.62953,1.25637 -2.25138,-0.24951 -4.28293,0.30296 -3.64735,1.20588 0.092,2.06724 -0.39504,2.088 -0.75738,2.84245 -0.6564,2.97015 -5.44132,4.179 -2.15039,0.75738 -1.33061,2.26327 -1.8623,1.7613 -1.46429,2.87213 -2.3672,5.26013 -0.80789,2.74443 -0.2376,3.80773 -1.14945,1.14647 1.31872,0.897 1.59498,0.98311 0.63266,0.43365 0.51977,0.45444 0.39206,0.297 2.5573,2.36127 3.00282,2.90185 0.38019,0.34751 3.13349,2.99093 3.05333,2.92263 3.03846,2.86324 2.83055,2.65531 0.97124,-1.60983 1.5237,-2.40284 0.46927,-0.62968 5.57795,-7.77585 2.29891,3.16618 0.13648,0.17235 0.1277,0.0891 0.14545,0.0126 3.9414,-2.41175 2.42956,-1.48507 1.76429,-0.97124 2.29295,-1.20589 2.00782,-0.96828 5.58685,-2.31374 0.31782,-0.1277 -0.45741,-0.39503 -0.98015,-0.81976 -2.03752,-1.65735 -0.70096,-0.55246 -1.40488,-1.18211 -1.96623,-1.53558 -2.14743,-1.63951 -1.18805,-1.00689 -0.38019,-0.81975 -0.0981,-0.21682 -1.9306,-4.07505 -0.66234,-1.53556 -1.0247,-2.22763 -0.33859,-0.74848 -0.20496,-0.41879 -1.20884,-2.86917 -0.38612,-2.98202 -0.19307,-7.41648 -0.20197,-2.79491 -0.0267,-5.53636 z"
      data-name="Jardim Caranã" id="jardim_carana" />
   <path class="neighborhood"
      d="m 440.2948,113.79313 -5.56607,5.4324 -9.0738,13.79636 -3.52855,5.53636 -1.00689,3.72754 -2.21869,2.41473 -50.75691,52.7707 -19.66837,55.96359 16.74275,13.63892 34.71514,-7.20558 3.04143,-0.56433 23.43153,-5.00173 1.19102,-0.29406 4.49681,-0.92964 0.50493,-0.0832 0.36235,-0.0565 0.31483,-0.0536 0.37723,-0.0951 10.09257,-2.13851 1.74941,-0.11873 0.59107,-0.0386 0.58809,-0.23465 0.39205,-0.0891 0.51384,-0.0267 0.70096,-0.005 0.69501,0.0565 0.59701,0.11873 1.06331,0.29402 0.13648,0.0416 0.36832,0.10994 0.67125,0.2406 0.7158,0.27324 1.50586,0.80195 4.46415,2.65235 0.19901,0.1277 0.0326,0.0208 0.37719,-0.0355 0.0144,0.009 1.72267,-5.12053 2.67018,-4.02754 2.57215,-2.81867 3.19292,-2.11475 4.3186,-5.69081 8.51839,-15.8606 0.20197,-4.78194 0.8049,-2.41771 1.76429,-3.12162 1.11084,-2.7682 1.76424,-2.46522 1.41084,-1.36033 0.25246,-2.26622 0.97421,-2.86621 2.55434,-4.43443 1.37516,-2.55136 0.26139,-0.34751 1.14945,-1.14647 0.23761,-3.80773 0.80788,-2.74443 2.3672,-5.26013 1.46429,-2.87214 1.8623,-1.76129 1.33061,-2.26327 2.15039,-0.75738 5.44132,-4.17901 0.6564,-2.97014 0.7574,-2.84245 0.39503,-2.08801 -0.092,-2.06723 3.64735,-1.20588 4.28295,-0.30296 2.25136,0.2495 3.62953,-1.25637 1.36033,-1.36034 0.47226,-0.95342 -0.15155,-1.00688 0.63858,-0.40691 2.56323,0.0713 -5.74723,-4.27702 -4.06911,-1.82665 -4.31859,-0.58512 -7.33628,4.30078 -11.08758,3.42162 -8.45009,0.81085 -5.74723,0.30295 -6.37098,-4.23543 -5.62548,-8.1501 -5.84821,-8.85996 -22.88502,-15.50716 z"
      data-name="Cidade Satélite" id="cidade_satelite" />
   <path class="neighborhood"
      d="m 464.49396,377.1908 -0.45998,-6.99181 -0.41534,-6.96174 -0.30304,-7.19997 -3.46985,0.20393 -3.49331,0.19874 -2.02976,0.12644 -1.43116,0.0746 -3.65729,0.19876 -0.36743,0.0249 -3.11321,0.18701 -3.55816,0.19639 -0.37633,0.0143 -3.20249,0.2246 -0.59014,0.0305 -3.33074,0.15048 -2.75989,0.18231 -2.38167,0.13846 -1.52513,0.0565 -3.09395,0.20157 -0.40688,0.0301 -2.75002,0.16483 -0.8819,0.0507 -0.49194,0.031 -1.84604,0.0902 -0.60469,0.0357 0.39656,6.77708 0.27909,5.28251 0.14706,3.34062 6.97207,-0.47314 3.02958,-0.14886 3.9876,-0.19592 6.39559,-1.67079 0.55724,-0.0357 6.83675,-0.40876 0.23351,3.12731 0.21612,3.54218 0.0212,0.34816 3.47313,-0.20109 3.51585,-0.19499 3.57275,-0.22647 0.40359,6.94153 3.42142,-0.18231 3.49708,-0.10097 -0.41581,-6.97959 z"
      data-name="Nova Canaã" id="nova_canaa" />
   <path class="neighborhood"
      d="m 473.7495,355.47487 -2.40374,-6.19306 -0.67988,-1.65526 -0.43977,-1.11402 -1.05857,-2.62973 -1.36961,-3.37587 -1.6111,-3.82785 -1.3386,-3.52527 -1.18168,-2.61706 -1.45136,-3.72119 -0.29788,-0.78935 -2.69739,-7.129 -0.20157,-0.54457 -1.19434,-3.18179 -5.00484,-11.51271 -6.82312,-14.04892 -3.8894,-8.48264 -3.09397,-7.25491 -0.35427,-0.76398 -0.54877,0.43414 -2.72184,2.01376 -2.82331,3.87672 -7.71255,6.74702 -7.71255,5.84021 -1.17415,1.08817 4.19386,9.53651 0.15873,1.39263 0.0179,0.55818 -0.30869,4.50019 -0.51684,7.13042 -0.35285,6.96691 -0.47878,7.0045 -0.45386,7.16189 -0.0409,1.80939 0.0348,0.36225 0.0441,0.28004 0.1225,0.70475 0.0414,0.32093 -10e-4,0.37445 -0.18796,3.23162 0.17666,7.76331 0.14474,6.40873 1.84601,-0.0902 0.49194,-0.031 0.88192,-0.0508 2.75001,-0.16482 0.40689,-0.0301 3.09395,-0.20157 1.52512,-0.0565 2.38168,-0.13846 2.75989,-0.1823 3.33074,-0.15048 0.59014,-0.0305 3.20247,-0.2246 0.37635,-0.0143 3.55816,-0.19638 3.11321,-0.18701 0.36742,-0.0249 3.6573,-0.19876 1.43116,-0.0746 2.02974,-0.12644 3.49333,-0.19874 3.46983,-0.20394 3.56709,-0.25324 3.48016,-0.13917 3.38667,-0.17003 z"
      data-name="Silvio Leite" id="silvio_leite" />
   <path class="neighborhood"
      d="m 415.96628,293.10712 -5.12647,4.75224 -2.57217,1.5623 -7.61249,1.66031 -6.43334,1.11084 -3.44539,0.85244 -6.55511,1.20885 -8.21544,0.35345 -5.67894,2.72065 -5.8601,2.69986 -1.10192,22.27911 -0.39206,7.05708 -0.34751,6.90562 -0.32079,6.96203 -0.41284,8.72333 0.43661,7.13727 0.47224,7.06006 3.53449,-0.26434 3.48992,-0.20792 3.35926,-0.20792 0.34749,-0.0208 2.9464,-0.19305 0.32968,-0.0179 2.50088,-0.13954 2.09692,-0.16034 0.41582,-0.0296 2.72957,-0.16626 2.93748,-0.18414 3.32063,-0.15746 2.89887,-0.21386 0.0386,1.80586 -0.0355,2.3969 2.81571,-0.18711 -0.2495,-2.57511 2.45631,-0.15747 6.65908,-0.4277 1.9009,-0.18118 5.44429,-0.3297 2.38502,-0.18118 2.94046,-0.25245 0.28217,-0.0237 0.43068,-0.0237 6.97094,-0.47522 -6.97094,0.47225 -0.14546,-3.33846 -0.27919,-5.2839 -0.39802,-6.77787 0.60592,-0.0355 -0.14545,-6.40661 v -0.004 l -0.17828,-7.76101 0.1901,-3.23153 v -0.37423 l -0.0416,-0.32079 -0.12178,-0.70689 -0.0447,-0.27919 -0.0355,-0.36236 0.0414,-1.80882 0.45442,-7.16103 0.4782,-7.0066 0.35344,-6.96498 0.5168,-7.13135 0.30891,-4.49977 -0.0179,-0.55841 -0.15747,-1.39299 z"
      data-name="Alvorada" id="alvorada" />
   <path class="neighborhood"
      d="m 393.70797,374.18927 -2.89887,0.21388 -3.32063,0.15747 -2.93748,0.18414 -2.72957,0.16338 -0.41582,0.0326 -2.09692,0.16033 -2.50088,0.13954 -0.32968,0.0179 -2.9464,0.19306 -0.34749,0.0208 -3.35926,0.20792 -3.48992,0.2079 -3.53449,0.26435 -0.75144,0.0534 -3.40973,0.21386 -3.56418,0.13362 -3.45131,0.25245 0.38315,6.59669 -0.48118,0.0386 0.19307,7.09867 0.35344,6.38881 0.45146,6.24027 0.39206,6.43336 0.19901,6.35017 0.0326,0.65938 2.86618,-0.19603 2.76819,-0.17217 2.75333,-0.13057 2.73848,-0.20792 0.597,-0.0355 2.83056,-0.11586 2.68203,-0.15747 2.77116,-0.10098 2.75332,-0.16625 2.76225,-0.17523 2.7563,-0.17827 2.71473,-0.14851 2.74739,-0.14545 2.7147,-0.1693 2.84838,-0.15442 0.52869,-0.0237 -0.0326,-0.52869 -0.33266,-6.4185 -0.3861,-6.32048 -0.36534,-6.39474 -0.2673,-6.39175 -0.29703,-3.96813 -0.009,-0.0267 -0.0126,-0.0125 -0.22573,-2.25732 1.14054,-0.84054 1.69002,-0.0475 -0.17218,-2.7355 0.0355,-2.39692 z"
      data-name="Santa Luzia" id="santa_luzia" />
   <path class="neighborhood"
      d="m 364.46683,310.02806 -5.93437,2.73848 -5.31062,0.80194 -6.20169,0.25247 -6.13336,-1.65735 -1.77318,-0.48116 -0.2673,-0.0714 -0.39504,-0.1069 -3.17509,-0.15155 -6.13337,1.31281 -2.09989,0.19603 -1.09303,0.10097 -2.28997,1.4138 -1.79397,1.10489 -6.84323,5.43538 -9.15402,6.94718 -11.2925,6.44523 -8.18574,8.76194 -7.13728,6.14228 -4.49383,0.80492 -4.61265,0.22869 -2.50681,-0.6653 -2.15931,-1.0158 -2.30482,-0.34751 h -2.18901 l -2.96123,1.35439 -2.32267,1.76129 -4.23842,3.75428 0.0861,1.7821 0.80787,4.22948 1.20887,5.43836 0.29998,1.39893 0.19603,0.92373 0.92668,4.33939 1.60092,5.12055 3.23746,3.33548 2.2187,5.7413 4.59187,7.75208 0.28809,0.39208 4.29484,-0.84354 3.61765,-0.55243 4.13743,-0.63562 3.97107,-0.58809 3.91468,-0.59404 5.95513,-0.89103 0.16931,-0.0596 16.81997,-5.93435 2.48304,0.12465 2.00189,-0.24354 0.11873,-6.10961 3.39787,-0.25543 3.47507,-0.26139 3.48103,-0.2584 5.18884,-0.38909 3.51964,-0.26434 0.48114,-0.0296 3.50479,-0.18414 3.67705,-0.19901 3.37113,-0.18118 3.54041,-0.19305 3.57608,-0.19009 3.4513,-0.25247 3.56419,-0.13649 3.40973,-0.21386 0.75144,-0.0534 -0.47225,-7.06006 -0.43661,-7.13727 0.41285,-8.72333 0.32078,-6.96203 0.34751,-6.9056 0.39206,-7.05711 z"
      data-name="Equatorial" id="equatorial" />
   <path class="neighborhood"
      d="m 415.96524,293.10771 1.17415,-1.08817 7.71255,-5.84021 7.71255,-6.74702 2.82331,-3.87672 2.72184,-2.01376 0.54877,-0.43414 3.33265,-3.89551 3.19167,-2.63537 0.58919,-0.48631 3.07517,-2.2656 0.5671,-0.45763 0.11174,-0.0897 4.56363,-3.68173 3.54595,-3.21987 1.06326,-1.52136 -0.20109,-0.1268 -4.46402,-2.65463 -1.504,-0.80205 -1.16756,-0.44682 -0.58779,-0.17666 -0.13666,-0.0409 -1.06513,-0.29225 -0.59531,-0.11981 -0.69631,-0.0565 -0.69914,0.005 -0.51355,0.0249 -0.3942,0.0916 -0.58636,0.23491 -0.59154,0.0371 -1.74879,0.12034 -10.09326,2.1364 -0.37635,0.0972 -0.31481,0.0516 -0.36458,0.0565 -0.97448,0.15783 -4.01063,0.80907 -1.88737,0.40924 -7.95172,1.72201 -1.05716,0.21707 -1.66514,0.3425 -12.07554,2.65089 -3.04275,0.56477 -20.18279,4.11352 -4.01158,0.82599 -7.79148,1.60359 -0.23493,0.0644 -1.42881,0.32232 -0.38903,0.10385 -0.74518,0.16303 -18.39642,3.78792 -32.16628,6.67231 -6.09629,1.26483 -2.70538,0.53703 -7.2305,1.6581 -2.85385,0.57556 -2.75894,0.58168 -35.59853,7.39869 -23.72779,4.83428 -1.54112,0.31762 -0.40924,0.0836 -1.58665,0.32515 -9.45006,2.01894 0.13021,2.17539 0.61221,11.13069 0.623,11.22656 0.11461,0.54691 0.23916,4.35831 2.61234,4.27843 4.5049,3.48345 1.39828,0.79687 3.32228,4.60967 0.69491,0.25936 0.18701,0.0694 4.26059,4.72619 5.64615,6.8471 1.901,2.35958 2.59591,0.97165 1.99452,0.12931 4.23851,-3.75453 2.32197,-1.76147 2.95911,-1.35646 2.18949,0.001 2.30508,0.34864 2.16036,1.01345 2.50758,0.66672 4.61016,-0.22788 4.49455,-0.80672 7.13795,-6.14279 8.18663,-8.76032 11.29139,-6.4449 9.15453,-6.94765 6.84284,-5.43568 1.79295,-1.10507 2.29051,-1.41238 1.09381,-0.10241 2.09929,-0.19687 6.13246,-1.31182 3.1757,0.15137 0.39514,0.10653 0.26781,0.0725 1.77414,0.47973 6.13246,1.65716 6.20058,-0.25185 5.31022,-0.80297 5.93654,-2.73639 5.85947,-2.70116 5.6786,-2.72135 8.2167,-0.3524 6.55297,-1.20846 3.44587,-0.85324 6.43457,-1.11025 7.61155,-1.66137 2.571,-1.56085 5.12699,-4.75204 z"
      data-name="Murilo Teixeira Cidade" id="murilo_teixeira_cidade" />
   <path class="neighborhood"
      d="m 529.45233,510.08734 -1.74547,2.12088 -0.85042,1.05763 -2.04807,2.71245 -0.44072,0.54124 12.38145,12.98426 5.45493,5.09693 4.94984,-0.94628 7.55139,0.44306 7.15815,0.80532 7.06746,0.0606 8.46854,1.51056 13.81213,3.02065 3.73057,0.40312 1.5026,0.29179 0.84619,0.16392 2.14861,-2.1735 1.82582,-1.84699 1.3339,-1.36397 2.27502,-2.32574 0.30445,-0.32326 4.0172,-3.84055 5.10301,-5.30081 3.20768,-3.70663 1.6266,-2.02694 1.48519,-1.8512 1.56178,-1.81784 0.3895,-0.50133 -1.51573,-2.57992 -3.32699,-5.23646 -4.24461,-4.48612 -8.16595,-5.74013 -9.47732,-5.94122 -8.36752,-4.63226 -3.36082,-1.36349 -0.20016,-0.0897 -0.0601,0.27204 -0.20155,1.26529 0.0879,0.49099 0.27112,0.44682 0.88237,0.74894 1.10883,0.72357 1.51246,1.07643 -1.53126,4.44946 -1.68863,4.89675 -0.28988,0.8119 -0.20816,0.42802 -0.42192,0.55349 -1.48706,1.50446 -1.28833,1.42411 -0.15513,0.23117 -0.26499,0.7851 -1.9151,6.04977 -1.0459,3.10288 -0.81281,2.62457 -0.18278,0.38388 -2.02271,2.46057 -0.5671,-0.1259 -0.47266,-0.0818 -0.78136,-0.11945 -1.00172,-0.23307 -7.26479,-2.3389 -4.02239,-0.98104 -6.70048,-2.12652 -3.14047,-1.00549 -3.72449,-1.20046 -2.60766,-0.9007 -1.60969,-0.61503 -2.94595,-1.00453 -2.62834,-0.99468 -0.12034,-0.0455 -2.5616,-0.85653 -0.44447,-0.296 -0.84292,1.02427 -3.11745,3.82785 -0.19076,0.22507 z"
      data-name="São Bento" id="sao_bento" />
   <path class="neighborhood"
      d="m 635.16299,494.52784 1.23572,-4.29441 0.58778,-4.43254 1.03977,-9.5835 0.56147,-4.6139 0.3754,-4.01721 0.64089,-6.80293 0.4891,-3.63241 0.27017,-3.07467 -1.13752,-0.33831 -2.34642,-0.68126 -0.95802,-0.33171 -3.10476,-0.95708 -3.11978,-0.73155 -4.67874,-1.42036 -4.18916,-1.27188 -3.33735,-0.96225 -4.86433,-1.38464 -4.99588,-1.50069 -0.60612,-0.15639 -0.32374,-0.0746 -0.75317,-0.22413 -3.75924,-1.15489 -2.24399,-0.66202 -1.41942,-0.41392 -2.96098,-0.90072 -2.95253,-0.91477 -3.07185,-0.94394 -3.51589,-1.18355 -1.05246,-0.38714 -2.41972,-1.00033 -2.81203,-1.19621 -2.40844,-0.96603 -1.55003,-0.65448 -0.97683,-0.41818 -1.35784,-0.51918 -1.77368,-0.60751 -1.52184,-0.4628 -3.03098,-0.97211 -3.08738,-0.95662 -3.04038,-0.97539 -0.4661,-0.14796 -3.1635,-0.95051 -3.05917,-0.88755 -1.14268,-0.32137 -0.34673,-0.0606 -1.56506,-0.53517 -2.94362,-0.9552 -0.50932,-0.16625 -3.39042,-1.03695 -0.66906,-0.20487 -2.97508,9.52008 -4.58946,15.50358 0.79357,0.28847 -4.63225,12.15217 4.43585,5.94122 3.12356,4.38555 1.76333,1.53689 4.99307,3.44257 9.36643,2.26092 h 5.54468 l 11.09028,2.01376 6.05916,0.4581 3.92183,1.65669 1.09569,0.48771 0.18277,0.0728 0.20016,0.0897 3.36082,1.36349 8.36752,4.63223 9.47732,5.94124 8.16595,5.74013 4.24461,4.48612 3.32699,5.23645 1.51573,2.57993 0.34159,-0.34346 3.6822,-4.25493 2.96191,-3.97445 0.90025,-1.20891 0.32935,-0.4412 1.61439,-2.54188 0.10994,-0.2025 0.97258,-1.78778 0.16733,-0.39701 0.65874,-1.56459 0.8551,-2.03023 z"
      data-name="Centenário" id="centenario" />
   <path class="neighborhood"
      d="m 519.62264,522.32875 1.3546,1.56084 3.07841,3.34814 2.83226,3.16584 3.95096,4.09097 3.49707,3.83913 0.48159,0.42474 1.33718,-1.53922 1.348,-0.53893 1.68677,-0.70994 3.01455,-1.36959 -5.45493,-5.09693 -12.38145,-12.98426 0.44072,-0.54124 2.04807,-2.71245 0.85042,-1.05763 1.74547,-2.12088 0.19078,-0.22507 3.11742,-3.82785 0.84293,-1.02427 0.44446,0.296 2.56161,0.85654 0.12034,0.0456 2.62834,0.99467 2.94595,1.00454 1.6097,0.61503 2.60764,0.90071 3.72449,1.20044 3.14047,1.00549 6.7005,2.12652 4.02238,0.98105 7.26478,2.33892 1.00173,0.23305 0.78135,0.11944 0.47266,0.0818 0.56711,0.1259 2.02271,-2.46057 0.18277,-0.38389 0.81282,-2.62457 1.04589,-3.10288 1.9151,-6.04976 0.26499,-0.78511 0.15514,-0.23116 1.28833,-1.42411 1.48708,-1.50446 0.42192,-0.55348 0.20813,-0.42803 0.2899,-0.8119 1.68864,-4.89676 1.53124,-4.44946 -1.51245,-1.07642 -1.10884,-0.72357 -0.88237,-0.74893 -0.27112,-0.44683 -0.0879,-0.49099 0.20158,-1.2653 0.0601,-0.27204 -0.18278,-0.0728 -1.09568,-0.48771 -3.92181,-1.65667 -6.05918,-0.45812 -11.09029,-2.01376 h -5.54468 l -9.36643,-2.2609 -4.99307,-3.44257 -1.76333,-1.53689 -3.12356,-4.38557 -4.43584,-5.9412 -6.5633,-0.55866 -10.38458,0.3021 -6.46559,1.46358 -3.41439,1.25543 -9.37628,4.32966 -8.55969,4.28501 -6.46231,5.18101 -4.05289,5.17679 -2.09695,2.67766 -6.10848,5.75423 0.41582,0.22505 5.07105,3.28708 6.15973,3.82973 3.27624,1.95127 2.19278,1.38464 0.37824,0.21378 0.73108,0.42804 5.77396,3.31618 4.05526,2.36757 1.24369,0.709 0.56992,0.33078 5.42769,3.26498 5.24023,3.20624 2.88109,1.7342 3.73013,2.23085 1.97102,1.46263 1.65527,1.5707 z"
      data-name="Profa. Araceli Souto Maior" id="profa._araceli_souto_maior" />
   <path class="neighborhood"
      d="m 234.18567,339.72697 -3.32228,-4.60967 -1.39828,-0.79687 -4.5049,-3.48345 -2.61234,-4.27843 -0.23916,-4.35831 -0.11461,-0.54691 -0.623,-11.22656 -0.61221,-11.13069 -0.13021,-2.17539 -9.18271,1.96162 -6.43976,1.06984 -7.40808,0.91901 -10.15154,1.16054 -18.35227,2.1735 -25.72135,3.04603 -3.91854,0.46421 -2.28441,0.43602 -0.64933,0.2866 -0.42379,0.18843 -0.25795,0.0934 -0.0531,0.28238 -0.0643,0.17666 -0.0776,0.32422 -0.11132,0.38666 0.0292,1.36022 0.94439,5.1406 1.66984,9.19964 1.68252,9.63375 1.714,9.57833 0.68504,3.97633 0.77009,3.9129 1.19764,6.92273 1.07079,5.87827 0.32795,1.51056 0.40642,1.50399 0.5765,2.00766 1.18449,2.63069 3.73059,7.04865 3.71744,6.75971 5.09127,9.47778 2.7472,4.80843 2.8736,5.37458 1.78964,3.10898 2.41925,4.53169 4.77648,8.79838 2.29379,4.12856 0.73061,0.99466 2.6213,3.32276 3.26403,3.28517 3.3143,2.79467 7.55187,6.34953 3.21048,2.91446 19.15571,16.32582 7.22768,6.19636 31.1777,26.60656 7.94562,6.85884 10.80039,9.23909 1.98135,1.69427 26.34533,-30.09188 6.60747,-7.47576 0.40359,-0.45293 6.37819,-7.64819 0.85512,-0.16536 -1.54861,-1.14172 -2.57195,-2.68094 -1.71071,-1.5444 -14.8007,-13.36249 -7.81122,-6.29736 -0.2899,0.28988 -2.44978,-2.28111 -2.6288,-2.41407 -0.28895,-0.25466 -0.2885,-0.25419 -1.32497,-1.23382 -0.46561,-0.4628 -2.53484,-2.28865 -0.5173,-0.49474 -0.77901,-0.74516 -1.14079,-1.01582 -2.64149,-2.50195 -2.36146,-2.05419 -2.2191,-2.03583 -0.35518,-0.3256 -1.48567,-1.39828 -0.98246,-0.90351 -0.41301,-0.37118 -2.05745,-1.85027 -2.4775,-2.33702 -2.59122,-2.31213 -2.49395,-2.21814 -1.3076,-1.37996 -0.27251,-0.33969 -0.11837,-0.35097 0.0319,-0.23165 0.30118,-0.36741 0.39703,-0.62113 1.44384,-2.11527 0.62254,-0.93124 0.45999,-0.71087 0.18795,-0.2852 0.43553,-0.6907 0.25138,-0.37539 -0.004,-0.69773 -0.78747,-3.31195 -0.0673,-0.49147 0.0986,-0.33969 2.23038,-3.16678 0.37822,-0.36226 0.49477,-0.25794 0.71322,-0.24574 5.57569,-1.21644 -4.59183,-7.75341 -2.21817,-5.73969 -3.23583,-3.33826 -1.60312,-5.1204 -0.92561,-4.33717 -0.19732,-0.92512 -0.29883,-1.39876 -1.20986,-5.43755 -0.80625,-4.22956 -0.0856,-1.78121 -1.9945,-0.12931 -2.59591,-0.97165 -1.901,-2.35958 -5.64617,-6.8471 -4.26059,-4.7262 -0.18699,-0.0694 -0.69491,-0.25936 z"
      data-name="Laura Moreira" id="laura_moreira" />
   <path class="neighborhood"
      d="m 351.6239,376.80597 -3.57608,0.19307 -3.5404,0.1901 -3.37114,0.18415 -3.67705,0.19603 -3.50477,0.18712 -0.48116,0.0296 -3.51963,0.26434 -5.18885,0.38613 -3.48102,0.26136 -3.47507,0.26139 -3.39788,0.25245 -0.11873,6.10961 -2.00188,0.24652 -2.48303,-0.1277 -16.81998,5.93731 -0.16931,0.0596 -5.95514,0.89103 -3.91465,0.59404 -3.9711,0.58809 -4.13742,0.63262 -3.61766,0.55543 -4.29484,0.84354 -0.28809,-0.39208 -4.59186,-7.75208 -2.2187,-5.7413 2.21572,5.7413 4.59187,7.75208 -5.57497,1.21777 -0.71285,0.24651 -0.49305,0.25841 -0.38017,0.35938 -2.23057,3.16917 -0.0981,0.33858 0.0683,0.49009 0.7871,3.3117 0.004,0.69799 -0.25246,0.37723 -0.43365,0.68906 -0.18711,0.28513 -0.46038,0.71285 -0.62372,0.92966 -1.4435,2.11473 -0.398,0.62077 v 0.004 l -0.3,0.36531 -0.0326,0.23169 0.11873,0.35048 0.2703,0.34156 1.30983,1.37816 2.49196,2.21868 2.59295,2.31376 2.4771,2.33751 2.05831,1.85041 0.41284,0.36829 0.98315,0.9059 1.48507,1.39597 0.35344,0.3267 2.21871,2.03754 2.36126,2.05238 2.64343,2.50383 1.14054,1.01579 0.77818,0.74254 0.5168,0.49601 2.53651,2.29 0.46633,0.46037 1.32469,1.23558 0.28809,0.25247 0.28811,0.25543 2.62859,2.41473 2.45037,2.28107 0.29107,-0.29105 7.8115,6.29671 14.80027,13.3627 1.7108,1.54449 2.57216,2.68204 1.54745,1.14054 1.43459,1.13163 3.36518,3.16023 5.3819,4.82057 4.33345,3.77507 4.86213,4.06316 0.22575,-0.21088 3.88199,3.46319 7.8709,7.32439 8.39068,7.35112 2.89887,3.42161 3.03846,3.85823 1.61874,-1.06627 5.40566,0.0416 1.89198,-0.43959 1.20886,-0.72769 3.81072,-3.14241 6.37096,-2.93155 7.17884,-4.57404 4.54434,-0.75146 4.23248,1.41084 5.54527,1.10787 3.42756,-0.30294 5.3433,-1.10788 4.33641,-1.60981 8.15603,3.26714 6.46306,2.37316 9.27577,1.60981 5.12946,-0.25541 6.0502,0.0981 2.31967,-2.01376 4.54732,-2.96422 1.29797,-0.93858 3.43941,-2.486 3.41865,-2.77412 1.35142,-1.29498 6.10663,-5.7532 2.09693,-2.67908 -4.39582,-1.23558 -3.43943,-2.28997 -6.03536,-1.67815 -10.50541,-3.05331 -13.67755,-6.64125 1.19994,0.0981 1.01578,-2.4385 1.61874,-4.80274 1.21775,-3.44239 0.63858,-1.73754 0.60889,-1.65438 0.29998,-0.68906 0.19901,-0.45742 0.76333,-2.12067 1.31579,-3.85823 0.85837,-2.50385 -5.0166,0.24652 -6.72145,0.29108 -0.21088,0.009 -0.21386,0.0143 -6.80163,0.39503 -6.94718,0.44255 -0.52573,0.0296 -2.86025,0.16931 -2.80382,0.15747 -2.84542,0.16034 -2.587,0.14563 -2.68204,0.18414 -0.36829,-6.2581 -0.0143,-0.24058 -0.41582,-6.39474 -2.71472,0.17235 -2.68205,0.13362 -2.74441,0.16931 -2.73552,0.16625 -3.01174,0.12178 -3.23448,0.15747 -2.63749,0.17827 -0.0326,-0.46632 -0.32079,-6.41254 -2.80381,0.17828 -0.36236,-6.43334 -0.29998,-6.368 -2.71472,0.1485 -2.7563,0.17827 -2.76226,0.17523 -2.75331,0.16625 -2.77115,0.10098 -2.68206,0.15747 -2.83055,0.11586 -0.59701,0.0355 -2.73847,0.20792 -2.75331,0.13057 -2.7682,0.17217 -2.86619,0.19603 -0.0326,-0.65936 -0.19901,-6.35019 -0.39206,-6.43334 -0.45144,-6.24327 -0.35345,-6.38582 -0.19307,-7.09868 0.48116,-0.0386 z"
      data-name="Senador Hélio Campos" id="senador_helio_campos" />
   <path class="neighborhood"
      d="m 423.79476,587.93505 5.9464,-3.99089 1.26813,-0.9129 1.89256,-1.44948 1.01299,-0.64464 2.73779,-1.54673 4.53967,-2.60815 2.85434,-1.68673 3.04321,-1.71166 2.99106,-1.48144 3.06434,-1.83005 2.8374,-1.64543 2.92246,-1.78213 0.45295,-0.27345 1.33436,-0.80483 1.57633,-0.93124 -2.06685,-4.15158 2.45636,-0.70805 6.36128,-4.37008 4.83943,-2.51745 7.14827,-1.06749 4.57821,0.9726 2.57945,1.74593 6.45244,3.02114 2.92385,-1.10744 5.44414,-3.62534 5.04099,-3.22222 3.22645,-3.42426 0.47877,-1.33811 -5.73825,-5.02926 -2.57383,-2.72277 -3.44492,-3.2523 -2.48269,-2.41267 -3.13482,-2.99808 -3.04554,-2.97133 -3.4111,-3.40453 -2.19983,-2.09271 -2.26844,-2.16504 -2.31869,-2.24025 -2.63397,-2.58039 -6.74232,-6.45759 -0.90728,0.86873 -4.44616,-4.41046 -5.74343,-5.60433 -1.29914,0.93875 -4.54672,2.96566 -2.31916,2.01378 -6.04883,-0.10044 -5.13167,0.25653 -9.27528,-1.6111 -6.46277,-2.37133 -8.15609,-3.2678 -4.33528,1.61112 -5.34311,1.1079 -3.42802,0.30212 -5.54515,-1.10792 -4.23427,-1.40953 -4.54202,0.74988 -7.18116,4.57538 -6.36926,2.9295 -3.81189,3.14234 -1.20797,0.7292 -1.89209,0.43884 -5.40699,-0.0414 -1.61722,1.06609 1.33765,1.62473 7.4344,9.60699 2.99294,3.80154 3.05354,3.85369 2.95488,3.52197 2.93044,3.72826 2.88018,3.74515 3.0089,3.87486 2.91824,3.48344 3.31428,4.39354 4.1934,5.34829 7.90708,9.93211 6.47028,8.72133 9.64552,12.23061 0.26685,-0.21895 z"
      data-name="Operário" id="operario" />
   <path class="neighborhood"
      d="m 460.64027,497.36997 5.74343,5.60433 4.44616,4.41046 0.90728,-0.86873 6.74232,6.45759 2.63397,2.58039 2.31869,2.24025 2.26844,2.16504 2.19983,2.09271 3.4111,3.40453 3.04554,2.97133 3.13482,2.99808 2.48269,2.41267 3.44492,3.2523 2.57383,2.72277 5.73825,5.02926 1.4805,1.29724 0.61926,0.45811 6.41813,7.02611 3.68313,4.8305 3.62958,4.6576 3.65449,4.50631 4.20278,5.37553 4.2042,5.19324 3.70148,4.73373 0.68596,0.90305 5.24116,-4.13797 3.14846,-2.41832 4.8399,-3.60748 4.85165,-3.85181 2.0166,-1.7624 3.98852,-3.18463 5.4822,-4.26058 4.58008,-3.67187 0.47314,-0.32466 9.69155,-7.7351 4.41047,-4.02802 3.96599,-3.89082 0.59013,-0.59716 -0.84619,-0.16393 -1.5026,-0.29178 -3.73057,-0.40313 -13.81213,-3.02065 -8.46854,-1.51055 -7.06746,-0.0606 -7.15815,-0.80534 -7.55139,-0.44305 -4.94984,0.94627 -3.01455,1.36961 -1.68677,0.70994 -1.348,0.53892 -1.33718,1.5392 -0.48159,-0.42473 -3.49707,-3.83913 -3.95096,-4.09098 -2.83226,-3.16583 -3.07841,-3.34812 -1.3546,-1.56085 -1.65526,-1.57069 -1.97102,-1.46264 -3.73012,-2.23085 -2.88111,-1.73422 -5.24022,-3.20622 -5.42768,-3.26498 -0.56992,-0.33077 -1.24369,-0.70901 -4.05526,-2.36757 -5.77396,-3.31618 -0.73109,-0.42803 -0.37823,-0.21379 -2.19279,-1.38463 -3.27624,-1.95128 -6.15972,-3.82973 -5.07105,-3.28708 -0.41584,-0.22504 -1.35221,1.29444 -3.41768,2.77443 -3.43928,2.48504 z"
      data-name="Raiar do Sol" id="raiar_do_sol" />
   <path class="neighborhood"
      d="m 511.73287,544.8423 -0.48116,1.33955 -3.22559,3.42458 -5.04033,3.21964 -5.44429,3.62656 -2.92561,1.10787 -6.45117,-3.02065 -2.57809,-1.74644 -4.57997,-0.97421 -7.14916,1.06925 -4.83838,2.5157 2.77116,4.16415 2.44741,3.19292 5.24231,6.79869 5.12353,6.33532 2.70578,3.32657 3.59093,4.69879 0.92074,1.0544 0.66828,0.84649 0.30594,0.27028 0.30591,0.15747 0.55841,0.20197 0.15747,0.50788 0.12178,0.25543 0.19603,0.27326 1.09003,1.45537 7.89469,10.78462 2.58402,3.30578 4.81461,6.6175 0.32375,0.48116 0.52275,-0.41878 0.0144,0.0208 3.00875,-2.31969 0.33268,-0.27028 0.31781,-0.25839 2.35829,-1.94843 2.68799,-2.13258 4.72847,-3.73347 7.63328,-6.02347 1.72863,-1.45835 7.40459,-5.84525 2.43256,-1.9187 -0.6861,-0.90294 -3.70377,-4.73443 -4.20277,-5.19478 -4.20276,-5.37598 -3.65626,-4.50572 -3.62951,-4.6572 -3.68301,-4.82947 -6.41553,-7.02738 -0.62075,-0.4574 z"
      data-name="Bela Vista" id="bela_vista" />
   <path class="neighborhood"
      d="m 469.01912,555.40415 -6.36204,4.37207 -2.45633,0.70691 2.06723,4.15226 -1.57419,0.93264 -1.33658,0.80192 -0.45144,0.27624 -2.92263,1.78209 -2.83649,1.64547 -3.0652,1.8296 -2.99095,1.47913 -3.0444,1.71378 -2.85432,1.68706 -4.53839,2.60778 -2.73848,1.54745 -1.01283,0.64453 -1.89198,1.44942 -1.26825,0.91185 -5.94625,3.99189 -0.2673,0.21681 1.25041,1.63062 0.57326,0.68312 1.82366,2.39691 1.73161,2.23357 1.69002,2.15039 1.82069,2.39394 0.32374,0.41581 1.41678,1.95734 1.68406,2.2187 7.03927,9.62923 1.63655,2.15634 8.5689,11.61625 0.30887,0.41285 2.23655,2.96421 2.02563,2.73551 0.36532,-0.16625 8.80948,11.43507 1.41973,-1.11976 6.15415,-4.85915 5.68487,-4.57701 5.72051,-4.5087 1.1762,-0.92074 1.88603,-1.47318 10.82919,-8.57781 0.39206,-0.3089 0.72767,-0.57621 10.03021,-7.94515 -0.33564,-0.49899 -4.8146,-6.6175 -2.58404,-3.30578 -7.89466,-10.78462 -1.09004,-1.45537 -0.19604,-0.27326 -0.12178,-0.25543 -0.15747,-0.50788 -0.55839,-0.20197 -0.30594,-0.15747 -0.30593,-0.27028 -0.66828,-0.84649 -0.92074,-1.0544 -3.59091,-4.69879 -2.7058,-3.32657 -5.12351,-6.33532 -5.24233,-6.7987 -2.4474,-3.19291 z"
      data-name="Nova Cidade" id="nova_cidade" />
   <path class="neighborhood"
      d="m 466.83193,645.01786 -8.80872,-11.43753 -0.36602,0.16859 -2.02597,-2.73593 -2.23508,-2.96519 -0.30868,-0.41115 -8.56816,-11.61886 -1.63836,-2.15567 -7.03879,-9.62953 -1.68298,-2.21861 -1.41708,-1.9574 -0.32278,-0.41582 -1.82349,-2.39294 -1.6891,-2.15096 -1.73092,-2.23176 -1.82396,-2.39813 -0.57367,-0.68314 -1.25026,-1.6299 -9.64552,-12.23063 -43.57183,32.39086 6.98147,9.41575 1.77696,2.4484 0.47878,0.68596 20.41584,27.52935 9.80901,13.41979 0.36414,0.50651 5.48735,7.43768 1.15112,1.06422 0.41913,0.49709 2.87546,3.72967 0.70054,0.89977 0.93876,0.81469 0.94815,0.6014 0.84151,0.39328 0.65825,0.10061 0.79405,-0.0786 1.50961,-0.69068 13.71065,-10.85256 8.92476,-7.18772 6.64459,-5.11007 0.34674,-0.30352 4.95126,-4.04303 2.55409,-2.06358 0.3618,-0.25231 2.87735,-2.25856 z"
      data-name="Pérola" id="perola" />
   <path class="neighborhood"
      d="m 596.62917,541.76751 v 0.005 l 3.77804,2.18602 v -0.004 z m 3.77804,2.19198 25.77199,29.12827 h 0.004 z m 40.75046,24.42056 -5.55714,1.47024 -0.004,0.004 z m -27.77683,22.82563 -11.65786,8.34908 -13.11619,3.92359 -2.49196,1.88307 -2.50977,1.90385 0.53166,0.50792 5.1146,6.46304 1.19696,1.51181 0.19901,0.2495 2.15633,2.68799 1.26232,1.4108 -3.30874,2.63454 -2.07316,1.60686 4.17006,5.59277 6.92937,10.1312 11.34301,-9.41539 8.01644,-11.27766 2.77116,-5.28686 -5.28094,-20.76138 z"
      data-name="Jardim das Copaíbas" id="jardim_das_copaibas" />
   <path class="neighborhood"
      d="m 596.56041,541.08804 -3.82556,3.75426 -4.41066,4.02754 -9.69161,7.73427 -0.47226,0.32375 -4.57998,3.67407 -5.48291,4.25919 -3.9889,3.184 -2.01672,1.76428 -4.85027,3.85228 -4.84134,3.60578 -3.14836,2.41769 -5.23936,4.1404 -2.43256,1.91871 -7.40459,5.84525 -1.72863,1.45835 -7.63328,6.02348 -4.72847,3.73346 -2.68799,2.13258 -2.35831,1.94842 -0.31779,0.25839 -0.33268,0.27028 -3.00875,2.31972 -0.0144,-0.0208 -0.52273,0.4188 0.0125,0.0179 -10.03022,7.94515 -0.72768,0.57621 -0.39204,0.30888 -10.82919,8.57781 -1.88604,1.4732 -1.17618,0.92075 -0.15747,0.12464 0.83166,0.17218 1.35736,1.72863 0.24058,0.33859 3.38597,4.40473 6.05317,7.82635 5.63734,7.30063 0.37425,0.48413 2.86618,3.69488 3.27906,4.31267 0.61778,0.69204 0.64156,0.62966 8.9461,6.97986 2.72957,2.18902 3.95622,3.21666 2.68504,-2.14445 1.98999,-1.61279 1.44944,-1.22073 1.77913,-1.43458 3.20775,-2.52462 6.6977,-5.38786 0.22573,-0.19307 9.47181,-7.57388 4.42256,-3.46617 6.45117,-5.06709 9.10945,-6.91152 8.34613,-7.12541 6.27592,-5.04628 2.07318,-1.60686 3.30874,-2.63452 -1.2623,-1.41082 -2.15635,-2.68798 -0.19899,-0.24951 -1.19698,-1.51181 -5.11459,-6.46304 -0.53167,-0.50788 2.50979,-1.90387 2.49194,-1.88309 13.11619,-3.92357 11.65786,-8.3491 3.25232,2.11477 0.2673,-0.0296 0.19901,-0.1277 26.40464,-20.71087 -2.34642,-4.07207 -5.56012,1.47319 -9.41835,3.23449 -25.772,-29.12827 -3.77805,-2.18604 z"
      data-name="Distrito Industrial" id="distrito_industrial" />
   <path class="neighborhood"
      d="m 671.29902,68.631178 7.52226,-0.862171 7.16238,-0.810481 0.77196,-0.08743 3.49472,-0.396541 2.98636,-0.420054 2.05605,-0.374461 3.52762,-0.81331 1.70648,-0.584959 3.90727,-1.339068 3.52058,-1.382301 1.85402,-0.728258 2.41032,-0.946753 0.54784,-0.21518 0.27392,-0.08743 2.51275,-0.802969 1.58855,-0.539855 0.55864,-0.1466 0.28897,-0.0587 1.76945,-11.098272 0.14061,-0.818482 0.58167,-3.252752 0.49334,-2.691763 0.53704,-2.928095 0.54831,-2.991997 0.58495,-3.191211 -3.04086,0.694908 -3.2128,0.733898 -0.46235,0.105691 -2.71758,0.618795 -3.10852,0.712761 -2.60202,0.594358 -0.6141,0.140521 -0.27673,0.06342 -2.77964,0.653087 -3.07749,0.685038 -2.68191,0.606112 -0.60281,0.136252 -0.52012,0.117403 -7.47999,1.715414 -3.42284,0.785116 -5.14388,1.17556 -0.6592,0.155048 -0.12967,0.03056 -5.10913,1.096149 -6.6911,1.604539 -2.50382,0.575561 3.03898,13.597405 0.17433,0.780889 1.78401,7.983188 0.49334,2.207338 z"
      data-name="Pedra Pintada" id="pedra_pintada" />
   <path class="neighborhood"
      d="m 710.6117,0 -10.73709,3.252316 -10.62125,4.0423761 -0.53761,0.2049404 -10.74007,3.3325095 -10.66878,3.736451 -10.66879,3.721601 -0.53165,0.184149 -10.53513,3.647344 -11.47368,3.742391 0.77519,2.099898 1.01876,3.240436 1.04848,3.267167 0.42769,1.37815 0.30296,1.16727 0.41285,1.410821 0.79005,2.815703 0.69502,3.213703 0.71582,3.33251 0.43067,1.877137 11.69348,-2.610765 11.20341,-2.488985 0.42473,-0.09802 1.77022,-0.406911 2.50382,-0.57621 6.69176,-1.603881 5.10866,-1.095986 0.13075,-0.0297 0.65936,-0.154456 5.1443,-1.176181 3.42162,-0.787088 7.4818,-1.713777 0.51979,-0.118802 0.60294,-0.136629 2.68206,-0.60591 3.07707,-0.683136 2.78007,-0.653433 0.27621,-0.06238 0.61483,-0.142565 2.60183,-0.594031 3.10679,-0.712837 2.71769,-0.617791 0.46334,-0.106928 3.21372,-0.733628 3.03846,-0.695014 0.16033,-0.03861 3.08897,-0.703925 0.10097,-4.327511 -0.40393,-4.33048 -2.52166,-7.755067 -0.37127,-0.463343 -2.88996,-2.554331 -3.18994,-2.4177028 -2.01674,-2.1147478 1.83852,-4.882929 -5.0136,1.4405234 z m -116.32597,66.379916 -0.24652,0.009 -10.72226,5.156182 -13.63001,6.555125 -10.06288,4.838376 -0.67125,0.320778 -0.1277,0.184149 -0.0534,0.19603 0.0237,0.21385 0.96232,2.013763 1.15837,2.426615 0.22573,0.472254 1.18507,2.488985 1.01284,2.12366 0.0802,0.109888 0.092,0.05049 0.20494,0.07129 0.15747,0.02079 0.17828,-0.05049 6.65313,-2.625614 3.16023,-1.241522 3.71271,-1.395972 10.54107,-3.959213 8.98767,-3.32954 1.31577,-1.306866 -0.59401,-2.135538 -0.72473,-2.598883 -0.13954,-0.490075 -0.71582,-2.569182 -0.76035,-2.723629 -0.67124,-2.408793 -0.10994,-0.196029 -0.18118,-0.133652 z"
      data-name="Said Salomão e Monte Cristo" id="said_salomao_e_monte_cristo" />
   <path class="neighborhood"
      d="m 166.0624,102.48045 -1.81455,3.1212 -0.80672,5.5381 -0.32326,4.88924 -0.23117,2.76365 3.20108,2.05136 3.97539,2.75377 3.73293,2.43758 3.50789,2.3732 7.26057,-13.11862 7.35782,-13.61526 -3.46232,-1.898664 -3.92981,-2.162247 -4.1746,-2.428161 -4.15251,-2.343608 -3.33545,-1.991684 z"
      data-name="Sítios de Recreio Jardim América" id="sitios_de_recreio_jardim_america" />
   <path class="neighborhood"
      d="m 288.00913,129.99616 0.81755,-2.55079 -0.65498,-1.15771 2.13358,-4.65761 2.45354,-5.31116 2.52028,-3.37304 0.80672,-2.618 0.90728,-4.02752 3.78086,-2.97086 1.00784,-1.61064 -2.92997,0.84384 -9.57787,-3.624869 -7.96486,-3.020661 -10.08151,2.719013 -13.23376,0.905403 -17.81853,0.302578 -6.45242,0.503676 -7.66228,0.80533 -6.14982,1.40953 -8.16646,0.70525 -6.35141,-1.1079 -6.95656,-2.214865 -1.99028,-1.932954 -43.21287,80.604809 15.03655,4.02941 12.80384,3.32276 8.06587,4.12856 4.53686,9.16298 -5.79839,12.06898 -7.71162,10.8892 0.10097,5.236 8.77113,2.51743 12.09813,-0.5032 11.49343,-10.17033 5.03348,-1.22443 11.19834,-1.69568 11.39242,-4.32965 7.96487,-8.55923 12.26492,-4.706 7.87323,1.85403 4.23476,-4.42173 5.44225,-4.94047 6.29173,-9.79209 3.3547,-10.37472 2.00298,-14.81479 -1.98228,-8.19228 -0.63901,-6.5088 1.10932,-6.19259 -0.16249,-5.40421 z"
      data-name="João de Barro" id="joao_de_barro" />
   <path class="neighborhood"
      d="m 52.198387,43.629673 -0.102337,-0.02814 -2.989641,-2.983053 -0.06539,-0.03375 -0.0733,-0.01932 -0.07239,0.01058 -0.06539,0.03955 -24.525128,24.585745 -0.114659,0.148879 -0.08926,0.203913 -3.566158,11.407906 -2.488306,8.052732 -0.781359,2.751891 -0.06341,0.07194 -2.186682,8.037741 -1.987,7.303313 -0.09352,0.34159 -0.900219,3.21846 -0.13063,0.53187 -1.380416,5.30317 -5.7396595,20.86408 -0.1992291,0.72357 -0.7338983,2.6678 -0.6324058,2.08236 -1.6557572,6.21046 L 0,151.11398 l 49.803896,18.02339 2.613291,-2.82942 0.209554,-5.22613 1.024737,-24.98136 0.530456,-15.46881 0.102337,-2.99058 -9.27e-4,-1.92169 0.02767,-0.68128 0.143247,-1.23099 0.376818,-1.02615 5.033012,-7.01248 5.034884,-7.014848 0.407826,-0.70946 -1.117286,-0.60517 -0.603755,-0.279553 -1.963035,-0.739083 0.150403,-0.605156 0.168679,-0.428507 0.280026,-0.513075 5.029728,-6.48437 1.903831,-2.454483 5.886728,5.504738 0.148879,0.09961 0.155981,0.06342 0.178076,-0.003 0.174777,-0.04319 7.943726,-4.129493 8.587419,-4.112582 7.123832,-5.191822 7.2197,-4.999192 L 83.999241,51.31292 83.470653,50.914492 83.070812,50.646677 63.990748,37.822635 61.152405,35.7304 l -0.147964,-0.05034 -0.18466,-0.0015 -0.134423,0.03011 -0.116039,0.05915 -8.189445,7.783504 -0.09018,0.06159 -0.09154,0.0174 z"
      data-name="Colina Park" id="colina_park" />
   <path class="neighborhood"
      d="m 795.75703,196.87945 -2.57511,1.29796 v 0.005 l -6.46306,3.22261 -43.52757,21.70288 13.19046,24.57207 30.51829,-16.72789 0.10689,-0.0891 0.20791,-0.12465 1.06925,-0.62074 4.19682,-2.34346 1.74348,-0.89403 2.80977,-1.61576 0.3386,-0.12178 2.87214,-1.6217 0.7544,-0.38019 3.8226,-2.14445 0.37127,-0.21088 2.37314,-1.13163 0.004,0.005 0.34157,-0.22277 -0.15442,-0.25839 -0.0979,-0.16034 -0.98312,-2.06128 -1.73754,-2.92264 -1.41082,-2.41769 -1.60686,-2.92857 -0.2673,-0.47522 -1.47915,-2.72365 -1.18805,-3.25231 -1.78803,-2.6464 -0.9356,-1.91871 -0.16626,-0.23466 z"
      data-name="Estados" id="estados" />
   <path class="neighborhood"
      d="m 761.68895,301.09682 -4.72849,0.15155 -4.00673,0.69204 -4.33939,1.17618 -4.75224,2.13258 -5.14727,3.22855 -4.41958,4.00376 -0.32079,0.37721 -1.59794,1.88606 -0.17827,-0.16034 -1.36627,1.76129 -1.18211,1.79694 -1.45242,2.66423 -1.97216,4.55027 -0.65641,1.81477 -0.4485,1.77318 -0.31781,1.46429 -0.2079,1.27717 -0.41284,3.88791 0.005,3.47213 0.0832,1.21181 0.0981,1.28904 0.20198,1.65438 0.26433,1.61577 0.17522,0.84945 0.11873,0.48414 0.51384,2.18307 0.78708,2.66718 -3.30578,1.26826 0.004,0.004 3.3028,-1.26825 0.33266,0.62968 v 0.004 l 1.42567,2.98501 0.27919,0.58513 3.03846,4.87104 2.77116,3.17212 2.53948,1.86524 0.41879,0.41287 3.22557,2.63748 0.43663,0.18416 4.83244,3.04737 0.19305,0.16339 -1.14649,1.34548 0.64751,0.48414 2.04643,1.44052 0.32079,0.20199 0.31483,0.20196 0.36236,0.21978 1.01282,0.63859 1.15242,0.71283 0.48413,0.3297 1.39894,0.81084 0.94451,0.57917 1.23855,0.80493 1.4524,0.90589 4.96907,2.24245 0.33859,0.15442 6.78085,2.98204 1.03065,0.57917 0.64453,0.26435 0.43959,0.31483 1.09893,1.12571 0.6564,0.37719 0.18416,-0.24058 0.84354,0.0296 0.49601,-0.40395 0.34157,-1.69891 -0.88511,-0.66829 3.30876,-5.04035 0.14258,-0.15747 1.98404,-2.19494 1.25936,-1.55932 0.45144,-0.22575 1.30391,-1.26232 2.34642,-3.35922 0.0802,-0.10995 0.18414,-0.23762 0.94153,-1.48507 0.70098,-0.72769 1.77613,-2.80382 4.02754,-6.35019 0.40987,-1.1435 0.9653,-1.01283 1.57419,-2.78896 -0.0743,-1.11679 1.36331,-1.88603 1.13163,-2.23951 0.66234,-0.64155 1.25638,-1.21479 0.67421,-1.39893 0.82273,-0.0506 1.32766,-1.28904 0.96234,-0.46929 0.38314,-0.83165 0.40989,-0.39799 0.53758,-0.91779 0.68909,-0.27324 1.42269,-2.01376 0.65938,-0.55839 0.65343,-0.27623 0.57325,-0.76629 2.97906,-3.02363 0.47522,-0.30592 0.52571,-0.73659 -0.76926,-1.00689 -2.3791,-2.41175 -2.2573,-2.13256 -1.46133,-0.76927 -16.55266,-14.66959 -3.01469,-3.21667 -1.45241,-0.59108 -3.54339,-2.71767 -3.36519,-1.83854 -4.34533,-1.85041 -4.14632,-1.18211 z"
      data-name="Centro" id="centro" />
   <path class="neighborhood"
      d="m 839.14897,248.88466 -1.82347,2.09365 -3.27956,3.61266 -3.12119,3.63569 -2.95628,3.42519 -3.12966,3.58869 -3.68548,4.27187 -2.89146,3.34861 -1.62145,1.87797 -1.40155,1.49929 -4.28127,4.90099 -1.22912,1.39169 -1.44712,1.63836 -3.0681,3.47358 -0.6221,0.72452 -0.0911,0.10564 -0.95895,1.10133 2.88955,2.34031 1.05574,0.90586 3.53045,3.19216 0.11174,0.10097 0.31008,0.28049 0.20394,0.18654 0.17486,0.1598 4.36865,3.65401 0.36883,0.30823 4.53309,4.12573 4.02237,3.26637 2.67624,2.62128 -0.27627,0.43885 0.18513,0.1659 3.03335,2.71668 0.43131,0.3862 2.12654,-5.38398 0.76256,-1.19342 0.007,-0.93218 0.4694,-0.93594 0.13236,-0.72639 -0.0583,-0.78042 0.054,-0.52761 0.28427,-0.65122 0.0967,-0.18466 0.17864,-0.9801 0.99794,-1.64259 0.56993,-0.33454 0.60235,-0.58542 1.43539,-1.78355 3.28143,-3.0573 2.04288,-2.2985 2.81298,-4.01626 2.89991,-2.96333 4.17179,-3.87907 3.16019,-3.11039 1.27046,-2.98541 0.94158,-1.29539 0.96225,-3.17051 0.70101,-1.15113 0.31715,-0.82366 0.16625,-0.72497 -0.85699,-0.40266 -0.60471,-0.80578 -0.20157,-0.95662 v -0.80532 l -0.30256,-0.70524 -0.38575,-0.40031 -1.02569,-0.45529 -0.48628,-0.29977 -0.42099,-1.00922 -1.46169,-1.1079 -0.50415,-1.05716 -0.70573,-0.6545 -0.81048,-0.80909 -1.41331,-1.41189 -0.29693,-0.29647 -1.04072,-1.55848 -2.08473,-2.67063 -2.06684,-1.91321 -1.05858,-0.65451 -1.3433,-1.05479 -0.77382,-0.90869 -1.66328,-1.46029 -0.84149,-0.38856 -2.04853,2.36521 z"
      data-name="Canarinho" id="canarinho" />
   <path class="neighborhood"
      d="m 785.54776,310.22099 3.01502,3.21564 16.55275,14.67101 1.4617,0.76821 2.25574,2.13356 2.38166,2.41221 0.76679,1.00688 0.71464,-0.72731 0.43555,-0.304 1.16946,-0.88895 0.55912,-0.63617 0.40029,-0.35334 0.5253,0.005 0.70431,-1.09005 8.39711,-7.40904 0.33689,-0.82928 0.97493,-0.16249 0.29928,-0.71277 0.70056,-1.3527 0.3101,-0.18229 1.29725,-1.12341 0.94392,-1.18732 0.35897,-0.49192 0.53233,-1.77413 0.51872,-0.78467 -0.43132,-0.3862 -3.03335,-2.71667 -0.18512,-0.16589 0.27627,-0.43886 -2.67625,-2.62127 -4.02237,-3.26639 -4.53309,-4.12573 -0.36883,-0.30822 -4.36865,-3.654 -0.17486,-0.1598 -0.20394,-0.18653 -0.31008,-0.2805 -0.11173,-0.10098 -3.53046,-3.19214 -1.05574,-0.90586 -2.88954,-2.34032 -6.59246,7.64583 -0.35239,0.4553 -5.17489,5.8059 -0.4567,0.5347 -5.41689,6.20479 z"
      data-name="São Pedro" id="sao_pedro" />
   <path class="neighborhood"
      d="m 786.89959,230.95373 -40.72077,22.32069 2.11771,1.96029 1.36329,1.15539 6.91154,6.25218 0.65345,0.57917 3.93248,3.30876 0.20792,0.16931 0.68313,0.60889 2.09098,1.81475 2.66719,2.32266 3.16321,2.81868 2.80384,2.49788 2.03454,1.74942 v 0.004 l 0.51978,0.32375 0.11586,-0.46929 1.2237,-5.22152 0.8168,-3.38895 0.73957,-3.28499 0.94155,-3.9711 0.96825,-4.21761 0.79304,-3.33548 0.95936,-4.03941 0.2287,-0.95936 0.18117,-0.70689 1.0455,-4.43145 0.30296,-1.13461 1.37814,-6.13633 0.88807,-3.53447 0.55245,-2.38207 0.27624,-0.53759 z"
      data-name="Trinta e Um de Março" id="trinta_e_um_de_marco" />
   <path class="neighborhood"
      d="m 807.56592,219.65527 -2.37316,1.13163 -0.37128,0.21088 -3.82257,2.14445 -0.75444,0.38019 -2.87213,1.62168 -0.33859,0.12178 -2.80977,1.61576 -1.74346,0.89401 -4.19685,2.34346 -1.06923,0.62077 -0.20792,0.12464 -0.2673,0.22277 -0.27625,0.53761 -0.55244,2.38205 -0.88807,3.53449 -1.37816,6.13632 -0.30296,1.13462 -1.04548,4.43145 -0.18118,0.70689 -0.22871,0.95936 -0.95936,4.03941 -0.79303,3.33548 -0.96826,4.21761 -0.94153,3.9711 -0.73957,3.28499 -0.8168,3.38895 -1.2237,5.2215 -0.14545,0.59405 -2.23058,9.06193 -1.7999,7.63328 -1.44054,6.31455 h 0.005 l -0.0981,0.36532 3.10679,0.88511 4.34533,1.85041 3.3652,1.83853 3.54336,2.71767 1.45242,0.59107 5.41755,-6.20465 0.45444,-0.53462 5.17697,-5.80664 0.35049,-0.45444 6.59373,-7.64519 v -0.004 l 0.95936,-1.09895 0.0891,-0.10689 0.62372,-0.72472 3.06818,-3.47209 1.44646,-1.63953 1.22964,-1.39004 4.27999,-4.90075 1.40191,-1.49991 1.6217,-1.8801 2.89293,-3.34738 3.68299,-4.27107 3.13054,-3.58794 2.95827,-3.42757 3.11866,-3.63544 3.28202,-3.61172 1.8207,-2.09396 h 0.004 l 2.04642,-2.36425 -0.73065,-0.6059 -0.32077,-0.22277 -0.59107,-0.41878 -2.15334,-1.63655 -1.39302,-0.90294 -0.72471,-0.70987 -1.09006,-0.59996 -0.79897,-0.53166 -3.05034,-0.93262 -0.98907,-0.4485 -5.01064,-1.51478 -5.2928,-1.81179 -1.79694,-0.35047 -0.61483,-6.30564 1.94842,-2.24245 2.189,-2.5187 2.28404,-2.62859 -2.64638,-1.53556 -0.87917,1.47616 -1.23856,1.39301 -1.86526,1.96623 -1.69001,1.30687 -0.65343,0.35345 -0.58215,0.0683 -0.54651,-0.13057 -1.34251,-0.36533 -0.55245,-0.12465 z"
      data-name="Nossa Senhora Aparecida" id="nossa_senhora_aparecida" />
   <path class="neighborhood"
      d="m 746.16443,253.25887 -3.2642,1.85932 -8.80056,4.81759 -2.61966,1.4435 -1.92764,1.09301 -0.19009,0.10098 -4.32752,2.37316 -7.47586,4.12553 -5.33439,2.9464 -6.13634,3.42458 -4.86808,2.68501 -2.99095,1.65142 -0.11281,0.0655 h -0.005 l -2.95531,1.72566 0.0773,0.0683 0.37127,0.3297 0.26732,0.23762 1.85932,1.66327 1.66922,1.47914 3.70972,3.3028 2.80976,2.50087 4.96311,4.41958 5.06411,4.50868 1.25638,1.11976 0.6653,0.59106 0.47822,0.40691 0.49897,0.44553 7.49963,6.62938 4.28001,3.87606 1.27419,1.13459 0.31483,0.27919 -0.0144,0.0208 0.17828,0.16033 1.59794,-1.88604 0.32078,-0.37721 4.41958,-4.00375 5.14726,-3.22857 4.75225,-2.13257 4.33939,-1.17617 4.00674,-0.69206 4.72847,-0.15155 7.00659,0.94453 1.03957,0.297 0.0981,-0.36532 h -0.005 l 1.44053,-6.31455 1.79991,-7.63328 2.23059,-9.06193 0.0296,-0.12465 -0.51977,-0.32376 v -0.004 l -2.03455,-1.74943 -2.80383,-2.4979 -3.16321,-2.81867 -0.19602,-0.17217 h -0.004 l -2.4682,-2.15039 -2.09099,-1.81477 -0.68314,-0.60888 -0.2079,-0.1693 -3.93249,-3.30576 -0.65342,-0.58217 -6.91156,-6.25216 -1.36329,-1.15244 z m -13.96566,61.32472 -1.25043,1.60687 0.004,0.004 z"
      data-name="São Francisco" id="sao_francisco" />
   <path class="neighborhood"
      d="m 660.49203,348.55121 2.90368,8.26462 1.74314,4.76989 1.55471,4.58901 1.2653,3.57084 1.16007,3.65682 0.26076,-0.24336 1.36162,-0.45999 0.0556,-0.0188 1.40953,-0.56945 3.26826,-1.32027 0.0244,-0.009 0.0357,-0.0143 9.53088,-3.79309 0.62254,-0.23915 4.09004,-1.54063 0.90068,-0.34769 9.85742,-3.86591 1.47156,-0.55396 4.25307,-1.61628 0.65686,-0.24478 9.19068,-3.61548 1.6238,-0.62866 1.22677,-0.452 7.47248,-2.86841 -0.78701,-2.66687 -0.51588,-2.18338 -0.11694,-0.48581 -0.17666,-0.84763 -0.26452,-1.61533 -0.20299,-1.65574 -0.0978,-1.28926 -0.0818,-1.21174 -0.005,-3.47172 0.41161,-3.88658 0.21048,-1.27705 0.31666,-1.46686 0.44965,-1.77039 0.65357,-1.81644 1.97382,-4.55 1.45326,-2.66451 1.17978,-1.79623 1.38277,-1.78259 -0.3134,-0.27911 -1.27611,-1.13609 -4.27843,-3.87484 -7.50018,-6.63048 -0.49946,-0.44637 -0.47875,-0.405 -0.66344,-0.5906 -1.25638,-1.12153 -10.0275,-8.92572 -2.81202,-2.50193 -3.70947,-3.30257 -1.6675,-1.47859 -1.86153,-1.66326 -0.26641,-0.23728 -0.45479,-0.40454 -0.37072,0.21425 -3.66247,2.11525 -0.34345,0.19594 -1.3278,0.77806 -1.04777,0.55724 -0.8584,0.49992 -0.33783,0.18182 -1.74972,0.94206 -0.85559,0.47829 -4.19856,2.27783 -8.03205,4.38133 -1.24322,0.67895 -1.74549,0.95283 -1.39451,0.76446 -3.78415,2.07438 -1.42269,0.75035 -3.48769,1.89912 -0.1856,0.1311 -0.2678,0.15137 -0.49382,0.27955 -2.78149,1.57213 -2.057,1.1328 -2.72183,1.48003 -2.03163,1.10931 -2.02317,1.1046 -1.036,0.58732 0.0888,0.25513 0.31761,0.91244 0.452,1.25403 1.17273,3.22457 0.80017,2.19889 0.30117,0.82739 1.20844,3.3223 0.90258,2.48127 0.0493,0.13487 1.16758,3.21094 0.0775,0.21284 1.6534,4.40342 2.32057,5.97694 0.0144,0.0348 2.26892,5.84349 1.45089,3.93731 0.55957,1.46407 z"
      data-name="Mecejana" id="mecejana" />
   <path class="neighborhood"
      d="m 609.26077,315.29414 -0.67719,4.90671 -1.02173,8.11741 0.0326,3.92655 0.34453,4.54432 -0.10689,0.23166 0.36829,8.77978 0.13362,0.57621 0.59998,5.55121 1.04844,8.04317 0.3297,2.35535 0.0655,0.26434 1.93655,-0.0386 2.09097,-0.0743 4.11366,-0.0861 3.80179,-0.14258 4.03941,-0.0802 3.51073,-0.10098 0.62075,-0.0536 0.36235,-0.0208 3.98297,-0.18415 1.59796,-0.47818 0.92075,-0.42176 1.8801,-0.78412 1.03658,-0.35345 0.86136,-0.17827 1.33953,0.0891 1.16429,0.1485 1.62763,0.13361 v 0.24356 0.66234 l 0.23466,0.0143 5.3225,0.30593 0.77523,-0.10689 0.65044,-0.29998 1.09303,-0.85839 0.99204,-0.83163 0.63262,-0.57027 0.91482,-1.05144 2.69095,-3.04736 1.00688,-0.62078 1.9811,-0.8762 0.12465,-0.0445 0.11873,-0.0445 0.17236,-0.0655 -1.48211,-4.22355 -0.55839,-1.4643 -1.45242,-3.93842 -2.26919,-5.84229 -0.0126,-0.0355 -2.32265,-5.97595 -1.65141,-4.40474 -0.0802,-0.21088 -1.16728,-3.21074 -0.0475,-0.13649 -0.12465,-0.34157 -0.5673,0.0144 -0.005,-0.0179 -0.12464,0.0126 -2.13257,-0.35939 -2.30186,-0.4069 -0.35643,-0.0655 -4.12257,-0.75739 -0.5673,-0.11281 -2.18307,-0.43066 -1.4108,-0.24653 -4.16119,-0.81086 -4.06318,-0.77817 -0.90589,-0.18119 -2.24247,-0.38907 -0.34453,-0.0595 -2.2187,-0.48114 -1.78803,-0.32079 -2.72957,-0.53462 -5.24529,-1.01877 z"
      data-name="Liberdade" id="liberdade" />
   <path class="neighborhood"
      d="m 572.67149,307.94599 -0.7277,8.85106 -0.0504,0.43659 -0.78116,8.61347 0.0475,7.0244 -0.009,3.66219 0.0981,3.42162 0.297,8.88668 0.70989,5.58686 1.22962,8.93126 0.0447,0.33266 0.85243,5.44427 0.72768,5.61954 0.78114,5.87198 0.72176,5.58686 0.78116,5.90762 0.73065,5.81258 0.42176,0.57325 0.14259,0.16626 0.7158,0.16034 2.53056,1.28906 10.98067,3.97703 1.55041,0.12178 7.97189,-0.84648 12.6469,0.35939 0.52869,-0.0891 -0.10098,-0.67124 -0.21681,-0.58809 0.0802,-1.22074 -0.16034,-1.1732 -0.46335,-4.00971 -0.60888,-4.96016 -0.31187,-2.34642 -0.40987,-3.28795 -0.46037,-3.68893 -0.25247,-1.61278 -0.0534,-0.55839 -0.69204,-5.41162 -0.84058,-6.03238 -0.74548,-5.49478 -0.0655,-0.26435 -0.32969,-2.35533 -1.04847,-8.04317 -0.59996,-5.5512 -0.13361,-0.57622 -0.36832,-8.77977 0.1069,-0.23167 -0.34454,-4.54434 -0.0326,-3.92652 1.02172,-8.11744 0.67719,-4.90669 -0.50194,-0.10098 v -0.004 l -3.39786,-0.69502 -1.54745,-0.32375 -2.34048,-0.45741 -3.93544,-0.77818 -3.9414,-0.79599 -0.7871,-0.15747 -3.83445,-0.70987 -2.11772,-0.42472 -1.76427,-0.35644 -3.93248,-0.78708 -4.01861,-0.8049 -0.55245,-0.14563 -2.93749,-0.62966 -0.17217,-0.0326 -0.36236,-0.0536 z"
      data-name="Buritis" id="buritis" />
   <path class="neighborhood"
      d="m 661.97503,352.77449 -0.17236,0.0655 -0.24354,0.0891 -1.9811,0.87619 -1.00689,0.62077 -2.69095,3.04737 -0.91481,1.05144 -0.63262,0.57026 -0.99204,0.83163 -1.09303,0.85839 -0.65045,0.29998 -0.77522,0.10689 -5.3225,-0.30593 -0.23464,-0.0143 v -0.66236 -0.24356 l -1.62766,-0.13361 -1.16428,-0.14851 -1.33953,-0.0922 -0.86137,0.18118 -1.03657,0.35047 -1.88011,0.78709 -0.92075,0.4188 -1.59793,0.47818 -3.98299,0.18714 -0.36236,0.0179 -0.62075,0.0534 -3.51072,0.10402 -4.03941,0.0802 -3.80179,0.14259 -4.11364,0.0832 -2.09099,0.0773 -1.93655,0.0386 0.7455,5.49479 0.84056,6.03238 0.69204,5.41162 0.0534,0.55839 0.25245,1.61278 0.46038,3.68893 0.40988,3.28795 0.31186,2.34642 0.60889,4.96016 0.46335,4.00971 0.16034,1.1732 -0.0802,1.22074 0.21682,0.58809 0.10097,0.67124 3.21668,-0.20493 2.60482,0.27326 4.39286,2.70878 3.08895,4.27701 2.21872,4.93344 7.34815,7.90058 12.07068,12.27861 0.48414,0.49305 0.20197,0.14545 21.31381,-23.4939 0.9356,-1.07521 1.53853,-1.5504 0.66828,-0.78414 0.24951,-0.28215 2.34344,-2.78899 -1.99,-3.1513 -0.62374,-0.89998 -2.87509,-12.837 -0.74254,-3.28795 -0.48414,-2.26027 -0.89996,-4.08397 -1.03361,-4.06613 -0.57918,-1.73457 0.0565,-0.75443 -1.15835,-3.65625 -1.26528,-3.57012 -1.55636,-4.58889 -1.74348,-4.77006 z"
      data-name="Pricumã" id="pricuma" />
   <path class="neighborhood"
      d="m 717.73222,354.32282 -1.62378,0.62865 -9.1907,3.61548 -0.65686,0.24478 -4.25305,1.61629 -1.47158,0.55395 -9.8574,3.86591 -0.9007,0.34769 -4.09002,1.54063 -0.62256,0.23915 -9.53088,3.79309 -0.0357,0.0143 -0.0244,0.009 -3.26828,1.32026 -1.40953,0.56946 -0.0556,0.0188 -1.36163,0.46 -0.26076,0.24337 -0.0574,0.75317 0.57839,1.73655 1.0346,4.06513 0.90071,4.08486 0.48394,2.25951 0.74188,3.28892 2.87595,12.83672 0.62394,0.89977 1.9903,3.1508 3.03663,1.60875 3.55861,1.51151 30.63128,16.09935 5.55879,2.90224 0.38761,-0.50601 2.61518,-2.97696 0.62396,-0.70194 2.2097,-2.5931 0.64275,-0.56664 2.20547,-2.64102 0.30633,-0.32514 2.52638,-2.73875 0.22223,-0.18652 2.74674,-3.03851 0.31573,-0.40831 2.58465,-2.92244 2.46811,-2.79701 1.59465,-1.9104 0.4581,-0.5375 3.08738,-3.60892 2.84399,-3.18369 2.63116,-2.87875 2.40795,-2.76412 0.66485,-0.84291 2.16601,-2.43005 1.48895,-1.73046 0.86968,-1.01064 1.97664,-2.81956 -4.96864,-2.24306 -1.45278,-0.90679 -1.23851,-0.80487 -0.94392,-0.5779 -1.39875,-0.81237 -0.48346,-0.32984 -1.15254,-0.7132 -1.01252,-0.63761 -0.3632,-0.21987 -0.31526,-0.20157 -0.3195,-0.2011 -2.04713,-1.44196 -0.64886,-0.48301 1.14736,-1.34753 -0.19404,-0.16213 -4.83051,-3.04744 -0.4365,-0.18371 -3.22502,-2.63818 -0.42145,-0.41206 -2.53766,-1.8653 -2.77257,-3.17194 -3.0371,-4.8714 -1.70461,-3.57273 -0.33217,-0.6324 -7.47248,2.86841 -1.22677,0.452 z"
      data-name="São Vicente" id="sao_vicente" />
   <path class="neighborhood"
      d="m 746.15617,442.80226 2.38731,-3.88094 11.1786,-12.73853 8.77584,-12.96121 0.60845,-1.16054 2.06075,-2.62927 1.63976,-3.03005 0.1146,-1.89679 -0.98009,-1.89582 -0.29037,-0.78277 0.13362,-0.86452 -0.25936,-1.12295 0.15872,-0.7837 0.10564,-0.52154 0.007,-3.72447 0.38528,-1.83665 0.0507,-1.01064 -0.4285,-1.71071 0.40312,-0.75786 -0.15137,-0.7325 -0.60235,-0.86217 -1.09756,-1.12388 -0.4412,-0.3148 -0.64274,-0.26405 -1.0332,-0.57932 -6.78085,-2.98354 -0.33829,-0.15263 -1.97665,2.81956 -0.86969,1.01064 -1.48894,1.73046 -2.16599,2.43005 -0.66486,0.8429 -2.40797,2.76413 -2.63113,2.87875 -2.84401,3.18369 -3.08737,3.60892 -0.45811,0.53749 -1.59466,1.9104 -2.4681,2.797 -2.58463,2.92246 -0.31573,0.40831 -2.74675,3.03851 -0.22223,0.18652 -2.52638,2.73875 -0.30635,0.32514 -2.20546,2.64102 -0.64274,0.56662 -2.20972,2.5931 -0.62394,0.70196 -2.61517,2.97696 -0.38763,0.50601 18.37529,9.8189 6.70426,4.38367 z"
      data-name="Calungá" id="calunga" />
   <path class="neighborhood"
      d="m 678.29007,406.4778 -2.34344,2.78898 -0.24952,0.28216 -0.66827,0.78411 -1.53854,1.55043 -0.9356,1.07519 -21.31381,23.4939 0.897,0.66531 0.57026,0.47819 0.67124,0.99797 -0.004,0.009 0.93262,1.49992 5.33439,7.12242 3.13947,3.80179 7.87386,4.18198 0.78114,0.40691 1.74052,0.90294 3.41567,0.54947 11.99941,-0.20197 4.54434,0.65937 2.51274,1.95733 4.99282,5.03441 2.56621,5.03739 7.16104,7.04815 2.22761,0.96234 1.60092,0.0447 1.5237,-1.05144 1.71376,1.10787 4.93046,2.56027 2.63453,0.0951 1.39893,-3.11868 2.16228,-4.95125 0.4485,-0.71281 0.13361,-0.74848 0.84648,-2.29295 -0.13057,-0.34753 2.79195,-4.91559 1.47913,-2.1593 2.67908,-4.79976 1.4138,-0.35047 0.46333,-1.01285 0.59998,-1.37814 -0.10098,-1.01281 6.96799,-9.71835 -6.70364,-4.38394 -18.37335,-9.8193 -5.56014,-2.90187 -30.63117,-16.09821 -3.55823,-1.51179 z"
      data-name="Treze de Setembro" id="treze_de_setembro" />
   <defs id="defs6" />
</svg>