<?xml version="1.0" encoding="UTF-8" standalone="no"?>
<svg version="1.1" id="svg2" width="1000" height="782.81213" viewBox="0 0 1000 782.81213"
   xmlns="http://www.w3.org/2000/svg" xmlns:svg="http://www.w3.org/2000/svg">
   <defs id="defs6" />
   <path class="neighborhood"
      d="m 935.12875,108.11889 -39.64354,-21.623758 -10.81186,36.039598 -14.41583,-10.81188 -33.44112,3.11166 -56.65784,11.30417 -43.2475,39.64353 27.89355,29.06592 17.39956,39.06332 -4.42602,30.08294 17.31052,18.20218 23.3151,-4.90104 22.6653,13.97616 4.64081,37.72334 37.66606,8.72808 27.0895,-16.95484 17.45542,10.79602 v -50.4554 L 967.5644,273.90098 1000,237.8614 981.98023,187.40597 935.12875,162.17826 Z"
      data-name="São Gonçalo de Botelhos" id="sao_goncalo_de_botelhos" />
   <path class="neighborhood"
      d="m 455.80364,0 -18.02192,18.019048 -43.24803,-7.207049 -14.41409,7.207049 -39.64308,54.060033 v 25.228965 l -21.62401,28.831064 -28.83107,10.812 -21.624,28.83107 -50.45508,3.60495 25.15755,41.80263 24.60624,40.87995 38.53187,25.51176 7.25277,18.77032 -8.02688,38.1548 -1.6168,7.69839 -25.13756,-6.91283 -35.27257,13.31148 -17.96192,6.77856 -1.17689,2.72801 -7.84405,18.15618 -17.32493,40.10297 -1.55968,3.6078 -1.30259,3.01651 2.25954,4.05914 19.89866,35.76389 14.13417,25.40892 0.39134,0.70271 0.89123,-0.8341 7.5127,-7.04709 20.35001,-19.09025 1.67392,-1.56825 1.21403,3.77921 2.59089,8.08402 2.59373,8.08971 32.98733,9.51227 -1.13691,57.34221 -41.93971,25.36036 5.74734,3.20504 2.67088,1.1426 1.80533,-0.68555 0.8227,-3.12791 1.19117,-1.03122 6.07585,-0.19149 4.81043,-2.44234 1.43111,1.374 -0.9855,2.29095 -4.42765,5.06463 -2.46519,9.64941 -1.27116,3.09078 -4.14768,3.43355 -1.51969,4.57903 1.55966,5.07323 -1.80533,2.21381 -6.49004,2.13384 -3.28503,-0.41991 -2.87369,1.37399 -0.77983,1.67965 1.64251,2.63088 3.03936,1.90817 14.98542,-1.60253 7.10421,-1.94531 10.63489,2.63375 3.98488,2.40233 1.76534,0.57132 2.42234,-6.9414 v -1.87103 l 2.33953,-0.64843 3.90202,1.2226 3.11934,0.37991 1.80819,-0.91409 2.748,0.27995 1.60253,2.00813 2.91651,7.70696 0.24566,3.20218 -0.79697,2.43092 -0.0399,2.21381 2.17382,1.71679 3.65637,-1.06835 2.42235,-1.75392 2.33952,-0.80269 4.88755,-1.06835 4.679,-3.8906 0.98551,-4.23339 2.05384,-2.51947 4.72187,-4.95895 7.96689,-1.02836 7.26703,2.21096 2.25955,-3.20217 4.719,-4.17056 1.19402,0.0117 5.13035,3.85348 1.02834,1.06834 4.67903,0.83983 -0.657,3.85061 -0.49133,5.15034 0.86267,4.082 0.86268,0.99121 0.24565,1.45113 -1.39683,2.09669 -3.36787,0.64844 -4.43334,-0.0743 -10.46924,-4.19625 -0.39419,1.85103 1.13118,7.26418 0.24853,7.13278 -1.10833,3.58782 -4.72474,4.8047 -1.14832,2.63372 0.16284,2.51663 -2.87367,7.05565 -1.27116,1.56538 -0.37134,1.374 1.6025,2.93652 -1.93102,2.17383 -3.69349,1.44827 -6.57006,-0.53132 -7.18706,1.41113 -2.79083,2.74513 -1.97102,0.0371 -4.02486,1.56538 -2.29952,3.77635 0.28851,3.50783 -3.28501,5.41599 2.37948,6.33296 -0.88552,3.0165 0.0572,2.40236 2.72799,2.6423 4.33623,9.80078 1.60252,0.91696 -0.0829,1.33401 -4.88753,4.15912 0.28852,2.51661 2.25952,0.87696 v 1.1826 l -2.38236,3.20219 -1.93103,0.11423 -4.22768,1.6425 -1.31399,2.2881 0.08,2.32522 2.01387,1.90817 3.44783,1.14262 4.39336,-1.06835 1.39685,1.03121 -2.5052,4.042 -1.68248,2.40236 1.06833,1.75391 1.76534,0.49704 5.5417,-2.36522 5.4617,-0.5713 7.59554,-2.70801 2.58802,-0.26566 0.77983,-2.25095 -0.49131,-4.38765 1.63965,-1.10548 2.01387,0.6113 4.22767,5.41599 1.10834,3.16506 1.68537,12.27456 2.73084,4.31623 -1.51111,2.4252 -4.12199,0.48561 -7.48984,-0.8084 -9.52371,0.3942 -1.45396,2.61659 -0.98553,4.27053 0.28851,6.84999 -1.41397,4.11912 -1.31401,1.97387 2.32237,3.34501 2.20809,-0.75412 2.90224,0.43134 3.36787,1.34828 8.12973,-1.61966 3.48497,0.43134 1.74248,1.88818 4.47049,0.91694 3.48497,-0.32278 3.01938,-1.45683 5.5731,-16.98786 2.20812,-0.70271 5.2846,0.75699 3.01936,2.69657 1.27686,3.23361 -1.27686,5.1789 -0.98838,1.72535 0.52276,1.61966 2.09098,0.69986 16.95644,-7.38988 2.32235,-1.99386 -0.57987,-7.22704 -0.95123,-4.15912 -2.43948,-4.90754 0.84267,-2.29381 3.99631,-3.38499 2.75084,-0.9141 1.35686,1.98243 v 2.55376 l -1.39685,1.03121 -0.57416,1.94529 0.94267,3.08793 1.43682,5.11035 1.60253,0.6113 1.51967,-0.99121 4.8447,-7.62983 5.7902,-6.10156 6.89568,-3.4707 5.79022,-4.2334 0.8227,-3.50783 -0.20568,-1.83104 -3.40786,-4.07915 -5.09322,-8.62104 1.02838,-2.5166 3.73634,-4.53905 1.354,-2.97366 0.28851,-2.86225 2.46234,-2.89939 5.37887,-1.334 2.34236,1.63965 2.37949,-0.11423 4.68187,0.72557 10.6349,0.5713 2.58803,-0.60845 4.18769,0.53133 2.95653,1.41113 1.31401,-0.91409 2.01101,-8.58106 -2.1767,-5.68451 -0.0399,-1.98244 2.48806,-4.63902 -1.81107,-3.31644 -46.85296,-18.01906 46.85296,-54.06003 -28.83392,-28.83106 39.64307,-39.64307 21.62402,14.4141 46.85298,-10.81202 61.26708,14.41697 36.03812,-14.41697 43.24801,-3.60495 39.64307,-18.01905 54.06003,-57.66213 82.8911,-36.04096 3.60495,-46.85014 32.43601,-18.02191 18.01907,-36.03812 -17.45632,-10.79486 -27.08859,16.95358 -37.66633,-8.72674 -4.64188,-37.72347 -22.66379,-13.97706 -23.31507,4.90182 -17.31066,-18.20187 4.4248,-30.08508 -17.3992,-39.06319 -27.89412,-29.06532 -43.24517,-10.81199 -68.47697,-50.45508 -75.68406,3.60495 -61.26708,-7.2099 z"
      data-name="Sede" id="sede" />
   <path class="neighborhood"
      d="m 156.67379,86.495132 v 21.623758 l -36.03957,43.24749 14.41583,32.43563 -22.78965,29.24467 29.84296,17.60679 -7.20791,21.62374 -57.663341,32.43564 v 25.22769 L 30.380646,317.14846 8.7569032,345.98014 26.776694,385.62366 0,402.07681 l 11.534829,8.80124 5.980421,2.38293 6.275212,-1.04334 5.227538,-2.48997 5.331692,-5.45171 3.073459,-3.21258 1.684486,-11.06991 1.782885,-2.74622 4.060582,-1.62359 8.131594,-0.62418 14.847952,5.45279 3.383771,-0.5615 3.49007,-2.9495 3.418348,-2.88857 7.061595,-9.46111 2.910199,-2.55701 1.545016,-0.70169 5.214201,0.42239 5.64415,0.74277 2.6446,0.77559 2.97578,5.14212 3.35745,3.43169 0.90604,3.34482 -2.09823,2.42115 -4.95941,1.8463 -5.188615,0.65341 -0.894495,2.11947 6.63307,14.0313 2.98085,2.85505 5.74218,1.79765 4.03139,3.77118 3.90561,6.97547 0.6833,3.19346 0.74783,3.49622 6.46946,8.92015 2.90335,24.28492 0.0581,6.04418 4.47142,2.10473 2.68639,6.01571 1.43655,3.58955 -2.55521,5.45027 -4.99364,4.47899 -3.94887,1.99658 -1.56771,1.78073 v 2.69828 l -7.20071,6.52929 -6.8522,4.37052 -3.1358,4.26312 -2.20635,0.43139 -1.10354,-0.80908 -0.23209,-3.02192 1.21922,-3.18373 -0.46455,-1.6189 -3.19383,0.21588 -4.81957,3.34555 -1.509702,3.83135 0.40653,3.34555 4.471072,8.36373 4.00688,4.47827 2.7873,0.43174 1.74215,0.26996 2.32276,1.78034 7.37478,7.87789 2.32274,1.29491 5.16808,-1.02498 6.21322,1.29493 2.20671,5.28771 3.19382,2.75199 0.29048,2.26618 -1.45167,2.42796 -5.34251,2.48169 -0.17414,1.34896 1.04515,1.78072 8.30389,6.04277 2.20671,0.53951 0.69664,1.40301 -0.17414,2.104 1.91624,0.37769 2.43878,-2.26581 0.98715,-2.2121 6.03951,-7.28396 2.20634,-0.70171 5.51657,1.1331 2.38078,2.42798 1.45202,3.56107 -0.46455,3.66883 -8.59435,10.68285 -2.61323,1.45672 -0.23208,1.99659 3.83245,4.26205 0.81303,2.10436 3.25187,1.8881 6.32962,-1.45671 3.65838,-1.02498 3.30989,-2.15804 1.8582,-2.21212 -1.56809,-3.83065 -1.74181,-1.24084 0.0581,-1.61888 0.92908,-1.51043 4.23898,-1.18714 3.0194,-2.15806 3.01976,0.91722 1.97426,-0.48583 2.03262,-3.1293 0.69664,-6.9059 2.61323,-4.85597 5.45857,-5.88131 6.75886,-1.78973 2.12561,-0.31462 2.47339,-1.05885 3.40791,-3.31924 1.39616,-0.11422 4.18819,2.02183 4.39357,4.04435 1.06748,1.90758 1.43726,0.64872 10.63493,-1.10641 8.4174,-3.01399 3.57225,-3.1668 5.50217,-1.10642 2.29931,1.22064 2.42258,4.84554 -0.0817,1.71692 -2.54583,4.12041 -2.42257,0.72476 -4.68119,4.31142 -1.31401,6.52386 1.27293,5.72275 0.82133,1.06822 3.49008,-0.30527 h 5.09166 l 41.93963,-25.36033 1.13739,-57.34114 -32.98701,-9.51337 -2.59377,-8.08836 -2.59269,-8.08403 -1.21202,-3.77983 -1.67331,1.56952 -20.35191,19.09017 -7.51171,7.04571 -0.89056,0.83541 -0.39209,-0.70492 -14.13583,-25.40718 -19.89708,-35.76423 -2.25895,-4.06061 1.30283,-3.01614 1.55834,-3.60685 17.32422,-40.10194 7.84402,-18.15857 1.17741,-2.72531 17.96285,-6.77977 35.27338,-13.31302 25.13509,6.91566 1.61924,-7.69988 8.02423,-38.15439 -7.25153,-18.76975 -38.53207,-25.51208 -24.60532,-40.88006 -25.15923,-41.8041 -10.07773,-10.07738 -8.19325,-8.1936 -10.56067,-10.56069 -3.60395,-36.03958 -28.83168,-18.01979 z"
      data-name="Palmeiral" id="palmeiral" />
</svg>