<?xml version="1.0" encoding="UTF-8" standalone="no"?>
<svg version="1.1" id="svg2" width="1000.0007" height="1286.8508" viewBox="0 0 1000.0007 1286.8508"
   xmlns="http://www.w3.org/2000/svg" xmlns:svg="http://www.w3.org/2000/svg">
   <defs id="defs6" />
   <path class="neighborhood"
      d="m 657.63974,606.63249 -0.005,0.005 -24.1741,1.00022 5.34384,7.28793 2.25399,3.07106 3.46553,4.77566 1.33831,2.10373 0.71847,1.90651 -0.01,0.01 0.85933,2.43241 -0.90628,0.2349 -7.23626,1.85487 -6.73384,-0.0469 -6.74319,0.60107 -6.5225,1.90182 -5.35795,2.35262 -9.63114,-1.5966 -6.53191,3.43266 -7.21748,2.33382 -4.89775,2.35731 -2.81279,2.362 -2.54044,-0.67151 -2.08965,-1.10351 -4.88366,1.27257 -1.25379,-3.4843 -8.79528,2.84097 -15.21447,6.9639 -11.24652,13.16712 -11.43903,6.64459 -26.43281,8.26935 -21.83559,4.64417 17.50133,15.29431 10.77223,3.99146 4.39999,2.63904 2.76584,2.84098 2.74707,5.23115 0.911,2.61557 3.69561,2.85038 8.57457,2.88793 -23.07059,12.67405 -28.09983,15.43987 -10.65015,4.85548 -8.38205,1.67173 -23.93464,0.0375 -20.10753,1.15049 -9.03476,-3.32467 -6.22666,0.14546 -3.76606,0.42733 -10.55152,-3.33875 -8.59337,-0.28173 -13.98418,5.32506 -10.59379,3.39039 -4.90713,3.00533 -3.9445,-0.24889 -4.16051,-3.28708 -8.35857,-0.71844 -2.37608,0.61513 -2.50758,0.65273 -4.44695,3.43735 -3.39508,3.23073 -15.65118,18.07894 2.30564,3.08046 14.19549,0.7936 3.89284,4.64886 0.41322,7.6401 0.66214,2.97715 1.09411,1.91122 -1.91589,1.50735 0.0192,2.13191 4.26851,39.71731 0.16902,1.5778 14.31758,132.86374 0.84996,7.89368 6.12334,-3.69091 2.47002,-0.62924 1.59189,0.38504 1.09411,1.08475 6.59295,3.26829 3.91164,0.77482 4.69113,-1.54964 h 8.34447 l 5.48004,-0.51654 3.39037,0.25827 6.25486,-2.06146 2.86913,1.54493 3.78484,-1.67642 2.08027,-0.47898 0.22071,0.0705 h 0.005 l 0.64802,0.25357 1.09413,0.70438 3.381,2.0286 2.73766,1.54962 3.39039,-1.42285 6.12804,-1.93466 5.99657,-2.70951 3.78484,-1.29135 3.91164,-1.02838 h 3.39037 l 6.64931,0.51653 3.52186,2.06147 3.64397,-0.25827 -4.84142,-8.55579 -2.01919,-6.61641 0.43671,-5.79935 3.64397,-10.3637 13.39718,-19.19655 2.28218,0.64333 8.23179,4.184 1.41813,0.73724 2.038,0.92038 2.15068,0.48366 2.21645,0.29116 2.46059,0.0144 11.39208,-1.43691 3.87406,0.16445 3.75666,1.14109 4.74279,1.77502 2.52636,0.90628 1.22091,0.20653 1.0284,0.0192 1.17395,-0.25826 1.08004,-0.31462 6.13744,-1.77971 3.68622,-1.00022 1.9065,-0.38976 2.01922,-0.22528 3.40915,-0.22528 0.76543,0.0469 7.34896,-0.54471 -0.47426,-1.33363 -0.61984,-0.67619 -1.89714,-2.31505 -0.0611,-0.14089 0.0192,-0.13608 0.0892,-0.19258 0.16902,-0.20196 -1.29136,-0.91097 -0.66211,-0.46958 -1.31013,-1.04249 -1.57311,-1.0002 -0.72784,-0.39446 -1.85955,-0.73725 -0.96265,-0.55411 -2.80342,-2.24459 -0.88282,-1.08942 -0.81237,-1.42754 -0.25827,-0.54002 -0.3428,-0.72786 -0.5588,-1.44631 -0.28176,-0.50245 -0.23008,-0.41324 -0.65271,-0.82647 -1.28198,-1.15048 -0.54471,-0.25827 -0.50716,-0.33809 -0.44139,-0.48838 -0.41794,-0.61515 -0.72315,-1.18804 -0.62925,-1.06596 -0.80297,-1.36649 -0.84056,-1.09882 -0.82646,-1.07533 -0.88282,-1.15048 -2.99593,-3.91162 -1.11762,-1.019 -1.77034,-1.70929 -1.57308,-1.13168 -0.63865,-0.4602 -1.17864,-0.51185 -0.64802,-0.28173 -2.3714,-0.66682 -2.39957,-0.67149 -1.42282,-0.39916 -1.91122,-0.90159 -0.34278,-0.3334 -2.11313,-2.02391 -1.89711,-1.49798 -3.92102,-2.53104 -0.58228,-0.31462 0.0375,-1.28667 0.0375,-1.38995 0.0469,-1.74215 0.0423,-1.48389 0.0423,-1.5778 0.0469,-1.64822 -0.13609,-2.56862 -3.91632,-9.08643 -4.01024,-4.05719 1.22562,-4.87898 -4.29669,-15.61831 -1.76564,-1.64355 -1.34769,-3.15089 -3.39508,-14.02645 -2.08027,-0.60575 -3.42795,-22.35213 7.08602,0.60576 7.00617,-0.66683 8.38674,2.0474 6.24546,0.69498 6.16561,1.42284 13.6179,6.43797 5.60212,1.15049 7.80448,-1.08945 2.2352,0.3334 7.52741,4.57376 6.91697,5.94961 1.82198,-1.74215 0.75133,-2.51229 -0.55411,-8.81406 -1.13169,-8.63563 2.84567,-9.17563 1.92997,-1.06127 2.35731,0.27236 12.91354,3.33404 1.80788,1.96755 3.21196,4.81793 6.67277,3.78482 19.22002,-6.3018 1.7891,-0.49775 -0.73255,-11.8335 -3.37631,-7.11885 -2.54513,-5.46126 -3.71908,-7.84673 -0.13608,-0.29113 11.33572,-9.6969 27.72885,-23.65288 10.62196,-36.08273 0.0144,-1.74684 1.16455,-4.93533 2.32444,-4.08066 1.94878,-2.89733 5.8463,0.0375 3.63458,5.68664 40.50619,65.52087 39.37453,63.77403 1.23968,3.35282 12.59892,67.58705 29.54145,-10.76283 24.75171,8.25525 0.81237,0.60578 -0.80769,-0.61047 -3.34341,-2.49817 -4.12296,-4.88837 -4.91183,-2.94426 -3.6064,-3.91164 -3.85995,-5.61151 -2.55453,-5.35795 -4.94001,1.42285 -3.11333,-1.72807 3.57821,-9.6781 3.40918,-4.34364 2.9067,-6.53659 0.80769,-4.11824 0.0375,-4.85548 4.7193,-6.02946 0.16446,-3.88344 1.18335,-3.98675 2.27277,-7.64012 3.18378,-8.47128 4.19337,-5.06679 2.10842,-4.11356 0.0423,-6.55536 1.4698,-4.8414 0.82178,-5.81344 3.67682,-6.04821 0.0469,-5.82284 -1.50266,-8.02048 0.52593,-1.2115 2.09433,-1.68111 2.97715,-7.71524 0.19715,-0.51655 -1.9206,-3.16969 -9.3259,-2.73297 -4.65357,-4.1652 -4.1417,-2.22113 -1.05658,-2.81748 -0.2159,-0.58229 3.1415,-2.88793 0.0192,-2.67193 -1.53085,-3.40917 1.45571,-3.1462 -1.27726,-4.3765 2.35731,-2.16949 0.5588,-5.33446 -1.80789,-1.71398 -4.35773,-8.27874 -3.87875,-2.21642 -4.92593,-1.00491 -1.91591,-4.14642 0.79832,-2.65784 0.0281,-3.63926 -1.07065,-2.79871 -34.04004,-23.15512 z m 196.65186,267.64809 -10.91781,1.01428 -2.22582,2.77524 -0.0329,4.00553 1.65762,4.01495 -0.17383,6.31119 -0.93917,4.24502 -2.49349,2.64844 -3.71439,2.27749 1.26317,5.23115 -0.71378,0.3428 4.04313,4.07128 2.77993,6.31588 1.65294,7.07661 -0.0611,5.27811 5.4143,1.07535 0.67151,2.50287 -12.23734,8.77649 -9.9129,4.39062 -1.84075,6.06231 0.7936,3.62048 -8.70137,2.7142 -7.00619,-1.03778 -6.35815,1.61535 -5.33446,2.54513 -2.69539,1.77974 -8.02986,-0.88751 -2.53106,2.52166 -6.42388,1.86424 -0.73256,2.54513 -1.75624,3.66275 -5.35324,2.46531 -4.22624,-3.43735 -3.22135,-0.0423 -4.1417,-0.92977 -5.28282,0.50246 0.84524,3.45144 -5.31568,3.69091 -2.64375,-2.32913 -1.05655,-4.55495 -4.41878,4.37182 -6.0811,3.52186 -1.38995,1.3712 -5.04802,4.67235 4.32486,8.85632 -6.25483,3.79421 -2.4982,1.46514 -1.79849,0.028 -2.71419,-0.74664 -4.36242,3.40444 -5.28751,0.756 -7.16583,5.4848 -5.24993,-2.7894 -4.64419,-0.024 -1.74213,-0.7889 -3.51249,-3.5595 0.01,-1.0001 -2.54044,-0.019 -1.77502,-1.0143 -1.019,-0.014 -2.76113,3.5312 -3.33404,-0.028 -1.05658,3.4937 -0.005,2.517 0.005,0.08 3.15091,0.803 4.53149,1.1551 2.77052,0.5823 0.005,0.01 -7.70583,15.0924 -6.34877,-13.031 -12.32185,13.9232 -4.44224,-0.7326 -0.84995,-2.5123 -7.29733,-1.6247 -1.69049,-1.4135 -9.73445,-0.7325 -4.62539,2.4888 -1.70929,-0.01 0.31933,-1.7704 0.41791,-1.5214 0.17383,-0.3005 -1.80789,0.8875 -0.81708,0.6621 -0.51185,0.6856 -0.80766,1.0753 -2.84569,5.1372 -2.77993,4.7569 -0.65742,1.0895 -0.28173,0.3381 -0.28176,0.2582 -0.42262,0.3475 -0.45549,0.2959 -2.74706,1.4228 -3.79893,1.9535 -1.98164,1.0706 -0.66211,0.5635 -0.48838,0.6856 -0.47426,0.9767 -3.05229,8.0487 -0.64333,1.9065 -0.23009,1.0659 -0.89222,4.71 -0.79829,4.8132 -0.0611,0.2911 -0.14546,0.6856 -0.0892,0.4602 -0.24887,0.9204 -0.28176,0.601 -0.90628,1.5825 -0.49307,0.8547 -1.88773,3.1415 -0.0329,0.056 -0.52593,0.4133 -0.46018,0.2253 -0.89691,0.9579 -0.95327,-1.0378 -2.20701,-2.2258 -0.43203,-0.4226 -7.33487,-6.715 -10.44352,-9.9787 -0.40385,-0.432 -0.10795,-0.1127 -0.0329,-0.042 -0.10338,0.3569 -0.0611,0.5964 -0.024,1.0472 -0.0704,0.5165 -0.0704,0.3804 -0.20653,0.5729 -0.19258,0.8546 -0.11276,0.4508 -0.0798,0.4931 -0.13152,0.54 -0.21133,0.4085 -0.52122,0.742 -0.28176,0.3709 -0.37097,0.6621 -0.38036,0.5072 -0.8922,0.972 -0.31933,0.4085 -0.64331,1.127 -0.5682,1.0284 -0.73255,1.3853 -0.25827,0.5072 -0.45551,1.0283 -0.40853,0.6481 -0.3428,0.3569 -0.324,0.2629 -0.22528,0.1455 -0.3522,0.2536 -0.23466,0.3099 -0.51656,1.1317 -0.36157,0.8828 -0.20196,0.4837 -0.20653,0.3897 -0.53531,0.3992 -0.7936,0.3897 -0.29115,0.042 h -0.54002 l -0.75602,-0.094 -0.62454,0.019 -1.62006,0.1221 -2.05678,0.066 -1.22562,0.019 2.78933,-4.4939 1.26787,-11.8382 -2.79402,-3.968 -2.06146,-1.1129 -0.98611,0.8594 -2.08496,-0.047 -0.0469,-5.9168 -3.70971,-3.5735 -1.94408,-0.7889 -0.16446,-15.5244 1.76096,-1.2068 2.31973,0.4414 4.90244,2.2023 0.024,-2.9724 1.69048,-2.2024 9.16626,-8.2834 -0.86402,-4.2497 -11.63628,-6.0576 0.51656,-1.1599 -55.16189,9.124 -23.59183,18.8396 -17.49665,-7.1001 -110.10777,39.4591 1.31013,12.134 2.6062,24.0896 1.59189,14.7449 0.81238,7.4945 0.69966,6.4803 5.25464,48.5689 -3.26831,41.9666 -0.30053,3.8318 -1.43691,18.4264 30.90794,-23.5167 42.53479,-6.081 30.38672,-18.2293 h 12.15278 l 48.86009,-18.9664 13.84798,8.1332 8.20833,9.4668 4.05719,4.677 4.3812,2.8363 7.38654,2.2728 6.82773,3.3763 3.47022,5.9261 2.14599,26.4281 -9.7955,19.1355 3.01002,13.6743 3.64866,16.5669 17.78312,-10.7112 1.00488,-12.0589 -0.31931,-6.6211 11.09154,-5.8839 6.03884,-3.6862 0.78891,-0.479 16.17242,-8.6169 14.69325,-8.7671 8.46188,-8.1425 2.08024,-8.3633 -3.56881,-5.9637 -3.33873,-2.2023 -2.01922,-0.014 -1.66702,-2.362 1.87364,-2.4981 0.61984,-2.3996 -1.19273,-2.8645 -1.78911,-2.268 -0.68091,-1.6107 -0.44609,-25.0476 12.18568,-2.3948 3.49839,-0.6903 7.59784,-2.038 5.47535,0.4555 2.10841,3.0429 9.69219,-1.6013 15.36945,-0.094 8.84223,0.4884 1.85015,-0.4039 7.43351,-1.6294 8.19892,1.9441 1.15046,14.6885 -0.87342,4.2075 -1.29135,3.3434 -0.0281,4.1934 1.019,4.0008 3.77544,2.1225 8.0017,-0.3569 3.76604,3.8084 5.25933,0.6668 9.30243,-4.9635 5.90266,-1.2209 5.71012,-3.0241 30.35854,-3.8788 2.08493,-0.2677 4.5174,-9.8659 1.51206,-8.0862 0.89689,-0.6152 5.87448,1.6389 3.62989,-3.5172 1.70457,0.9016 1.33831,-1.9488 2.28686,-0.5165 6.92635,0.2349 3.82711,-4.7616 3.04291,-1.2209 7.44287,-4.3718 5.71013,-1.9065 4.09475,-2.0991 5.31099,0.042 6.28302,-2.0849 4.38122,-2.2775 8.71545,2.0145 3.62986,-3.6956 4.85548,-1.7327 5.51291,-0.85 2.86446,-2.8175 1.17396,-4.5972 2.84566,0.1972 1.15986,-2.6532 2.67193,-2.1131 -1.12699,-2.1272 -0.35218,-3.3716 2.39955,-3.5266 2.31035,-4.5972 1.54494,-4.245 1.38526,-6.1844 2.66253,-2.2916 6.82775,-11.4719 5.55514,-7.0531 2.45125,-5.6914 4.25441,-3.1274 4.37182,-0.8546 3.62986,-3.3482 -0.0656,-3.01 3.45144,-5.8181 1.17395,-4.0713 5.17948,-7.7669 4.03373,-3.8975 7.94063,-7.6777 13.31268,-9.8753 1.36648,-3.5266 5.82753,-5.4613 3.06168,-3.6956 2.1272,-4.4234 2.85978,-2.1038 2.70008,-5.8275 5.22646,-1.559 6.68686,-6.16092 -0.0281,-0.24418 -0.84993,-8.2083 -0.01,-0.0611 2.06615,-3.41388 0.81709,-1.3524 -1.50738,-1.60595 -5.01983,-1.45571 -2.82689,-2.85506 -0.53531,-2.97716 -1.70928,-1.12231 0.0192,-2.8081 0.01,-1.26787 -1.11291,-3.55475 0.0375,-3.89753 -4.22155,-7.30201 -1.10351,-5.14664 -4.72401,-2.51695 -3.04289,1.04246 -3.60639,-0.5588 -1.343,-4.17459 2.58268,-3.35282 1.06127,-2.38548 -1.54493,-2.48878 0.20196,-1.94877 1.90651,-1.67171 3.8177,-2.19296 2.0098,-2.10844 5.79935,-2.08493 5.62561,-3.32935 1.48389,-2.47471 0.40853,-3.89284 1.35709,-4.06657 1.05655,-1.50738 4.17929,-0.94384 2.94899,-1.39466 1.72807,-3.00064 0.024,-2.30565 -1.1176,-2.31504 -4.26382,-3.41857 -0.85464,-0.12214 -6.87468,2.53104 -5.5223,0.8124 -7.11888,-3.9351 -8.41021,-5.28282 -5.07151,0.4508 -8.56988,-0.1832 -12.55665,-5.91675 -5.11843,-1.73276 -8.48537,4.78975 -14.8388,4.508 -4.42349,0.93446 -5.04801,-2.82219 -2.44654,-2.80811 -2.4653,-0.15027 -3.53595,3.50309 -2.40427,-0.62453 -3.20724,-4.6348 -4.54557,-1.24909 -5.19828,0.5682 -5.84631,-0.15964 -2.97246,-1.83606 -2.96306,-3.42327 -5.09028,-4.89775 z"
      data-name="Zona Rural" id="zona_rural" />
   <path class="neighborhood"
      d="m 627.83769,449.41108 48.74421,-97.7117 45.00486,-89.98908 24.87754,-52.8141 27.34527,-54.69057 9.11512,-18.23019 15.19182,-33.42202 6.56561,-9.866483 -3.16355,-2.49632 -2.25174,-3.820137 -3.24893,-4.525952 -3.19361,-2.781012 -2.78255,-0.290168 -4.59462,-0.231218 -7.4762,-2.313717 -4.17926,-2.968178 -1.11507,-5.102023 0.50617,-3.007679 -2.41398,-5.591199 -4.94523,-4.896934 -2.8825,-1.301332 -3.07726,-0.07686 -5.17646,1.455375 -2.32131,0.738628 -7.88243,2.142351 -9.16282,3.236162 -6.76461,2.686219 -4.51682,1.23388 -4.75048,-1.619449 -6.51063,-4.396819 -1.03061,-0.749868 -0.67632,-0.30262 -0.18345,-0.08872 -0.26709,-0.127619 -5.12086,-5.4487 -5.8923,-4.19872 -4.84557,-2.181242 -2.48084,-0.282871 -2.74546,0.503458 -0.2856,-0.0015 -3.55307,-0.286518 -5.45234,-0.306267 -5.12512,-1.007827 -9.63131,-2.579267 -14.02268,-5.005403 -0.19138,-0.07261 -0.44969,-0.09874 -0.53293,-0.172578 -0.47489,-0.124877 -0.46518,-0.115165 -0.11636,-0.0094 -0.39743,-0.10574 -0.67846,-0.0094 -0.20364,-0.0866 -0.33907,-0.172578 -1.36637,-0.374325 -0.40713,-0.096 -0.61071,-0.115164 -0.23249,-0.06715 -1.0856,-0.192029 -1.05615,-0.249449 -1.3083,-0.201742 -1.44415,0.01947 -0.30048,0.05741 h -1.50218 l -0.25187,-0.03827 -0.38772,-0.01924 -0.98868,-0.144015 -0.54264,-0.134302 -0.84315,-0.124878 -2.30641,-0.460616 -0.46518,-0.144015 -0.35883,-0.08629 -0.42628,-0.134591 -0.8143,-0.297455 -0.48432,-0.201453 -0.18416,-0.04801 -2.06425,-0.681505 -0.601,-0.26859 -0.28106,-0.06715 -0.27132,-0.105739 -0.20364,-0.07687 -0.32967,-0.143727 -0.20316,-0.13459 -0.19379,-0.15344 -0.0779,-0.096 -0.5232,-0.41261 -0.23249,-0.0866 -0.35883,-0.15344 -0.1356,-0.02888 -0.48463,-0.182291 -0.91091,-0.249449 -1.20196,-0.230305 -0.34881,-0.0866 -0.37797,-0.0477 h -1.11448 l -0.18416,0.02856 h -0.35853 l -0.2522,-0.01924 -1.70542,-0.42233 -0.44604,-0.163153 -0.0969,-0.06715 -0.68788,-0.134303 -0.87232,-0.124877 -0.93035,-0.05741 -0.40714,-0.04801 -0.32936,-0.06715 -0.7754,-0.096 -0.84315,-0.153753 -0.23273,-0.07658 -0.51348,-0.05773 h -0.65904 l -0.13584,-0.01923 -1.25026,-0.345462 -1.41498,-0.163153 -0.22264,0.01923 h -0.6107 l -0.52322,-0.07686 -0.95952,-0.268593 -0.12598,-0.02887 -0.12574,-0.04801 -0.49435,-0.0094 -0.22311,0.08629 -0.33907,0.220592 -0.10675,0.06746 -0.3391,0.345462 -0.10675,0.07658 -0.42659,0.240041 h -0.25189 l -0.25187,-0.04801 -0.52351,-0.03828 -0.17431,-0.04801 -0.37797,-0.03859 -0.37798,-0.0094 -0.50376,-0.06715 -0.63016,-0.02887 -1.16277,-0.0096 -0.76566,-0.07658 h -0.24247 l -0.62014,-0.03859 -0.39742,-0.05741 -0.4846,-0.10574 -0.14522,-0.04801 -0.31994,-0.05741 -0.38771,-0.04801 -0.89145,0.05773 -0.44573,0.09571 -0.77537,0.297759 -0.1647,0.04801 -0.36854,0.07658 -0.11613,0.04801 -0.25218,0.05773 -0.41657,0.02856 -0.27132,0.06746 -0.5235,-0.0096 -0.50377,-0.02887 -0.30048,-0.134302 -0.12623,-0.01923 -0.14521,0.01923 -0.0873,0.07686 -0.0486,0.134302 -0.01,0.546905 -0.1356,0.36491 -0.0873,0.07658 -0.36855,0.192028 -0.35852,0.04801 -0.11613,0.02888 h -0.24244 l -0.2519,-0.03828 -0.42659,-0.10574 -0.41656,-0.211166 -0.33938,-0.124565 -0.45544,-0.134591 -0.10675,-0.06715 -1.24055,-1.132399 -0.12575,-0.153752 -0.5235,-0.575771 -0.18417,-0.287735 -0.32936,-0.326319 -0.10675,-0.07686 -0.54266,-0.806383 -0.0969,-0.26859 -0.0389,-0.182315 -0.0969,-0.345461 -0.0579,-0.115165 -0.19378,-0.624078 -0.0389,-0.115164 -0.0678,-0.105427 -0.27132,-0.240018 -0.2607,-0.118506 h -0.29988 l -1.17557,-0.433575 -0.62224,-0.274058 -0.51865,-0.388001 -0.35732,-0.193855 -0.27649,-0.102999 -0.18441,-0.0113 -0.28834,-0.05713 -0.2996,0.01154 -0.1267,0.04559 -0.53019,0.262514 -0.61071,0.422333 -0.12694,0.05713 -0.13825,0.03402 h -0.13825 l -0.14978,-0.0113 -0.26524,-0.06867 -0.17287,-0.03402 -0.13824,-0.04587 -0.25341,-0.125478 -1.1181,-0.479454 -0.68,-0.09115 h -0.16133 l -0.16132,-0.02284 h -0.3573 l -0.14979,-0.03433 -0.26495,-0.0113 -0.66845,-0.125791 -0.23057,-0.02284 -0.64535,-0.113938 -0.87597,-0.559364 -0.53019,-0.251272 -0.23033,-0.148271 -0.25372,-0.113938 -0.14979,-0.03433 -0.54173,-0.228189 -0.54175,-0.194144 -0.25339,-0.114251 -0.24215,-0.137019 -0.26495,-0.113938 -0.13825,-0.07992 -0.25372,-0.125479 -0.62225,-0.422333 -0.25369,-0.148583 -2.0746,-1.43806 -0.65689,-0.353665 -0.33424,-0.205396 -0.38009,-0.262514 -0.41505,-0.262515 -0.94492,-0.764758 -0.23057,-0.296847 -0.10386,-0.171063 -0.0459,-0.137019 -0.56483,-0.935819 -0.25341,-0.239729 -0.53019,-0.342422 -0.44967,-0.114251 -0.53018,-0.05712 -1.00268,-0.0113 -2.98489,-1.963089 -0.14979,-0.04587 -0.55329,-0.113938 -0.84132,-0.239729 -0.2765,-0.148584 -0.20748,-0.09115 -0.14979,-0.114251 -0.46123,-0.273757 -0.0921,-0.125791 -0.19594,-0.3879999 -0.13825,-0.4107876 -0.0577,-0.2968473 -0.19595,-0.536271 -0.21879,-0.3083948 -0.21902,-0.1938558 -0.16133,-0.1142506 -0.20749,-0.1026861 -0.3573,-0.148271 -0.66845,-0.388 -0.95647,-0.5137887 -0.34821,-0.1464437 -0.9197,-0.2871244 -0.86441,-0.3652125 -0.13824,-0.079918 -0.54175,-0.2284772 -0.26495,-0.1370189 -0.66844,-0.3193319 -1.09502,-0.559364 -0.61071,-0.4335753 -0.13824,-0.034333 -0.27678,-0.1485835 -0.55298,-0.3421195 -0.49557,-0.1941443 -0.17286,-0.079918 -0.86443,-0.3652125 -0.12695,-0.068666 -0.26495,-0.1026861 -0.33421,-0.1710633 -0.48403,-0.5821492 -0.21903,-0.4335753 -0.64535,-0.3539701 -0.13825,-0.057125 -0.3804,-0.1254785 -0.34578,-0.17106334 -0.51865,-0.15981141 -0.41502,-0.10268609 -0.16133,-0.0115405 L 536.22981,0.35366718 535.2387,0.21693671 535.07738,0.14827094 534.36276,0 h -0.43784 l -0.31111,0.0228405 -0.31114,0.05712531 -0.2537,0.09114563 -0.13824,0.0343329 -0.14979,0.0571253 -0.33424,0.0799177 -0.53019,0.22818866 -0.26524,0.1598114 -0.55298,0.25096906 -0.36886,0.23972914 -0.0808,0.1142506 -0.53019,0.9358187 -0.11517,0.2740596 -0.0921,0.137019 -0.0577,0.1367305 -0.17287,0.251272 -0.21903,0.2169367 -0.11516,0.079918 -0.29957,0.1139381 -0.57638,0.1485835 -0.99113,0.113938 -0.13824,0.057125 -0.24216,0.1598114 -0.20749,0.2169367 -0.23033,0.2053963 -0.31113,0.3308795 -0.12695,0.1026861 -0.49557,0.3311825 -0.81821,0.4563605 -0.26495,0.1254785 -0.85287,0.251272 -0.33424,0.1142506 -0.29988,0.1254786 -0.12671,0.079918 -0.27651,0.1254785 -0.26524,0.1027101 -0.31114,0.079918 -0.54173,0.1941442 -0.28803,0.079918 -0.26495,0.1027101 -0.26526,0.1598114 -0.33421,0.2737567 -0.0921,0.1142506 -0.1154,0.079918 -0.21879,0.2053962 -0.24216,0.1710634 -1.19864,1.1071802 -0.26495,0.1598114 -0.70306,0.1941443 -0.31113,0.1367305 -0.12695,0.045873 -0.10362,0.1026861 -0.0808,0.137043 -0.0921,0.2625143 -0.20749,0.410788 -0.0921,0.114251 -0.53019,0.479148 -0.18441,0.216936 -0.32267,0.479456 -0.0693,0.273757 -0.012,0.148583 v 0.924269 l -0.0459,0.308395 -0.0692,0.125479 -0.12671,0.06835 -0.13824,0.03433 -0.16133,-0.01154 -0.13848,-0.03402 -0.10363,-0.10271 -0.0692,-0.125791 -0.14978,-0.410788 -0.0459,-0.148271 -0.10386,-0.09146 -0.13825,0.01154 -0.11516,0.07992 -0.0692,0.125479 -0.0806,0.11425 -0.13848,0.410785 -0.32268,1.620664 -0.1844,0.856214 -0.21879,1.643451 -0.0577,0.239729 v 0.684847 l 0.16132,0.547816 0.18441,0.513486 0.0346,0.216937 -0.024,0.673302 -0.0462,0.137019 -0.0921,0.467908 -0.0462,0.171352 -0.0923,0.205396 0.0462,0.627727 v 0.536271 l -0.0462,0.445119 -0.26495,0.696393 -0.0693,0.296548 -0.0459,0.319635 -0.012,0.399543 -0.0346,0.296847 -0.0577,0.319332 -0.13825,0.513788 v 0.410788 l 0.024,0.159811 0.012,0.29685 0.0577,0.137043 0.13824,0.239417 0.16133,0.491001 0.024,0.410787 0.0344,0.148271 0.0577,0.376758 0.024,0.330877 0.0462,0.319637 0.16133,0.285302 0.1267,0.09146 0.23057,0.09115 0.34576,0.02284 0.40319,0.102998 0.14979,0.205397 0.0692,0.308089 v 1.380937 l 0.0346,0.30809 0.16133,0.251274 0.28803,0.387998 0.0462,0.137019 0.024,0.148271 -0.012,0.75321 0.0462,0.148583 0.21879,0.376453 0.0346,0.285302 -0.17815,0.333004 -0.40988,0.911207 -0.4032,0.502241 0.0361,0.611928 0.44664,1.226588 1.8853,2.791042 7.15841,8.179887 0.74712,7.850529 -2.50909,6.218623 -3.4142,6.652501 -2.97364,8.506814 -2.17093,4.53233 -0.1166,3.123136 -1.35723,1.812993 -12.61407,0.374327 -11.45374,2.181241 -4.01551,-0.158296 -1.2764,0.711585 -2.02506,0.226049 -4.69156,0.292594 -12.19236,0.789671 -5.84063,-0.616788 -2.80351,0.848311 -4.28317,0.231218 -4.51685,1.542273 -7.01316,1.273988 -3.95958,-1.52131 -6.34685,0.192942 -5.16157,0.171664 -14.58477,4.407453 -2.88127,2.313408 -6.0743,0.23122 -3.36318,0.37736 -4.92792,2.54707 -4.73315,4.27042 -3.34799,0.88629 -3.56461,0.81398 -4.62561,0.16378 -3.72108,0.71978 -5.21352,1.46176 -10.9439,4.24764 -5.17616,3.65333 -5.1558,1.27338 -16.85047,-0.54539 -3.4677,1.04368 -1.35115,0.62377 -0.37251,0.0799 -0.14378,0.0171 -2.20677,0.36369 -2.63609,1.23935 -3.56978,2.30764 -5.77258,5.42227 -0.1772,0.29259 -3.45707,5.70544 -2.71931,1.70027 -3.49414,1.49306 -0.95373,0.55571 -0.48948,0.25128 -1.79873,-0.33362 -2.33802,-0.94341 -5.39645,-4.03495 -3.06478,-5.86708 -1.89139,-3.62082 0.45301,-3.24528 -0.70094,-2.12078 -2.18033,-1.1567 -3.58254,-0.57821 -7.59711,-0.51135 -6.60117,0.28196 -2.67316,-0.16133 -1.6951,0.0644 -2.57531,0.29047 -2.51,0.67786 -1.72761,-0.29047 -1.4344,-1.06525 -2.44468,-2.77585 -1.04338,-1.00084 -0.68454,-0.38739 -0.81488,-0.25826 -0.88023,-0.93612 -0.52138,-1.61398 -0.19571,-0.71007 -0.16277,-1.2913 -0.0654,-2.58231 0.47278,-1.61003 0.50528,-1.32746 1.04306,-1.84004 0.71705,-1.03274 1.01056,-1.06524 1.17374,-0.77479 1.79262,-0.871704 1.76042,-1.097457 2.37967,-1.646185 1.23873,-1.194381 0.39105,-0.58124 0.26098,-0.64535 0.0649,-0.968632 -0.17287,-1.870719 -0.0878,-1.551087 -0.32602,-0.516217 -0.71705,-0.871707 -1.08411,-1.283711 -4.90481,-2.550099 -5.67173,-1.09047 -9.31167,-0.850133 -4.29534,0.490996 -2.53308,0.817928 -4.60404,0.444209 -2.74214,-0.832812 -2.18033,-2.313414 -1.47968,-4.318428 -2.75062,-14.798663 -8.65691,4.410186 -4.44361,-0.902697 -2.55071,0.451804 -2.29064,1.511587 -1.92906,2.068215 -0.1029,2.738175 2.93508,5.018467 -1.66988,2.12868 -5.66019,2.220133 -6.17153,0.910904 -3.59135,3.2629 -3.31211,4.064725 -3.98512,-0.03465 -3.82955,-2.397267 -2.74974,-0.602509 -1.10565,1.116295 -1.4961,1.515234 -1.55503,4.73985 -0.28166,3.674599 -1.72669,3.498075 -2.1691,1.88196 -3.54547,1.70513 -1.8698,0.19811 -3.10097,-1.47239 -2.23866,0.88751 -1.97464,3.68705 -0.46912,3.79766 2.65036,4.02826 9.91146,3.41269 0.75655,1.4171 -0.66844,2.25264 -1.49093,0.64171 -2.49966,-0.67574 -2.99158,0.64839 -5.19711,6.19492 -2.82537,2.20039 -3.24073,0.0188 -2.8044,0.64079 -3.9836,1.71303 -6.79106,10.0658 -3.37592,3.81862 -1.98468,1.20015 -3.3036,0.58276 -5.0446,-0.0954 -2.80989,0.58337 -2.1779,1.50733 -1.31621,2.62333 0.76628,2.9229 0.54476,6.026 -0.85226,3.06358 -3.15776,4.61528 -3.757842,1.82727 -7.176943,-0.51075 -8.120641,-1.55564 -3.079669,1.63373 -1.532261,12.4576 -2.57927,11.44613 -2.650052,3.93863 -2.301866,1.20289 -7.037159,1.79264 -0.958917,1.43593 1.079851,1.67687 4.247925,0.52716 0.999621,1.54624 0.454839,1.88622 -0.0048,2.59809 -2.02903,5.89961 -4.451518,5.71666 -3.36104,1.51464 -8.744115,-1.17768 -9.639197,-2.79652 -2.718429,-2.94993 -1.866166,-2.77799 -1.666851,-0.55815 -2.594465,0.96044 -2.020808,2.04694 -1.301332,4.11913 -0.04809,2.17516 3.853265,3.09183 4.058638,4.64475 8.529918,5.60061 -0.869886,3.21703 -1.738259,1.95093 -0.02861,2.36325 1.963394,3.39324 -0.168058,2.08281 -1.551087,2.49449 -2.822028,-0.17142 -1.971905,-0.96012 -4.919724,-2.39118 -2.884636,-0.0274 -1.888645,1.43289 -1.534666,2.60935 -0.306279,3.97023 -2.495697,2.10621 -2.507575,-0.17696 -5.348116,-2.58352 -3.046876,-0.32479 -3.24376,1.06097 -2.7144856,5.19927 -0.5119639,3.44368 -2.4006091,3.5403 -2.6798403,1.81481 -0.037987,1.29282 -0.1339175,4.36492 -0.6134479,1.31926 L 0,291.2637 l 1.0515768,2.20555 3.984514,5.00479 4.6064729,2.65096 1.1284413,2.07096 -1.4252958,3.31911 0.012021,2.28273 4.1084778,4.388 2.994919,7.15566 0.287118,1.58388 -0.736186,4.27986 0.130552,0.38557 1.27825,3.78883 2.218919,4.15163 0.939442,5.38308 0.85926,14.25995 2.431311,6.33134 -0.531727,3.17935 1.267913,1.84977 8.590674,2.63637 2.188529,1.70909 1.41741,3.92465 5.719719,7.34344 0.02765,23.48747 1.11113,5.37579 -0.139687,10.5744 -3.13956,9.78141 0.923358,4.33636 0.01202,2.08584 -1.706041,2.7719 -4.056835,8.6548 -4.532325,5.06585 -3.241933,1.40313 -7.459492,2.0524 -5.45965,4.9422 -1.991332,3.04902 -6.6637532,15.21307 1.5024724,5.53803 0.1471409,3.16173 1.287363,2.02477 -2.2645038,2.92929 0.6617495,5.19287 -0.727987,4.06443 -2.5762405,4.32328 1.0515768,4.17108 1.789301,2.14266 7.0046539,2.48841 1.907495,1.95671 2.386616,2.44831 4.46277,1.99895 3.677634,0.22095 1.029097,1.13787 0.683917,2.16819 -0.93824,2.83722 0.65872,3.7858 5.186502,6.95756 -1.895642,4.83798 1.255146,2.82385 3.829559,2.93082 4.124562,1.60059 2.427657,1.78505 1.589387,2.16422 2.794692,5.82943 4.063806,1.59816 5.261539,0.3245 3.374095,-1.53012 4.618927,-0.75047 0.741668,1.55655 -0.168058,2.41338 0.565458,2.46684 1.341123,2.16394 1.703613,1.68264 0.922155,2.08888 0.190418,0.43509 0.916986,2.09496 1.338093,1.07466 2.39241,0.83372 4.836177,-0.69973 2.497212,2.09404 2.002896,1.068 12.011268,-5.41044 5.690245,26.03152 5.5681,8.19962 0.0394,5.48821 -2.72448,4.14067 13.94093,23.23166 5.52069,1.33597 2.64613,4.53841 6.9621,-5.30621 3.98786,-0.96894 4.1662,0.0262 3.77883,-0.59523 12.553,-3.05173 9.47393,-5.84246 25.20324,-10.88343 5.67354,-1.46511 9.87226,-5.33931 6.13809,-1.08045 39.76248,-2.71661 9.23634,-1.94605 5.12146,0.0404 34.53376,2.53277 43.44529,-0.29868 11.33978,-3.06936 4.67697,-0.3263 0.72373,0.61193 6.00623,5.09139 5.23178,3.31971 5.31803,0.28863 3.89792,1.03367 8.48767,0.068 2.83146,-0.36158 1.76316,-1.62735 3.37501,-0.84618 14.54741,0.10482 1.66685,2.15086 0.64687,3.66063 4.2385,9.47239 2.87978,10.46627 1.15335,8.69824 3.64512,7.07392 7.25684,3.58132 4.30416,0.0298 0.9513,-0.6177 2.42157,0.14137 0.74198,8.44514 1.4642,2.65248 3.49229,0.90574 3.84232,-0.47278 10.67924,-4.70276 1.4815,0.63987 1.73369,2.15057 1.05523,2.52243 -0.17959,6.4228 2.82174,1.0288 6.14933,3.98178 21.83855,-4.64535 26.43409,-8.26862 11.43581,-6.64674 11.24955,-13.1631 15.21338,-6.96424 8.79699,-2.84451 1.2518,3.4841 4.88174,-1.26943 2.0907,1.10139 2.54311,0.673 2.81049,-2.36413 4.89724,-2.35597 7.21976,-2.33405 6.53128,-3.42973 9.62949,1.59607 5.35847,-2.35443 6.52489,-1.90355 6.74242,-0.59885 6.73424,0.0488 7.23345,-1.85765 0.90542,-0.23249 -0.85924,-2.43648 0.012,-0.007 -2.8e-4,-6e-4 -0.7189,-1.90444 -1.33718,-2.10681 -3.46798,-4.77479 -2.25051,-3.06813 -5.34663,-7.28966 24.17446,-1.00267 -35.74363,-30.09681 -24.30694,-60.76731 30.25331,-66.36003 z"
      data-name="Carapotós" id="carapotos" />
   <path class="neighborhood"
      d="m 803.07542,644.62878 -1.93209,-1.00265 -2.13871,1.54897 -4.02188,5.91203 -2.60389,6.78255 -1.74705,6.2162 -0.60585,4.52656 0.11252,3.5968 1.07648,5.67385 -1.078,5.94396 -0.96954,5.35997 -2.28941,2.81354 -2.55588,0.83007 -14.22228,-9.67264 1.07163,2.79592 -0.0262,3.64207 -0.80062,2.65828 1.91601,4.14372 4.92701,1.00539 3.8794,2.21435 4.35912,8.28291 1.8051,1.71301 -0.55967,5.33203 -2.35502,2.17182 1.27549,4.37557 -1.45386,3.14745 1.5286,3.41025 -0.0192,2.67193 -3.14168,2.88707 0.21783,0.58063 1.05643,2.8196 4.1425,2.22103 4.65266,4.16257 9.32566,2.73514 1.92327,3.17053 -0.19956,0.51439 -2.97609,7.7135 -2.09342,1.68357 -0.52596,1.21018 1.49945,8.02219 -0.0447,5.8212 -3.67795,6.04788 -0.82065,5.81238 -1.47056,4.84468 -0.0404,6.55222 -2.11198,4.11699 -4.19325,5.06374 -3.17996,8.4728 -2.2751,7.63935 -1.18497,3.98817 -0.16277,3.88152 -4.71889,6.03022 -0.037,4.8538 -0.80853,4.12154 -2.90649,6.53462 -3.40934,4.34606 -3.5786,9.67781 3.11251,1.72458 4.94098,-1.42104 2.5571,5.36057 3.85841,5.60884 3.60442,3.91036 4.91487,2.94691 4.12245,4.88691 3.34219,2.49815 0.92155,0.68911 1.06221,1.59575 0.40653,0.6104 0.34636,0.52016 1.26883,1.9087 0.0902,0.27226 1.68842,5.08256 -1.86311,5.81058 2.83965,2.19978 2.09404,-1.43777 1.55048,0.73803 1.01391,3.64967 0.96406,1.58877 1.49276,-0.13512 5.22021,-2.99341 4.02827,0.9978 0.92487,-3.39507 3.12891,-1.79447 3.7612,1.36575 2.47962,-1.80296 1.04943,-1.6939 1.55809,0.25524 2.58321,2.32343 2.03023,-0.97349 0.71008,-0.33999 -1.25972,-5.22994 3.71349,-2.27816 2.49206,-2.65008 0.94038,-4.24489 0.17479,-6.30886 -1.65805,-4.01733 0.0296,-4.0064 2.22683,-2.77493 10.91805,-1.0133 6.7561,0.89845 5.0923,4.8939 2.96364,3.42363 2.97151,1.8376 5.84642,0.16157 5.19956,-0.56787 4.5448,1.24544 3.20851,4.63684 2.4009,0.62467 3.53696,-3.502 2.46413,0.14762 2.44619,2.81138 5.05006,2.82205 4.42265,-0.93552 14.84181,-4.50954 8.48128,-4.7903 5.11995,1.734 12.55939,5.91723 8.56971,0.18225 5.06951,-0.45241 8.4105,5.2837 7.1183,3.9347 5.52464,-0.81033 6.8734,-2.53006 0.85347,0.12286 3.14379,0.63196 -15.43244,-35.88856 -39.29884,-91.43564 -12.61378,-29.37007 -12.9893,-30.24085 -3.67734,-8.56149 -33.5937,-19.11527 -30.38364,-15.19184 -46.6933,-23.06059 z"
      data-name="Gonçalves Ferreira" id="goncalves_ferreira" />
   <path class="neighborhood"
      d="m 176.25731,644.38907 23.55371,23.93077 30.14088,30.61548 16.72833,16.98721 51.706,52.48805 0.84041,2.52458 -0.52624,3.29663 0.8562,4.11364 1.10688,1.36452 0.30991,4.1185 0.75929,1.01725 15.65154,-18.07797 3.39717,-3.23251 4.44455,-3.43671 2.50664,-0.65263 2.37844,-0.61528 8.35883,0.71979 4.15772,3.28569 3.94773,0.24884 4.90667,-3.00523 10.59111,-3.39174 13.98532,-5.32504 8.59521,0.2844 10.5477,3.33825 3.76727,-0.43053 6.22894,-0.14498 9.0346,3.32397 20.1082,-1.15092 23.9335,-0.0346 8.38011,-1.67139 10.64979,-4.85532 28.10245,-15.44188 23.0715,-12.67516 -8.5779,-2.88613 -3.69315,-2.85061 -0.91119,-2.61512 -2.74668,-5.22992 -2.76795,-2.84028 -4.39834,-2.64245 -10.771,-3.98908 -17.50586,-15.29482 -6.14933,-3.98178 -2.82174,-1.02881 0.1796,-6.42279 -1.05524,-2.52244 -1.73369,-2.15056 -1.4815,-0.63987 -10.67924,4.70276 -3.84232,0.47277 -3.49229,-0.90573 -1.4642,-2.65248 -0.74198,-8.44514 -2.42157,-0.14137 -0.9513,0.6177 -4.30416,-0.0298 -7.25684,-3.58132 -3.64512,-7.07392 -1.15335,-8.69824 -2.87978,-10.46627 -4.2385,-9.47239 -0.64687,-3.66063 -1.66685,-2.15086 -14.54741,-0.10482 -3.37501,0.84618 -1.76316,1.62735 -2.83146,0.36157 -8.48767,-0.068 -3.89791,-1.03366 -5.31804,-0.28863 -5.23178,-3.31971 -6.00623,-5.09139 -0.72373,-0.61194 -4.67697,0.32631 -11.33978,3.06935 -43.44528,0.29869 -34.53376,-2.53277 -5.12147,-0.0404 -9.23634,1.94606 -39.76248,2.7166 -6.13809,1.08046 -9.87226,5.33931 -5.67354,1.46511 -25.20324,10.88343 -9.47393,5.84246 -12.553,3.05173 -3.77883,0.59522 -4.1662,-0.0262 -3.98786,0.96894 -6.9621,5.30621 2.9308,5.03001 5.50978,-0.0414 4.11485,-2.77158 2.49664,1.63252 5.80721,3.79734 28.84625,-11.1906 z"
      data-name="Lajedo do Cedro" id="lajedo_do_cedro" />
   <path class="neighborhood"
      d="m 400.90826,988.37214 -0.22455,-0.07 -2.08188,0.47703 -3.78126,1.67747 -2.86881,-1.54834 -6.25873,2.06425 -3.39021,-0.25795 -5.47636,0.51622 h -8.34517 l -4.69428,1.54834 -3.91159,-0.77417 -6.59204,-3.26958 -1.09473,-1.08317 -1.58876,-0.38437 -2.4717,0.62895 -6.12535,3.68918 5.73037,53.0536 2.02781,18.7728 110.10914,-39.4562 17.49611,7.1012 23.59381,-18.8436 55.16184,-9.1206 -0.51591,1.1604 11.63267,6.057 0.86777,4.247 -9.1701,8.2847 -1.68871,2.2046 -0.024,2.9707 -4.90181,-2.2047 -2.32192,-0.4409 -1.75891,1.2066 0.16445,15.5251 1.94637,0.7891 3.7056,3.5737 0.0471,5.9178 2.08736,0.046 0.98503,-0.8586 2.06367,1.1141 2.79104,3.9681 -1.2664,11.8351 -2.78769,4.4931 1.22264,-0.017 2.05757,-0.064 1.62189,-0.1247 0.62347,-0.017 0.75381,0.093 h 0.54175 l 0.29289,-0.04 0.78968,-0.391 0.53627,-0.3978 0.20869,-0.3919 0.20292,-0.4849 0.35946,-0.879 0.5144,-1.1318 0.2385,-0.3096 0.35092,-0.2556 0.22312,-0.1461 0.3245,-0.262 0.34393,-0.3555 0.40897,-0.6499 0.45424,-1.0272 0.26069,-0.509 0.73164,-1.383 0.56635,-1.0321 0.64384,-1.127 0.31962,-0.405 0.89451,-0.9738 0.37706,-0.508 0.37069,-0.6602 0.28529,-0.3738 0.51956,-0.7419 0.21181,-0.4054 0.13032,-0.5402 0.0815,-0.4958 0.1142,-0.4476 0.19138,-0.8568 0.20773,-0.5724 0.0692,-0.3792 0.0705,-0.5159 0.024,-1.0504 0.0589,-0.5928 0.10339,-0.3588 -0.0378,-0.056 -0.37312,-0.6113 -0.32633,-0.587 -0.0274,-0.058 -0.0216,-0.051 -0.0366,-0.099 -0.35641,-1.1096 -0.1808,-2.023 -0.031,-5.5495 -0.0257,-4.4789 0.007,-1.1555 6.1e-4,-3.0414 0.37403,-2.8202 0.58277,-3.4197 1.73549,-7.5275 0.3391,-1.2497 0.51773,-2.2277 0.71767,-3.1423 0.44816,-1.8647 0.45727,-2.0995 0.10049,-0.4615 1.48182,-5.6787 0.88295,-4.17718 0.0668,-0.40228 0.0543,-0.27954 0.48674,-3.57949 0.007,-0.16542 0.32419,-5.58116 0.012,-3.89094 0.21518,-3.62233 0.16253,-2.02081 0.0361,-0.23249 0.26493,-1.00691 0.2397,-0.9662 0.24096,-0.97017 0.0774,-0.16565 0.1166,-0.23466 0.33727,-0.67908 0.53202,-0.90937 0.45118,-0.77145 0.21783,-0.32054 0.15435,-0.22672 1.291,-1.87314 0.51258,-0.74349 1.38214,-2.00533 1.0355,-1.50216 0.90785,-1.59575 0.66663,-1.48485 0.50799,-1.52861 0.87172,-2.62423 0.25098,-0.84892 -0.58794,-0.32176 -0.49251,-0.26524 -0.45393,-0.14762 -0.73316,-0.33636 -0.6253,-0.21518 -0.65021,-0.26252 -0.64992,-0.27435 -0.80516,-0.17023 -0.85772,0.0793 -1.20168,-0.26069 -0.31599,-0.17407 -0.28894,-0.093 -0.2762,0.0192 -1.1327,-0.17888 -0.70671,-0.0738 -0.68517,-0.15531 -1.0139,-0.12454 -0.66752,-0.0599 -1.37456,-0.15652 -0.94219,-0.22023 -0.83555,0.0632 -0.59248,-0.18392 -0.71128,-0.41291 -0.89694,-0.59217 -0.59765,-0.43479 -0.64261,-0.77174 -0.51896,-0.42265 -0.74744,-1.15032 -0.34727,-0.44301 -0.30019,-0.4363 -0.48067,-0.17407 -0.28743,0.012 -0.3163,0.16902 -0.49554,0.18994 -0.57243,0.15556 -0.5539,0.29805 -0.35092,0.55361 -0.2437,0.75289 -0.60037,0.90028 -0.55361,1.12601 -0.86317,1.87925 -1.06283,2.97393 -0.46578,2.5182 -0.17022,2.23745 -0.4433,4.07295 0.18272,2.53308 1.88562,4.39834 1.29585,3.17935 1.25029,2.17302 0.42385,1.64528 -0.32602,1.32259 -1.23873,0.74167 -3.25987,0.83889 -2.10286,0.56272 -3.0803,0.8243 -1.76042,-0.19354 -1.62978,-0.0647 -1.62978,0.96772 -0.91273,0.16133 -4.20539,-0.12887 -1.62978,0.25798 -1.84186,0.79028 -0.95526,0.70094 -0.43996,0.37097 -0.42384,0.22576 -0.54418,0.18633 -0.52168,-0.27437 -0.84101,-0.31508 -0.58703,-0.0969 -0.56026,0.17022 -0.46641,0.28135 -0.78874,0.3798 -2.17761,0.62042 -1.05947,0.25795 -1.22872,0.21855 -1.16734,0.15243 -0.55418,0.27406 -0.82128,0.20244 h -1.36908 l -0.66206,0.0719 -0.53779,0.17719 -0.33241,0.26707 -0.58032,0.39437 -0.60313,-0.0808 -0.6259,0.29928 -0.5475,0.21686 -0.316,0.0731 -0.39468,0.0279 -0.46883,-0.35852 -0.5156,-0.30719 -0.36491,-0.0762 -0.80882,0.22144 -0.52594,0.22816 -0.59916,0.61527 -0.58609,0.46304 -0.51805,0.3172 -1.01421,0.39225 -1.01359,0.27741 -0.84438,0.17406 -0.66843,0.0168 -0.70065,-0.19354 -0.45453,0.0291 -0.97988,0.37403 -0.97805,0.14498 -1.56354,0.18297 -2.63883,0.0192 -2.47019,0.82187 -1.66259,-0.0966 -2.77068,0.25796 -2.2493,0.74198 -1.59728,0.29017 -5.67202,1.4195 -5.18313,-0.48401 -1.93332,-0.44421 -4.69396,-1.93543 -1.69513,-2.96758 -0.39132,-1.54835 1.30405,-2.32223 -1.56474,-2.06456 -1.04309,-2.96756 -6.78041,-2.70963 h -3.65121 l -4.95497,1.16128 -1.43409,1.2904 -4.56395,1.80629 -6.12837,1.29008 h -4.56363 l -3.6509,0.25827 -3.52085,-2.06457 -6.64976,-0.5159 h -3.39023 l -3.91188,1.03212 -3.78154,1.29008 -5.99804,2.70963 -6.12839,1.93544 -3.39021,1.41921 -2.73817,-1.54835 -3.37866,-2.02749 -1.09716,-0.70491 -0.65021,-0.25521 z"
      data-name="Agamenon Magalhaes" id="agamenon_magalhaes" />
   <path class="neighborhood"
      d="m 536.19452,940.33101 0.47672,1.33264 -7.35102,0.54841 -0.76597,-0.0483 -3.40663,0.22576 -2.0208,0.22576 -1.90719,0.38709 -3.6834,0.99993 -6.13962,1.78291 -1.08106,0.31387 -1.17342,0.25796 -1.02696,-0.0168 -1.22235,-0.20965 -2.5264,-0.903 -4.74167,-1.77593 -3.75481,-1.14332 -3.87451,-0.16157 -11.39297,1.43561 -2.46108,-0.0168 -2.21677,-0.29048 -2.15148,-0.48372 -2.03752,-0.91939 -1.4159,-0.73803 -8.23304,-4.1814 -2.28181,-0.64504 -13.39646,19.1973 -3.64696,10.36235 -0.43387,5.80206 2.01687,6.61423 4.84983,8.55906 h 4.56363 l 6.12837,-1.29008 4.56394,-1.8063 1.43409,-1.29039 4.95498,-1.16129 h 3.65121 l 6.7804,2.70963 1.04309,2.96756 1.56475,2.06457 -1.30405,2.32223 0.39132,1.54834 1.69512,2.96758 4.69397,1.93544 1.93331,0.44421 5.18314,0.484 5.67202,-1.4195 1.59727,-0.29017 2.24931,-0.74198 2.77067,-0.25796 1.6626,0.0967 2.47019,-0.82188 2.63882,-0.0192 1.56354,-0.18297 0.97806,-0.14497 0.97988,-0.37403 0.45452,-0.0291 0.70065,0.19355 0.66844,-0.0168 0.84437,-0.17407 1.01359,-0.27741 1.01422,-0.39225 0.51805,-0.3172 0.58608,-0.46303 0.59917,-0.61528 0.52593,-0.22816 0.80882,-0.22143 0.36492,0.0762 0.51559,0.30719 0.46883,0.35853 0.39469,-0.0279 0.31599,-0.0731 0.5475,-0.21687 0.6259,-0.29928 0.60314,0.0808 0.58031,-0.39437 0.33242,-0.26706 0.53778,-0.1772 0.66206,-0.0719 h 1.36909 l 0.82127,-0.20244 0.55418,-0.27407 1.16735,-0.15243 1.22872,-0.21854 1.05946,-0.25796 2.17761,-0.62042 0.78875,-0.3798 0.4664,-0.28135 0.56027,-0.17022 0.58702,0.0969 0.84101,0.31508 0.52168,0.27438 0.54418,-0.18633 0.42385,-0.22576 0.43995,-0.37098 0.95527,-0.70094 1.84185,-0.79028 1.62978,-0.25798 4.2054,0.12887 0.91273,-0.16133 1.62978,-0.96771 1.62977,0.0647 1.76043,0.19355 3.08029,-0.82431 -0.0245,-2.32497 -11.56828,-21.97194 -0.63167,-5.77136 1.20044,-10.02753 -1.6416,-4.39803 -1.66534,-0.39437 -1.51281,0.6265 -1.48908,0.18561 -0.75049,-0.0695 -0.1243,-0.82399 0.59491,-0.41139 0.84712,-1.65623 0.21566,-1.38639 0.0216,-2.03783 0.37372,-1.24483 0.26189,-0.56969 0.62742,-0.79848 0.61922,-0.60494 1.28948,-0.92641 0.87019,-0.61374 0.52168,-0.4758 0.38315,-0.54844 0.49162,-1.06615 0.67572,-2.82205 -11.5622,0.36704 -22.10653,-1.51887 0.55906,1.44657 0.34456,0.73073 0.2549,0.54021 0.81338,1.42621 0.88477,1.08743 2.80106,2.24899 0.96469,0.54995 1.85797,0.73833 0.7301,0.39651 1.57145,1.00082 1.3077,1.03913 0.66329,0.46943 1.29191,0.91424 -0.16926,0.20244 -0.0865,0.1885 -0.0216,0.13824 0.0596,0.13945 1.90019,2.31829 0.61739,0.67237 z"
      data-name="Alto do Moura" id="alto_do_moura" />
   <path class="neighborhood"
      d="m 545.72526,940.39756 0.1243,0.82399 0.75049,0.0695 1.48908,-0.18561 1.51281,-0.6265 1.66534,0.39437 1.64161,4.39802 -1.20045,10.02754 0.63167,5.77136 11.56828,21.97194 0.0245,2.32497 2.10286,-0.56272 3.25987,-0.83889 1.23872,-0.74167 0.32602,-1.32258 -0.42385,-1.64529 -1.25028,-2.17302 -1.29585,-3.17935 -1.88562,-4.39834 -0.18272,-2.53308 0.44329,-4.07294 0.17023,-2.23746 0.46577,-2.5182 1.06283,-2.97393 0.86318,-1.87925 0.55361,-1.12601 0.60037,-0.90027 0.24369,-0.7529 0.35093,-0.55361 0.55389,-0.29805 0.57243,-0.15556 0.49555,-0.18993 0.3163,-0.16902 0.28743,-0.012 0.48066,0.17407 0.3002,0.4363 0.34727,0.44301 0.74744,1.15032 0.51896,0.42265 0.64261,0.77174 0.59765,0.43479 0.89694,0.59217 0.71127,0.41291 0.59249,0.18393 0.83555,-0.0632 0.94218,0.22023 1.37457,0.15652 0.66752,0.0599 1.0139,0.12454 0.68517,0.15531 0.70671,0.0738 -0.10098,-0.26827 -0.0264,-0.48432 0.0736,-0.62438 v -0.43996 l 0.22239,-0.7824 0.29623,-0.75775 -0.17286,-0.70885 -0.15989,-0.15844 -0.60585,-0.59977 -0.76595,-0.61102 -0.86474,-0.63561 -0.74104,-0.80668 -0.19787,-0.78239 0.17311,-0.24459 0.3953,-0.34213 0.4445,-0.48886 0.44482,-0.61133 0.39531,-0.70885 0.24701,-0.68454 0.46941,-0.68454 0.69154,-0.39103 0.36157,-0.79576 0.18201,-0.69548 0.34575,-0.70914 0.61771,-1.76014 0.29654,-0.3178 0.41079,-0.83192 -0.54327,-1.67959 -1.99347,-1.85674 -2.30795,-4.06929 -3.92282,-1.03761 -0.76597,-1.70513 -1.18953,-0.27012 0.0168,-0.51196 -0.54873,-0.0579 0.16061,-1.8039 0.17551,-1.92843 0.0767,-0.56029 -4.14098,-1.24695 -2.01172,-0.7289 -2.10133,-0.0887 -1.43683,0.31994 -2.6759,1.19073 -1.99347,0.24884 -1.66531,-0.39317 -1.9394,-0.66143 -0.93735,-0.12887 -0.8395,0.0805 -0.83918,0.24185 -0.75807,0.36309 -0.70065,0.57241 -0.33422,0.48402 -0.34243,0.59674 -0.21783,0.91028 -0.67572,2.82205 -0.49162,1.06615 -0.38315,0.54843 -0.52167,0.47581 -0.8702,0.61373 -1.28948,0.92641 -0.61922,0.60494 -0.62742,0.79848 -0.26189,0.56969 -0.37372,1.24483 -0.0216,2.03783 -0.21566,1.3864 -0.84712,1.65622 -0.59491,0.4114 z"
      data-name="Kennedy" id="kennedy" />
   <path class="neighborhood"
      d="m 688.15533,942.86561 1.44352,-1.36877 0.32784,-0.84984 -0.0312,-1.49853 -0.5934,-1.59119 -1.49853,-1.73035 -1.6863,-3.80037 -1.7349,-3.5321 -0.28651,-0.38891 -0.25827,-0.72039 -2.70049,3.85355 -1.34266,1.45203 -1.17097,0.587 -2.48236,0.24733 h -1.82637 l -1.43653,0.0144 -2.73211,0.27801 -0.68697,0.0144 -1.49852,-0.41718 -0.57758,-0.43265 -1.70179,-1.74554 -2.35747,-2.84271 -0.53082,-0.58731 -1.72518,-1.16612 -2.92716,-0.85743 -1.67443,-0.0272 -1.01087,0.24704 -1.37394,0.42111 -0.96377,0.55875 -0.51348,0.45789 0.78268,0.47398 1.39339,1.13938 1.18648,0.67605 0.63227,-0.081 0.35124,-0.0656 0.52291,0.26647 1.56902,2.132 1.04792,0.82281 0.15027,0.33391 0.007,0.60068 -0.25764,2.61846 1.08954,2.41186 0.1671,0.23802 1.5456,-1.06617 5.4642,0.46366 7.04112,-0.24733 1.70179,0.3555 5.66716,3.89305 2.2013,0.35519 3.28689,0.10218 z"
      data-name="Riacho" id="riacho" />
   <path class="neighborhood"
      d="m 612.71302,950.04861 0.0514,0.0346 0.07,0.007 0.99476,-0.0589 1.95368,-0.0288 0.007,0.52382 2.23626,-0.60403 1.44078,-0.42993 4.62864,-1.6322 1.02606,-1.65075 0.96315,-0.59522 0.63473,-1.13938 0.31356,-1.63221 -0.92975,0.10218 -0.95952,-3.47649 -0.6347,0.13151 -0.16253,-0.33604 -0.27132,-1.16734 -0.62896,0.0279 -1.624,-0.73042 -2.9226,-0.84709 -3.66821,0.61345 -6.23657,1.75282 0.17071,3.56493 0.21518,5.9655 0.61708,0.0856 0.55452,0.0866 1.28948,0.1957 0.68454,0.11397 0.0784,0.0365 0.0428,0.0332 0.0459,0.0716 0.002,0.90604 0.0168,0.0748 z"
      data-name="Morro do Bom Jesus" id="morro_do_bom_jesus" />
   <path class="neighborhood"
      d="m 615.79057,950.52747 -0.007,-0.52382 -1.95368,0.0289 -0.99476,0.0589 -0.07,-0.007 -0.0515,-0.0346 -0.0168,-0.0748 -0.002,-0.90605 -0.0459,-0.0716 -0.0428,-0.0332 -0.0784,-0.0366 -0.68454,-0.11396 -1.28948,-0.19571 -0.55452,-0.0865 -0.61708,-0.0856 -0.21518,-5.96551 -0.97623,0.0567 -0.0505,1.11721 -11.07363,-0.33604 -1.66502,9.0051 0.71705,0.11829 -1.97434,5.62189 -0.0875,0.20484 -0.0822,0.15171 0.96652,0.42202 0.72616,0.21614 0.84558,0.19355 1.1883,0.23417 1.51402,0.5858 0.38497,0.13704 0.82764,0.29412 1.11447,0.52776 0.84344,0.59279 0.86078,0.8866 0.79999,1.16763 4.04804,4.3397 0.51439,0.26463 0.65446,0.15844 1.84641,-0.35063 0.35063,0.0334 0.70277,0.0668 1.09745,-0.0324 1.21475,-0.59583 1.34418,-0.7608 2.07308,-0.50194 3.05416,-0.96712 0.79756,-0.45849 0.80243,-0.27861 1.10961,-0.24042 1.08988,-0.0966 0.55175,-0.22432 0.57698,-0.37312 0.47369,-0.57363 0.5548,-0.54115 0.21807,-0.67572 0.14257,-0.75109 0.0517,-0.71554 -0.10097,-0.49556 -0.075,-0.37007 -0.20484,-0.47975 -0.65901,-1.0364 -0.25735,-1.04184 -0.0683,-1.4636 0.50891,-1.5374 -1.19468,-2.02415 -1.9163,1.17888 -3.8107,1.38488 -1.51007,-4.59339 -2.23626,0.60402 z"
      data-name="São Francisco" id="sao_francisco" />
   <path class="neighborhood"
      d="m 621.82294,937.39504 0.79454,-2.49844 -4.86868,-1.63526 -3.14411,0.71554 -7.30694,0.0587 -3.04476,-0.1118 -0.61282,0.66721 -2.47627,1.8604 -1.25637,1.05309 -0.63076,0.74472 -0.47186,0.75563 -0.37435,0.81762 -0.7055,1.0127 -0.42811,1.13938 -0.23081,1.34266 11.07363,0.33605 0.0505,-1.11722 0.97623,-0.0567 -0.1707,-3.56492 6.23656,-1.75283 3.66821,-0.61344 2.9226,0.84709 z"
      data-name="Centenário" id="centenario" />
   <path class="neighborhood"
      d="m 594.01126,913.95092 -0.16902,0.28645 -0.38504,0.61984 -0.30993,0.65271 -0.26767,0.76542 -0.0892,0.88751 -0.1832,2.30098 -0.16445,1.06593 -0.43671,1.06595 -0.76543,1.05658 -1.06126,1.30073 -1.37118,1.55433 -1.03309,0.81238 -0.93915,0.39444 -1.49798,0.26298 -1.20682,-0.38506 -1.38526,-0.75602 -5.57864,-2.146 -0.71378,-0.21615 -0.0798,0.56352 -0.17382,1.92528 -0.15965,1.8032 0.54942,0.0611 -0.0192,0.51184 1.18804,0.26767 0.77011,1.70457 3.92102,1.03778 2.30564,4.07128 1.99573,1.85487 0.4602,1.41813 -0.0144,-0.1784 0.14089,0.48838 0.48369,-1.6858 0.23946,-0.71846 0.23947,-0.23947 -0.23947,-0.72315 0.23947,-0.72316 -0.23947,-0.23946 0.23947,-0.23947 0.47897,-0.23946 0.96265,-0.23946 h 1.68582 l 1.44159,0.47897 0.71847,0.23947 0.72315,0.23946 0.96265,-0.47898 h 0.96266 0.47896 l 1.92531,0.47898 0.95793,0.24418 h 0.72315 l 0.47898,-0.24418 0.72316,-1.20213 v -0.23946 l -0.23947,-0.47898 v -1.92529 l -0.23946,-1.44162 v -0.72315 l 0.23946,-0.71847 -0.23946,-0.23946 -0.24421,-0.72316 -0.23946,-1.20213 -0.23946,-0.72315 -0.23947,-0.23947 v -0.47898 l 0.47898,-0.48366 0.72315,-0.47898 v -0.47898 l -0.23946,-0.24417 -0.48369,-0.47898 -1.44162,-1.20213 -0.47896,-0.47898 -0.48369,-0.72315 -0.47897,-0.72316 -0.48367,-0.47898 -0.71846,-0.23946 -0.48367,-0.48367 -0.23946,-0.71846 -0.23947,-1.20213 v -0.48367 l -0.47895,-0.47898 -0.2442,-0.72315 -0.47898,-0.23947 -0.23947,-0.23946 -0.005,0.005 z"
      data-name="João Mota" id="joao_mota" />
   <path class="neighborhood"
      d="m 703.29033,936.12622 2.08676,-0.98474 3.46798,-0.34941 2.27999,-0.63562 1.86222,-0.41291 10.05091,-5.43382 6.9682,-2.76459 -0.0644,-3.20943 -1.89442,-3.14593 -0.21278,-1.63921 1.20805,-0.52138 -1.69053,-2.72206 -6.1448,1.88227 -3.95778,2.56588 -7.69859,7.4121 -11.28723,4.27377 -4.78453,1.20745 -5.52312,-2.66921 -3.86055,-0.87383 0.28651,0.38891 1.7349,3.5321 1.6863,3.80037 1.49853,1.73035 0.5934,1.59119 0.0312,1.49853 -0.32784,0.84984 -1.44352,1.36877 4.52655,-1.37394 1.42287,-1.06192 1.42104,-1.06037 1.43594,-1.08348 0.50983,-0.33393 0.16613,-0.0839 0.33513,-0.12574 0.38923,-0.11084 1.62581,-0.50408 1.61764,-0.51225 1.68476,-0.48888 z"
      data-name="Cedro" id="cedro" />
   <path class="neighborhood"
      d="m 604.08467,915.57928 -0.50802,-0.0404 -0.14955,-0.0399 0.11685,0.80214 0.002,0.0418 0.0844,0.62073 0.3564,2.01201 0.35244,2.45165 0.3555,3.24225 0.24307,1.91995 0.25341,2.23046 0.037,0.3257 0.14185,1.29405 -0.0192,0.6572 -0.23153,0.98837 -0.10675,0.45547 -0.0435,0.10074 -0.0337,0.0666 -0.15364,0.30383 -0.37857,0.74684 -0.15123,0.16469 3.04476,0.1118 7.30694,-0.0587 3.1441,-0.71553 4.86869,1.63526 3.05478,-2.65282 0.16133,-0.95555 1.09867,0.22336 0.78937,0.0377 -0.94129,-1.679 -3.59772,-5.67839 -2.58078,-2.88432 -8.37982,-5.91906 -1.19165,-0.29288 -3.57495,0.51833 -1.6091,0.10507 -1.76165,-0.13969 z"
      data-name="Divinopolis" id="divinopolis" />
   <path class="neighborhood"
      d="m 634.19427,999.96927 2.97667,0.20293 8.07112,2.105 1.54046,0.6274 2.31826,0.8416 1.39673,0.642 0.81096,0.1957 2.36628,0.7329 0.1945,0.074 2.21495,-2.3669 0.44818,-0.1048 1.81239,-2.0241 0.28803,-0.3227 1.61609,-1.71334 0.14258,-0.14906 0.285,-0.12671 0.14401,-0.16349 0.95072,-1.03729 0.24245,-0.33059 0.37191,-0.47124 0.39832,-0.43721 0.49677,-0.43876 -0.62954,-1.03183 -0.53201,-1.71181 -0.14498,-1.14667 -1.21293,-1.87559 -0.357,-3.23919 -1.65926,-5.99289 -1.63677,-1.16338 -0.69943,-1.63435 -1.39885,-2.70931 v -0.69214 l -0.34212,-0.88354 -0.72922,-1.08957 -0.75897,-2.84177 -0.0298,-0.66268 -0.38677,-0.97166 -3.06541,0.14714 -1.63675,0.29474 -1.05007,-0.86869 -0.52716,0.16157 -1.13089,-0.44176 -1.22021,-0.73621 -1.27974,-1.67839 1.8452,-0.82462 0.17864,-1.0935 0.33087,-0.68818 0.74044,-0.69213 -0.20316,-1.13364 -0.0779,-0.43447 0.0337,-1.01056 -1.40433,-0.45455 -1.88987,-0.49343 -1.0938,-0.76566 -0.52807,-0.83921 -1.19559,-3.18998 -2.49755,4.3391 -0.9832,3.59348 -0.0216,1.65469 0.49526,4.07657 -0.77538,0.71008 -0.14353,1.19316 -1.72246,7.13013 -0.48795,4.92853 0.1005,2.30095 0.35881,1.96005 1.20564,2.48538 1.46418,8.24521 -0.22264,0.0284 0.0505,0.98017 -0.14378,0.39771 -0.17214,0.1207 -1.39947,0.71007 -0.4998,1.79842 z"
      data-name="Vassoural" id="vassoural" />
   <path class="neighborhood"
      d="m 622.55793,860.53078 -1.47483,13.9461 -7.20548,12.48799 -10.52793,16.92094 -0.36401,1.43169 -0.12141,1.64406 0.15892,1.30225 0.65658,5.17191 0.40502,2.14356 1.76165,0.13969 1.6091,-0.10506 3.57495,-0.51834 1.19165,0.29289 8.37982,5.91905 2.58079,2.88433 3.59771,5.67839 0.9413,1.67899 0.98656,1.39856 1.3624,1.00479 14.62942,2.84299 1.5851,-0.0817 1.35392,-0.41656 0.97166,-0.70186 1.66199,-4.72284 0.88903,-1.74068 1.42226,-1.66563 -0.007,-0.005 -1.91781,-1.2983 -1.40282,-3.18906 -0.50102,-1.04429 -0.11829,-0.82673 0.26495,-1.34267 0.94918,-2.52031 0.0692,-0.47977 0.36675,-1.49608 0.18873,-1.14001 0.45179,-0.59702 -1.31287,-1.10173 0.0368,-3.3106 -0.15075,-3.08881 -1.69116,0.113 -3.73536,0.91822 -3.25287,-5.9224 -0.68454,-5.90353 -0.14642,-0.27406 -0.32602,-4.3874 -0.93946,-3.02228 -0.68243,-1.58267 -0.88751,-1.14607 -0.0741,-0.44178 -0.90574,-1.61184 -0.6101,-1.81667 -0.76598,-1.70967 -1.63009,-4.82281 -0.0649,-4.46791 -0.6642,-4.52261 -1.3876,-1.6249 -8.49498,-3.2699 z"
      data-name="Mauricio de Nassau" id="mauricio_de_nassau" />
   <path class="neighborhood"
      d="m 680.06233,867.66972 1.23055,-1.69359 0.43176,-0.52836 0.51774,-0.56058 0.24304,-0.22624 0.46367,-0.44695 0.46883,-0.40166 0.56329,-0.45575 0.79605,-0.64384 0.005,-0.012 0.52077,-0.93401 0.0325,-0.76232 -0.0938,-0.77417 3.83047,-2.25811 5.2971,-5.82303 8.85439,-7.94806 4.02188,-1.82698 4.95497,-4.32267 2.08616,-0.67755 -2.73819,-15.54977 -91.99987,-36.81463 -1.1634,0.81033 -0.024,0.0192 0.40805,0.97166 2.20889,4.71798 0.44392,1.02028 0.47275,0.98017 0.40959,1.02638 0.18754,0.73587 0.19138,0.73378 0.17094,0.93156 0.14065,1.09108 0.16108,2.12929 0.18537,5.05097 0.12214,2.4234 0.0531,1.04855 0.0979,2.69806 0.14257,3.11523 0.17936,2.8731 0.0815,2.62725 0.0692,2.77251 0.045,2.31888 0.3728,8.53084 -1.947,26.89378 8.49499,3.26989 1.3876,1.6249 0.6642,4.52261 0.0649,4.46792 1.63009,4.8228 0.76598,1.70968 0.6101,1.81666 0.90574,1.61184 0.0741,0.44178 0.88751,1.14607 0.68242,1.58268 0.93947,3.02228 0.32602,4.38739 0.14642,0.27406 0.68454,5.90353 3.25287,5.9224 3.73536,-0.91821 1.69116,-0.113 0.15075,3.0888 -0.0368,3.3106 1.31288,1.10173 -0.0495,-0.11973 0.52959,-0.66752 0.88842,-1.16126 0.42385,-0.54022 0.56029,-0.58063 0.45818,-0.46791 0.51348,-0.47186 0.43601,-0.39317 0.78451,-0.66115 0.11396,-0.0866 0.0837,-0.0688 0.20172,-0.1392 0.27923,-0.2443 0.381,-0.27375 0.49497,-0.4032 0.28103,-0.20171 0.35458,-0.32876 0.21999,-0.24793 0.2099,-0.26798 0.25886,-0.38923 0.15893,-0.22383 0.25249,-0.34453 0.15892,-0.25433 0.47278,-0.71553 1.19804,-1.79659 0.86592,-1.41132 0.76812,-1.35086 0.35426,-0.59277 0.29349,-0.49192 0.93735,-1.69541 0.26281,-0.48189 0.99628,-1.81269 0.30962,-0.54233 0.10795,-0.2135 0.1017,-0.24824 0.0736,-0.26192 0.0447,-0.37706 0.0216,-0.44573 -0.0216,-0.54415 -0.10795,-1.00631 0.005,-0.47157 0.005,-0.42536 0.0286,-0.36915 0.0406,-0.43753 0.0919,-0.46761 0.0897,-0.39531 0.0935,-0.34058 0.14666,-0.46578 0.16902,-0.48006 0.34241,-0.86078 0.62136,-1.82058 0.34636,-1.00813 0.6317,-1.81664 0.51742,-1.61489 0.17719,-0.51228 0.10387,-0.37706 0.30777,-0.89511 0.1832,-0.70185 0.32936,-0.9975 0.16758,-0.51865 0.25281,-0.62105 0.19955,-0.3345 0.23634,-0.31874 0.30568,-0.29411 0.54173,-0.40348 0.76203,-0.41931 0.60311,-0.33878 0.81915,-0.54416 0.4685,-0.31479 2.57107,-1.93149 1.40585,-1.04852 0.91698,-0.70947 0.4114,-0.38738 0.39954,-0.4676 0.17094,-0.22192 z"
      data-name="Universitário" id="universitario" />
   <path class="neighborhood"
      d="m 650.774,958.67181 -0.95829,0.37067 -1.3229,0.22095 -0.53809,0.0897 -1.12724,0.31082 -0.56847,0.50649 -0.27863,0.22912 -0.20508,0.10387 -0.0308,10e-4 0.20316,1.13363 -0.74044,0.69214 -0.33087,0.68817 -0.17864,1.09351 -1.8452,0.82462 1.27974,1.67839 1.22022,0.73621 1.13089,0.44176 0.52716,-0.16157 1.05006,0.86869 1.63675,-0.29474 3.06541,-0.14714 0.38678,0.97166 0.0298,0.66268 0.75898,2.84177 0.72921,1.08956 0.34213,0.88355 v 0.69214 l 1.39885,2.70931 0.69942,1.63435 1.63677,1.16337 1.65926,5.9929 0.35701,3.23919 1.21292,1.87559 0.14498,1.14666 0.53202,1.71182 0.62953,1.03183 2.18673,-2.37873 0.79513,-0.82764 0.51228,-0.53507 1.6562,-1.83912 3.8405,-4.12093 1.55534,-1.65348 0.57424,-0.65932 0.43418,-0.42356 0.29626,-0.2932 1.36331,-1.3946 2.95967,-3.34099 0.82733,-1.32321 0.49983,-0.6177 0.45058,-0.68485 0.26829,-0.54022 0.21494,-0.85226 0.0947,-1.18374 0.24124,-3.17207 0.10291,-1.88773 -8.7095,-1.90021 -2.6777,-0.89114 -1.85583,-0.63167 -1.6863,-0.49557 -1.65348,-0.43964 -1.7516,-0.54509 -0.72313,-0.23129 -0.90394,-0.32268 -0.975,-0.34787 -0.9899,-0.22937 -2.24292,-0.70368 -2.28607,-0.71705 -1.61915,-0.50802 -0.13848,-0.0435 -0.024,-0.007 -0.6335,-0.20532 -0.24458,-0.0623 -1.07317,-0.29746 -0.0803,-0.0216 -0.32693,-0.14377 -0.24733,-0.13921 -0.0486,-0.0389 -0.10675,-0.15075 -0.14185,-0.17382 -0.10098,-0.10267 -0.14016,0.0452 z"
      data-name="Santa Rosa" id="santa_rosa" />
   <path class="neighborhood"
      d="m 652.60112,927.44202 -0.0192,0.024 -1.42282,1.66702 -0.88753,1.74215 -1.66231,4.71931 -0.97205,0.70438 -1.35239,0.41322 -1.58718,0.0846 -14.62751,-2.84567 -1.36178,-1.00491 -0.98613,-1.39466 -0.78891,-0.0375 -1.09882,-0.22528 -0.16445,0.95796 -3.05229,2.64844 -0.7936,2.4982 1.62007,0.73253 0.62924,-0.0281 0.27235,1.16924 0.16446,0.33342 0.63393,-0.13151 0.95795,3.47491 0.92978,-0.0986 -0.31462,1.62947 -0.63393,1.14108 -0.96265,0.59638 -1.02368,1.64822 -4.63011,1.63415 -1.4416,0.42731 -2.23522,0.60578 2.23522,-0.60106 1.51204,4.5925 3.80833,-1.38526 1.91589,-1.17865 1.19744,2.02389 0.0517,-0.46018 0.27236,-0.63864 0.22071,-0.51185 0.41325,-0.59635 0.55879,-0.48838 0.61985,-0.11733 2.59208,0.10796 0.63865,0.005 1.24908,-0.41324 0.88283,-0.2159 1.27726,-0.72787 2.13191,-0.86402 0.90629,-0.13608 1.39935,0.0986 0.52593,0.16446 0.48838,0.28644 0.70438,0.86873 -1.8032,2.97715 1.19742,3.18847 0.52593,0.84055 1.09413,0.76542 1.88774,0.49307 1.40404,0.45549 -0.0329,1.00962 0.0611,0.3334 h 0.0375 0.20653 l 0.01,-0.005 0.14089,-0.11276 0.12213,-0.12671 0.48369,-0.47897 0.15027,-0.0281 1.08002,-0.29585 0.21133,-0.0329 0.23947,-0.12213 1.44162,-0.24418 0.54002,-0.13608 0.38507,-0.14546 v -0.005 l 0.0375,-0.01 v -0.18321 l 0.72318,-0.23946 0.47896,-0.48367 0.23946,-0.47898 0.23947,-0.23946 0.96264,-0.23947 0.48369,-0.24417 0.47895,-0.23947 0.23947,-0.47898 0.23946,-0.48366 0.48367,-0.95796 0.23946,-0.24417 v -0.23947 l 0.47898,-3.3669 1.6858,-3.84589 0.71846,-1.44162 2.62029,-6.41919 -0.0469,-0.0659 -1.08945,-2.40895 0.25827,-2.62026 -0.005,-0.60107 -0.15027,-0.33342 -1.04717,-0.82175 -1.57309,-2.13191 -0.52124,-0.26767 -0.3522,0.0656 -0.62922,0.0798 -1.18807,-0.6762 -1.39464,-1.1364 -0.77951,-0.47429 z m -36.82,22.55877 -1.95346,0.0329 1.95346,-0.0281 z"
      data-name="Nossa Senhora das Dores" id="nossa_senhora_das_dores" />
   <path class="neighborhood"
      d="m 637.86561,688.31641 -1.94878,2.89733 -2.32444,4.08066 -1.16455,4.93533 -0.0144,1.74684 -10.62196,36.08273 -27.72886,23.65288 -11.33571,9.6969 0.13608,0.29114 3.71908,7.84672 2.54513,5.46126 3.37631,7.11886 0.73255,11.83349 -1.78911,0.49776 10.43881,12.07298 -0.28644,18.23858 1.45102,5.35326 0.3428,1.19273 3.20255,0.62453 3.05697,0.19715 2.52638,-0.3522 2.59677,-0.96733 2.86915,-2.2728 3.90224,-5.63968 1.03309,-2.52635 0.31931,-0.86402 0.75602,-1.23971 0.47429,-3.16969 -0.0423,-2.31973 -0.0705,-2.77055 -0.0798,-2.62966 -0.1832,-2.86916 -0.14089,-3.11801 -0.0986,-2.6954 -0.0517,-1.05186 -0.12214,-2.42307 -0.18777,-5.04801 -0.15964,-2.13189 -0.14089,-1.08944 -0.16902,-0.93447 -0.19258,-0.73255 -0.18778,-0.73725 -0.40853,-1.02368 -0.47429,-0.98142 -0.4414,-1.019 -2.21173,-4.71931 -0.40853,-0.97204 0.0281,-0.0192 1.15986,-0.80768 92.00064,36.81059 2.73766,15.55258 -2.08492,0.6762 -4.95411,4.32486 -4.02433,1.82667 -8.85163,7.94534 -5.29688,5.82282 -3.8318,2.25871 0.094,0.77479 -0.0329,0.76074 -0.52124,0.93446 -0.005,0.0144 -0.7936,0.64333 -0.56351,0.45549 -0.46958,0.40384 -0.46489,0.44611 -0.24418,0.22528 -0.51653,0.5588 -0.43202,0.53062 -1.23031,1.69051 -0.16902,0.22528 -0.39915,0.46489 -0.41323,0.38973 -0.91568,0.70909 -1.40876,1.04716 -2.56862,1.92999 -0.46957,0.31931 -0.81709,0.54003 -0.60576,0.3428 -0.76071,0.41793 -0.54473,0.40382 -0.30522,0.29116 -0.2349,0.31931 -0.19715,0.33811 -0.25357,0.61984 -0.16902,0.51653 -0.32872,1.00022 -0.1832,0.69967 -0.30993,0.89691 -0.10339,0.37567 -0.17839,0.51184 -0.51656,1.61538 -0.62924,1.81728 -0.34749,1.0096 -0.61985,1.81729 -0.34279,0.86402 -0.16902,0.47898 -0.14546,0.46488 -0.094,0.3428 -0.094,0.39445 -0.0892,0.46489 -0.0423,0.43671 -0.0281,0.37097 -0.005,0.42731 -0.005,0.46958 0.10796,1.00491 0.024,0.54473 -0.024,0.44609 -0.0423,0.37567 -0.075,0.26298 -0.10339,0.24886 -0.10795,0.2159 -0.30993,0.54003 -0.99551,1.81257 -0.26298,0.48367 -0.93446,1.69519 -0.29582,0.49307 -0.35221,0.59167 -0.7701,1.34771 -0.86405,1.41344 -1.19742,1.79851 -0.47429,0.71375 -0.15964,0.25358 -0.25358,0.3428 -0.15964,0.22528 -0.25827,0.38975 -0.20652,0.26767 -0.22072,0.24887 -0.35686,0.32871 -0.28176,0.20195 -0.49306,0.40385 -0.38036,0.27235 -0.28175,0.24418 -0.20196,0.14089 -0.0798,0.0656 -0.11733,0.0892 -0.7842,0.66212 -0.43671,0.38975 -0.51184,0.47427 -0.45549,0.46488 -0.56351,0.58229 -0.42262,0.54002 -0.88751,1.15987 -0.53062,0.67151 0.0517,0.11733 -0.45549,0.59638 -0.18777,1.14108 -0.36627,1.49798 -0.0704,0.47898 -0.94856,2.51695 -0.26295,1.34302 0.11733,0.82647 0.50244,1.04715 1.39935,3.18846 1.9206,1.29607 0.005,0.005 0.0192,-0.024 0.51654,-0.45548 0.96264,-0.5588 1.37589,-0.42263 1.00959,-0.24417 1.67171,0.024 2.9302,0.85933 1.72338,1.16458 0.53062,0.58698 2.3573,2.84566 1.70458,1.74215 0.5776,0.43671 1.49795,0.41325 0.6856,-0.0144 2.73298,-0.27707 1.4369,-0.0144 h 1.82669 l 2.4794,-0.24887 1.17395,-0.58697 1.34302,-1.45102 2.70009,-3.85058 0.25826,0.71847 3.85998,0.87342 5.5223,2.66722 4.78504,-1.20682 11.28879,-4.2732 7.69645,-7.41001 3.95858,-2.56862 6.14214,-1.88304 0.24887,-0.0517 0.30524,-0.0469 0.75603,-0.0611 0.33811,-0.0281 0.50244,-0.0281 0.32402,-0.0563 1.1176,-0.27236 0.73724,-0.22071 0.48836,-0.1784 1.34302,-0.4602 4.4845,-3.66744 7.59317,-2.31975 0.54471,1.36649 2.54985,7.26446 0.75602,0.72315 0.8781,-0.20653 -0.50244,-1.19742 0.89691,-1.26317 10.14768,-3.6252 12.46271,-3.12273 13.76348,-9.43861 3.87406,-1.91588 4.86957,-1.23031 1.51675,-0.22071 -1.06595,-1.59658 -0.92038,-0.6856 -24.7517,-8.25526 -29.54145,10.76284 -12.59892,-67.58705 -1.23968,-3.35282 -39.37453,-63.77403 -40.5062,-65.52087 -3.63457,-5.68664 z"
      data-name="Salgado" id="salgado" />
   <path class="neighborhood"
      d="m 653.8692,1005.3909 -0.1945,-0.074 -2.36628,-0.7329 -0.81096,-0.1957 -1.39673,-0.642 -2.31826,-0.8416 -1.54046,-0.6274 -8.07111,-2.105 -2.97667,-0.20293 -3.1675,-1.26762 -35.3842,-8.4357 -3.72382,-0.81156 -8.47036,-0.74804 -0.32419,5.58116 -0.007,0.16542 -0.48674,3.57949 -0.0543,0.27954 -0.0668,0.40228 -0.88295,4.17716 -1.48182,5.6787 -0.10049,0.4615 -0.45727,2.0995 -0.44816,1.8647 -0.71767,3.1422 -0.51773,2.2278 -0.3391,1.2496 -1.73549,7.5276 -0.58277,3.4197 -0.37403,2.8202 -6.1e-4,3.0414 -0.007,1.1555 0.0257,4.4788 0.031,5.5496 0.1808,2.023 0.35641,1.1096 0.0366,0.099 0.0216,0.051 0.0274,0.058 0.32633,0.587 0.37312,0.6113 0.0378,0.056 0.0332,0.039 0.10819,0.1142 0.40045,0.4338 10.44622,9.9756 7.33278,6.7145 0.43539,0.4266 2.20555,2.2253 0.95284,1.0339 0.89873,-0.9571 0.46032,-0.2248 0.5226,-0.411 0.0334,-0.056 1.88682,-3.1413 0.49312,-0.8577 0.90878,-1.5806 0.28318,-0.6007 0.2455,-0.9212 0.0892,-0.4619 0.14714,-0.6854 0.0589,-0.2923 0.80185,-4.8097 0.89022,-4.7095 0.23226,-1.0683 0.64201,-1.9072 3.05387,-8.0495 0.47063,-0.9729 0.491,-0.6864 0.66327,-0.5624 1.97738,-1.0743 3.79946,-1.9516 2.74639,-1.4222 0.45758,-0.2963 0.42476,-0.3469 0.28015,-0.258 0.28226,-0.3388 0.65809,-1.0914 2.7789,-4.7538 2.84633,-5.1409 0.80548,-1.0728 0.51439,-0.6852 0.81519,-0.6612 1.80907,-0.8868 7.58343,-3.4674 4.14526,-1.8601 1.86859,-0.8386 0.98563,-0.5661 0.70765,-0.5912 1.9959,-2.0904 1.157,-1.2117 0.78694,-0.8243 0.70368,-0.7602 2.26936,-2.2724 0.005,-0.3558 z"
      data-name="Cidade Alta" id="cidade_alta" />
   <path class="neighborhood"
      d="m 641.39153,950.34001 -0.70308,-0.87172 -0.48734,-0.28651 -0.52988,-0.16037 -1.39675,-0.0995 -0.90694,0.13632 -2.13294,0.86351 -1.27611,0.72496 -0.88417,0.21807 -1.24724,0.41476 -0.63746,-0.007 -2.59293,-0.10747 -0.62104,0.11781 -0.55664,0.48797 -0.41565,0.59672 -0.21807,0.5135 -0.27408,0.63593 -0.0526,0.46061 -0.50891,1.5374 0.0683,1.4636 0.25735,1.04184 0.65901,1.0364 0.20484,0.47975 0.075,0.37006 0.10098,0.49557 -0.0517,0.71553 -0.14257,0.7511 -0.21807,0.67571 -0.55481,0.54116 -0.47368,0.57363 -0.57698,0.37312 -0.55175,0.22431 -1.08988,0.0967 -1.10962,0.24042 -0.80242,0.27861 -0.79757,0.45849 -3.05416,0.96712 -2.07307,0.50193 -1.34418,0.76081 -1.21475,0.59582 -1.09745,0.0325 -0.70277,-0.0668 -0.35064,-0.0334 -1.8464,0.35064 -0.65446,-0.15844 -0.5144,-0.26464 -4.04803,-4.33969 -0.79999,-1.16763 -0.86078,-0.8866 -0.84344,-0.59279 -1.11447,-0.52776 -0.82765,-0.29412 -0.38497,-0.13704 -1.51401,-0.5858 -1.18831,-0.23418 -0.84558,-0.19354 -0.72616,-0.21614 -0.96651,-0.42202 -0.0399,0.0642 -0.25098,0.84892 -0.87171,2.62423 -0.508,1.52861 -0.66663,1.48485 -0.90785,1.59576 -1.03549,1.50216 -1.38214,2.00532 -0.51259,0.7435 -1.291,1.87313 -0.15435,0.22672 -0.21783,0.32054 -0.45118,0.77146 -0.53202,0.90936 -0.33727,0.67909 -0.1166,0.23465 -0.0774,0.16566 -0.24095,0.97016 -0.23971,0.96621 -0.26493,1.0069 -0.0361,0.23249 -0.16253,2.02081 -0.21518,3.62234 -0.012,3.89094 8.47036,0.74804 3.72382,0.81155 35.3842,8.4357 3.1675,1.26762 0.4998,-1.79841 1.39947,-0.71007 0.17215,-0.1207 0.14377,-0.39771 -0.0505,-0.98017 0.22264,-0.0284 -1.46418,-8.24521 -1.20564,-2.48538 -0.35881,-1.96005 -0.1005,-2.30096 0.48795,-4.92852 1.72246,-7.13013 0.14353,-1.19317 0.77538,-0.71007 -0.49526,-4.07657 0.0216,-1.65469 0.9832,-3.59348 2.49755,-4.3391 1.80265,-2.97667 z"
      data-name="Petropolis" id="petropolis" />
   <path class="neighborhood"
      d="m 603.1209,913.25068 0.55875,0.18513 -0.65658,-5.17191 -0.52899,0.10122 -0.76383,0.2123 -10.42008,-12.9647 -0.4591,-0.25584 -1.07405,-1.61701 -2.47082,-4.90182 -0.50253,-4.77205 -1.27703,-2.34348 -9.07044,-7.72596 0.48159,-2.57593 0.18682,-1.11204 14.32344,-65.84867 -19.22038,6.30035 -6.67226,-3.78609 -3.21368,-4.81613 -1.8057,-1.96885 -12.91578,-3.33219 -2.35656,-0.27252 -1.92815,1.06009 -2.84633,9.17798 1.1324,8.63261 0.55084,8.81429 -0.74986,2.51395 -1.8215,1.73915 -6.91653,-5.94942 -7.52907,-4.57366 -2.23412,-0.33299 -7.80465,1.09017 -5.60092,-1.15095 -13.61946,-6.43648 -6.16727,-1.42378 -6.24356,-0.69668 -8.38588,-2.04452 -7.00891,0.66661 -7.08546,-0.60585 3.42788,22.35357 2.0813,0.60585 3.39717,14.02388 1.34692,3.15016 1.765,1.64346 4.29502,15.62115 -1.22447,4.87628 4.00945,4.05863 3.91765,9.08656 0.13464,2.56893 -0.0457,1.6468 -0.0435,1.57934 -0.0411,1.48393 -0.0481,1.74069 -0.0382,1.38942 -0.0356,1.28645 0.58003,0.31842 3.92436,2.52792 1.89805,1.4967 2.11015,2.02752 0.34424,0.33087 1.91235,0.90391 1.42044,0.39834 2.39969,0.673 2.37328,0.66569 0.64718,0.28014 1.17948,0.51074 0.63747,0.46001 1.57448,1.13575 1.76953,1.70878 1.11811,1.01725 2.99583,3.91096 0.88234,1.15186 0.82493,1.07709 0.84101,1.09776 0.80396,1.36331 0.63016,1.068 0.72342,1.18768 0.41565,0.61742 0.44149,0.48643 0.508,0.33847 0.54295,0.25644 1.28371,1.15215 0.65264,0.82827 0.23009,0.41048 0.28074,0.50194 22.10653,1.51886 11.5622,-0.36703 0.21783,-0.91028 0.34244,-0.59674 0.33421,-0.48402 0.70066,-0.57241 0.75806,-0.36309 0.83918,-0.24185 0.8395,-0.0805 0.93735,0.12887 1.9394,0.66144 1.66531,0.39316 1.99347,-0.24884 2.6759,-1.19073 1.43684,-0.31994 2.10132,0.0887 2.01172,0.7289 4.14099,1.24695 0.71644,0.21566 5.57722,2.14508 1.38428,0.75444 1.20745,0.38586 1.49881,-0.2613 0.93735,-0.39348 1.03578,-0.81276 1.3706,-1.55594 1.0604,-1.30011 0.76687,-1.05826 0.4339,-1.06466 0.16781,-1.06737 0.1796,-2.29852 0.0897,-0.8872 0.26889,-0.76597 0.30962,-0.65324 0.38315,-0.62105 0.18705,-0.31053 0.19571,-0.13296 0.47275,-0.4758 0.66845,-0.49982 1.13878,-0.61191 1.66046,-0.20196 1.07528,-0.0144 1.42924,0.37738 1.87833,0.70033 0.57455,0.18393 z"
      data-name="Boa Vista" id="boa_vista" />
   <path class="neighborhood"
      d="m 603.02307,908.26381 -0.15892,-1.30225 0.12141,-1.64406 0.36401,-1.43169 10.52793,-16.92094 7.20548,-12.48799 1.47483,-13.9461 1.94699,-26.89378 -0.3728,-8.53083 -0.47369,3.17144 -0.76052,1.23572 -0.31568,0.86623 -1.03335,2.52823 -3.90368,5.6386 -2.87033,2.27239 -2.59752,0.96589 -2.52578,0.35489 -3.0569,-0.19883 -3.20062,-0.62499 -0.34425,-1.19316 -1.4496,-5.35451 0.28712,-18.2369 -10.43922,-12.07142 -14.32345,65.84867 -0.18681,1.11204 -0.4816,2.57593 9.07045,7.72596 1.27702,2.34348 0.50254,4.77206 2.47082,4.90181 1.07405,1.61701 0.4591,0.25584 10.42008,12.9647 0.76383,-0.2123 0.52899,-0.10121 z"
      data-name="Nova Caruaru" id="nova_caruaru" />
   <path class="neighborhood"
      d="m 730.00714,925.54491 -6.96862,2.76584 -10.04907,5.43308 -1.86425,0.41322 -2.28217,0.63396 -3.46551,0.35218 -2.08495,0.98142 h -0.005 l -1.68111,0.48837 -1.62006,0.51654 -1.62476,0.50246 -0.38975,0.10795 -0.3334,0.12671 -0.16902,0.0846 -0.50713,0.3334 -1.43693,1.08473 -1.42285,1.06127 -1.42282,1.06124 -4.52679,1.37589 v -0.005 l -3.28706,-0.10339 -2.19767,-0.3522 -5.66786,-3.89284 -1.70457,-0.35686 -7.03906,0.24887 -5.46593,-0.46489 -1.54493,1.06595 -0.12213,-0.17383 -2.62029,6.41919 -0.71847,1.44162 -1.68579,3.84589 -0.47898,3.36691 v 0.23946 l -0.23947,0.24418 -0.48366,0.95795 -0.23947,0.48367 -0.23946,0.47898 -0.47896,0.23946 -0.48369,0.24418 -0.96264,0.23946 -0.23946,0.23947 -0.23947,0.47897 -0.47895,0.48367 -0.72318,0.23946 v 0.18321 l 0.10338,-0.0329 0.0986,0.10338 0.14089,0.17383 0.10795,0.15027 0.0469,0.0375 0.24887,0.14089 0.32871,0.14089 0.0798,0.024 1.07067,0.29584 0.24417,0.0656 0.63394,0.20196 0.024,0.01 0.14089,0.0423 1.62006,0.50715 2.28218,0.71847 2.2446,0.70435 0.99082,0.23009 0.97673,0.34749 0.9016,0.324 0.72315,0.23009 1.75156,0.54471 1.65293,0.43671 1.6858,0.49775 1.85955,0.63393 2.67662,0.88751 8.70605,1.90182 -0.0986,1.88774 -0.2442,3.16966 -0.094,1.18806 -0.2159,0.84993 -0.26767,0.54003 -0.4508,0.6856 -0.49775,0.61515 -0.82647,1.32422 -2.96306,3.34342 -1.3618,1.39466 -0.29585,0.29114 -0.43671,0.42264 -0.57288,0.66211 -1.55431,1.65293 -3.8412,4.11824 -1.65762,1.84075 -0.51184,0.53534 -0.7936,0.82646 -2.18827,2.38078 -0.49775,0.43671 -0.39444,0.43671 -0.37567,0.47429 -0.23946,0.32871 -0.95327,1.03777 -0.14089,0.16446 -0.28644,0.1267 -0.14089,0.15027 -1.62007,1.70928 -0.28644,0.324 -1.8126,2.0239 -0.44611,0.108 -2.21642,2.3667 h 0.005 l -0.005,0.3521 -2.27278,2.2728 -0.70437,0.7608 -0.7842,0.8264 -1.15989,1.2116 -1.99571,2.0896 -0.70437,0.5917 -0.98614,0.5635 -1.86893,0.8405 -4.14641,1.8596 -7.58377,3.4702 -0.17383,0.2958 -0.41791,1.5215 -0.31933,1.7703 1.70928,0.01 4.6254,-2.4888 9.73445,0.7326 1.69049,1.4134 7.29732,1.6248 0.84996,2.5122 4.44223,0.7326 12.32186,-13.9231 6.34877,13.0309 7.70583,-15.0924 -0.005,-0.01 -2.77053,-0.5823 -4.53148,-1.1552 -3.15091,-0.803 -0.005,-0.08 0.005,-2.517 1.05658,-3.4937 3.33404,0.028 2.76113,-3.5313 1.019,0.014 1.77502,1.0143 2.54044,0.019 -0.01,1.0002 3.51248,3.5594 1.74213,0.7889 4.6442,0.024 5.24993,2.7893 7.16583,-5.4847 5.28751,-0.756 4.36241,-3.40453 2.7142,0.74663 1.79848,-0.028 2.4982,-1.46513 6.25484,-3.79421 -4.32486,-8.85633 5.04801,-4.67235 1.38996,-1.3712 6.0811,-3.52186 4.41877,-4.37181 1.05656,4.55495 2.64375,2.32913 5.31568,-3.69091 -0.84524,-3.45144 0.10795,-5.70544 -1.6952,-2.72357 -11.17136,-6.56946 -1.97224,-2.18358 -3.88815,-7.25974 -1.94407,-9.92228 -1.16926,-3.2495 -0.12214,-3.2636 -0.695,-2.146 -1.23969,-2.08495 z m -79.61777,33.27465 -0.54002,0.13608 -1.44162,0.24417 -0.23947,0.12214 0.32403,-0.0563 1.32422,-0.22528 z m -3.489,0.82646 -0.17382,0.0329 -0.48369,0.47898 -0.12214,0.1267 0.13608,-0.11276 0.5682,-0.50715 z m -1.17395,0.75602 0.0192,0.10339 h 0.0281 l 0.19715,-0.10339 h -0.20652 z"
      data-name="Indianópolis" id="indianopolis" />
   <path class="neighborhood"
      d="m 599.23772,911.98806 -1.07533,0.0144 -1.65764,0.20195 -1.14109,0.61516 -0.6668,0.49775 -0.47429,0.47429 -0.19715,0.13608 -0.0144,0.024 0.0563,0.0517 0.005,-0.005 0.23946,0.23946 0.47898,0.23947 0.2442,0.72315 0.47895,0.47898 v 0.48367 l 0.23947,1.20213 0.23946,0.71846 0.48367,0.48367 0.71846,0.23946 0.48367,0.47898 0.47898,0.72316 0.48369,0.72315 0.47895,0.47898 1.44162,1.20213 0.48369,0.47898 0.23947,0.24417 v 0.47898 l -0.72316,0.47898 -0.47898,0.48366 v 0.47898 l 0.23947,0.23947 0.23946,0.72315 0.23947,1.20213 0.2442,0.72316 0.23946,0.23946 -0.23946,0.71847 v 0.72315 l 0.23946,1.44162 v 1.92529 l 0.23947,0.47898 v 0.23946 l -0.72316,1.20213 -0.47897,0.24418 h -0.72316 l -0.95793,-0.24418 -1.92531,-0.47897 h -0.47895 -0.96267 l -0.96264,0.47897 -0.72316,-0.23946 -0.71846,-0.23947 -1.4416,-0.47897 h -1.68582 l -0.96264,0.23946 -0.47898,0.23947 -0.23947,0.23946 0.23947,0.23947 -0.23947,0.72315 0.23947,0.72315 -0.23947,0.23947 -0.23946,0.71846 -0.48369,1.6858 -0.14089,-0.48838 0.0144,0.18321 0.0846,0.25826 -0.41325,0.83116 -0.29584,0.31931 -0.61985,1.76093 -0.3428,0.70909 -0.1832,0.69498 -0.36158,0.7936 -0.69029,0.38975 -0.46957,0.68558 -0.24889,0.6856 -0.39445,0.70906 -0.44611,0.61047 -0.4414,0.48835 -0.39444,0.3428 -0.17383,0.24418 0.19715,0.7842 0.74196,0.80769 0.86402,0.63393 0.76542,0.61046 0.60575,0.60107 0.15965,0.15964 0.17382,0.70907 -0.29584,0.75602 -0.22528,0.7842 v 0.43671 l -0.0704,0.62455 0.024,0.48367 0.10338,0.26767 1.127,0.17839 0.27704,-0.0192 0.29113,0.094 0.31463,0.17382 1.20213,0.25829 0.85935,-0.0798 0.80298,0.17383 0.65273,0.27236 0.64802,0.26295 0.62454,0.21614 0.73255,0.3334 0.45549,0.15027 0.49307,0.26295 0.58697,0.32403 -0.12213,0.42262 0.1267,-0.42262 0.0375,-0.0611 0.0846,-0.15027 0.0844,-0.20653 1.97695,-5.6209 -0.71847,-0.11733 1.66702,-9.00658 0.23009,-1.343 0.42734,-1.14109 0.70435,-1.01431 0.37569,-0.81707 0.46958,-0.75602 0.63393,-0.74195 1.25377,-1.05187 2.4794,-1.86424 0.61047,-0.6668 0.15026,-0.16445 0.38036,-0.74664 0.15027,-0.30522 0.0375,-0.0659 0.0423,-0.0986 0.10795,-0.45548 0.23009,-0.99083 0.0192,-0.65742 -0.14089,-1.29135 -0.0375,-0.32871 -0.25355,-2.23051 -0.2442,-1.91591 -0.35687,-3.24482 -0.3522,-2.45122 -0.35217,-2.00982 -0.0846,-0.62453 -0.005,-0.0423 -0.11733,-0.79829 0.15027,0.0375 0.50715,0.0423 -0.40384,-2.146 -0.5588,-0.1832 -0.57289,-0.18321 -1.87833,-0.70437 z"
      data-name="Caucaia" id="caucaia" />
   <path class="neighborhood"
      d="m 841.47668,877.65686 -0.3334,0.41324 -0.0281,4.00553 0.0329,-4.00553 z m 1.29136,8.60745 -0.17383,6.13746 -0.93916,4.24502 -2.48879,2.64844 2.49348,-2.64844 0.93918,-4.24502 z m -46.4887,6.18911 1.06595,1.59657 -1.06126,-1.59657 z m 1.06595,1.59657 -1.51675,0.22071 -4.86957,1.23031 -3.87406,1.91589 -13.76347,9.43861 -12.46272,3.12273 -10.14768,3.6252 -0.89691,1.26317 0.50245,1.19742 -0.87811,0.20653 -0.75602,-0.72316 -2.54985,-7.26445 -0.54471,-1.36649 -7.59317,2.31975 -4.4845,3.66744 -1.34302,0.4602 -0.48836,0.1784 -0.73724,0.22071 -1.1176,0.27235 -0.32402,0.0563 -0.50244,0.0281 -0.33811,0.0281 -0.75603,0.0611 -0.30524,0.0469 -0.24418,0.0517 1.69051,2.72359 -1.21153,0.52123 0.2159,1.63884 1.89242,3.14622 0.0659,3.20724 1.71398,1.54493 1.23968,2.08495 0.695,2.146 0.12214,3.26359 1.16926,3.24951 1.94407,9.92228 3.88815,7.25974 1.97224,2.18358 11.17136,6.56946 1.6952,2.72357 -0.10795,5.70544 5.28282,-0.50247 4.1417,0.92978 3.22135,0.0423 4.22624,3.43736 5.35324,-2.46531 1.75624,-3.66275 0.73256,-2.54513 6.42388,-1.86425 2.53106,-2.52166 8.02986,0.88751 2.69539,-1.77973 5.33446,-2.54513 6.35815,-1.61535 7.00619,1.03777 8.70137,-2.71419 -0.7936,-3.62049 1.84075,-6.0623 9.9129,-4.39062 12.23734,-8.7765 -0.67151,-2.50286 -5.4143,-1.07536 0.0611,-5.2781 -1.65293,-7.07661 -2.77993,-6.31588 -4.04313,-4.07129 -2.03328,0.97202 -2.58271,-2.32442 -1.55431,-0.25357 -1.05186,1.69519 -2.4794,1.8032 -3.76135,-1.36649 -3.12744,1.7938 -0.92507,3.39509 -4.02902,-1.0002 -5.22177,2.99593 -1.49326,0.13608 -0.96264,-1.59189 -1.01431,-3.64866 -1.54963,-0.73724 -2.09432,1.43693 -2.84098,-2.19764 1.86424,-5.81344 -1.68579,-5.08088 -0.094,-0.27238 -1.26787,-1.9112 -0.34748,-0.51653 z m 38.10664,7.52742 1.25849,5.22646 h 0.005 z"
      data-name="Rendeiras" id="rendeiras" />
</svg>