<?xml version="1.0" encoding="UTF-8" standalone="no"?>
<svg version="1.1" id="svg2" width="1000" height="1076.8083" viewBox="0 0 1000 1076.8083" xml:space="preserve"
   xmlns="http://www.w3.org/2000/svg" xmlns:svg="http://www.w3.org/2000/svg">
   <defs id="defs6" />
   <path class="neighborhood"
      d="m 574.22841,141.03793 -4.01264,190.97333 -32.8086,56.92816 -3.80231,50.33967 14.05653,18.22215 14.25594,23.02967 6.05857,4.93863 6.63765,29.77386 93.58005,103.80423 209.67623,-5.97663 8.96494,-9.36648 -2.98286,-5.05063 5.09981,0.44524 1.15271,-6.24978 5.91107,-0.34144 4.76107,-15.09998 4.04543,0.0983 c 0,0 1.59169,-7.44656 1.9749,-7.52541 0.38322,-0.0789 3.94709,0.22125 3.94709,0.22125 l 1.16091,-4.79933 -84.14529,-1.5761 -17.42453,-30.6698 112.7473,-58.1874 43.53812,-5.61878 2.13608,-0.89869 -1.82741,-0.79488 -0.9096,-11.80575 1.71541,-4.3732 -7.46806,-6.97911 -4.62996,-10.08213 -9.7926,-8.34213 -12.24825,-2.85175 -1.78917,-4.14375 -8.17824,-2.7097 -3.42536,-4.74468 0.25676,-4.26669 5.87282,-14.67933 -7.05558,-0.44251 -1.5242,-8.79284 -2.79984,-4.2339 0.82494,-4.12464 15.8894,1.41222 18.08557,-0.78396 7.33966,-2.08963 10.92892,3.64388 12.33294,-0.63372 L 1000,360.11339 959.25079,346.22348 c 0,0 -1.66324,1.68196 -2.5376,1.63621 -0.87436,-0.0457 -4.03723,-0.29501 -4.03723,-0.29501 l -8.19737,-5.30467 -8.97587,-0.0983 -6.76876,1.66897 h -9.03322 l -32.33605,-9.41018 -13.70143,3.8788 -29.89405,-12.84647 c 0,0 -34.88068,-23.90196 -36.04821,-24.12502 -1.16756,-0.22305 -19.40491,-15.34036 -19.40491,-15.34036 l -25.67654,-25.87594 -18.35327,-21.77043 -5.21178,-4.88126 -2.08144,-5.36476 -19.72176,-12.45039 -11.71834,-6.48196 -24.74508,-10.62298 -10.94803,-9.1698 -10.78415,-2.48025 -10.1996,-3.30244 -11.50254,-2.97465 -10.47821,-6.55298 -13.87625,-4.40052 z"
      data-name="Sede" id="sede" />
   <path class="neighborhood"
      d="m 968.75658,468.45201 -2.13608,0.89868 -43.53812,5.61878 -112.7473,58.1874 17.42453,30.66981 84.14529,1.5761 2.59223,-10.70767 4.32132,-0.0246 10.43177,-20.03863 12.60063,-28.36985 8.55519,-9.05507 17.15138,-11.92593 6.05038,-14.7203 z"
      data-name="Jurema" id="jurema" />
   <path class="neighborhood"
      d="m 542.90581,103.82608 c -1.28825,0.83214 -8.41043,8.27112 -8.41043,8.27112 l 0.1393,2.81896 -3.90339,5.46582 -1.32479,6.55844 4.4333,2.72063 1.43951,4.63815 -1.66897,3.3325 -6.98457,4.32676 -15.43869,18.78758 -3.49365,26.98767 -7.42434,6.59669 -0.35511,6.76331 6.86439,9.89639 15.00165,5.64338 3.73129,4.96321 -0.55997,4.49067 -6.18968,2.80802 0.0628,6.17603 -3.35162,1.11447 -1.4122,3.43356 -3.35434,10.47548 -2.64687,1.22099 0.3633,4.39234 -3.92523,8.69177 -3.01563,0.73753 -6.12959,6.1132 -7.57458,0.75937 -6.91354,-4.4333 -6.74146,2.4338 1.72633,3.35981 -1.68809,1.66078 -6.32353,0.16116 -2.87905,-1.36577 -0.5026,-3.91431 -2.98831,-0.69381 -3.21776,1.27563 -3.70398,-0.70474 -2.30269,-2.28904 -6.65406,1.93121 -6.00393,7.76852 -0.52992,3.24234 -2.92822,1.45864 -2.77252,-0.45617 -8.2438,7.86686 -0.20488,6.25252 -3.57559,1.30567 -1.85199,3.6193 -4.69552,0.16117 -3.90612,3.07298 -0.63098,3.44175 3.27785,2.97192 -0.83585,2.15246 -4.72284,0.88502 -1.3685,4.08367 0.0464,6.28254 -3.73949,-0.17754 -4.43876,3.19864 -0.36056,5.49313 0.27589,6.80702 2.66871,4.8048 -3.38712,2.56764 0.80582,6.09409 -2.61683,0.99427 -0.93692,5.1162 -8.32849,0.93692 -6.62126,8.73548 4.72831,8.771 -6.11321,11.13104 5.71167,10.30887 -1.7837,18.87225 8.77919,12.027 -3.34342,12.82461 9.05781,18.5035 12.43672,12.10347 28.29336,14.30239 61.71657,0.60639 63.59586,-6.11319 -1.1254,-0.9178 -14.25594,-23.02967 -14.05653,-18.22215 3.80231,-50.33967 32.8086,-56.92816 3.96074,-188.55865 -0.0164,-0.014 0.0519,-2.7616 -0.19939,-0.14203 -31.09593,-36.68741 z"
      data-name="Guararu" id="guararu" />
   <path class="neighborhood"
      d="m 469.47092,0 -63.78161,56.045869 -123.31293,279.377101 -89.65482,-47.77748 -8.61803,9.87727 -1.55424,5.97116 2.75613,5.32924 3.20137,5.40301 0.51353,7.39156 -2.76979,7.326 2.95008,1.90389 0.0765,7.89691 -16.88915,17.68129 4.44696,2.72063 6.23886,1.08715 15.85935,-3.59198 11.1174,-0.37149 10.50006,6.95451 8.11269,7.23314 24.15507,44.42041 5.2391,7.60463 0.98062,22.79474 -6.22519,8.99225 -8.02255,6.08043 -2.48843,5.75264 -0.29774,15.80745 4.41417,12.11441 23.45852,12.95572 31.09046,30.38299 -2.76159,35.2069 3.10303,6.07223 0.57636,9.8882 20.19979,39.68663 0.52992,8.58799 -7.53907,27.07235 -10.67761,16.68429 3.02655,4.85942 -3.46087,55.01881 2.7971,4.40872 6.64585,0.003 3.12763,-2.81897 7.48443,3.82145 10.287,0.0765 7.42708,-6.32625 4.44696,-11.39056 1.66624,-17.90255 1.8875,-3.1085 9.12337,0.10923 1.06803,-9.92643 13.02401,-9.2654 10.5629,-2.93096 45.95553,0.32232 15.29119,-21.00286 11.98876,-22.69914 27.73885,0.51899 14.23956,-11.04911 11.65823,-42.89621 31.21066,-52.60957 5.04789,-11.98603 4.00172,-6.06403 1.95032,-6.6759 4.67368,-6.74419 0.7621,-8.60984 5.38115,-7.44345 4.91952,-1.18823 -0.35511,-1.59249 -1.84652,-1.50509 -3.00743,-2.45019 -0.0983,-0.0628 -63.57674,6.11047 -61.71656,-0.6064 -28.29336,-14.30238 -12.43672,-12.10348 -9.05782,-18.50349 3.34342,-12.82461 -8.77918,-12.027 1.7837,-18.87225 -5.71167,-10.30887 6.11321,-11.13104 -4.72831,-8.77101 6.62126,-8.73548 8.32849,-0.93691 0.93691,-5.1162 2.61683,-0.99427 -0.80581,-6.09409 3.38712,-2.56765 -2.66871,-4.80479 -0.2759,-6.80702 0.36056,-5.49313 4.43877,-3.19864 3.73949,0.17754 -0.0464,-6.28254 1.36849,-4.08368 4.72284,-0.88501 0.83586,-2.15246 -3.27785,-2.97192 0.63098,-3.44175 3.90611,-3.07299 4.69553,-0.16116 1.85199,-3.6193 3.57559,-1.30568 0.20488,-6.25252 8.2438,-7.86685 2.77252,0.45617 2.92822,-1.45864 0.52992,-3.24234 6.00393,-7.76852 6.65406,-1.93121 2.30268,2.28904 3.70398,0.70474 3.21776,-1.27563 2.98832,0.69381 0.50259,3.91431 2.87906,1.36577 6.32353,-0.16116 1.68809,-1.66078 -1.72633,-3.35981 6.74145,-2.4338 6.91355,4.43329 7.57458,-0.75937 6.12959,-6.11319 3.01563,-0.73753 3.92523,-8.69177 -0.36331,-4.39234 2.64688,-1.22099 3.35434,-10.47549 1.4122,-3.43355 3.35162,-1.11447 -0.0628,-6.17603 6.18968,-2.80803 0.55997,-4.49066 -3.7313,-4.96321 -15.00164,-5.64338 -6.86439,-9.89639 0.35511,-6.76331 7.42433,-6.59669 3.49366,-26.98767 15.43869,-18.78759 6.98457,-4.32675 1.66897,-3.3325 -1.43951,-4.63815 -4.4333,-2.72064 1.32479,-6.55843 3.90339,-5.46582 -0.1393,-2.81897 c 0,0 7.12218,-7.43898 8.41043,-8.27112 l 0.0112,0.0219 0.28681,0.33872 -0.0355,-0.73752 L 533.10264,82.137704 515.7382,68.021073 492.56922,33.584468 473.33641,9.14259 Z"
      data-name="Catuana" id="catuana" />
   <path class="neighborhood"
      d="m 164.08131,323.39323 -22.81115,7.73028 -49.033999,64.61473 3.411711,6.26343 -3.578334,11.33319 8.593452,5.47676 5.39206,-1.29475 8.41317,8.72728 -1.37396,8.77919 -8.51423,3.44447 -0.2158,6.62673 1.96125,4.0946 -4.26393,6.60488 -0.10112,11.40694 -1.56245,10.47548 3.97713,4.96867 -6.542043,25.1357 5.102533,7.21401 -2.30817,20.75702 -36.375996,11.04091 -18.366914,15.72279 -2.581321,8.78465 13.340883,29.24667 -2.706967,7.6374 -5.916531,1.21827 -5.146237,15.07813 7.631939,6.45738 -2.029536,3.45813 4.905854,4.08913 -0.8659,6.74965 -10.177736,11.56264 -3.146742,-4.09733 -7.713886,4.50433 -0.559968,6.38635 -18.290434,10.10946 0.01639,5.76083 L 0,698.12588 l 3.5728633,8.75189 -2.3819084,12.19635 2.4720493,4.10005 -0.8358528,5.97935 4.0181048,6.33446 3.6684668,-0.67196 6.047643,11.0491 2.854466,-2.94461 8.3558,7.60736 0.827659,5.65703 3.652077,-1.00247 5.173549,9.13155 -5.075213,2.43928 -4.072736,10.83604 2.428346,4.61085 5.703469,1.22374 -4.18473,4.93863 3.553742,10.21872 7.476245,1.42313 0.53538,7.45166 -1.111738,2.92549 9.052337,5.17355 2.338211,11.7593 -6.858918,9.50579 7.58278,9.25994 10.898872,0.24856 8.068986,-1.47502 4.149209,10.37714 12.71808,12.17176 18.175721,-1.64712 8.98131,-3.58106 8.1564,-10.37987 22.31401,-37.48501 5.12165,-20.59586 18.98152,-0.58183 132.63296,-111.61917 -0.59274,-0.95058 10.67761,-16.68429 7.53907,-27.07235 -0.52992,-8.58799 -20.19979,-39.68663 -0.57636,-9.8882 -3.10303,-6.07223 2.76159,-35.2069 -31.09046,-30.38299 -23.45852,-12.95572 -4.41417,-12.11441 0.29774,-15.80745 2.48843,-5.75264 8.02255,-6.08043 6.22519,-8.99225 -0.98062,-22.79474 -5.2391,-7.60463 -24.15507,-44.42041 -8.11269,-7.23314 -10.50006,-6.95451 -11.1174,0.37149 -15.85935,3.59198 -6.23886,-1.08715 -4.44696,-2.72063 16.88915,-17.68129 -0.0765,-7.89691 -2.9009,-1.87383 c -0.68606,0.83341 -1.92029,2.35733 -1.92029,2.35733 l -3.17132,-0.11469 z"
      data-name="Sítios Novos" id="sitios_novos" />
   <path class="neighborhood"
      d="m 877.9245,613.01363 -0.0547,0.0573 -209.526,5.97116 -4.64908,6.30713 -3.71764,-0.63644 -4.43603,6.19241 -4.92224,0.49715 -5.17355,7.81222 2.09235,5.30193 -1.96671,6.57482 5.31833,16.48763 13.67958,4.3732 4.04541,7.85593 6.6404,3.66026 3.98532,9.30366 7.60463,4.06454 12.56238,0.42612 4.46062,8.73548 5.71986,1.98311 5.02877,6.84253 0.33052,9.83082 1.63346,3.14674 0.25404,6.67863 4.5726,5.40027 0.84132,8.37492 -2.78617,4.5371 -1.55699,5.14624 2.99651,7.54727 2.14427,9.57133 1.19915,8.14001 4.93863,-7.32328 10.9016,-7.39157 5.08067,-9.60138 6.3208,-3.52369 0.50534,-5.41666 -1.44226,-1.78643 2.98285,-5.0479 0.39061,-6.85072 10.03844,-14.06474 10.59567,-5.64336 10.80599,0.21305 8.48419,-4.00444 3.88425,3.17952 10.70767,0.83312 12.02153,-5.88922 7.59643,0.49442 4.24755,-3.84602 7.67565,0.41246 23.55412,-12.55418 0.14751,-11.51074 2.17431,-5.59421 -3.84329,-2.60316 -0.42612,-2.72609 5.51773,-5.07248 4.06727,0.34417 0.17755,-6.53658 -5.28828,-14.80498 -3.9225,-6.97637 -5.92471,-1.26198 2.24259,-3.39803 -0.50807,-4.35136 4.76929,-3.82963 5.06428,0.87136 3.63296,-2.40102 -0.63372,-3.1167 6.82613,-5.82366 z"
      data-name="Mirambé" id="mirambe" />
   <path class="neighborhood"
      d="m 563.04278,481.44871 -0.0192,0.003 0.0983,0.0628 z m 5.28827,5.61332 -4.91952,1.18823 -5.38115,7.44345 -0.7621,8.60984 -4.67368,6.74419 -1.95032,6.6759 -4.00172,6.06403 -5.04789,11.98603 -31.21065,52.60957 -11.65823,42.89622 -14.23957,11.0491 -27.73884,-0.51899 -11.98877,22.69914 -15.29119,21.00286 -45.95553,-0.32232 -10.5629,2.93096 -13.02401,9.2654 -1.06803,9.92643 -0.3633,-0.006 11.97237,22.22112 4.02356,2.32181 1.72635,6.08862 13.20428,4.11644 4.38961,9.50032 3.37072,9.34735 4.22024,-2.40921 16.18987,-0.38242 11.28402,-4.64363 7.80131,7.82315 9.32003,5.52591 5.2992,-1.81375 0.81946,-6.87257 5.08614,-1.73179 6.09408,2.73973 3.03475,8.10451 4.98234,21.55736 -0.19121,11.13379 -4.56714,4.84029 -0.85225,6.09135 13.52935,13.01036 17.4218,8.83655 -0.30866,10.22964 7.0747,13.01854 7.11568,6.35358 -1.08168,9.00045 -4.52071,6.09408 5.01511,4.77748 6.54751,-0.24311 19.31205,9.72977 17.17322,5.32105 2.92549,10.27334 -10.60659,11.80028 -7.7494,29.92409 -5.24184,3.09758 v 3.25054 l 4.6245,4.19019 -1.71813,14.05654 8.56885,2.76978 14.55096,-13.72601 10.23237,-5.50407 25.4744,-35.69858 15.49332,5.7144 13.19064,10.8415 5.39207,-7.00095 7.82589,-3.99899 2.31636,-3.74495 0.48894,-10.18048 0.8741,-3.83782 -3.10578,-6.19787 0.16662,-5.89468 12.38211,-11.95598 1.25924,-7.86412 -2.5977,-5.96023 3.71217,-5.98756 8.73822,-2.67144 6.32353,-8.50058 7.76032,-22.49155 11.4206,-24.55387 15.52065,-13.08411 17.15957,-4.37048 5.48221,-4.90858 c 0,0 0.34283,-1.25436 0.43978,-1.63619 l -0.0382,0.0547 -1.19915,-8.14 -2.14427,-9.57134 -2.99651,-7.54727 1.55699,-5.14624 2.78617,-4.53709 -0.84131,-8.37492 -4.57261,-5.40027 -0.25403,-6.67863 -1.63347,-3.14675 -0.33052,-9.83082 -5.02877,-6.84253 -5.71986,-1.9831 -4.46062,-8.73548 -12.56238,-0.42613 -7.60462,-4.06454 -3.98533,-9.30365 -6.64039,-3.66026 -4.04541,-7.85594 -13.67959,-4.3732 -5.31833,-16.48762 1.96672,-6.57483 -2.09236,-5.30192 5.17355,-7.81223 4.92224,-0.49714 4.43603,-6.19241 3.71764,0.63644 4.64908,-6.30714 -0.15023,0.006 -93.58005,-103.80422 z"
      data-name="Tucunduba" id="tucunduba" />
   <path class="neighborhood"
      d="m 304.99085,681.51262 -132.63296,111.61917 -18.98152,0.58183 -5.12165,20.59586 -22.31401,37.48501 -8.15639,10.37987 -8.98132,3.58106 -18.121078,1.64167 c -0.243921,1.63197 -0.519002,3.41716 -0.519002,3.41716 l 9.669671,16.35103 -1.660781,2.79165 -5.602388,0.91506 -0.546316,5.66522 -4.023564,6.21974 0.527184,5.74991 8.131809,4.39506 7.730285,9.86633 5.75809,3.39532 -3.37345,6.13232 3.256,3.81325 6.35905,0.72659 8.91302,7.92967 0.54085,8.70544 6.85892,7.18123 175.61658,59.43843 56.27531,56.7178 92.04766,-76.6908 27.33185,12.4941 19.29838,2.1196 11.60087,-0.7102 6.3727,-3.6876 11.60907,-26.87018 4.50979,-3.44721 4.2612,-0.40154 2.27539,-3.37073 -0.11748,0.11202 -8.56886,-2.76979 1.71814,-14.05653 -4.62451,-4.19019 v -3.25054 l 5.24184,-3.09758 7.74941,-29.92409 10.60658,-11.80028 -2.92549,-10.27334 -17.17322,-5.32106 -19.31204,-9.72976 -6.54752,0.24311 -5.0151,-4.77748 4.5207,-6.09408 1.08168,-9.00045 -7.11567,-6.35358 -7.0747,-13.01854 0.30866,-10.22964 -17.4218,-8.83655 -13.52936,-13.01037 0.85225,-6.09135 4.56714,-4.84029 0.19121,-11.13378 -4.98234,-21.55736 -3.03474,-8.10451 -6.09408,-2.73974 -5.08614,1.7318 -0.81947,6.87257 -5.2992,1.81375 -9.32003,-5.52591 -7.8013,-7.82315 -11.28402,4.64362 -16.18987,0.38242 -4.22024,2.40922 -3.37072,-9.34735 -4.38961,-9.50032 -13.20429,-4.11644 -1.72634,-6.08862 -4.02356,-2.32181 -11.97238,-22.22112 -8.76006,-0.10378 -1.8875,3.10849 -1.66624,17.90256 -4.44696,11.39056 -7.42708,6.32625 -10.287,-0.0765 -7.48444,-3.82145 -3.12762,2.81897 -6.64585,-0.003 -2.7971,-4.40873 3.46087,-55.0188 z"
      data-name="Bom Princípio" id="bom_principio" />
</svg>