<?xml version="1.0" encoding="UTF-8" standalone="no"?>
<svg version="1.1" id="svg2" width="715.02539" height="769.94531" viewBox="0 0 715.02539 769.94531" xml:space="preserve"
  xmlns="http://www.w3.org/2000/svg" xmlns:svg="http://www.w3.org/2000/svg">
  <defs id="defs6" />
  <path class="neighborhood"
    d="m 410.58789,100.8457 -2.86914,136.55078 -23.45898,40.70508 -2.71875,35.99414 10.05078,13.0293 10.19336,16.4668 4.33203,3.53125 4.74609,21.28906 66.91211,74.22266 149.92383,-4.27344 6.41016,-6.69727 -2.13282,-3.61133 3.64649,0.31836 0.82422,-4.46875 4.22656,-0.24414 3.40429,-10.79687 2.89258,0.0703 c 0,0 1.1381,-5.32448 1.41211,-5.38086 0.27401,-0.0564 2.82227,0.1582 2.82227,0.1582 l 0.83008,-3.43164 -60.16602,-1.12695 -12.45898,-21.92969 80.61718,-41.60547 31.13086,-4.01757 1.52735,-0.64258 -1.30664,-0.56836 -0.65039,-8.44141 1.22656,-3.12695 -5.33985,-4.99024 -3.31054,-7.20898 -7.00196,-5.96484 -8.75781,-2.03907 -1.2793,-2.96289 -5.84765,-1.9375 -2.44922,-3.39257 0.18359,-3.05079 4.19922,-10.49609 -5.04492,-0.31641 -1.08984,-6.2871 -2.00196,-3.02735 0.58985,-2.94922 11.36133,1.00977 12.93164,-0.56055 5.24804,-1.49414 7.81446,2.60547 8.81836,-0.45313 14.04687,-11.8125 -29.13672,-9.93164 c 0,0 -1.18926,1.20264 -1.81445,1.16993 -0.62519,-0.0327 -2.88672,-0.21094 -2.88672,-0.21094 l -5.86133,-3.79297 -6.41797,-0.0703 -4.83984,1.19336 h -6.45898 l -23.1211,-6.72852 -9.79687,2.77344 -21.375,-9.18555 c 0,0 -24.94057,-17.09051 -25.77539,-17.25 -0.83483,-0.15949 -13.875,-10.96875 -13.875,-10.96875 l -18.35938,-18.50195 -13.12305,-15.56641 -3.72656,-3.49023 -1.48828,-3.83594 -14.10156,-8.90234 -8.37891,-4.63477 -17.69336,-7.5957 -7.82812,-6.55664 -7.71094,-1.77344 -7.29297,-2.36133 -8.22461,-2.12695 -7.49219,-4.68555 -9.92187,-3.14648 z"
    data-name="Sede" id="sede" />
  <path class="neighborhood"
    d="m 692.68555,334.95508 -1.52735,0.64258 -31.13086,4.01757 -80.61718,41.60547 12.45898,21.92969 60.16602,1.12695 1.85351,-7.65625 3.08985,-0.0176 7.45898,-14.32813 9.00977,-20.28516 6.11718,-6.47461 12.26367,-8.52734 4.32618,-10.52539 z"
    data-name="Jurema" id="jurema" />
  <path class="neighborhood"
    d="m 388.19144,74.238281 c -0.92113,0.595001 -6.01367,5.91406 -6.01367,5.91406 l 0.0996,2.01563 -2.79102,3.9082 -0.94726,4.68945 3.16992,1.94532 1.02929,3.3164 -1.19336,2.38282 -4.99414,3.093739 -11.03906,13.4336 -2.49805,19.29687 -5.30859,4.7168 -0.25391,4.83594 4.90821,7.07617 10.72656,4.03516 2.66797,3.54882 -0.40039,3.21094 -4.42578,2.00781 0.0449,4.41602 -2.39649,0.79687 -1.00976,2.45508 -2.39844,7.49024 -1.89258,0.87304 0.25977,3.14063 -2.80664,6.21484 -2.15625,0.52735 -4.38281,4.37109 -5.41602,0.54297 -4.94336,-3.16992 -4.82031,1.74023 1.23437,2.40235 -1.20703,1.1875 -4.52148,0.11523 -2.0586,-0.97656 -0.35937,-2.79883 -2.13672,-0.49609 -2.30078,0.91211 -2.64844,-0.50391 -1.64648,-1.63672 -4.75782,1.38086 -4.29296,5.55469 -0.37891,2.31836 -2.09375,1.04296 -1.98242,-0.32617 -5.89453,5.625 -0.14649,4.47071 -2.55664,0.93359 -1.32422,2.58789 -3.35742,0.11524 -2.79297,2.19726 -0.45117,2.46094 2.34375,2.125 -0.59766,1.53906 -3.37695,0.63281 -0.97851,2.91993 0.0332,4.49218 -2.67383,-0.12695 -3.17383,2.28711 -0.25781,3.92773 0.19727,4.86719 1.9082,3.43555 -2.42188,1.83593 0.57618,4.35743 -1.8711,0.71093 -0.66992,3.65821 -5.95508,0.66992 -4.73437,6.24609 3.38086,6.27149 -4.3711,7.95898 4.08399,7.3711 -1.27539,13.49414 6.27734,8.59961 -2.39063,9.16992 6.47657,13.23047 8.89257,8.65429 20.23047,10.22657 44.12891,0.43359 45.47266,-4.37109 -0.80469,-0.65625 -10.19336,-16.4668 -10.05078,-13.0293 2.71875,-35.99414 23.45898,-40.70508 2.83203,-134.82422 -0.0117,-0.01 0.0371,-1.97461 -0.14257,-0.10156 -22.23438,-26.232424 z"
    data-name="Guararu" id="guararu" />
  <path class="neighborhood"
    d="m 335.68363,0 -45.60547,40.074219 -88.17188,199.761721 -64.10547,-34.16211 -6.16211,7.0625 -1.11132,4.26953 1.9707,3.81054 2.28906,3.86329 0.36719,5.28515 -1.98047,5.23828 2.10938,1.36133 0.0547,5.64649 -12.07617,12.64257 3.17969,1.94532 4.46094,0.77734 11.33984,-2.56836 7.94922,-0.26562 7.50781,4.97265 5.80078,5.17188 17.27149,31.76172 3.74609,5.4375 0.70117,16.29882 -4.45117,6.42969 -5.73633,4.34766 -1.77929,4.11328 -0.21289,11.30273 3.15624,8.66211 16.77344,9.26367 22.23047,21.72461 -1.97461,25.17383 2.21875,4.3418 0.41211,7.07031 14.44336,28.37695 0.37891,6.14063 -5.39063,19.35742 -7.63476,11.92969 2.16406,3.47461 -2.47461,39.33984 2,3.15235 4.75195,0.002 2.23633,-2.01563 5.35156,2.73243 7.35547,0.0547 5.31055,-4.52343 3.17969,-8.14454 1.1914,-12.80078 1.34961,-2.22265 6.52344,0.0781 0.76367,-7.09765 9.3125,-6.625 7.55274,-2.09571 32.85937,0.23047 10.93359,-15.01758 8.57227,-16.23046 19.83398,0.37109 10.18165,-7.90039 8.33593,-30.67188 22.31641,-37.61718 3.60937,-8.57032 2.86133,-4.33593 1.39453,-4.77344 3.3418,-4.82227 0.54492,-6.15625 3.84766,-5.32226 3.51758,-0.84961 -0.25391,-1.13867 -1.32031,-1.07618 -2.15039,-1.75195 -0.0703,-0.0449 -45.45898,4.36914 -44.12891,-0.43359 -20.23047,-10.22657 -8.89257,-8.65429 -6.47657,-13.23047 2.39063,-9.16992 -6.27734,-8.59961 1.27539,-13.49414 -4.08399,-7.3711 4.3711,-7.95898 -3.38086,-6.27149 4.73437,-6.24609 5.95508,-0.66992 0.66992,-3.65821 1.8711,-0.71093 -0.57618,-4.35743 2.42188,-1.83593 -1.9082,-3.43555 -0.19727,-4.86719 0.25781,-3.92773 3.17383,-2.28711 2.67383,0.12695 -0.0332,-4.49218 0.97851,-2.91993 3.37695,-0.63281 0.59766,-1.53906 -2.34375,-2.125 0.45117,-2.46094 2.79297,-2.19726 3.35742,-0.11524 1.32422,-2.58789 2.55664,-0.93359 0.14649,-4.47071 5.89453,-5.625 1.98242,0.32617 2.09375,-1.04296 0.37891,-2.31836 4.29296,-5.55469 4.75782,-1.38086 1.64648,1.63672 2.64844,0.50391 2.30078,-0.91211 2.13672,0.49609 0.35937,2.79883 2.0586,0.97656 4.52148,-0.11523 1.20703,-1.1875 -1.23437,-2.40235 4.82031,-1.74023 4.94336,3.16992 5.41602,-0.54297 4.38281,-4.37109 2.15625,-0.52735 2.80664,-6.21484 -0.25977,-3.14063 1.89258,-0.87304 2.39844,-7.49024 1.00976,-2.45508 2.39649,-0.79687 -0.0449,-4.41602 4.42578,-2.00781 0.40039,-3.21094 -2.66797,-3.54882 -10.72656,-4.03516 -4.90821,-7.07617 0.25391,-4.83594 5.30859,-4.7168 2.49805,-19.29687 11.03906,-13.4336 4.99414,-3.093739 1.19336,-2.38282 -1.02929,-3.3164 -3.16992,-1.94532 0.94726,-4.68945 2.79102,-3.9082 -0.0996,-2.01563 c 0,0 5.09254,-5.319063 6.01367,-5.91406 l 0.008,0.01563 0.20508,0.242187 -0.0254,-0.527343 L 381.18192,58.730544 368.76591,48.636794 352.1995,24.013747 338.44755,6.537184 Z"
    data-name="Catuana" id="catuana" />
  <path class="neighborhood"
    d="m 117.3223,231.23437 -16.31055,5.52735 -35.060553,46.20117 2.43946,4.47851 -2.5586,8.10352 6.14454,3.91602 3.85546,-0.92578 6.01563,6.24023 -0.98242,6.27734 -6.08789,2.46289 -0.1543,4.73828 1.40234,2.92774 -3.04882,4.72266 -0.0723,8.15625 -1.11719,7.49023 2.84375,3.55273 -4.67773,17.97266 3.64844,5.1582 -1.6504,14.8418 -26.00976,7.89453 -13.13281,11.24219 -1.84571,6.28125 9.53907,20.91211 -1.93555,5.46094 -4.23047,0.87109 -3.67969,10.78125 5.45703,4.61719 -1.45117,2.47265 3.50781,2.92383 -0.61914,4.82617 -7.27734,8.26758 -2.25,-2.92969 -5.515625,3.22071 -0.400391,4.5664 -13.078125,7.22852 0.01172,4.11914 L 0,499.17773 l 2.554688,6.25782 -1.703125,8.7207 1.767578,2.93164 -0.597656,4.27539 2.873047,4.5293 2.623047,-0.48047 4.324218,7.90039 2.041016,-2.10547 5.974609,5.43945 0.591797,4.04492 2.611328,-0.71679 3.699219,6.52929 -3.628906,1.74415 -2.91211,7.74804 1.736329,3.29688 4.078125,0.875 -2.992188,3.53125 2.541016,7.30664 5.345705,1.01758 0.38281,5.32812 -0.794921,2.0918 6.472651,3.69922 1.67188,8.4082 -4.9043,6.79688 5.42188,6.62109 7.79297,0.17773 5.76953,-1.05468 2.96679,7.41992 9.09375,8.70312 12.9961,-1.17773 6.42187,-2.56055 5.83203,-7.42187 15.955083,-26.80274 3.66211,-14.72656 13.57227,-0.41602 94.83593,-79.81054 -0.42382,-0.67969 7.63476,-11.92969 5.39063,-19.35742 -0.37891,-6.14063 -14.44336,-28.37695 -0.41211,-7.07031 -2.21875,-4.3418 1.97461,-25.17383 -22.23047,-21.72461 -16.77344,-9.26367 -3.15624,-8.66211 0.21289,-11.30273 1.77929,-4.11328 5.73633,-4.34766 4.45117,-6.42969 -0.70117,-16.29882 -3.74609,-5.4375 -17.27149,-31.76172 -5.80078,-5.17188 -7.50781,-4.97265 -7.94922,0.26562 -11.33984,2.56836 -4.46094,-0.77734 -3.17969,-1.94532 12.07617,-12.64257 -0.0547,-5.64649 -2.07422,-1.33984 c -0.49055,0.59591 -1.37305,1.68555 -1.37305,1.68555 l -2.26758,-0.082 z"
    data-name="Sítios Novos" id="sitios_novos" />
  <path class="neighborhood"
    d="m 627.73831,438.32031 -0.0391,0.041 -149.81641,4.26953 -3.32421,4.50976 -2.65821,-0.45507 -3.17187,4.42773 -3.51953,0.35547 -3.69922,5.58594 1.49609,3.79101 -1.40625,4.70117 3.80274,11.78907 9.78125,3.12695 2.89257,5.61719 4.74805,2.61718 2.84961,6.65235 5.4375,2.90625 8.98242,0.30469 3.18946,6.24609 4.08984,1.41797 3.5957,4.89258 0.23633,7.02929 1.16797,2.25 0.18164,4.77539 3.26953,3.86133 0.60156,5.98828 -1.99218,3.24414 -1.11329,3.67969 2.14258,5.39649 1.53321,6.84375 0.85742,5.82031 3.53125,-5.23633 7.79492,-5.28516 3.63281,-6.86523 4.51953,-2.51953 0.36133,-3.87305 -1.03125,-1.27734 2.13281,-3.60938 0.2793,-4.89844 7.17774,-10.05664 7.57617,-4.03515 7.72656,0.15234 6.06641,-2.86328 2.77734,2.27344 7.65625,0.5957 8.5957,-4.21094 5.43164,0.35352 3.03711,-2.75 5.48828,0.29492 16.8418,-8.97656 0.10547,-8.23047 1.55469,-4 -2.74805,-1.86133 -0.30469,-1.94922 3.94532,-3.62695 2.9082,0.24609 0.12695,-4.67382 -3.78125,-10.58594 -2.80469,-4.98828 -4.23632,-0.90235 1.60351,-2.42968 -0.36328,-3.11133 3.41016,-2.73828 3.62109,0.62304 2.59766,-1.71679 -0.45313,-2.22852 4.88086,-4.16406 z"
    data-name="Mirambé" id="mirambe" />
  <path class="neighborhood"
    d="m 402.58988,344.24805 -0.0137,0.002 0.0703,0.0449 z m 3.78125,4.01367 -3.51758,0.84961 -3.84766,5.32226 -0.54492,6.15625 -3.3418,4.82227 -1.39453,4.77344 -2.86133,4.33593 -3.60937,8.57032 -22.31641,37.61718 -8.33593,30.67188 -10.18165,7.90039 -19.83398,-0.37109 -8.57227,16.23046 -10.93359,15.01758 -32.85937,-0.23047 -7.55274,2.09571 -9.3125,6.625 -0.76367,7.09765 -0.25977,-0.004 8.56055,15.88867 2.87695,1.66015 1.23438,4.35352 9.4414,2.94336 3.13868,6.79297 2.41015,6.68359 3.01758,-1.72265 11.57617,-0.27344 8.06836,-3.32031 5.57813,5.59375 6.66406,3.95117 3.78906,-1.29688 0.58594,-4.91406 3.63672,-1.23828 4.35742,1.95898 2.16992,5.79493 3.5625,15.41406 -0.13672,7.96094 -3.26562,3.46093 -0.60938,4.35547 9.67383,9.30274 12.45703,6.31836 -0.2207,7.31445 5.05859,9.30859 5.08789,4.54297 -0.77343,6.43555 -3.23242,4.35742 3.58593,3.41602 4.68164,-0.17383 13.8086,6.95703 12.27929,3.80469 2.0918,7.3457 -7.58398,8.4375 -5.54102,21.39648 -3.74805,2.21485 v 2.32422 l 3.30664,2.99609 -1.22851,10.05078 6.12695,1.98047 10.4043,-9.81445 7.31641,-3.93555 18.21484,-25.52539 11.07812,4.08594 9.43164,7.75195 3.85547,-5.00586 5.59571,-2.85938 1.65625,-2.67773 0.34961,-7.2793 0.625,-2.74414 -2.22071,-4.43164 0.11914,-4.21484 8.85352,-8.54883 0.90039,-5.62305 -1.85742,-4.26171 2.65429,-4.28126 6.24805,-1.91015 4.52149,-6.07813 5.54882,-16.08203 8.16602,-17.55664 11.09766,-9.35547 12.26953,-3.125 3.91992,-3.50976 c 0,0 0.24513,-0.8969 0.31445,-1.16992 l -0.0273,0.0391 -0.85742,-5.82031 -1.53321,-6.84375 -2.14258,-5.39649 1.11329,-3.67969 1.99218,-3.24414 -0.60156,-5.98828 -3.26953,-3.86133 -0.18164,-4.77539 -1.16797,-2.25 -0.23633,-7.02929 -3.5957,-4.89258 -4.08984,-1.41797 -3.18946,-6.24609 -8.98242,-0.30469 -5.4375,-2.90625 -2.84961,-6.65235 -4.74805,-2.61718 -2.89257,-5.61719 -9.78125,-3.12695 -3.80274,-11.78907 1.40625,-4.70117 -1.49609,-3.79101 3.69922,-5.58594 3.51953,-0.35547 3.17187,-4.42773 2.65821,0.45507 3.32421,-4.50976 -0.10742,0.004 -66.91211,-74.22265 z"
    data-name="Tucunduba" id="tucunduba" />
  <path class="neighborhood"
    d="m 218.0762,487.29883 -94.83593,79.81054 -13.57227,0.41602 -3.66211,14.72656 -15.955083,26.80274 -5.83203,7.42187 -6.42187,2.56055 -12.95703,1.17383 c -0.17441,1.1669 -0.3711,2.44336 -0.3711,2.44336 l 6.91406,11.6914 -1.1875,1.9961 -4.00585,0.65429 -0.39063,4.05078 -2.87695,4.44727 0.37695,4.11133 5.81445,3.14258 5.52735,7.05468 4.11718,2.42774 -2.4121,4.38476 2.32812,2.72657 4.54688,0.51953 6.37304,5.66992 0.38672,6.22461 4.9043,5.13476 125.570313,42.5 40.23828,40.55469 65.81641,-54.83594 19.54297,8.9336 13.79883,1.51562 8.29492,-0.50781 4.55664,-2.63672 8.30078,-19.21289 3.22461,-2.46484 3.04687,-0.28711 1.62696,-2.41016 -0.084,0.0801 -6.12695,-1.98047 1.22851,-10.05078 -3.30664,-2.99609 v -2.32422 l 3.74805,-2.21485 5.54102,-21.39648 7.58398,-8.4375 -2.0918,-7.3457 -12.27929,-3.80469 -13.8086,-6.95703 -4.68164,0.17383 -3.58593,-3.41602 3.23242,-4.35742 0.77343,-6.43555 -5.08789,-4.54297 -5.05859,-9.30859 0.2207,-7.31445 -12.45703,-6.31836 -9.67383,-9.30274 0.60938,-4.35547 3.26562,-3.46093 0.13672,-7.96094 -3.5625,-15.41406 -2.16992,-5.79493 -4.35742,-1.95898 -3.63672,1.23828 -0.58594,4.91406 -3.78906,1.29688 -6.66406,-3.95117 -5.57813,-5.59375 -8.06836,3.32031 -11.57617,0.27344 -3.01758,1.72265 -2.41015,-6.68359 -3.13868,-6.79297 -9.4414,-2.94336 -1.23438,-4.35352 -2.87695,-1.66015 -8.56055,-15.88867 -6.26367,-0.0742 -1.34961,2.22265 -1.1914,12.80078 -3.17969,8.14454 -5.31055,4.52343 -7.35547,-0.0547 -5.35156,-2.73243 -2.23633,2.01563 -4.75195,-0.002 -2,-3.15235 2.47461,-39.33984 z"
    data-name="Bom Princípio" id="bom_principio" />
</svg>