<?xml version="1.0" encoding="UTF-8" standalone="no"?>
<svg width="1000.0006" height="616.75165" viewBox="0 0 264.5835 163.18221" version="1.1" id="svg253"
  xml:space="preserve" xmlns="http://www.w3.org/2000/svg" xmlns:svg="http://www.w3.org/2000/svg">
  <defs id="defs250" />
  <path class="neighborhood"
    d="m 136.53365,21.488956 2.64673,-0.583179 3.58878,-1.794394 -0.67714,-2.295419 -0.65027,-0.935761 -0.0952,-0.570972 -0.65027,-1.173668 v -0.412368 l 1.82394,-1.25297 0.50754,0.09516 0.41236,0.190325 0.77716,-0.459951 3.07691,2.236312 3.0769,5.154617 0.98335,-0.618554 1.9191,3.219653 4.04439,2.109428 0.34894,0.01586 0.63441,0.475811 -0.60269,3.885788 -3.45757,3.298955 -6.62963,3.219654 -1.11022,-0.01586 -4.66295,-0.666135 -4.36159,-6.994419 0.0318,-1.443293 -0.74545,-0.919901 -0.84059,-0.475811 -0.36479,-0.729576 -0.41237,-0.523392 -0.0159,-0.44409 z"
    data-name="Zona Urbana" id="zona_urbana" />
  <path class="neighborhood"
    d="m 114.22269,0 0.9179,7.0181941 0.84621,6.4628269 -0.0474,1.932234 0.0645,1.282047 0.53983,0.355372 0.14502,0.177288 0.55417,0.704369 -0.0342,0.09681 -0.003,0.121113 0.0423,0.158961 -0.0239,0.03108 -0.0303,0.02988 -0.0331,0.0036 -0.0136,-0.0052 -0.0658,-0.08127 -0.0952,-0.0068 0.21036,0.329875 -0.0438,0.150196 -0.13864,-0.0231 -0.047,0.02988 -0.007,0.07091 0.0351,0.08366 0.002,0.06295 -0.009,0.03027 -0.0223,0.03546 -0.0156,0.01792 -0.0434,0.03227 -0.009,0.02231 -4e-4,0.01116 0.005,0.01434 0.0112,0.0096 0.0112,0.0068 0.0355,-0.0052 0.0315,-0.01 0.09,-0.06852 0.0845,-0.0494 0.0466,-0.01873 0.0231,-0.0028 0.0338,0.0032 0.0119,0.0092 7.7e-4,0.0036 0.005,0.01673 -0.009,0.04382 -0.0263,0.03904 -0.0187,0.04183 -0.0123,0.01713 -0.006,0.02669 -0.004,0.04183 0.004,0.0231 0.006,0.01514 0.0136,0.02071 0.0199,0.0243 0.0136,0.0088 0.0223,0.0032 0.0164,-0.0016 0.0239,-0.01 0.0414,-0.04422 0.0287,-0.01753 0.0546,-0.0506 0.0207,3.99e-4 0.0251,0.004 0.0375,0.01673 0.0231,0.02908 0.0191,0.03705 0.0223,0.06255 0.14023,0.153782 0.28525,0.17928 0.0283,-0.004 0.0199,-0.01514 0.0116,-0.03944 -0.005,-0.02032 -0.0195,-0.02749 -0.0395,-0.01792 -0.0211,-0.03466 -0.01,-0.04621 v -0.04701 l 0.0502,-0.04661 0.43465,0.105575 0.0717,-0.0486 -0.007,-0.02869 -0.0338,-0.04741 -0.0267,-0.01832 -0.007,-0.02231 0.004,-0.01873 0.0318,-0.0502 0.0693,-0.02112 0.0769,0.0032 0.0454,0.02391 0.13068,0.108365 0.10836,0.14183 -0.005,0.0749 -0.0103,0.0251 -0.018,0.01036 -0.014,-3.99e-4 -0.0335,-0.0024 -0.0291,0.0068 -0.0103,0.0084 v 0.02391 l 0.008,0.03466 0.0211,0.02351 0.0112,0.0243 -0.051,0.10438 0.004,0.02231 0.014,0.02351 0.0175,0.01 0.10797,0.04741 v 0.207566 l 0.18206,0.2239 0.30717,0.200793 -0.0103,0.12709 -0.19202,0.0068 -0.11833,0.307962 0.049,0.08924 0.20597,-0.06056 0.21395,0.0227 0.0116,0.128683 -0.10318,0.08725 -0.0382,0.0984 0.0175,0.06972 h 0.20278 l 0.19601,0.107966 0.15658,0.204777 -0.0534,0.06813 -0.2482,0.0263 -0.0725,0.121114 -0.004,0.257365 0.15298,0.136652 0.25219,-0.01514 0.25577,0.01116 0.17569,0.105974 -0.0342,0.113544 -0.30955,-0.06414 -0.25578,0.10199 -0.0649,0.181669 0.18724,0.136651 0.17171,0.143822 -0.008,0.268521 0.11075,0.04183 0.16016,0.0227 0.16055,0.166531 0.0765,0.18167 0.33983,0.162945 0.20996,0.049 0.12988,0.454573 0.19482,0.0263 0.14541,-0.06056 0.057,0.143822 -0.13346,0.14422 -0.008,0.113544 0.11474,0.162547 0.0191,0.185654 0.11075,0.049 0.10319,-0.08685 0.0307,-0.117527 0.15259,0.03785 0.0992,0.147806 0.26374,0.07211 v 0.136253 l -0.14143,0.07171 -0.12987,0.231071 -0.25219,0.03785 0.0443,0.06733 0.11513,0.03147 0.21514,0.0032 0.0614,0.05538 0.0534,0.259756 0.09,0.05219 0.18286,-0.227485 0.0705,-0.0092 0.1769,0.125496 0.33146,0.145017 0.0462,0.110357 -0.0833,0.174499 0.0693,0.142627 0.18247,0.2486 9.0548,8.03212 -1.34858,-0.168921 -2.20155,0.786439 -0.36612,-0.201191 -0.46415,-0.05657 -2.42784,0.156969 -2.15055,-0.357761 -0.22191,0.1 -0.52987,-0.100397 -0.17888,-0.05657 0.12151,-0.170515 -0.35856,-0.277684 -1.1681,0.143822 -0.74143,2.37605 6.73414,1.699969 1.59439,0.360949 h 0.15737 l 4.08877,0.943807 1.04539,0.653374 3.98718,2.491586 2.20155,1.415511 0.47211,0.314736 1.10078,-0.472103 11.16592,-4.246135 0.21035,-2.655328 0.50318,-0.366528 0.1239,-0.04621 0.15777,-0.01514 0.14422,0.04024 0.18406,0.102787 0.13505,0.114738 0.1004,0.161352 0.0845,0.176491 0.14143,0.349396 0.0331,0.345411 -0.005,0.371706 -0.0912,0.681661 -0.0342,0.334256 0.0103,0.324298 0.0327,0.362941 0.0781,0.516325 0.0112,0.370112 -0.0327,0.430271 -0.11752,0.68166 -0.14422,0.681262 -0.26852,1.358939 -0.1494,0.361746 -0.0721,0.194817 -0.0191,0.09801 -0.0175,0.103584 -0.002,0.137049 0.0434,0.247007 0.20319,0.573695 0.049,0.144618 0.0382,0.171312 0.0267,0.230672 0.0339,0.304377 0.0239,0.312346 0.0773,0.311149 0.15697,0.254178 0.0992,0.143822 0.10637,0.136651 0.52668,0.422701 0.42709,0.178881 0.77608,0.198004 0.17968,0.05578 0.16453,0.0745 0.15777,0.110357 0.14262,0.120317 0.18367,0.225891 0.10159,0.14701 0.0741,0.172108 0.10478,0.546603 0.0167,0.352981 -0.0371,0.223901 -0.0625,0.184856 -0.0634,0.111154 -0.0605,0.05418 -0.11155,0.04183 -0.1215,0.01355 -0.28088,-0.01195 -0.39999,-0.0474 -0.22868,-0.03028 -0.21076,-0.0084 -0.23107,0.01992 -0.24143,0.06613 -0.15179,0.07211 -0.14263,0.09761 -0.3227,0.278879 -0.30398,0.396407 -0.0996,0.149797 -0.0395,0.107967 -0.009,0.102787 0.0307,0.0741 0.11554,0.07291 0.21832,0.07211 0.28007,0.05657 0.26016,0.07012 0.16095,0.02271 0.19322,-0.02072 0.30836,-0.116731 0.31075,-0.185255 0.24064,-0.160555 0.16095,-0.108365 0.23705,-0.127886 0.29283,-0.117926 0.14023,-0.03028 0.14223,-0.01395 0.12749,0.02032 0.11991,0.04143 0.13307,0.07928 0.049,0.0741 0.0311,0.07171 -0.004,0.08167 -0.0478,0.08367 -0.11115,0.213143 -0.0378,0.08964 -0.16972,0.401585 -0.14502,0.296011 -0.0717,0.113942 -0.1251,0.155376 -0.13148,0.149399 -0.10557,0.06693 -0.1012,0.03506 -0.12071,0.02112 -0.2725,-0.0072 -0.51712,-0.0259 -0.37769,-0.0076 -0.26891,0.117129 -0.0972,0.08845 -0.0211,0.08207 0.0123,0.08924 0.0558,0.147009 0.0896,0.199995 0.059,0.162946 0.0251,0.148603 -0.0211,0.104778 -0.12072,0.301589 -0.27649,0.506364 -0.0996,0.391228 0.0287,0.190833 0.11633,0.166929 0.25976,0.20398 0.36294,0.180475 0.28007,0.153782 0.10877,0.121512 0.0785,0.156172 -0.0167,0.152188 -0.17211,0.233861 -0.16294,0.131072 -0.22789,0.164938 -0.14262,0.105974 -0.17211,0.143026 -0.16016,0.159757 -0.0725,0.04064 -0.0557,0.04861 -0.0419,0.107966 0.0123,0.276489 0.0777,0.379674 0.0801,0.395212 0.0227,0.149399 -0.0243,0.142229 -0.0446,0.136252 -0.0769,0.106373 -0.0944,0.07649 -0.15617,0.01594 -0.17968,-0.02391 -0.25816,-0.116332 -0.25458,-0.143026 -0.31832,-0.148602 -0.25537,-0.09044 -0.21514,-0.06095 -0.16055,-0.0052 -0.15418,0.03586 -0.12391,0.06693 -0.11952,0.08207 -0.19202,0.19681 -0.0976,0.112746 -0.0729,0.08884 -0.0378,0.110357 -0.002,0.08765 0.039,0.10956 0.26055,0.325093 0.11832,0.175296 0.11116,0.175694 0.0422,0.152984 0.0195,0.212347 -0.0458,0.194818 -0.0717,0.162944 -0.0825,0.08008 -0.0853,0.03665 -0.11234,0.02948 -0.15499,0.0016 -0.16931,-0.02112 -0.35378,-0.110356 -0.56732,-0.234259 -0.63465,-0.285253 -0.40796,-0.130675 -0.28247,-0.12191 -0.53624,-0.349794 -0.24661,-0.218323 -0.31872,-0.142626 -0.22191,-0.09163 -0.11394,0.0048 -0.12828,0.0494 -0.13426,0.103186 -0.14741,0.158562 -0.38446,0.479274 -0.31075,0.458158 -0.10478,0.255374 -0.002,0.12948 0.0294,0.09283 0.0446,0.08087 0.21792,0.266927 0.19123,0.272903 0.061,0.178084 0.0494,0.181272 -0.002,0.224697 -0.0267,0.08048 -0.0581,0.110356 -0.18804,0.158165 -0.29322,0.1741 -0.41673,0.180474 -0.49999,0.146611 -0.33745,0.07211 -0.18366,-0.0072 -0.14741,-0.03705 -0.27011,-0.159759 -0.3478,-0.28605 -0.34422,-0.323101 -0.14024,-0.06892 -0.0797,-0.01553 -0.0892,-3.99e-4 -0.20438,0.08327 -0.39243,0.332663 -0.21354,0.175693 -0.28565,0.183662 -0.3745,0.145416 -0.7697,0.413538 -0.94461,0.461346 -0.41672,0.0753 -0.87887,0.0072 -0.0968,0.01793 -0.0952,0.03546 -0.0749,0.05856 -0.041,0.109958 -0.003,0.152985 0.0494,0.107567 0.0821,0.08805 0.4725,0.240633 0.52709,0.161749 0.52309,0.198005 0.36772,0.151392 0.22988,0.177686 0.10119,0.1243 0.0621,0.165734 3.9e-4,0.08247 -0.0116,0.08605 -0.0538,0.09243 -0.15339,0.08924 -0.15776,0.03426 -0.1729,0.02829 -0.22351,0.02549 -0.17688,0.0255 -0.16574,0.04422 -0.1996,0.06773 -0.21712,0.118324 -0.38207,0.372105 -0.12908,0.118324 -0.13466,0.100795 -0.27649,0.111552 -0.23426,0.04542 -0.11474,-0.01275 -0.1239,-0.01314 -0.27091,-0.111154 -0.34262,-0.401187 -0.24502,-0.4231 -0.12111,-0.187247 -0.14104,-0.149798 -0.13266,-0.08605 -0.13864,-0.01395 -0.15657,0.06095 -0.0789,0.07968 -0.0542,0.143822 0.0263,0.529074 0.008,0.230275 -0.0227,0.194418 -0.17689,0.425092 -0.1235,0.204378 -0.1255,0.160156 -0.15019,0.123903 -0.15419,0.08326 -0.29561,0.0996 -0.2502,-0.02948 -0.46573,-0.09681 -0.70198,-0.287644 -0.049,-0.03466 -0.0271,-0.04502 -0.0386,-0.03665 -0.0458,-0.03028 -0.047,-0.02152 -0.0458,-0.02032 -0.0574,-0.0016 h -0.0554 l -0.051,0.01355 -0.0486,0.01832 -0.051,0.01992 -0.0506,0.02191 -0.0522,0.02988 -0.0454,0.02351 -0.0506,0.03187 -0.0443,0.02829 -0.0419,0.03347 -0.0406,0.03187 -0.0422,0.03347 -0.0371,0.03347 -0.0538,0.06335 -0.0375,0.03505 -0.0402,0.03505 -0.0439,0.03865 -0.0458,0.02988 -0.0422,0.02869 -0.047,0.02988 -0.0474,0.03187 -0.0454,0.03347 -0.0422,0.03665 -0.0386,0.03865 -0.0406,0.03347 -0.0406,0.03665 -0.0419,0.03187 -0.0458,0.04343 -0.0422,0.03505 -0.0438,0.0251 -0.0438,0.02311 -0.0506,0.02351 -0.0506,0.01355 -0.0526,0.0028 -0.0522,0.0084 -0.0438,0.03028 -0.0403,0.03147 -0.0271,0.04701 -0.002,0.0502 0.0119,0.0498 0.0183,0.04701 0.0204,0.0502 0.0151,0.04821 0.0339,0.05856 0.0199,0.02749 0.0223,0.04462 0.0235,0.0498 0.005,0.05179 v 0.05378 l -0.0151,0.04821 -0.0307,0.04024 -0.0506,0.01673 -0.0522,0.0056 h -0.0542 l -0.0486,0.01833 -0.003,0.0498 0.0116,0.0486 0.0255,0.04183 0.0303,0.04701 0.0171,0.05179 0.003,0.05179 -0.008,0.05498 -0.0251,0.04502 -0.0323,0.04183 -0.0355,0.04343 -0.0303,0.04183 -0.0203,0.04861 -0.008,0.05179 v 0.0502 l 0.007,0.04661 0.0187,0.04701 0.0204,0.04501 0.01,0.05179 0.007,0.05179 -0.008,0.0502 -0.0526,-0.0016 -0.0318,-0.04343 -0.0204,-0.04701 -0.0303,-0.04501 -0.0458,-0.02669 h -0.0522 l -0.0271,0.04183 -0.007,0.05339 -0.005,0.0502 -0.002,0.05498 v 0.05179 0.05697 0.05179 0.0502 0.05179 l -0.0219,0.04502 -0.0375,0.03347 -0.0522,0.0068 -0.0506,-0.0016 -0.0474,-0.01833 -0.047,-0.02311 -0.10119,-0.03506 -0.0506,-0.01354 -0.0506,-0.01833 -0.049,-0.01673 -0.0542,-0.0068 -0.0522,0.0068 -0.0522,0.01354 -0.0454,0.02829 -0.0474,0.01673 -0.0574,0.01314 -0.0574,0.01195 -0.0506,0.01514 -0.0255,0.0012 -0.0506,0.01355 -0.13147,0.01514 -0.0522,0.0016 -0.0526,0.0044 -0.0554,0.0016 -0.0526,0.0016 -0.0522,0.0016 -0.0557,0.0044 -0.0522,0.0072 -0.049,0.01 -0.0538,0.01314 -0.0506,0.01673 -0.0526,0.01873 -0.0522,0.01673 -0.049,0.01832 -0.0944,0.02311 -0.0454,0.02191 -0.059,0.02151 -0.0558,0.02032 -0.0506,0.01474 -0.049,0.01673 -0.0522,0.01833 -0.049,0.02031 -0.0355,0.03506 -0.0171,0.04661 -0.0219,0.04861 -0.0303,0.03865 -0.0454,0.01992 -0.051,0.0084 -0.0386,0.03187 -0.0151,0.05179 0.0204,0.05179 0.0355,0.03347 0.0454,0.0251 0.0458,0.01992 0.0419,0.02351 0.0443,0.02669 0.0371,0.03347 0.0251,0.04343 v 0.0502 l -0.0187,0.04502 -0.0522,0.0016 h -0.0522 l -0.0506,-0.0084 -0.049,-0.02351 -0.0454,-0.02988 -0.0506,-0.01673 -0.0526,-0.0032 -0.0402,0.03187 -0.005,0.05179 0.002,0.0502 0.0303,0.03825 0.049,0.0251 0.0474,0.01156 0.0318,0.04023 0.0204,0.03865 v 0.05179 0.0498 l -0.01,0.04861 -0.0204,0.04502 -0.0187,0.04701 -0.0338,0.04143 -0.0506,0.0072 -0.0506,-0.02351 -0.0355,-0.03825 -0.0318,-0.04024 -0.0458,-0.02988 -0.0506,-0.0016 -0.0522,0.01156 -0.049,0.01992 -0.0371,0.03347 -0.0522,0.01833 -0.0443,-0.0251 -0.0506,-0.0068 -0.0506,0.01514 -0.0454,0.02151 -0.0526,0.0072 -0.0486,-0.01355 -0.0474,-0.03665 -0.0355,-0.03865 -0.0386,-0.03505 -0.0323,-0.04343 -0.0303,-0.04183 -0.0235,-0.04502 -0.0136,-0.04861 -0.0103,-0.05179 -0.01,-0.03665 -0.008,-0.04861 -0.0119,-0.04821 -0.0267,-0.04382 -0.053,-0.0243 -0.045,-0.02391 0.008,-0.04861 0.0204,-0.04861 0.003,-0.05179 -0.0255,-0.04343 -0.0371,-0.03506 -0.0486,-0.0251 -0.0443,-0.0251 -0.0506,-0.01833 -0.0506,-0.01 -0.049,0.02031 -0.0183,0.04661 -0.012,0.05179 -0.0371,0.03665 -0.0474,0.02351 -0.0538,0.01156 -0.0506,0.01036 -0.0506,0.0068 -0.049,0.01 -0.0542,0.01 -0.0522,0.0072 -0.0574,0.0028 -0.0538,0.0016 h -0.0542 l -0.049,0.01673 -0.0267,0.04542 0.0116,0.05179 v 0.05179 l -0.0219,0.04502 -0.0454,0.02311 -0.0506,-0.01474 -0.0338,-0.04024 -0.0187,-0.04661 -0.003,-0.0502 0.003,-0.0502 -0.0116,-0.0502 -0.0474,0.02191 -0.0371,0.03665 -0.0355,0.03865 -0.0338,0.03665 -0.0474,0.02351 h -0.0522 l -0.0522,0.01156 -0.049,0.02191 -0.0338,0.04343 -0.0267,0.04502 -0.039,0.03187 h -0.0506 l -0.0438,-0.03347 -0.0287,-0.04183 -0.0203,-0.04661 -0.0422,-0.02829 -0.0506,-0.0055 h -0.0522 -0.0542 -0.0506 l -0.0506,-0.0068 -0.0538,-0.0032 -0.0594,-0.0016 h -0.0522 -0.0522 l -0.0558,0.0068 -0.0522,-0.0052 h -0.0506 l -0.0558,0.0052 -0.0506,0.01354 -0.0522,0.01315 -0.0506,0.01673 -0.049,0.02191 -0.0406,0.03347 -0.0136,0.01514 -0.0267,0.04183 -0.0355,0.04143 -0.0458,0.02351 -0.0522,0.01355 -0.0506,0.0028 -0.0506,0.0032 -0.0558,0.01354 0.0303,0.03825 0.0375,0.03187 0.0199,0.04502 0.008,0.04861 -0.0116,0.05339 -0.0171,0.04861 -0.0219,0.04502 -0.0287,0.04502 -0.0287,0.04502 -0.0386,0.03347 -0.0522,0.01355 -0.0506,-0.0048 -0.0443,-0.03825 -0.0287,-0.04024 v -0.05339 l -0.008,-0.05179 -0.0318,-0.03865 -0.0522,-0.0032 -0.0506,0.02869 -0.0375,0.03506 -0.0219,0.04661 -0.01,0.04861 0.008,0.04821 0.0219,0.04343 0.0287,0.04024 0.0355,0.03347 0.0287,0.04024 -0.0151,0.04502 -0.0522,-0.0048 -0.0474,-0.02669 -0.0538,-0.0084 -0.0375,0.01195 0.0136,0.04821 0.008,0.0502 0.0287,0.04024 0.0187,0.04821 -0.0255,0.04542 -0.0335,0.03825 -0.0239,0.04861 -0.0167,0.04861 -0.0167,0.05498 -0.0239,0.04343 -0.0287,0.04343 -0.0287,0.04343 -0.0318,0.04183 -0.0338,0.04183 -0.0438,0.02829 -0.049,0.01514 -0.0219,-0.04501 0.01,-0.05179 0.0371,-0.03347 0.0323,-0.03665 -0.003,-0.0502 -0.0438,-0.02829 -0.0422,-0.02869 -0.0271,-0.04343 -0.007,-0.0502 -0.0187,-0.04821 -0.0403,-0.03505 -0.0542,-0.0016 -0.049,0.01474 -0.0287,0.04183 -0.0335,0.03865 -0.039,0.03347 -0.0183,0.04661 -0.002,0.05179 v 0.0502 l -0.01,0.05179 -0.039,0.03347 -0.0506,0.0016 -0.0522,0.0016 -0.007,0.008 -0.0251,0.0251 -0.01,0.04861 0.0386,0.03347 0.0406,0.02829 0.01,0.04861 -0.01,0.05339 -0.0422,0.03347 h -0.0542 l -0.0522,-0.0084 -0.049,-0.01 -0.0506,-0.01 -0.0538,-0.0032 -0.0422,0.02869 -0.0219,0.04502 -0.0156,0.04861 -0.0371,0.03825 -0.049,0.01992 -0.0506,0.01355 -0.0506,0.0084 -0.0522,0.0068 -0.0522,-0.0068 -0.039,-0.03187 -0.0303,-0.03984 -0.0438,-0.02869 -0.0522,-0.01474 -0.0454,-0.02031 -0.0307,-0.04143 -0.0267,-0.04183 -0.051,-0.0072 -0.0538,0.0084 -0.0438,0.03187 -0.049,-0.01673 -0.01,-0.04861 -0.0171,-0.04821 -0.0203,-0.04701 -0.01,-0.04861 -0.003,-0.03665 0.0187,-0.04661 0.0204,-0.04701 0.0151,-0.0502 v -0.05339 l -0.0338,-0.03984 -0.0522,-0.0072 -0.0287,0.04183 v 0.0502 l 0.005,0.0502 -0.049,0.01314 -0.0542,-0.0016 -0.0402,-0.02988 v -0.0502 l -0.002,-0.05179 -0.0458,-0.02351 -0.0454,-0.01992 -0.0251,-0.04501 -0.0474,-0.02669 -0.0323,0.04143 -0.0167,0.04701 -0.0506,0.0032 -0.0506,0.0084 -0.0506,0.0068 h -0.0558 l -0.0454,-0.0251 -0.0438,-0.03187 -0.0526,-0.0044 h -0.0506 l -0.0438,0.02829 -0.0303,0.04024 -0.0522,0.0084 -0.0458,-0.0251 -0.0235,-0.04502 -0.0506,-0.01036 0.003,0.0502 0.0251,0.04502 0.0235,0.04382 -0.002,0.05339 -0.049,-0.01514 -0.0339,-0.04024 -0.0355,-0.03506 h -0.0338 l -0.0183,0.0502 -0.0204,0.04701 -0.0371,0.03347 -0.0474,0.01992 -0.0402,-0.03347 -0.039,-0.03505 -0.0303,-0.04024 -0.0323,-0.03984 -0.0454,-0.03028 -0.049,-0.01992 -0.0522,-0.0048 -0.0474,0.02351 -0.0371,0.03505 -0.0474,0.02191 -0.0506,-0.0084 -0.0335,-0.03705 0.002,-0.05179 0.0136,-0.04661 -0.0235,-0.0486 -0.0474,-0.01992 -0.0522,-0.0032 -0.0522,-0.0068 h -0.0538 l -0.0542,0.0016 -0.0558,0.0012 -0.0538,0.0048 -0.0522,0.0032 -0.0474,0.0251 -0.0322,0.0251 -0.0235,0.04661 -0.0339,0.03665 -0.0386,0.03187 -0.0271,0.04183 -0.003,0.0502 v 0.0498 l 0.003,0.05378 v 0.04861 l -0.0371,0.03505 -0.0506,0.0012 -0.0271,-0.04502 -0.0235,-0.04861 -0.0339,-0.03825 -0.047,0.01992 -0.0271,0.04343 -0.0382,0.03984 -1.30078,0.345412 -1.57248,0.472103 -0.4721,-0.314736 -2.51629,1.729848 -4.56047,-0.629072 -0.62907,1.101171 -3.30273,2.044187 -2.35892,0.157366 -0.62907,-1.729848 -4.088765,1.258143 -0.629071,-0.471705 -5.504675,-1.10117 -1.887221,0.472098 -1.415108,1.100777 -3.460095,0.471705 -2.201552,-1.572482 -1.258143,1.100777 -2.830623,-1.572875 -0.157366,-1.258144 1.572473,-2.673256 0.157374,-1.258144 2.04458,-2.20195 -1.887214,0.629072 -0.472106,-0.314337 -3.774033,2.044185 -0.472098,-0.471704 -3.145361,0.471704 -1.57248,-0.15697 -0.78644,-0.786439 -2.358919,1.415511 H 67.09196 l -0.629072,1.258144 -1.258144,-0.157368 -3.302328,2.830624 -0.786439,1.887214 -1.729848,-0.629071 -1.415511,2.201946 -1.100776,0.157374 -4.246135,4.56047 -4.56087,2.04458 -1.100776,-1.258143 -0.472103,0.629072 -1.729847,-0.943804 -2.516288,0.314732 -1.57248,0.786438 -0.943806,-0.314732 -2.044185,1.729847 -0.472103,1.887213 -1.415113,2.044587 0.314337,0.943403 -4.246135,0.629078 L 18.635505,94.790701 0.1019901,96.426924 0.0681262,96.676318 0.0115536,96.868747 0,97.129297 l 0.056971,0.340235 0.11314527,0.249402 0.20398021,0.215133 0.29481514,0.192822 0.1131453,0.147413 0.0454174,0.169717 0.0681265,0.147405 0.1019901,0.147406 0.040238,0.100794 0.00518,0.01272 0.07968,0.07928 0.1243005,0.101988 0.2382424,0.135849 0.1019902,0.124701 0.033864,0.170118 0.011553,0.06777 0.027888,0.08366 0.028685,0.08645 0.1358539,0.158561 0.1246989,0.170119 0.1701163,0.23784 0.1135436,0.14741 0.00199,0.0243 0.01992,0.17968 0.090835,0.18127 0.1019902,0.13625 0.090835,0.15857 0.022311,0.0793 0.1246988,0.23824 0.07968,0.18128 0.033864,0.19242 -0.022709,0.22669 -0.045417,0.22669 v 0.0247 l 0.00239,0.0581 0.00318,0.0741 0.00996,0.0773 0.030278,0.0741 0.053784,0.0876 0.057369,0.0574 0.035059,0.0339 0.039043,0.0606 0.01753,0.0215 0.056573,0.0693 0.057369,0.0709 0.074102,0.0741 0.1011933,0.0637 0.1314716,0.0777 0.067329,0.0403 0.084062,0.0573 0.062549,0.0653 0.045417,0.0558 0.030278,0.0438 0.00557,0.0112 0.013944,0.0271 0.011553,0.0267 0.013147,0.0323 0.011155,0.0641 0.011554,0.0932 0.00478,0.0311 v 0.14741 l 0.02231,0.22669 0.013546,0.0598 v 0.0132 l 0.014741,0.0649 0.00876,0.0654 0.017928,0.0534 0.029482,0.0502 0.035457,0.0562 0.023904,0.0506 0.035457,0.0682 0.026693,0.0382 0.038645,0.0653 0.032669,0.0562 0.029482,0.0294 0.029482,0.0207 0.026693,0.0239 0.044621,0.0267 0.04741,0.0207 0.070915,0.0207 0.080078,0.0207 0.068126,0.0267 0.00518,0.002 0.045019,0.0183 0.053385,0.0327 0.06215,0.0382 0.05219,0.0378 0.058564,0.0422 0.016733,0.0119 0.086851,0.0621 0.070119,0.0502 0.054182,0.0271 0.022709,0.0116 0.045019,0.0291 0.014343,0.01 0.053385,0.0322 0.044222,0.0239 0.032669,0.0263 0.044222,0.0474 0.065337,0.0829 0.1027869,0.12669 0.012748,0.0156 0.1183245,0.13625 0.1183244,0.13904 0.064541,0.0753 0.081672,0.13505 0.027888,0.0721 0.0247,0.28008 0.017928,0.38963 0.033864,0.27131 0.00916,0.0283 0.022709,0.0705 0.073703,0.13147 0.023904,0.0434 0.060955,0.10558 0.060955,0.0936 0.085656,0.1259 0.036255,0.051 0.14183,0.2478 0.176889,0.33665 0.023904,0.13028 0.023505,0.15896 -0.011553,0.21155 -0.011155,0.1733 -0.00677,0.10916 -0.010358,0.13227 -0.0012,0.0207 -0.012748,0.1737 -0.014741,0.19124 -0.096412,0.19282 -0.00597,0.0127 -0.061354,0.0817 -0.2035818,0.27131 -0.2665288,0.37131 -0.1239021,0.2478 -0.0498,0.15258 -0.036255,0.14503 -0.015538,0.12908 -0.015538,0.17609 -0.015538,0.19123 -0.00518,0.13426 0.01992,0.10996 7.94e-4,0.004 0.00279,0.005 0.054182,0.0833 0.082469,0.12909 0.051792,0.12947 0.00638,0.0195 0.035059,0.10956 0.015538,0.10357 -0.00557,0.12391 -0.051792,0.11912 -0.020717,0.0375 -0.038246,0.049 -0.060158,0.0462 -0.092827,0.0658 -0.099201,0.0685 -0.1215117,0.0841 -0.070915,0.0574 -0.073703,0.0518 -0.065337,0.0598 -0.054581,0.0601 -0.051792,0.0709 -0.038246,0.0625 -0.037051,0.0904 -0.00678,0.016 -0.04223,0.1243 -0.00956,0.0287 -0.035457,0.0924 -0.038246,0.11753 -0.00837,0.0682 -0.012748,0.12549 -0.031473,0.18885 -0.00358,0.0235 0.035059,0.19481 0.1099581,0.18566 0.2462105,0.36892 0.023505,0.0581 v 0.0558 l 0.013147,0.0665 0.0016,0.298 0.02749,0.0542 0.00876,0.0809 0.09203,0.21632 0.1358541,0.19841 0.091233,0.18008 0.1183244,0.24301 v 0.045 l 0.027888,0.0725 -0.014741,0.77609 0.010757,0.74022 0.019521,0.0992 0.00956,0.2976 0.037051,0.16255 -0.00837,0.37011 0.037051,0.17131 0.063744,0.16255 0.063744,0.0992 0.019123,0.0721 0.1450172,0.26095 0.1466107,0.16215 0.3442167,0.17011 0.2183225,0.15259 0.2725048,0.23347 0.1808731,0.12589 0.1908331,0.18007 0.03745,0.0721 0.1270894,0.14382 0.2003943,0.31513 0.045416,0.0454 0.081671,0.16214 0.063742,0.063 0.037052,0.09 0.054182,0.0717 0.092428,0.20717 v 0.0454 l 0.045417,0.10796 0.109161,0.18048 0.017932,0.0904 0.055377,0.10757 0.082468,0.23466 0.081672,0.3243 0.020314,0.47847 -0.00836,0.15378 -0.090038,0.12669 -0.099201,0.0992 -0.1717104,0.10039 -0.1175273,0.0904 -0.063349,0.0183 -0.1812709,0.11792 -0.153782,0.0726 -0.1533841,0.0458 -0.2450151,0.0371 -0.07211,0.0366 -0.2266889,0.0637 -0.16175,0.0821 -0.1358539,0.0904 -0.090835,0.0638 -0.090038,0.10876 -0.1083645,0.18047 -0.2338602,0.47927 -0.026294,0.11753 -0.098405,0.1765 -0.047808,0.25377 0.063345,0.19004 0.1430251,0.0634 0.2693177,0.11115 0.3330614,0.14263 0.3960085,0.19043 0.4442147,0.15857 0.4119441,0.0314 0.4123428,-0.0474 0.4438167,-0.0318 h 0.3964066 l 0.2852542,0.016 0.3011896,0.0952 0.364534,0.23745 0.511943,0.37967 0.386845,0.65776 0.464533,0.46453 0.658155,0.42549 0.503178,0.27091 0.42549,0.30996 0.387244,0.38684 0.07291,0.0132 0.352584,0.0642 0.224298,0.0263 0.433857,0.051 0.503177,0.15498 0.42549,0.38725 0.06215,0.1474 0.02032,0.21434 0.02072,0.34741 -0.03187,0.0876 -0.0502,0.13745 -0.02032,0.13267 -0.143025,0.20437 -0.06135,0.30637 v 0.12271 l -0.04064,0.16375 -0.06135,0.18365 -0.112349,0.19443 -0.09203,0.17369 -0.529073,0.41673 h -0.01792 l -0.153782,0.14502 -0.08127,0.10876 -0.05418,0.11752 -0.06215,0.0904 -0.107966,0.26215 v 0.0362 l -0.01314,0.0307 -0.03267,0.0777 0.0016,0.045 -0.04582,0.0908 -0.09004,0.27092 -0.0263,0.12629 0.0016,0.0992 0.08127,0.21912 0.08127,0.14621 0.162148,0.15458 0.146213,0.0813 0.12191,0.12987 0.146212,0.0323 0.113544,0.10558 0.01634,0.18685 -0.0486,0.0733 -0.08924,0.11354 -0.05697,0.0729 -0.113544,0.13027 0.008,0.0809 0.06494,0.0896 0.05259,0.0434 0.04502,0.0378 0.09721,0.12988 0.05697,0.12988 0.05697,0.0813 0.162547,0.0892 0.170514,0.0892 0.08924,0.0649 0.154181,0.12192 0.08964,0.12191 0.08924,0.14621 0.03227,0.10557 0.01634,0.10557 -0.0024,0.1506 0.03825,0.29163 -0.01275,0.17769 -0.01275,0.22867 -0.101592,0.27928 -0.113941,0.24104 -0.164938,0.24103 -0.139838,0.22828 -0.01156,0.0347 -0.07729,0.23187 -0.004,0.0191 -0.05936,0.2729 -0.06334,0.29202 -0.07609,0.27888 -0.05896,0.14382 -0.02988,0.0721 -0.135855,0.18606 -0.712735,0.72389 -0.235454,0.16374 -0.171709,0.055 -0.172507,0.10876 -0.0984,0.0908 -0.05378,0.0996 -0.04223,0.0813 -0.03307,0.17609 -0.03387,0.14024 0.05617,0.15298 0.04542,0.17132 0.05538,0.09 0.08167,0.0717 0.163344,0.0992 0.218322,0.098 0.108763,0.0721 0.09004,0.0175 0.100795,0.0446 0.217128,0.0358 0.300392,0.098 0.0992,0.0533 0.06374,0.009 0.07211,0.0355 0.272106,0.0534 0.409156,0.17887 h 0.04422 l 0.154977,0.0625 0.153782,0.0267 0.09123,0.0625 0.518317,0.53983 0.100396,0.12589 0.09123,0.20717 0.0096,0.0817 0.02789,0.0538 0.05498,0.21633 0.01912,0.31594 0.01833,0.0992 0.02749,0.045 0.0016,0.17131 -0.09004,0.30716 -0.02231,0.0558 -0.0498,0.12509 0.0016,0.10877 0.04462,0.0629 0.07291,0.0446 0.09123,0.0267 0.244617,0.0263 0.145415,-0.01 0.107966,-0.0454 0.09084,-4e-4 0.07211,-0.0454 0.08167,-0.0183 0.199199,0.008 0.07251,0.0175 0.136252,0.0446 0.1,0.0785 0.07291,0.0689 0.07888,0.0865 0.0016,0.002 0.0016,7.7e-4 0.109958,0.0833 0.02152,0.0156 0.05896,0.0422 0.08805,0.0458 0.08844,0.0498 0.01116,0.005 0.05777,0.0255 0.149798,0.0307 0.04821,0.007 0.212347,0.0311 0.195614,0.0267 0.12669,0.0271 0.111153,0.0191 0.15697,0.0382 0.11952,0.0434 0.148602,0.0765 0.124699,0.053 0.105576,0.0717 0.129479,0.11514 0.0996,0.0705 0.0088,0.006 0.0068,0.005 0.182467,0.0765 0.188841,0.0777 0.463338,0.0809 0.422701,0.0805 0.503576,0.3219 0.06733,0.0988 0.19402,0.28405 0.224697,0.31434 0.07769,0.10837 0.301987,0.34222 0.241429,0.12072 0.382463,0.20158 0.463338,0.18088 0.281668,0.26215 0.322305,0.24143 0.301986,0.30198 0.22151,0.28207 0.241429,0.46294 0.4231,0.40278 0.495609,0.22151 0.564132,0.48565 0.36334,0.48445 0.228282,0.29761 0.497601,0.60835 0.442222,0.38684 0.580866,0.38725 0.47011,0.0829 0.338639,0.0944 0.158962,0.0438 0.718711,0.3239 0.654968,0.647 0.272504,0.14422 0.471705,0.1247 0.308759,-0.0386 0.541822,-0.29083 0.507561,-0.0916 0.597598,-0.23704 0.235055,0.0163 0.164539,0.10717 0.198801,0.21673 0.256967,0.46852 0.582061,0.55616 0.108763,0.18048 0.0016,0.23425 -0.16175,0.18167 -0.05418,0.21633 0.110357,0.27091 0.145416,0.18048 0.09243,0.46852 0.455769,0.46732 0.562937,0.37609 0.237446,0.36015 0.01913,0.32549 -0.06972,0.68564 0.12948,0.54103 0.145416,0.27012 0.164538,0.12549 0.362145,0.1251 0.362543,-0.055 0.325093,-0.30876 0.27131,-0.41633 0.269715,-0.28963 0.145017,-0.0737 0.145416,-4e-4 0.181272,0.10757 0.108763,0.21673 0.113145,0.73903 0.0733,0.1992 0.119918,0.0765 0.118324,0.059 0.01195,0.002 0.09801,0.0151 0.219916,0.0255 h 0.177686 l 0.169319,-0.0171 0.262147,-0.13545 0.245414,-0.12669 0.118324,-0.0678 0.01594,-0.006 0.110754,-0.0446 0.287644,-0.0167 0.167726,0.0191 0.05219,0.006 0.253781,0.0928 0.270512,0.0932 0.199598,0.0542 0.174101,0.0327 0.162546,0.0757 0.369316,0.15936 0.441426,0.17569 0.319117,0.0821 0.302385,-0.0861 0.208761,-0.16374 0.130674,-0.20438 0.114739,-0.21673 0.118325,-0.0654 0.128683,0.0299 0.402382,0.10239 0.492023,0.198 0.230275,0.20438 14.44156,-11.17111 3.145358,-1.10117 3.14536,-2.98799 h 3.77443 l 6.919791,-4.08877 4.875203,-1.57288 2.358918,-6.44768 2.988391,-1.73025 4.560478,-0.94341 2.516285,-3.14536 1.729847,-1.41551 0.157366,-1.72985 1.572481,-0.31433 -0.156965,-2.20196 0.314331,-0.62907 0.943811,-0.4717 1.415111,0.31473 0.4721,-0.78644 0.62907,0.47171 0.47171,-0.78644 0.4717,0.4721 0.62908,-0.78644 0.4717,0.47171 0.9438,-0.94341 1.41552,0.31434 0.78604,-0.31434 v -1.41551 l 1.10077,-0.47171 1.88722,0.62907 -0.4717,-0.62907 0.9438,-0.4721 0.15697,0.4721 2.04458,-1.57288 2.47884,-0.55058 0.0526,-0.14183 0.0526,-0.14183 0.32629,-0.0761 0.19322,-0.22549 0.39043,-0.18884 0.3239,-0.0315 0.0594,-0.0661 -0.25577,-0.25656 0.0809,-0.0733 0.21314,0.0896 0.22868,0.26652 0.10837,-0.0303 0.0538,-0.13665 -0.0869,-0.21394 -0.0861,-0.14462 0.0386,-0.0876 0.19522,-0.0916 0.32908,-0.29881 0.10717,-0.10677 0.0876,-0.0127 0.10199,0.0825 0.0825,0.20598 0.1502,0.0371 0.13306,-0.14104 0.0366,-0.0837 -0.16812,-0.20199 -0.0406,-0.0976 0.0721,-0.0813 0.36015,-0.055 0.41314,-0.23545 0.13904,-0.10717 0.0446,-0.11195 -0.20279,-0.11116 -0.17529,-0.19283 0.002,-0.10596 0.22271,-0.0327 0.18964,-0.0466 0.0853,-0.0419 0.0661,-0.0793 0.0195,-0.0566 0.005,-0.0713 -0.15776,-0.1992 -0.0845,-0.27051 -4e-4,-0.045 0.0211,-0.0454 0.0522,-0.0259 0.0701,-0.005 0.24183,0.149 0.0311,0.0103 0.0395,-7.7e-4 0.0769,-0.0335 0.0594,-0.0597 0.0295,-0.0653 0.002,-0.0458 0.0187,-0.0347 0.0534,-0.0458 0.0849,-0.0502 0.0438,-0.0204 0.0502,-0.008 0.0474,0.0327 0.0283,0.0673 7.7e-4,0.0629 -0.0259,0.0597 -0.18844,0.24182 -0.0151,0.10717 0.0757,0.10877 0.11554,0.0426 0.15299,0.009 0.10437,-0.0371 0.0737,-0.061 0.0438,-0.10876 -0.0287,-0.0948 -0.0395,-0.0904 0.0127,-0.0809 0.0649,-0.0446 0.18008,-0.0865 0.24979,-0.0526 0.0621,-0.0171 0.0542,-0.0506 0.0143,-0.049 -0.005,-0.0474 -0.0654,-0.12031 -0.053,-0.13905 -0.0147,-0.16932 0.0307,-0.13187 0.0239,-0.0621 -0.003,-0.0781 -0.0542,-0.0701 -0.0761,-0.0538 -0.0263,-0.057 -4e-4,-0.0446 0.0318,-0.039 0.0968,-0.11832 0.13546,-0.0893 0.10678,0.0183 0.16055,0.094 0.347,0.0697 0.27809,0.0557 0.28604,-0.0876 0.29681,-0.21473 0.26295,-0.15856 0.18645,-0.10917 0.0526,-0.10717 0.0116,-0.21991 0.0498,-0.043 0.10677,-0.002 0.0566,0.0399 0.10796,0.11753 0.16455,0.11195 0.13426,0.005 0.10875,-0.0478 0.13507,-0.27928 0.21673,-0.15059 0.11393,-0.13586 0.0582,-0.10956 0.11673,-0.045 0.0649,-0.0996 -0.0119,-0.0769 -0.0868,-0.0641 -0.0466,-0.0721 -0.002,-0.0797 0.0331,-0.0598 0.13267,-0.0291 0.11115,0.0119 0.12629,0.0267 0.21315,-0.0366 0.10397,-0.0518 0.0761,-0.0682 0.0108,-0.0693 -0.0191,-0.0665 -0.0976,-0.11156 -0.0769,-0.10916 -0.005,-0.0506 0.0606,-0.0673 0.0861,-0.0375 0.22629,-0.0191 0.19123,-0.0406 0.20836,-0.0191 0.1247,-0.0729 0.31035,-0.0406 0.2239,-0.0399 0.39841,-0.14502 0.34022,-0.23705 0.11156,-0.16214 0.10796,-0.24542 0.0984,-0.0638 0.18445,-0.0506 0.34582,-0.3008 0.18406,-0.096 0.0928,-0.11553 -0.0175,-0.0478 -0.0379,-0.0207 -0.20438,0.0151 -0.14661,-0.018 -0.0904,-0.0423 -0.0542,-0.11833 0.0677,-0.11952 0.10558,-0.11434 0.0693,-0.0298 0.0892,0.0191 0.25577,0.088 0.0853,-0.0119 0.0837,-0.0638 0.0741,-0.10358 0.0853,-0.0685 0.0717,-0.0156 0.0625,0.0259 0.047,0.0574 0.0259,0.0557 0.0259,0.0395 -0.0689,0.11156 -0.0347,0.12389 -0.005,0.15538 0.01,0.18127 0.0813,0.23466 0.10238,0.22828 0.0773,0.21036 0.0422,0.23266 0.006,0.40876 -0.0251,0.41872 7.7e-4,0.21752 0.0339,0.16295 0.12828,0.34979 0.32868,0.50119 0.0801,0.15218 0.0542,0.20518 0.0362,0.17211 0.0195,0.19442 -0.0287,0.15218 -0.0419,0.0956 -0.41951,0.41353 -0.38166,0.34661 -0.25099,0.21553 -0.12669,0.14223 -0.11634,0.18286 -0.0682,0.151 -0.0482,0.18167 -0.0307,0.25338 -0.005,0.23426 0.0203,0.15736 0.0422,0.13706 0.11633,0.18047 0.13107,0.151 0.19363,0.12349 0.1996,0.09 0.13386,0.0506 0.0868,-0.005 0.0737,-0.0685 0.0395,-0.0713 0.0498,-0.16374 0.0243,-0.25537 7.7e-4,-0.20399 0.0307,-0.12469 0.0466,-0.1255 0.0697,-0.13426 0.1235,-0.0996 0.0741,-0.0187 0.0713,-0.004 0.16255,0.0318 0.19641,0.12031 0.14701,0.1502 0.26174,0.41075 0.21714,0.33227 0.0454,0.0936 0.0175,0.1502 -0.0793,0.3466 -0.0395,0.12749 -0.1239,0.27928 -0.0908,0.24422 -0.0379,0.16693 -0.0151,0.10398 0.0175,0.12988 0.11474,0.26493 0.36454,0.66732 0.12111,0.3486 0.0235,0.16653 -0.009,0.15537 -0.0267,0.16414 -0.0908,0.35537 -0.0669,0.14781 -0.11553,0.1498 -0.19761,0.2478 -0.28087,0.40199 -0.0912,0.14582 -0.0896,0.17648 -0.0466,0.23068 -0.004,0.14143 0.0103,0.13426 0.0251,0.11434 0.0697,0.11713 0.14063,0.1474 0.17809,0.12989 0.21473,0.0697 0.19203,0.0171 0.27291,-0.0227 0.39999,-0.10439 0.38485,-0.13545 0.35019,-0.17131 0.28565,-0.11435 0.54023,-0.14621 0.37529,-0.0908 0.36972,-0.09 0.65816,-0.0506 0.59361,0.041 0.70278,0.0399 0.43186,-0.0231 0.10597,0.0259 0.0594,0.0621 0.0247,0.0896 -0.0112,0.13745 -0.0255,0.0658 -0.051,0.0733 -0.10996,0.14223 -0.0586,0.096 -0.0291,0.0936 -0.0239,0.10756 -0.007,0.14821 0.0147,0.13625 0.0506,0.18327 0.0494,0.0932 0.0873,0.0872 0.0928,0.0434 0.23466,0.0853 0.63784,0.19681 0.30995,0.14422 0.0801,0.0661 0.22031,0.41074 0.18207,0.42111 0.10956,0.2733 0.14183,0.29124 0.16334,0.13585 0.36294,0.2239 0.58804,0.51353 1.15974,-0.17211 0.24542,-1.52028 0.96014,-0.78804 1.13145,0.0817 1.00317,-0.10877 0.5207,0.30199 0.78246,-0.41155 0.52668,0.60198 0.12231,0.9701 1.1195,-0.9195 0.78644,1.25814 1.10078,0.31474 0.78644,-0.31474 6.44768,-6.13335 10.06515,0.47171 2.20195,-0.15697 2.20155,1.57248 -0.62907,0.62907 1.57248,1.10078 -0.15696,0.9438 h 0.47169 l 0.15738,-0.78644 0.9434,0.62908 0.31474,0.62907 0.94341,-0.31434 0.4717,1.25815 2.04458,1.41511 5.34691,0.62907 0.94381,-0.78644 1.10078,-0.15697 3.77443,3.14536 0.4717,-0.47211 1.10078,0.15738 2.20195,1.57287 1.72985,-0.4721 2.67365,-2.04418 2.51629,0.94341 0.94341,-1.25814 3.93179,-0.94342 0.47171,-0.62907 h 1.25814 l 3.14536,-3.46009 2.35892,0.31473 1.41551,2.04459 2.04459,-0.15738 1.10077,-21.5454 -0.0908,-1.970082 -0.62628,-1.698377 1.56491,-2.056136 0.76294,-1.66969 2.00633,-1.098386 0.47171,-1.415108 1.25814,-1.101177 1.27169,-5.589934 0.78604,-1.415508 1.25815,-0.471705 1.25814,-2.044187 2.04459,-1.258142 0.9434,-0.472106 2.34577,-0.85775 1.57288,-2.201948 2.83063,-1.100776 4.08876,-5.504278 1.41551,-0.78644 1.25815,-2.35892 3.30272,-1.887215 1.57248,-0.156969 1.57528,-1.675267 2.50553,-1.395989 5.18396,-3.35412 0.16573,-0.766919 8.62056,-27.726567 -20.88964,-2.444177 -14.54435,-1.70196 -18.6132,-2.178843 -11.98543,-1.402762 -16.51363,-1.933032 -9.76755,-1.143404 -8.41497,-0.985241 -0.55776,-0.20159 -0.60597,-0.219119 -1.23942,-0.522699 -12.09101,-4.353305 -11.68065,-4.2058966 -13.42166,-4.8329766 z m 29.99465,12.295784 3.07683,2.236213 3.07684,5.154882 0.98364,-0.618713 1.91909,3.219461 4.04415,2.109522 0.349,0.01594 0.63425,0.475687 -0.60238,3.885983 -3.45771,3.298742 -6.62975,3.21986 -1.10994,-0.01594 -4.66325,-0.666123 -4.36128,-6.99429 0.0315,-1.443399 -0.74541,-0.919903 -0.84062,-0.475688 -0.36454,-0.729867 -0.41234,-0.523098 -0.016,-0.444214 1.40436,-1.592003 2.64656,-0.583256 3.58878,-1.794388 -0.67728,-2.295175 -0.65019,-0.935839 -0.0952,-0.570906 -0.65019,-1.173683 v -0.412342 l 1.82388,-1.252965 0.50755,0.09522 0.41234,0.190037 z"
    data-name="Zona Rural" id="zona_rural" />
</svg>