<?xml version="1.0" encoding="UTF-8" standalone="no"?>
<svg width="1001.0975mm" height="841.56146mm" viewBox="0 0 1001.0975 841.56145" version="1.1" id="svg5"
   xml:space="preserve" xmlns="http://www.w3.org/2000/svg" xmlns:svg="http://www.w3.org/2000/svg">
   <defs id="defs2" />
   <path class="neighborhood"
      d="m 270.80703,584.22002 -7.54448,3.93002 -1.25614,11.9425 -6.12979,5.02915 -0.94211,4.08552 -2.04428,7.38746 1.25767,1.72872 -0.47106,2.04274 -6.2868,0.94211 -1.57171,2.04274 -3.45744,-0.62805 -6.12827,3.92849 -9.74425,22.94442 5.02915,10.21531 -3.9285,10.84336 -3.92849,3.14341 2.35679,8.17253 -4.39955,5.81424 2.04276,2.3568 -4.24406,8.17253 1.88727,3.30044 1.57018,5.81424 -3.14188,1.41469 -0.94363,5.97123 -8.48659,2.04278 -0.94211,3.14338 -6.75786,0.78661 -4.40107,5.50021 1.88726,7.0719 -3.773,5.97123 -1.25614,-1.88572 -10.52934,-0.7851 -1.41468,5.97126 -5.34318,-2.04275 -2.3568,-6.44384 6.28529,-7.38593 -0.15703,-6.28682 4.87212,-9.5857 0.62808,-7.85697 1.88574,-3.93003 -1.57171,-10.3708 2.67236,-5.81577 -0.15703,-11.00039 -0.94821,-9.16037 -3.14798,-9.86013 -1.28967,1.35068 -7.40118,13.15747 1.91927,4.93464 -8.49725,8.77165 0.27287,2.46807 -7.94846,11.23822 0.82168,1.37197 -3.01535,5.48192 2.46655,6.03071 -3.28822,7.40117 2.46654,3.83855 -1.09607,8.77165 -4.11295,3.01535 -1.91775,4.11145 1.37047,3.28973 -3.00925,6.5658 1.57475,4.97729 4.82944,3.17392 -0.55185,7.45147 -0.82777,9.52015 2.75924,6.485 -4.41479,5.24256 -6.34779,2.34611 -15.17737,0.8278 -6.62218,6.76091 4.69071,4.00165 4.82944,8.82959 -3.58702,6.485 -2.62204,12.41812 -11.86628,10.62385 -4.82944,0.13865 -4.41479,-1.79427 -2.75925,1.79427 -0.96649,7.58871 173.29887,-48.84475 3.72573,1.79427 125.83527,3.03517 14.90145,8.41648 63.05559,2.62203 11.72756,-5.10536 11.59036,-10.21074 8.83112,-10.072 -0.55186,-4.27759 -1.65706,-2.06867 3.4498,-0.41465 1.24244,-2.75926 4.41479,0.13865 0.27583,-2.89798 21.38644,-23.59382 1.79427,-4.13888 -6.89965,0.68905 -0.55186,1.10371 -6.76091,-1.93147 5.10539,-2.34612 -1.10371,-0.96497 0.9665,-3.44982 4.00015,0.27582 v -3.03515 l 1.24241,-2.75926 -0.27582,-1.38115 2.48332,-0.82777 0.27582,-1.37961 7.86462,-6.34627 -4.00168,-0.41465 -3.31108,2.89798 -7.72589,1.93147 -4.82944,-0.41312 -0.41465,-1.933 2.34612,-1.93147 -0.55185,-2.62053 3.58703,-3.03668 3.72573,-0.41315 0.27583,-1.24241 -1.24242,-1.37962 -8.82958,3.86448 -6.48497,0.27435 -0.27583,-3.587 4.27759,-1.65556 v -1.10371 l 5.65571,-6.89808 -0.41315,-2.07021 -4.13885,4.13885 -4.69224,1.51836 -1.37962,-1.79427 7.31277,-9.79609 0.27582,-2.75923 -1.37962,-0.82777 -10.62385,9.52015 -1.93147,3.72573 -3.86447,-0.13864 -6.48501,6.07185 -4.13885,-0.13865 -0.82776,1.79427 -5.5185,-0.27582 -1.37962,-2.62206 3.86294,-4.00165 -3.44982,-0.82777 2.62206,-2.75926 5.79441,-2.89797 -0.27582,-1.51682 -6.89812,2.75926 -4.4163,0.13717 2.62203,-2.62049 -2.34612,-0.8278 0.82777,-2.76077 6.89965,-6.07032 0.82776,-2.34612 5.24259,-7.03685 -2.62053,-0.27582 -9.38297,8.27926 -7.03682,4.96662 -1.10371,-0.55182 2.20741,-7.86462 -6.20906,2.07018 -0.41314,-4.00165 h 3.17238 l 0.27582,-1.65556 -1.93147,-2.89797 1.65556,-2.48333 0.13865,-1.24088 -5.38127,0.13718 0.27582,-4.00168 5.5185,-6.89812 0.27583,-3.44982 -4.00015,2.07021 -2.76077,1.51682 0.27583,-2.48333 2.89797,-3.72573 3.03515,-1.24091 -0.27583,-2.34612 -3.03517,-0.27582 -4.82945,6.34779 -2.89797,2.06865 v -2.20738 l 1.10524,-3.86294 -1.10524,-5.93315 3.86448,-2.20738 2.75923,-0.8278 0.27582,-2.48329 -2.75926,-0.13865 -3.03515,-2.34612 v 3.86447 l -4.55353,5.10382 -4.82944,1.7943 -4.82944,2.48332 -0.9665,-3.58703 2.48485,-2.0702 0.55186,-2.34459 -2.34612,-0.27582 0.27582,-3.72574 2.89797,-1.37962 -2.62203,-1.65556 -0.68906,-2.34611 -3.86447,0.27582 -1.93147,3.31109 -4.00165,-0.27583 -1.10371,-1.93147 5.3813,-2.48332 1.10368,-2.34612 -1.93147,-2.34461 -4.96662,-0.27583 -2.62206,-2.48485 -0.96497,2.0702 -3.72574,1.51836 0.13718,2.34458 2.89794,1.51836 -0.96647,4.5535 -1.37965,-0.13865 -4.00014,4.14039 -3.03668,4.27605 -1.79274,-0.68902 1.93147,-2.34615 0.27583,-5.51847 -1.10371,-3.03518 -2.48332,0.27435 -0.55185,6.20906 -2.62203,2.07018 -4.27759,-7.31274 -5.24256,-0.9665 -3.17392,-1.65556 -9.93479,1.65556 -3.31109,3.17388 -2.75923,0.13865 -2.75927,-2.34612 -3.31262,1.37962 -7.72588,-1.24091 v -2.89797 h -2.75924 l -2.48485,1.93147 -2.06868,-3.86294 -6.34776,-0.13865 -2.06868,1.51832 -3.72576,-3.86294 -5.79441,3.72424 -0.27583,3.72573 -6.485,-0.41311 -9.24421,-4.69224 -6.20908,-0.68906 -3.58854,1.93147 -2.89644,-2.62203 -1.65555,4.5535 -3.31263,-4.82944 -2.06867,3.86294 -4.5535,0.41465 0.13717,-3.03518 -1.24091,-0.69056 -2.07017,-8.96832 -3.44983,2.62206 -1.37962,-3.17388 -1.93147,-0.69059 -0.13717,-3.72421 1.65553,-1.51835 -0.55186,-1.93147 -2.75923,-0.82777 -0.55185,-1.65556 -2.48483,0.55186 -1.51682,-1.65556 -2.75927,0.82779 -4.14038,-0.9665 2.89797,-2.89797 0.41312,-4.96665 -4.13886,-3.31108 -0.55185,-4.00168 -2.89797,-0.27583 -1.93147,1.10371 -0.68906,-1.10371 -3.44981,-0.41311 -2.62204,-2.76077 0.529,-2.82174 -3.56874,-2.9742 z"
      data-name="Coxipó da Ponte" id="coxipo_da_ponte" />
   <path class="neighborhood"
      d="m 243.14446,486.47873 -6.84628,1.91623 -8.49878,9.86925 -9.86773,2.19215 2.19215,-10.41652 -9.59486,0.8232 -14.52796,4.66022 -2.17995,4.57943 5.74411,19.26898 -2.19368,43.31252 -1.37048,49.3417 -3.56414,9.86925 1.91927,4.66023 -4.11143,21.65628 -4.46815,4.68002 3.14799,9.86013 0.9482,9.16037 0.15703,11.00039 -2.67236,5.81577 1.57171,10.3708 -1.88574,3.93003 -0.62807,7.85697 -4.87213,9.5857 0.15703,6.28682 -6.28528,7.38593 2.35679,6.44384 5.34318,2.04275 1.41468,-5.97126 10.52934,0.7851 1.25614,1.88572 3.773,-5.97123 -1.88726,-7.0719 4.40107,-5.50021 6.75786,-0.78661 0.94211,-3.14338 8.48659,-2.04278 0.94363,-5.97123 3.14188,-1.41469 -1.57018,-5.81424 -1.88727,-3.30044 4.24406,-8.17253 -2.04276,-2.3568 4.39955,-5.81424 -2.35679,-8.17253 3.92849,-3.14341 3.9285,-10.84336 -5.02915,-10.21531 9.74426,-22.94442 6.12826,-3.92849 3.45744,0.62805 1.57171,-2.04274 6.28681,-0.94211 0.47105,-2.04274 -1.25767,-1.72872 2.04428,-7.38746 0.94211,-4.08552 6.12979,-5.02915 1.25614,-11.9425 7.54448,-3.93002 16.18656,2.35833 5.6572,4.71357 h 3.1434 l 1.09914,-2.19977 1.10063,1.72872 3.61447,-3.14341 5.02915,0.62961 0.31403,-1.88574 -2.98638,-3.93003 5.34318,-1.09913 6.91487,4.87213 2.04277,-2.82936 5.02913,1.10064 -2.67082,-4.24405 -7.22893,-0.31402 -1.25767,-3.45747 7.22893,-9.27167 -7.0719,1.88575 -2.67082,2.67082 -7.85851,-0.78508 3.61446,-2.04277 -0.47105,-2.67233 -0.78662,-2.98488 3.93,-0.62958 3.45746,1.88574 h 2.19977 l 0.62805,-4.08551 0.94364,-5.02916 4.87213,0.78661 2.19977,-2.2013 4.87213,-0.47106 2.82785,1.2577 4.87213,-4.5581 8.48657,-8.17255 -4.55808,-3.45592 4.24252,-2.51533 -0.47106,-3.45744 4.55811,-0.47106 -1.10067,-3.92849 -4.39954,-2.67235 -2.20131,-0.78509 -9.11464,2.51381 -2.19977,3.45744 -3.92849,-3.45744 4.87213,-2.19977 0.62805,-1.72872 0.15694,-2.67236 h 1.88574 l 3.14341,-5.81423 -5.34318,0.62807 -2.51533,1.25767 h -3.2989 l -4.7151,5.02914 -4.40108,0.62808 4.08702,-4.08551 3.30044,-3.61447 0.78508,-3.30042 -6.12826,-2.67083 -5.50171,0.78509 -2.19981,-3.30042 -0.15693,-3.92849 -5.50021,-1.10065 -3.45744,1.72872 -4.55807,-3.30042 -0.9421,-5.97125 -5.02916,1.25767 -2.82935,6.4423 -2.1998,6.60084 -3.61444,0.31404 2.98639,-6.59932 -0.31406,-2.04428 2.67086,-3.61446 -0.15694,-2.35679 -3.30044,-0.15703 v -2.82937 l -8.17101,3.30042 -8.32958,0.47258 -3.30042,2.98486 -4.71511,-1.09912 -4.8706,5.65721 1.25614,-4.08703 -0.47105,-7.38594 -3.14341,1.41469 -2.98486,7.69997 -2.82937,0.31556 -1.72872,4.8706 -2.98638,-1.88574 2.67235,-3.14188 0.9421,-4.08704 1.41469,-3.77147 -2.67083,-0.47106 1.88574,-4.55808 z"
      data-name="Coxipó do Ouro" id="coxipo_do_ouro" />
   <path class="neighborhood"
      d="m 193.82105,500.10269 -3.30195,6.93318 2.19215,14.80236 -2.19215,17.54483 -3.56415,3.01536 -0.5488,3.56413 1.91928,2.46657 -2.19368,6.57949 v 7.40117 l -4.9331,3.83704 -0.27441,3.56414 4.93463,4.93464 2.74095,0.82169 -3.28975,5.20901 -12.06141,10.14212 -12.8846,26.31651 1.0976,15.89996 -12.61021,3.01535 -3.56415,-2.1937 -11.23973,0.82322 -1.91775,2.74095 -6.57951,-5.48342 -9.04605,-5.48192 h -3.01535 l -1.37048,2.19369 -5.20902,1.64488 -6.30511,17.81771 -4.934623,1.09606 -4.658704,-1.91929 -2.193676,4.93464 -7.385934,3.00925 0.08233,2.13575 -6.677068,7.7396 3.289753,1.91929 4.660226,3.56263 4.660228,0.27435 3.289751,4.66023 -0.5488,3.56417 -2.193676,1.64488 5.483427,5.75629 v 3.56264 l 7.949986,3.28973 8.22285,-0.54725 2.19368,5.48189 3.56415,2.19366 1.09608,7.67558 -7.40118,6.57799 0.54727,6.0307 4.38583,6.57952 -0.54728,4.6602 4.93463,9.04606 5.2075,0.27435 7.67558,-7.67559 5.20903,-1.37047 5.2075,4.93464 11.78853,7.40118 3.01535,-6.57952 -1.37047,-3.28973 1.91775,-4.11145 4.11295,-3.01535 1.09608,-8.77165 -2.46655,-3.83854 3.28822,-7.40118 -2.46655,-6.0307 3.01535,-5.48192 -0.82167,-1.37198 7.94845,-11.23822 -0.27287,-2.46807 8.49725,-8.77165 -1.91927,-4.93464 7.40118,-13.15747 5.75782,-6.0307 4.11143,-21.65628 -1.91927,-4.66023 3.56415,-9.86925 1.37047,-49.3417 2.19368,-43.31251 z"
      data-name="Sede" id="sede" />
   <path class="neighborhood"
      d="m 26.316109,433.84406 9.320327,1.91889 7.127306,-3.83778 1.370638,0.82239 7.67556,-3.83778 4.660161,0.54825 21.381921,-15.89938 5.208421,-0.82238 9.320324,-7.94969 3.563656,1.64476 0.822381,-3.56365 5.756676,-1.09651 5.20841,-6.85318 17.54414,-10.14271 4.66017,-7.94968 -8.49795,-14.80287 14.52874,-8.77207 5.20842,-0.54826 6.57906,3.28953 10.41683,-4.93429 5.20842,3.56365 7.94968,-0.27414 17.54414,5.20842 4.93429,3.28952 3.56366,-0.27414 4.93429,-6.57905 16.99589,0.54825 13.98048,-3.0154 10.96511,1.91889 7.67555,-4.66016 6.03079,-6.30492 h 5.75668 l 3.28953,5.48254 0.27405,11.51334 3.56366,9.32033 -2.46715,19.73715 v 7.67557 l 2.74127,9.59445 -4.11189,3.83778 6.3049,5.48255 -3.56363,9.0462 1.0965,3.01539 -2.46715,2.19302 1.9189,1.64476 2.46716,-1.37063 3.28953,-0.27414 -0.27405,3.56365 -5.20844,6.57905 -0.27405,4.38604 -6.0308,6.0308 -1.37064,-1.64476 -4.93429,5.48255 0.82237,5.75666 -6.85316,5.48255 -2.46716,-6.30493 1.9189,-4.93428 -4.38603,-3.56366 -1.37065,6.30492 -9.04619,3.28953 -10.69096,-1.91889 5.20841,4.38604 12.33573,10.1427 -7.67556,10.69096 7.40145,1.37064 -6.8532,1.91889 -8.49794,9.86858 -9.86859,2.19302 2.19303,-10.41684 -9.59446,0.82238 -14.52874,4.66016 -5.48254,11.51335 2.19301,14.80287 -2.19301,17.54415 -3.56366,3.01541 -0.54826,3.56363 1.91889,2.46716 -2.19301,6.57904 v 7.40144 l -4.93429,3.83778 -0.27411,3.56367 4.93429,4.93428 2.74127,0.82237 -3.28953,5.20842 -12.0616,10.14271 -12.88398,26.31622 1.09652,15.89936 -12.60986,3.01541 -3.56365,-2.19301 -11.23922,0.82236 -1.91889,2.7413 -6.57905,-5.48257 -9.0462,-5.48253 h -3.0154 l -1.37064,2.19301 -5.20841,1.64476 -6.30493,17.81827 -4.934283,1.09651 -4.660161,-1.91888 -2.193024,4.93429 -7.401434,3.01541 -3.289523,-3.28956 -6.030801,-1.91887 -10.416832,-15.07699 -3.0154,-7.67556 -8.223816,-2.74127 -7.401436,-1.09654 -5.756672,-6.03079 0.548254,-15.89936 8.223817,-7.40144 3.289526,-7.1273 -1.370635,-4.38606 -4.11191,-4.66015 -1.644761,-14.25463 v -8.49792 l -8.223817,-9.32034 -6.579052,-1.64476 -7.675563,-8.77206 -5.482545,-2.74127 1.370638,-3.01541 -4.11191,-8.77207 1.644765,-7.9497 3.83778,-4.38602 0.822383,-13.43224 -4.660163,-6.85318 1.096507,-4.38604 L 6.8531792,479.34914 0,470.30294 v -3.01539 l 6.3049253,-1.9189 5.2084147,-5.48254 3.289526,-1.37064 3.289529,-4.38603 -0.548257,-6.30493 2.741273,-3.28953 -0.822381,-4.1119 5.756671,-2.46715 z"
      data-name="Guia" id="guia" />
   <path class="neighborhood"
      d="m 797.9405,250.36682 -8.97593,2.34154 -5.07335,-1.95128 -7.02464,3.90257 -3.12208,9.36619 -10.1467,7.4149 2.7318,3.90258 -0.7805,11.4562 3.90259,4.34924 -4.3904,16.58596 -9.75647,11.21991 -2.82936,-0.68295 0.87809,-3.80502 -9.75647,-5.65873 -8.87835,4.68309 -6.43924,-0.19514 -6.24414,-2.92693 -4.97579,3.60988 -5.07334,-2.24398 -7.61004,9.95157 -0.0976,4.29287 -2.53669,1.95126 -0.39026,5.36604 -0.87809,1.07324 -3.31716,-0.29264 -7.31734,-9.07349 0.97565,-0.97567 -0.29264,-2.24398 -7.21978,1.46346 -3.51231,-2.14641 1.56101,-1.85373 0.39026,-4.68309 -6.24411,-4.09771 0.87806,-3.90258 -5.95141,-6.63438 -8.19542,1.65859 -1.6586,4.48797 -5.1709,-2.14642 -2.7318,2.73181 -4.48799,0.0975 -3.90258,2.53668 -2.04885,12.00042 -11.26869,16.68351 -3.51231,5.41483 -4.04894,0.8293 -3.75624,-0.92685 -0.68295,5.02455 4.1465,3.12208 -14.43954,8.58566 v 8.5491 l 5.34165,8.83566 -0.9665,35.80465 -7.72588,19.86809 11.0385,34.21921 -20.9733,17.66068 -38.63247,6.62218 -32.01183,-3.31109 -30.90659,24.28441 2.05191,8.64359 17.56159,17.17133 18.34212,-8.9759 11.31749,-1.17079 53.07507,27.31804 12.09799,1.17076 37.0745,-4.29284 58.92892,-6.24409 40.97706,-12.87853 12.48827,-7.80514 15.22004,-24.97651 24.58626,-51.51403 139.71228,63.22176 -1.56101,-17.95183 10.1467,-19.51291 -2.34155,-5.07335 2.34155,-12.87849 3.5123,-6.63439 -1.56101,-5.85388 -3.51234,-2.34155 -2.34154,-14.04928 0.78053,-7.80515 -7.80517,-21.07392 -1.17076,-15.22007 11.70773,4.29284 31.61087,-64.78278 -24.58623,1.17076 -3.90258,-1.95128 -6.24414,-0.78051 -5.4636,-5.07335 -2.34155,-7.80516 -16.78105,-17.56164 -10.92723,-0.39026 -10.9272,-7.4149 -1.17079,14.43954 -44.87964,-25.75702 -0.78051,-5.4636 -5.07337,-2.34155 -19.51288,3.12206 -10.1467,-12.09799 -12.48827,-2.73181 z"
      data-name="Região Sul" id="regiao_sul" />
   <path class="neighborhood"
      d="m 776.1577,137.71341 -9.13447,0.65551 -19.59214,11.3129 -6.62221,1.38115 -5.79594,2.48332 -6.62218,14.07367 -3.58853,0.82778 -4.69074,6.62218 -14.90144,16.28107 -5.79441,-3.03517 -17.11036,0.27591 -3.58703,-2.48332 -2.75923,1.37963 -5.5185,-3.3111 -6.3478,4.13887 -7.72588,9.38296 -8.27924,3.03517 -13.52182,-1.93147 -4.69074,0.27591 -3.86447,-3.86295 -17.66068,-13.24589 -2.44674,3.38274 -6.9347,9.58723 -1.38115,7.17404 -18.21253,19.31624 -11.86627,-8.55366 -13.24591,9.9348 -3.86294,6.07034 5.52,4.96664 0.27435,9.10703 -3.31109,3.86295 -16.41522,20.91538 3.80503,4.09771 -9.65888,18.82994 1.0732,13.1712 23.12277,18.73237 20.29342,12.87851 18.73237,26.14727 14.82979,7.02464 v -8.58568 l 14.43954,-8.58565 -4.1465,-3.12209 0.68295,-5.02455 3.75624,0.92685 4.04894,-0.8293 3.51231,-5.41483 11.26869,-16.68351 2.04885,-12.00042 3.90258,-2.53668 4.48799,-0.0976 2.7318,-2.7318 5.1709,2.14642 1.6586,-4.48797 8.19542,-1.65859 5.95141,6.63438 -0.87806,3.90258 6.24411,4.0977 -0.39026,4.6831 -1.56101,1.85373 3.51231,2.14641 7.21978,-1.46346 0.29264,2.24398 -0.97565,0.97564 7.31734,9.07349 3.31716,0.29264 0.8781,-1.07323 0.39025,-5.36605 2.53669,-1.95126 0.0976,-4.29284 7.61004,-9.95157 5.07334,2.24398 4.97579,-3.60988 6.24414,2.92693 6.43925,0.19514 8.87834,-4.6831 9.75648,5.65874 -0.8781,3.80502 2.82936,0.68295 9.75647,-11.21991 4.3904,-16.58596 -5.12214,-5.70752 -0.63419,-4.68309 -7.02464,-3.70745 -8.55061,-14.9167 2.89798,-6.69231 2.55344,-0.96497 2.13729,-7.17556 -6.485,-13.2459 -3.37971,-5.03524 -6.89808,-3.79587 3.86294,-5.93161 6.73955,-6.78074 0.195,-4.29283 z"
      data-name="Região Leste" id="regiao_leste" />
   <path class="neighborhood"
      d="m 607.01296,59.096277 -69.85919,18.00979 -2.75927,-36.701005 -27.87141,12.969976 -9.38295,6.89811 4.4163,25.112178 -3.31262,4.41479 -6.34626,3.58702 -1.65553,7.451484 -2.48333,7.45148 -4.96818,7.72589 -5.79441,5.24256 -3.587,0.27591 -7.4515,3.86447 -6.89812,7.72589 -4.96815,2.48332 -5.51849,-10.48513 -3.31109,-1.1037 -6.62371,11.58883 -10.20921,9.10703 0.55186,13.52182 15.45329,11.31443 3.31109,26.76773 -11.0385,17.38476 -14.62553,12.69405 -0.27583,21.24771 12.14218,20.14554 1.37965,19.59216 19.31774,40.84141 8.55367,2.75924 20.42145,-5.51847 30.63068,-28.69922 17.4366,7.0658 -1.07321,-13.1712 9.65889,-18.82994 -3.80503,-4.09771 16.41522,-20.91538 3.31109,-3.86294 -0.27435,-9.10704 -5.52,-4.96664 3.86294,-6.07034 13.24591,-9.9348 11.86627,8.55366 18.21253,-19.31624 1.38115,-7.17404 6.9347,-9.58723 -11.351,-9.73053 -0.82779,-4.69071 -27.04365,-21.24924 z"
      data-name="Região Oeste" id="regiao_oeste" />
   <path class="neighborhood"
      d="m 607.01296,59.096277 -40.33225,90.585543 27.04365,21.24924 0.82779,4.69071 11.351,9.73053 2.44674,-3.38274 17.66068,13.2459 3.86447,3.86294 4.69074,-0.27591 13.52182,1.93147 8.27924,-3.03517 7.72588,-9.38296 6.3478,-4.13886 5.5185,3.31109 2.75923,-1.37962 3.58703,2.48332 17.11036,-0.27591 5.79441,3.03517 14.90144,-16.28107 4.69074,-6.62219 3.58853,-0.82777 6.62218,-14.07368 5.79594,-2.48332 6.62221,-1.38114 19.59214,-11.31291 9.14211,-0.65551 -61.84826,-87.375064 -13.52182,14.627047 -6.07186,3.311094 -22.62732,16.005146 -8.55518,0.275911 -4.41479,2.759244 -14.07368,-0.827774 -1.37962,-3.311093 -15.17738,-10.762579 -10.76259,-13.797749 -3.31109,2.48332 -6.62371,-2.207393 z"
      data-name="Região Norte" id="regiao_norte" />
   <rect height="278.84531" id="zoom_-_quadrado_menor" width="150.26665" x="62.067574" y="482.98087" />
   <path class="neighborhood" d="M 212.33422,622.40351 402.77658,298.56214" data-name="Zoom - Link entre Quadrados"
      id="zoom_-_link_entre_quadrados" />
   <rect height="587.12427" id="zoom_-_quadrado_maior" width="593.32086" x="402.77658" y="5" />
</svg>