<?xml version="1.0" encoding="UTF-8" standalone="no"?>
<svg version="1.1" id="svg2" width="1000" height="800.14288" viewBox="0 0 1000 800.14289"
   xmlns="http://www.w3.org/2000/svg" xmlns:svg="http://www.w3.org/2000/svg">
   <defs id="defs6" />
   <path class="neighborhood"
      d="M 967.13632,364.96101 1000,389.17962 l -9.20684,-25.34932 -20.35751,-11.02622 17.41412,-7.97682 2.31208,-24.89823 -6.9721,-33.29168 12.11515,-32.45845 -44.22262,45.17996 -13.56051,6.935 -5.94772,-4.75171 -10.65921,7.11772 -1.01577,-3.06436 -2.18439,-2.44118 5.94132,-5.57667 2.77501,-2.94507 -4.97279,-3.06953 -8.43272,-0.88685 -3.27206,-6.24896 0.18138,-5.50649 -12.32001,-10.99301 19.16581,-16.90287 -4.67747,-14.03244 -7.79582,-7.7958 h -18.70992 l -4.67747,-29.62406 -10.91412,-9.35497 17.15076,-17.15076 -35.8607,-6.23665 -17.15077,6.23665 -7.7958,-3.11833 -10.91412,12.47327 -38.97901,4.6775 -9.35496,-9.35497 -17.15079,1.55917 -10.91412,-17.15079 h -24.94657 l -4.67749,-6.23662 12.47329,-9.35497 4.6775,-17.15077 -14.03245,1.55917 -7.7958,-10.91412 -20.26909,-24.946586 -7.79581,-9.354949 -10.91412,3.118303 -12.4733,-9.35495 -1.55915,-43.656503 -7.7958,-12.473292 -7.79581,23.387413 -7.7958,6.236646 -6.23665,-6.236646 6.23665,-7.795798 L 615.86262,26.505736 623.65843,12.473292 611.18514,10.91414 594.03437,0 581.5611,10.91414 570.64696,1.5591715 l -10.91412,1.5591516 -7.7958,18.7099379 -23.38741,-4.677494 -7.7958,10.91414 -7.79582,-1.559171 -7.2331,-11.577232 -0.56269,-0.896041 -19.48749,-8.0008414 1.26075,0.8946455 3.61583,3.0176047 0.80079,6.1834662 3.20267,7.568489 0.61978,14.839307 3.84847,7.938773 -5.09596,6.64827 -1.36114,14.026205 -8.98811,15.504909 0.5939,16.664636 2.68627,4.254633 0.80063,4.27755 -2.11796,8.77761 1.85447,6.49812 -3.78721,4.69587 -0.46868,7.62851 -1.96892,3.61976 -4.46902,2.78216 2.25019,6.55128 5.00413,5.23191 -0.91024,6.4643 -0.28128,8.04651 -4.10761,8.03903 2.63887,10.38651 4.15642,7.83634 1.65646,7.14827 0.87499,6.13127 0.0283,5.91747 0.014,1.96641 -0.418,1.14924 -1.18606,0.12936 -1.39357,-1.9934 -0.64003,-1.71431 -0.45934,0.0907 -0.74029,0.88779 -1.82513,-0.0977 -0.53995,-0.0211 -0.78396,-0.0303 -1.1494,-0.81262 -1.33121,1.34992 -0.0225,0.17421 -0.29905,-0.13873 -0.38385,0.21874 -0.25462,0.0373 -0.10405,-0.0626 -0.26053,0.68978 -0.0349,0.63379 -0.51967,0.34535 -0.41691,0.05 -0.3357,-0.0347 -0.31884,-0.22685 -0.16743,-0.29765 -0.1192,-0.21188 0.01,-1.19058 0.50018,-1.45908 0.71753,-1.28286 0.001,-0.40288 -0.14631,-0.61806 -0.54054,-0.44124 -0.7077,-0.40914 -0.28847,0.23592 -0.0542,0.55616 -0.23199,0.1172 -0.52172,0.28641 -0.14789,-0.0909 -0.056,-0.20692 -0.30405,-0.59092 -0.42129,-0.36671 -0.37278,-0.3773 0.012,-0.68137 0.10783,-0.30168 0.21063,-0.58876 0.55273,-0.81029 0.33163,-0.84568 0.39851,-0.79783 0.39992,-0.36016 -0.0435,-0.23903 -0.7537,-0.25304 -0.53385,-0.004 -0.32042,-0.001 -2.25455,0.0955 -3.51964,1.25978 -0.87982,0.44047 -0.95872,0.48007 -0.71255,0.13793 -0.87158,-0.0622 -0.87733,-0.0642 -0.95827,-0.30542 -1.303,0.36484 -1.29674,0.7186 -0.3003,-0.21218 -0.68649,-1.29818 -0.24011,-1.20678 -0.29031,-0.83866 0.12338,-0.11999 0.29297,-1.09907 -0.72704,-0.97649 -0.6996,-1.13694 -0.07,-0.92816 -0.0867,-0.98432 0.39338,-1.79786 -0.52388,-1.82764 -0.94906,-1.3217 -0.42831,-1.34089 -0.60246,-0.31884 -1.27368,-0.35268 -0.49862,0.45482 -0.64314,2.44911 -1.0437,0.96668 -1.2461,0.69757 -0.57299,0.40491 -0.38886,0.4849 -0.21812,0.56426 -0.28486,0.16006 -1.11962,-0.38262 -0.56335,0.13295 -0.57983,0.0333 -1.69918,-1.13196 -0.37887,0.23 -0.45777,1.83043 -0.80718,1.59659 0.52559,0.98679 1.69059,1.68078 0.50222,0.30202 0.4361,0.49627 0.12657,0.41629 -0.16444,0.29406 -0.10864,0.10903 -0.0893,0.0893 -0.64191,0.12896 -0.40538,-0.0648 -0.86238,-0.33741 -2.47281,-1.61062 -1.27057,-1.29363 -1.85477,-2.08475 -0.58641,-0.37154 -1.17467,-0.74436 -0.28735,-0.39617 -0.0785,-0.6204 -0.59965,-1.12588 -0.80483,-1.89467 -0.48085,-1.14458 0.23636,-1.07645 -2.11843,-1.78134 -1.18058,-0.37231 -1.67127,0.8173 -0.33429,0.29672 -0.26131,0.0849 -0.18298,0.0596 -0.38978,7.7e-4 -0.17221,-0.20737 -0.29672,-1.07209 0.0528,-0.60915 -0.73405,-0.57798 -2.18142,-0.12777 -1.7391,0.56738 -0.44513,-0.0546 -0.16145,-0.29592 -0.29532,-0.59185 -0.10564,-0.38356 -0.16883,-0.62444 -0.0385,-0.31793 -0.0301,-0.25057 -0.10843,-0.9531 -0.62522,-1.02654 -0.56315,-0.64456 -0.34567,-0.78862 -0.42394,-0.24168 -0.35424,0.12737 -0.35408,-0.0488 -1.80707,-0.70987 -1.11745,-0.58312 -0.98711,0.0205 -0.40211,0.57238 -0.84287,2.97706 -0.30155,0.57096 -0.75464,0.28081 -0.32554,-0.11322 -0.34706,-0.12059 -0.75807,-0.96012 -0.65205,-0.74358 -1.64492,-0.0311 -0.43,0.45482 0.0211,1.52907 -0.4364,0.34114 -1.56386,0.1778 -0.66247,-0.31697 -0.54571,-0.54102 -0.4715,0.377 -0.26568,1.34306 -0.26568,0.31027 -0.15687,0.27332 -0.83835,0.40474 -1.22427,-0.12119 -0.75151,-0.24618 -0.94828,-0.0877 -2.06293,0.46338 -1.93039,0.12219 -3.04645,-0.56973 -0.79235,-0.0506 -1.12682,-0.0987 -0.92568,-0.55616 -1.30017,-1.11667 -0.61415,-0.33474 -0.57814,-0.0425 -0.56987,0.40445 -0.84491,0.32695 -0.81982,0.46307 -0.74201,-0.0159 -0.39197,-0.0704 -0.40024,-0.10245 -0.5945,-0.44888 -0.49425,-0.51296 -0.65625,-0.18916 -0.68976,0.14731 -1.59222,-0.41599 -0.78629,-0.16564 -1.09421,-1.2344 -0.3767,-0.60369 -0.34816,-0.55802 0.16225,-0.98805 -0.30654,-0.40912 -2.5614,-1.09406 -0.64096,-0.30623 0.0781,-0.42051 1.09967,-1.64351 0.14969,-1.17499 0.64346,-0.60246 1.2213,-1.40184 0.78362,-0.84521 -0.95809,-1.26324 -1.70761,-1.76886 -1.55666,-0.93768 -0.33115,-0.34519 -1.73785,-1.53563 -0.0554,-0.56845 0.53586,-0.74982 -0.26161,-0.59263 0.11003,-0.44826 0.52715,-0.63582 -0.25556,-0.9132 -1.45859,-0.95375 -0.75619,0.12239 -0.87157,0.50859 -0.70116,0.38916 -1.08237,0.39542 -0.66514,-0.3067 -0.33833,0.0245 -0.78161,0.61477 0.20472,0.45528 1.74221,-0.24447 0.48897,0.51513 -0.19959,1.24906 -1.2096,0.70473 -1.15518,0.0419 -0.60558,-0.19394 -0.64689,0.16384 -0.25009,0.31729 0.2412,0.46105 0.49207,0.50312 0.17003,0.86504 -0.13495,0.40537 -0.21016,0.32119 -0.29514,0.13016 -0.45107,-0.20987 -0.54525,-0.10784 -0.64922,0.27254 -0.73515,0.73311 -0.39759,0.0592 -0.71517,-0.0951 -0.53355,-0.33819 -0.22827,-0.20891 0.0225,-0.31699 0.31527,-0.32571 0.74215,-0.37808 0.57923,-0.16823 0.39556,-0.36639 0.30778,-0.45044 -0.0696,-0.36454 -0.38324,-0.34067 -0.47788,-0.0811 -0.54353,-0.0343 -0.33038,0.32539 -0.30545,0.64346 -0.22998,0.18756 -0.32368,0.07 -0.29872,-0.15807 -0.15129,-0.24572 0.012,-0.26973 0.25539,-1.04495 -0.0249,-0.36969 -0.26959,-0.20768 -0.43857,0.004 -0.71239,0.93862 -0.63536,1.69917 -0.5538,0.31854 -0.94563,-0.31824 -0.6193,-0.0241 -1.03358,2.3838 -0.16962,3.17132 -0.6444,0.35175 -0.54664,0.0702 -0.46104,0.36923 0.0754,0.9492 1.32388,1.13834 -0.004,0.18497 -0.12139,0.13714 -0.67387,-0.047 -0.43892,0.0911 -0.45449,0.45744 -0.50455,0.34519 -1.88908,-0.0532 -0.50594,-0.13952 -0.24479,-0.22203 -0.0271,-0.4141 -0.22513,-0.67558 -0.46792,-0.16325 -0.98914,0.73014 -1.09108,0.25556 -2.42045,0.15926 -0.39229,0.0773 -0.31651,0.0199 -0.31417,-0.15926 -0.11641,-0.2072 -0.20424,-0.74139 -0.42504,-0.98055 -1.39264,-1.23673 -1.53968,-1.43879 -1.42056,-1.42976 -1.51673,-1.7846 -1.16019,-0.92552 -1.99806,-0.0997 -1.1073,-0.0552 -2.32705,0.48522 -0.60246,0.0313 -1.53172,0.16384 -1.72475,0.77242 -0.81747,0.016 -0.4188,0.0873 -0.90914,0.79254 -0.5889,0.0532 -0.62677,-0.40477 -0.47336,-0.48286 -0.57251,-0.23202 -1.09657,0.94221 -1.9449,1.2966 -0.25336,0.67152 0.36078,0.96513 -0.22468,1.08906 -0.61023,0.80998 -2.66961,1.28492 -1.2428,0.35501 -1.71899,1.06569 -0.59373,0.84866 -0.87469,0.008 -2.42013,0.46836 -1.36706,0.0604 -1.00611,0.17959 -2.36683,1.40854 -0.52012,0.14093 -0.1182,-0.0329 -0.48334,-0.13455 -0.67262,-0.61617 -0.30341,0.12717 -0.28081,0.69475 -0.50313,0.45107 -0.27596,0.90509 0.23261,1.41229 -0.40303,2.24488 -0.17222,2.79933 -0.25055,0.32757 -0.60605,0.22545 -0.68946,-0.20159 -0.47865,-0.556 -0.25277,-0.18298 -0.96931,-0.18437 -0.44826,0.13334 -1.9265,0.57316 -1.57709,0.64236 -0.73483,-0.10424 -0.25446,0.18995 0.0219,1.23563 -0.39963,0.38198 -0.14052,0.13435 -1.9625,0.25727 -1.66161,0.20923 -0.38152,0.18138 -0.46511,0.53355 -0.19434,0.57096 -0.77347,0.93348 -0.53387,0.46805 -0.22889,0.3371 -0.27566,0.19115 -0.93955,0.54431 -0.66015,0.98506 -0.76195,0.68137 -1.98481,1.77526 -2.44166,1.49975 -1.58644,0.8315 -4.65285,1.14006 -1.14131,0.52386 -0.22966,0.9539 0.10285,1.49557 0.32336,2.34839 0.75558,1.04606 1.02998,0.9018 1.20555,0.95562 1.65535,0.91053 0.28113,0.44905 -0.43407,0.57282 -1.41245,0.98229 -1.10591,0.15946 -2.29727,-0.0508 -2.7407,0.0546 -1.03342,0.18676 -0.48302,0.58906 -1.27896,1.00019 -1.9407,1.06569 -0.72518,0.5432 -0.0644,0.5401 0.3647,0.7038 0.8987,0.48459 0.0949,0.68229 -0.3477,0.72408 -0.0747,0.41535 -0.32897,1.99544 -0.36968,1.22891 -0.65719,0.60481 -0.64876,0.25788 -0.62506,-0.55476 -0.35534,-1.08159 -0.67591,-0.86221 -0.5761,-0.59046 -0.16983,-1.07238 0.059,-0.59608 -0.57018,-0.43734 -1.53157,0.23716 -0.58904,0.32928 -0.46604,0.54774 -0.41848,1.65363 0.49036,1.21022 1.03154,1.19901 0.13056,0.66857 -0.65251,0.69335 -0.58468,0.058 -0.79285,-0.55254 -0.37216,-0.25944 -0.72673,-0.91866 -0.89572,-0.2844 -0.19155,-0.6126 0.19075,-0.83367 0.76323,-0.62664 0.0857,-0.50251 -1.65489,-1.04713 -2.27823,-0.53602 -2.01335,-0.14232 -1.70292,-0.71597 -2.5734,-1.63759 -1.60095,-0.42769 -0.32928,-0.20783 0.21938,-0.51731 1.30437,-1.10997 0.5978,-0.89995 0.37558,-0.2724 0.22221,-0.22264 -0.01,-0.77382 -0.82777,-0.28391 -2.14134,-0.056 -0.31589,-0.27272 -0.20534,-0.21967 -0.0857,-0.4796 0.66062,-0.63349 -0.0223,-0.13953 -0.54352,-0.14809 -1.05289,0.54943 -1.23051,0.25243 -0.93128,0.74933 -0.63379,1.1223 -0.20363,0.24337 -0.47819,-0.0199 -0.42612,-0.51264 -0.69632,-0.4598 -0.938,0.27128 -0.61804,-0.008 -0.28144,-0.13116 -0.2242,-0.48334 0.62553,-1.11185 -0.0845,-0.92614 -0.94218,-0.99086 -0.23608,-0.57204 0.0315,-0.62492 0.37935,-0.82307 -10e-4,-0.55834 -0.0582,-2.08381 -0.37326,-2.16364 0.008,-0.36939 0.056,-2.8612 -1.1218,-0.79361 -2.24036,-0.79657 -2.21058,-1.37346 -0.27037,-0.4255 0.36391,-0.52217 0.41146,-0.12458 0.7908,-0.23933 0.0728,-1.06271 -0.91163,-0.2897 -0.92863,-0.0835 -0.68853,0.98353 -1.18123,0.92879 -1.45983,0.73327 -0.93521,-0.38356 1.05853,-1.37691 -0.3003,-0.7434 -1.41727,-0.42986 -1.13368,-0.77894 -0.46946,-0.26585 -0.35907,-0.69383 0.70117,-0.13494 0.5245,-0.34611 -0.0991,-0.62382 -0.75213,-0.51625 -1.65319,-0.15926 -1.16375,-1.94022 -2.86732,-2.11455 -1.19757,-2.47407 -0.76276,-1.45562 0.012,-1.40621 -0.41521,-0.56488 -1.19883,-0.40882 -1.12929,-0.12956 -0.85863,-0.21206 -0.30919,0.14511 -0.10644,0.54898 0.4952,0.7258 0.0654,1.06411 -0.13076,1.26588 -0.52107,0.047 -0.49909,-0.35424 -1.83966,-1.29427 -3.01075,-1.31824 -1.57226,-1.01411 -0.51872,0.41928 -0.014,1.58582 -0.42191,0.2479 -0.99614,0.0917 -2.05826,-0.59653 -0.58483,0.4467 -0.61649,-0.01 -1.05197,-0.52575 -0.94298,-0.64332 -1.4115,1.88628 -0.0582,0.66999 0.36343,1.23563 0.14511,1.50864 -0.54695,2.31224 -0.86877,1.85228 -0.34473,1.91713 -0.33132,0.39869 -0.64972,0.0395 -1.26524,-0.30327 -0.82245,0.3689 -2.05936,1.58256 -0.54009,0.18796 -0.35284,-0.14571 -0.53214,-0.21967 -9.68612,26.36836 -24.44999,-6.11255 -0.27409,-0.0686 -0.22249,-0.0556 -15.59161,4.6775 6.23664,35.86068 -15.59161,28.06491 1.33232,7.99365 0.22685,1.3613 -10.91412,26.50574 -7.7958,7.7958 -17.15078,-4.67748 -7.795798,-1.55917 -9.354969,6.23665 7.795798,7.79581 -1.559152,6.23663 -18.709938,1.55917 -1.559152,-9.35497 -7.795798,-1.55915 -6.236646,7.7958 10.914141,18.70992 -6.236666,10.91412 -12.473272,1.55917 -6.236647,9.35497 -9.354969,20.26909 4.677495,-1.55915 4.677474,10.91412 -1.559171,7.79579 L 0,463.06858 l 4.6774747,18.70994 -3.1183231,4.67747 1.5591715,18.70992 6.2366263,3.11834 v 10.91413 l 9.3549696,4.67747 1.003018,7.73187 -2.56217,6.30057 -10.9141208,-1.55917 -2.1446257,11.91044 0.024916,0.40274 0.1451078,2.34793 0.3096298,0.75369 0.1349423,1.46188 0.1195943,0.44888 0.4350245,0.55569 0.3470628,0.0797 0.526833,0.42783 0.2090908,0.25571 0.3625104,0.27704 0.3402061,0.54244 0.5938856,1.11325 -0.021128,0.1459 -0.5256172,-0.014 -0.2187381,0.48553 -0.1520841,0.44856 -0.2106455,0.6483 0.053219,0.75791 0.099064,0.57067 0.1413207,0.59217 0.2279468,0.29217 0.3068592,0.16882 0.5170263,-0.30078 0.4290647,-0.52448 0.621791,-0.8959 0.2742498,-0.30777 0.2808075,-0.11462 0.073351,0.008 0.03548,0.51218 0.05322,0.55398 -0.076939,0.39773 -0.3149517,0.19554 0.029101,0.1758 0.3512885,0.15189 0.2575663,0.29203 0.1606559,0.27564 0.173013,0.26678 0.633491,0.75091 0.222326,0.17361 0.238392,0.46758 0.289219,0.43299 0.458086,0.42689 0.543995,-0.0807 0.101854,-0.32773 0.004,-0.17042 0.225295,-0.38091 0.08352,-0.39978 0.276283,-0.38167 0.254776,-0.70146 -0.200659,-0.73562 -0.25087,-0.88733 0.121189,-0.71549 0.171419,-0.51577 0.0877,-0.45963 0.09488,-0.35112 0.499087,-0.35237 1.028731,0.0879 0.522786,0.10804 0.0877,0.45166 0.355474,-0.068 0.242617,-0.28782 0.485035,-0.24385 0.133946,-0.15189 0.206121,0.0271 0.161851,0.33678 0.238371,0.10803 0.213297,0.20784 0.12956,0.74358 0.23012,0.32382 0.518421,0.10006 0.313716,-0.0199 0.363906,-0.20801 0.242457,0.0321 0.10046,0.22374 -0.192348,0.26381 -0.497672,0.15587 -0.163047,0.0961 -0.008,0.41693 0.02173,0.22655 -0.251029,0.28376 -0.17979,0.28394 -0.01595,0.14391 0.09388,0.20893 0.158862,0.32759 0.152881,0.15906 0.263327,-0.0401 0.216565,-0.12836 0.276921,0.004 0.171419,0.16384 0.06677,0.22372 -0.04983,0.18896 0.307318,0.22095 0.223442,0.0379 0.226073,-0.12079 0.158662,0.10883 0.05581,0.19654 -0.05581,0.20317 -0.190354,0.23869 0.04804,0.31682 0.332572,-0.0498 0.303092,0.0399 0.188161,0.0919 -0.192347,0.18577 -0.03767,0.22391 0.117003,0.23185 0.267712,0.4116 0.372177,0.37577 0.06259,0.0999 -0.07515,0.36375 -0.04206,0.27989 0.292806,0.69942 0.0293,0.47774 -0.02512,0.25787 0.309351,0.4316 -0.06478,0.18995 -0.08152,0.11381 -0.221728,0.11402 -0.171418,0.18178 -0.01595,0.17182 -0.121189,0.43578 -0.0291,0.70754 0.192348,0.19175 0.28017,-0.15188 0.405704,-0.32773 0.246803,0.21579 0.292667,0.56362 -0.121189,0.80748 -0.15049,0.29174 -0.196533,0.28375 -0.301079,0.17999 -0.614775,0.008 -0.183976,0.22794 0.10046,0.17182 -0.05023,0.15188 -0.110625,0.13953 -0.01395,0.65984 0.07534,0.28781 0.635684,-0.0241 0.30949,0.0241 0.317762,-0.17581 0.351289,0.20786 -0.301079,1.68686 -1.57428,4.85381 4.069078,4.04259 0.255553,0.22468 0.291711,-0.0604 -0.126172,-0.70831 0.31543,-0.0604 0.29171,1.08518 -0.646567,0.55771 0.173612,0.38433 0.283757,0.0602 0.244491,-0.30138 0.212818,-0.44467 0.551948,0.35424 -0.03947,0.87421 0.378576,0.0753 0.811986,-0.82136 0.394322,0.21844 -0.354856,0.80641 0.205024,0.44465 0.236518,0.008 0.31543,-0.38431 0.291711,0.35424 -0.06299,0.90431 0.220772,0.10544 1.001303,-0.2939 -0.03149,0.88934 0.228585,0.23355 0.283917,0.008 0.04724,0.49737 0.906805,0.61041 0.961837,1.14552 0.67808,0.2186 0.268171,-1.08518 0.239487,-0.12578 0.485853,2.86106 1.040889,1.20585 -0.362829,0.57268 -0.04724,0.3541 0.228724,0.21858 0.764786,0.30139 -0.236538,0.44467 -0.780672,0.94954 0.141919,0.76102 0.520295,0.42955 0.345369,-0.10006 0.316965,-0.39305 0.390415,0.18118 -0.07255,0.43156 -0.41256,0.26117 0.903077,-0.0373 0.763829,0.34645 0.446067,0.0159 0.262091,-0.54351 0.379034,0.16523 -0.200659,0.55941 0.06677,0.24511 0.830703,0.14909 0.585474,0.23981 0.529643,-0.21844 0.596537,-0.67669 0.245408,0.50613 0.596536,0.39428 0.250889,0.41039 h 0.245229 l 0.518601,-0.60214 0.08352,0.63941 0.451708,0.14391 0.379015,-0.85785 0.429383,0.0265 0.328845,0.29313 0.234185,-0.17062 -0.278774,-0.5967 0.284375,-0.10664 0.814059,0.51157 0.02232,0.41037 -0.156071,0.60745 0.172814,0.44749 0.507359,0.25055 0.71924,0.20767 1.070509,-0.5008 0.903217,0.0907 0.05561,0.62881 -0.228565,0.61804 0.273154,0.54882 0.811089,0.66295 0.744495,0.0403 0.373572,0.65532 0.145108,1.26821 0.390276,0.59686 0.278775,0.58607 1.482611,0.59608 0.61928,0.12318 0.501738,-0.2663 0.908837,-0.10145 1.304555,-0.0211 0.775051,0.0907 0.379035,-0.20253 0.344113,-0.35207 0.486609,0.6505 0.30668,0.67666 0.618841,0.66078 0.407099,0.9804 0.780513,0.35689 0.406939,0.389 0.752907,0.2869 0.56287,0.79999 -0.200679,0.48491 0.362371,0.31978 0.468371,0.38356 0.03349,0.55958 -1.27679,0.27706 -0.128165,0.28236 0.189557,0.17043 0.674672,-0.10644 0.328964,0.10644 0.111422,0.8206 0.273173,0.1172 0.702558,-0.29313 0.423643,0.23981 0.236976,0.81122 -0.0307,0.84054 0.468371,0.064 0.390257,-0.032 0.574252,0.14397 0.46275,-0.14919 0.223123,-0.68743 -0.529663,-0.51671 -0.07814,-0.53293 1.293473,-0.86314 0.379193,0.1172 0.139328,0.36234 -0.423763,0.44219 -0.07255,0.45293 0.384795,0.75121 0.09468,0.32508 0.345668,-0.0266 0.31228,-0.90041 0.473833,-0.27705 0.41272,-0.5702 0.367952,0.13335 0.468212,0.91632 0.328984,0.032 0.275984,-0.18773 0.140324,0.006 0.01395,0.17758 -0.058,0.49784 -0.133348,0.49784 -1.204315,1.66769 0.2063,0.32492 0.953406,-0.0157 0.175804,0.0985 0.0584,0.22639 0.04046,0.22373 -0.101855,0.17589 -0.30654,0.29312 -0.540866,0.13319 0.160057,0.37653 0.246983,0.19083 0.590915,-0.2624 0.312142,-0.16309 0.295458,-0.0513 0.231395,-0.0206 0.256629,0.13126 0.15328,0.45154 -0.15607,0.29437 -0.290017,0.37419 -0.04186,0.21049 0.125375,0.21049 0.602138,0.3996 0.183976,0.14637 0.125574,0.18647 0.471162,-0.0558 0.395717,-0.064 0.02791,-0.36765 -0.170023,-0.29843 -0.554739,-0.33038 -0.02232,-0.23434 0.06538,-0.29078 0.250092,-0.16123 0.125175,-0.35252 0.14172,-0.19257 0.284076,-0.0287 0.225615,0.15515 0.184972,0.33241 -0.03927,0.21844 -0.131156,0.29842 0.150689,0.2158 0.142118,-0.0241 0.418162,0.048 0.214692,0.33445 -0.02791,0.20237 0.117003,0.26381 0.113814,-0.0317 0.217961,-0.0807 0.167233,-0.1949 0.09189,-0.42673 0.30373,-0.0692 0.312301,0.1305 0.358763,0.23216 0.365002,0.58 0.532294,0.51593 0.254457,-0.25976 -0.22406,-0.90524 0.09368,-0.23388 0.255712,0.0733 0.232771,0.27691 0.107435,0.34084 0.228565,0.35689 0.379034,0.19693 0.167233,-0.0753 0.0877,-0.13902 0.154476,-0.4623 0.10903,-0.49394 0.09847,-0.1 0.115209,-0.02 0.15926,0.0623 0.123581,0.14066 0.0285,0.37997 0.09548,0.28393 0.128365,0.0519 0.237295,0.0519 0.583282,0.10375 0.570664,-0.0949 0.532135,0.005 0.273173,-0.16699 -0.04604,-0.21626 -0.146304,-0.2083 -0.451688,-0.24885 -0.07933,-0.18882 -0.07933,-0.34082 0.175604,-0.26866 0.208932,-0.093 0.204865,-0.0374 0.179989,0.0864 0.0901,0.27567 0.06498,0.48739 0.135541,0.19817 0.160655,0.11032 0.563787,0.32494 0.248378,0.21454 0.206599,0.27831 0.307457,-0.12243 0.312162,-1.11977 0.151685,-0.058 0.22701,-0.12198 0.332732,-0.0519 0.413955,0.25336 0.18278,0.14308 2.45318,3.36748 0.396953,0.7883 0.582983,0.6876 0.518421,0.33771 0.22996,0.11228 0.221409,-0.12603 0.03648,-0.42238 0.150091,-0.073 0.3597,-0.31636 0.659682,-0.45589 0.341143,-0.0304 0.40381,0.27754 0.546965,0.23793 0.223103,0.097 0.468531,0.65314 0.418481,0.46135 0.382004,0.33054 0.172814,0.31449 0.747624,0.21437 0.242458,-0.10016 0.142118,-0.5638 0.437655,-0.32477 0.504549,-0.22889 0.25631,-0.40989 0.488185,-0.21267 0.505943,0.10478 0.236379,0.58002 0.07734,0.73171 0.257587,0.69164 0.09488,0.0865 0.117601,0.10749 0.245866,0.56162 -0.242896,0.23745 -0.476942,-0.0291 -0.556313,-0.17835 -0.202852,0.35033 0.725479,0.35034 -1.6e-4,0.37577 -0.211104,0.36234 -0.483201,0.0504 -0.280628,-0.3095 -0.319018,-0.46556 -0.292348,-0.039 -0.427371,0.21625 -1.834497,3.42064 2.184391,4.20256 1.514563,4.53654 4.951418,2.54269 1.29863,0.83134 0.32663,0.10076 0.47164,0.12946 0.46184,0.23855 0.52029,0.96216 -0.2164,0.91678 0.62723,0.86113 0.37951,0.97308 0.12677,0.75088 -0.22918,0.39416 -0.66781,0.0854 -0.68026,-0.17104 -0.39741,0.0133 -0.1479,0.41209 -0.51296,1.27056 -0.48131,0.353 -0.39852,0.27752 0.27331,0.35331 0.5231,0.2875 0.17541,0.26366 v 0.16794 0.10418 l -0.0853,0.24759 0.0582,0.16652 0.46353,0.0668 0.77148,-0.30918 0.21517,0.27877 0.26975,1.40169 5.56026,2.12499 0.54276,0.0292 0.36281,-0.12767 0.0945,-0.20237 0.01,-0.58594 0.29125,-0.0217 0.31683,0.0659 0.28174,-0.0589 0.31418,-0.12242 0.46915,0.0864 0.15706,1.17078 0.54027,0.2295 0.58235,-0.36125 0.37933,0.0851 0.17341,1.40012 1.49679,0.77351 0.20753,-0.31464 -0.89855,-1.11729 0.33474,-0.41567 0.52295,0.95592 0.68807,0.464 0.2649,0.57534 -0.15308,0.59248 0.26398,0.25273 0.90244,-0.1356 0.14192,0.28394 -1.18371,1.46857 0.63427,0.43906 0.6383,0.17913 1.18902,-0.0703 0.59451,0.38838 0.12159,0.58578 -0.10644,0.48474 0.45386,0.18103 0.48615,-0.31012 -0.30216,-1.286 0.38402,-0.26287 0.44529,0.48365 -0.28766,1.00956 0.91274,0.87405 1.60452,-0.26005 0.1168,0.0504 0.19693,0.13379 0.24605,0.44047 -0.0821,0.41614 -0.78239,0.42767 0.18876,0.64316 0.73405,0.54633 0.37216,-1.48619 0.45217,0.28642 0.0614,0.7066 -0.36875,0.71051 1.12088,1.11044 1.6195,-1.68607 5.43836,-2.0623 1.20694,-0.26008 2.20871,2.08553 0.46526,0.18508 0.81498,-0.0239 0.19853,0.14351 0.0446,0.12558 -0.0375,0.31306 -0.36189,0.17712 -0.30293,0.1483 -0.13674,0.15561 -0.004,0.24073 0.0704,0.1528 0.31945,0.20224 0.46666,0.1456 0.52809,-0.0752 0.16225,-0.012 0.13534,0.0486 0.0379,0.19177 -0.0379,0.16746 -0.11222,0.14351 -0.30154,0.11166 -0.36795,0.0816 -0.47929,-4.7e-4 -0.90822,0.15668 -0.3017,0.14844 -0.16923,0.21283 -0.0498,0.26365 0.17581,0.44748 0.39368,0.47368 -0.016,0.21594 -0.23667,0.0886 -0.74155,0.43673 -0.25164,0.34503 0.19753,0.45465 0.76787,0.1474 0.75199,-0.1821 0.64362,0.30855 0.0413,0.5323 -0.18717,0.45466 0.014,0.26272 0.68292,0.53072 1.14753,0.99741 0.88733,1.45266 0.56769,1.16563 0.8318,0.56691 0.12358,0.14905 0.053,0.21781 -0.46947,0.70942 -0.21283,0.33398 -0.14272,0.72282 0.26085,0.82371 -0.0566,0.85551 0.0642,0.98383 -0.56395,0.90681 -0.16863,0.60886 -0.33195,0.68119 -0.70007,0.72923 -3.23773,2.02098 -1.23113,0.87 -0.63644,0.23201 -1.03561,0.98725 -0.44887,0.0982 -0.57595,-0.0298 -0.25181,-0.21204 -0.28517,-0.0523 -0.25928,0.15093 0.0335,0.21252 0.051,0.18804 0.19514,0.505 0.0217,0.33149 0.27941,0.32227 0.44591,0.2108 0.46432,0.34146 0.45482,0.17945 0.28844,-0.0149 0.52558,-0.49784 0.54244,-0.12422 0.56052,0.18789 0.47273,0.29155 0.55102,0.74264 0.80204,0.0395 0.28158,0.27051 0.59092,0.56785 0.38605,0.30731 0.0425,0.80889 0.47742,0.42534 0.67822,-0.0241 0.0971,0.95483 -0.21499,0.25025 0.0739,0.44607 0.72811,0.25836 0.25851,0.43547 -0.0674,0.54539 -0.37156,0.19381 -0.67323,0.0435 -0.57097,0.2295 -0.13474,0.41848 0.31729,0.51297 -0.0253,0.27239 -0.53136,0.16807 0.31996,0.51561 0.7119,0.19394 0.57814,0.1299 1.08424,0.50003 0.18338,-0.12677 0.18318,-0.57425 0.0827,-0.65406 0.34254,-0.48678 0.52263,0.0921 0.3887,0.50766 -0.0179,0.64082 -0.37015,0.35331 0.15568,0.96761 -0.48801,0.98617 0.24557,0.34457 0.37935,0.18477 0.7509,0.0329 0.2415,-0.25539 0.44234,0.0325 0.17022,0.39898 -0.29811,0.68681 0.0257,0.65532 0.18637,0.67122 0.74653,0.32976 0.84693,0.55351 0.26912,0.81481 0.56987,0.6101 1.09142,2.56716 0.602,1.34867 -0.15867,1.01876 -0.39025,0.75182 0.29797,0.35425 1.09375,0.0271 0.6595,-0.40289 0.64021,-0.71347 0.35175,-0.14157 0.70783,0.052 0.61012,-0.1359 0.34754,-0.009 0.42611,0.42082 0.20923,0.61602 0.33913,0.15374 0.64097,-0.0948 0.62898,0.13919 0.36734,0.148 0.39398,0.33646 0.63662,0.46588 0.49425,1.45766 0.50843,0.0348 0.68354,-1.48026 0.76945,-0.003 0.82152,0.85099 0.45465,0.29856 0.65096,0.0616 0.6843,-0.29218 1.48183,0.2384 0.67995,0.54367 -0.23699,0.96855 0.0435,0.84304 0.24339,0.13484 0.83868,-0.091 0.37668,0.15358 0.29127,0.41256 0.0552,1.27149 0.28439,0.34677 0.56331,9.2e-4 0.26351,-0.18288 0.82496,-0.17993 0.22203,0.15591 0.14789,0.1737 0.65064,0.66434 0.64551,0.7576 1.01047,0.67996 0.71629,-0.0106 0.77162,-0.55849 1.16954,0.135 1.17248,0.28549 0.85863,-0.009 3.95044,2.8684 0.3003,0.27113 0.0742,0.16494 -0.012,0.16482 -0.0604,0.17914 -0.28453,0.20175 -0.46572,0.31153 -0.65345,0.60479 -0.26615,0.31075 -0.20891,0.42658 0.0496,0.63286 -0.4124,2.94791 0.014,2.0358 0.0973,0.51358 0.20361,0.20285 0.225,0.22951 0.47086,0.0937 0.48537,0.19316 0.49112,0.17543 1.32171,0.17195 0.54354,-0.0179 0.47084,0.0324 0.16564,0.0752 0.0686,0.0749 0.0361,0.20596 -0.012,0.14425 -0.0839,1.43739 0.0548,0.43547 0.77288,1.98917 0.93565,1.72927 0.70054,0.45964 1.07161,0.24401 0.41987,0.15717 0.38356,0.40538 0.23746,0.57018 0.15667,0.43299 0.0556,0.18601 0.19974,0.14637 0.27706,0.1456 0.17939,0.11437 0.22372,0.12498 0.80454,0.1832 0.89153,0.12617 0.82901,-0.28579 0.15647,-0.0322 0.1457,0.009 0.15089,0.14352 10e-4,0.14351 0.01,0.20223 -0.0887,0.24931 -0.93347,0.60573 -0.14052,-0.074 -0.0841,-0.0738 -0.0721,-0.1983 -0.0921,-0.14142 -0.18896,-0.0508 -0.18198,0.023 -0.13833,0.0716 -0.0542,0.1287 0.004,0.11766 0.0662,0.11766 0.65733,0.55539 2.33455,1.48867 0.62693,0.52639 0.51545,0.17446 0.34318,0.0478 0.31074,-0.0913 0.29841,-0.19755 0.0999,-0.15934 -0.0281,-0.20035 -0.43266,-0.38792 -0.4305,-0.10674 -0.39773,-0.30248 -0.25647,-0.47601 -0.11102,-0.55319 0.13714,-0.32649 0.29888,-0.28018 0.44063,-0.0175 0.42316,0.18944 0.28204,0.12109 0.34192,-0.0244 0.25416,-0.22841 0.063,-0.26803 0.20799,-0.24838 0.28892,-0.0163 0.19554,0.12095 -0.0211,0.44513 0.18717,0.24697 0.01,0.34723 -0.0323,0.34005 0.10325,0.60573 0.24445,0.29749 1.48606,0.94719 1.03061,0.79751 2.65571,-1.41602 1.55323,-0.82807 1.14801,-1.19261 -0.45793,-0.71519 0.26755,-0.7353 0.19614,-0.28547 0.81589,-0.88903 1.96783,-1.76311 0.36017,-0.25071 0.22827,-0.14485 1.32325,-0.51921 1.14285,0.7587 0.99024,0.25585 0.68493,-0.41646 -0.22234,-1.43816 1.2436,-0.87001 1.11292,-0.63972 2.07556,-0.34769 2.12982,-0.13096 1.57926,-1.08642 0.81639,-0.64113 0.26427,-0.005 0.27754,-0.096 0.15866,0.008 1.00908,0.10106 1.01362,-0.32041 0.88326,0.33913 0.42737,0.21594 0.14013,0.27519 0.006,0.73327 -0.062,0.63755 -0.49191,1.79053 0.46681,0.77786 3.43388,0.9104 0.57752,0.0849 0.57144,-0.19195 0.48162,0.0167 0.51763,0.0423 2.17052,0.609 0.16424,0.1181 0.01,0.24137 -0.40226,1.93024 -1.03995,1.87379 -0.57081,2.05092 0.23449,0.81622 0.95905,-0.10106 3.20078,-0.74356 2.92875,-1.1664 0.49643,0.006 2.55312,1.48712 2.59069,0.82683 2.72699,0.35315 2.55998,-1.21568 1.13352,-0.80297 2.98764,-0.53853 0.62415,0.35409 1.00893,1.95113 0.80328,1.148 1.78508,0.71723 1.90155,1.05539 4.51314,0.0345 5.8316,1.38064 1.0903,3.22107 -2.30724,5.42495 1.21694,5.1828 1.52905,1.16065 1.15861,3.58606 1.48995,2.35667 1.83776,1.98996 1.16485,3.239 1.45471,1.05352 2.03143,1.09781 1.37392,0.74247 2.0623,0.79751 0.71737,-0.71831 2.3517,-0.0728 6.76348,1.48337 1.71445,-0.17774 0.70381,-1.58645 0.70036,-1.36582 0.38155,0.34863 0.37044,2.42527 1.40308,1.97265 1.39453,-0.38745 -1.02578,-2.21402 -0.32772,-1.5434 0.38013,-1.23346 1.07206,0.86643 2.76642,-1.05196 0.65922,-1.14427 1.66782,-3.97134 0.13235,-0.31511 0.74683,-0.39587 1.03342,0.71565 0.0614,1.96641 0.0971,1.03591 1.73037,1.54186 2.84718,2.06215 0.63395,1.33198 1.26276,2.37851 1.19524,-0.7091 0.96746,6.1e-4 3.1436,1.74845 4.23203,0.23824 1.06132,1.23361 3.14762,3.65794 h 0.0253 l 2.95385,0.10897 1.97201,0.8538 0.95406,0.41302 1.32247,0.91554 1.28507,0.50876 0.79424,-0.34816 0.92785,-0.80406 0.70412,-0.54384 0.39446,-0.30482 1.00427,0.2674 0.55911,0.35954 0.6525,0.41974 0.90292,2.68253 2.25657,1.33183 0.3296,2.20356 0.70911,0.11915 1.38345,-2.11048 0.90322,0.47726 0.76851,0.95421 0.67262,-0.34863 0.19215,-1.06444 1.74859,-0.64238 2.65182,-2.99125 1.80614,-2.58774 2.69017,-1.87192 4.41961,-1.15628 0.0397,-0.0256 1.07521,-0.69647 0.43297,-0.23029 0.66279,0.10703 97.37287,-47.39271 12.39812,-6.0349 25.81004,-12.59318 14.32276,-6.98878 69.51908,-33.92328 109.73543,-53.38738 107.60113,-52.38422 1.86506,-0.90806 3.53399,-1.75732 85.72264,-42.62793 1.71696,-0.85378 0.41599,-0.20692 12.87662,-12.77872 3.92427,-11.95844 1.40653,-3.86578 4.47993,-12.31426 -0.45964,-10.50126 -0.31466,-7.18788 -0.43329,-9.90036 0.6915,-12.011 2.43027,-42.22097 8.4982,-29.359 7.80437,-24.88296 16.13561,-5.88613 14.85553,18.93007 z"
      data-name="Itamaraju" id="itamaraju" />
</svg>