<?xml version="1.0" encoding="UTF-8" standalone="no"?>
<svg
   version="1.1"
   id="svg2"
   width="527.71313"
   height="535.09369"
   viewBox="0 0 527.71314 535.09369"
   xmlns="http://www.w3.org/2000/svg"
   xmlns:svg="http://www.w3.org/2000/svg">
  <defs
     id="defs6" />
  <path
     id="zona_rural"
     style="display:inline;fill:#000000;fill-opacity:1;fill-rule:evenodd;stroke:none;stroke-width:1.33333"
     d="m 399.15624,0 -18.91016,38.015619 -13.80858,31.87891 6.77148,20.31836 8.49414,25.484371 -35.625,10.17578 -5.09376,3.10547 -111.96289,68.1504 -14.54102,-4.84767 -61.79882,-20.5996 -45.80663,66.16211 -40.712905,25.44726 15.26954,71.25 40.714845,10.17773 25.44725,50.89454 L 15.265625,456.6875 0,487.22265 l 18.943355,14.09376 1.51952,0.1621 0.62111,0.0996 1.57225,0.45703 5.82813,1.96484 1.99023,0.86524 1.36915,0.37304 0.59374,0.0743 1.78126,-0.16602 0.85937,0.0761 0.54688,0.32813 1.32812,1.14257 1.25977,0.34766 1.65234,0.17773 0.72852,0.25587 0.44726,0.28906 0.64063,0.66796 0.53125,1.49024 0.29687,0.53126 0.25977,0.24413 0.60547,0.27148 2.40624,0.29493 0.66212,0.30274 0.33202,0.32812 0.57812,1.28125 0.39259,0.62109 0.35156,0.29492 0.57421,0.084 0.38087,-0.0723 0.90039,-0.51172 0.94336,-0.80664 0.89453,-0.55664 1.04297,-0.92188 1.55664,-1.0879 0.76172,-0.41601 1.13867,-0.39063 1.65625,-0.21874 2.5625,0.009 1.44922,0.0723 1.55664,0.19922 0.83788,0.3379 0.32423,0.25976 0.28516,0.32226 0.17773,0.375 0.44336,1.44336 0.41602,0.61524 0.41796,0.26367 0.51368,0.1836 1.85546,0.25 2.63086,0.005 1.38477,0.1152 2.79101,0.69726 2.56251,0.83204 0.9414,0.0429 1.28125,-0.40233 0.82031,-0.1152 0.85352,0.0684 2.23828,0.87696 1.06836,0.20702 1.29297,0.0527 1.05078,-0.1836 1.61524,-0.5 1.5039,0.43751 2.87695,1.04101 0.59765,0.0215 1.93166,-0.47851 0.084,0.27539 0.34961,0.50586 1.83789,1.69726 2.499995,2.66212 1.0625,0.74413 1.59961,0.44336 0.76953,0.0411 1.02736,-0.13867 1.34375,-0.36524 1.49413,-0.51172 1.26563,-0.59765 2.7754,-1.875 0.66796,-0.24023 0.44141,0.0468 0.42383,0.24024 -0.42383,-0.24609 1.16796,-1.66211 9.71876,-7.57617 23.15038,-20.79688 10.16797,-5.67188 30.23828,-16.875 15.50976,-31.55859 43.46486,-49.5 0.51953,-0.0976 31.15234,-5.82812 36.47851,-13.80273 12.47266,-4.40235 16.17773,-0.8418 11.04103,-3.01561 -4.85743,-28.4375 -2.52735,-10.49024 -1.6914,-3.5 -3.44336,-1.79687 -3.2754,-0.53516 -5.07812,1.94141 -4.09374,-1.6504 -1.09375,-2.81836 2.5664,-3.83789 8.46484,-6.75976 2.89063,-2.04297 0.875,-3.44727 -1.25586,-2.67773 -3.98437,-0.38476 -7.04688,1.89648 h -7.91601 l -17.3086,-3.60156 -10.26563,-0.77539 -5.57226,0.33984 -4.42187,1.89453 -4.75,2.52735 -3.21875,1.01953 h -1.75 l -2.13086,-0.82226 -1.58203,-1.75391 -2.75587,-5.12109 2.29688,-6.36524 1.85547,-3.4043 3.44141,-1.55273 3.92774,-0.58399 6.66014,-0.34374 8.03322,-0.82227 2.0703,-1.21876 2.13087,-3.30273 1.91211,-4.52148 1.4746,-5.49415 0.4375,-2.52539 -0.9336,-1.99609 -3.38476,-1.55664 -10.86328,-5.19727 -7.31836,-1.89648 -9.55273,-1.4121 -3.11524,-0.3379 -1.58203,-0.78125 -0.98633,-1.16797 -0.21875,-1.60351 1.05274,-1.43164 0.15234,-0.53125 -0.15625,0.53125 -1.01563,-3.96485 -1.25976,-4.45703 -0.79297,-3.46289 -0.14063,-2.02148 0.60938,-3.07814 0.79102,-2.24413 0.58007,-1.95899 0.0703,-1.21874 -0.19142,-1.34375 0.12107,-0.10547 1.94141,-1.66992 -1.94141,1.66602 -0.12107,0.10546 -1.4414,-4.03906 -0.86718,-4.42579 0.21874,-2.88476 0.71875,-2.88672 1.94923,-4.23437 2.66016,-3.46289 2.95897,-2.63086 3.52735,-1.98829 5.18554,-0.90233 h 8.86719 l 6.91407,-0.31642 5.04297,-1.02734 8.07226,-2.82226 11.16796,-6.54102 9.00391,-5.13672 6.70508,-2.05078 6.62305,-1.60546 4.75586,-1.85938 2.88672,-2.05078 0.83202,-2.90235 -0.83202,-5.73828 0.3789,-3.21875 1.23438,-3.98046 3.42188,-3.80664 3.80273,-2.79688 5.89648,-1.69142 8.74415,-1.01757 6.27538,0.0879 5.22852,0.42382 5.89648,1.51954 8.74415,3.72461 10.64648,6.18164 7.03711,5.33397 1.14062,1.60939 16.02539,-25.72852 3.13672,-6.59961 2.75977,-14.81641 0.85351,-8.12695 -0.60351,-2.31055 -2.5625,-3.218751 -4.72462,-2.42773 -15.02148,-4.74414 -11.125,-4.0625 -4.36913,-2.70899 -4.66212,-5.5 -1.90039,-5.67773 -0.18749,-5.92188 1.42187,-6.18164 3.32813,-5.33398 4.375,-3.97852 6.27539,-3.21875 9.31836,-0.93359 23.74999,0.9375 16.45899,7.86914 1.71875,0.83984 -1.71875,-0.84375 -16.45899,-7.86914 -4.79687,-3.69336 -23.89063,-17.78515 z m -131.62499,213.42187 0.15429,-0.10547 -0.14844,0.0996 z m 0.15429,-0.10547 0.33008,-0.22461 0.23047,-0.1172 -0.23632,0.1172 z m 0.56055,-0.3418 0.30664,-0.15233 0.26758,-0.1192 -0.26368,0.11333 z m 0.57422,-0.27148 0.11134,-0.0488 h -0.004 z m 3.41992,78.88087 0.9414,-0.56836 0.85938,-0.39063 -0.85938,0.38476 z m 237.02929,-216.021491 -4.04492,1.95898 -5.11523,-0.34961 5.11523,0.35352 z M 368.88476,180.08788 v 0.004 l 0.17774,0.40235 0.25,0.375 -0.25,-0.38085 z m 0.42774,0.78126 h -0.004 l 1.91601,0.66797 z m 6.4121,1.97852 0.43164,0.17773 0.53711,0.21875 -0.53711,-0.22266 z m 0.96875,0.39648 0.43751,0.19726 0.48437,0.23047 -0.48437,-0.23632 z m 3.625,2.36524 0.47852,0.4414 2.32812,2.31445 -2.32227,-2.31445 z m 4.71876,4.57226 0.38085,0.25391 0.44142,0.24023 -0.43751,-0.24414 z m -45.89649,8.4375 -0.4414,0.0937 -0.56836,0.22852 0.56249,-0.22265 z m -4.48438,1.40234 -1.68749,0.23828 -0.68165,0.10933 0.67578,-0.10546 z m -2.36914,0.34765 -1.38671,0.23438 -0.46876,0.0937 0.46876,-0.0879 z m 16.10352,-0.33789 1.26172,0.46289 4.65625,1.89063 -4.65235,-1.89063 z m 5.91797,2.35352 1.54101,0.60937 0.58203,0.20899 -0.57812,-0.20899 z m -52.61524,-2.06249 -0.47461,0.0215 0.46876,-0.0156 0.42773,0.0253 0.44727,0.0587 -0.44727,-0.0644 z m -0.47461,0.0215 -0.42187,0.0253 -0.27929,0.0567 0.27343,-0.0527 z m -0.81835,0.10347 -0.29102,0.1152 0.29688,-0.1152 z m -0.29102,0.1152 -0.35351,0.1192 -0.50977,0.25391 0.50977,-0.24806 z m 3.22852,0.0664 0.40234,0.14648 0.48438,0.20312 0.73437,0.30664 2.11328,0.99024 -2.10937,-0.99024 -0.73828,-0.31055 -0.48438,-0.20508 z m 25.31835,0.73632 -0.39453,0.22265 -0.77344,0.44336 0.77735,-0.44336 z m -32.3125,1.07032 -0.65624,0.21484 -0.51563,0.15625 0.50976,-0.15234 z m -2.45312,0.67383 -0.49023,0.13476 -0.40625,0.13477 0.40235,-0.12893 z m -0.89648,0.26953 -0.30079,0.10347 -0.30858,0.13093 0.30858,-0.12493 z m 16,-0.13477 1.19921,0.57226 0.73828,0.33399 -0.73828,-0.33789 z m 94.35937,0.19726 0.22461,1.52735 0.0743,0.61523 0.0976,0.80665 -0.0937,-0.80665 -0.0723,-0.61523 z m 0.39648,2.94923 -13.10351,7.9414 -1.69336,-0.60352 1.69336,0.60937 z m -14.79687,7.33788 -0.46485,-0.16601 -0.5078,-0.14063 -0.41797,-0.084 -0.55664,-0.10347 -0.77735,-0.12493 -0.61328,-0.0879 -1.24024,-0.0743 -0.58788,-0.0352 -0.82813,-0.012 -0.4375,0.012 -0.54101,0.0508 0.53515,-0.0468 0.44336,-0.009 0.82226,0.009 0.58984,0.0371 1.24415,0.0723 0.61328,0.0879 0.77735,0.12493 0.55077,0.10547 0.42384,0.082 0.50391,0.14062 z m -65.32813,-9.69727 -1.16211,0.55664 -0.64062,0.25587 0.64649,-0.25587 z m -33.42577,0.50587 -2.59571,0.92577 -2.39062,1.04688 2.39062,-1.04101 z m 23.36913,0.56055 0.33204,0.0625 0.40233,0.0527 -0.40233,-0.0585 z m 6.91211,0.0957 -0.57422,0.0293 -0.92578,0.0332 0.92578,-0.0273 z m -1.5,0.0625 -1.19922,-0.0215 -1.62109,0.0156 -1.2168,-0.0469 -0.62695,0.009 0.62695,-0.005 1.2168,0.0488 1.61524,-0.0176 z m 41.74805,0.26954 0.27148,0.24413 0.19923,0.20508 -0.19336,-0.20508 z m -79.42578,2.64062 -0.57422,0.20703 -0.40234,0.15429 0.40234,-0.14842 z m -0.97656,0.36132 -0.1543,0.0567 -0.81836,0.24415 0.82422,-0.24415 z m -1.3379,0.39844 -0.4785,0.13094 -0.68164,0.18749 -0.40626,0.17773 -0.73437,0.34766 -2.21289,1.07422 -0.42188,0.24023 0.42188,-0.23632 2.20702,-1.07227 0.74024,-0.34961 0.40626,-0.17577 0.67773,-0.18751 z m 82.83008,1.2715 0.19141,0.15624 0.17774,0.10346 0.39648,0.18946 -0.39648,-0.19336 -0.17188,-0.0996 z m -90.41797,2.13476 -0.48241,0.0411 -0.56836,-0.004 0.56836,0.009 z m 109.96485,0.67188 -0.91211,0.0625 -0.97852,0.0937 0.97852,-0.0879 z m -8.63672,0.2246 0.93751,0.21876 0.64648,0.1308 -0.64063,-0.1308 z m 5.96875,0.0215 -0.65624,0.0723 -1.77931,0.26952 1.77931,-0.26367 z m -3.97266,0.41015 0.41016,0.0371 h 10e-4 l 0.41992,-0.0156 -0.41992,0.012 z m 0.10934,10.23439 -0.95899,0.6621 -1.07812,0.8125 1.07812,-0.80664 z m 35.78125,1.25194 0.27539,0.9375 0.29101,0.8789 -0.28515,-0.8789 z m -39.4336,1.62306 -0.76367,0.7246 -0.76562,0.79101 -0.81836,0.89063 -0.45508,0.5586 0.45508,-0.55274 0.81836,-0.89062 0.76562,-0.79102 z m -2.80273,2.96484 -0.37304,0.45312 -0.5586,0.72852 0.5625,-0.72852 z m -0.93164,1.18164 -0.83203,1.23046 -0.69727,1.11328 -0.51172,0.9336 0.51172,-0.92969 0.69727,-1.11328 z m 38.58398,2.67577 -4.96289,3.58985 -4.32812,4.97266 4.33203,-4.97266 z m -9.29101,8.56251 -3.08008,5.54297 -0.17577,0.46288 0.18164,-0.46288 z m -31.8086,-6.98243 -0.58203,1.33789 -0.4707,1.2461 -0.39063,1.13868 0.39063,-1.13478 0.4707,-1.24413 z m -1.44336,3.72267 -2.93164,8.9121 -1.41992,-0.33204 1.41797,0.3379 h 10e-4 z m -4.35156,8.58006 -0.44336,-0.084 -0.20508,-0.0215 0.20508,0.0253 z m -0.64844,-0.10546 -0.39061,-0.0215 -0.35158,-0.004 0.35158,0.009 z m -81.23241,-10.60938 0.32812,0.0781 0.70703,0.17774 -0.70118,-0.1836 z m -1.70313,0.0625 -0.25,0.10933 -0.23047,0.1308 0.23633,-0.1308 z m 4.83204,0.74022 2.38476,0.63087 1.22461,0.32227 -1.21876,-0.32227 z m -6.76954,0.55079 -0.26172,0.1308 -0.24414,0.0937 0.25,-0.0937 z m -2.03125,0.77148 -0.31445,0.1192 -0.24806,0.10933 0.25391,-0.10933 z m -0.95312,0.43751 -0.25196,0.16601 -0.30077,0.26172 0.30077,-0.25587 z m 20.46679,1.0371 1.40821,0.59375 0.89453,0.13093 1.00586,0.16015 -1.00586,-0.16601 -0.89062,-0.1308 z m 17.0625,2.375 1.32031,0.13867 0.61718,0.0625 -0.61718,-0.0664 z m 8.65235,1.1914 1.01562,0.1465 0.10934,0.21874 -0.10347,-0.22461 z m 1.33398,1.07423 v 0.004 l 0.0879,0.18945 z m 0.0879,0.19336 0.14063,0.30077 0.12493,0.16602 -0.12493,-0.17187 z m 0.26563,0.46679 0.15234,0.21876 0.3418,0.24022 -0.3418,-0.24609 z m 2.63086,1.71289 0.84375,0.35547 0.29492,0.0781 -0.28907,-0.0781 z m 35.125,0.0488 -0.92773,0.0723 -0.85937,0.1152 0.85937,-0.10934 z m -4.0625,0.56641 -0.61523,0.12494 -0.76563,0.19921 0.76563,-0.19336 z m -19.7461,1.1875 0.46484,0.12106 0.37891,0.12894 0.42188,0.1836 -0.42188,-0.18751 -0.37891,-0.1308 z m 1.66211,0.64649 1.26563,0.88476 0.26172,0.14063 -0.26172,-0.14648 z m 1.82813,1.13085 0.30274,0.0684 h 0.005 z m 4.60547,0 -0.59961,0.0625 -0.73438,0.0468 0.73438,-0.0411 z m -3.95899,0.11334 0.51954,0.0528 0.57812,0.0156 -0.57812,-0.0215 z m 16.84766,14.03125 -0.27539,0.0215 0.27539,-0.0156 0.28125,0.005 z m 0.28125,0.012 1.45312,0.15039 1.45899,0.14062 -1.45899,-0.14453 z m -2.48437,0.70312 -0.25976,0.0937 -0.31251,0.10934 0.31251,-0.10347 z m -0.875,0.30079 -0.28126,0.0527 -0.33202,0.0371 0.33202,-0.0312 z m -19.32618,0.23046 3.17579,0.35352 6.64063,0.77148 -6.64063,-0.77538 z m 9.81642,1.125 0.54686,0.0527 0.48828,0.0352 0.48634,0.009 0.32812,-0.009 0.41601,-0.0352 -0.41601,0.0293 -0.32812,0.012 -0.48634,-0.012 -0.48828,-0.0352 z m 6.23437,-1.09961 -0.32227,0.084 -1.71874,0.60937 1.71874,-0.60546 z m -28.91797,0.39453 -0.0508,0.20508 0.0508,-0.19921 z m -0.0508,0.20508 -0.10934,0.25 -0.1621,0.25586 0.1621,-0.25195 z m -0.27148,0.50586 -0.22266,0.22266 -0.67188,0.52539 0.67188,-0.52148 z m 26.37109,-0.16211 -0.30273,0.0723 -0.54102,0.10346 0.54102,-0.0976 z m -32.49024,4.47852 -2.95703,1.94336 -0.77344,0.50976 0.77344,-0.50585 z m -3.73047,2.45312 -0.39453,0.26563 -0.59374,0.32813 0.59374,-0.32227 z m -0.98827,0.59376 -0.32227,0.15039 -0.27148,0.0684 0.27148,-0.0625 z m -5.86914,-0.1504 -0.45898,0.005 -0.49024,0.0352 -0.4629,0.0684 0.4629,-0.0625 0.49024,-0.0371 z m 0.63476,0.0195 0.625,0.0684 3.30274,0.31641 -3.30274,-0.32227 z m 83.31251,0.1621 1.67773,10.2715 1.71289,7.84765 -1.70704,-7.84765 z m -93.42579,0.5 0.57618,0.0625 2.47461,0.375 0.35937,0.0585 0.35938,0.0352 0.33398,0.0215 -0.33398,-0.0273 -0.35938,-0.0352 -0.35937,-0.0567 -2.47461,-0.37696 z m 4.10352,0.55274 0.17578,-0.0215 0.38086,-0.0684 -0.38086,0.0625 z m -6.52149,-0.39062 -0.5,0.21875 -0.45899,0.22851 0.45899,-0.22266 z m -4.78124,4.95116 -0.59961,2.03322 -0.0917,0.2285 0.0917,-0.22265 z m -0.69141,2.26172 -0.16798,0.25978 -0.22265,0.20312 -0.3496,0.21484 -0.35548,0.1504 -0.50585,0.14062 -0.69727,0.1308 0.69727,-0.12493 0.50585,-0.14063 0.35548,-0.15234 0.3496,-0.21288 0.22265,-0.20314 z m -2.29883,1.09962 -1.98828,0.29101 -0.87696,0.12893 -0.63867,0.17188 0.63867,-0.16601 0.87696,-0.12893 z m -3.50391,0.5918 -0.51562,0.30273 -0.41211,0.51172 -1.89453,3.90039 -0.40235,0.69336 0.40235,-0.68946 1.89453,-3.89844 0.41211,-0.51172 z m 88.94727,6.23046 1.15038,1.625 1.19336,1.63476 15.86524,21.1836 -15.86524,-21.1875 -1.19336,-1.63671 z m 24.07813,11.00586 7.29101,16.03516 0.4375,1.90625 -0.43164,-1.90625 z m -0.18751,13 -0.35937,0.0352 0.35937,-0.0312 0.28126,0.0625 0.49022,0.24413 -0.48437,-0.24413 z m -3.09374,0.31054 0.54686,0.4922 -0.54296,-0.4922 z m 1.57226,0.21095 -0.0977,0.25391 -0.16211,0.24609 0.16602,-0.24609 z m 3.8496,11.03516 1.33399,2.30859 0.98437,1.77538 -0.98046,-1.77538 z m 2.31836,4.08397 1.11328,2.0254 0.95899,1.93749 -0.95899,-1.94335 z m 3.11915,6.16603 0.93164,2.18749 0.90235,2.28125 0.7285,1.89648 -0.7246,-1.89648 -0.9004,-2.28125 z m -0.59961,13.77733 0.81836,0.24805 0.6621,0.20312 -0.65624,-0.20312 z m 1.48046,0.45117 0.48828,0.1308 0.34376,0.0743 -0.34376,-0.0801 z m 7.97852,11.99024 0.009,0.54687 -0.10934,0.39063 0.1152,-0.39063 z m -0.22265,1.25 -0.31445,0.35547 -0.45704,0.26367 0.46289,-0.26367 z m -87.14259,18.66602 0.32814,0.44336 0.74609,0.625 0.34375,0.32226 -0.3379,-0.32226 -0.74609,-0.625 z m 1.65626,1.88086 0.1621,0.8496 0.25,0.44142 -0.24609,-0.44142 z m 0.24609,4.01562 -2.31836,14.84376 -0.41211,3.01562 0.41798,-3.01562 z m 124.05078,17.99414 9.74024,12.29883 13.36914,16.37891 -13.36914,-16.38476 z m -44.98827,11.8086 -8.375,5.77148 -7.09962,4.89454 7.10547,-4.89454 z m 2.68554,2.64452 -1.66601,36.56251 h 0.005 z m -25.89453,13.34962 -6.85937,4.72852 -4.85938,3.35546 4.86523,-3.35546 z m -12.06251,8.45702 -7.71288,5.32032 -4.19336,2.8164 4.19336,-2.81249 z m -11.90624,8.13672 -5.80274,3.8965 -0.86328,0.59374 0.86914,-0.59374 z m -19.24024,-5.45897 0.25586,0.28124 3.75977,3.14649 -3.75391,-3.14649 z m 5.26172,4.40624 7.05274,5.57813 0.12306,0.10547 -0.1192,-0.10547 z m 7.17578,5.6836 0.3086,0.24413 4.70702,3.875 -4.70702,-3.88085 z m 83.3086,3.89453 -0.66796,0.96875 0.67186,-0.96875 z m 2.28125,0.57812 0.25976,1.18946 0.0937,1.6289 -0.0879,-1.6289 z m 0.35352,2.81836 -0.0937,1.10938 -0.54102,2.45313 0.54688,-2.45313 z m -3.72852,-0.54101 -0.84375,1.80273 -1.13672,0.3164 1.14258,-0.3164 z m 2.49413,5.02148 -0.20312,0.29492 -0.0664,0.14649 0.0664,-0.14063 z m -63.42773,5.76368 1.07813,0.44336 0.9082,0.15624 -0.9082,-0.16211 z m 74.125,10.75585 -0.12894,1.72265 1.4629,0.53322 -1.45899,-0.53322 z m -1.65624,5.31251 -1.84767,0.71288 -0.39061,0.15625 0.39061,-0.15039 z m -5.00391,3.68749 -0.66797,1.17773 -0.45312,1.69727 0.45897,-1.69727 z m 88.83203,2.375 0.92773,1.74415 1.05079,1.65038 -1.05079,-1.65625 z m 1.97852,3.39453 1.11132,1.16016 0.004,-10e-4 z m 1.11132,1.16016 -3.43946,1.56446 3.44336,-1.56055 z m -3.43946,1.56446 -1.91601,0.87109 -1.18749,0.46679 1.18749,-0.46094 z m -3.1035,1.33788 -2.67774,1.0586 -6.86914,3.15234 6.875,-3.15234 z m -39.45314,-6.85156 0.57032,0.14258 -0.56445,-0.14258 z m 0.57032,0.14258 2.25391,0.57031 3.42577,2.03125 -3.42577,-2.0371 z m 5.67968,2.60156 2.03126,1.20899 0.84961,1.04687 -0.84375,-1.04687 z m -44.13476,0.92187 -1.32813,4.70704 -0.84375,1.06836 0.84375,-1.06251 z m -194.83984,17.89649 -2.61719,1.34766 2.62109,-1.34766 z m -126.68555,2.12304 3.48827,0.25587 0.62696,-0.0976 -0.62696,0.0917 z m 15.72461,0.54688 3.96093,0.005 1.08008,0.19336 -1.08008,-0.19922 z m -23.21875,0.75 0.68554,0.42774 0.42384,0.0996 -0.42384,-0.10547 z m 78.88476,0.61524 -2.83984,0.79296 -0.67188,0.41602 0.67188,-0.41211 z m -45.63087,2.3125 0.84376,0.72852 0.47851,0.14648 -0.47851,-0.15235 z m 4.15626,0.96289 0.46289,0.20899 0.30664,0.5 -0.30664,-0.50587 z m 35.66601,1.08008 -0.4414,0.9414 -1.16798,1.95704 1.16798,-1.95313 z m -7.0664,6.4414 -0.9961,0.28516 -1.72852,1.10156 1.72852,-1.09571 z m -2.72462,1.38672 -0.46874,0.13867 -0.94336,0.0899 0.94336,-0.084 z m -14.00975,-0.33984 -1.48634,0.10347 1.48634,-0.0976 3.55664,0.42578 z m -3.92774,0.75 -1.00781,0.3496 h 0.004 z m -5.88086,0.43749 0.95898,0.48438 0.54102,0.0312 -0.54102,-0.0352 z" />
  <path
     d="m 390.64646,214.19238 -14.756,8.89066 -1.05733,0.66667 -0.95733,0.66133 -1.07867,0.812 -0.724,0.6 -0.89067,0.80134 -0.76533,0.724 -0.76533,0.792 -0.81867,0.89066 -0.82267,1.01067 -0.56266,0.72933 -0.83334,1.22934 -0.69733,1.11333 -0.51067,0.93333 -0.47466,0.97867 -0.58267,1.33867 -0.46933,1.24533 -0.39067,1.14 -2.932,8.912 -0.71333,2.176 -0.45334,1.71467 -0.38533,1.64 -0.276,1.49466 -0.25467,1.568 -0.19866,1.64534 -0.13467,1.46933 -0.0467,1.27067 -0.032,2.23466 0.032,1.32267 0.052,1.224 0.072,1.00533 0.14134,1.38534 0.16133,1.40133 0.15067,1.24933 0.23466,1.34934 0.432,1.94266 0.432,1.828 0.57334,1.932 0.62,1.708 0.78133,1.95334 0.54133,1.28666 0.828,1.672 0.71867,1.36934 1.08933,1.95866 0.95334,1.52134 1.03066,1.536 1.15067,1.62 1.19333,1.636 15.864,21.18666 2.59334,-0.12533 0.54266,0.49067 0.43734,0.276 0.328,-0.0573 0.16666,-0.24533 0.0933,-0.25467 0.344,-0.22933 0.29733,-0.18267 0.52,-0.0733 0.36,-0.036 0.28667,0.068 0.484,0.244 0.61466,0.16267 0.18267,0.0467 0.448,0.12 0.38,0.29067 1.22933,1.18267 0.61467,1.15066 0.76533,0.51067 0.724,0.35467 1.25467,0.52533 0.932,0.28667 -0.432,-1.90667 -7.296,-16.036 -2.516,-8.68267 -1.708,-7.848 -1.68267,-10.27066 -0.57866,-3.308 2.896,-13.08267 3.776,-7.464 1.23466,-1.52667 1.07867,-1.328 0.18133,-0.46266 3.07334,-5.54267 4.33333,-4.97333 4.95867,-3.58934 3.396,-1.77066 3.07733,-1.30134 -0.26533,-0.708 -0.19334,-0.50533 -0.89066,-2.26667 0.0267,-0.0773 -0.28666,-0.88 -0.28134,-0.93733 -0.34933,-1.07867 -0.24933,-0.656 -0.30267,-0.43733 -0.328,-0.36534 -0.66667,-0.604 -0.812,-0.77066 -1.16133,-1.31734 -1.016,-1.21866 -0.656,-0.876 -0.43733,-0.68134 -0.16134,-0.308 -0.14133,-0.34933 -0.0933,-0.35867 -0.0467,-0.396 -0.0893,-2.76 -0.036,-1.104 -0.0573,-1.5 -0.052,-1.12533 -0.0413,-0.91733 -0.016,-0.328 -0.0307,-0.33867 -0.12,-1.26533 z"
     style="display:inline;fill:#000000;fill-opacity:1;fill-rule:evenodd;stroke:none;stroke-width:1.33333"
     id="centro" />
  <path
     d="m 403.90113,207.84838 0.016,0.328 0.0413,0.91733 0.052,1.12533 0.0573,1.5 0.036,1.104 0.0893,2.76534 0.0467,0.39066 0.0933,0.35867 0.14133,0.34933 0.16134,0.308 0.43733,0.68134 0.656,0.876 1.016,1.21866 1.16133,1.31734 0.812,0.77066 0.66667,0.604 0.328,0.36534 0.30267,0.43733 0.24933,0.656 0.34933,1.07867 0.276,0.93733 0.292,0.88 -0.0267,0.0773 0.89066,2.26667 0.19334,0.50533 0.26533,0.708 2.412,-0.81866 4.484,-1.11334 1.70267,-0.11466 2.88133,0.0773 2.49467,0.54133 1.30666,1.60534 1.01067,2.65066 0.672,1.02 -0.69867,1.188 1.86,2.36534 0.24,3.69733 0.38,0.80267 0.64,0.58266 0.36,0.464 -0.0733,0.28667 -0.35467,0.16667 0.22934,0.60933 1.36,0.78133 2.65066,0.18667 -0.26533,1.01067 0.17733,0.87466 0.968,-0.896 1.00534,-1.23866 3.46399,-0.70934 5.32267,0.48 1.94267,-0.672 0.984,-1.55733 0.58933,-4.92133 -4.808,-27.45867 -2.37467,-8.04267 -3.13999,-6.348 -5.876,-7.17733 -1.396,0.864 -0.97334,0.568 -27.932,16.11467 0.12,1.26533 z"
     style="display:inline;fill:#000000;fill-opacity:1;fill-rule:evenodd;stroke:none;stroke-width:1.33333"
     id="canto_da_praia" />
  <path
     d="m 527.71313,499.6097 -1.11467,-1.16266 -1.052,-1.65067 -0.92667,-1.744 -1.55733,-1.99067 -3.60933,-4.45733 -9.35867,-8.792 -6.308,-6.44267 -9.964,-10.516 -6.59333,-6.724 -9.33334,-11.23999 -8.776,-9.85334 -13.36933,-16.38 -9.74,-12.29733 -6.29733,-8.77067 -4.92667,-7.812 -5.59333,-8.24 -5.48,-9.82266 -5.93733,-12.14667 -1.79067,-3.276 -3.824,2.74 -4.74933,3.17733 0.0107,0.344 0.0147,0.54667 -0.11467,0.39067 -0.124,0.312 -0.308,0.35466 -0.46266,0.26534 -0.21867,0.0933 -0.532,0.0213 0.136,2.188 0.0827,1.86934 0.068,1.62533 0.0307,1.656 -0.0307,1.97333 -2.256,46.964 -1.66134,36.56267 2.52667,0.11466 2.78133,0.624 3.14,-0.009 3.308,1.07733 2.208,-0.0253 0.87467,-0.24 1.54267,0.17733 0.916,0.37467 0.83866,0.75467 1.47867,0.568 2.34933,0.19333 1.052,-0.204 1.26534,0.396 0.15733,1.828 0.0307,0.20933 0.25466,0.71334 0.50534,0.328 1.14133,-0.31734 0.83867,-1.80266 0.42666,-1.88534 0.672,-0.96933 1.67734,-0.21867 0.59866,0.79734 0.26534,1.188 0.0893,1.62933 -0.0893,1.10933 -0.54667,2.45334 -0.59867,0.91733 -0.204,0.30133 -0.0667,0.14134 -0.412,0.83866 -0.66134,1.47334 0.31734,1.73466 1.052,0.448 2.74,0.552 5.91199,0.88 4.02,-0.21333 1.14667,1.38 0.51467,3.07333 -0.796,1.968 -0.94267,0.96934 -1.02667,1.588 -0.896,1.38533 -0.12533,1.724 1.45867,0.532 2.172,-0.19867 1.66666,-0.468 0.34934,-0.0987 1.81733,0.19733 1.12,0.58267 0.85467,0.896 0.56133,1.38533 -0.864,1.068 -1.24933,0.62 -1.66267,0.0787 -5.448,-0.98534 -2.30667,-0.02 -1.84933,0.71867 -0.39066,0.15067 -2.76534,2.81733 -0.66133,1.17733 -0.45867,1.69867 0.188,2.19733 0.77067,1.552 2.66133,3.35467 1.33334,1.968 0.83866,0.396 1.19733,0.0787 0.844,-1.06267 1.328,-4.71333 1.48534,-1.776 2.85866,-1.28134 5.51067,-1.06266 0.74933,-0.12 1.6,0.22933 1.32267,0.60933 1.87467,0.94267 1.02666,0.208 1.00934,-0.25467 3.876,-2.50533 2.11466,0.0307 1.43734,0.54266 -0.0467,1.23334 -0.85467,1.292 -0.40133,1.396 0.964,1.54133 1.68667,0.256 1.48533,-0.672 1.50533,-1.656 2.98934,-1.792 2.968,-1.104 2.72933,0.276 2.81867,0.71333 5.46266,3.24 0.844,1.04667 1.47867,2.78133 2.016,3.54667 1.484,1.572 0.95867,0.22 1.984,0.10933 9.14133,-1.29733 3.71333,-0.86933 6.87467,-3.152 2.672,-1.05734 1.188,-0.46266 1.916,-0.876 z"
     style="display:inline;fill:#000000;fill-opacity:1;fill-rule:evenodd;stroke:none;stroke-width:1.33333"
     id="meia_praia" />
  <path
     d="m 369.3078,180.72438 1.916,0.66667 0.71866,0.21866 3.188,0.89067 0.59334,0.20267 0.432,0.17733 0.53733,0.21867 0.43733,0.19733 0.484,0.22933 0.532,0.308 0.47867,0.30667 0.40133,0.28133 0.396,0.30267 0.68134,0.56133 0.21466,0.17734 0.47867,0.44266 2.328,2.31333 0.83333,0.83867 0.45867,0.44267 0.37467,0.34266 0.24533,0.19334 0.38,0.25466 0.44267,0.24 0.85333,0.42134 0.44267,0.224 3.28666,1.792 10.61467,5.76533 1.40667,0.60933 0.26,0.19334 0.0987,0.16133 0.13067,0.896 0.13067,0.87467 0.27066,1.828 0.224,1.52666 0.0733,0.61467 0.0987,0.80667 27.932,-16.11467 0.97334,-0.568 1.396,-0.864 -11.00534,-14.87466 -2.75466,-3.13067 -1.42667,-6.18267 v -6.59866 l -1.14133,-1.60934 -7.036,-5.33333 -10.64667,-6.18267 -8.744,-3.724 -5.896,-1.52 -5.22933,-0.42266 -6.276,-0.088 -8.744,1.016 -5.896,1.692 -3.80267,2.79733 -3.42133,3.80667 -1.23467,3.98 -0.38,3.21866 0.83333,5.73867 2.71867,0.30267 1.21333,-0.17734 1.19734,-0.348 5.10533,-2.688 5.54133,-2.792 0.80134,-0.464 1.28666,-0.0413 0.90134,0.208 0.844,0.38667 1.296,1.18133 0.56266,0.808 0.14134,0.83333 0.24933,1.82267 -0.0627,3.15067 -0.296,1.07333 -0.152,0.63067 0.032,0.61866 0.55734,1.136 0.13066,0.51067 0.056,0.54667 -0.14,2.58266 -0.14533,2.16267 -0.12,0.83733 -0.14133,0.516 -0.172,0.36 -0.17067,0.312 -0.26133,0.43734 -0.32267,0.42666 -0.70267,0.69867 -0.49466,0.43733 -1.03734,0.78134 -0.244,0.19333 -0.26666,0.26 -0.208,0.26533 -0.14,0.26534 -0.0733,0.256 -0.036,0.22933 0.009,0.26533 0.0627,0.31734 0.11467,0.364 0.17733,0.40133 0.25067,0.376 z"
     style="display:inline;fill:#000000;fill-opacity:1;fill-rule:evenodd;stroke:none;stroke-width:1.33333"
     id="sertaozinho" />
  <path
     d="m 320.4798,205.04704 0.776,-0.172 0.56666,-0.17733 0.64667,-0.25467 1.156,-0.55733 1.948,-0.91733 1.22933,-0.688 0.68667,-0.39467 0.776,-0.44267 0.39067,-0.224 0.51066,-0.22933 0.256,-0.14133 0.35867,-0.12934 0.328,-0.0947 0.32267,-0.072 0.46933,-0.0947 1.38533,-0.23467 0.68267,-0.10933 1.68667,-0.23867 0.81333,-0.084 0.47867,-0.072 0.308,-0.0893 0.39066,-0.15067 1.484,-0.68266 0.568,-0.22934 0.44267,-0.0933 0.58267,-0.0787 2.88533,0.0427 1.12533,-0.052 0.66667,-0.0107 0.484,0.0773 0.46933,0.12 0.54667,0.224 0.92133,0.43733 1.568,0.652 1.26534,0.46267 4.652,1.89066 1.54666,0.60934 0.57734,0.20933 1.07333,0.42667 0.552,0.21866 0.428,0.21334 0.604,0.33333 0.33333,0.208 0.60934,0.39067 0.364,0.26533 0.33333,0.26667 0.276,0.244 0.19333,0.204 0.156,0.21333 0.14,0.27067 0.104,0.27066 0.032,0.33867 -0.0213,0.30667 -0.156,1.65733 0.0107,0.312 0.0573,0.292 0.104,0.29067 0.19333,0.272 0.19734,0.156 0.172,0.0987 0.396,0.19334 0.572,0.18133 0.82933,0.204 5.11333,1.25467 1.428,0.36933 2.20267,0.57333 0.94267,0.21867 0.64133,0.13067 0.41067,0.0827 0.412,0.032 0.43733,-0.0107 0.17733,-0.0267 0.33867,-0.036 0.172,-0.0267 1.78,-0.27066 0.70933,-0.0773 0.724,-0.084 0.97867,-0.0933 0.912,-0.0627 0.61467,-0.0413 0.54133,-0.052 0.43733,-0.0107 0.828,0.0107 0.588,0.036 1.24,0.0733 0.61467,0.088 0.776,0.12534 0.55733,0.104 0.41734,0.084 0.50933,0.14 0.464,0.16666 1.69333,0.604 13.104,-7.94266 -0.0947,-0.80667 -0.072,-0.61467 -0.22934,-1.52666 -0.27066,-1.828 -0.13067,-0.87467 -0.13067,-0.896 -0.0987,-0.16133 -0.26,-0.19334 -1.40667,-0.60933 -10.61467,-5.76533 -3.28666,-1.792 -0.44267,-0.224 -0.85333,-0.42134 -0.43734,-0.24533 -0.38533,-0.24933 -0.24533,-0.19334 -0.37467,-0.34266 -0.45867,-0.44267 -0.83333,-0.83867 -2.32267,-2.31333 -0.484,-0.44266 -0.21466,-0.17734 -0.68134,-0.56133 -0.396,-0.30267 -0.40133,-0.28133 -0.47867,-0.30667 -0.532,-0.308 -0.484,-0.23466 -0.43733,-0.192 -0.53733,-0.224 -0.432,-0.172 -0.59334,-0.20267 -3.188,-0.89067 -0.71866,-0.21866 -1.91067,-0.66667 -0.25067,-0.38133 -0.17733,-0.4 -0.11467,-0.36 -0.0627,-0.31734 -0.009,-0.27066 0.036,-0.224 0.0733,-0.256 0.14,-0.26534 0.208,-0.26533 0.26666,-0.26 0.244,-0.19333 1.03734,-0.78134 0.49466,-0.43733 0.70267,-0.69867 0.32267,-0.42666 0.26133,-0.43734 0.17067,-0.312 0.172,-0.36 0.14133,-0.516 0.12,-0.83733 0.14533,-2.16267 0.14,-2.58266 -0.056,-0.54667 -0.13066,-0.51067 -0.55734,-1.136 -0.032,-0.61866 0.152,-0.63067 0.296,-1.07333 0.0627,-3.156 -0.24933,-1.81734 -0.14134,-0.83333 -0.56266,-0.808 -1.296,-1.18133 -0.844,-0.38667 -0.896,-0.208 -1.292,0.0413 -0.80134,0.464 -5.54133,2.792 -5.10533,2.688 -1.19734,0.348 -1.21333,0.17734 -2.71867,-0.30267 -0.83333,2.90133 -2.88533,2.052 -4.756,1.86 -6.624,1.604 -6.704,2.052 -9.00534,5.136 -11.16666,6.54134 -8.072,2.82266 -5.04267,1.02667 -6.916,0.31733 h -8.86533 l -5.18667,0.90133 -3.52666,1.98934 -2.95867,2.62933 -2.66133,3.464 -1.948,4.23467 -0.71867,2.88533 -0.21867,2.88533 0.86534,4.42667 1.44266,4.03733 0.12,-0.104 1.948,-1.672 0.47867,-0.324 0.54133,-0.276 0.37467,-0.16133 0.50533,-0.14533 0.548,-0.088 0.364,-0.0533 0.568,0.005 0.484,-0.0413 0.42667,-0.0827 0.41733,-0.14667 0.64,-0.344 1.16667,-0.676 0.42267,-0.24 2.21333,-1.07333 0.73467,-0.348 0.40533,-0.17734 0.68267,-0.188 0.47866,-0.13066 0.36534,-0.0987 0.82266,-0.244 0.552,-0.20933 0.57334,-0.208 0.63466,-0.244 1,-0.412 2.276,-1 2.39067,-1.04667 2.59467,-0.92667 2.18666,-0.92266 0.308,-0.13067 0.30134,-0.104 0.40666,-0.13467 0.48934,-0.136 1.28133,-0.30133 0.516,-0.15733 0.656,-0.21334 0.57867,-0.31733 0.71333,-0.412 1.104,-0.56667 0.50533,-0.204 0.51067,-0.25466 0.35333,-0.12 0.29734,-0.11467 0.39066,-0.0787 0.42134,-0.0253 0.47466,-0.0213 0.42134,0.0267 0.448,0.0627 0.33333,0.072 0.44267,0.14667 0.40133,0.14 0.484,0.204 0.74,0.312 2.10933,0.98933 0.82267,0.37067 0.55733,0.30133 0.54133,0.29733 1.19867,0.568 0.73867,0.33734 0.72933,0.30266 0.548,0.21867 0.49867,0.172 0.45333,0.14533 0.40667,0.10934 0.33333,0.0573 0.40667,0.0573 0.63466,-0.009 1.21867,0.0467 1.62,-0.016 1.19867,0.0213 0.92666,-0.032 z"
     style="fill:#000000;fill-opacity:1;fill-rule:evenodd;stroke:none;stroke-width:1.33333"
     id="alto_sao_bento" />
  <path
     d="m 375.1358,213.55238 -0.412,-0.0373 -0.41067,-0.0827 -0.64667,-0.13067 -0.93733,-0.21867 -2.20267,-0.57333 -1.428,-0.36933 -5.11333,-1.25467 -0.82933,-0.204 -0.572,-0.18133 -0.396,-0.188 -0.17734,-0.104 -0.192,-0.156 -0.19333,-0.272 -0.104,-0.29067 -0.0573,-0.292 -0.0107,-0.312 0.156,-1.65733 0.0213,-0.30667 -0.032,-0.33867 -0.104,-0.27066 -0.14,-0.27067 -0.156,-0.21333 -0.19866,-0.204 -0.27067,-0.244 -0.33333,-0.26667 -0.364,-0.26533 -0.60934,-0.39067 -0.33333,-0.208 -0.604,-0.33333 -0.428,-0.21334 -0.552,-0.21866 -1.07333,-0.42667 -0.58267,-0.20933 -1.54133,-0.60934 -4.656,-1.89066 -1.26134,-0.46267 -1.568,-0.652 -0.92133,-0.43733 -0.54667,-0.224 -0.46933,-0.12 -0.48933,-0.0773 -0.66134,0.0107 -1.12533,0.052 -2.88533,-0.0427 -0.58267,0.0787 -0.448,0.0987 -0.56267,0.224 -1.484,0.68266 -0.39066,0.15067 -0.308,0.0893 -0.47867,0.072 -0.81333,0.084 -1.692,0.244 -0.67734,0.104 -1.38533,0.24 -0.46933,0.0893 -0.32267,0.072 -0.328,0.0947 -0.35867,0.12934 -0.256,0.14133 -0.51066,0.22933 -0.39467,0.224 -0.772,0.44267 -0.68667,0.39467 -1.22933,0.688 -1.948,0.91733 -1.16133,0.55733 -0.64134,0.25467 -0.56666,0.17733 -0.776,0.172 -0.57334,0.036 -0.92666,0.0267 -1.204,-0.016 -1.61467,0.016 -1.21867,-0.048 -0.64,0.005 -0.40133,-0.052 -0.33333,-0.0627 -0.412,-0.10934 -0.448,-0.14533 -0.49867,-0.172 -0.548,-0.21867 -0.72933,-0.30266 -0.73867,-0.33334 -1.19867,-0.572 -0.54133,-0.29733 -0.55733,-0.30133 -0.82267,-0.37067 -2.11466,-0.98933 -0.73467,-0.30667 -0.484,-0.204 -0.40133,-0.14533 -0.44267,-0.14667 -0.33333,-0.072 -0.448,-0.0573 -0.42667,-0.0267 -0.46933,0.016 -0.42667,0.0307 -0.39067,0.0733 -0.292,0.11467 -0.35333,0.12533 -0.51067,0.24933 -0.50533,0.204 -1.104,0.56667 -0.71333,0.412 -0.57867,0.31733 -0.66133,0.21867 -0.51067,0.152 -1.28133,0.30133 -0.49467,0.14134 -0.40133,0.12933 -0.30134,0.10933 -0.308,0.12534 -2.18666,0.92266 -2.59467,0.932 -2.39067,1.04134 -2.276,1 -1,0.412 -0.63466,0.244 -0.57334,0.21333 -0.55733,0.204 -0.81733,0.244 -0.36534,0.0987 -0.484,0.136 -0.67733,0.188 -0.40533,0.176 -0.74,0.34933 -2.208,1.07333 -0.42267,0.23467 -1.16667,0.676 -0.64,0.344 -0.41733,0.14667 -0.42667,0.0827 -0.484,0.0467 -0.568,-0.0107 -0.364,0.0533 -0.548,0.088 -0.50933,0.14533 -0.376,0.16667 -0.54133,0.27066 -0.47867,0.32934 -1.94267,1.67066 -0.12,0.10534 0.192,1.34266 -0.072,1.21867 -0.57866,1.95867 -0.792,2.24533 -0.60934,3.07733 0.14134,2.02134 0.792,3.464 1.26,4.45733 1.016,3.964 0.156,-0.53067 2.70266,0.31734 0.40134,1.016 0.30133,-0.26134 0.25067,-0.16666 0.21866,-0.124 0.172,-0.084 0.24934,-0.10934 0.31333,-0.12 1.52533,-0.54666 0.24534,-0.0933 0.26,-0.13066 0.26533,-0.172 0.45867,-0.33334 0.48,-0.35866 0.25466,-0.188 0.22934,-0.13067 0.24933,-0.10933 0.292,-0.088 0.29733,-0.0467 0.32267,-0.0107 0.26533,0.005 0.25067,0.0253 0.276,0.052 0.328,0.0787 0.708,0.17733 2.09333,0.54667 2.38534,0.63066 1.224,0.32267 7.104,1.844 1.40666,0.59333 0.896,0.13067 1.00534,0.16133 3.328,0.35867 2.13066,0.21867 5.33334,0.59466 0.85333,0.0987 2.10933,0.21867 1.31867,0.14 0.61866,0.0627 1.876,0.27067 4.83867,0.71867 1.01467,0.14666 0.10933,0.21867 0.0733,0.25467 0.068,0.204 0.068,0.25466 0.088,0.188 0.14,0.30134 0.12534,0.16666 0.152,0.21867 0.34266,0.24 0.204,0.188 0.26,0.18667 0.33867,0.22933 0.276,0.16133 0.24,0.136 0.70267,0.30667 0.11466,0.0467 0.844,0.35466 0.296,0.0787 0.16667,0.0413 0.62533,0.11467 2.38534,0.21867 4.72933,0.672 0.44267,0.0627 1.828,0.26 0.464,0.12 0.38,0.12934 0.42133,0.18266 0.396,0.21334 1.26533,0.88533 0.26134,0.14133 0.30133,0.104 0.30267,0.068 0.344,0.0467 0.52,0.052 0.57866,0.016 1.52667,-0.0733 0.73333,-0.0413 0.6,-0.068 0.43734,-0.0573 0.28133,-0.036 0.75467,-0.16133 0.65066,-0.14667 0.67734,-0.16133 0.66666,-0.192 1.896,-0.52134 1.74,-0.50533 1.30134,-0.344 1.14666,-0.33867 0.71867,-0.176 0.76533,-0.19333 0.61467,-0.13067 1.33333,-0.244 0.94267,-0.136 0.85867,-0.10933 0.928,-0.0773 0.708,-0.048 0.78133,-0.0307 0.35333,0.0107 0.39067,0.0147 0.204,0.0267 0.44267,0.0787 1.42133,0.33866 2.932,-8.91733 0.39067,-1.136 0.46933,-1.244 0.58267,-1.344 0.47466,-0.97867 0.51067,-0.928 0.69733,-1.11466 0.83334,-1.23334 0.55733,-0.72933 0.828,-1.00533 0.81867,-0.89067 0.76533,-0.792 0.76533,-0.72933 0.89067,-0.80134 0.724,-0.6 1.07867,-0.80666 0.95733,-0.66667 1.05733,-0.66667 14.756,-8.89066 -1.69333,-0.60934 -0.468,-0.16133 -0.50533,-0.14133 -0.42267,-0.0827 -0.552,-0.104 -0.776,-0.12533 -0.61467,-0.088 -1.244,-0.0733 -0.58933,-0.036 -0.82267,-0.0107 -0.44266,0.0107 -0.536,0.0467 -0.61467,0.0413 -0.912,0.068 -0.97867,0.088 -0.72933,0.084 -0.704,0.0827 -1.78,0.26533 -0.172,0.0267 -0.344,0.036 -0.17733,0.0267 -0.43734,0.016 z"
     style="display:inline;fill:#000000;fill-opacity:1;fill-rule:evenodd;stroke:none;stroke-width:1.33333"
     id="casa_branca" />
  <path
     d="m 358.14646,265.42171 -0.052,-1.224 -0.032,-1.32267 0.032,-2.23466 0.0467,-1.27067 0.13467,-1.46933 0.19866,-1.64534 0.25467,-1.568 0.276,-1.49466 0.38533,-1.64 0.45334,-1.71467 0.71333,-2.176 -1.42133,-0.33333 -0.44267,-0.084 -0.204,-0.0213 -0.39067,-0.02 -0.35333,-0.005 -0.78133,0.0307 -0.708,0.048 -0.928,0.072 -0.85867,0.11466 -0.94267,0.136 -1.33333,0.244 -0.61467,0.12534 -0.76533,0.19866 -0.71867,0.176 -1.14666,0.33867 -1.30134,0.344 -1.74,0.50533 -1.896,0.52134 -0.66666,0.192 -0.67734,0.16133 -0.65066,0.14667 -0.75467,0.16133 -0.28133,0.036 -0.43734,0.0573 -0.6,0.0627 -0.73333,0.0467 -1.52667,0.0733 -0.57866,-0.0213 -0.52,-0.0467 -0.33867,-0.0467 -0.308,-0.068 -0.30133,-0.104 -0.26134,-0.14666 -1.26533,-0.88 -0.396,-0.21334 -0.42133,-0.18666 -0.38,-0.13067 -0.464,-0.11467 -1.828,-0.26 -0.44267,-0.0627 -4.72933,-0.672 -2.38,-0.21867 -0.63067,-0.11467 -0.16667,-0.0413 -0.29066,-0.0787 -0.84934,-0.35466 -0.11466,-0.0467 -0.70267,-0.30667 -0.24,-0.136 -0.276,-0.16133 -0.33867,-0.22933 -0.26,-0.18667 -0.204,-0.188 -0.34266,-0.24533 -0.152,-0.21334 -0.12534,-0.172 -0.14,-0.296 -0.088,-0.19333 -0.068,-0.24933 -0.068,-0.204 -0.0733,-0.25467 -0.104,-0.224 -1.02,-0.14133 -4.83867,-0.71867 -1.87066,-0.27067 -0.624,-0.0667 -1.31867,-0.136 -2.10933,-0.21867 -0.85333,-0.0987 -5.33334,-0.59466 -2.13066,-0.21867 -3.328,-0.35867 -1.00534,-0.16666 -0.89066,-0.13067 -1.412,-0.588 -7.104,-1.844 -1.21867,-0.32267 -2.39067,-0.63066 -2.09333,-0.54667 -0.70267,-0.18267 -0.33333,-0.0733 -0.27067,-0.052 -0.256,-0.0253 -0.26533,-0.005 -0.32267,0.0107 -0.29733,0.0467 -0.292,0.088 -0.244,0.10933 -0.23467,0.13067 -0.25466,0.188 -0.48,0.35866 -0.45867,0.33334 -0.26533,0.172 -0.25467,0.13066 -0.25067,0.0933 -1.52533,0.54666 -0.308,0.12 -0.25467,0.10934 -0.172,0.084 -0.21866,0.124 -0.25067,0.172 -0.30133,0.256 -0.40134,-1.016 -2.70266,-0.31734 -0.152,0.53067 -1.052,1.432 0.21866,1.604 0.98534,1.16667 1.58266,0.78133 3.11467,0.33867 9.552,1.412 7.31867,1.896 10.864,5.19733 3.38533,1.55733 0.932,1.99467 -0.43733,2.52667 -1.47334,5.49466 -1.912,4.52134 -2.13066,3.30133 -2.072,1.21867 -8.032,0.82266 -6.66134,0.344 -3.92666,0.584 -3.44267,1.552 -1.85467,3.40534 -2.296,6.36533 2.75467,5.12 0.94267,-0.57333 0.85866,-0.38534 0.532,-0.5 0.16134,-0.28133 0.40133,-0.69333 1.896,-3.9 0.41067,-0.51067 0.516,-0.30267 0.64,-0.172 0.876,-0.12933 1.98933,-0.292 0.69733,-0.13067 0.50534,-0.14 0.35466,-0.15066 0.34934,-0.21467 0.224,-0.20267 0.16666,-0.26 0.0933,-0.22933 0.59866,-2.032 0.10934,-0.364 0.56266,-1.828 0.13067,-0.24 0.104,-0.156 0.16133,-0.17733 0.26534,-0.25467 0.36533,-0.28133 0.23867,-0.16667 0.69866,-0.39067 1.18667,-0.64533 0.45867,-0.22933 0.5,-0.21867 0.54133,-0.152 0.57867,-0.0933 0.588,0.005 0.70933,0.0773 0.57733,0.0573 2.47467,0.376 0.35867,0.0573 0.36,0.036 0.33333,0.0267 0.176,-0.0267 0.38133,-0.0627 0.35334,-0.0987 0.45866,-0.14134 1.13067,-0.39466 0.66133,-0.21867 0.35334,-0.10933 0.448,-0.0733 0.464,-0.068 0.48933,-0.036 0.45867,-0.005 0.63466,0.02 0.62534,0.0627 3.30266,0.32266 h 0.40534 l 0.308,-0.036 0.27066,-0.068 0.32267,-0.15066 0.59466,-0.328 0.39467,-0.26534 0.772,-0.51066 2.95733,-1.94267 3.412,-2.24533 1,-0.66134 0.812,-0.66133 0.672,-0.52533 0.224,-0.224 0.16134,-0.256 0.10933,-0.24934 0.052,-0.204 0.048,-0.776 0.0307,-0.296 -0.0213,-0.43333 -0.02,-0.224 -0.0213,-0.13467 6.01067,0.69734 5.35866,0.584 1.48,0.16133 3.17734,0.34933 6.64,0.776 0.54666,0.0467 0.48934,0.036 0.48533,0.0107 0.328,-0.0107 0.416,-0.0307 0.256,-0.032 0.54133,-0.104 0.30267,-0.072 0.47867,-0.136 0.34933,-0.11466 1.71867,-0.60934 0.32266,-0.084 0.20267,-0.0413 0.29733,-0.0413 0.484,-0.0307 0.532,-0.0213 0.82267,-0.0107 0.32267,-0.02 0.33333,-0.0373 0.28133,-0.052 0.30134,-0.0987 0.31333,-0.10933 0.26,-0.0933 1.47867,-0.59466 0.26133,-0.072 0.18667,-0.0267 0.276,-0.0213 0.28133,0.0107 1.45333,0.14667 1.45867,0.14533 z"
     style="display:inline;fill:#000000;fill-opacity:1;fill-rule:evenodd;stroke:none;stroke-width:1.33333"
     id="varzea" />
  <path
     d="m 354.7078,357.15104 7.26133,-6.14133 0.77067,-0.19734 1.604,-0.40666 24.34933,-6.97334 0.84933,6.552 0.30667,-0.0947 0.58267,-0.0933 0.532,-0.052 2.964,-0.22933 1.30133,0.005 0.41733,0.016 0.47867,0.0573 0.58267,0.13466 0.40133,0.10934 0.85467,0.272 0.82266,0.24933 0.656,0.20267 0.48934,0.13066 0.344,0.0733 0.40666,0.088 0.396,0.068 0.26534,0.0307 0.28133,0.0213 0.64533,0.0213 1.292,-0.032 -0.98933,-3.68667 -0.584,-2.02133 -0.864,-2.55733 -0.724,-1.896 -0.90133,-2.28134 -0.93734,-2.18666 -1.04666,-2.204 -0.95867,-1.93734 -1.11467,-2.02533 -0.97866,-1.776 -1.33867,-2.308 -1.80667,-2.724 -1.62,-2.31733 -4.584,-6.07867 -15.864,-21.18266 -1.19333,-1.63467 -1.15067,-1.62533 -1.03066,-1.536 -0.95334,-1.52134 -1.08933,-1.95866 -0.71867,-1.36934 -0.828,-1.672 -0.54133,-1.28666 -0.78133,-1.95334 -0.62,-1.708 -0.57334,-1.932 -0.432,-1.828 -0.432,-1.94266 -0.23466,-1.34934 -0.15067,-1.24933 -0.16133,-1.40133 -0.14134,-1.38534 -0.072,-1.00533 -1.52133,-0.16667 -1.45867,-0.14133 -1.45333,-0.15067 -0.28133,-0.005 -0.276,0.016 -0.18667,0.0267 -0.26133,0.072 -1.47867,0.59466 -0.26,0.0987 -0.31333,0.104 -0.30134,0.0987 -0.28133,0.0573 -0.33333,0.032 -0.32267,0.02 -0.82267,0.0107 -0.532,0.0213 -0.484,0.0307 -0.29733,0.0413 -0.20267,0.0413 -0.32266,0.0893 -1.71867,0.604 -0.34933,0.11466 -0.47867,0.136 -0.30267,0.0773 -0.54133,0.0987 -0.256,0.032 -0.416,0.036 -0.328,0.0107 -0.48533,-0.0107 -0.48934,-0.036 -0.54666,-0.052 -6.64,-0.77066 -3.17734,-0.35467 -1.48,-0.16133 -5.35866,-0.584 -6.01067,-0.69734 0.0213,0.13467 0.02,0.224 0.0213,0.43333 -0.0307,0.296 -0.048,0.78134 -0.052,0.19866 -0.10933,0.25467 -0.16134,0.25067 -0.224,0.228 -0.672,0.52133 -0.812,0.66133 -1,0.66134 -3.412,2.24533 -2.95733,1.948 -0.772,0.50533 -0.39467,0.27067 -0.59466,0.32267 -0.32267,0.156 -0.27066,0.0627 -0.308,0.036 h -0.40534 l -3.30266,-0.31733 -0.62534,-0.068 -0.63466,-0.02 -0.45867,0.0107 -0.48933,0.036 -0.464,0.0627 -0.448,0.0733 -0.35334,0.10933 -0.66133,0.21867 -1.13067,0.39466 -0.45866,0.14134 -0.35334,0.0987 -0.38133,0.068 -0.176,0.0213 -0.33333,-0.0213 -0.36,-0.036 -0.35867,-0.0573 -2.47467,-0.376 -0.57733,-0.0627 -0.70933,-0.0773 -0.588,-0.005 -0.57867,0.0933 -0.54133,0.152 -0.5,0.224 -0.45867,0.224 -1.18667,0.64533 -0.69866,0.39067 -0.23867,0.16667 -0.36533,0.28133 -0.26534,0.25467 -0.16133,0.17733 -0.104,0.156 -0.13067,0.24 -0.56266,1.828 -0.10934,0.364 -0.59866,2.03733 -0.0933,0.224 -0.16666,0.26534 -0.224,0.20266 -0.34934,0.21334 -0.35466,0.152 -0.50534,0.14 -0.69733,0.12533 -1.98933,0.29733 -0.876,0.12934 -0.64,0.16666 -0.516,0.308 -0.41067,0.51067 -1.896,3.9 -0.40133,0.688 -0.16134,0.28133 -0.532,0.5 -0.85866,0.39067 -0.94267,0.568 1.58267,1.75467 2.13066,0.82266 h 1.75067 l 3.21867,-1.02 4.74933,-2.52666 4.42267,-1.896 5.572,-0.33867 10.26533,0.776 17.308,3.6 h 7.916 l 7.048,-1.896 3.984,0.38533 1.25466,2.67734 -0.87466,3.44666 -2.89067,2.04267 -8.464,6.76 -2.56667,3.83867 1.09334,2.81733 4.09333,1.652 5.07867,-1.94267 3.276,0.536 3.44266,1.79734 1.692,3.49866 2.52667,10.49067 4.85867,28.44266 z"
     style="display:inline;fill:#000000;fill-opacity:1;fill-rule:evenodd;stroke:none;stroke-width:1.33333"
     id="tabuleiro_dos_oliveiras" />
  <path
     d="m 401.02113,418.16704 2.68667,2.64533 2.256,-46.964 0.0307,-1.97333 -0.0307,-1.656 -0.068,-1.62533 -0.0827,-1.86934 -0.136,-2.188 0.532,-0.0213 0.21867,-0.0933 0.45733,-0.26534 0.31333,-0.35466 0.124,-0.312 0.10934,-0.39067 -0.009,-0.54667 -0.0107,-0.344 4.74933,-3.17733 3.824,-2.74 -0.98533,-1.828 -5.41067,-10.28667 -10.876,-24.70799 -0.932,-0.28667 -1.25467,-0.52533 -0.724,-0.35467 -0.76533,-0.51067 -0.61467,-1.15066 -1.22933,-1.18267 -0.38,-0.29067 -0.448,-0.12 -0.18267,-0.0467 -0.61466,-0.16267 -0.48934,-0.244 -0.28133,-0.0627 -0.36,0.0307 -0.52,0.0733 -0.29733,0.18267 -0.344,0.22933 -0.0987,0.25467 -0.16133,0.24533 -0.328,0.0573 -0.43734,-0.276 -0.54666,-0.49067 -2.58934,0.12533 4.584,6.07867 1.62,2.31733 1.80667,2.724 1.33333,2.308 0.984,1.776 1.11467,2.02 0.95867,1.94267 1.04666,2.204 0.932,2.18666 0.90134,2.28134 0.72933,1.896 0.864,2.55733 0.584,2.02133 0.98933,3.68667 -1.292,0.032 -0.64533,-0.0213 -0.28133,-0.0213 -0.26534,-0.0307 -0.396,-0.068 -0.40666,-0.088 -0.344,-0.0787 -0.48934,-0.12533 -0.66133,-0.20267 -0.81733,-0.24933 -0.85467,-0.272 -0.40133,-0.10934 -0.58267,-0.13466 -0.47867,-0.0573 -0.41733,-0.016 -1.30133,-0.005 -2.964,0.22933 -0.536,0.052 -0.57867,0.0933 -0.30667,0.0947 -0.84933,-6.552 -24.34933,6.97334 -1.604,0.40666 -0.77067,0.19734 -7.26133,6.14133 -11.04134,3.016 -16.17733,0.84267 -12.47333,4.40133 3.57866,13.12 0.38534,0.80667 0.54133,0.66666 0.41067,0.32934 0.16666,0.36933 -0.124,0.69733 -0.084,0.44267 0.16667,0.62533 0.328,0.44267 0.74533,0.62533 0.344,0.32267 0.23867,0.48933 0.16267,0.84934 0.24933,0.44266 0.084,0.40134 v 0.88533 l -0.25067,1.43733 -2.31733,14.844 -0.412,3.01467 v 0.63067 l 0.084,0.808 0.124,0.624 0.24533,0.92266 0.33334,0.92134 0.89066,2.584 3.39067,9.09333 0.17733,0.47867 2.916,7.75066 2.48,7.03067 0.192,0.552 1.276,3.61467 0.65067,1.26666 0.30267,0.73867 0.52133,0.344 0.68133,0.74 0.224,0.18667 0.24534,0.14133 0.64,0.64533 0.256,0.28134 3.76,3.14666 0.64133,0.46267 0.604,0.516 7.052,5.57733 0.124,0.10533 0.136,-0.14133 0.864,-0.59333 5.80267,-3.896 4.19333,-2.81733 7.71333,-5.31867 0.344,-0.37467 4.85867,-3.35466 6.86,-4.728 7.73333,-5.328 7.1,-4.896 z"
     style="display:inline;fill:#000000;fill-opacity:1;fill-rule:evenodd;stroke:none;stroke-width:1.33333"
     id="morretes" />
  <path
     d="m 365.75046,442.61904 -7.71333,5.324 -4.19333,2.812 -5.79734,3.896 -0.86933,0.59333 -0.136,0.14133 0.308,0.244 4.708,3.87467 16.26533,13.41733 1.07867,0.44267 0.90667,0.156 2.80666,-0.21333 2.48934,-0.14 1.42266,-3.75067 0.328,-0.916 0.65067,-1.64133 2.70267,-2.636 2.00533,-1.58267 1.14667,-0.85467 2.292,-1.572 2.54666,-1.19866 2.70267,-0.80134 5.02667,-0.96933 1.052,0.0573 2.09333,0.12 2.468,-0.0467 1.66667,-36.56267 -2.68667,-2.64533 -8.36933,5.77067 -7.10534,4.896 -7.73333,5.328 -6.85467,4.728 -4.864,3.35466 z"
     style="display:inline;fill:#000000;fill-opacity:1;fill-rule:evenodd;stroke:none;stroke-width:1.33333"
     id="jardim_praiamar" />
  <path
     d="m 450.25046,237.72438 3.036,-5.376 0.10933,-2.42134 5.00534,-7.08933 5.16666,-3.848 1.23467,-1.90133 0.932,-0.42667 1.088,0.15067 1.068,0.52533 2.24533,3.292 0.93734,0.79733 0.692,0.85867 1.496,0.59467 1.03066,-0.204 1.57334,0.20933 1.344,-1.16667 0.35333,-1.14133 0.39067,-1.708 -0.93734,-0.98933 -0.42133,-1.09467 -2.33867,-0.64 -1.10933,-4.89067 -0.76133,-4.812 0.104,-5.756 0.34933,-4.00533 2.484,-3.552 4.58933,-2.74933 2.484,-1.86 2.776,-2.14533 1.464,-1.94267 0.67734,-1.95867 1.176,-1.40666 2.032,-3.572 0.32266,-0.57334 0.54134,-0.964 1.152,-0.724 2.02,-0.348 1.62533,0.296 -0.0267,0.67734 -0.728,1.47466 0.468,0.328 0.33867,-0.16666 0.36933,-1.06267 0.50534,-0.74533 0.76133,-0.57734 1.77067,0.27067 0.31733,0.29067 0.516,0.48 0.172,2.05733 -0.64667,0.90133 -1.42666,0.44667 -1.516,0.0267 -1.34934,-0.42134 -0.35866,0.312 0.416,0.484 2.16666,0.136 2.376,-0.30266 0.59867,0.24 0.64,-0.0467 v -1.36 l 0.25067,-0.96267 1.604,-0.38133 1.604,0.11467 4.48933,-2.09867 1.068,-2.84933 2.35467,-3.17067 0.77066,-0.88533 0.76534,-0.27734 -0.14,-0.79066 -1.224,0.47333 -3.76134,-2 -3.14533,0.95333 -1.55733,2.172 -0.76534,1.68267 -0.984,0.83867 -1.464,0.20266 -0.76,1.07334 -1.03733,0.57733 -4.32267,-1.28667 -2.896,-1.80133 -1.71333,-1.948 -1.568,-1.724 -3.35333,-4.82267 -3.1,-5.19866 -2.12934,-6.13467 -1.084,-4.92267 -0.64533,-3.17733 -0.43733,-1.556 -0.31867,-2.05333 -0.312,-1.98934 -0.45333,-2.92666 -0.536,-2.64134 0.26,-3.69733 0.87466,-0.83867 0.48,-1.08266 0.43734,-3.33334 -0.12,-2.12533 -0.0413,-1.28667 -0.50533,-1.66133 0.0413,-2.69333 0.484,-3.64 1.292,-0.54134 0.92267,-0.0467 3.33867,0.75466 1.16533,0.0107 0.55333,-0.10933 0.656,-0.776 0.38,-0.64667 -0.0413,-0.76533 v -0.776 l 0.50533,-0.72934 0.46267,-0.85866 0.15067,-0.90667 -0.20267,-0.656 -0.54133,-0.86533 -0.88534,-0.36934 -1.28133,0.604 -1.01067,-0.13466 -0.864,-1.28134 0.536,-10.109329 0.38,-7.537333 1.85467,-5.265334 3.06267,-3.625333 1.33866,-0.172 1.51467,-0.218667 2.04267,-0.249333 6.124,1.541333 5.11466,0.354667 4.04667,-1.964 -17.072,-12.136 -5.912,-2.796 -6.724,-1.646666 -5.52133,-0.390667 -6.03067,-0.369333 -1.948,-0.582667 -2.932,-1.428 -1.71867,-0.838666 -16.45866,-7.869334 -23.74933,-0.937333 -9.31867,0.932 -6.276,3.218667 -4.37467,3.98 -3.328,5.333333 -1.42133,6.181333 0.18667,5.922667 1.90133,5.677333 4.66133,5.5 4.36934,2.708 11.12533,4.062666 15.02133,4.744 4.724,2.428 2.56267,3.218666 0.604,2.312 -0.85467,8.12533 -2.76,14.81734 -3.136,6.59866 -16.02533,25.72934 v 6.59866 l 1.42667,6.18267 2.75466,3.13067 11.00534,14.87466 5.876,7.17733 3.13999,6.348 2.37467,8.04267 z"
     style="fill:#000000;fill-opacity:1;fill-rule:evenodd;stroke:none;stroke-width:1.33333"
     id="ilhota" />
  <path
     d="m 243.71313,515.99504 2.43867,2.572 h 0.21867 l 2.61866,-1.348 0.34934,0.0667 0.63066,0.57867 0.73467,0.0987 0.44267,0.31733 2.16666,2.38133 2.728,3.192 9.272,10.71334 0.588,0.52666 1.088,-0.0733 3.66667,-0.484 0.74,0.0573 1.14667,0.33867 0.776,-1.66133 2.33733,-3.66134 1.06267,-1.516 1.04266,-1.00533 2.088,-1.38533 0.24,-0.0893 1.364,-0.34266 2.052,-0.27067 15.52667,-2.17733 1.06267,-0.14667 0.9,-0.37467 0.97466,-0.47333 0.73467,-0.65733 0.76533,-1.02534 0.48934,-1.86533 1.516,-6.44667 0.81733,-1.776 1.584,-1.79733 3.47333,-2.38 1.66133,-1.48533 1.896,-0.692 1.12,-0.12 1.28134,0.33866 3.4,0.56267 3.45333,0.34933 3.412,0.13467 3.44267,0.412 1.38,-0.24 1.23466,-0.312 0.0987,-0.032 0.24,-0.072 0.83333,-0.26667 1.70267,-0.54666 0.464,-0.35467 0.364,-0.052 0.28133,-0.36933 9.29734,-4.37467 3.68666,-1.89067 3.63067,-1.62 2.11467,-0.86933 4.83333,-2.46933 5.06267,-2.23467 2.812,-1.41067 1.81866,-1.94266 1.92134,-5.24 2.812,-7.916 -2.48934,0.14 -2.80666,0.21333 -0.90667,-0.16133 -1.07867,-0.43734 -16.26533,-13.41733 -4.708,-3.88 -0.308,-0.23867 -0.11867,-0.10533 -7.05733,-5.57733 -0.604,-0.516 -0.64133,-0.46267 -3.75467,-3.14666 -0.26133,-0.28134 -0.64,-0.64533 -0.24534,-0.14133 -0.224,-0.18667 -0.68133,-0.74 -0.52133,-0.344 -0.30267,-0.73867 -0.65067,-1.26666 -1.276,-3.61467 -0.192,-0.552 -2.48,-7.03067 -2.916,-7.75066 -0.17733,-0.47867 -3.39067,-9.09333 -0.89066,-2.584 -0.33334,-0.92134 -0.24533,-0.91733 -0.124,-0.62933 -0.084,-0.808 v -0.63067 l 0.41733,-3.01467 2.312,-14.844 0.25067,-1.43733 v -0.88533 l -0.084,-0.40134 -0.24533,-0.44266 -0.16667,-0.84934 -0.23867,-0.48933 -0.33866,-0.32267 -0.74534,-0.62533 -0.33333,-0.44267 -0.16667,-0.62533 0.084,-0.44267 0.124,-0.69733 -0.16666,-0.36933 -0.41067,-0.32934 -0.54133,-0.66666 -0.38534,-0.80667 -3.57866,-13.12 -36.47867,13.80267 -31.152,5.828 -0.52,0.0987 -43.464,49.5 -15.51066,31.55733 -30.23867,16.87467 -10.16666,5.672 -23.152,20.79733 -9.71867,7.57734 -1.16667,1.66133 0.42267,0.24533 0.27067,0.33334 0.66666,1.28133 0.68667,0.42133 0.42267,0.10534 0.416,-0.0267 0.45866,-0.156 1.948,-1.27067 0.68267,-0.276 1.09867,-0.0893 1.78133,-0.005 3.48933,0.25066 0.62534,-0.0933 0.32266,-0.14667 0.21867,-0.24 0.57333,-1.208 0.56667,-0.64533 0.86,-0.448 0.69733,-0.084 0.428,0.0893 0.70267,0.28134 2.84933,1.448 1.58267,0.656 1.428,0.464 1.38,0.22266 h 3.96267 l 1.07866,0.19867 1.052,0.312 0.87467,0.37067 1.052,0.68666 0.91733,0.88534 1.09867,1.224 0.844,0.724 0.47867,0.152 0.808,0.088 h 2.02533 l 0.464,0.20266 0.30667,0.50534 0.0107,0.31333 -0.20266,0.828 -0.29734,0.70267 -0.708,0.88 -0.912,0.85466 -2.156,2.328 -0.072,0.17734 -0.17733,0.35333 -0.136,0.55733 0.16667,0.60934 1.40666,0.5 1.59867,0.43333 1.21867,0.5 1.54666,0.009 0.95867,0.48 0.54133,0.036 1.59867,-0.67733 0.76133,-0.0773 1.01067,0.15066 1.00933,-0.34933 2.44267,-0.64533 1.48533,-0.104 3.55734,0.432 4.55733,0.26533 0.572,0.0373 1.532,-0.12533 2.38,-0.0413 0.94266,-0.0893 0.46934,-0.14 1.728,-1.1 0.996,-0.28533 3.35333,-0.71467 0.42667,-0.224 0.69866,-0.56133 0.41067,-0.36533 0.24,-0.37467 0.328,-1.30267 1.16667,-1.95733 0.44266,-0.94267 1.48,-1.87066 0.73867,-1.15067 0.0787,-0.12533 0.672,-0.416 2.83866,-0.792 2.96267,-1.13067 2.08933,-0.59867 3.38534,-1.25466 2.156,-0.516 2.56266,-0.932 2.40134,-0.70934 2.396,-0.864 3.07733,-0.86933 2.136,-0.69333 1.672,-0.64534 1.036,-0.28133 11.844,-4.256 2.812,-1.38533 0.69867,-0.172 0.56266,0.40666 7.61867,7.99467 z"
     style="display:inline;fill:#000000;fill-opacity:1;fill-rule:evenodd;stroke:none;stroke-width:1.33333"
     id="sertao_do_trombudo" />
</svg>
