<?xml version="1.0" encoding="UTF-8" standalone="no"?>
<svg version="1.1" id="svg2" width="1000" height="1013.9861" viewBox="0 0 1000 1013.9861"
   xmlns="http://www.w3.org/2000/svg" xmlns:svg="http://www.w3.org/2000/svg">
   <defs id="defs6" />
   <path class="neighborhood"
      d="m 756.38868,0 -35.83416,72.038418 -26.16683,60.409542 12.83174,38.50266 16.09613,48.2921 -67.50827,19.28278 -9.65251,5.88477 -212.1662,129.1429 -27.55479,-9.18619 -117.10684,-39.0356 -86.80214,125.37514 -77.14969,48.22177 28.9353,135.01654 77.15337,19.28648 48.22175,96.44357 L 28.927885,865.40864 0,923.2718 l 35.89707,26.70724 2.879443,0.30717 1.176984,0.18874 2.979365,0.86606 11.044125,3.72331 3.771425,1.6396 2.594496,0.7069 1.125119,0.1408 3.375433,-0.31461 1.628479,0.14421 1.036321,0.6218 2.516746,2.16513 2.387225,0.65881 3.131133,0.33679 1.380523,0.48486 0.847543,0.54776 1.213974,1.26577 1.006703,2.82396 0.562559,1.00672 0.492256,0.46262 1.147347,0.51444 4.55975,0.55888 1.254697,0.57369 0.629168,0.62178 1.095519,2.42792 0.743946,1.17695 0.666195,0.55886 1.08811,0.15918 0.721737,-0.137 1.706211,-0.9697 1.787638,-1.52856 1.695107,-1.05481 1.976393,-1.74694 2.94979,-2.06153 1.44343,-0.78833 2.15775,-0.74023 3.13854,-0.41451 4.85586,0.0171 2.74622,0.13701 2.94979,0.37751 1.58776,0.64031 0.6144,0.49224 0.54037,0.61067 0.33679,0.71061 0.84016,2.73513 0.78834,1.16586 0.79202,0.49964 0.97341,0.34792 3.51604,0.47374 4.9854,0.009 2.62409,0.2183 5.28888,1.32128 4.85588,1.57669 1.78392,0.0813 2.42793,-0.7624 1.55446,-0.2183 1.6174,0.12961 4.24147,1.66181 2.02451,0.3923 2.45013,0.0999 1.9912,-0.34791 3.06083,-0.94749 2.84984,0.82907 5.45173,1.97268 1.13253,0.0407 3.66044,-0.90676 0.15918,0.52186 0.6625,0.95859 3.48274,3.21625 4.73741,5.04464 2.01341,1.4101 3.03121,0.84015 1.45823,0.0779 1.94682,-0.26278 2.54636,-0.69212 2.83133,-0.96969 2.39833,-1.13253 5.2593,-3.55306 1.26576,-0.45523 0.83646,0.0887 0.80315,0.45525 -0.80315,-0.46633 2.21325,-3.14965 18.41675,-14.35661 43.86925,-39.40944 19.26799,-10.74804 57.3006,-31.9776 29.39051,-59.80255 82.36456,-93.80096 0.9845,-0.18495 59.03271,-11.04411 69.12565,-26.15574 23.6353,-8.34232 30.6563,-1.59518 20.92241,-5.71449 -9.20468,-53.88818 -4.78925,-19.87868 -3.20515,-6.63239 -6.52506,-3.40501 -6.20678,-1.01411 -9.62288,3.67891 -7.75751,-3.12746 -2.07263,-5.3407 4.86325,-7.27269 16.04061,-12.80953 5.47766,-3.87137 1.65809,-6.53247 -2.37981,-5.07421 -7.55026,-0.72911 -13.35362,3.59377 h -15.00059 l -32.79926,-6.82484 -19.45305,-1.46934 -10.55926,0.64398 -8.37931,3.59008 -9.0011,4.78925 -6.09943,1.93198 h -3.3162 l -4.03791,-1.55816 -2.9979,-3.32361 -5.22229,-9.7043 4.35252,-12.06193 3.51606,-6.45105 6.52136,-2.94237 7.44295,-1.10665 12.62076,-0.65137 15.2227,-1.55818 3.92315,-2.30951 4.03794,-6.25857 3.62339,-8.56807 2.79432,-10.41124 0.82905,-4.78553 -1.76915,-3.78253 -6.41401,-2.94979 -20.58558,-9.84866 -13.86807,-3.59377 -18.10212,-2.67589 -5.90329,-0.64031 -2.99789,-1.48044 -1.86907,-2.21327 -0.41452,-3.0386 1.99491,-2.71292 0.28868,-1.0067 -0.29609,1.0067 -1.92459,-7.51326 -2.38721,-8.44594 -1.50265,-6.56207 -0.26649,-3.83064 1.15476,-5.83298 1.49896,-4.25255 1.09921,-3.71223 0.13322,-2.30947 -0.36274,-2.54637 0.22943,-0.19986 3.67891,-3.16445 -3.67891,3.15706 -0.22943,0.19984 -2.73141,-7.65389 -1.64328,-8.38674 0.41451,-5.46653 1.36201,-5.47024 3.69373,-8.024 5.04092,-6.56207 5.60716,-4.9854 6.68421,-3.76775 9.82644,-1.70988 h 16.80305 l 13.10195,-0.59961 9.55627,-1.94678 15.29668,-5.34809 21.16294,-12.39503 17.06213,-9.73393 12.70592,-3.88616 12.55047,-3.0423 9.01221,-3.52347 5.47025,-3.88616 1.57665,-5.49986 -1.57665,-10.87387 0.718,-6.09943 2.33911,-7.54284 6.48436,-7.21347 7.20605,-5.3 11.17365,-3.20519 16.56989,-1.92826 11.89165,0.16657 9.90789,0.80312 11.17364,2.87948 16.56989,7.05802 20.17475,11.71402 13.33511,10.10771 2.16144,3.04974 30.36761,-48.75475 5.94399,-12.50605 5.22968,-28.07664 1.61738,-15.40032 -1.14364,-4.37842 -4.85586,-6.09943 -8.953,-4.60047 -28.46524,-8.99 -21.08153,-7.69831 -8.27937,-5.13346 -8.83457,-10.42232 -3.60118,-10.75913 -0.35529,-11.22178 2.6944,-11.71401 6.3067,-10.10773 8.29049,-7.53917 11.89167,-6.099431 17.65801,-1.769125 45.00549,1.776534 31.18928,14.911772 3.25697,1.59147 -3.25697,-1.59888 -31.18928,-14.911771 -9.08992,-6.998803 -45.272,-33.702307 z"
      id="zona_rural" />
   <path class="neighborhood"
      d="m 740.26292,405.88791 -27.96217,16.84753 -2.0036,1.26331 -1.81411,1.2532 -2.04405,1.53872 -1.37196,1.13698 -1.68779,1.51852 -1.45028,1.37195 -1.45027,1.50082 -1.55136,1.68777 -1.55893,1.91519 -1.06623,1.38206 -1.57915,2.32956 -1.32142,2.10972 -0.9677,1.76864 -0.89947,1.85454 -1.10414,2.53674 -0.88936,2.35986 -0.74031,2.16027 -5.55605,16.88796 -1.35174,4.12345 -0.85906,3.24925 -0.73019,3.10775 -0.52301,2.83233 -0.4826,2.97132 -0.37645,3.11786 -0.2552,2.78434 -0.0885,2.40788 -0.0606,4.23461 0.0606,2.50642 0.0985,2.31944 0.13643,1.90507 0.26784,2.62518 0.30572,2.65547 0.28551,2.36745 0.44467,2.55695 0.81863,3.68128 0.81863,3.46401 1.08646,3.66108 1.17488,3.2366 1.4806,3.70152 1.0258,2.43818 1.56903,3.16839 1.36186,2.59486 2.06425,3.7116 1.80655,2.88289 1.95307,2.91067 2.18048,3.06985 2.26132,3.10017 30.06179,40.14806 4.9143,-0.23749 1.02832,0.9298 0.82875,0.52301 0.62155,-0.10858 0.31581,-0.46489 0.1768,-0.48259 0.65187,-0.43458 0.56343,-0.34615 0.98539,-0.1389 0.68219,-0.0682 0.54323,0.12886 0.91716,0.46237 1.16476,0.30825 0.34616,0.0885 0.84894,0.2274 0.72009,0.55081 2.32955,2.24112 1.16478,2.18046 1.45027,0.96771 1.37196,0.67209 2.37756,0.99548 1.76611,0.54323 -0.81862,-3.61308 -13.8257,-30.38772 -4.76774,-16.45339 -3.23661,-14.87172 -3.1886,-19.46258 -1.09655,-6.26856 5.48783,-24.79125 7.15541,-14.14405 2.33964,-2.89299 2.04404,-2.51652 0.34362,-0.87673 5.82388,-10.50318 8.21153,-9.42431 9.39652,-6.80169 6.43532,-3.35534 5.83144,-2.466 -0.50279,-1.34164 -0.36637,-0.95758 -1.68777,-4.29527 0.0506,-0.14649 -0.54321,-1.66757 -0.53313,-1.77621 -0.66197,-2.04405 -0.47247,-1.24309 -0.57355,-0.82873 -0.62155,-0.69231 -1.26332,-1.14456 -1.53872,-1.46038 -2.20068,-2.49632 -1.92529,-2.30932 -1.2431,-1.65999 -0.82873,-1.29112 -0.30573,-0.58365 -0.26782,-0.66197 -0.1768,-0.67967 -0.0885,-0.75041 -0.16922,-5.23011 -0.0682,-2.09205 -0.10858,-2.84245 -0.0985,-2.13246 -0.0783,-1.73832 -0.0303,-0.62155 -0.0582,-0.64177 -0.2274,-2.39776 z"
      data-name="Centro" id="centro" />
   <path class="neighborhood"
      d="m 765.3801,393.86623 0.0303,0.62155 0.0783,1.73831 0.0985,2.13247 0.10859,2.84245 0.0682,2.09204 0.16922,5.24024 0.0885,0.74029 0.1768,0.67966 0.26782,0.66197 0.30573,0.58365 0.82873,1.29112 1.2431,1.66 1.92529,2.30932 2.20068,2.49632 1.53871,1.46037 1.26332,1.14457 0.62155,0.6923 0.57355,0.82873 0.47248,1.2431 0.66197,2.04405 0.52301,1.77621 0.55333,1.66757 -0.0506,0.14648 1.68778,4.29527 0.36637,0.95758 0.50279,1.34164 4.57067,-1.55133 8.49704,-2.10975 3.2265,-0.21727 5.46003,0.14648 4.72733,1.0258 2.47608,3.04207 1.91519,5.02292 1.27341,1.93287 -1.32395,2.25122 3.52464,4.48225 0.45479,7.00632 0.72009,1.52104 1.21278,1.10412 0.68219,0.87926 -0.1389,0.54323 -0.67209,0.31584 0.43459,1.15466 2.57716,1.4806 5.02292,0.35373 -0.5028,1.91519 0.33604,1.65745 1.83433,-1.69789 1.90509,-2.34722 6.56415,-1.34418 10.0863,0.90959 3.6813,-1.27342 1.86464,-2.9511 1.11677,-9.32576 -9.11101,-52.03333 -4.49993,-15.24061 -5.95018,-12.02926 -11.13484,-13.60082 -2.64538,1.63725 -1.84445,1.07634 -52.93027,30.5368 0.2274,2.39777 z"
      data-name="Canto da Praia" id="canto_da_praia" />
   <path class="neighborhood"
      d="m 1000,946.74487 -2.11227,-2.2032 -1.9935,-3.12797 -1.75601,-3.30483 -2.9511,-3.77225 -6.83956,-8.44651 -17.73439,-16.66056 -11.95347,-12.20866 -18.88147,-19.9275 -12.49415,-12.74177 -17.68639,-21.29943 -16.63025,-18.67177 -25.33447,-31.03959 -18.45699,-23.30306 -11.93325,-16.62015 -9.33589,-14.8035 -10.59918,-15.61454 -10.38443,-18.61364 -11.25106,-23.01756 -3.39326,-6.20792 -7.24636,5.19222 -8.99984,6.02094 0.0203,0.65187 0.0279,1.03592 -0.2173,0.74031 -0.23498,0.59123 -0.58365,0.67207 -0.87672,0.50281 -0.41438,0.1768 -1.00812,0.0404 0.25772,4.14619 0.15671,3.54234 0.12886,3.07995 0.0582,3.13807 -0.0582,3.7394 -4.27505,88.99532 -3.14819,69.28513 4.78796,0.21728 5.27054,1.18246 5.9502,-0.0171 6.26856,2.04151 4.18409,-0.0479 1.65747,-0.4548 2.92331,0.33604 1.73579,0.70999 1.58924,1.43007 2.80203,1.07635 4.45191,0.36635 1.99351,-0.38657 2.39778,0.7504 0.29813,3.46401 0.0582,0.39667 0.48257,1.35176 0.9576,0.62155 2.16279,-0.60135 1.58925,-3.41599 0.80851,-3.57266 1.27342,-1.83685 3.17851,-0.41437 1.13444,1.51093 0.50281,2.25123 0.16922,3.08753 -0.16922,2.10214 -1.03592,4.64901 -1.13446,1.73831 -0.38658,0.57101 -0.12639,0.26783 -0.78073,1.58924 -1.25322,2.79193 0.60135,3.28713 1.99351,0.84895 5.19221,1.04602 11.20304,1.66757 7.61778,-0.40425 2.1729,2.61505 0.97528,5.82387 -1.50839,3.7293 -1.78633,1.83687 -1.94551,3.00921 -1.69789,2.62516 -0.2375,3.26692 2.76414,1.00813 4.11587,-0.37648 3.15827,-0.88684 0.66199,-0.18704 3.44378,0.37394 2.12237,1.10414 1.61957,1.69789 1.0637,2.62516 -1.63725,2.02383 -2.36744,1.17488 -3.15071,0.14913 -10.32379,-1.86719 -4.37107,-0.0379 -3.50442,1.36186 -0.74029,0.28551 -5.24024,5.33876 -1.2532,2.231 -0.86916,3.21893 0.35625,4.16387 1.4604,2.94099 5.04314,6.357 2.52663,3.7293 1.58924,0.7504 2.2689,0.14914 1.59936,-2.01373 2.51652,-8.93161 2.81467,-3.36547 5.41707,-2.4281 10.44255,-2.0137 1.41996,-0.2274 3.03195,0.43457 2.50641,1.15466 3.55245,1.78633 1.94549,0.39416 1.91266,-0.48259 7.3449,-4.74753 4.00722,0.0582 2.72371,1.02832 -0.0885,2.33714 -1.61958,2.4483 -0.7605,2.64538 1.82675,2.92077 3.19618,0.48511 2.81466,-1.27341 2.85255,-3.13807 5.66471,-3.39579 5.62427,-2.09204 5.17199,0.52301 5.34129,1.35174 10.35158,6.1397 1.59935,1.9834 2.80203,5.27054 3.82026,6.72083 2.81213,2.97889 1.81665,0.41689 3.75962,0.20718 17.32254,-2.4584 7.03664,-1.64736 13.02729,-5.97294 5.06336,-2.00362 2.25122,-0.87673 3.63076,-1.65999 z"
      data-name="Meia Praia" id="meia_praia" />
   <path class="neighborhood"
      d="m 699.82682,342.46709 3.63076,1.26332 1.36184,0.41435 6.04116,1.68779 1.12436,0.38406 0.81862,0.33603 1.01823,0.41438 0.82872,0.37393 0.91717,0.43457 1.00812,0.58365 0.90707,0.58113 0.76051,0.53312 0.7504,0.57355 1.29112,1.0637 0.40678,0.33605 0.90706,0.83883 4.41149,4.38369 1.57913,1.58925 0.86917,0.83885 0.70999,0.64933 0.46489,0.36637 0.72009,0.48257 0.83884,0.4548 1.61704,0.79842 0.83884,0.42448 6.22812,3.39578 20.11447,10.92512 2.6656,1.15466 0.49269,0.36638 0.18703,0.30571 0.24762,1.69789 0.24761,1.65748 0.5129,3.464 0.42447,2.89297 0.1389,1.16478 0.18703,1.52862 52.93028,-30.5368 1.84445,-1.07634 2.64537,-1.63726 -20.85477,-28.18702 -5.22,-5.93252 -2.7035,-11.71597 v -12.50425 l -2.16278,-3.04965 -13.333,-10.1065 -20.17511,-11.71596 -16.56961,-7.05687 -11.17274,-2.88035 -9.90941,-0.80093 -11.89283,-0.16676 -16.56961,1.92529 -11.17274,3.20629 -7.20594,5.30085 -6.48331,7.21352 -2.33966,7.54198 -0.72009,6.09926 1.57913,10.8746 5.1518,0.57355 2.29922,-0.33605 2.26892,-0.65945 9.67445,-5.09368 10.50064,-5.29075 1.51852,-0.87926 2.43818,-0.0783 1.70801,0.39416 1.59935,0.73272 2.45588,2.23859 1.06623,1.53113 0.26783,1.57914 0.47248,3.4539 -0.11882,5.97042 -0.56091,2.03393 -0.28804,1.1951 0.0606,1.17234 1.05615,2.15269 0.24759,0.9677 0.10612,1.03592 -0.2653,4.89406 -0.27539,4.0982 -0.2274,1.58671 -0.26781,0.9778 -0.32594,0.68219 -0.32341,0.59123 -0.49521,0.82875 -0.61145,0.80851 -1.33154,1.32395 -0.93737,0.82873 -1.96572,1.48062 -0.46238,0.36635 -0.50531,0.49269 -0.39415,0.50279 -0.2653,0.50282 -0.1389,0.48511 -0.0682,0.43457 0.0171,0.50279 0.11881,0.60135 0.2173,0.68977 0.33603,0.76051 0.47501,0.71251 z"
      data-name="Sertãozinho" id="sertaozinho" />
   <path class="neighborhood"
      d="m 607.29927,388.55778 1.4705,-0.32594 1.0738,-0.33603 1.22542,-0.4826 2.19059,-1.05612 3.69139,-1.73831 2.32955,-1.30374 1.30122,-0.74789 1.47049,-0.83884 0.74031,-0.42448 0.96768,-0.43457 0.48512,-0.26781 0.67966,-0.2451 0.62155,-0.17945 0.61145,-0.13644 0.88937,-0.17945 2.62516,-0.4447 1.29364,-0.20717 3.19618,-0.45228 1.54124,-0.15917 0.90706,-0.13644 0.58365,-0.16922 0.74029,-0.28552 2.81214,-1.29362 1.07634,-0.43459 0.83884,-0.1768 1.10415,-0.14913 5.46761,0.0809 2.13246,-0.0985 1.26332,-0.0203 0.91717,0.14648 0.88936,0.22739 1.03592,0.42448 1.7459,0.82872 2.97131,1.23552 2.39778,0.87675 8.81539,3.58274 2.93088,1.15468 1.09404,0.39668 2.03392,0.80852 1.04603,0.41436 0.81104,0.40427 1.14456,0.63165 0.63165,0.39415 1.15468,0.74031 0.68977,0.50279 0.63165,0.50533 0.52301,0.46238 0.36636,0.38657 0.29561,0.40425 0.2653,0.51291 0.19708,0.5129 0.0606,0.64177 -0.0404,0.58113 -0.29561,3.14058 0.0203,0.59123 0.10859,0.55334 0.19707,0.55081 0.36636,0.51543 0.37395,0.29561 0.32593,0.18704 0.75041,0.36637 1.08392,0.34361 1.57156,0.38658 9.6896,2.37756 2.70602,0.69987 4.17399,1.08644 1.78633,0.41437 1.2153,0.24762 0.77821,0.15671 0.78072,0.0606 0.82873,-0.0203 0.33603,-0.0506 0.64177,-0.0682 0.32594,-0.0506 3.37304,-0.5129 1.34416,-0.14648 1.37196,-0.15918 1.85455,-0.1768 1.72821,-0.11881 1.16478,-0.0783 1.0258,-0.0985 0.82873,-0.0203 1.56903,0.0203 1.11425,0.0682 2.34976,0.1389 1.16478,0.16676 1.47049,0.23751 1.05613,0.19708 0.79084,0.15918 0.96517,0.26529 0.87926,0.31582 3.20881,1.14456 24.83168,-15.0511 -0.17946,-1.52861 -0.13644,-1.16478 -0.43459,-2.89297 -0.51289,-3.46401 -0.24762,-1.65747 -0.24761,-1.69789 -0.18704,-0.30572 -0.49269,-0.36637 -2.66559,-1.15466 -20.11447,-10.92512 -6.22812,-3.39579 -0.83885,-0.42447 -1.61703,-0.79843 -0.82875,-0.46489 -0.73019,-0.47247 -0.46489,-0.36638 -0.70999,-0.64933 -0.86916,-0.83884 -1.57914,-1.58926 -4.40138,-4.38368 -0.91717,-0.83883 -0.40677,-0.33605 -1.29112,-1.06371 -0.75041,-0.57355 -0.76051,-0.53311 -0.90706,-0.58113 -1.00813,-0.58365 -0.91716,-0.44467 -0.82873,-0.36384 -1.01822,-0.42447 -0.81863,-0.32594 -1.12436,-0.38405 -6.04116,-1.68779 -1.36184,-0.41435 -3.62066,-1.26332 -0.47501,-0.72261 -0.33603,-0.75799 -0.2173,-0.68219 -0.11882,-0.60135 -0.0171,-0.51289 0.0682,-0.42447 0.1389,-0.48512 0.2653,-0.50281 0.39415,-0.50279 0.50531,-0.49269 0.46237,-0.36635 1.96573,-1.48062 0.93737,-0.82873 1.33153,-1.32395 0.61145,-0.80851 0.49522,-0.82875 0.32341,-0.59123 0.32594,-0.68219 0.26781,-0.9778 0.2274,-1.58672 0.27539,-4.09819 0.2653,-4.89406 -0.10612,-1.03592 -0.2476,-0.9677 -1.05614,-2.15269 -0.0606,-1.17234 0.28804,-1.1951 0.56091,-2.03393 0.11881,-5.98052 -0.47247,-3.4438 -0.26783,-1.57914 -1.06623,-1.53113 -2.45588,-2.23859 -1.59935,-0.73272 -1.69789,-0.39416 -2.4483,0.0783 -1.51852,0.87927 -10.50065,5.29075 -9.67444,5.09368 -2.26892,0.65945 -2.29922,0.33605 -5.1518,-0.57355 -1.57913,5.49793 -5.46761,3.88848 -9.01247,3.52464 -12.55228,3.03953 -12.70387,3.88848 -17.06484,9.73256 -21.16047,12.39564 -15.29619,5.34885 -9.55571,1.94551 -13.1056,0.60133 H 531.3114 l -9.82858,1.70799 -6.68291,3.76974 -5.60659,4.9825 -5.04313,6.56417 -3.6914,8.02457 -1.36186,5.46761 -0.41437,5.46761 1.63979,8.3884 2.7338,7.65061 0.22739,-0.19707 3.6914,-3.16839 0.90707,-0.61397 1.0258,-0.52301 0.70999,-0.30572 0.95758,-0.27539 1.03845,-0.16676 0.68976,-0.101 1.07635,0.009 0.91716,-0.0783 0.80853,-0.15671 0.79083,-0.27794 1.21278,-0.65187 2.2108,-1.281 0.80095,-0.45479 4.19419,-2.03393 1.39217,-0.65945 0.76809,-0.33605 1.29364,-0.35625 0.90705,-0.2476 0.6923,-0.18703 1.55892,-0.46238 1.04602,-0.39667 1.08646,-0.39415 1.20266,-0.46238 1.89497,-0.78072 4.31295,-1.89497 4.53025,-1.98341 4.91682,-1.75601 4.14365,-1.74841 0.58365,-0.24762 0.57103,-0.19707 0.77061,-0.2552 0.92728,-0.25772 2.42808,-0.57101 0.97781,-0.29813 1.2431,-0.40427 1.09656,-0.60134 1.35174,-0.78072 2.09204,-1.07382 0.95759,-0.38658 0.9677,-0.48257 0.66955,-0.2274 0.56345,-0.21729 0.74029,-0.14914 0.79842,-0.0479 0.89947,-0.0404 0.79843,0.0506 0.84894,0.11882 0.63165,0.13644 0.83885,0.27793 0.76051,0.2653 0.91716,0.38657 1.40228,0.59123 3.99711,1.87475 1.55894,0.70241 1.05612,0.57101 1.0258,0.56343 2.27145,1.07634 1.39975,0.63925 1.38206,0.57353 1.03844,0.41438 0.94497,0.32593 0.85904,0.2754 0.77063,0.20719 0.63165,0.10858 0.77063,0.10858 1.20266,-0.017 2.30934,0.0885 3.06985,-0.0303 2.27144,0.0404 1.756,-0.0606 z"
      data-name="Alto São Bento" id="alto_sao_bento" />
   <path class="neighborhood"
      d="m 710.8707,404.67513 -0.78073,-0.0707 -0.77821,-0.15672 -1.22542,-0.24761 -1.77621,-0.41437 -4.17399,-1.08645 -2.70602,-0.69987 -9.6896,-2.37756 -1.57155,-0.38657 -1.08392,-0.34361 -0.75041,-0.35626 -0.33606,-0.19708 -0.36383,-0.29561 -0.36635,-0.51543 -0.19708,-0.55081 -0.10858,-0.55333 -0.0203,-0.59123 0.29562,-3.14059 0.0404,-0.58113 -0.0606,-0.64177 -0.19708,-0.51289 -0.26529,-0.51292 -0.29562,-0.40425 -0.37645,-0.38657 -0.51291,-0.46238 -0.63165,-0.50533 -0.68977,-0.50279 -1.15468,-0.74031 -0.63165,-0.39415 -1.14456,-0.63165 -0.81105,-0.40427 -1.04602,-0.41436 -2.03393,-0.80852 -1.10414,-0.39668 -2.92077,-1.15468 -8.82298,-3.58274 -2.3902,-0.87674 -2.97131,-1.23552 -1.74589,-0.82873 -1.03593,-0.42447 -0.88936,-0.2274 -0.92727,-0.14648 -1.25322,0.0203 -2.13246,0.0985 -5.46761,-0.0809 -1.10414,0.14913 -0.84895,0.18704 -1.06624,0.42447 -2.81214,1.29362 -0.74028,0.28551 -0.58365,0.16922 -0.90707,0.13644 -1.54123,0.15918 -3.20629,0.46237 -1.28354,0.19708 -2.62516,0.45479 -0.88936,0.16922 -0.61145,0.13644 -0.62155,0.17945 -0.67967,0.2451 -0.48511,0.26781 -0.96769,0.43458 -0.74789,0.42447 -1.46291,0.83885 -1.30122,0.74788 -2.32954,1.30374 -3.6914,1.73831 -2.20069,1.05613 -1.21532,0.48259 -1.0738,0.33603 -1.47049,0.32594 -1.08647,0.0682 -1.75599,0.0506 -2.28154,-0.0303 -3.05975,0.0303 -2.30934,-0.091 -1.21278,0.009 -0.76051,-0.0985 -0.63165,-0.11881 -0.78073,-0.2072 -0.84894,-0.2754 -0.94497,-0.32593 -1.03844,-0.41437 -1.38206,-0.57353 -1.39975,-0.63167 -2.27145,-1.08393 -1.0258,-0.56343 -1.05612,-0.57101 -1.55894,-0.70241 -4.00721,-1.87475 -1.39218,-0.58113 -0.91716,-0.38657 -0.76051,-0.2754 -0.83885,-0.27793 -0.63165,-0.13644 -0.84894,-0.10858 -0.80853,-0.0506 -0.88937,0.0303 -0.80852,0.0582 -0.74031,0.1389 -0.55333,0.2173 -0.66955,0.23749 -0.9677,0.47248 -0.95759,0.38657 -2.09205,1.07382 -1.35173,0.78073 -1.09656,0.60133 -1.2532,0.41437 -0.96771,0.28804 -2.42808,0.57101 -0.93738,0.26783 -0.76051,0.24508 -0.57103,0.20718 -0.58365,0.23751 -4.14365,1.74841 -4.91682,1.76612 -4.53025,1.9733 -4.31295,1.89497 -1.89497,0.78073 -1.20266,0.46237 -1.08646,0.40425 -1.05612,0.38658 -1.54882,0.46237 -0.69231,0.18703 -0.91716,0.25772 -1.28352,0.35625 -0.76809,0.33352 -1.40228,0.66197 -4.18409,2.03393 -0.80094,0.44469 -2.21081,1.281 -1.21278,0.65187 -0.79082,0.27793 -0.80853,0.15672 -0.91717,0.0885 -1.07634,-0.0203 -0.68977,0.10101 -1.03844,0.16675 -0.96516,0.2754 -0.71251,0.31583 -1.02581,0.5129 -0.90706,0.62408 -3.6813,3.16585 -0.2274,0.19962 0.36384,2.5443 -0.13644,2.30934 -1.09654,3.71162 -1.50082,4.25483 -1.15468,5.83144 0.26784,3.83038 1.50081,6.56417 2.38766,8.44651 1.92529,7.51165 0.29562,-1.0056 5.12145,0.60135 0.76053,1.92529 0.57101,-0.49523 0.47501,-0.31582 0.41436,-0.23498 0.32593,-0.15917 0.47249,-0.2072 0.59375,-0.22739 2.89046,-1.03591 0.46491,-0.1768 0.49269,-0.2476 0.50279,-0.32593 0.86917,-0.63167 0.90958,-0.67965 0.48258,-0.35625 0.43459,-0.24762 0.47247,-0.20718 0.55333,-0.16675 0.56343,-0.0885 0.61145,-0.0203 0.50279,0.009 0.47502,0.0479 0.52301,0.0985 0.62155,0.14914 1.34164,0.33603 3.96679,1.03592 4.52015,1.19508 2.31944,0.61145 13.46186,3.49433 2.66557,1.12434 1.6979,0.24761 1.90508,0.30572 6.30646,0.67967 4.03754,0.41437 10.10651,1.12686 1.61703,0.18704 3.99712,0.41437 2.49884,0.2653 1.17234,0.11881 3.55496,0.51291 9.16913,1.36186 1.92277,0.27791 0.20718,0.41438 0.1389,0.48259 0.12885,0.38657 0.12886,0.48258 0.16676,0.35625 0.26529,0.57103 0.23752,0.31582 0.28804,0.41437 0.64933,0.45479 0.38657,0.35625 0.49269,0.35374 0.64177,0.43457 0.52301,0.30572 0.45479,0.25771 1.33154,0.58113 0.21728,0.0885 1.59935,0.67207 0.56091,0.14913 0.31584,0.0783 1.18498,0.2173 4.52014,0.41437 8.96194,1.27342 0.83884,0.11882 3.46401,0.49269 0.87926,0.22739 0.72009,0.2451 0.79841,0.34614 0.75041,0.40427 2.39776,1.67767 0.49523,0.26782 0.57101,0.19707 0.57355,0.12886 0.65187,0.0885 0.98538,0.0985 1.09655,0.0303 2.89299,-0.1389 1.38964,-0.0783 1.13698,-0.12886 0.82874,-0.10858 0.53311,-0.0682 1.43008,-0.30571 1.23298,-0.27794 1.28354,-0.30571 1.2633,-0.36384 3.59286,-0.98792 3.29725,-0.95759 2.466,-0.65186 2.17288,-0.64177 1.36186,-0.33352 1.45027,-0.36635 1.16478,-0.24762 2.52662,-0.46237 1.78633,-0.25772 1.62716,-0.20717 1.75853,-0.14648 1.34164,-0.091 1.48059,-0.0582 0.66955,0.0203 0.74031,0.0279 0.38657,0.0506 0.83885,0.14913 2.69338,0.64175 5.55604,-16.89806 0.74031,-2.15268 0.88937,-2.35735 1.10414,-2.54683 0.89946,-1.85455 0.96771,-1.75853 1.32142,-2.11225 1.57915,-2.33714 1.05612,-1.38206 1.56904,-1.90507 1.55135,-1.68779 1.45028,-1.50082 1.45028,-1.38205 1.68779,-1.51852 1.37196,-1.13698 2.04404,-1.5286 1.81411,-1.26331 2.00361,-1.26332 27.96216,-16.84753 -3.20881,-1.15468 -0.88684,-0.30571 -0.95759,-0.26782 -0.80094,-0.15671 -1.04603,-0.19708 -1.47049,-0.2375 -1.16478,-0.16675 -2.35734,-0.13891 -1.11677,-0.0682 -1.55893,-0.0203 -0.83883,0.0203 -1.0157,0.0885 -1.16478,0.0783 -1.72821,0.12886 -1.85455,0.16676 -1.38206,0.15918 -1.33406,0.15671 -3.37304,0.50279 -0.32594,0.0506 -0.65187,0.0682 -0.33603,0.0506 -0.82875,0.0303 z"
      data-name="Casa Branca" id="casa_branca" />
   <path class="neighborhood"
      d="m 678.67642,502.9659 -0.0985,-2.31944 -0.0606,-2.50642 0.0606,-4.23461 0.0885,-2.40788 0.2552,-2.78434 0.37645,-3.11786 0.48259,-2.97132 0.52301,-2.83233 0.73019,-3.10775 0.85907,-3.24925 1.35174,-4.12345 -2.69338,-0.63165 -0.83885,-0.15917 -0.38657,-0.0404 -0.74031,-0.0379 -0.66955,-0.009 -1.48059,0.0582 -1.34164,0.091 -1.75853,0.13644 -1.62716,0.21728 -1.78633,0.25771 -2.52661,0.46238 -1.16479,0.23751 -1.45027,0.37646 -1.36186,0.33351 -2.17288,0.64177 -2.466,0.65187 -3.29725,0.95758 -3.59286,0.98793 -1.2633,0.36383 -1.28354,0.30572 -1.23298,0.27793 -1.43008,0.30572 -0.53311,0.0682 -0.82874,0.10859 -1.13698,0.11881 -1.38964,0.0885 -2.89299,0.1389 -1.09655,-0.0404 -0.98538,-0.0885 -0.64177,-0.0885 -0.58365,-0.12885 -0.57101,-0.19708 -0.49523,-0.27792 -2.39776,-1.66757 -0.75041,-0.40427 -0.79841,-0.35372 -0.72009,-0.24761 -0.87926,-0.2173 -3.46401,-0.49269 -0.83884,-0.11882 -8.96193,-1.27341 -4.51003,-0.41438 -1.1951,-0.21729 -0.31584,-0.0783 -0.55079,-0.14913 -1.60947,-0.67207 -0.21728,-0.0885 -1.33154,-0.58113 -0.45479,-0.25772 -0.52301,-0.30572 -0.64177,-0.43457 -0.49269,-0.35373 -0.38657,-0.35626 -0.64933,-0.46489 -0.28804,-0.40427 -0.23751,-0.32594 -0.2653,-0.56091 -0.16676,-0.36635 -0.12886,-0.47247 -0.12885,-0.38658 -0.1389,-0.48259 -0.19708,-0.42447 -1.93287,-0.26782 -9.16913,-1.36186 -3.54484,-0.51291 -1.18246,-0.12639 -2.49884,-0.25772 -3.99712,-0.41437 -1.61703,-0.18703 -10.10651,-1.12687 -4.03754,-0.41437 -6.30645,-0.67967 -1.90509,-0.31581 -1.68778,-0.24762 -2.67569,-1.11424 -13.46186,-3.49432 -2.30934,-0.61145 -4.53025,-1.19508 -3.96679,-1.03593 -1.33154,-0.34615 -0.63165,-0.1389 -0.51291,-0.0985 -0.48512,-0.0479 -0.50279,-0.009 -0.61145,0.0203 -0.56343,0.0885 -0.55333,0.16676 -0.46237,0.20718 -0.44469,0.24761 -0.48258,0.35626 -0.90958,0.67965 -0.86917,0.63167 -0.50279,0.32593 -0.48259,0.2476 -0.47501,0.1768 -2.89046,1.0359 -0.58365,0.2274 -0.48259,0.20719 -0.32593,0.15918 -0.41436,0.23498 -0.47501,0.32593 -0.57101,0.48511 -0.76053,-1.92528 -5.12145,-0.60135 -0.28804,1.0056 -1.99351,2.71359 0.41436,3.03954 1.86719,2.2108 2.99909,1.48059 5.9022,0.64177 18.10074,2.6757 13.86866,3.59286 20.58694,9.84878 6.4151,2.95109 1.76611,3.77984 -0.82873,4.78796 -2.79193,10.41221 -3.62318,8.5678 -4.03754,6.25592 -3.92637,2.30934 -15.2204,1.55891 -12.62303,0.65187 -7.4409,1.10667 -6.52375,2.94099 -3.51454,6.45301 -4.35085,12.0621 5.22001,9.70225 1.78633,-1.08645 1.62714,-0.7302 1.00812,-0.94749 0.30574,-0.53311 0.7605,-1.31384 3.59287,-7.39038 0.7782,-0.9677 0.97781,-0.57355 1.21278,-0.32594 1.65999,-0.24507 3.76972,-0.55333 1.32142,-0.24762 0.9576,-0.2653 0.67207,-0.28549 0.66199,-0.40679 0.42447,-0.38406 0.31582,-0.49269 0.1768,-0.43457 1.13444,-3.85058 0.2072,-0.68977 1.06622,-3.464 0.24761,-0.45479 0.19708,-0.29562 0.30572,-0.33603 0.50281,-0.4826 0.69229,-0.53311 0.45227,-0.31583 1.32394,-0.74031 2.2487,-1.22288 0.86917,-0.43457 0.94748,-0.41438 1.0258,-0.28803 1.09657,-0.1768 1.11424,0.009 1.34416,0.14648 1.09402,0.10859 4.68942,0.7125 0.67967,0.10859 0.68219,0.0682 0.63165,0.0506 0.33351,-0.0506 0.72261,-0.11881 0.66957,-0.18703 0.86915,-0.26784 2.14258,-0.74787 1.2532,-0.41437 0.66957,-0.20718 0.84894,-0.1389 0.87927,-0.12886 0.92727,-0.0682 0.86916,-0.009 1.20266,0.0379 1.185,0.11881 6.25844,0.61143 h 0.76811 l 0.58365,-0.0682 0.51289,-0.12886 0.61145,-0.2855 1.12686,-0.62155 0.74789,-0.50281 1.46291,-0.96768 5.60405,-3.6813 6.46564,-4.25483 1.89497,-1.25322 1.53871,-1.2532 1.27342,-0.99549 0.42447,-0.42447 0.30574,-0.48511 0.20717,-0.47249 0.0985,-0.38658 0.091,-1.47049 0.0582,-0.56091 -0.0404,-0.82115 -0.0379,-0.42447 -0.0404,-0.2552 11.39003,1.32144 10.1545,1.10666 2.80455,0.30572 6.02096,0.66197 12.5826,1.47049 1.0359,0.0885 0.92729,0.0682 0.91968,0.0203 0.62155,-0.0203 0.78831,-0.0582 0.48511,-0.0606 1.0258,-0.19708 0.57355,-0.13643 0.90707,-0.25772 0.66197,-0.21728 3.25682,-1.15468 0.61144,-0.15917 0.38405,-0.0783 0.56343,-0.0783 0.91716,-0.0582 1.00813,-0.0404 1.55893,-0.0203 0.61145,-0.0379 0.63165,-0.0707 0.53311,-0.0985 0.57103,-0.18704 0.59375,-0.20717 0.4927,-0.1768 2.80203,-1.12687 0.49521,-0.13643 0.35374,-0.0506 0.52301,-0.0404 0.53311,0.0203 2.75401,0.27794 2.76414,0.27539 z"
      data-name="Várzea" id="varzea" />
   <path class="neighborhood"
      d="m 672.16027,676.79013 13.76,-11.63763 1.46039,-0.37395 3.03953,-0.77061 46.14123,-13.21426 1.60945,12.41584 0.58113,-0.17946 1.10414,-0.1768 1.00812,-0.0985 5.61669,-0.43457 2.46598,0.009 0.79083,0.0303 0.90706,0.10858 1.10415,0.25517 0.7605,0.2072 1.61958,0.51543 1.55891,0.47247 1.2431,0.38406 0.92729,0.24759 0.65187,0.1389 0.7706,0.16676 0.75041,0.12886 0.50281,0.0582 0.53311,0.0404 1.22288,0.0404 2.4483,-0.0606 -1.87475,-6.98612 -1.10666,-3.83036 -1.63725,-4.84606 -1.37196,-3.59286 -1.70799,-4.32307 -1.77623,-4.14365 -1.98339,-4.17652 -1.81665,-3.67119 -2.11226,-3.83794 -1.85453,-3.36547 -2.53674,-4.37359 -3.42359,-5.16189 -3.06985,-4.39127 -8.68653,-11.51889 -30.06179,-40.14048 -2.26132,-3.09765 -2.18049,-3.07995 -1.95307,-2.91067 -1.80655,-2.8829 -2.06424,-3.7116 -1.36186,-2.59485 -1.56903,-3.16839 -1.02581,-2.43818 -1.48059,-3.70152 -1.17488,-3.23661 -1.08647,-3.66108 -0.81862,-3.464 -0.81863,-3.68128 -0.44467,-2.55696 -0.28552,-2.36744 -0.30571,-2.65548 -0.26784,-2.62517 -0.13644,-1.90507 -2.88287,-0.31584 -2.76413,-0.26781 -2.75402,-0.28552 -0.53311,-0.009 -0.52301,0.0303 -0.35374,0.0506 -0.49521,0.13644 -2.80203,1.12686 -0.49269,0.18704 -0.59375,0.19707 -0.57103,0.18704 -0.53312,0.10858 -0.63165,0.0606 -0.61145,0.0379 -1.55893,0.0203 -1.00812,0.0404 -0.91717,0.0582 -0.56343,0.0783 -0.38405,0.0783 -0.61143,0.16922 -3.25683,1.14456 -0.66197,0.21727 -0.90706,0.25772 -0.57355,0.14648 -1.02581,0.18703 -0.48511,0.0606 -0.78831,0.0682 -0.62155,0.0203 -0.91968,-0.0203 -0.92729,-0.0682 -1.0359,-0.0985 -12.58259,-1.46038 -6.02096,-0.67209 -2.80456,-0.30572 -10.15449,-1.10666 -11.39004,-1.32144 0.0404,0.2552 0.0379,0.42447 0.0404,0.82115 -0.0582,0.56091 -0.091,1.48062 -0.0985,0.37645 -0.20718,0.48259 -0.30573,0.47501 -0.42448,0.43206 -1.27342,0.9879 -1.53871,1.2532 -1.89497,1.25322 -6.46563,4.25483 -5.60405,3.6914 -1.46292,0.95758 -0.74789,0.51292 -1.12686,0.61145 -0.61145,0.29561 -0.51289,0.11882 -0.58365,0.0682 h -0.76811 l -6.25844,-0.60133 -1.185,-0.12885 -1.20266,-0.0379 -0.86916,0.0203 -0.92727,0.0682 -0.87926,0.11882 -0.84895,0.1389 -0.66957,0.20717 -1.2532,0.41438 -2.14258,0.74787 -0.86915,0.26783 -0.66957,0.18703 -0.7226,0.12886 -0.33352,0.0404 -0.63165,-0.0404 -0.68219,-0.0682 -0.67967,-0.10858 -4.68942,-0.71251 -1.09402,-0.11881 -1.34416,-0.14648 -1.11424,-0.009 -1.09656,0.1768 -1.02581,0.28804 -0.94748,0.42447 -0.86917,0.42447 -2.2487,1.22288 -1.32394,0.74031 -0.45227,0.31584 -0.69229,0.53311 -0.50281,0.48259 -0.30572,0.33603 -0.19707,0.29562 -0.24762,0.45479 -1.06622,3.46401 -0.2072,0.68976 -1.13444,3.86068 -0.1768,0.42447 -0.31582,0.50282 -0.42447,0.38403 -0.66199,0.40427 -0.67207,0.28804 -0.9576,0.26529 -1.32142,0.2375 -3.76972,0.56343 -1.65999,0.2451 -1.21278,0.31581 -0.97781,0.58365 -0.7782,0.96771 -3.59286,7.39038 -0.76051,1.30373 -0.30574,0.53312 -1.00812,0.94748 -1.62713,0.74031 -1.78633,1.07634 2.99911,3.32505 4.03753,1.55891 h 3.31747 l 6.09928,-1.93287 8.99983,-4.78794 8.38082,-3.59286 10.55877,-0.64177 19.45248,1.4705 32.79812,6.82188 h 15.00058 l 13.35574,-3.59286 7.54956,0.73019 2.37754,5.07348 -1.65746,6.53131 -5.47773,3.8708 -16.03901,12.80999 -4.86376,7.27416 2.07184,5.33875 7.75673,3.13049 9.62393,-3.6813 6.20792,1.0157 6.52373,3.40591 3.20629,6.62985 4.78796,19.87949 9.20703,53.89796 z"
      data-name="Tabuleiro dos Oliveiras" id="tabuleiro_dos_oliveiras" />
   <path class="neighborhood"
      d="m 759.92259,792.41356 5.09116,5.01282 4.27505,-88.99532 0.0582,-3.7394 -0.0582,-3.13807 -0.12886,-3.07995 -0.15671,-3.54234 -0.25772,-4.14619 1.00812,-0.0404 0.41438,-0.1768 0.86662,-0.50281 0.59375,-0.67207 0.23498,-0.59123 0.2072,-0.74031 -0.0171,-1.03592 -0.0203,-0.65187 8.99983,-6.02094 7.24636,-5.19222 -1.86717,-3.464 -10.25305,-19.49292 -20.60968,-46.82087 -1.76611,-0.54323 -2.37757,-0.99549 -1.37195,-0.67209 -1.45028,-0.9677 -1.16478,-2.18047 -2.32954,-2.24112 -0.72009,-0.55081 -0.84895,-0.2274 -0.34615,-0.0885 -1.16476,-0.30825 -0.92729,-0.46238 -0.53311,-0.11881 -0.68219,0.0582 -0.98538,0.1389 -0.56343,0.34616 -0.65187,0.43457 -0.18703,0.48259 -0.30572,0.4649 -0.62155,0.10858 -0.82875,-0.52301 -1.0359,-0.92981 -4.90672,0.2375 8.68654,11.51889 3.06985,4.39127 3.42358,5.16189 2.52662,4.37359 1.86465,3.36547 2.11227,3.82783 1.81665,3.6813 1.98338,4.17652 1.76612,4.14365 1.70801,4.32307 1.38205,3.59286 1.63726,4.84606 1.10666,3.83036 1.87475,6.98612 -2.4483,0.0606 -1.22288,-0.0404 -0.53311,-0.0404 -0.50281,-0.0582 -0.75041,-0.12886 -0.77061,-0.16676 -0.65187,-0.14913 -0.92728,-0.2375 -1.2532,-0.38405 -1.54882,-0.47247 -1.61957,-0.51543 -0.76051,-0.2072 -1.10414,-0.25518 -0.90707,-0.10858 -0.79082,-0.0303 -2.46598,-0.009 -5.61669,0.43457 -1.0157,0.0985 -1.09657,0.1768 -0.58113,0.17945 -1.60945,-12.41583 -46.14122,13.21426 -3.03953,0.77061 -1.4604,0.37395 -13.76,11.63763 -20.92299,5.71523 -30.65554,1.59683 -23.63657,8.34038 6.78145,24.862 0.7302,1.52861 1.02581,1.2633 0.7782,0.62409 0.31582,0.69987 -0.23498,1.32142 -0.15917,0.83884 0.31583,1.18498 0.62155,0.83885 1.41238,1.18498 0.65187,0.61145 0.45227,0.92727 0.30825,1.60947 0.47248,0.83883 0.15917,0.76052 v 1.67768 l -0.47501,2.72369 -4.39127,28.12892 -0.78072,5.71271 v 1.1951 l 0.15917,1.53113 0.23498,1.18246 0.46489,1.74841 0.63167,1.74592 1.68777,4.8966 6.42522,17.23157 0.33603,0.90707 5.52573,14.68726 4.69953,13.3229 0.36383,1.04602 2.41798,6.84969 1.233,2.40028 0.57355,1.39976 0.9879,0.65187 1.2911,1.40227 0.42448,0.35374 0.46491,0.26781 1.21278,1.22288 0.48511,0.53314 7.12508,5.96282 1.2153,0.87674 1.14457,0.97781 13.36332,10.56886 0.23497,0.1996 0.25772,-0.26781 1.63725,-1.12435 10.99588,-7.3828 7.94623,-5.33875 14.61652,-10.07871 0.65187,-0.70999 9.20703,-6.35698 12.99949,-8.95941 14.65442,-10.0964 13.45428,-9.27776 z"
      data-name="Morretes" id="morretes" />
   <path class="neighborhood"
      d="m 693.08577,838.74934 -14.61652,10.08882 -7.94623,5.32865 -10.98578,7.3828 -1.64736,1.12434 -0.25771,0.26782 0.58365,0.46237 8.92151,7.34238 30.8223,25.42542 2.04404,0.83885 1.71812,0.29561 5.31853,-0.40425 4.71722,-0.2653 2.6959,-7.1074 0.62155,-1.73579 1.233,-3.11027 5.12147,-4.99514 3.80004,-2.99911 2.17291,-1.61957 4.34326,-2.97889 4.82585,-2.27143 5.12147,-1.51851 9.52539,-1.83685 1.9935,0.10858 3.9668,0.2274 4.67678,-0.0885 3.15829,-69.28512 -5.09116,-5.01282 -15.85962,10.93524 -13.4644,9.27777 -14.65442,10.09639 -12.98938,8.95941 -9.21713,6.35698 z"
      data-name="Jardim Praiamar" id="jardim_praiamar" />
   <path class="neighborhood"
      d="m 853.21064,450.48032 5.75313,-10.18735 0.20718,-4.58837 9.48496,-13.43406 9.79066,-7.29184 2.33966,-3.60296 1.76611,-0.80853 2.06173,0.28552 2.02383,0.99548 4.25483,6.23824 1.77623,1.51092 1.31132,1.62715 2.83487,1.12688 1.95307,-0.38657 2.98143,0.39667 2.54684,-2.2108 0.66955,-2.16279 0.7403,-3.2366 -1.77623,-1.87475 -0.7984,-2.07437 -4.43171,-1.21278 -2.10215,-9.26767 -1.44269,-9.11859 0.19707,-10.90744 0.66197,-7.58997 4.70711,-6.73093 8.69663,-5.2099 4.70711,-3.52464 5.26043,-4.06534 2.77424,-3.6813 1.28353,-3.71161 2.22849,-2.66558 3.85057,-6.76883 0.61144,-1.08646 1.02582,-1.82675 2.183,-1.37196 3.82784,-0.65945 3.07995,0.56091 -0.0506,1.28354 -1.37953,2.79444 0.88684,0.62155 0.64177,-0.31582 0.69987,-2.01373 0.9576,-1.41237 1.4427,-1.09405 3.35536,0.51292 0.60134,0.55081 0.9778,0.90958 0.32593,3.89858 -1.22542,1.70799 -2.70347,0.84643 -2.87278,0.0506 -2.55695,-0.79842 -0.67965,0.59123 0.7883,0.91716 4.10576,0.25772 4.50244,-0.57353 1.13447,0.45479 1.21278,-0.0885 v -2.57715 l 0.47501,-1.82423 3.03953,-0.72261 3.03953,0.21729 8.50714,-3.97691 2.02383,-5.39939 4.46202,-6.00832 1.46038,-1.67768 1.45029,-0.52555 -0.26529,-1.49827 -2.31944,0.89694 -7.12763,-3.78994 -5.9603,1.80653 -2.95109,4.11588 -1.4503,3.1886 -1.86465,1.58926 -2.77423,0.38403 -1.44018,2.03395 -1.9657,1.09402 -8.19133,-2.4382 -5.48783,-3.41346 -3.24671,-3.6914 -2.97131,-3.26693 -6.35445,-9.13881 -5.87441,-9.8513 -4.03503,-11.62501 -2.05415,-9.3283 -1.22288,-6.02095 -0.82872,-2.94857 -0.60387,-3.89099 -0.59124,-3.76974 -0.85904,-5.54593 -1.0157,-5.00526 0.49269,-7.00633 1.65745,-1.58925 0.90959,-2.05161 0.82874,-6.31657 -0.22739,-4.02744 -0.0783,-2.4382 -0.95758,-3.14816 0.0783,-5.10378 0.91717,-6.89769 2.4483,-1.02582 1.74843,-0.0885 6.32667,1.43006 2.20827,0.0203 1.04854,-0.20718 1.2431,-1.4705 0.72009,-1.22541 -0.0783,-1.45028 v -1.4705 l 0.95758,-1.38207 0.87675,-1.62714 0.28551,-1.71811 -0.38405,-1.2431 -1.02581,-1.63977 -1.67769,-0.69989 -2.42808,1.14456 -1.91519,-0.25518 -1.63725,-2.4281 1.0157,-19.15686 0.72009,-14.28301 3.51454,-9.97765 5.80367,-6.86989 2.53672,-0.32593 2.87025,-0.41437 3.8708,-0.47248 11.60479,2.92078 9.69212,0.67208 7.66831,-3.72172 -32.35091,-22.99734 -11.20305,-5.29833 -12.74178,-3.12039 -10.46274,-0.7403 -11.42794,-0.69987 -3.6914,-1.10414 -5.55605,-2.70601 -3.25682,-1.58925 -31.18865,-14.912143 -45.00425,-1.776217 -17.65859,1.766111 -11.89282,6.099274 -8.28986,7.541975 -6.30646,10.1065 -2.69338,11.71344 0.35374,11.22327 3.60296,10.75837 8.83307,10.42233 8.27977,5.13157 21.08215,7.69863 28.46496,8.98973 8.95183,4.60098 4.85618,6.09928 1.14456,4.38116 -1.61957,15.39725 -5.23012,28.0784 -5.94262,12.50426 -30.3675,48.7563 v 12.50425 l 2.70349,11.71597 5.22,5.93252 20.85478,28.18702 11.13483,13.60082 5.95019,12.02926 4.49992,15.24061 z"
      data-name="Ilhota" id="ilhota" />
   <path class="neighborhood"
      d="m 461.82882,977.79458 4.6212,4.87386 h 0.41437 l 4.96228,-2.55441 0.66199,0.12639 1.19508,1.09656 1.39218,0.18703 0.83884,0.60134 4.10576,4.51254 5.16947,6.04874 17.57016,20.30147 1.11424,0.998 2.06172,-0.1389 6.94823,-0.9172 1.40228,0.1086 2.1729,0.6418 1.4705,-3.1482 4.42916,-6.9381 2.01373,-2.8728 1.97581,-1.90507 3.95669,-2.62516 0.4548,-0.16922 2.58473,-0.64933 3.88848,-0.51291 29.42256,-4.12597 2.01373,-0.27794 1.70547,-0.70998 1.84695,-0.89695 1.39217,-1.24562 1.45028,-1.94299 0.92729,-3.53474 2.87277,-12.21624 1.54881,-3.36546 3.00163,-3.40589 6.58186,-4.51002 3.14817,-2.81466 3.59286,-1.31132 2.12236,-0.22739 2.4281,0.64175 6.4429,1.06624 6.54395,0.66197 6.46563,0.25519 6.52376,0.78073 2.61505,-0.45479 2.33965,-0.59123 0.18703,-0.0606 0.45479,-0.13644 1.57914,-0.50533 3.2265,-1.0359 0.87927,-0.67209 0.68977,-0.0985 0.53311,-0.69987 17.61817,-8.28986 6.98611,-3.58276 6.88,-3.06985 4.00724,-1.64736 9.15901,-4.6793 9.5936,-4.23463 5.32865,-2.67318 3.44631,-3.68128 3.64088,-9.92963 5.32865,-15.00058 -4.71722,0.2653 -5.31854,0.40425 -1.71811,-0.30571 -2.04404,-0.82875 -30.8223,-25.42542 -8.92151,-7.35248 -0.58365,-0.45228 -0.22488,-0.19959 -13.37342,-10.56887 -1.14456,-0.9778 -1.2153,-0.87675 -7.11499,-5.96282 -0.49521,-0.53313 -1.21278,-1.22288 -0.46491,-0.26782 -0.42447,-0.35373 -1.2911,-1.40228 -0.98791,-0.65187 -0.57355,-1.39976 -1.233,-2.40028 -2.41798,-6.84969 -0.36383,-1.04602 -4.69952,-13.3229 -5.52573,-14.68726 -0.33604,-0.90706 -6.42521,-17.23158 -1.68778,-4.8966 -0.63167,-1.74591 -0.46489,-1.73831 -0.23497,-1.19257 -0.15918,-1.53113 v -1.1951 l 0.79083,-5.71271 4.38116,-28.12892 0.47502,-2.72369 v -1.67767 l -0.15918,-0.76053 -0.46489,-0.83883 -0.31584,-1.60947 -0.45227,-0.92727 -0.64175,-0.61145 -1.4124,-1.18498 -0.63165,-0.83884 -0.31583,-1.18498 0.15918,-0.83885 0.23497,-1.32142 -0.31581,-0.69987 -0.77821,-0.62409 -1.0258,-1.2633 -0.73021,-1.52861 -6.78145,-24.86199 -69.12595,26.15563 -59.03207,11.04388 -0.98539,0.18703 -82.36293,93.80096 -29.39222,59.80016 -57.30134,31.97698 -19.2655,10.74826 -43.87232,39.4103 -18.41658,14.35882 -2.2108,3.14817 0.80094,0.46489 0.51291,0.63167 1.2633,2.42808 1.30122,0.79841 0.80095,0.19962 0.78831,-0.0506 0.86914,-0.29561 3.6914,-2.40788 1.29364,-0.52302 2.08195,-0.16922 3.37556,-0.009 6.61217,0.47499 1.185,-0.1768 0.61143,-0.27793 0.41438,-0.4548 1.08644,-2.28912 1.07382,-1.22288 1.62967,-0.84895 1.32142,-0.15917 0.81105,0.16922 1.33154,0.53313 5.39939,2.74391 2.99911,1.2431 2.70602,0.87927 2.61505,0.42193 h 7.50914 l 2.04403,0.37648 1.9935,0.59123 1.65748,0.7024 1.9935,1.3012 1.73832,1.6777 2.08194,2.31944 1.59936,1.37196 0.90706,0.28803 1.53113,0.16676 h 3.83794 l 0.87927,0.38403 0.58113,0.95761 0.0203,0.59375 -0.38403,1.56903 -0.56345,1.33154 -1.34164,1.66764 -1.72821,1.6195 -4.08555,4.4115 -0.13644,0.3361 -0.33604,0.6695 -0.25771,1.0561 0.31583,1.1547 2.66558,0.9475 3.02943,0.8212 2.30934,0.9474 2.93087,0.017 1.81665,0.9096 1.02581,0.068 3.02943,-1.2835 1.44269,-0.1465 1.91519,0.2855 1.91265,-0.662 4.62879,-1.2228 2.81465,-0.1971 6.74105,0.8186 8.636,0.5028 1.08392,0.071 2.90309,-0.2375 4.51003,-0.078 1.78631,-0.1692 0.88938,-0.2653 3.27451,-2.0845 1.88739,-0.5407 6.35446,-1.3542 0.80852,-0.4245 1.32394,-1.0637 0.77821,-0.6923 0.45479,-0.7101 0.62155,-2.4684 2.2108,-3.70914 0.83883,-1.78633 2.80456,-3.54484 1.39975,-2.18048 0.14914,-0.2375 1.27342,-0.78831 5.37917,-1.50081 5.61417,-2.14259 3.95921,-1.13446 6.41512,-2.37754 4.08555,-0.9778 4.85616,-1.76612 4.55046,-1.34417 4.54035,-1.63726 5.83145,-1.64735 4.04765,-1.31384 3.16839,-1.2229 1.96318,-0.53311 22.44402,-8.06499 5.32865,-2.62515 1.32396,-0.32594 1.06622,0.77061 14.43714,15.14965 z"
      data-name="Sertão do Trombudo" id="sertao_do_trombudo" />
</svg>