<?xml version="1.0" encoding="UTF-8" standalone="no"?>
<!-- Created with Inkscape (http://www.inkscape.org/) -->

<svg
   width="1109.1414mm"
   height="1308.1663mm"
   viewBox="0 0 1109.1414 1308.1662"
   version="1.1"
   id="svg5"
   xml:space="preserve"
   inkscape:version="1.2.2 (b0a8486, 2022-12-01)"
   sodipodi:docname="Maracanaú-CE.svg"
   xmlns:inkscape="http://www.inkscape.org/namespaces/inkscape"
   xmlns:sodipodi="http://sodipodi.sourceforge.net/DTD/sodipodi-0.dtd"
   xmlns="http://www.w3.org/2000/svg"
   xmlns:svg="http://www.w3.org/2000/svg"><sodipodi:namedview
     id="namedview7"
     pagecolor="#505050"
     bordercolor="#eeeeee"
     borderopacity="1"
     inkscape:showpageshadow="0"
     inkscape:pageopacity="0"
     inkscape:pagecheckerboard="0"
     inkscape:deskcolor="#505050"
     inkscape:document-units="mm"
     showgrid="false"
     inkscape:zoom="0.13140081"
     inkscape:cx="2484.764"
     inkscape:cy="1834.0831"
     inkscape:window-width="1366"
     inkscape:window-height="740"
     inkscape:window-x="0"
     inkscape:window-y="0"
     inkscape:window-maximized="0"
     inkscape:current-layer="svg5" /><defs
     id="defs2" /><path
     style="display:inline;fill:#000000;stroke:none;stroke-width:20"
     d="m 226.51784,775.32817 -11.32627,40.77457 1.00678,9.56443 -12.33306,11.82965 -3.02033,16.10847 -33.47542,15.10169 -6.79577,7.55084 -7.55084,13.59154 -25.42119,11.0746 -21.39408,18.12202 -9.81609,13.59151 -41.78136,35.99239 -16.61187,24.91778 7.80257,11.57794 126.85421,67.706 8.05426,9.8161 31.21016,6.7958 16.10847,-7.5509 7.29915,4.2788 -2.26525,17.8704 4.27881,19.8839 -0.25169,14.5983 9.31271,16.6118 17.36695,11.0746 14.5983,15.8568 14.59831,9.5644 -3.27204,19.3805 -9.06101,24.1627 0.75508,15.3534 16.86356,7.5508 22.14915,2.7687 48.57712,14.3466 4.7822,11.578 -1.00677,21.394 3.77542,-1.2584 7.04746,-6.2924 20.13559,-2.517 12.08136,-12.333 4.7822,-18.3737 1.51017,-18.3738 3.27203,-10.8228 -9.5644,-21.1424 -1.25848,-13.5915 -7.04746,-15.1017 -2.01356,-30.4551 12.58475,-11.0746 16.36017,-35.2373 16.86356,-9.3127 52.10084,-44.8017 15.35339,-23.911 4.78221,-28.4416 7.04745,-57.88981 8.80933,-23.15593 6.29237,-16.36017 2.01356,-2.51693 -50.96822,-41.40382 -83.18517,-21.26822 -6.04068,-12.83644 -19.38051,-10.31949 -10.57118,-1.0068 -19.38051,9.06103 -35.48898,-15.1017 -24.16271,-2.76863 -12.83644,-4.02711 z"
     id="path390"
     inkscape:label="Santo Antônio" /><path
     style="display:inline;fill:#000000;stroke:none;stroke-width:20"
     d="m 547.68055,905.20276 14.47246,-18.87712 -9.69026,-53.61104 -36.24406,-99.92287 -20.1356,5.0339 -0.25169,-9.06101 -5.53729,-4.27882 -19.3273,-62.64871 -9.25471,2.18019 -4.89431,5.96217 -7.65294,-0.17796 -6.76305,6.05115 -10.32256,29.36591 -5.51723,29.3659 -6.05116,9.43269 -0.88988,4.9833 -4.09343,8.18686 1.77976,3.91545 4.2714,1.4238 8.72079,18.86538 -7.47496,16.19573 4.9833,4.62737 2.1357,15.83979 1.60178,2.49163 4.2714,19.93322 -0.94017,7.50951 61.83579,15.80976 z"
     id="path421"
     inkscape:label="Olho d'Água" /><path
     style="display:inline;fill:#000000;stroke:none;stroke-width:20"
     d="m 226.51784,775.32817 77.77522,-78.65243 -7.11901,-14.94992 76.17338,-42.71405 2.8476,2.9366 60.86751,13.97105 2.31368,-2.1357 16.90764,-0.17797 5.42824,10.41154 -4.89431,5.96216 -7.65294,-0.17796 -6.76305,6.05115 -10.32256,29.36591 -5.51723,29.3659 -6.05116,9.43269 -0.88988,4.9833 -4.09343,8.18686 1.77976,3.91545 4.2714,1.4238 8.72079,18.86538 -7.47496,16.19573 4.9833,4.62737 2.1357,15.83979 1.60178,2.49163 4.2714,19.93322 -0.94017,7.50951 -21.34938,-5.45845 -6.04068,-12.83645 -19.38051,-10.31948 -10.57118,-1.0068 -19.38051,9.06103 -35.48898,-15.1017 -24.16271,-2.76863 -12.83644,-4.02711 z"
     id="path429"
     inkscape:label="Furna da Onça" /><path
     style="display:inline;fill:#000000;stroke:none;stroke-width:20"
     d="m 297.17405,681.72581 76.17338,-42.71404 54.4604,-29.54388 -140.95634,-42.71404 -2.8476,6.40711 z"
     id="path438"
     inkscape:label="Antonio Justa" /><path
     style="display:inline;fill:#000000;stroke:none;stroke-width:20"
     d="m 427.80783,609.46789 21.00107,9.78864 -0.53392,6.22913 1.43332,7.44612 4.84513,11.32627 3.14619,4.34174 -0.75509,1.69894 -0.66067,3.30701 -16.90764,0.17797 -2.31368,2.1357 -60.86751,-13.97105 -2.8476,-2.93659 z"
     id="path448"
     inkscape:label="Alto da Mangueira" /><path
     style="display:inline;fill:#000000;stroke:none;stroke-width:20"
     d="m 286.85149,566.75385 5.96217,-9.07673 4.71634,-0.35595 3.38153,-3.55951 8.27585,-4.71634 13.34813,-2.75861 1.06786,-3.11457 0.35595,-9.78864 4.62735,-4.18241 6.67407,-2.1357 3.82647,-3.91546 9.61065,-0.53392 6.67407,-6.67407 1.42381,-2.84761 9.07673,-4.36039 1.77975,1.4238 5.33926,0.17798 2.49165,-4.18242 7.47496,-4.36039 1.60177,0.53393 3.55951,-3.02558 0.26696,-2.22469 2.04672,-2.75862 2.1357,0.88988 14.14902,-5.16128 1.95773,1.77975 2.31368,0.88988 3.82647,-1.4238 5.07229,-7.208 2.93659,-1.4238 1.4238,-2.8476 -0.17798,-3.20356 3.11457,-7.91989 4.62736,-3.38153 1.60177,-4.00444 1.06785,-0.7119 2.22469,1.06785 3.82647,0.35595 28.03109,71.54602 -2.1357,7.38597 -6.85205,3.64849 -9.25471,3.02558 -1.4238,-0.62291 -18.68739,7.03002 -3.91546,3.02557 -3.38152,10.32257 v 15.39485 l -1.06786,11.39041 -3.85898,12.32976 z"
     id="path459"
     inkscape:label="Piratininga" /><path
     style="display:inline;fill:#000000;stroke:none;stroke-width:20"
     d="m 466.42845,540.94745 20.02731,-12.28029 4.46759,11.57797 -5.09683,3.27203 -0.44046,9.12394 8.18008,21.83454 -8.93517,3.77542 -0.50339,6.1036 -2.57987,8.11717 6.16653,2.83156 -3.58666,8.18009 -6.1036,-2.57988 -0.81801,-1.38432 -18.3108,-2.26525 -6.16653,0.0629 -3.91974,21.93957 -21.00107,-9.78863 -9.82115,-2.97611 3.85898,-12.32976 1.06785,-11.39041 v -15.39485 l 3.38153,-10.32257 3.91546,-3.02557 18.68739,-7.03002 1.4238,0.62291 9.25471,-3.02558 z"
     id="path481"
     inkscape:label="Centro" /><path
     style="display:inline;fill:#000000;stroke:none;stroke-width:20"
     d="m 478.02398,600.9036 -1.7624,3.18055 0.44493,6.62957 23.27026,10.32256 -10.50054,22.78082 3.47052,9.43268 -1.33482,0.88988 3.20356,4.18242 -8.80977,0.44494 -2.66963,1.15684 -8.89876,-2.93659 -3.47052,4.84982 -9.25471,2.18019 -5.42824,-10.41154 0.66067,-3.30701 0.75509,-1.69894 -3.14619,-4.34174 -4.84513,-11.32627 -1.43332,-7.44612 0.53392,-6.22913 3.91974,-21.93957 6.16653,-0.0629 18.3108,2.26525 z"
     id="path494"
     inkscape:label="Boa Vista" /><path
     id="path532"
     style="display:inline;fill:#000000;stroke:none;stroke-width:20"
     inkscape:label="Jereissati"
     d="M 500.73946 513.63635 L 493.56626 525.15141 L 486.45558 528.66696 L 490.92352 540.24506 L 485.82668 543.51721 L 485.38588 552.6412 L 493.56626 574.47553 L 484.63088 578.25101 L 484.12756 584.35451 L 481.54787 592.47185 L 487.71442 595.3032 L 484.12756 603.48358 L 478.02405 600.90337 L 476.26137 604.08406 L 476.7063 610.71363 L 499.97672 621.03651 L 489.47607 643.81703 L 492.94666 653.24953 L 491.61185 654.13992 L 494.81528 658.32209 L 499.97672 655.91965 L 501.87221 654.01899 L 506.02493 653.76733 L 510.5554 648.2302 L 521.63018 643.95139 L 530.81721 640.55367 L 538.87098 635.8971 L 541.38814 629.10165 L 545.16362 627.46558 L 537.23542 620.04019 L 531.69778 614.12531 L 545.16362 627.46558 L 552.88046 625.04092 L 555.3723 619.25626 L 558.57572 616.67605 L 568.00822 615.96395 L 573.16967 614.12531 L 575.83927 610.98079 L 597.73044 602.25988 L 602.89137 603.14975 L 598.97584 592.11528 L 577.08519 564.70713 L 575.48322 560.25779 L 552.7027 528.66696 L 500.73946 513.63635 z " /><path
     style="display:inline;fill:#000000;stroke:none;stroke-width:20"
     d="m 552.70256,528.66716 115.85393,35.30818 -18.23518,30.28378 0.26696,1.24582 -1.4238,0.88988 -2.31368,1.77975 -4.18242,0.17798 -0.62291,-1.24583 -1.60178,0.35595 -1.69076,-0.97886 -4.98331,1.15683 -4.36039,-1.60177 -2.66963,1.51279 -2.8476,-2.22469 -4.18241,0.17797 -2.22469,2.58064 -1.60178,3.91546 -3.11457,1.69076 -3.29254,0.62291 -6.58445,-1.16494 -3.91546,-11.03445 -21.89093,-27.40818 -1.60177,-4.44938 z"
     id="path590"
     inkscape:label="Timbo" /><path
     style="display:inline;fill:#000000;stroke:none;stroke-width:20"
     d="m 440.53306,462.01546 13.70521,6.81921 32.5945,39.39025 13.90665,5.41144 -7.17327,11.51504 -7.11039,3.51576 -20.02731,12.28029 2.1357,-7.38597 z"
     id="path607"
     inkscape:label="Coqueiral" /><path
     style="display:inline;fill:#000000;stroke:none;stroke-width:20"
     d="m 440.53306,462.01546 1.91324,-1.4238 1.95772,-6.66597 1.86874,-2.04672 3.55951,-9.96661 65.85081,24.64956 -28.85031,41.663 -32.5945,-39.39025 z"
     id="path625"
     inkscape:label="Novo Maracanaú" /><path
     style="display:inline;fill:#000000;stroke:none;stroke-width:20"
     d="m 284.18089,574.61997 -116.52827,-67.39072 77.59718,-80.08883 41.60169,43.07 h 7.69743 l 19.75525,26.5183 3.91545,7.65293 2.49165,1.24583 3.20356,4.62735 5.51723,3.38153 9.65515,9.51357 -3.82647,3.91546 -6.67407,2.1357 -4.62735,4.18241 -0.35595,9.78864 -1.06786,3.11457 -13.34813,2.75861 -8.27585,4.71634 -3.38153,3.55951 -4.71634,0.35595 -5.96217,9.07673 -2.8476,6.4071 z"
     id="path644"
     inkscape:label="Pau Serrado" /><path
     style="display:inline;fill:#000000;stroke:none;stroke-width:20"
     d="m 245.2498,427.14042 63.71511,-65.85081 41.64619,37.01883 63.35917,80.80074 8.85426,3.5514 -2.93659,1.4238 -5.07229,7.208 -3.82647,1.4238 -2.31368,-0.88988 -1.95773,-1.77975 -14.14902,5.16128 -2.1357,-0.88988 -2.04672,2.75862 -0.26696,2.22469 -3.55951,3.02558 -1.60177,-0.53393 -7.47496,4.36039 -2.49165,4.18242 -5.33926,-0.17798 -1.77975,-1.4238 -9.07673,4.36039 -1.42381,2.84761 -6.67407,6.67407 -9.61065,0.53392 -9.65515,-9.51357 -5.51723,-3.38153 -3.20356,-4.62735 -2.49165,-1.24583 -3.91545,-7.65293 -19.75525,-26.5183 h -7.69743 z"
     id="path646"
     inkscape:label="Luzardo Viana" /><path
     style="display:inline;fill:#000000;stroke:none;stroke-width:20"
     d="m 308.96491,361.28961 38.44264,-38.79859 7.47496,-3.91546 8.18686,-11.39041 131.34568,30.25578 -7.74192,2.1357 -2.04672,4.71635 -0.089,11.30142 -3.20356,5.42824 -3.82646,-1.51278 -8.45383,-5.51724 -5.25026,2.58064 -0.26697,4.18242 -14.94991,21.00107 -2.8476,6.76306 2.75861,22.9588 2.58064,13.17016 -4.09343,8.54281 2.84761,8.72078 -3.55951,9.96661 -1.86874,2.04672 -1.95772,6.66597 -1.91324,1.4238 -3.82647,-0.35595 -2.22469,-1.06785 -1.06785,0.7119 -1.60177,4.00444 -4.62736,3.38153 -3.11457,7.91989 0.17798,3.20355 -1.4238,2.84761 -8.85426,-3.5514 -63.35917,-80.80074 z"
     id="path667"
     inkscape:label="Cagado" /><path
     style="display:inline;fill:#000000;stroke:none;stroke-width:20"
     d="m 481.33387,361.02264 2.6044,4.23957 46.43772,15.10169 35.23728,17.11526 -49.93019,69.08276 -65.85081,-24.64956 -2.84761,-8.72078 4.09343,-8.54281 -2.58064,-13.17016 -2.75861,-22.9588 2.8476,-6.76306 14.94991,-21.00107 0.26697,-4.18242 5.25026,-2.58064 8.45383,5.51724 z"
     id="path736"
     inkscape:label="Jenipapeiro" /><path
     style="display:inline;fill:#000000;stroke:none;stroke-width:20"
     d="m 494.41505,337.44093 81.64356,46.32086 -10.44534,13.71737 -35.23728,-17.11526 -46.43772,-15.10169 -2.6044,-4.23957 3.20356,-5.42824 0.089,-11.30142 2.04672,-4.71635 z"
     id="path738"
     inkscape:label="Santos Satiro" /><path
     id="path740-5"
     style="display:inline;fill:#000000;stroke:none;stroke-width:20"
     d="m 592.26122,360.70099 -88.94754,-48.53244 -4.97955,0.14418 0.20258,0.91157 -0.063,4.59352 -1.25833,2.13941 0.37724,3.71243 -1.25832,1.8247 -1.91926,0.75499 -1.54151,1.95078 1.00666,3.58686 2.1394,2.64274 -1.60455,3.01118 81.64359,46.32069 z"
     inkscape:label="Acaracuzinho" /><path
     id="path820"
     style="display:inline;fill:#000000;stroke:none;stroke-width:20"
     d="m 510.78867,258.24213 -6.22908,11.21224 -1.9575,1.77973 3.07371,3.38171 4.40129,6.76289 -1.06816,4.80539 0.35606,4.62711 2.79466,3.37861 0.18862,4.05866 -2.44947,3.6866 -6.58512,3.02514 -1.3162,2.22519 -3.46077,1.06815 -0.755,1.57303 0.55242,2.48615 4.97955,-0.14418 88.94754,48.53244 25.84648,-36.78638 -95.39469,-56.23998 -5.51698,-5.51698 z"
     inkscape:label="Novo Oriente" /><path
     style="display:inline;fill:#000000;stroke:none;stroke-width:20"
     d="m 363.06937,307.18515 41.29024,-26.34032 12.81421,-32.03553 17.44157,-13.52611 35.59503,-40.22241 54.46041,30.96768 -13.88216,32.21367 -6.22908,11.21224 -1.9575,1.77973 3.07371,3.38171 4.40129,6.76289 -1.06816,4.80539 0.35606,4.62711 2.79466,3.37861 0.18861,4.05866 -2.44946,3.6866 -6.58513,3.02514 -1.31619,2.22519 -3.46077,1.06815 -0.755,1.57303 0.55242,2.48615 0.20258,0.91157 -0.063,4.59352 -1.25833,2.13941 0.37724,3.71243 -1.25832,1.8247 -1.91926,0.75499 -1.54151,1.95078 1.00666,3.58686 2.1394,2.64274 -1.6045,3.0112 z"
     id="path823"
     inkscape:label="Parque Tijuca" /><path
     style="fill:#000000;stroke:none;stroke-width:20"
     d="m 524.67083,226.02846 123.51477,56.24017 -30.0779,41.64598 -95.39469,-56.23998 -5.51698,-5.51698 -6.40736,-3.91552 z"
     id="path850"
     inkscape:label="Alto Alegre I" /><path
     style="display:inline;fill:#000000;stroke:none;stroke-width:20"
     d="m 524.67083,226.02846 1.60177,-18.33144 7.83091,-6.05116 3.38153,-6.58508 5.16128,-5.16128 -4.62735,-5.51722 3.20355,-5.51723 -0.7119,-13.70409 7.1699,-10.67851 22.01803,7.65292 118.53147,59.79967 -40.04442,60.33359 z"
     id="path852"
     inkscape:label="Alto Alegre II" /><path
     style="display:inline;fill:#000000;stroke:none;stroke-width:20"
     d="m 470.21042,195.06078 54.46041,-53.74849 10.32256,11.03445 10.25093,5.76408 -4.7337,7.05014 0.7119,13.70409 -3.20355,5.51723 4.62735,5.51722 -5.16128,5.16128 -3.38153,6.58508 -7.83091,6.05116 -1.60177,18.33144 z"
     id="path881"
     inkscape:label="Parque Santa Maria" /><path
     style="display:inline;fill:#000000;stroke:none;stroke-width:20"
     d="m 650.58827,595.50494 15.92878,4.44938 4.9833,5.87318 89.16556,-293.65895 -49.83304,-4.9834 -62.64727,-24.91652 -30.0779,41.64598 -25.84648,36.78638 -16.20261,23.0608 -10.44534,13.71737 -49.93019,69.08276 -28.85031,41.663 13.90665,5.41144 51.96314,15.0308 115.85393,35.30818 -18.23518,30.28377 z"
     id="path911"
     inkscape:label="Distrito Industrial" /><path
     style="fill:#000000;stroke:none;stroke-width:20"
     d="m 688.23002,221.93504 62.88242,45.54369 24.4144,1.76187 -14.86093,42.92795 -49.83304,-4.9834 -62.64727,-24.91652 z"
     id="path971"
     inkscape:label="Industrial" /><path
     style="display:inline;fill:#000000;stroke:none;stroke-width:20"
     d="m 671.50035,605.8275 h 4.62736 l 21.89094,-8.00888 4.98331,1.77975 14.41599,-4.09343 7.119,2.31368 24.20463,-5.69521 11.92433,-12.28028 -55.23446,-85.76473 z"
     id="path1003"
     inkscape:label="Jardim Bandeirante" /><path
     style="display:inline;fill:#000000;stroke:none;stroke-width:20"
     d="m 740.58628,378.29905 159.25623,45.99377 8.89875,9.96661 25.27247,21.00107 10.67853,4.62735 2.49164,3.55951 -19.93321,13.17016 -37.3748,6.05116 -14.59397,-8.89876 -19.9332,5.69521 -8.89876,11.74636 3.55949,8.89876 -13.17016,26.69627 -20.64512,17.79752 -18.86538,5.34891 -12.81419,17.43192 -23.84869,12.45826 -55.23446,-85.76473 z"
     id="path1007"
     inkscape:label="Pajuçara" /><path
     style="fill:#000000;stroke:none;stroke-width:20"
     d="m 760.66591,312.16855 41.64621,8.18677 241.69028,102.15775 57.308,12.81421 -7.4749,2.8476 -42.7141,-9.61066 -36.3069,-0.7119 -6.0512,8.89876 -16.72964,9.25471 -37.73075,7.83091 -7.11901,9.61066 -2.49164,-3.55951 -10.67853,-4.62735 -25.27247,-21.00107 -8.89875,-9.96661 -159.25623,-45.99377 z"
     id="path1041"
     inkscape:label="Boa Esperança" /><path
     style="display:inline;fill:#000000;stroke:none;stroke-width:20"
     d="m 775.52684,269.2406 13.97106,-41.78834 12.45825,-5.51722 106.78511,85.96201 -18.47979,49.63274 -87.94935,-37.17447 -41.64621,-8.18677 z"
     id="path1076"
     inkscape:label="Cidade Nova" /><path
     style="display:inline;fill:#000000;stroke:none;stroke-width:20"
     d="m 908.74126,307.89705 17.44157,8.54281 v 3.20356 l 137.04087,55.52825 45.9176,51.96875 -7.8309,8.18686 -57.308,-12.81421 -153.74093,-64.98328 z"
     id="path1078"
     inkscape:label="Novo Mondubim" /><path
     style="display:inline;fill:#000000;stroke:none;stroke-width:20"
     d="m 351.67896,21.00106 64.07106,112.12436 40.22239,50.54497 14.23801,11.39039 54.46041,-53.74849 16.72967,-19.93323 -49.12115,-17.44157 7.119,-11.39039 L 450.2772,57.66395 465.58307,39.51049 394.03705,19.93321 374.45978,0 Z"
     id="path1080"
     inkscape:label="Siqueira" /><path
     style="display:inline;fill:#000000;stroke:none;stroke-width:20"
     d="M 322.60474,347.52348 181.17872,323.20292 74.74958,290.81144 l 36.66289,-96.1066 53.0366,1.06785 29.54387,9.61065 83.64834,-13.52611 135.16295,67.87606 -8.44462,21.11154 -41.29024,26.34032 -8.18686,11.39041 -7.47496,3.91546 z"
     id="path1118"
     inkscape:label="Jaçanaú" /><path
     style="display:inline;fill:#000000;stroke:none;stroke-width:20"
     d="M 74.74958,290.81144 18.50943,371.25622 0,410.27727 l 167.65262,96.95198 77.59718,-80.08883 63.71511,-65.85081 13.63983,-13.76613 -141.42602,-24.32056 z"
     id="path1120"
     inkscape:label="Macunã" /><path
     style="display:inline;fill:#000000;stroke:none;stroke-width:20"
     d="m 277.64128,191.85723 68.24233,-31.60054 -4.5305,-29.19661 -22.14916,-49.33219 10.0678,-30.20338 22.40721,-12.58475 v -17.9387 l 64.07106,112.12436 40.22239,50.54497 14.23801,11.39039 -35.59503,40.22241 -17.44157,13.52611 -4.36959,10.92399 z"
     id="path1122"
     inkscape:label="Jari" /></svg>
