<?xml version="1.0" encoding="UTF-8" standalone="no"?>
<svg version="1.1" width="1000.0549" height="1395.2181" viewBox="-40.7834 13.1825 0.4937771 0.96112" id="svg6"
  xml:space="preserve" xmlns="http://www.w3.org/2000/svg" xmlns:svg="http://www.w3.org/2000/svg">
  <defs id="defs10" />
  <path class="neighborhood"
    d="m -40.668144,13.1825 -0.126029,0.07698 -0.0064,0.05123 -0.01281,0.0079 -0.01676,0.04169 -0.05082,0.07412 0.01635,0.04183 0.06009,0.04605 -0.0139,0.04305 0.03651,0.0312 0.02139,0.03829 -0.002,0.02561 0.01308,0.02085 -0.0061,0.03311 0.01008,0.0139 -0.0078,0.0357 -0.01839,0.02398 1.34e-4,0.04006 -0.01403,0.01785 0.0093,0.0173 -0.02207,0.0097 -0.0034,0.03979 0.01294,0.03665 -0.01199,0.01799 0.02943,0.0079 0.0027,0.05109 0.03093,0.03202 0.03093,0.01921 0.01036,-0.0052 0.05532,0.04224 0.04333,0.0078 0.06336,-0.0037 0.002,0.02493 0.03025,-0.0018 0.08951,-0.02997 -0.02534,-0.02929 -0.04714,-0.03434 -0.03651,-0.04074 -0.02371,-0.08202 0.01063,-0.01362 0.03692,-0.004 0.02711,-0.0188 0.01117,-0.03079 -0.01771,-0.0026 -0.01717,-0.03243 0.02507,-0.01485 0.04169,0.02003 0.005,-0.03447 0.02575,5.46e-4 0.0099,-0.01907 -0.01744,-0.01621 -0.0084,-0.03038 0.01921,0.0075 0.03106,-0.02044 0.05954,-0.08979 0.04115,-0.03079 0.02085,-0.03638 0.0022,-0.02902 0.01976,-0.03079 0.01431,-0.04918 -0.0038,-0.03106 0.01649,-0.01431 -0.17467,-0.07535 -0.132432,-0.115811 -0.03025,-0.0297 -0.0808,0.04346 z"
    data-name="Itamaraju" id="maracas" />
</svg>