<?xml version="1.0" encoding="UTF-8" standalone="no"?>
<!-- Created with Inkscape (http://www.inkscape.org/) -->

<svg
   width="1000"
   height="1081.6143"
   viewBox="0 0 264.58333 286.1771"
   version="1.1"
   id="svg5"
   inkscape:version="1.2.2 (b0a8486, 2022-12-01)"
   sodipodi:docname="Maranguape-CE.svg"
   xml:space="preserve"
   xmlns:inkscape="http://www.inkscape.org/namespaces/inkscape"
   xmlns:sodipodi="http://sodipodi.sourceforge.net/DTD/sodipodi-0.dtd"
   xmlns="http://www.w3.org/2000/svg"
   xmlns:svg="http://www.w3.org/2000/svg"><sodipodi:namedview
     id="namedview7"
     pagecolor="#505050"
     bordercolor="#eeeeee"
     borderopacity="1"
     inkscape:showpageshadow="0"
     inkscape:pageopacity="0"
     inkscape:pagecheckerboard="0"
     inkscape:deskcolor="#505050"
     inkscape:document-units="mm"
     showgrid="false"
     inkscape:zoom="0.52560324"
     inkscape:cx="560.30857"
     inkscape:cy="424.2744"
     inkscape:window-width="1366"
     inkscape:window-height="740"
     inkscape:window-x="0"
     inkscape:window-y="0"
     inkscape:window-maximized="0"
     inkscape:current-layer="svg5" /><defs
     id="defs2" /><path
     id="path990"
     style="opacity:1;fill:#000000;stroke-width:0.223041;-inkscape-stroke:none;stop-color:#000000"
     inkscape:label="Zona Rural"
     d="m 252.4308,47.948323 -3.71321,4.444655 -2.64429,1.350272 -1.91296,5.119827 -1.80036,0.956432 -1.40652,3.094467 v 2.644292 l -1.51911,1.350274 -3.20688,-1.631611 -6.02001,6.695103 -2.3067,2.92563 -5.45742,-1.237774 -8.72056,8.045465 -5.96367,-6.638941 -17.3286,-5.457332 -14.74057,11.083504 4.72599,13.165293 6.35751,6.357521 0.61893,2.58804 -0.56268,3.54447 3.71332,1.80037 4.2759,0.45017 0.50633,2.53171 2.47555,1.12527 1.18142,-1.40652 0.28136,-2.47555 3.54446,0.73143 2.1942,1.63152 3.03813,-0.1125 1.91295,1.74411 1.96911,-2.53179 2.02545,-0.78759 1.85661,-0.50643 -0.56258,-2.3067 1.7441,-5.45734 4.10706,2.81304 1.06903,-1.06893 10.57716,4.21957 0.67508,-2.92554 2.02546,-3.09446 0.67518,2.25052 2.13794,2.47545 0.61886,-3.43197 0.50633,-1.7441 4.95108,0.4501 6.01993,-5.232351 2.36303,-0.225 4.05082,-2.92563 -0.95643,-1.631609 2.36295,-4.557156 -0.84393,-2.250449 3.09438,-4.332151 3.48831,-2.700545 0.67509,-1.631605 -4.5009,-3.938315 1.06893,-4.219648 -1.29402,-0.90018 -0.90019,-3.038134 1.29403,-0.168751 2.36295,-6.132511 -0.3375,-3.319467 0.73134,-0.787682 -2.47546,-4.275899 -2.81312,0.956516 -1.57528,-0.843929 z m 5.53868,3.485477 0.35261,0.689174 -0.30453,1.827242 -0.48083,1.073912 -2.90124,3.253774 v 8.4e-5 h -0.5449 l -0.0801,1.073913 1.08989,-0.06415 3.12555,2.308072 -1.92342,1.057942 -0.44881,0.496892 1.71509,0.993703 -0.27249,0.817478 0.4007,0.384738 -0.43274,1.186072 -0.0642,0.801421 -0.32059,0.657142 -0.4968,-0.304524 -0.24046,0.160334 -0.4969,0.14419 -0.83345,1.314373 -0.68926,0.0481 -0.67432,-0.07275 -1.29205,2.538838 -2.07405,0.555287 -0.4647,0.283401 -0.64606,-0.374002 -1.79074,0.04534 -0.62339,-1.348721 0.0227,-0.623397 0.60072,-0.603296 0.14738,-0.666076 0.35132,-0.340078 -0.28872,-0.532623 -1.37853,-4.335668 -0.47491,-0.761402 0.068,-0.626572 0.0794,-0.238055 0.63473,-0.345491 0.33999,-0.742507 -1.12209,-1.076749 1.26835,-1.81118 1.23425,-1.458648 1.06583,-0.416687 3.12556,-3.84685 h 9e-5 l 3.18962,-1.10603 z" /><path
     style="display:inline;fill:#000000;stroke-width:0.30291;-inkscape-stroke:none;stop-color:#000000"
     d="m 85.393825,172.677 -19.987993,12.02939 -16.657093,20.32471 0.152817,15.43454 -5.042973,13.60076 -14.976103,-0.61127 -4.737337,4.58452 -1.986626,8.98139 -8.09932,8.13415 -0.305636,8.40497 8.404956,18.18525 24.145143,-0.61126 8.710593,5.04296 6.26551,-3.82042 27.96558,-7.48804 17.421177,-34.23111 9.09166,0.98059 3.45787,-23.34058 4.53844,-10.5897 -1.18864,-4.97068 -6.15932,-7.13184 -7.78019,-3.24175 -2.37728,4.10622 1.94505,6.05125 -21.122185,-4.97067 -6.756826,-4.97068 8.860771,-12.96698 z"
     id="path435"
     inkscape:label="Urucara" /><path
     style="display:inline;fill:#000000;stroke-width:0.30291;-inkscape-stroke:none;stop-color:#000000"
     d="m 114.24537,106.7615 14.69591,-0.86447 42.1427,31.12076 -25.93397,14.26368 -6.05126,6.69961 23.12446,13.39922 -3.67398,11.02193 5.40291,5.1868 -5.83515,15.99261 -0.86446,10.80582 -4.32233,8.86076 -6.69961,-4.1062 -3.24174,2.16115 -4.53844,-9.07687 -4.53845,-39.5493 -12.75087,1.08058 -7.34795,-18.58601 -3.24175,-1.08059 5.4029,-7.13184 -22.259979,-9.72523 -3.02563,2.59339 -3.616756,-0.21612 -5.113647,7.56408 -7.91056,-4.32233 1.728931,-4.32232 11.295276,-3.45787 5.5618,-13.83144 2.593397,-1.72894 -6.19128,-11.04813 6.407401,-2.5672 z"
     id="path419"
     inkscape:label="Tangueira" /><path
     style="display:inline;fill:#000000;stroke-width:0.30291;-inkscape-stroke:none;stop-color:#000000"
     d="m 6.4032882,167.81438 7.3502728,-1.62088 2.158849,2.5934 20.963289,-5.51097 2.269225,-2.37728 18.802123,-3.3498 1.620872,2.59339 -1.404751,4.43038 h 1.404751 l -2.70145,10.58972 10.049409,3.02563 0.963923,5.0295 -2.473969,1.48892 -9.617373,11.73495 -7.45859,-2.80106 -4.322329,0.21612 -1.72893,-4.53845 z"
     id="path452"
     inkscape:label="Santos Dumont" /><path
     style="display:inline;fill:#000000;stroke-width:0.30291;-inkscape-stroke:none;stop-color:#000000"
     d="m 48.113752,66.996078 -14.371739,5.61903 -16.640963,19.666591 18.477952,14.263681 2.161165,-0.64835 5.619023,3.02563 8.536597,-0.64835 4.970682,0.7564 7.456012,-2.48533 v -4.75456 l 4.754562,-1.72894 6.051261,-13.615321 z"
     id="path460"
     inkscape:label="Preguiça" /><path
     style="display:inline;fill:#000000;stroke-width:0.30291;-inkscape-stroke:none;stop-color:#000000"
     d="m 57.947047,157.54885 7.888253,-3.45787 2.044501,6.4835 20.175993,-0.22378 0.471722,4.22192 1.080578,4.43039 -4.214269,3.67399 -17.514024,10.54047 -0.963923,-5.0295 -10.049409,-3.02563 2.70145,-10.58972 h -1.404751 l 1.404751,-4.43038 z"
     id="path454"
     inkscape:label="Parque Iracema" /><path
     style="display:inline;fill:#000000;stroke-width:0.30291;-inkscape-stroke:none;stop-color:#000000"
     d="m 59.027634,132.91158 10.373582,8.32048 -3.565916,12.85892 -7.888253,3.45787 -18.802123,3.3498 -2.269225,2.37728 -20.963289,5.51097 -2.158849,-2.5934 3.347489,-2.5759 3.834928,0.95502 3.579348,-3.99814 5.436877,-1.08295 4.584518,-3.5148 4.737342,0.61127 9.780311,-9.16904 z"
     id="path486"
     inkscape:label="Parque Santa Fé" /><path
     style="display:inline;fill:#000000;stroke-width:0.30291;-inkscape-stroke:none;stop-color:#000000"
     d="M 17.10105,92.281699 1.7998775e-7,116.70267 15.128918,131.22031 l 12.683842,-1.37536 3.667616,-3.5148 9.321861,-3.5148 7.311515,-6.00444 3.133687,-3.34981 0.648348,-5.18679 -8.536597,0.64835 -5.619023,-3.02563 -2.161166,0.64835 z"
     id="path480"
     inkscape:label="Pirapora" /><path
     style="display:inline;fill:#000000;stroke-width:0.30291;-inkscape-stroke:none;stop-color:#000000"
     d="m 90.256448,15.128147 -42.142696,51.867933 27.014552,19.450479 -6.051261,13.615321 -4.754562,1.72894 v 4.75456 l 3.673984,0.43223 2.377277,4.53845 11.584536,2.80951 v -3.02563 l 13.484965,-5.40291 18.802127,0.86447 1.08058,-14.479801 h 7.34796 l -20.96329,-21.395526 -2.593401,1.945047 -4.322329,-4.322324 3.890096,-4.106211 -6.051261,-6.699609 9.076895,-9.293006 -3.8901,-4.322326 z"
     id="path417"
     inkscape:label="Outra Banda" /><path
     style="display:inline;fill:#000000;stroke-width:0.30291;-inkscape-stroke:none;stop-color:#000000"
     d="m 81.958278,147.17526 5.113647,4.36976 1.455591,13.0276 18.586004,-5.72708 3.45787,-4.75456 5.4029,-7.13184 -22.259979,-9.72523 -3.02563,2.59339 -3.616756,-0.21612 z"
     id="path433"
     inkscape:label="Parque São João" /><path
     style="display:inline;fill:#000000;stroke-width:0.30291;-inkscape-stroke:none;stop-color:#000000"
     d="m 28.88248,233.45513 -3.893181,-7.18126 -18.5860108,-58.45949 35.8753218,21.50357 1.72893,4.53845 4.322329,-0.21612 7.45859,2.80106 -7.039721,8.58976 0.152818,15.43454 -5.042973,13.60076 z"
     id="path437"
     inkscape:label="Novo Parque Iracema" /><path
     id="path415"
     style="display:inline;fill:#000000;stroke-width:0.30291;-inkscape-stroke:none;stop-color:#000000"
     d="M 135.33297,36.397551 101.71078,70.88632 122.67373,92.281896 161.79091,48.40985 150.33681,41.278435 139.53097,38.901001 Z"
     inkscape:label="Novo Maranguape II" /><path
     id="path756"
     style="display:inline;fill:#000000;stroke-width:0.30291;-inkscape-stroke:none;stop-color:#000000"
     d="m 90.256233,15.12799 7.564476,28.959615 3.890071,4.322245 -9.077115,9.293202 6.051407,6.69968 -3.890062,4.106154 4.322243,4.322244 2.593527,-1.94481 33.62219,-34.488769 -19.35848,-11.544178 -2.16134,1.945254 z"
     inkscape:label="Novo Maranguape I" /><path
     style="display:inline;fill:#000000;stroke-width:0.30291;-inkscape-stroke:none;stop-color:#000000"
     d="m 142.98885,221.30317 -6.69961,1.94505 -11.23805,17.72155 -9.29301,0.64836 3.45787,-23.34058 4.53844,-10.5897 -1.18864,-4.97068 -6.15932,-7.13184 -7.78019,-3.24175 -2.37728,4.10622 1.94505,6.05125 -21.122185,-4.97067 -6.756826,-4.97068 8.860771,-12.96698 7.131839,1.94505 24.853381,-7.78019 12.75087,-1.08058 4.53845,39.5493 z"
     id="path429"
     inkscape:label="Lameirão" /><path
     style="display:inline;fill:#000000;stroke-width:0.30291;-inkscape-stroke:none;stop-color:#000000"
     d="m 15.128918,131.22031 -4.584521,10.01175 -8.5577722,4.65872 -1.0697205,3.20916 12.8366567,-0.61127 5.80706,-3.82043 7.793686,-1.81531 2.445079,-4.14457 9.627494,-6.72396 3.93231,-4.90796 4.754562,-5.29485 v -4.97068 l -7.311515,6.00444 -9.321861,3.5148 -3.667616,3.5148 z"
     id="path482"
     inkscape:label="Gavião" /><path
     style="display:inline;fill:#000000;stroke-width:0.30291;-inkscape-stroke:none;stop-color:#000000"
     d="M 0.9169043,149.09994 1.7998775e-7,157.54885 6.4032882,167.81438 l 7.3502728,-1.62088 3.347489,-2.5759 3.834928,0.95502 3.579348,-3.99814 5.436877,-1.08295 4.58452,-3.5148 4.73734,0.61127 9.780311,-9.16904 9.97326,-14.50738 -2.701458,-3.56592 -3.24175,-0.54029 0.10806,-2.26923 -9.833296,0.5403 -3.93231,4.90796 -9.627494,6.72396 -2.445079,4.14457 -7.793686,1.81531 -5.80706,3.82043 z"
     id="path484"
     inkscape:label="Guabiraba" /><path
     style="display:inline;fill:#000000;stroke-width:0.30291;-inkscape-stroke:none;stop-color:#000000"
     d="M 90.256448,15.128147 133.26361,0.21611642 167.62612,-4.6887275e-8 172.38068,9.2930047 168.27446,33.930274 161.79098,48.41007 150.33681,41.278229 139.53098,38.900951 115.97429,24.853386 l -2.16115,1.945047 z"
     id="path411"
     inkscape:label="Cônego Raimundo Pinto" /><path
     style="display:inline;fill:#000000;stroke-width:0.30291;-inkscape-stroke:none;stop-color:#000000"
     d="m 89.17587,179.59272 -3.782045,-6.91572 4.214269,-3.67399 -1.080578,-4.43039 18.586004,-5.72708 3.45787,-4.75456 3.24175,1.08059 7.34795,18.58601 -24.853381,7.78019 z"
     id="path431"
     inkscape:label="Coité" /><path
     style="display:inline;fill:#000000;stroke-width:0.30291;-inkscape-stroke:none;stop-color:#000000"
     d="m 64.322481,106.54538 -7.456012,2.48533 -4.97068,-0.7564 -0.648349,5.18679 -3.133688,3.34981 v 4.97068 l -4.75456,5.29485 9.833296,-0.5403 -0.10806,2.26923 3.241748,0.54029 2.701458,3.56592 10.373582,8.32048 4.646502,1.62087 1.728931,-4.32232 11.295276,-3.45787 5.5618,-13.83144 2.593397,-1.72894 -6.19128,-11.04813 -7.077564,2.83571 v 3.02563 l -11.584536,-2.80951 -2.377277,-4.53845 z"
     id="path458"
     inkscape:label="Centro" /><path
     style="display:inline;fill:#000000;stroke-width:0.30291;-inkscape-stroke:none;stop-color:#000000"
     d="m 65.8353,154.09098 3.565916,-12.85892 4.646502,1.62087 7.91056,4.32233 5.113647,4.36976 0.983869,8.80568 -20.175993,0.22378 z"
     id="path456"
     inkscape:label="Aldeoma" /></svg>
