<?xml version="1.0" encoding="UTF-8" standalone="no"?>
<svg version="1.1" id="svg2" width="999.99969" height="1429.5839" viewBox="0 0 999.99969 1429.5839"
   xmlns="http://www.w3.org/2000/svg" xmlns:svg="http://www.w3.org/2000/svg">
   <defs id="defs6" />
   <path class="neighborhood"
      d="m 553.28901,770.73099 -0.18723,0.52845 22.19596,7.85981 0.58999,0.21287 12.98095,4.7541 13.05263,4.73818 0.33441,0.12954 0.15357,-0.47126 0.13035,-0.31624 6.51398,-17.54683 7.47394,-20.61488 -0.0644,-0.35689 -0.30273,-0.21581 -6.16507,-2.38103 -6.31999,-2.51276 -0.47126,-0.22943 -0.2867,-0.24893 -10.04896,-10.97928 -19.01571,-22.44062 -0.15572,0.66749 -0.24465,0.79779 -1.69979,5.66334 -1.07724,3.58783 -0.76955,2.50916 -0.7384,2.40854 0.0521,0.53718 -0.10016,0.40107 -0.17228,0.59361 -1.20971,3.32003 -2.26012,6.09843 -0.88034,2.38608 -1.05043,2.84799 -0.39236,1.02436 -0.49951,1.30093 -0.21234,0.62914 -1.5898,4.51371 -0.44521,1.2633 -1.94447,5.15661 -0.0991,0.27137 -0.11218,0.55742 -1.44134,4.16193 -0.7558,2.14431 -2.57649,6.69499 -0.18883,0.55451 z"
      data-name="Lagoa Seca" id="lagoa_seca" />
   <path class="neighborhood"
      d="m 551.87296,667.18606 2.78282,5.56852 10.38275,20.97543 7.86846,15.3127 0.64869,1.13662 0.29663,0.46038 19.01566,22.44065 10.04902,10.97928 0.28669,0.24893 0.47126,0.22943 6.31999,2.51279 6.16508,2.381 0.30272,0.21581 0.71381,-0.48792 -0.05,-0.83544 6.18385,-16.83952 0.85647,-1.94668 8.03643,-21.85208 0.97514,-2.07989 12.88829,5.18199 0.36995,0.13168 0.1883,-0.59434 2.45921,-7.09242 2.65253,-7.21983 -0.29025,-0.0919 -0.76228,-0.28526 -3.12523,-1.16912 -0.2265,-0.0847 -0.23104,-0.0863 -1.90613,-0.6798 -1.96189,-0.70003 -0.55162,-0.19685 -0.94837,-0.3547 -0.75142,-0.28239 -1.84967,-0.6957 -5.069,-1.84458 -0.84995,-0.3344 -4.22996,-1.55793 -3.12453,-1.15608 -0.52629,-0.1851 -0.77096,-0.29236 -0.67185,-0.25774 -2.36511,-0.90855 -1.70125,-0.65299 -2.92905,-1.12427 -0.83689,-0.32159 -1.41746,-0.54441 -3.16869,-1.21618 -2.98263,-1.14527 -4.10039,-1.57385 0.9223,-4.31033 0.16854,-0.7985 0.17441,-0.73987 1.14887,-4.47326 0.73192,-3.29102 0.32871,-1.51954 0.50529,-2.72705 0.29452,-1.43194 0.16693,-0.8847 0.10577,-0.47126 0.10016,-0.42134 0.17442,-0.83472 -0.63996,-0.61458 -3.27002,-3.12601 -3.69644,-4.91045 -4.31829,-5.39553 -1.40876,-1.38707 -1.83738,-1.72948 -0.51835,0.86151 -0.55598,1.09241 -0.9317,0.84124 -14.29415,5.65105 -0.30486,0.23905 -2.98984,1.97857 -1.40878,1.0765 -1.8902,1.38124 -0.25026,0.1867 -0.60452,0.44957 -6.1643,4.5876 -1.40226,1.05622 -3.67689,2.80018 -3.1122,2.48749 -2.19356,1.80547 -1.25023,1.04391 -0.38876,0.29097 -0.22943,0.15198 z"
      data-name="Barro Vermelho" id="barro_vermelho" />
   <path class="neighborhood"
      d="m 553.24774,611.02289 -10.85544,-13.56081 -10.85839,7.31465 -35.42449,8.39122 -40.48406,3.91577 16.16118,20.00094 0.29845,0.36848 14.24639,17.63084 0.48576,0.67978 0.65515,0.73188 4.53621,1.7476 -0.12901,1.78015 -0.51621,2.24059 -0.97008,1.9141 -2.43311,3.9107 -2.42158,2.16677 -4.86633,2.32964 -3.6349,1.20609 -1.58472,0.98888 -1.5152,1.7454 -0.82019,1.61442 -0.32371,1.09094 -0.047,2.04947 0.37353,2.25584 0.21928,0.61966 1.45582,2.78792 0.6472,1.18578 2.06107,4.23867 0.38366,2.13851 0.0134,1.80331 -0.64572,2.19932 -3.63418,4.67737 -0.90061,2.44185 0.0286,2.85018 1.36823,3.39379 2.22174,3.37427 0.85136,2.44692 v 2.47297 l -0.99399,2.41073 -2.48164,2.1986 -7.87787,5.77488 -7.40372,5.24422 -0.44669,0.32441 13.27922,4.91631 20.73865,7.70778 3.92085,1.25168 0.67831,0.2102 25.18292,9.56469 31.31542,11.48961 0.18723,-0.52844 0.18883,-0.55457 2.57649,-6.69499 0.7558,-2.1443 1.44134,-4.16188 0.11218,-0.55747 0.0991,-0.27137 1.94452,-5.15661 0.44519,-1.26325 1.58977,-4.51377 0.21234,-0.62911 0.49952,-1.3009 0.39238,-1.02436 1.05043,-2.84802 0.88031,-2.38605 2.26009,-6.09849 1.20972,-3.31997 0.17228,-0.59364 0.10016,-0.40107 -0.0521,-0.53718 0.73841,-2.40854 0.76955,-2.50912 1.07721,-3.58787 1.69981,-5.66337 0.24466,-0.79778 0.15571,-0.66749 -0.29666,-0.46039 -0.64866,-1.13662 -7.86846,-15.3127 -10.38275,-20.97543 -2.78282,-5.56852 0.22943,-0.15198 0.38876,-0.29094 1.25029,-1.04391 2.1935,-1.80547 3.1122,-2.48749 3.67689,-2.80018 1.40227,-1.05622 6.1643,-4.5876 0.60454,-0.44957 0.2508,-0.1867 1.89022,-1.38127 1.40878,-1.07649 2.98984,-1.97855 0.30484,-0.23852 14.29417,-5.65105 0.9317,-0.84124 0.55598,-1.09241 0.51837,-0.86151 -0.9368,-0.68846 -0.57697,-0.28881 -3.76303,-2.77633 -2.27531,0.0833 -3.01741,-1.68891 -2.53306,-1.77802 -4.93583,-3.68487 -2.19281,-3.09842 -0.73555,-0.74711 -2.0118,-0.9918 -3.09919,-1.38926 -5.66772,-4.05186 -5.20653,-3.17953 -3.83982,-3.9013 z"
      data-name="Alecrim" id="alecrim" />
   <path class="neighborhood"
      d="m 287.55361,234.09848 -0.25774,-0.46766 -0.19418,-0.57048 -0.0772,-0.68047 -0.75724,1.01423 -0.13114,0.33798 -0.0441,0.52631 -0.17014,0.32799 -1.75918,2.30071 -1.48915,1.7367 -0.61028,0.71164 -0.99036,1.23576 -1.94161,2.11538 -0.57334,0.61824 -2.20366,2.49252 -0.27136,0.23157 -2.64091,2.82122 -2.76688,2.9848 -1.37913,1.50721 -0.92228,0.97518 -3.76665,4.1829 -1.02944,1.14019 -2.806,2.88854 -2.68942,2.84943 -8.47516,8.81975 -2.68002,2.86895 -5.23262,5.29417 -3.44665,3.47707 -2.78646,2.69524 -2.76692,2.80162 -5.40779,5.3615 -2.41797,2.45341 -0.33013,0.36704 -2.01837,2.02559 -0.71957,0.76594 -2.7126,2.64382 -0.10283,0.10016 -12.33518,12.22805 17.49398,1.31829 2.40346,0.5328 -0.4423,1.78597 -0.25615,1.03525 -0.91941,1.52895 -0.33154,0.39017 -2.13921,1.89022 -6.12381,6.10135 -0.27209,0.36707 -0.25186,0.41046 -0.3547,0.65732 -0.39525,0.77754 -1.76495,3.17371 -0.43876,0.86655 -0.65224,1.3813 -0.31624,1.05548 -2.48097,7.79536 -0.71015,2.60477 -0.11939,0.43795 -0.24813,0.77823 -0.082,0.25561 -1.48114,4.70921 -1.4805,4.7092 -0.76661,2.76255 -0.94401,4.20031 -0.57412,2.55405 -0.003,0.0134 -0.5567,2.4766 -0.58275,3.16866 -0.27137,1.29444 -0.89259,3.99393 -1.07871,4.8251 -0.30342,1.29583 -0.86581,3.92592 -0.59797,2.70897 -0.75726,4.10546 -0.41264,1.85473 -1.33493,5.48671 -0.50459,2.15878 -0.14023,0.6523 -0.87889,3.89261 -0.76734,3.93172 -0.3497,1.54562 -0.66966,2.98477 -0.25774,1.25892 -0.14984,0.73122 -0.39308,1.85469 -0.42281,1.99444 -0.0532,0.28953 -0.18029,0.67615 -1.01859,4.54489 -0.26282,1.16914 -0.12206,0.5531 -0.4836,2.16239 -1.83733,8.01982 0.25186,0.3656 19.21048,6.18313 56.68365,17.42159 0.67401,0.14664 0.13808,3.05434 0.15625,0.42853 2.51859,0.74786 15.9998,4.76206 3.44158,0.93675 4.25242,1.48264 0.66455,0.40325 1.82144,-6.89408 1.96837,-8.29851 1.92714,-7.31034 2.02777,-8.70102 0.91648,-3.83036 1.25822,-4.86991 0.6747,-2.00892 0.76523,-1.43846 1.10472,-1.61151 1.7063,-1.62959 2.96455,-2.02486 3.00218,-1.62451 3.64284,-1.92422 1.24299,-0.94185 1.51811,-1.47396 1.25387,-1.73741 1.67735,-3.53936 1.98506,-4.22633 1.05838,-1.54492 1.09749,-1.30379 1.23504,-1.12283 1.08517,-0.72105 1.20246,-0.63272 1.99519,-0.67254 2.20149,-0.3223 1.86634,-0.0986 4.26687,-0.45609 1.67665,-0.13461 1.67737,0.0187 48.38877,68.22547 3.89914,-3.33814 0.53207,-3.87159 -2.24852,-4.40157 -1.16627,-2.28327 -8.0292,-5.58663 -4.25244,-5.36802 -0.69714,-2.11824 -1.12572,-3.41842 1.38199,-2.2681 2.00529,-3.2903 2.81831,-1.41824 3.28741,-0.56901 2.07553,0.32943 1.21114,0.19151 3.24978,1.45801 3.41986,2.52368 2.37454,2.89722 2.67566,6.96208 2.91965,5.4397 0.76955,1.43336 5.10234,1.92935 6.41334,2.42446 5.21673,0.92515 9.63852,1.70999 5.89427,-0.82388 8.0401,-1.12355 2.33036,-2.31877 2.62136,-2.60761 3.7232,-5.10017 1.01496,-1.39068 -19.05551,-26.60907 -20.11026,-27.60164 -12.37866,-17.06828 -1.19305,-1.42398 -0.44957,-0.62623 -1.45943,-1.87427 -2.54465,-3.39959 -0.4235,-0.55385 -3.06805,-4.05116 -3.25338,-4.29582 -0.0665,-0.0876 -0.0489,-0.0724 -0.25774,-0.34971 -0.31945,-0.43221 -2.29561,-2.88851 -2.56492,-3.26137 -1.71068,-2.23624 -0.7804,-0.95704 -1.61148,-2.0574 -5.18268,-6.88756 -0.58133,-0.77318 -2.79585,-3.65157 -2.42734,-3.24831 -0.61536,-0.80862 -0.88758,-1.15395 -3.3185,-4.35739 -3.15712,-4.21407 -3.54802,-4.72223 -6.87957,-8.76908 -2.07337,-2.56778 -0.13648,-0.168 -3.47855,-4.52681 -0.80066,-1.06851 -4.03669,-5.22175 -1.95315,-2.43461 -0.83547,-1.02364 -0.70873,-0.93677 -0.52412,-0.57989 -1.64118,-2.0864 -1.78595,-2.48236 -2.00023,-2.48312 -1.07796,-1.4486 -5.46572,-6.79128 -1.1605,-1.43413 -1.0533,-1.35737 -2.77631,-3.61319 -4.35447,-5.27389 -5.68727,-7.31828 -0.48288,-0.60304 -2.28475,-3.00149 -3.14259,-4.01206 -1.58183,-2.04583 -2.15587,-2.8422 -1.95174,-2.45341 -0.77606,-0.98528 -1.03961,-1.45438 -2.01904,-2.55044 -1.07144,-1.41603 -4.32264,-5.71478 -1.97417,-2.20077 -0.25774,-0.3141 z"
      data-name="Potengi" id="potengi" />
   <path class="neighborhood"
      d="m 385.07971,716.98577 -0.64212,-1.52387 -0.94188,-2.1255 -0.22356,-0.62257 -0.5922,-1.8207 -0.21287,-0.60812 0.18937,-3.91508 0.82238,-4.16046 1.69113,-5.46139 0.77751,-0.87454 3.25771,-1.65924 1.03309,-0.91581 0.11137,-4.86772 0.77102,-12.05724 0.10364,-0.5661 -0.40906,-0.1648 -0.27209,-0.10363 -2.20728,-0.87016 -6.64862,-3.40034 -0.0134,-0.75219 0.26095,-0.21875 1.38996,-2.62793 1.58036,-3.2454 0.54511,-0.96645 26.37093,-49.20826 -25.83519,-9.41846 -17.40859,-9.80212 -14.88126,-14.06831 -17.27464,-8.07116 -9.4206,-1.05625 -9.39167,1.85181 -0.70002,0.24039 -0.32158,0.17601 -9.29175,9.85497 -8.82047,15.71091 -7.94162,17.2884 -0.93456,4.42541 -3.98604,18.87816 0.74348,23.46359 -2.93263,18.43364 66.08469,52.17134 4.85693,3.29681 2.70822,2.99423 3.56976,3.72755 2.4064,2.45416 0.43002,0.45102 6.70364,-4.32336 2.14359,-1.10836 2.21524,-1.4117 0.37212,-0.30128 2.66484,-2.04369 1.08731,-0.76736 1.66001,-1.19305 1.55355,-1.20753 1.40302,-1.3668 2.46065,-3.63129 0.99035,-1.55499 0.87383,-1.91266 0.28167,-1.94161 -0.26202,-1.45875 -0.11618,-0.27564 -2.43098,-5.76762 z"
      data-name="Nordeste" id="nordeste" />
   <path class="neighborhood"
      d="m 391.12098,676.37353 -0.77099,12.05724 -0.11138,4.86775 -1.03303,0.91578 -3.25774,1.65924 -0.77751,0.87454 -1.69113,5.46142 -0.8224,4.16046 -0.18991,3.91505 0.21288,0.60812 0.59214,1.8207 0.22409,0.62257 0.94185,2.1255 0.64212,1.52387 2.43098,5.76762 0.11619,0.27564 0.26201,1.45875 -0.2817,1.94161 -0.87382,1.91266 -0.99033,1.55502 -2.46065,3.63126 -1.40302,1.3668 -1.55357,1.20753 -1.65999,1.19305 -1.08733,0.76736 3.94184,3.97008 4.5919,4.32263 3.70875,3.49156 3.57264,3.32795 1.81057,1.60788 2.72347,2.52366 1.03379,0.91506 3.38369,3.42421 2.05379,-1.49275 0.44161,-0.29453 0.64576,-0.45392 1.15974,-0.81082 2.16533,-1.61364 3.94182,-2.96239 5.36873,-4.13655 4.6962,-3.577 2.1407,-0.67617 4.01206,1.36175 4.91334,1.8236 3.66896,1.35956 0.44521,0.16961 0.38294,-0.25561 9.04634,-6.05864 10.14528,-7.5999 0.41335,-0.30913 0.44669,-0.32442 7.40372,-5.24421 7.87792,-5.77486 2.48164,-2.1986 0.99399,-2.41076 v -2.47296 l -0.85136,-2.44693 -2.22176,-3.37424 -1.36827,-3.39382 -0.0286,-2.85018 0.90056,-2.44185 3.63418,-4.67736 0.64575,-2.19933 -0.0134,-1.80331 -0.38368,-2.13851 -2.06106,-4.23864 -0.64716,-1.18581 -1.45588,-2.78789 -0.21928,-0.61969 -0.37356,-2.25584 0.047,-2.04946 0.32372,-1.09094 0.82022,-1.6144 1.51519,-1.7454 1.58472,-0.98891 3.63487,-1.20609 4.86634,-2.32964 2.42157,-2.16677 2.43314,-3.9107 0.97008,-1.9141 0.51622,-2.24059 0.129,-1.78012 -4.53621,-1.74762 -0.65515,-0.73189 -0.48576,-0.67978 -14.24639,-17.63083 -0.29845,-0.36848 -16.1612,-20.00094 -5.08567,0.41915 -19.61149,1.20608 -19.10837,-4.45947 -26.3709,49.20829 -0.54511,0.96645 -1.58039,3.2454 -1.38996,2.62791 -0.26148,0.21875 0.0187,0.75216 6.64867,3.40036 2.20726,0.87014 0.27209,0.10363 0.409,0.1648 -0.10363,0.56608 z"
      data-name="Quintas" id="quintas" />
   <path class="neighborhood"
      d="m 237.25435,764.74474 16.25968,14.90591 32.92038,29.28038 9.84845,2.79949 4.21623,1.61292 7.37982,2.79369 1.06202,-0.2102 3.60087,1.41094 21.03114,7.92571 10.77289,4.17424 22.56373,8.51998 4.21406,1.65133 0.17655,-0.30342 17.43538,-26.80022 8.19787,-13.03451 6.62907,-9.99324 2.27753,-3.41845 2.06754,-3.10279 0.35908,-0.53863 4.66003,-6.98964 0.82238,-1.23357 3.60304,-4.68533 1.37187,-1.69548 1.36893,-1.60929 0.26362,-0.28809 1.56731,-1.64046 3.11225,-3.23671 2.86388,-2.66848 1.72804,-1.58539 0.70297,-0.58856 0.86944,-0.72904 1.8692,-1.42398 2.72926,-2.03354 1.90686,-1.44428 0.14984,-0.11351 0.1429,-0.11005 -0.44522,-0.1696 -3.6689,-1.35953 -4.9134,-1.82361 -4.01206,-1.36172 -2.1407,0.67615 -4.69617,3.57699 -5.36871,4.13658 -3.94184,2.96236 -2.1653,1.61365 -1.1598,0.81081 -0.64573,0.45393 -0.44158,0.29449 -2.05382,1.49279 -3.38372,-3.42422 -1.03379,-0.91506 -2.72341,-2.52369 -1.81058,-1.60784 -3.57264,-3.32793 -3.70875,-3.49156 -4.59195,-4.32263 -3.94184,-3.97011 -2.66479,2.04369 -0.37212,0.30129 -2.21524,1.41172 -2.14359,1.10833 -6.70369,4.32339 -0.43002,-0.45105 -2.40635,-2.45416 -3.56976,-3.72755 -2.70827,-2.99422 -4.85688,-3.29682 -66.08475,-52.17134 -1.41602,8.90299 -5.81612,8.95802 -6.14189,19.6694 -9.43579,16.86489 -2.21888,3.96644 -21.13977,24.22662 z"
      data-name="Bom Pastor" id="bom_pastor" />
   <path class="neighborhood"
      d="m 219.55477,979.07975 -8.37885,-17.05305 -0.40395,-0.39455 -0.32444,-0.44957 -0.26576,-0.51907 -1.92857,-4.0309 -0.13382,-0.28026 -10.47901,-21.90494 -4.26617,-8.48964 -5.49323,-12.06439 -2.12478,-4.05699 -1.25168,-3.07238 -8.78208,-19.18873 -1.91194,-4.63177 -5.09435,-10.80695 -0.75072,-1.53621 -0.38662,-0.77097 -0.23477,-0.93173 -0.23825,-0.7442 -1.28501,-3.20488 -1.56658,-2.86027 -0.43943,-0.7261 -1.7939,-2.73722 -0.46408,-1.3031 -15.17376,-31.49348 -10.50288,-14.05817 -14.368,15.35907 -11.57219,5.25221 -16.83735,4.20608 -9.325751,4.46377 -4.114867,6.43438 -4.114173,6.43439 -5.171782,9.784 -2.284075,24.45683 -1.005527,29.31587 0.03846,4.28717 1.799675,12.04418 0.597274,14.14211 4.669379,12.63998 -0.820217,12.90202 -1.353014,9.58713 -11.148664,3.74059 1.338565,10.85473 1.037391,6.56976 0.233706,7.0287 -0.698609,10.2821 -0.9223,11.9515 0.163728,4.1807 0.04834,2.8046 0.797781,18.8644 0.143429,3.6805 0.858599,1.723 6.61243,6.742 1.019308,1.1047 5.514222,3.9766 4.956131,3.6479 3.331536,5.1885 2.868983,5.0683 2.108115,2.7792 1.974193,1.6615 1.309586,0.3422 0.474918,0.052 12.48359,2.3991 11.25289,-5.5214 3.04198,-1.5558 1.20176,-0.3561 0.75216,-0.2615 3.03981,-1.4848 1.17425,-0.6993 0.54439,-0.5292 0.45823,-0.3163 0.56324,-0.3468 4.5782,-2.4868 4.64334,-2.3716 0.77823,-0.3735 5.20658,-2.5042 2.00237,-1.1134 1.03021,-0.5198 8.68002,-4.3762 3.48285,-1.7866 1.72299,-0.9137 0.55815,-0.1541 0.63995,-0.1071 0.58494,-0.1231 0.6016,-0.2455 2.48888,-1.395 2.08715,-0.9889 2.05889,-1.0251 2.24492,-1.1605 2.30571,-1.1243 2.12333,-1.0924 1.85689,-0.9599 2.02633,-1.0707 1.9235,-1.1597 0.67182,-0.4012 14.35208,-7.7475 7.82214,-4.1431 1.71068,-0.8485 3.24108,-1.6643 5.2261,-2.5331 1.07433,-0.5321 2.43966,-1.2147 3.87237,-1.7585 6.89841,-3.2432 5.95151,-3.2252 0.50168,-0.2788 7.50289,-4.6065 1.13587,-0.6703 4.75044,-2.2848 0.54081,-0.072 0.61389,-0.1976 0.98023,-0.527 2.59893,-1.3958 8.32455,-3.7507 5.02125,-2.7691 1.38344,-1.1098 1.71866,-1.0048 1.76637,-0.9079 1.42764,-0.5502 1.55937,-0.2361 55.76135,-28.28568 -1.26036,-3.06006 -0.21368,-2.39698 -0.003,-0.56325 -0.003,-0.66674 0.13248,-1.68314 0.058,-0.83034 0.31624,-2.28475 -52.42688,-27.41627 -2.34342,9.47051 -14.42806,7.15327 -13.20825,6.74274 -4.19887,2.17113 -10.28208,4.84894 -5.71983,2.87692 -4.36534,2.33613 -2.34124,1.14602 -1.18218,-2.40494 z"
      data-name="Guarapes" id="guarapes" />
   <path class="neighborhood"
      d="m 696.06921,510.3513 -0.14396,0.31551 -0.27813,0.24039 -0.33012,0.12526 -1.4942,0.39675 -0.27885,-0.63638 -1.875,-0.96862 -1.43268,3.03696 -2.28691,4.82721 -2.23627,4.7389 -0.047,0.31269 0.0419,0.33296 -0.3476,0.31837 -0.23824,0.40614 -0.19845,0.54076 -1.38926,4.03161 -3.24321,6.44235 0.1039,0.0825 2.58952,2.48165 -0.47128,0.20806 -4.12064,2.0719 -0.27671,0.72176 0.63347,0.74204 1.34072,1.56952 -0.34043,0.54658 -0.20059,0.60954 -0.15411,0.65518 -0.0134,1.07719 -0.14022,0.92521 -0.19845,0.8926 -0.48285,1.15397 -0.67038,1.03235 -0.78331,1.00408 -0.79487,0.96717 -1.0642,0.96143 -2.62281,1.64046 -1.16193,0.66669 -3.71888,2.56637 -0.99973,0.78405 -1.74689,1.31397 -0.008,0.39308 14.14794,10.82938 0.39965,0.44594 0.2265,-0.15705 8.11752,-5.59967 0.6016,-0.0321 0.6327,0.26416 0.51327,0.44738 0.63923,0.69284 3.70948,4.16334 14.23626,13.30889 1.71789,1.41095 1.70488,0.94983 2.63298,1.23504 0.44883,0.246 0.64284,0.30627 0.35908,0.18163 0.87887,0.47128 0.33512,0.14557 0.40828,0.13809 0.78982,0.0772 0.31124,0.10069 0.49228,0.0187 0.20486,-0.0134 1.15614,-0.90854 2.2008,-1.06205 0.43867,-0.79051 1.37692,-0.75 0.42279,-0.10604 0.22729,-0.10577 0.14023,-0.094 0.14556,-0.097 5.30723,-4.13733 0.2735,-0.21714 1.29583,-0.5285 -2.2833,-3.03402 -1.38632,-0.0107 -2.8118,2.17759 -1.24444,0.0652 -1.75769,0.26149 -2.42884,-0.24466 -2.89721,-1.90977 -3.46696,-4.08156 -1.32406,-2.22828 -1.52895,-5.50194 -1.00486,-6.00581 -0.0187,-1.56228 -0.23211,-2.16239 -1.42035,-5.02555 0.0558,-5.30215 -1.06421,-2.67205 0.4532,-2.84289 0.68625,-3.26789 -0.73403,-0.83541 -1.37334,-0.23478 -0.96137,-3.20707 -0.21368,-17.16961 -2.85232,-3.31346 -2.88853,-1.80047 -1.73453,0.066 -1.62887,-0.51904 z"
      data-name="Praia do Meio" id="praia_do_meio" />
   <path class="neighborhood"
      d="m 530.19321,1200.508 15.68992,-32.9537 -0.72177,-0.3837 -0.8137,-0.3656 -4.87721,-2.8429 -0.56901,-0.3468 -28.83735,-17.5736 -43.57457,-25.8511 -13.91845,-8.2826 -1.19885,-0.6197 -2.34631,-1.2133 -0.65152,-0.3374 -17.36221,-11.048 -8.29488,-4.7975 -6.62405,-6.2179 -22.2126,-22.3154 -11.05599,-3.6719 -1.11776,-0.5856 5.32312,-8.6417 -5.64528,-3.5002 1.93073,-5.4918 -0.0665,-0.262 -0.2468,-0.4062 -0.30058,-0.3141 -2.45344,-2.027 -5.21377,-3.291 -7.56953,-5.5193 -3.27652,-2.722 -3.08039,-2.7401 -3.28303,-2.7192 -3.14986,-2.5033 -6.62477,-6.0587 -0.33226,-0.1824 -0.42203,-0.1036 -0.37353,0.037 -0.26282,0.1471 -2.64241,-6.068 -0.33227,0.6204 -5.1081,15.4249 -5.69812,17.1415 -4.65421,13.2727 -0.27884,1.5934 -1.60646,4.8424 -2.11023,6.3287 -2.11463,6.3431 -1.92638,6.2433 -4.22563,19.4087 -2.86538,11.5382 -0.18136,0.6884 -0.80574,2.8552 -0.48646,0.968 -0.81805,1.6281 -2.60982,4.5123 -1.0562,2.5961 -0.43512,2.9674 0.5046,5.1819 0.0815,2.0314 -0.12847,1.1677 -0.46982,1.7172 -1.52606,3.5958 -2.10085,4.3089 -1.47903,2.0321 -0.78622,0.7587 -1.50288,1.1213 -1.98357,0.9571 -2.38322,0.8412 -1.77219,0.6769 -1.37331,0.8173 -1.22059,1.0396 -1.08013,1.1793 -0.82166,1.2958 -2.05451,4.0874 -1.71356,3.4329 -0.78622,1.3545 -1.04465,1.2379 -1.81998,1.7165 -2.20654,1.8677 -4.02581,3.3519 -1.43269,1.3422 -0.93897,1.4247 -0.65732,1.2611 -0.23477,1.1445 -0.0702,1.1909 0.1429,1.1105 0.57118,2.3724 0.0435,0.1912 22.43918,-10.3791 13.82144,-6.5828 5.64024,-1.188 12.56175,2.8567 10.4848,4.5058 6.54227,1.909 6.11435,3.8854 19.01352,12.7949 16.3451,15.1375 5.34336,10.9402 3.23098,7.2321 11.18119,14.0987 19.88371,13.2271 7.28065,4.3133 11.02195,1.9169 6.01452,2.2088 6.90634,5.5005 8.66483,7.2821 11.45197,9.2005 0.98312,0.7695 0.64794,0.475 0.29663,0.472 4.1598,-7.9749 7.51592,-11.5092 13.5333,-18.556 12.33809,-16.694 3.417,-5.625 10.92423,-23.2247 z"
      data-name="Pitimbu" id="pitimbu" />
   <path class="neighborhood"
      d="m 272.39144,1183.3245 -0.57115,-2.3723 -0.14289,-1.1105 0.0702,-1.1909 0.23478,-1.1445 0.65734,-1.2611 0.93897,-1.4247 1.43269,-1.3422 4.02579,-3.3519 2.20659,-1.8677 1.81997,-1.7165 1.04466,-1.2379 0.78619,-1.3545 1.71356,-3.4329 2.05451,-4.0874 0.82169,-1.2958 1.08012,-1.1793 1.22054,-1.0396 1.37334,-0.8173 1.77216,-0.6769 2.38322,-0.8412 1.9836,-0.9571 1.50291,-1.1214 0.78619,-0.7586 1.479,-2.0321 2.10085,-4.3089 1.52606,-3.5958 0.46985,-1.7172 0.129,-1.1677 -0.0815,-2.0314 -0.50459,-5.182 0.43512,-2.9674 1.05622,-2.596 2.6098,-4.5123 0.81805,-1.6282 0.48646,-0.9679 0.80576,-2.8552 0.18083,-0.6884 2.86532,-11.5382 4.22563,-19.4088 1.92644,-6.2432 2.11458,-6.3432 2.11027,-6.3286 1.60641,-4.8425 0.27885,-1.5934 4.6542,-13.2726 5.69812,-17.1415 5.10811,-15.425 0.33226,-0.6204 -0.40395,-2.7364 -0.93168,-2.1632 -2.29924,-2.6583 -2.23696,-2.22538 -2.11247,-4.1416 -0.63272,-1.37622 -3.0333,-6.59726 -1.34217,-3.19545 -55.76137,28.28571 -1.55937,0.2361 -1.42759,0.5502 -1.76642,0.9078 -1.71861,1.0048 -1.38344,1.1099 -5.02125,2.769 -8.32455,3.7508 -2.59898,1.3957 -0.98018,0.527 -0.61394,0.1977 -0.54076,0.072 -4.75049,2.2847 -1.13587,0.6704 -7.50289,4.6064 -0.50168,0.2789 -5.95151,3.2251 -6.89841,3.2432 -3.87232,1.7585 -2.43971,1.2148 -1.07433,0.5321 -5.22611,2.5331 -3.24107,1.6643 -1.71062,0.8485 -7.82221,4.143 -14.35207,7.7476 -0.67182,0.4011 -1.9235,1.1597 -2.02628,1.0708 -1.85694,0.9599 -2.12328,1.0924 -2.30577,1.1243 -2.24492,1.1605 -2.05888,1.025 -2.0871,0.9889 -2.48888,1.3951 -0.6016,0.2455 -0.58499,0.1231 -0.63996,0.1071 -0.55814,0.1541 -1.72299,0.9136 -3.48285,1.7867 -8.68002,4.3762 -1.03016,0.5198 -2.00242,1.1134 -5.20659,2.5041 -0.77823,0.3736 -4.64333,2.3715 -4.5782,2.4868 -0.56319,0.3468 -0.45828,0.3163 -0.54439,0.5291 -1.17425,0.6994 -3.03982,1.4848 -0.75216,0.2615 -1.2017,0.3562 -3.04204,1.5557 -11.25288,5.5215 6.43222,1.4022 4.27192,0.792 5.03137,0.7732 3.52993,0.4626 0.13649,0.019 0.57623,0.099 2.26014,0.2945 1.77729,0.5212 1.95315,0.8361 1.56805,0.7443 2.92692,1.2698 2.69518,0.7152 3.93319,-0.1808 7.47319,-0.1867 2.76982,0.1242 6.29533,0.011 3.95854,0.1915 2.45488,0.1477 2.33902,0.2179 8.55046,1.4964 5.20076,1.0787 4.00629,1.4363 4.44136,2.491 7.15976,5.0792 10.08302,7.6354 5.21743,4.6708 1.34358,1.2025 2.78066,2.6786 3.73626,4.0309 2.72419,3.3127 1.39284,1.9821 1.05406,1.503 2.35063,3.9432 3.23095,3.7703 3.13971,3.0731 0.4778,0.5314 1.85398,1.6868 1.21698,1.1301 2.9942,2.2775 3.01882,2.0943 3.01228,1.8888 3.03333,2.0458 2.15229,1.2242 6.56467,3.9513 3.04561,0.9889 2.48456,1.9785 0.98745,1.6093 1.15539,1.8062 2.03717,3.2918 1.41893,2.2768 1.66359,-0.6248 -0.0435,-0.1912 z"
      data-name="Planalto" id="planalto" />
   <path class="neighborhood"
      d="m 877.71916,1298.5343 -3.12451,-2.41 -4.70779,-3.7572 -4.44278,-4.028 -6.61825,-7.1279 -5.19496,-5.6214 -3.72831,-5.6815 -1.57964,-1.7671 -4.38346,-6.5039 -4.17565,-7.2531 -2.37959,-5.0473 -4.16265,-6.9259 -5.45343,-11.3174 -4.93076,-10.1163 -4.2669,-11.5381 -3.24465,-9.5965 -2.21602,-6.7146 -1.76057,-6.8752 -2.11826,-10.5138 -2.07121,-8.9182 -1.75047,0.4083 -6.91216,2.1472 0.0761,3.223 -1.42684,6.9737 -0.9375,1.6556 -0.87019,1.5363 -0.79925,-0.105 -5.13562,-0.6762 -11.05382,-4.5818 -3.72322,4.5767 -2.10884,-1.1047 -0.86071,1.2857 -0.15999,0.826 -0.60448,0.6697 -0.0107,0.043 -0.0187,0.058 -0.0398,0.061 -0.0788,0.063 -0.0286,0.011 -1.33352,1.7765 -1.53258,2.0423 -2.83496,3.6609 -1.23792,1.7042 -0.24252,0.3236 -0.19899,0.1621 -0.44668,0.1418 -1.27195,1.7889 -2.97828,3.91 -1.40804,1.8395 -1.28354,1.7237 -1.97059,2.6858 -0.80644,1.0953 -0.95635,1.2604 -1.34001,1.7237 -1.04321,1.3234 -1.79102,2.2507 -0.77244,0.965 -2.04801,2.6851 -0.38587,0.5335 -2.46357,3.2766 -2.77192,3.6023 -2.90592,4.1112 -0.89914,0.4482 -4.38995,3.9556 -5.07915,7.5224 -7.82723,-6.6957 -14.87913,-12.7297 -18.86437,-15.6509 -0.37864,-0.2345 -2.60472,2.5498 -6.4691,7.6375 -2.60184,3.0326 -0.58058,0.7413 -3.05937,4.1583 -0.25294,0.5791 -0.21875,0.5314 -0.354,0.4684 -2.37887,2.8827 -1.27198,1.584 -2.44614,3.0326 -1.67014,1.8062 -2.19209,1.9025 -0.76955,-1.5116 -1.30528,-3.0188 -0.49226,-1.8996 -0.50819,-1.6339 -0.81517,-1.9127 -0.64068,-0.9997 -0.90782,-0.8355 -1.32553,-0.734 -1.82361,-0.7073 -4.63394,-1.4298 -2.979,-0.5031 -3.55597,-0.648 -2.47443,-0.2961 4.27849,18.9375 0.86004,4.356 0.94981,3.8463 -0.33796,0.4596 0.89915,0.9882 3.43076,11.9667 0.77532,2.7032 1.80186,6.4286 1.10328,4.1329 0.39966,1.3922 0.0986,0.4105 -0.0702,0.6645 3.74999,13.1786 1.27123,5.5562 44.20152,35.0575 7.00992,5.4961 3.79411,2.8936 4.05045,3.0355 3.37499,2.57 -0.003,0.1586 0.59366,0.4597 3.30766,2.6822 3.53207,2.6301 3.37862,2.6243 3.2657,2.5511 1.33421,1.0302 1.9988,1.5427 4.87648,3.7891 0.52991,0.4713 2.21741,1.4348 61.37699,45.1912 30.66891,21.0753 5.16094,-0.2484 150.79714,-10.7505 -0.72321,-9.32 1.30451,-11.0017 2.85886,-9.2099 1.11848,-16.2554 -1.36752,-9.2707 6.08976,-33.2534 -7.10329,-23.7416 -3.64647,-3.2686 -1.61583,1.2981 0.43512,2.7198 -4.16268,0.9266 -3.97731,-0.9888 -4.59775,-4.5739 -0.99393,-6.3663 -3.16944,-1.298 -8.45051,-4.8208 -5.15736,-4.45 -6.15127,-3.8941 -12.98605,0.2468 -1.86412,1.7925 -2.98261,4.327 -4.59847,1.2358 -8.32604,8.2362 -0.42711,2.0176 -1.10109,0.8876 -1.15975,0.121 -0.76597,0.2404 -0.23211,0.4922 0.27423,0.493 1.05764,0.7855 -0.0737,0.7486 -0.69856,1.0975 0.10123,1.72 -0.50384,1.3198 -1.11774,1.4956 -1.20106,1.0063 -1.39209,0.4814 -2.32168,0.3649 -3.79273,0.1362 -4.63175,-0.6392 -4.31759,-0.9506 -6.35906,-2.3745 -6.25699,-3.0304 -3.13393,-1.7671 -4.87935,-3.7638 z"
      data-name="Ponta Negra" id="ponta_negra" />
   <path class="neighborhood"
      d="m 664.58369,1229.2563 1.27197,-1.584 2.37887,-2.8827 0.35398,-0.4684 0.21875,-0.5314 0.2524,-0.5791 3.05937,-4.1583 0.58063,-0.7414 2.60181,-3.0325 6.46909,-7.6376 2.60474,-2.5497 -6.24472,-4.7121 -0.24386,-0.1672 -0.39743,-0.2286 -0.46621,-0.307 -0.49664,-0.3649 -0.85571,-0.6522 -1.66287,-1.3198 -1.7939,-1.4782 -1.50508,-1.1786 -3.13538,-2.5316 -1.13223,-0.9252 -1.08809,-0.8333 -4.35883,-3.3417 -0.56685,-0.4857 -5.8487,-4.7534 -4.18001,-3.3721 -0.17388,-0.1715 -27.43514,-22.3835 -0.46474,-2.347 -0.71958,-3.4843 -0.931,-1.5514 -0.16801,-0.5024 -0.40323,-1.3668 -0.18135,-0.7088 -0.11004,-0.7362 -0.0489,-0.8036 -0.024,-1.2408 -0.008,-1.2372 -0.0876,-1.9336 -0.10363,-1.0946 -0.14397,-1.5145 -0.0919,-1.036 -0.0187,-0.199 -0.11138,-1.5347 0.0441,-2.9255 -0.008,-2.7169 -0.12741,-3.3366 -0.0187,-1.673 -0.032,-1.4848 -0.0695,-2.5512 0.008,-1.5891 -0.0716,-1.7809 -0.0409,-0.6725 -0.0134,-0.5002 -0.0363,-0.9658 -0.0107,-0.5914 -0.0531,-1.9163 -0.047,-1.2003 -0.0371,-0.8557 -0.0321,-1.8627 -0.0499,-1.7295 -3.03835,-0.9548 -6.6175,-1.9684 -1.78744,-0.5661 -1.03016,-0.3366 -3.23816,-1.0178 -2.68295,-0.792 -0.44375,-0.1381 -3.27798,-0.9701 -2.09655,-0.679 -1.98939,-0.5893 -2.70897,-0.8239 -1.41677,-0.4307 -2.87983,-0.8752 -0.28525,-0.087 -0.58421,-0.1773 -2.78138,-0.8456 -1.36389,-0.616 -11.64238,24.7239 -4.14166,8.7959 -2.3622,5.5367 -16.32555,34.125 -15.68991,32.9537 1.44134,0.5335 10.35016,6.0434 9.86656,5.9204 -1.02727,2.2956 3.70584,1.8642 3.6313,1.9025 3.72683,1.9626 3.55451,1.9242 7.28211,3.6392 0.58929,-1.4804 -0.26854,2.4114 -6.09915,12.1767 0.19845,0.1151 2.45197,1.2799 1.27125,0.6523 3.64791,1.8714 3.7196,1.9083 2.9428,1.5101 0.63708,0.3272 3.86294,1.9814 5.10084,2.6714 1.56447,-1.5022 0.66819,-0.7739 0.84191,-1.0685 0.54153,0.3489 1.54703,0.9969 1.74762,1.2726 0.30769,0.2223 2.8943,2.0603 0.47351,0.3562 2.83997,2.2775 0.39239,0.2708 3.32505,2.5098 3.27435,2.5172 2.69088,2.0241 0.6769,0.5126 7.16552,5.6344 4.74687,3.742 0.16373,0.1333 0.40683,0.3207 5.85306,4.4095 9.33157,7.0794 4.0946,3.3135 2.39839,1.6947 1.77366,1.222 3.87526,2.9769 0.41335,0.2438 0.46621,0.075 -1.27123,-5.5563 -3.74999,-13.1786 0.0702,-0.6645 -0.0986,-0.4105 -0.39965,-1.3922 -1.10329,-4.1329 -1.80186,-6.4286 -0.77532,-2.7032 -3.43076,-11.9667 -0.89914,-0.9881 0.33795,-0.4597 -0.94981,-3.8463 -0.86004,-4.356 -4.27849,-18.9375 2.47443,0.2961 3.55598,0.648 2.979,0.5031 4.63393,1.4298 1.82361,0.7073 1.32553,0.734 0.90782,0.8355 0.64068,0.9997 0.81517,1.9127 0.5082,1.6339 0.49225,1.8996 1.30529,3.0188 0.76955,1.5116 2.19208,-1.9025 1.67014,-1.8062 2.44615,-3.0326 z"
      data-name="Neópolis" id="neopolis" />
   <path class="neighborhood"
      d="m 771.65714,1182.1597 -20.75316,-10.817 -7.00051,-4.904 -44.82121,-35.3354 -37.90327,-29.4839 -2.08634,-1.689 0.16693,-0.2556 0.31838,-0.7637 0.94836,-2.2718 0.59872,-1.4334 0.60879,-1.4602 1.12649,-2.6988 0.86076,-2.0618 0.29308,-0.7029 0.55235,-1.3234 0.59145,-1.4167 0.15999,-0.383 0.55163,-1.3212 1.23357,-2.9558 1.22059,-2.9255 1.20822,-2.8935 1.23,-2.9472 4.53548,-10.8873 0.37572,-0.9013 4.94379,-11.8234 2.24853,-5.4882 0.38296,-0.8585 1.47539,-3.5821 0.84196,-2.0444 1.82863,-4.4942 2.71767,-6.4018 0.21715,-0.5364 0.12954,-0.3808 -0.44885,-1.6007 -0.25561,-2.0871 -2.48963,1.3205 -2.04657,0.4126 -3.47927,-0.064 -1.34142,-0.1445 -10.71288,-1.1533 -23.36364,-2.4107 -3.97659,-1.4218 -0.63056,-0.5227 -1.23359,-1.0229 -1.67086,-2.4252 -14.55189,-28.21044 -1.9481,0.81589 -0.30627,0.17307 -0.70441,0.3433 -5.68145,3.383 -2.68004,1.69978 -2.12619,1.20756 -5.01906,3.07093 -0.72543,0.44159 -3.64427,2.27825 -6.51404,4.14957 -0.2735,0.1723 -2.55624,1.6412 -1.16554,0.687 -0.31053,0.183 -0.66965,0.3953 -1.29151,0.6906 -0.76736,0.931 10.01643,21.6921 1.62233,6.2606 0.35256,2.8501 0.27954,2.2566 -0.26576,5.6308 -0.52703,4.2183 -0.74131,2.8777 -0.31552,1.2444 -0.0609,0.2172 -0.77828,2.5866 -1.99444,4.7129 -9.5625,20.1081 -5.54465,12.0666 1.36389,0.616 2.7814,0.8456 0.58419,0.1774 0.28525,0.087 2.8798,0.8752 1.41677,0.4307 2.70897,0.8239 1.98942,0.5893 2.09649,0.679 3.27799,0.9701 0.44377,0.1381 2.68293,0.792 3.23821,1.0178 1.03013,0.3366 1.78741,0.5661 6.61751,1.9684 3.03837,0.9549 0.0499,1.7294 0.0321,1.8627 0.0366,0.8557 0.047,1.2003 0.0526,1.9163 0.0107,0.5914 0.0363,0.9658 0.0133,0.5002 0.0409,0.6725 0.0716,1.7809 -0.008,1.5891 0.0695,2.5512 0.0321,1.4848 0.0187,1.673 0.1274,3.3366 0.008,2.7169 -0.0441,2.9255 0.11138,1.5347 0.0187,0.199 0.0919,1.036 0.14396,1.5145 0.10363,1.0946 0.0876,1.9336 0.008,1.2372 0.024,1.2409 0.0483,0.8035 0.11005,0.7362 0.18082,0.7088 0.40326,1.3668 0.168,0.5024 0.93098,1.5514 0.71957,3.4843 0.4648,2.347 27.43511,22.3835 0.17388,0.1715 4.18001,3.3721 5.8487,4.7534 0.56683,0.4857 4.35885,3.3417 1.08809,0.8333 1.13221,0.9252 3.13541,2.5316 1.50507,1.1786 1.7939,1.4782 1.6629,1.3198 0.85569,0.6522 0.49663,0.3649 0.46618,0.307 0.39744,0.2286 0.24385,0.1672 6.24467,4.7121 0.37864,0.2345 18.86437,15.6508 14.87913,12.7298 7.82723,6.6957 5.07915,-7.5224 4.38995,-3.9556 0.89914,-0.4482 2.90589,-4.1112 2.77198,-3.6023 2.46356,-3.2766 0.38585,-0.5335 2.04804,-2.6851 0.77243,-0.965 1.79103,-2.2507 1.04318,-1.3234 1.34004,-1.7237 0.9563,-1.2604 0.80649,-1.0953 1.97053,-2.6858 1.28354,-1.7237 1.40809,-1.8395 2.97825,-3.91 1.27198,-1.7889 0.44669,-0.1418 0.19898,-0.1621 0.24253,-0.3236 1.23792,-1.7042 2.83498,-3.6609 1.53258,-2.0423 1.33347,-1.7765 0.0286,-0.011 0.0788,-0.063 0.0398,-0.061 0.0187,-0.058 0.0107,-0.043 0.60448,-0.6697 0.15999,-0.826 z"
      data-name="Capim Macio" id="capim_macio" />
   <path class="neighborhood"
      d="m 84.476553,151.31034 -1.180766,0.14637 0.10016,0.32372 0.970083,6.60956 2.360731,8.03716 2.361506,4.63756 2.787894,3.82962 2.655388,2.93628 1.2727,1.18219 2.293424,2.12913 1.132983,0.87884 4.610754,3.57916 4.18434,3.24761 2.7814,2.15875 4.16845,3.23528 2.35277,2.04658 4.81636,5.68944 1.14965,1.74615 2.20579,4.49782 6.46192,18.23891 3.2309,5.62573 13.42982,17.76763 4.77652,5.47876 0.11431,0.1461 15.17088,19.38994 3.23089,4.94595 3.35547,7.17207 2.58811,6.62913 1.76132,4.37547 1.97927,3.4807 2.12187,2.6402 2.58517,2.5881 3.75287,2.79006 8.45054,5.44037 0.77174,0.33368 3.51543,1.52096 2.49903,0.33227 1.35379,0.16266 12.33517,-12.22804 0.10283,-0.10016 2.7126,-2.64383 0.71958,-0.76594 2.01834,-2.02558 0.33013,-0.36704 2.41794,-2.45342 5.40782,-5.36149 2.7669,-2.80163 2.78648,-2.69523 3.44662,-3.47708 5.23263,-5.29416 2.68004,-2.86896 8.47516,-8.81975 2.68942,-2.84943 2.80598,-2.88854 1.02943,-1.14019 3.76666,-4.1829 0.9223,-0.97518 1.37913,-1.50721 2.76688,-2.98479 2.64091,-2.82123 0.27136,-0.23157 2.20369,-2.49252 0.57334,-0.61824 1.94161,-2.11538 0.99035,-1.23576 0.61028,-0.71164 1.48916,-1.73669 1.75918,-2.30072 0.17014,-0.32799 0.0441,-0.52631 0.13114,-0.33798 0.75724,-1.01423 0.22008,-0.69062 1.81853,-3.12525 1.6332,-2.63369 0.69714,-1.12428 0.91942,-1.56228 0.3692,-0.59217 0.4829,-0.78187 0.27206,-0.53643 0.16534,-0.46837 0.20325,-0.55598 0.0927,-0.44886 0.13648,-0.45392 0.13114,-0.36702 3.78114,-6.14407 2.48527,-4.03091 0.34971,-0.56755 2.56351,-6.29828 0.36848,-1.1047 1.78087,-4.91989 0.86004,-3.12382 1.84896,-7.1764 0.12313,-0.47636 0.91506,-3.47125 6.59365,-23.43751 0.50024,-1.91556 0.17655,-0.73842 0.66746,-2.78789 0.17522,-0.67613 1.07793,-4.42474 0.90273,-4.2314 1.57675,-6.21936 0.56902,-2.24277 0.21367,-0.93678 0.66966,-2.47368 0.40753,-1.79682 1.14677,-3.62186 1.88293,0.92663 2.79585,1.52678 1.72008,0.97949 3.72614,2.12115 3.88394,2.3861 4.17491,2.51207 2.06759,1.22635 1.69041,0.97731 0.3547,0.21295 2.01327,1.25459 0.83469,0.56973 1.23363,0.75363 0.98963,0.68558 0.84479,0.55089 1.75777,1.285 0.31052,0.23184 1.39794,0.83034 1.5051,0.80213 1.83517,1.02582 1.7157,0.95851 1.3567,0.80285 0.41264,0.24607 0.69572,0.41481 1.31391,0.7833 2.14578,1.2553 2.03859,1.19811 2.34991,1.31396 4.17208,1.99373 0.98312,0.46983 0.50456,0.26068 1.25601,0.65951 3.79561,1.99732 0.77393,0.40542 5.2232,2.96598 5.36291,2.95437 3.52056,2.2522 1.6969,1.30452 2.07985,1.97058 2.12262,2.1479 1.70705,2.01979 0.39815,0.47635 1.31541,1.50434 0.0975,-0.27492 0.15491,-0.19765 0.29845,-0.22294 0.12954,-0.0179 0.70366,-0.9672 0.63929,-0.87959 0.28525,-0.39526 0.64357,-0.89188 0.34615,-0.53643 0.17815,-0.27493 1.03886,-1.67158 0.99976,-1.63247 0.92227,-1.54562 0.47564,-1.17855 0.31127,-1.07215 0.28168,-0.97589 0.14556,-0.96574 0.0772,-1.49782 -0.0286,-1.72877 -0.11645,-1.88369 -0.12526,-2.10736 -0.0601,-1.52535 -0.0187,-1.43124 0.11432,-1.23792 0.22142,-1.29515 0.42932,-1.41239 0.54148,-1.89309 0.63491,-1.79102 0.33013,-2.24134 0.39813,-3.16865 0.23157,-3.0355 0.18135,-2.0386 0.28454,-3.89625 0.35184,-3.96498 0.22302,-2.05819 0.29025,-1.32987 0.31197,-1.15759 0.65443,-2.1204 0.39092,-0.71524 1.11995,-0.89262 -0.74495,-1.26036 -1.01277,-0.71236 -1.53982,-2.01039 -2.29561,-6.1991 -2.05235,-6.01519 -0.76305,-0.59362 -2.36728,-0.60307 -2.48528,-1.21908 -1.88439,-1.725886 -2.65326,-2.312246 -4.18145,-2.99351 -1.83883,-1.966948 -2.21306,-2.190628 -1.39217,-0.962105 -1.96618,-2.514237 -1.99879,-1.55865 -1.49423,-0.3547 -1.29222,0.464064 -4.72296,3.338811 -1.88878,0.519763 -1.37764,0.0762 -1.14527,0.640666 -0.59946,1.762069 -1.14885,1.528238 -3.94403,2.660464 -2.38536,2.024888 -2.85811,1.113387 -5.0524,-0.754344 -2.01324,-0.0179 -0.99108,0.7464 -1.15106,1.119193 -0.7442,0.117174 -1.13515,2.063917 -1.02946,1.23938 -0.89262,0.84559 -1.21982,0.38294 -1.73819,-0.99975 -1.54342,-2.33906 -2.48672,-3.359785 -2.04442,-2.205123 -2.42232,-1.94305 -2.87184,-2.599636 -5.14577,-3.356188 -4.64042,-4.138024 -4.32192,-2.961638 -2.09359,-2.888527 1.35518,-5.353512 0.41047,-1.621647 -1.1829,-2.574318 -1.64984,-1.84387 -2.73578,-0.992519 -2.60112,-0.284543 -2.08784,-0.715241 -2.08132,-2.023427 -1.9988,-1.656372 -5.30359,-3.49009 -5.04294,-2.899386 -4.84894,-1.393587 -2.62139,-0.795617 -4.59772,1.290061 -2.9544,0.642875 -1.96768,-0.0072 -1.57237,-0.857153 -2.1617,-0.728276 -3.2056,0.34473 -2.78789,0.875246 -3.56466,0.367769 -4.37621,1.038851 -3.48504,-1.509398 -6.68337,-3.413381 -3.758,-1.992268 -2.33109,-1.134433 -3.61388,-3.221504 -5.3253,-4.967685 -3.59292,-2.926168 -2.82189,-2.122575 -2.44548,-2.611246 -3.14262,-1.867765 -3.14262,-2.682901 -4.39791,-4.857644 -3.29609,-2.387529 -7.96261,-7.27053 L 200.964,5.5164019 190.4495,0 l -0.3273,0.69643524 -0.84481,1.44932066 -0.79559,1.4008165 -0.77682,1.565167 -0.48576,1.1590062 -0.6407,1.4392059 -1.78667,3.6131665 -0.5625,1.24665 -3.71017,8.01255 -0.21795,0.698575 -0.34401,1.172077 -3.95199,7.882956 -3.70876,6.19183 -3.10643,4.646963 -1.49492,2.134893 -2.95149,3.951272 -5.74808,6.994713 -3.37863,3.921572 -4.22341,5.187735 -0.41848,0.542234 -6.62475,7.924946 -1.06346,1.30021 -4.6021,6.104972 -1.97921,2.897925 -1.2633,1.893799 -3.03909,4.859069 -1.91191,3.314201 -4.02945,8.06611 -5.70899,12.62622 -4.67953,10.1243 -1.45656,2.71477 -1.59193,2.83058 -2.62139,3.86367 -1.62161,2.0386 -2.56276,3.06227 -3.04852,2.85014 -1.5246,1.20755 -1.30234,0.83108 -1.017895,0.8687 -1.058384,0.77318 -2.367276,1.56517 -0.700772,0.46332 -1.942303,1.00409 -2.280443,1.21766 -6.498782,3.00434 z"
      data-name="Lagoa Azul" id="lagoa_azul" />
   <path class="neighborhood"
      d="m 324.48533,281.25515 1.1605,1.43411 5.46571,6.79124 1.07797,1.44861 2.00023,2.48312 1.78592,2.48236 1.64121,2.0864 0.52412,0.57991 0.7087,0.93675 0.83547,1.02364 1.95317,2.43461 4.03667,5.22178 0.80069,1.06853 3.47854,4.52681 0.13649,0.168 2.07334,2.56784 6.87957,8.76907 3.54804,4.72224 3.15713,4.21406 3.3185,4.35739 0.88758,1.15395 0.61533,0.80863 2.42734,3.24831 2.79588,3.65156 0.58133,0.77313 5.18265,6.88759 1.61148,2.05742 0.78042,0.95705 1.71068,2.23624 2.56493,3.26132 2.29561,2.88856 0.31907,0.43215 0.25775,0.34971 0.0483,0.0724 13.21474,-8.16528 3.59366,-2.13638 24.68917,-14.67854 6.47926,-3.8463 5.1552,-3.18314 28.08008,-16.90904 12.27369,-7.48265 1.60064,-0.88538 0.10016,-0.0558 3.02747,-1.35379 4.25752,-1.26832 3.0977,-0.51981 3.21214,-0.14076 12.92014,0.44738 10.53475,0.22649 22.86415,1.19669 9.21285,0.61827 -0.37356,-1.17206 -0.59361,-0.66314 -2.4766,-1.74976 -4.64625,-3.47127 -1.92638,-2.41148 -2.11247,-1.44928 -3.73335,-1.66217 -2.6279,-2.41434 -7.61948,-5.41649 -5.92616,-4.39938 -3.68194,-0.90782 -1.64476,-2.50123 -3.78044,-3.32213 -0.6501,-1.05045 -1.07068,-0.78114 -1.1822,-0.11512 -0.72757,-0.49444 -1.54273,-0.37863 -2.49681,-1.70125 -1.68534,-1.43344 -0.92302,-1.19084 -1.3024,-1.00702 -1.12713,-1.36752 -3.25704,-2.44837 -0.75,-1.52173 -1.08301,-0.1194 -0.65299,-0.62839 -1.09167,-1.43338 -0.80069,-1.14962 -0.58712,-1.40155 0.72831,-3.70944 0.44738,-1.83371 0.25854,-0.76525 -0.38803,-1.17491 -0.50456,-0.44017 -0.76955,-0.3191 -1.03523,-0.59655 -0.4438,-0.86221 0.1696,-0.75288 0.35398,-0.65662 0.70585,-0.55457 0.69786,-0.71306 0.17308,-0.53643 0.0782,-0.8188 -0.14503,-1.08514 0.1007,-1.01135 0.2767,-1.0425 0.47637,-1.21185 0.11618,-0.74276 -0.15278,-0.33227 -0.29094,-0.27281 -0.17815,-0.6892 0.12607,-0.4843 -0.41552,-0.30982 -1.32118,0.26362 -1.30673,0.0478 -1.64259,-1.13082 -1.24736,-0.94618 0.0884,-1.1547 -0.46698,-2.13055 -0.31411,-0.74348 0.0187,-1.0859 -0.2508,-0.59579 -0.92158,-0.17094 -1.08517,0.0687 -0.94765,-0.35687 -0.61025,0.0659 -1.4906,-0.40249 -1.04612,1.06851 -1.36458,0.29594 -1.17423,-0.69932 -1.61877,-1.61004 -0.99393,-1.91627 -0.35908,-1.2256 0.41915,-0.77464 0.98747,-1.72222 0.71594,-1.11923 -0.31552,-0.847 -0.51904,-0.57408 -1.02219,-0.67254 -1.2937,-1.11776 -0.78621,-0.375 -0.21234,-0.58711 -0.0961,-0.70367 0.21073,-1.0157 0.12821,-0.78401 -0.25508,-2.26737 0.20059,-0.48579 -0.0286,-0.97802 -0.32086,-1.75267 0.0134,-0.87885 -0.17602,-0.5053 -0.55742,-0.45249 -0.79346,-0.19196 -0.82019,0.1485 -0.66602,0.52774 -0.46699,-0.38657 -0.51829,-0.42856 -0.31055,-0.55815 0.14343,-0.59655 0.72612,-0.86656 0.43146,-0.63055 0.15705,-0.84701 -0.38803,-0.66456 -0.23157,-0.79996 -0.51255,-1.02001 -0.63131,-0.58205 -1.05405,-0.41699 -1.74615,-0.57625 -0.26282,-0.58568 0.35838,-0.56613 0.12367,-0.64936 -0.49519,-0.44451 -0.7804,-0.451 -0.61824,-0.0566 -0.36559,0.43654 -0.3808,0.3344 -0.42639,0.44882 -0.75072,-0.42567 -0.4387,-0.24608 -0.38082,-0.43942 -0.39455,-0.33725 -0.22222,-0.49081 -0.008,-0.32372 0.41626,-0.3027 0.37358,-0.34901 0.63921,-0.32086 0.25187,-0.60666 0.14023,-0.76015 0.6805,0.0905 0.6255,0.0107 h 0.66816 l 0.42567,-0.21936 0.098,-0.39167 -0.42278,-0.38949 -0.71378,-0.42856 -0.42569,-0.38657 -0.26362,-0.11574 -0.0321,-0.40541 -0.75071,-0.42493 -0.56541,-0.33083 -0.43075,-0.37646 -0.1039,-0.57917 0.25989,-0.35979 0.73838,-0.62258 1.07507,-1.40591 0.889,-0.93532 0.28026,-0.35762 0.0107,-0.98454 0.0355,-0.73479 0.11726,-0.39673 0.48504,-0.66385 0.5039,-0.68846 0.35256,-0.44088 0.2476,-0.59149 -0.14771,-0.55306 -0.37283,-0.66531 -0.0761,-0.58276 0.1071,-0.24325 0.20486,-0.12678 0.33512,-0.20692 0.75871,0.29914 0.52991,0.50748 0.40903,0.4474 0.38515,0.3844 0.66602,0.0819 0.66314,-0.13462 1.05839,-0.002 0.72753,-0.72104 0.38299,-0.98675 0.20699,-1.42254 0.25107,-0.82892 0.71672,-0.79921 0.69351,-0.21295 0.29594,-0.28597 -0.25641,-0.56033 -0.31338,-0.55238 -0.57628,-0.0983 -0.74856,-0.29772 -1.41965,-0.6588 -0.28667,-0.33725 -0.83833,-0.39601 -0.16426,-0.36267 -0.39092,-0.62258 -0.21368,-0.66895 0.46189,-0.41915 0.55814,-0.23753 0.50096,-0.1403 0.65518,-0.15919 0.32727,-0.41627 -0.0187,-0.73985 -0.65732,-0.25641 -0.65806,-0.0819 -0.91143,-0.24466 -0.8796,0.0848 -0.54006,0.20406 -0.23825,0.48433 -1.61222,0.0499 -0.91579,-0.28241 -0.9708,-0.91289 -0.78403,-0.98889 -0.14343,-1.24444 0.36704,-1.89529 -0.11565,-1.69038 -0.4966,-2.1016 -0.16133,-0.69497 -0.34116,-0.87308 -0.7985,-0.26923 -0.56469,0.21082 -0.96501,1.08518 -0.97441,1.26691 -0.71239,0.35688 -0.51325,-0.1859 -0.30197,-0.70872 -0.30059,-1.10039 0.27957,-0.56467 0.80502,-0.24608 0.66674,-0.29522 0.28026,-0.99544 -0.38004,-1.12066 -1.14818,-0.68557 -0.94402,-0.82165 -0.60085,-0.43942 -0.92882,-1.2271 -1.06567,-0.33013 -0.79415,-0.89551 -0.74202,-0.73119 -1.38127,-0.67109 -1.46239,-0.60306 -1.80841,-0.14564 -2.65611,-1.00698 -1.83805,-0.72756 -1.23576,-1.0584 -0.46771,-0.70442 -0.28809,-1.29077 -0.49377,-1.48116 -0.71883,-1.28212 -0.78331,-0.76011 -0.54294,-0.94401 -0.72033,-1.92571 -1.14385,-1.4276 -1.55935,-0.79344 -0.94909,-0.73116 -0.47417,-0.87308 -0.61899,-1.09241 -1.13004,-0.88899 -0.34081,-0.41916 -0.7109,0.032 -0.8919,-0.15919 -1.10328,0.13035 -1.32626,-0.0773 -0.86436,-0.95125 -0.29239,-1.29657 -0.51688,-1.31756 0.0467,-2.10377 0.42997,-0.79056 -0.64573,-0.45968 -0.66527,0.24393 -0.85427,-0.089 -1.17206,-0.0456 -1.92422,0.23077 -1.25748,-0.41988 -0.88611,-1.15829 0.21581,-1.17496 0.0214,-0.349 0.70149,-0.96503 -0.0804,-1.46887 -0.64936,-1.22201 -1.11995,0.89263 -0.39092,0.71524 -0.65445,2.1204 -0.31197,1.15759 -0.29022,1.32987 -0.22303,2.05819 -0.35184,3.96498 -0.28456,3.89625 -0.18136,2.0386 -0.23157,3.0355 -0.39818,3.16865 -0.33013,2.24134 -0.63485,1.79102 -0.54153,1.89309 -0.42927,1.41239 -0.22142,1.29515 -0.11432,1.23792 0.0187,1.43123 0.0601,1.52536 0.12527,2.10736 0.11645,1.88369 0.0286,1.72877 -0.0772,1.49782 -0.14557,0.96574 -0.2817,0.97589 -0.31124,1.07215 -0.47562,1.17855 -0.92227,1.54562 -0.99976,1.63247 -1.03888,1.67158 -0.17815,0.27493 -0.34616,0.53643 -0.64353,0.89188 -0.28526,0.39526 -0.63926,0.87959 -0.70366,0.9672 -0.12954,0.0179 -0.29845,0.22295 -0.15491,0.19765 -0.0975,0.27492 -1.31538,-1.50434 -0.39818,-0.47635 -1.70705,-2.0198 -2.12256,-2.14789 -2.07989,-1.97058 -1.69689,-1.30452 -3.52054,-2.2522 -5.36291,-2.95437 -5.22325,-2.96598 -0.7739,-0.40542 -3.79561,-1.99732 -1.25601,-0.65951 -0.50459,-0.26068 -0.98312,-0.46983 -4.17203,-1.99373 -2.34994,-1.31396 -2.03859,-1.19811 -2.14574,-1.2553 -1.31397,-0.7833 -0.69572,-0.41481 -0.41261,-0.24608 -1.3567,-0.80284 -1.71573,-0.95851 -1.83514,-1.02582 -1.5051,-0.80213 -1.39791,-0.83034 -0.31055,-0.23149 -1.75777,-1.285 -0.84479,-0.55093 -0.98964,-0.68554 -1.23362,-0.75363 -0.83467,-0.56973 -2.01329,-1.25459 -0.3547,-0.21295 -1.69038,-0.97731 -2.06757,-1.22635 -4.17494,-2.51207 -3.88396,-2.38611 -3.72609,-2.12114 -1.72008,-0.97949 -2.79585,-1.52678 -1.88293,-0.92663 -1.14677,3.62186 -0.40756,1.79682 -0.66965,2.47368 -0.21368,0.93678 -0.56901,2.24277 -1.57673,6.21936 -0.90275,4.2314 -1.07794,4.42473 -0.17521,0.67614 -0.66747,2.78789 -0.17655,0.73842 -0.50021,1.91556 -6.59368,23.43751 -0.91503,3.47125 -0.12313,0.47636 -1.84896,7.1764 -0.86004,3.12382 -1.78087,4.91989 -0.36848,1.1047 -2.56351,6.29828 -0.34971,0.56755 -2.48527,4.03091 -3.78114,6.14407 -0.13114,0.36702 -0.13595,0.45392 -0.0927,0.44886 -0.20379,0.55598 -0.1648,0.46837 -0.27209,0.53643 -0.48288,0.78187 -0.36917,0.59217 -0.91942,1.56228 -0.69714,1.12428 -1.63319,2.63369 -1.81856,3.12524 -0.22009,0.69063 0.0772,0.6805 0.19364,0.57045 0.25775,0.46768 0.25774,0.31411 1.9742,2.20076 4.32264,5.71481 1.07142,1.41603 2.01906,2.55042 1.03958,1.45437 0.77607,0.98528 1.95173,2.45344 2.1559,2.84217 1.5818,2.04586 3.1426,4.01206 2.28477,3.00146 0.48285,0.60307 5.68727,7.31826 4.35448,5.27392 2.77633,3.61315 1.05331,1.3574 z"
      data-name="Pajuçara" id="pajucara" />
   <path class="neighborhood"
      d="m 598.6112,1053.4369 0.74132,-2.8776 0.52703,-4.2184 0.26575,-5.6308 -0.27954,-2.2565 -0.35256,-2.8502 -1.62238,-6.2606 -10.01643,-21.6921 -1.78952,-3.8991 -7.56013,-25.52826 -5.16527,-18.59073 -0.66677,-3.33592 -0.71885,-4.30669 -0.0954,-2.54466 -0.61028,0.37137 -0.87521,-0.41047 -99.70734,-43.06709 -9.79199,-3.084 -1.53835,2.31592 -0.5582,0.92951 -5.76686,-0.0961 -10.19453,13.41895 -8.9124,-6.29758 -6.21574,8.75388 2.71549,1.95173 0.31055,0.56034 -0.097,0.69572 -0.31052,0.56031 -2.95149,3.90202 13.70846,10.10911 -0.26202,0.46261 -1.6723,4.19737 -1.07502,2.27315 -0.79634,1.74615 -0.14343,0.21715 -0.16693,0.18135 -0.18456,0.15411 -0.52412,0.21795 -0.16266,0.11298 -0.13862,0.15705 -0.29095,0.43438 -0.40328,0.62833 -2.07259,3.66965 -3.1383,5.66484 -1.10184,1.98939 -4.30813,7.75629 -1.25678,2.78423 -0.27279,1.34944 -6.17373,11.32745 41.36801,122.83567 -27.29395,-9.5283 17.36224,11.048 0.65155,0.3372 2.34628,1.2133 1.19885,0.6197 13.91845,8.2826 43.57457,25.8511 28.83738,17.5737 0.56901,0.3467 4.87718,2.8429 0.81367,0.3657 0.7218,0.3837 16.32554,-34.125 2.3622,-5.5367 4.14166,-8.796 11.64239,-24.7239 5.54464,-12.0666 9.5625,-20.1081 1.99444,-4.7129 0.77826,-2.5866 0.0609,-0.2171 0.31551,-1.2445 z"
      data-name="Candelária" id="candelaria" />
   <path class="neighborhood"
      d="m 630.66646,476.80181 -0.5625,-0.032 -28.92137,-5.37235 1.76207,27.08907 -1.125,13.98575 -6.46622,19.85981 -16.0251,30.76883 -1.5188,1.71503 14.33832,9.50749 0.93603,0.60013 0.19898,0.17121 0.78109,0.39161 2.40058,-2.02847 3.84706,-2.4708 0.46111,-0.26576 5.58591,-3.21794 0.3547,-0.18082 4.86705,-2.62499 1.06202,-0.27671 1.26688,0.0916 1.2611,0.63849 1.22564,0.73044 0.30914,1.55361 -0.29167,0.61821 4.31975,2.66121 3.00579,1.68608 1.1308,0.65371 1.02943,0.52409 1.44641,0.94188 2.25288,1.24663 1.20321,0.71958 3.60741,1.98939 1.2524,0.65732 4.69764,2.59823 0.63707,0.35256 0.45609,0.2265 2.55331,-6.74569 1.26399,-3.75287 3.14045,-7.35957 1.46888,-3.37355 0.0847,-0.17308 1.50652,-3.09556 2.42881,-3.55164 0.0761,-0.17121 -0.42711,-0.23825 -0.60523,-0.31944 -1.22778,-0.59509 -0.5017,-6.04341 -0.42567,-5.60837 -0.41263,-4.44209 -0.70801,-6.69207 -0.0187,-0.62909 -5.52509,-1.42037 -6.92378,-2.29126 -5.65902,-1.79901 -0.52123,-0.14183 0.13648,-0.45606 1.14161,-5.6569 4.71791,-20.03786 1.05697,-4.52028 0.38149,-0.2468 0.26576,-0.42785 0.003,-0.0107 0.0286,-0.20379 -0.0435,-0.15919 -0.22409,-0.57334 -0.54946,-1.25748 -0.67035,-1.20176 -3.20272,-4.92205 -3.14187,-5.18844 -0.23691,-0.74132 -0.10177,-0.64071 0.0833,-0.82093 z"
      data-name="Ribeira" id="ribeira" />
   <path class="neighborhood"
      d="m 684.92418,524.33847 0.19845,-0.54073 0.23825,-0.40617 0.34757,-0.31838 -0.0419,-0.33298 0.047,-0.31266 2.23624,-4.73893 2.28693,-4.82718 1.43269,-3.03693 -2.77339,-1.40227 -6.39093,-2.95584 0.13248,2.9189 -0.0133,0.0537 -0.0286,0.0462 -0.0609,0.024 -0.22997,0.0107 -0.75504,0.024 -0.96573,-0.008 -0.34688,-0.17387 -0.81591,-1.54704 -0.32514,-0.61973 -0.87884,-1.73742 -1.98143,-3.41046 -1.11557,-1.77222 -2.14431,-1.47104 -4.89384,-3.04126 -1.94957,-1.33205 -3.39238,-2.31372 -5.79443,-4.0157 -3.78258,-2.50408 -3.8224,-2.56567 -1.59842,-1.42395 -0.8188,-0.89915 -1.08952,-0.28739 -0.56392,-0.13755 -0.47422,-0.1461 -0.72246,-0.43942 -0.68342,-0.48435 -0.84048,-0.67035 -0.71165,-0.78184 -0.66164,-0.78768 -0.5828,-0.99105 -0.22997,-0.39167 -0.42275,-0.78619 -0.42209,-0.99687 -0.51183,-1.30961 -0.52121,0.0841 -0.51258,-0.003 -0.53132,-0.0601 -2.72275,-0.74132 -0.92594,0.0133 -0.58277,0.19365 -0.48504,0.3294 -0.37863,0.50024 -1.66506,4.93872 -0.0187,0.0441 -0.0833,0.82094 0.10176,0.6407 0.23691,0.74126 3.1419,5.18851 3.20267,4.92202 0.6704,1.20179 0.54947,1.25747 0.22355,0.57332 0.0435,0.15918 -0.0286,0.20326 -0.003,0.0107 -0.26576,0.42788 -0.38152,0.24679 -1.05694,4.52029 -4.71793,20.03788 -1.14161,5.65685 -0.13649,0.45606 0.52123,0.14183 5.65907,1.79895 6.92373,2.29126 5.52509,1.42038 0.0187,0.62914 0.70801,6.69207 0.41266,4.44209 0.42564,5.60834 0.50171,6.04344 1.22777,0.59509 0.60523,0.31907 0.42714,0.23824 4.39646,1.91918 0.80866,0.2735 1.50576,0.84629 0.3273,0.19471 0.67107,0.3743 3.30985,2.18557 0.003,-0.3931 1.74684,-1.31394 0.99976,-0.78406 3.7189,-2.56634 1.16188,-0.66674 2.62283,-1.64043 1.06421,-0.96141 0.79487,-0.9672 0.78333,-1.00408 0.67038,-1.03234 0.48282,-1.15395 0.19845,-0.89263 0.14023,-0.92521 0.0133,-1.07721 0.15411,-0.65516 0.20059,-0.60953 0.34012,-0.54658 -1.34076,-1.56952 -0.63344,-0.74201 0.27671,-0.72177 4.12069,-2.07192 0.47126,-0.20753 -2.58952,-2.48165 -0.1039,-0.0825 3.24323,-6.44237 1.38921,-4.03162 z"
      data-name="Rocas" id="rocas" />
   <path class="neighborhood"
      d="m 644.96859,388.75713 -9.19186,8.84434 -13.13511,15.75434 -12.77535,18.08107 -8.68368,39.95928 28.92137,5.37234 0.5625,0.032 0.0187,-0.0441 1.66506,-4.93869 0.37863,-0.50026 0.48504,-0.32941 0.58275,-0.19364 0.92593,-0.0134 2.72275,0.74135 0.53133,0.0601 0.51258,0.003 0.52123,-0.0841 0.5118,1.30961 0.42209,0.99687 0.42276,0.78622 0.22996,0.39161 0.5828,0.99111 0.66164,0.78763 0.71165,0.78183 0.84049,0.67038 0.68341,0.48432 0.72246,0.43942 0.47422,0.1461 0.56392,0.13756 1.08953,0.28739 0.8188,0.89909 1.59844,1.42401 3.82238,2.56561 3.78257,2.50414 5.79443,4.01569 3.39238,2.31367 1.94957,1.33205 4.89382,3.04126 2.14433,1.47104 1.11557,1.77222 1.98143,3.41046 0.87885,1.73747 0.32515,0.61968 0.81587,1.54709 0.34687,0.17388 0.96571,0.008 0.75507,-0.024 0.22997,-0.0107 0.0609,-0.024 0.0286,-0.0462 0.0134,-0.0537 -0.13248,-2.91891 6.39093,2.95582 2.77339,1.40229 1.87499,0.96862 0.27885,0.63635 1.49423,-0.39672 0.33012,-0.12526 0.27813,-0.24039 0.14396,-0.31554 1.62887,0.51907 1.73456,-0.066 2.88851,1.80043 -2.36872,-4.22347 -0.76303,-4.75554 -1.25238,-4.69764 -0.003,-3.98744 -1.53619,-3.54873 1.47609,-4.03597 -2.89721,-5.18992 -1.91479,-10.72008 -0.0601,-1.48267 -0.52193,-12.90779 4.21113,-10.05839 -0.44447,-1.94449 -2.06685,-1.32553 -1.33421,-0.84343 -1.18945,-2.03279 -0.91725,-1.89671 -0.35833,-3.08688 0.3547,-2.72347 1.38995,-2.05526 1.16341,-2.31442 3.50747,-1.55576 2.64887,-2.47516 -0.11939,-3.23164 1.5579,-28.74253 0.77318,-1.94449 -0.22569,-1.24808 1.00342,-0.94836 -0.67692,-1.39794 -0.22623,-2.59604 0.0499,-4.29294 -0.82601,-2.12259 -1.20609,-1.37188 -0.16266,-1.46452 0.58932,-8.24568 -0.25721,-3.37499 0.48285,-1.76712 0.10069,-3.02026 -0.27564,-2.82051 0.32586,-1.67227 0.70219,-1.42326 0.0214,-1.10256 -1.12569,-0.49517 -0.63707,-1.11124 -5.59245,-2.12403 -6.1267,11.23696 -10.07361,9.13756 -25.3704,13.24732 -7.18147,6.91003 z"
      data-name="Santos Reis" id="santos_reis" />
   <path class="neighborhood"
      d="m 436.09277,428.33195 19.05551,26.60909 7.35663,-11.52654 1.85115,-2.9001 4.1279,-1.30457 8.40129,-2.65539 15.99328,1.5398 17.31945,-1.90684 7.52539,7.04753 1.24444,1.16557 5.02125,8.71982 3.08613,5.35934 3.75434,3.68989 8.40564,8.26232 9.43366,2.78643 12.67686,0.2931 12.46482,-6.67688 27.37208,4.56153 8.68368,-39.95927 12.77532,-18.08105 13.13514,-15.75437 9.19183,-8.84434 7.1815,-6.91 25.37043,-13.24737 10.07361,-9.13754 6.12669,-11.23699 -9.76522,-3.70944 -0.38804,-0.34081 -0.58998,-0.28384 -0.93536,0.16426 -0.60953,0.71597 -2.5273,0.24466 -1.2857,-0.3433 -0.68993,0.21795 -0.25134,0.93603 -4.23361,2.37165 -0.70801,-0.42788 -0.71306,0.3027 -0.0708,0.90133 -3.8427,2.40924 -0.92374,-0.1194 -0.76229,0.45898 -0.11992,0.8188 -3.85352,2.23621 -0.70299,-0.19978 -0.84262,0.33936 -0.30129,0.939 -2.65902,1.4891 -4.97199,-1.91116 -3.7493,-3.30261 -7.0526,-8.19138 -4.98215,-10.5058 -1.86992,-28.1554 0.14343,-12.31928 -0.29452,-4.90034 -13.66653,0.0393 -4.98286,-9.10355 -0.47997,-0.89693 -0.40831,-0.50245 -0.50606,-0.36627 -0.57403,-0.36055 -1.56517,-1.00267 -2.54177,-1.37908 -6.06804,-3.21645 -0.44669,0.51688 -3.14043,3.01883 -1.77366,1.77147 -1.28496,1.40373 -1.52318,1.60494 -3.74347,4.39868 -0.93608,1.1735 -0.49081,0.59292 -1.09749,-0.88971 -3.51834,-2.87767 -3.24831,-2.89868 -2.35934,-1.72948 -1.67951,-1.28424 -0.81589,-0.71525 -1.5782,-1.47684 -1.06274,-1.11196 -1.52895,-1.26547 -3.5169,-3.27363 -1.70272,-1.59412 -2.41869,-2.2884 -2.89064,-2.53304 -94.34224,-80.22326 -0.24252,-0.75146 -0.52991,-0.50748 -0.75871,-0.29914 -0.33512,0.20692 -0.20486,0.12678 -0.1071,0.24325 0.0761,0.58276 0.37283,0.66531 0.14771,0.5531 -0.2476,0.59145 -0.35256,0.44088 -0.5039,0.68846 -0.48504,0.66385 -0.11726,0.39673 -0.0355,0.73479 -0.0107,0.98457 -0.28026,0.35762 -0.889,0.93533 -1.07502,1.40587 -0.73843,0.62258 -0.25989,0.35983 0.1039,0.57913 0.43074,0.37646 0.56541,0.33083 0.75072,0.42497 0.032,0.40537 0.26363,0.11574 0.42569,0.3866 0.71378,0.42856 0.42278,0.38946 -0.0975,0.39167 -0.42569,0.21936 h -0.66819 l -0.62545,-0.0107 -0.68053,-0.0905 -0.14076,0.76011 -0.25187,0.60666 -0.63926,0.32087 -0.37353,0.349 -0.41626,0.30271 0.003,0.32371 0.22222,0.49085 0.39455,0.33725 0.3808,0.43942 0.43872,0.24608 0.7507,0.42567 0.42638,-0.44886 0.38083,-0.3344 0.36559,-0.43654 0.61822,0.0566 0.78042,0.45103 0.49516,0.44448 -0.12366,0.64939 -0.35836,0.5661 0.26282,0.58568 1.74615,0.57625 1.05406,0.41698 0.63124,0.58205 0.51258,1.02005 0.23157,0.79993 0.38804,0.66459 -0.15706,0.84701 -0.43146,0.63055 -0.72609,0.86656 -0.14343,0.59651 0.31052,0.55815 0.51832,0.4286 0.46694,0.38657 0.66602,-0.52774 0.82024,-0.1485 0.79343,0.19196 0.55745,0.45245 0.17602,0.50531 -0.0134,0.87888 0.32089,1.75263 0.0286,0.97806 -0.20059,0.48575 0.25507,2.26738 -0.1282,0.78404 -0.21074,1.01567 0.0962,0.70366 0.21234,0.58711 0.78616,0.375 1.29369,1.11777 1.02222,0.67254 0.51907,0.57407 0.31552,0.84701 -0.716,1.11922 -0.98742,1.72226 -0.4192,0.77461 0.35908,1.22563 0.99399,1.91627 1.61872,1.61004 1.17425,0.69932 1.3646,-0.29594 1.04607,-1.06851 1.4906,0.40249 0.61031,-0.0659 0.94759,0.35691 1.08523,-0.0687 0.92158,0.17094 0.25026,0.59584 -0.0187,1.0859 0.3141,0.74348 0.46693,2.13055 -0.0884,1.1547 1.24736,0.94618 1.64259,1.13079 1.30673,-0.0478 1.32118,-0.26362 0.41552,0.30983 -0.12607,0.48432 0.17815,0.68918 0.29094,0.27278 0.15278,0.33226 -0.11565,0.74274 -0.47639,1.21191 -0.27671,1.04246 -0.10069,1.01133 0.14503,1.0852 -0.0783,0.81874 -0.17307,0.53643 -0.69787,0.71312 -0.70584,0.55451 -0.35398,0.65662 -0.16961,0.75288 0.44378,0.86226 1.03525,0.5965 0.76955,0.31944 0.50457,0.44015 0.38803,1.17497 -0.25854,0.76519 -0.44741,1.83376 -0.72829,3.70942 0.58713,1.40157 0.80066,1.1496 1.09169,1.43341 0.65299,0.62839 1.08301,0.11939 0.75,1.52176 3.25702,2.44837 1.12716,1.36752 1.3024,1.007 0.923,1.19086 1.68535,1.43338 2.49682,1.70128 1.54273,0.37863 0.72756,0.49444 1.18221,0.11512 1.07067,0.78112 0.65011,1.05047 3.78041,3.32211 1.64479,2.50122 3.68193,0.90785 5.92616,4.39935 7.61948,5.4165 2.62791,2.41436 3.73332,1.66217 2.1125,1.44928 1.92638,2.41145 4.64625,3.47131 2.4766,1.74973 0.59358,0.66314 0.37359,1.17205 -9.21288,-0.61824 -22.86415,-1.19668 -10.53473,-0.2265 -12.92013,-0.4474 -3.21214,0.14022 -3.0977,0.51979 -4.25752,1.26835 -3.02748,1.35376 -0.10016,0.0558 -1.60063,0.88542 -12.27369,7.48259 -28.08009,16.90904 -5.15519,3.18319 -6.47926,3.84628 -24.68917,14.67857 -3.59367,2.13634 -13.21473,8.16529 0.0665,0.0876 3.25341,4.29588 3.06805,4.05117 0.42351,0.55379 2.54465,3.39964 1.45945,1.87425 0.44957,0.6262 1.19305,1.42401 12.37863,17.0683 20.11029,27.60159 z"
      data-name="Redinha" id="redinha" />
   <path class="neighborhood"
      d="m 341.66368,409.78752 -1.67737,-0.0187 -1.67663,0.13461 -4.26692,0.45609 -1.86629,0.0986 -2.20149,0.3223 -1.99519,0.67251 -1.20245,0.63275 -1.08523,0.72104 -1.23498,1.12281 -1.09752,1.30379 -1.05841,1.54492 -1.98504,4.22638 -1.67734,3.53931 -1.25387,1.73744 -1.51808,1.47393 -1.24303,0.94188 -3.64285,1.92422 -3.00213,1.62454 -2.96458,2.02483 -1.7063,1.62959 -1.10475,1.61148 -0.76517,1.43846 -0.67473,2.00892 -1.25822,4.86994 -0.91651,3.83036 -2.02774,8.70102 -1.92714,7.31034 -1.96837,8.29851 -1.82144,6.89406 -1.14888,4.66144 -0.49879,2.37887 -0.032,1.52168 0.0363,1.01571 0.11832,1.19524 0.29381,1.46669 0.063,0.23691 0.81223,2.73795 2.89647,9.76082 0.16426,0.5915 0.9708,2.50192 1.34583,2.72344 5.10739,8.15516 1.57382,3.36776 0.97732,5.24857 0.21929,2.45128 0.15197,3.24972 0.24546,1.72516 0.26202,1.17136 0.37356,1.736 0.91794,3.85421 0.63056,2.67134 0.62836,2.46356 -0.49661,0.21127 -0.30697,0.10016 3.59436,8.96889 4.56294,11.38464 2.2797,5.68727 0.32158,-0.17602 0.70005,-0.24038 9.39167,-1.85184 9.42059,1.05622 17.27464,8.07116 14.88127,14.06832 17.40853,9.80211 25.83519,9.41846 19.10839,4.45947 19.61149,-1.20609 5.08567,-0.41917 40.48409,-3.91575 35.42449,-8.39119 10.85833,-7.3147 16.13156,-10.86702 19.28571,-21.78039 1.51883,-1.71503 16.02507,-30.76884 6.46622,-19.8598 1.125,-13.98576 -1.76207,-27.08906 -27.37208,-4.56153 -12.46479,6.67685 -12.67689,-0.29308 -9.43363,-2.78645 -8.40564,-8.26234 -3.75437,-3.68987 -3.08613,-5.35936 -5.02125,-8.71983 -1.24444,-1.16551 -7.52539,-7.04755 -17.31948,1.90686 -15.99325,-1.53985 -8.40129,2.65544 -4.12793,1.30451 -1.85109,2.9001 -7.35668,11.52655 -1.01496,1.3907 -3.7232,5.10012 -2.62136,2.60766 -2.33036,2.31877 -8.0401,1.12353 -5.89427,0.82385 -9.63852,-1.70996 -5.21673,-0.92518 -6.41337,-2.42446 -5.10234,-1.9293 -0.76955,-1.43341 -2.91962,-5.43965 -2.67566,-6.96214 -2.37454,-2.89721 -3.41989,-2.52363 -3.24975,-1.45801 -1.21114,-0.19151 -2.07553,-0.32943 -3.28741,0.56902 -2.81831,1.41821 -2.00529,3.29029 -1.38202,2.26813 1.12575,3.4184 0.69714,2.11824 4.25242,5.36804 8.02922,5.58663 1.16627,2.28327 2.24852,4.40154 -0.53207,3.87163 -3.89914,3.3381 -48.38877,-68.22544 z"
      data-name="Salinas" id="salinas" />
   <path class="neighborhood"
      d="m 174.21957,492.44175 3.54081,1.2148 10.43485,3.93166 29.16457,10.80628 28.68604,10.62957 16.07218,5.86897 12.02027,3.7384 4.90324,1.79247 7.06783,2.81468 5.6764,2.85523 5.05381,2.16962 2.397,1.23504 2.55835,1.93582 2.54177,2.84801 0.19471,0.34899 0.86942,1.56078 0.74858,1.86853 0.30697,-0.10016 0.49661,-0.21127 -0.62837,-2.46356 -0.63055,-2.67131 -0.91795,-3.85423 -0.37355,-1.736 -0.26202,-1.17137 -0.24546,-1.72513 -0.15198,-3.24975 -0.21928,-2.45127 -0.97735,-5.24858 -1.57382,-3.36775 -5.10741,-8.15513 -1.34578,-2.72347 -0.97083,-2.50192 -0.16426,-0.59148 -2.89647,-9.76085 -0.81226,-2.73794 -0.063,-0.23638 -0.2938,-1.46672 -0.11833,-1.19521 -0.0363,-1.01571 0.0321,-1.52168 0.49882,-2.37887 1.14885,-4.66147 -0.66461,-0.40323 -4.25236,-1.48261 -3.44163,-0.93675 -15.99975,-4.76211 -2.51858,-0.74781 -0.15625,-0.42858 -0.13809,-3.05429 -0.67404,-0.14664 -56.68362,-17.42159 -19.21047,-6.18316 -0.25187,-0.36559 -6.66964,-2.4469 -3.09337,-0.9766 -9.76088,-2.67638 -2.87763,-0.87166 -0.87887,-0.26576 -1.85692,-0.58568 -0.96209,-0.32086 -0.3562,-0.11859 -4.5912,-1.68239 -3.62189,-1.5391 -1.41744,-0.63275 -1.38349,-0.5509 -0.78616,-0.29453 -3.90566,-1.44356 -3.70079,-1.36752 -1.97128,-0.96572 -1.2785,1.16626 -0.94543,0.95272 -1.07286,1.08154 -2.96022,2.69668 -1.92783,1.81132 -1.36824,1.30884 -1.68971,1.54054 -2.31874,2.23627 -3.33301,3.14625 -1.3552,1.20967 -1.97639,1.7845 -1.81922,1.64262 -1.63611,1.4805 -3.75509,3.38803 -3.22587,2.9247 -3.72104,3.56324 -3.74134,3.64211 -0.3027,0.27564 -0.14556,0.31196 12.27513,4.83958 9.17372,3.61751 0.87307,0.32799 42.43582,15.92448 4.29369,1.7266 4.72226,1.65058 z"
      data-name="Igapó" id="igapo" />
   <path class="neighborhood"
      d="m 29.897388,436.77669 0.959186,0.53208 2.71479,1.50507 19.455828,7.76208 7.667235,2.82481 21.991078,8.2652 0.642867,0.24172 0.193376,0.0724 16.924232,6.37499 0.14557,-0.31197 0.3027,-0.27564 3.74133,-3.64214 3.72104,-3.56324 3.22588,-2.9247 3.75506,-3.38802 1.63611,-1.48047 1.81925,-1.64263 1.97636,-1.7845 1.35518,-1.20969 3.333,-3.14626 2.3188,-2.23624 1.68968,-1.54056 1.36822,-1.30887 1.92788,-1.81129 2.96019,-2.69668 1.07286,-1.08154 0.94546,-0.9527 1.2785,-1.16629 1.97128,0.96576 3.70074,1.36752 3.90565,1.4435 0.78622,0.29453 1.38343,0.5509 1.41749,0.63275 3.62187,1.53909 4.59117,1.6824 0.3562,0.11859 0.96212,0.32086 1.85689,0.58568 0.8789,0.26576 2.87761,0.8716 9.76087,2.67644 3.09342,0.97655 6.66964,2.44695 1.83734,-8.0198 0.4836,-2.16239 0.12259,-0.5531 0.26282,-1.16917 1.01859,-4.54486 0.18029,-0.67618 0.0532,-0.28953 0.42276,-1.99444 0.3931,-1.85474 0.14984,-0.7312 0.25775,-1.25892 0.66963,-2.98479 0.3497,-1.54562 0.76739,-3.93172 0.87884,-3.89262 0.14023,-0.65227 0.50459,-2.15875 1.33493,-5.48671 0.41269,-1.85478 0.75721,-4.10544 0.59797,-2.70899 0.86586,-3.92593 0.30342,-1.29583 1.07866,-4.82504 0.89262,-3.99398 0.27137,-1.29441 0.5828,-3.16864 0.5567,-2.4766 0.003,-0.0133 0.57406,-2.55405 0.94402,-4.20031 0.76666,-2.76255 1.48045,-4.70923 1.48119,-4.7092 0.0815,-0.25561 0.24813,-0.77826 0.11939,-0.43798 0.71021,-2.60475 2.48092,-7.79533 0.31624,-1.05553 0.65229,-1.38127 0.4387,-0.86656 1.76496,-3.17373 0.39529,-0.77754 0.3547,-0.65732 0.25187,-0.41046 0.27206,-0.36704 6.12379,-6.10138 2.13923,-1.89019 0.33157,-0.3902 0.91944,-1.52895 0.25614,-1.03525 0.44236,-1.78595 -2.40349,-0.53282 -17.49397,-1.31829 -1.35377,-0.16266 -2.49903,-0.33227 -3.51545,-1.52096 -0.77172,-0.33368 -8.45056,-5.44043 -3.75291,-2.79005 -2.58514,-2.58806 -2.1219,-2.64024 -1.97924,-3.48068 -1.76134,-4.3755 -2.58806,-6.62907 -3.35549,-7.1721 -3.2309,-4.94595 -15.17087,-19.38997 -0.11432,-0.1461 -4.77651,-5.4788 -13.4298,-17.76762 -3.23095,-5.62573 -6.46187,-18.23889 -2.20584,-4.49785 -1.1496,-1.74615 -4.81639,-5.68941 -2.3528,-2.04657 -4.16844,-3.23529 -2.78135,-2.15879 -4.18437,-3.24756 -4.610775,-3.57916 -1.132983,-0.87888 -2.293397,-2.12909 -1.272673,-1.18219 -2.655416,-2.93632 -2.78792,-3.82962 -2.361453,-4.63756 -2.360758,-8.03716 -0.970083,-6.60956 -0.10016,-0.32372 -21.765223,10.47319 -27.133934,13.20463 -3.420585,2.03358 -11.808891,9.65155 -11.5671189,9.93024 -2.0610259,2.17834 -1.6303111,2.04006 -1.315408,2.28041 L 1.551992,205.70928 0.86641678,207.703 0.34229949,209.96678 0,213.35545 l 0.20619607,3.5205 6.02100533,49.29948 3.8824956,33.71528 2.430977,21.05868 5.122583,44.44476 -0.04487,1.32983 0.784747,5.67646 2.999992,24.72539 9.000726,37.30741 -0.507478,2.34412 z"
      data-name="Nossa Senhora da Apresentação" id="nossa_senhora_da_apresentacao" />
   <path class="neighborhood"
      d="m 617.10346,636.31947 0.39458,-0.36993 1.61148,-0.58133 1.40657,-0.80285 1.01501,-0.99829 0.9056,-1.16773 0.91578,-1.92131 4.04903,-11.15735 2.59676,-6.11002 0.23745,-0.2671 2.88277,-8.33179 2.98912,-7.89528 1.36968,-3.76155 1.63031,-4.47756 2.34487,-6.16798 -0.45609,-0.2265 -0.63707,-0.35256 -4.69764,-2.5982 -1.25243,-0.65735 -3.60736,-1.98936 -1.2032,-0.71961 -2.25288,-1.24663 -1.44647,-0.94185 -1.02941,-0.52412 -1.13079,-0.65368 -3.00582,-1.68608 -4.31975,-2.66121 0.29167,-0.61824 -0.30911,-1.55358 -1.22564,-0.73044 -1.26111,-0.63852 -1.26687,-0.0916 -1.06205,0.27671 -4.86703,2.62499 -0.3547,0.18082 -5.58588,3.21794 -0.46116,0.26576 -3.84703,2.47078 -2.40055,2.02849 -0.78115,-0.39164 -0.19898,-0.17121 -0.93603,-0.60013 -14.33832,-9.50751 -19.28571,21.7804 -16.13156,10.86704 10.85547,13.56086 3.83977,3.90127 5.20658,3.17956 5.66772,4.05186 3.09916,1.38926 2.01183,0.9918 0.7355,0.74709 2.19283,3.09844 4.93581,3.68487 2.53309,1.77802 3.01738,1.68891 2.27531,-0.0833 3.76305,2.77632 0.57695,0.28881 0.9368,0.68846 1.83734,1.72948 1.40881,1.38707 4.31828,5.39553 3.69644,4.91046 3.27,3.12595 0.63996,0.61464 0.20272,-1.11197 0.066,-0.31196 0.1015,-0.47126 0.0975,-0.38368 0.0919,-0.27957 0.0542,-0.13675 0.0724,-0.15919 0.0804,-0.16212 0.46333,-0.64941 0.7746,-1.06998 0.54006,-1.00336 0.32799,-0.69065 0.5437,-1.41025 0.68413,-1.8844 3.79273,-10.32337 z"
      data-name="Cidade Alta" id="cidade_alta" />
   <path class="neighborhood"
      d="m 450.14007,799.18829 0.75942,0.26576 0.46549,0.18029 3.00435,1.12064 1.29148,0.49228 2.41292,0.82604 1.99516,0.69062 2.55405,0.93387 2.18849,0.79997 0.49006,0.20059 4.40883,1.68098 4.23068,1.63322 2.69668,1.02072 2.47873,0.9223 4.61225,1.83811 4.65634,1.7454 1.04322,-2.82261 0.74129,-2.0075 0.5039,-1.36461 0.99393,-2.69016 0.29025,-0.78622 1.12933,-3.05576 1.22708,-3.32139 1.34652,-3.64579 3.91794,-10.8062 1.61875,-4.48917 1.4978,-4.10039 0.21368,-0.3141 0.254,-0.26576 0.70438,-0.52847 0.44452,-0.29236 0.49009,-0.34332 2.98549,-2.22105 0.59584,-0.39959 2.5041,-1.73237 3.67833,-2.59102 1.52027,-1.1192 5.22683,-4.18506 0.43074,-0.39167 0.0427,-0.29522 -25.18293,-9.56469 -0.67831,-0.20967 -3.92085,-1.25168 -20.73867,-7.70778 -13.27924,-4.9163 -0.41336,0.30913 -10.14527,7.59987 -9.04635,6.05864 -0.38293,0.25561 -0.14289,0.11004 -0.14984,0.11352 -1.90684,1.44428 -2.72926,2.03354 -1.86923,1.42398 -0.86944,0.72901 -0.70291,0.58856 -1.72807,1.58542 -2.86388,2.66845 -3.11225,3.23671 -1.56733,1.64049 -0.26362,0.28809 -1.36896,1.60934 -1.37188,1.69543 -3.603,4.68533 -0.82241,1.23359 -4.66001,6.98962 -0.35908,0.53862 0.33227,0.18937 2.97681,1.40737 1.56952,0.58929 2.7032,1.02147 1.70632,0.60451 1.90902,0.73333 5.00822,1.8453 4.36826,1.6419 4.61655,1.79033 5.701,2.09436 3.89334,1.5521 0.42785,0.0286 0.42206,0.10657 1.92059,0.6921 0.0652,-0.0457 0.18617,-0.058 0.19337,0.024 0.16266,0.10711 0.1007,0.1664 0.0214,0.11298 0.61536,0.24813 2.19714,0.81372 0.52919,0.19845 0.60521,0.36485 z"
      data-name="Dix-Sept Rosado" id="dix-sept_rosado" />
   <path class="neighborhood"
      d="m 477.44486,844.04133 1.37623,-3.82095 1.29583,-3.55382 0.37863,-1.06778 1.08806,-3.07457 0.40395,-1.14238 0.23825,-0.67978 2.24569,-5.96884 0.84482,-2.21816 1.12067,-3.10646 1.94812,-5.86969 -4.6564,-1.74538 -4.61219,-1.83811 -2.47876,-0.92227 -2.69668,-1.02078 -4.23071,-1.63317 -4.40877,-1.68103 -0.49009,-0.20059 -2.18851,-0.79997 -2.55406,-0.93389 -1.99513,-0.6906 -2.4129,-0.82604 -1.29153,-0.49227 -3.00432,-1.12068 -0.46549,-0.18028 -0.75945,-0.26576 -0.60518,-0.36485 -0.52922,-0.19845 -2.19713,-0.81373 -0.61536,-0.24813 -0.0214,-0.11298 -0.10069,-0.1664 -0.16266,-0.1071 -0.19338,-0.024 -0.18616,0.058 -0.0652,0.0457 -1.92056,-0.69209 -0.42207,-0.10657 -0.42788,-0.0286 -3.89331,-1.55211 -5.701,-2.09435 -4.61658,-1.79033 -4.36823,-1.6419 -5.00821,-1.8453 -1.90903,-0.73333 -1.70635,-0.60451 -2.7032,-1.02147 -1.56946,-0.58932 -2.97684,-1.40734 -0.33226,-0.18937 -2.06757,3.1028 -2.27751,3.41844 -6.6291,9.99325 -8.19787,13.0345 -17.43534,26.80023 -0.17655,0.30342 14.70034,5.75244 30.01808,11.04874 6.63781,2.76688 0.63632,0.26148 18.20637,6.46329 0.52481,0.1891 12.10571,4.42325 0.71309,0.24813 11.00462,3.85646 0.60518,0.17654 1.93797,-5.19424 3.29393,-9.74714 0.13809,-0.3148 0.21074,-0.68416 2.79657,-7.31179 2.3477,-6.34966 -0.15919,-0.38512 0.18563,-0.0601 0.41771,-0.70732 z"
      data-name="Nossa Senhora de Nazaré" id="nossa_senhora_de_nazare" />
   <path class="neighborhood"
      d="m 634.73427,890.57177 -0.16427,-0.89986 7.13514,-18.34026 0.18456,-0.45897 1.21979,-3.16941 0.70299,-1.78162 0.15918,-0.28099 0.20059,-0.44233 0.10577,-0.50601 2.14065,-6.02028 1.58907,-4.28212 1.48843,-3.94329 1.42398,-3.72392 1.09677,-2.8813 0.80502,-2.12617 0.42061,-1.14241 1.74105,-4.72443 0.67254,-1.87715 0.73844,-2.06175 0.23851,-0.69426 0.18884,-0.53285 0.18883,-0.53282 0.24466,-0.69786 0.78111,-2.22468 0.79851,-2.27531 0.16853,-0.48 0.9715,-2.76762 0.36124,-1.04391 0.43149,-1.24588 0.27351,-0.84121 1.81634,-5.34123 0.68416,-1.71284 -0.47489,-0.15999 -6.40544,-2.41647 -7.96477,-2.95948 -4.89599,-1.84967 -0.54294,-0.17949 -19.40156,-7.04464 -0.70149,-0.2305 -17.88059,-6.49881 -2.70536,-1.10398 -0.31411,-0.12206 -0.3344,-0.12954 -13.05264,-4.73815 -12.98095,-4.75413 -0.59001,-0.21287 -22.19593,-7.85981 -31.31542,-11.48961 -0.0427,0.29522 -0.43077,0.39166 -5.2268,4.18511 -1.5203,1.11921 -3.6783,2.59096 -2.50414,1.73237 -0.5958,0.39965 -2.98552,2.22104 -0.49011,0.3433 -0.4445,0.29238 -0.70438,0.52845 -0.254,0.26576 -0.21368,0.3141 -1.49783,4.10039 -1.61872,4.48914 -3.91797,10.80623 -1.34652,3.64577 -1.22705,3.32141 -1.12936,3.05576 -0.29022,0.78616 -0.99399,2.69017 -0.50384,1.36463 -0.74135,2.00748 -1.04316,2.82264 -1.94815,5.86969 -1.12064,3.10643 -0.84485,2.21816 -2.24564,5.96887 -0.23824,0.67975 -0.40396,1.14239 -1.08811,3.07456 -0.37863,1.06781 -1.29583,3.55379 -1.3762,3.82098 -0.41773,0.70729 -0.18563,0.0601 0.15919,0.38515 -2.3477,6.34966 -2.79657,7.31176 -0.21074,0.68416 -0.13809,0.31482 -3.29393,9.74712 -1.938,5.19425 -0.21154,0.3598 2.02342,0.72534 -1.51519,2.42596 -0.7355,1.17785 -3.96503,6.41625 -2.80813,4.54561 -0.063,0.70657 -0.9665,0.39383 -4.54414,8.71042 7.40297,2.9978 9.79199,3.08402 99.70734,43.0671 0.87526,0.41047 0.61028,-0.37137 0.0959,2.54465 0.71886,4.30667 0.66674,3.33594 5.16529,18.59071 7.56011,25.52822 1.78955,3.8992 0.76739,-0.931 1.29153,-0.6906 0.66965,-0.3953 0.31052,-0.183 1.16555,-0.687 2.55624,-1.6412 0.2735,-0.1722 6.51398,-4.14968 3.64433,-2.27823 0.7254,-0.44164 5.01903,-3.07093 2.12623,-1.2075 2.68004,-1.69984 5.68142,-3.38295 0.70443,-0.34332 0.30625,-0.17308 1.94813,-0.81591 14.55188,28.21048 1.67086,2.4252 1.23357,1.0229 0.63055,0.5227 3.9766,1.4218 23.36367,2.4107 10.71284,1.1533 1.34145,0.1445 3.47927,0.064 2.04658,-0.4127 2.48963,-1.3204 2.07625,0.944 4.58396,-9.7008 0.34615,-4.0874 0.64792,-7.6549 -0.54007,-3.27433 -1.20533,-3.4438 -2.9906,-4.42904 -5.87188,-8.69525 -3.74059,-5.28399 -2.27024,-3.20563 -0.91506,0.49303 -2.67203,-2.71987 -23.61709,-18.54223 -0.74637,-0.56613 -14.06828,-10.66795 -0.0377,-0.75142 2.76762,-7.44717 0.70873,-1.96044 1.38782,-3.81516 1.43918,-3.80283 1.4493,-3.9194 0.94548,-2.54754 0.11138,-0.29987 0.30342,-1.16554 0.0187,-0.17441 -0.55889,-0.67545 -0.34295,-0.16346 -17.89434,-6.63709 -0.21875,-0.0665 1.36388,-3.40977 2.7039,-7.21472 1.81564,-5.57291 z"
      data-name="Lagoa Nova" id="lagoa_nova" />
   <path class="neighborhood"
      d="m 770.24833,651.15442 -3.71308,2.89794 -5.17616,4.2365 -1.12935,-1.28937 -0.88323,-0.85932 -0.81584,-0.7536 -2.04876,-1.73817 -3.05793,-2.51206 -1.98068,-1.61293 -3.86367,-3.70875 -0.56322,-0.63779 -0.30128,-0.38656 -4.0584,-5.78575 -0.12607,-0.19044 -0.34402,-0.53357 -0.0804,-0.12153 -5.68727,-8.59167 -4.38848,-6.63928 -1.43053,-2.24927 -0.42855,-0.67398 -0.52489,-0.78259 -0.3786,-0.52126 -0.34901,-0.39091 -0.67036,-0.66167 -0.64577,-0.49805 -0.61605,-0.47271 -1.07286,-0.67184 -1.34007,-0.70005 -0.35397,-0.16427 -0.38876,-0.1883 -1.84463,-0.66674 -1.27697,-0.66167 -0.90203,-0.31269 -2.4614,-1.01495 -0.52489,-0.23157 -0.50459,-0.32869 -0.76733,-0.67614 -1.22059,-1.26691 -3.00146,-2.70029 -0.33368,-0.29986 -0.78042,-0.70224 -3.19546,3.75293 1.69258,0.73114 1.64839,0.73266 -1.77943,4.24516 -2.43822,5.73142 -2.59315,1.85691 0.76666,-0.46041 5.70896,-2.73579 0.63635,0.95777 2.28403,3.43586 0.54946,1.17276 0.1493,0.31837 -0.44374,4.47897 0.54436,0.78475 -2.01177,1.32048 -1.87505,-1.84751 -1.3371,-0.5574 -1.23288,1.65344 -0.38514,0.57337 -2.52,3.64722 1.4247,3.92157 0.24065,0.26362 5.53813,6.06155 -0.93243,6.65661 4.98939,2.3716 0.60302,0.2867 2.60982,-1.11269 2.51642,3.25771 2.56925,3.32724 1.50795,1.9517 1.00775,2.07847 4.52242,5.5736 3.04925,2.2087 3.12958,2.26741 2.01544,1.58974 5.06104,5.20511 1.20104,0.7008 4.21332,2.45849 13.76134,11.14578 0.18296,0.1485 4.03883,2.71984 2.34919,5.00314 1.80622,3.10277 0.73336,0.47348 0.55817,-0.22222 2.42446,1.95971 2.30138,1.85908 0.0799,0.0644 5.69668,2.05891 2.11682,2.51928 0.29094,1.43777 0.60959,0.0855 0.57767,-0.0526 13.34655,-0.58638 2.48744,-0.11431 3.49662,-17.6822 1.11341,-1.98867 -2.86391,-2.83714 -4.47608,-1.17132 -2.78501,-2.41652 -3.10643,-4.96113 -2.65395,-17.00535 -1.05619,-4.94593 -2.05021,-10.38491 -5.77851,-2.16313 -6.21428,1.23576 -1.86343,0.37069 -3.47996,-0.43295 -1.0439,-1.01637 z"
      data-name="Mãe Luiza" id="mae_luiza" />
   <path class="neighborhood"
      d="m 672.54341,815.1866 -4.18943,-1.67374 -4.81129,-1.99372 -0.68413,1.71284 -1.81635,5.34123 -0.2735,0.84121 -0.43149,1.24588 -0.36124,1.04391 -0.97153,2.76762 -0.16853,0.47999 -0.79851,2.27532 -0.78114,2.22467 -0.24465,0.69786 -0.18884,0.53283 -0.18883,0.53285 -0.23852,0.69426 -0.73843,2.06174 -0.67254,1.87716 -1.74105,4.72443 -0.42062,1.14241 -0.80502,2.12617 -1.09676,2.8813 -1.42401,3.72392 -1.48841,3.94329 -1.58907,4.28212 -2.14067,6.02028 -0.10577,0.50601 -0.20059,0.44233 -0.15919,0.28098 -0.70299,1.78162 -1.21981,3.16941 -0.18456,0.45898 -7.13513,18.34026 0.16426,0.89986 -1.81562,5.57288 -2.70392,7.21477 -1.36389,3.40975 0.21875,0.0665 17.89432,6.63706 0.34332,0.16346 0.5589,0.67548 -0.0187,0.17441 -0.30342,1.16552 -0.11138,0.29986 -0.94548,2.54754 -1.4493,3.91941 -1.43918,3.80282 -1.38779,3.81516 -0.70876,1.96044 -2.76762,7.44717 0.0377,0.75142 14.06829,10.66795 0.74636,0.56613 23.61709,18.54223 2.67203,2.71987 0.91506,-0.49303 -0.0868,-4.45653 8.01541,-14.21746 4.3661,-20.45051 8.12402,-17.39408 7.21838,1.5731 3.34388,0.72828 7.58037,-2.90515 -12.55093,-16.69042 -9.89335,-9.45243 -7.01926,-9.83908 -0.35908,-4.66289 2.07478,-6.31059 -3.0094,-4.10397 -8.37816,-12.9556 -2.53666,-5.13709 1.31103,-3.57625 1.05988,-0.3547 0.95846,-1.80117 2.86319,-0.40753 1.73963,-7.72663 -10.47321,-15.6653 -1.96044,-0.92371 -0.63488,-0.28243 z"
      data-name="Nova Descoberta" id="nova_descoberta" />
   <path class="neighborhood"
      d="m 702.46666,622.71304 -0.84479,-0.42204 -1.19669,-0.63491 -4.84678,-2.04005 -5.40928,-2.34412 -0.16052,-0.0799 -3.06661,8.33034 -0.65879,-0.25347 -0.87595,-0.33939 -2.0379,-0.7891 -3.81733,-1.47828 -0.4387,-0.17014 -0.76303,-0.29522 -0.94113,-0.3649 -3.30766,-1.28061 -3.41121,-1.32195 -0.65587,-0.28312 -0.89914,-0.31944 -1.00483,-0.38871 -5.36797,-2.07486 -0.74783,-0.0833 -0.89989,-0.28739 -0.56464,-0.22222 -7.73532,-3.05141 -0.85493,-0.34223 -0.89552,-0.33798 -10.40662,-3.80068 -0.76087,-0.3191 -0.86367,-0.62115 -5.07769,-2.12329 -0.5379,-0.22516 -0.29879,-0.13755 -2.88274,8.33176 -0.23745,0.2671 -2.59673,6.11002 -4.04903,11.15735 -0.91578,1.92133 -0.90564,1.16774 -1.01498,0.99828 -1.40659,0.80289 -1.61148,0.58133 -0.39455,0.36992 -3.79273,10.32337 -0.68413,1.8844 -0.54364,1.41025 -0.328,0.69062 -0.54006,1.00339 -0.77462,1.06998 -0.4633,0.64938 -0.0804,0.16213 -0.0724,0.15919 -0.0542,0.13675 -0.0919,0.27954 -0.0975,0.38365 -0.10149,0.47132 -0.066,0.31196 -0.094,0.45462 -0.23318,1.26471 -0.0499,0.2273 -0.0996,0.42131 -0.10577,0.47129 -0.16693,0.88469 -0.2945,1.43194 -0.50531,2.72705 -0.32871,1.51955 -0.73189,3.29102 -1.1489,4.47325 -0.17442,0.73985 -0.16853,0.7985 -0.9223,4.31035 4.10039,1.57383 2.98266,1.14529 3.16868,1.21618 1.41744,0.54439 0.83689,0.32158 2.92905,1.12425 1.70125,0.65299 2.36514,0.90858 0.67179,0.25774 0.77099,0.29239 0.52628,0.18509 3.12454,1.15614 4.22999,1.55793 0.84989,0.3344 5.069,1.84463 1.84968,0.69567 0.75144,0.28243 0.94837,0.3547 0.55162,0.19684 1.96191,0.70003 1.90611,0.67978 0.23104,0.0863 0.22649,0.0847 3.12521,1.16915 0.76234,0.28525 0.29022,0.0919 -2.6525,7.21986 -2.45924,7.09239 -0.1883,0.59439 -0.3699,-0.13168 -12.88829,-5.18195 -0.97513,2.07988 -8.03647,21.85208 -0.85643,1.94663 -6.18388,16.83957 0.0499,0.83544 -0.7138,0.48793 0.0644,0.35689 -7.47394,20.61488 -6.51401,17.54683 -0.13034,0.31624 -0.15358,0.47128 0.3141,0.12206 2.70536,1.10401 17.88057,6.49881 0.70149,0.2305 19.40156,7.04464 0.54294,0.17949 4.89599,1.84967 7.9648,2.95947 6.40541,2.41648 0.47489,0.15999 4.81126,1.99372 4.18946,1.67376 0.63488,0.2824 1.96044,0.92374 5.31444,-4.9655 3.72972,1.90034 4.34943,-0.3141 3.51473,-2.44981 -0.83184,-10.1062 7.25896,-7.52893 -1.86418,-9.27295 -0.0855,-0.68119 -0.21501,-1.71506 0.70003,-0.95919 6.60017,-14.92325 -6.60885,-2.71987 0.78183,-2.38682 -10.69762,-4.2857 -3.85715,9.91218 -10.26036,-4.32267 3.01377,-7.71429 0.58929,-3.8173 -0.37284,-3.46191 -0.80793,-3.02897 0.19685,-1.5434 1.27991,0.5516 19.61945,8.45634 5.86393,-2.79799 0.22516,-0.10711 1.24302,-4.63609 -4.04611,-6.64288 -2.67492,-1.88515 -0.12099,-0.21661 -4.03233,-7.20463 -1.25024,-11.22973 -0.17922,-6.32653 -1.36677,-5.56345 -4.34946,-6.98601 -0.30341,-8.48599 -2.49327,-4.00124 -2.48525,-2.28691 0.31055,-3.89481 -2.17467,-1.54561 -0.62115,-3.21426 1.86412,-3.27654 2.1747,-2.47224 1.86415,-0.30911 2.48528,-3.83321 3.72828,0.24759 6.81515,2.61418 19.89602,35.36294 0.9078,1.34071 0.97588,0.0286 1.35884,-1.23578 -0.0449,-3.78546 -0.65299,-3.38223 -2.52799,-5.83931 -3.78399,-13.98361 2.02409,-7.45586 -3.81081,-9.55091 -2.41867,0.13034 -3.84267,-1.76787 -1.93653,-6.03545 -0.032,-1.06346 3.05141,-0.97807 0.42566,-1.21402 -0.61316,-1.68536 -1.32337,0.0513 -0.67543,-2.11463 -1.15902,-0.49949 -3.2548,-7.99952 -0.62842,-1.702 -0.36122,-3.85427 1.04103,-2.83709 0.0681,-0.18563 1.37622,-2.04658 2.52652,-1.5181 -1.08154,-0.42858 z"
      data-name="Tirol" id="tirol" />
   <path class="neighborhood"
      d="m 664.99415,559.87951 -3.30982,-2.18557 -0.67107,-0.37425 -0.32729,-0.19471 -1.5058,-0.84631 -0.80862,-0.27351 -4.39649,-1.91917 -0.0761,0.17121 -2.42882,3.55167 -1.50651,3.09553 -0.0847,0.17308 -1.46888,3.37358 -3.14046,7.35954 -1.26399,3.75287 -2.5533,6.74569 -2.34487,6.16796 -1.63028,4.47755 -1.36974,3.76158 -2.98909,7.89528 0.29879,0.13756 0.53788,0.22516 5.07771,2.12331 0.86362,0.62112 0.76089,0.31945 10.4066,3.80071 0.89551,0.33795 0.85499,0.34223 7.73527,3.05143 0.56469,0.22222 0.89983,0.2874 0.74787,0.0833 5.36798,2.07481 1.00484,0.38875 0.89914,0.31907 0.65587,0.28312 3.41121,1.32195 3.30766,1.28061 0.94113,0.3649 0.76303,0.29522 0.4387,0.17014 3.81733,1.47828 2.03789,0.7891 0.87596,0.3394 0.65879,0.25347 3.06658,-8.33032 0.16052,0.0793 5.40928,2.34412 4.84673,2.04006 1.19669,0.63488 0.84484,0.42206 1.08154,0.42858 2.59316,-1.85691 2.43824,-5.73143 1.77946,-4.24515 -1.64842,-0.73266 -1.69258,-0.73115 3.19548,-3.75292 -4.14817,-3.86581 -2.34412,-2.08568 -0.90854,-0.66025 -2.15299,-1.40368 -2.86898,-2.1863 -0.41122,0.3191 -0.4336,-1.44067 -2.827,-3.68269 1.18005,-0.34615 12.91939,-6.49592 -14.23627,-13.30892 -3.70944,-4.16334 -0.63926,-0.69279 -0.51325,-0.44741 -0.63272,-0.26415 -0.6016,0.0321 -8.11753,5.59966 -0.22649,0.15705 -0.3996,-0.44593 -14.14794,-10.82944 z"
      data-name="Petrópolis" id="petropolis" />
   <path class="neighborhood"
      d="m 724.31805,585.99921 -1.37692,0.75003 -0.43873,0.79054 -2.20077,1.06199 -1.15611,0.90854 -0.20486,0.0134 -0.49228,-0.0187 -0.31125,-0.10069 -0.78985,-0.0772 -0.4083,-0.13809 -0.3351,-0.14556 -0.87884,-0.47126 -0.35908,-0.18163 -0.64284,-0.30625 -0.44888,-0.24599 -2.63295,-1.23504 -1.70489,-0.94981 -1.71791,-1.41097 -12.91936,6.49592 -1.18007,0.34615 2.82699,3.68269 0.43363,1.44067 0.41121,-0.31944 2.86896,2.18629 2.15299,1.40368 0.90854,0.66026 2.34412,2.08568 4.14817,3.8658 0.7804,0.70224 0.33368,0.29952 3.00146,2.70031 1.22054,1.26688 0.76738,0.67617 0.50459,0.32869 0.52484,0.23157 2.4614,1.01495 0.90203,0.31269 1.27703,0.66167 1.84457,0.66674 0.38875,0.1883 0.35398,0.16427 1.34004,0.70005 1.07286,0.67179 0.6161,0.47276 0.64573,0.49805 0.6704,0.66167 0.34898,0.39091 0.37861,0.52126 0.52486,0.78259 0.42858,0.67398 1.4305,2.24927 4.3885,6.63922 5.68728,8.59173 0.0804,0.12153 0.34402,0.53354 0.12607,0.19044 4.05837,5.7857 0.30128,0.38661 0.56325,0.63774 3.86367,3.70875 1.98071,1.61293 3.05792,2.51206 2.04872,1.73822 0.81589,0.7536 0.88322,0.85932 1.1293,1.28934 5.17616,-4.23647 3.71313,-2.89794 -4.61078,-4.48554 -1.98792,-4.32696 -1.11851,-3.58568 5.02488,-4.25389 0.31125,-0.74636 -1.10254,0.29594 -5.27896,4.23145 -1.68897,-0.76375 -3.35472,0.61824 -2.56634,-1.63611 -4.33426,-5.83714 -4.61072,-7.68895 -2.46939,-4.80549 0.48288,-2.29198 0.42567,-0.59869 6.13179,-4.96187 0.0868,-0.5285 -0.59145,0.024 -5.2044,4.2314 -3.25626,-3.82814 -1.99009,-3.42355 -2.17475,-3.33805 -0.12367,-2.84361 -0.47711,-2.26522 -0.0825,-0.39308 -0.9578,-5.07991 -0.38803,-2.05669 0.52991,-1.49856 0.85791,-1.10037 5.4158,4.48116 0.67831,0.38079 0.24973,-0.18456 -0.28168,-0.81589 -5.37741,-5.10522 -3.04273,-2.88923 -0.37065,-2.21746 -0.87091,-1.15684 -1.29583,0.5285 -0.2735,0.21715 -5.30717,4.13733 -0.14557,0.0969 -0.14076,0.094 -0.22729,0.10577 -0.42279,0.10657 z"
      data-name="Areia Preta" id="areia_preta" />
   <path class="neighborhood"
      d="m 347.90766,897.20667 -0.16881,-0.44525 -7.8113,-4.37039 -0.8593,2.30862 -1.23431,5.80092 -1.00414,8.97904 -0.39885,3.60592 -0.77754,7.48841 -1.70416,16.06714 -0.52844,4.61003 -0.29525,2.75891 -2.49903,22.48189 -0.57553,5.66339 -0.31624,2.28475 -0.058,0.83036 -0.13248,1.68317 0.003,0.66672 0.003,0.56322 0.21368,2.39698 1.26038,3.06009 1.34217,3.19545 3.0333,6.59726 0.63272,1.37622 2.11247,4.1416 2.23696,2.22538 2.29925,2.6583 0.93172,2.1632 0.40396,2.7364 2.64235,6.0681 0.26282,-0.1471 0.37356,-0.037 0.42203,0.1037 0.33227,0.1824 6.62477,6.0586 3.14985,2.5034 3.28306,2.7191 3.08034,2.7401 3.27656,2.722 7.56951,5.5193 5.2138,3.2911 2.45344,2.027 0.30058,0.3141 0.2468,0.4061 0.0665,0.262 -1.93074,5.4918 5.64529,3.5002 -5.32312,8.6417 1.11776,0.5857 11.05598,3.6718 22.21261,22.3154 6.62405,6.2179 8.29488,4.7976 27.29392,9.5284 -41.36798,-122.8357 6.1737,-11.32748 0.27278,-1.34941 1.25673,-2.78426 4.30819,-7.75629 1.10184,-1.98939 3.13824,-5.66478 2.07265,-3.66965 0.40323,-0.62839 0.29097,-0.43437 0.13862,-0.15706 0.16266,-0.11298 0.52414,-0.21794 -5.85885,-2.55916 -0.3938,-0.1696 -4.42542,-1.99877 -4.37045,-1.81634 -0.95053,-0.40542 -2.66121,-1.28429 -5.12114,-2.57433 -0.8984,-0.5118 -0.82526,-0.57989 -1.15545,-0.88322 -1.37836,-1.29437 -1.60208,-1.28936 -2.85448,-2.01904 -1.38779,-0.91218 -3.00504,-2.09147 -3.06303,-1.91696 -0.73333,1.53547 -0.85929,1.45365 -0.53865,0.79199 -0.47564,0.70513 -0.35184,0.43942 -0.25027,0.2102 -0.18669,0.0681 -0.19632,0.002 -0.19898,-0.0355 -0.31341,-0.15197 -0.17949,-0.13542 -0.96864,-0.90059 -0.95777,-0.82093 -1.78015,-1.52607 -2.80528,-2.3564 -1.27267,-1.01859 -1.56226,-1.25096 -2.83204,-2.44548 -2.99134,-2.65178 -0.34829,-0.24599 -3.32865,-2.66845 -2.86899,-2.42735 -1.61436,-1.32045 -0.70296,-0.60596 -0.41119,-0.37428 -0.1648,-0.14449 -0.6168,-0.52698 -1.5673,-1.21191 -0.46624,-0.40035 -0.9223,-0.71957 -1.81057,-1.56514 -2.50192,-2.06178 -0.26709,-0.22569 -0.99688,-0.91869 -0.66025,-0.51111 -0.70943,-0.50529 -0.75726,-0.39888 -3.04414,-1.41025 -1.26688,-0.69498 -1.15037,-0.63776 -0.52919,-0.30414 -1.29148,-0.84485 -1.47104,-0.96645 z"
      data-name="Cidade Nova" id="cidade_nova" />
   <path class="neighborhood"
      d="m 393.43471,932.1881 0.18669,-0.0681 0.25027,-0.21021 0.35187,-0.43942 0.47564,-0.70512 0.53859,-0.79199 0.85932,-1.45368 0.73333,-1.53547 3.06303,1.91698 3.00507,2.09148 1.38776,0.91215 2.85448,2.01907 1.60211,1.28936 1.37833,1.29436 1.15545,0.88323 0.82529,0.57988 0.8984,0.51181 5.12114,2.57432 2.66121,1.28427 0.95053,0.40539 4.3704,1.8164 4.42541,1.99876 0.39383,0.16961 5.85885,2.5591 0.18457,-0.15411 0.16746,-0.18082 0.14343,-0.21715 0.79634,-1.74615 1.07503,-2.27313 1.67229,-4.19739 0.26202,-0.46261 -13.70848,-10.10908 2.95148,-3.90202 0.31055,-0.56034 0.097,-0.6957 -0.31055,-0.56036 -2.71549,-1.9517 6.21572,-8.75388 8.91245,6.29755 10.1945,-13.41895 5.76689,0.0961 0.55815,-0.92951 1.53835,-2.31589 -7.403,-2.99785 4.54419,-8.7104 0.96648,-0.39386 0.063,-0.70654 2.80812,-4.54558 3.96505,-6.41628 0.7355,-1.17785 1.51522,-2.42593 -2.02345,-0.72537 0.21154,-0.3598 -0.60518,-0.17655 -11.00462,-3.8564 -0.71306,-0.24813 -12.10574,-4.42328 -0.52481,-0.1891 -18.20634,-6.46329 -0.63635,-0.26148 -6.63778,-2.76688 -30.01811,-11.04874 -14.70034,-5.75242 -0.18563,0.16427 -6.86513,10.35665 -4.96043,7.54124 -3.39887,5.16823 -3.97659,5.87256 -4.71286,7.36173 -0.69279,1.41602 -2.05021,4.45082 -1.2915,3.00576 -1.97056,5.00317 -1.09172,2.44113 7.81131,4.37039 0.1688,0.44522 1.47104,0.96645 1.29151,0.84484 0.52919,0.30411 1.15034,0.6378 1.26688,0.695 3.04417,1.41023 0.75721,0.39885 0.70948,0.50534 0.66025,0.51111 0.99682,0.91867 0.2671,0.22622 2.50191,2.06178 1.81058,1.56514 0.9223,0.71957 0.46621,0.40035 1.56733,1.21191 0.6168,0.52697 0.16533,0.1445 0.41119,0.37428 0.70293,0.60595 1.6144,1.32046 2.86898,2.42735 3.32865,2.66844 0.34829,0.24653 2.99134,2.65176 2.83204,2.44548 1.56226,1.25096 1.27267,1.01858 2.80523,2.35641 1.7802,1.52606 0.95775,0.82094 0.96866,0.90061 0.17949,0.13542 0.31338,0.15198 0.19899,0.0355 0.19631,-0.002 z"
      data-name="Cidade da Esperança" id="cidade_da_esperanca" />
   <path class="neighborhood"
      d="m 364.07319,850.13039 6.8651,-10.35667 0.18563,-0.16427 -4.21401,-1.65128 -22.56373,-8.52003 -10.77294,-4.17424 -21.03115,-7.92565 -3.60084,-1.411 -1.06205,0.2102 -7.37981,-2.79364 -4.21623,-1.61297 -9.84845,-2.79946 -32.92036,-29.28041 -16.25968,-14.90591 -20.08424,11.97107 -13.98071,4.19016 -14.44689,3.88174 -12.48793,3.06295 -27.98387,13.85403 -12.39022,10.06568 10.50293,14.05813 15.17376,31.49349 0.46403,1.30309 1.7939,2.73723 0.43942,0.72609 1.56664,2.86028 1.28496,3.20488 0.23825,0.74423 0.23424,0.9317 0.38662,0.77099 0.75071,1.53622 5.09436,10.80691 1.91193,4.6318 8.78208,19.18871 1.25171,3.07238 2.12475,4.05698 5.49326,12.06442 4.2662,8.48965 10.47898,21.90491 0.13382,0.28026 1.92857,4.03087 0.26576,0.51904 0.32444,0.44957 0.40395,0.39455 8.37888,17.05311 1.18221,2.40494 2.34123,-1.14602 4.36532,-2.33613 5.71983,-2.87692 10.28211,-4.84895 4.19884,-2.17112 13.20827,-6.74274 14.42806,-7.15327 2.3434,-9.47052 52.4269,27.41628 0.57553,-5.66342 2.49903,-22.48189 0.29522,-2.75894 0.5285,-4.61003 1.70416,-16.06708 0.77749,-7.48844 0.3989,-3.60595 1.00408,-8.97898 1.23432,-5.80095 0.85935,-2.30862 1.09169,-2.44113 1.97053,-5.00311 1.29153,-3.00582 2.05021,-4.45076 0.69276,-1.41602 4.71289,-7.36174 3.97659,-5.87261 3.39885,-5.16817 4.96043,-7.54125 z"
      data-name="Felipe Camarão" id="felipe_camarao" />
</svg>