<?xml version="1.0" encoding="UTF-8" standalone="no"?>
<svg version="1.1" id="svg2" width="374.40094" height="535.23724" viewBox="0 0 374.40094 535.23725"
   xmlns="http://www.w3.org/2000/svg" xmlns:svg="http://www.w3.org/2000/svg">
   <defs id="defs6" />
   <path class="neighborhood"
      d="m 207.15192,288.5624 -0.0701,0.19785 8.31019,2.94272 0.22089,0.0797 4.86008,1.77994 4.88692,1.77398 0.1252,0.0485 0.0575,-0.17644 0.0488,-0.1184 2.43884,-6.56955 2.79825,-7.71823 -0.0241,-0.13362 -0.11334,-0.0808 -2.30821,-0.89146 -2.36621,-0.94078 -0.17644,-0.0859 -0.10734,-0.0932 -3.76234,-4.11065 -7.1195,-8.40179 -0.0583,0.24991 -0.0916,0.29869 -0.6364,2.12036 -0.40332,1.34329 -0.28812,0.93943 -0.27646,0.90176 0.0195,0.20112 -0.0375,0.15016 -0.0645,0.22225 -0.45292,1.24302 -0.84619,2.28326 -0.3296,0.89335 -0.39328,1.06629 -0.1469,0.38352 -0.18702,0.48707 -0.0795,0.23555 -0.59522,1.68994 -0.16669,0.47298 -0.72801,1.93064 -0.0371,0.1016 -0.042,0.2087 -0.53964,1.55823 -0.28297,0.80283 -0.96464,2.50661 -0.0707,0.20761 z"
      data-name="Lagoa Seca" id="lagoa_seca" />
   <path class="neighborhood"
      d="m 206.62175,249.79508 1.04189,2.08486 3.88731,7.85322 2.94596,5.73309 0.24287,0.42555 0.11106,0.17237 7.11948,8.4018 3.76236,4.11065 0.10734,0.0932 0.17644,0.0859 2.36621,0.94079 2.30821,0.89145 0.11334,0.0808 0.26725,-0.18268 -0.0187,-0.31279 2.31524,-6.30473 0.32066,-0.72884 3.00885,-8.18144 0.36509,-0.77871 4.82539,1.94014 0.13851,0.0493 0.0705,-0.22252 0.92073,-2.65541 0.99311,-2.70311 -0.10867,-0.0344 -0.2854,-0.1068 -1.17009,-0.43772 -0.0848,-0.0317 -0.0865,-0.0323 -0.71366,-0.25452 -0.73453,-0.26209 -0.20653,-0.0737 -0.35507,-0.1328 -0.28133,-0.10573 -0.69252,-0.26047 -1.89784,-0.69061 -0.31822,-0.1252 -1.5837,-0.58329 -1.16983,-0.43284 -0.19704,-0.0693 -0.28865,-0.10946 -0.25154,-0.0965 -0.8855,-0.34016 -0.63695,-0.24448 -1.09664,-0.42093 -0.31333,-0.1204 -0.5307,-0.20383 -1.18636,-0.45534 -1.1167,-0.42879 -1.53519,-0.58925 0.34531,-1.61379 0.0631,-0.29896 0.0653,-0.27701 0.43014,-1.67479 0.27403,-1.23216 0.12307,-0.56892 0.18918,-1.02101 0.11027,-0.53612 0.0625,-0.33123 0.0396,-0.17644 0.0375,-0.15775 0.0653,-0.31252 -0.2396,-0.2301 -1.2243,-1.17038 -1.38395,-1.83848 -1.61677,-2.02009 -0.52744,-0.51932 -0.68792,-0.64752 -0.19407,0.32255 -0.20816,0.409 -0.34883,0.31496 -5.35174,2.11576 -0.11414,0.0895 -1.1194,0.74078 -0.52745,0.40304 -0.70769,0.51714 -0.0937,0.0699 -0.22633,0.16832 -2.30792,1.7176 -0.52501,0.39545 -1.37663,1.04839 -1.16521,0.93132 -0.82127,0.67597 -0.46809,0.39084 -0.14555,0.10894 -0.0859,0.0569 z"
      data-name="Barro Vermelho" id="barro_vermelho" />
   <path class="neighborhood"
      d="m 207.13647,228.76754 -4.06429,-5.07718 -4.06539,2.73861 -13.26296,3.14168 -15.15727,1.46607 6.05076,7.48837 0.11174,0.13796 5.33386,6.601 0.18187,0.25451 0.24529,0.27402 1.69836,0.6543 -0.0483,0.66649 -0.19327,0.83888 -0.3632,0.71664 -0.91096,1.46417 -0.90664,0.81124 -1.82196,0.87222 -1.36091,0.45156 -0.59332,0.37024 -0.56729,0.65348 -0.30708,0.60444 -0.1212,0.40845 -0.0176,0.76732 0.13985,0.84459 0.0821,0.232 0.54506,1.0438 0.24231,0.44396 0.77167,1.58696 0.14364,0.80066 0.005,0.67516 -0.24176,0.82343 -1.36064,1.75121 -0.33719,0.91423 0.0107,1.06711 0.51227,1.27064 0.83182,1.26333 0.31875,0.91613 v 0.92588 l -0.37215,0.90258 -0.92913,0.82316 -2.94948,2.16212 -2.77196,1.96344 -0.16724,0.12146 4.97175,1.84067 7.76457,2.8858 1.46797,0.46863 0.25396,0.0787 9.42851,3.58103 11.72452,4.30172 0.0701,-0.19785 0.0707,-0.20763 0.96464,-2.50661 0.28297,-0.80283 0.53964,-1.55821 0.042,-0.20872 0.0371,-0.1016 0.72803,-1.93064 0.16668,-0.47296 0.59521,-1.68996 0.0795,-0.23554 0.18702,-0.48706 0.14691,-0.38352 0.39328,-1.0663 0.32959,-0.89334 0.84618,-2.28328 0.45292,-1.243 0.0645,-0.22226 0.0375,-0.15016 -0.0195,-0.20112 0.27646,-0.90176 0.28812,-0.93942 0.40331,-1.3433 0.63641,-2.12037 0.0916,-0.29869 0.0583,-0.24991 -0.11107,-0.17237 -0.24286,-0.42555 -2.94596,-5.73309 -3.88731,-7.85322 -1.04189,-2.08486 0.0859,-0.0569 0.14555,-0.10893 0.46811,-0.39084 0.82125,-0.67597 1.16521,-0.93132 1.37663,-1.04839 0.52501,-0.39545 2.30792,-1.7176 0.22634,-0.16832 0.0939,-0.0699 0.7077,-0.51715 0.52745,-0.40304 1.1194,-0.74077 0.11413,-0.0893 5.35175,-2.11576 0.34883,-0.31496 0.20816,-0.409 0.19408,-0.32255 -0.35074,-0.25776 -0.21602,-0.10813 -1.40888,-1.03946 -0.85188,0.0312 -1.12972,-0.63233 -0.94838,-0.66569 -1.84798,-1.37962 -0.82099,-1.16005 -0.27539,-0.27972 -0.75322,-0.37133 -1.16034,-0.52014 -2.122,-1.51702 -1.94933,-1.19042 -1.43763,-1.46065 z"
      data-name="Alecrim" id="alecrim" />
   <path class="neighborhood"
      d="m 107.66034,87.646688 -0.0965,-0.17509 -0.0727,-0.21359 -0.0289,-0.25477 -0.28351,0.37973 -0.0491,0.12654 -0.0165,0.19705 -0.0637,0.1228 -0.65864,0.86139 -0.55754,0.65022 -0.22849,0.26644 -0.37079,0.46267 -0.72694,0.792 -0.21466,0.23147 -0.82505,0.9332 -0.1016,0.0867 -0.98876,1.05627 -1.03592,1.11751 -0.51635,0.5643 -0.3453,0.36511 -1.41024,1.56608 -0.38542,0.42689 -1.05057,1.08147 -1.00692,1.06683 -3.17311,3.302122 -1.0034,1.07414 -1.9591,1.98214 -1.29043,1.30182 -1.04325,1.0091 -1.03594,1.04893 -2.02468,2.00735 -0.90529,0.91856 -0.1236,0.13742 -0.75568,0.75838 -0.26941,0.28677 -1.0156,0.98985 -0.0385,0.0375 -4.6183,4.57819 6.54976,0.49357 0.89986,0.19948 -0.1656,0.66867 -0.0959,0.3876 -0.34423,0.57244 -0.12413,0.14608 -0.80092,0.7077 -2.29276,2.28435 -0.10187,0.13743 -0.0943,0.15368 -0.1328,0.2461 -0.14798,0.29111 -0.6608,1.18824 -0.16427,0.32444 -0.2442,0.51716 -0.1184,0.39517 -0.92888,2.91859 -0.26588,0.97523 -0.0447,0.16397 -0.0929,0.29137 -0.0307,0.0957 -0.55454,1.76313 -0.5543,1.76313 -0.28702,1.0343 -0.35344,1.5726 -0.21495,0.95624 -10e-4,0.005 -0.20843,0.92724 -0.21818,1.18635 -0.1016,0.48464 -0.33419,1.49533 -0.40387,1.80652 -0.1136,0.48516 -0.32416,1.46987 -0.22388,1.01424 -0.28352,1.53709 -0.15449,0.69441 -0.4998,2.05423 -0.18892,0.80825 -0.0525,0.24422 -0.32906,1.4574 -0.28729,1.47204 -0.13093,0.57868 -0.25072,1.1175 -0.0965,0.47134 -0.0561,0.27377 -0.14717,0.6944 -0.1583,0.74672 -0.0199,0.1084 -0.0675,0.25315 -0.38136,1.70161 -0.0984,0.43773 -0.0457,0.20708 -0.18106,0.8096 -0.6879,3.00263 0.0943,0.13688 7.19242,2.31497 21.22241,6.52266 0.25235,0.0549 0.0517,1.14355 0.0585,0.16044 0.942962,0.28 5.990338,1.78292 1.28853,0.35072 1.59211,0.5551 0.24881,0.15098 0.68195,-2.58115 0.73696,-3.10697 0.72152,-2.737 0.7592,-3.25767 0.34313,-1.43409 0.47108,-1.8233 0.25261,-0.75214 0.2865,-0.53856 0.41361,-0.60335 0.63884,-0.61012 1.10993,-0.75811 1.12402,-0.60822 1.36388,-0.72043 0.46538,-0.35263 0.56838,-0.55185 0.46945,-0.65049 0.628,-1.32514 0.74321,-1.58234 0.39626,-0.57842 0.4109,-0.48814 0.4624,-0.42039 0.40629,-0.26996 0.4502,-0.23689 0.747,-0.2518 0.82424,-0.12067 0.69876,-0.0369 1.59752,-0.17076 0.62774,-0.0504 0.62801,0.007 18.1168,25.54368 1.45984,-1.2498 0.19921,-1.44953 -0.84185,-1.64795 -0.43665,-0.85486 -3.00614,-2.09164 -1.59212,-2.00979 -0.26101,-0.79307 -0.42147,-1.27986 0.51742,-0.84918 0.75078,-1.23189 1.05518,-0.53099 1.23081,-0.21304 0.77708,0.12334 0.45345,0.0717 1.21672,0.54588 1.2804,0.94487 0.88903,1.08472 1.00177,2.60661 1.09312,2.03663 0.28812,0.53665 1.91032,0.72235 2.40116,0.90772 1.95315,0.34638 3.60867,0.64022 2.20682,-0.30846 3.01022,-0.42066 0.87249,-0.86815 0.98144,-0.97629 1.39397,-1.90951 0.38,-0.52067 -7.1344,-9.96246 -7.5293,-10.33408 -4.63458,-6.39038 -0.44668,-0.53314 -0.16832,-0.23446 -0.54641,-0.70173 -0.95272,-1.27281 -0.15856,-0.20736 -1.14868,-1.51676 -1.21807,-1.60836 -0.0249,-0.0328 -0.0183,-0.0271 -0.0965,-0.13093 -0.1196,-0.16182 -0.85948,-1.08146 -0.96031,-1.22106 -0.64048,-0.83725 -0.29218,-0.35832 -0.60334,-0.77029 -1.9404,-2.57871 -0.21765,-0.28948 -1.04677,-1.36715 -0.9088,-1.21617 -0.23039,-0.30275 -0.33231,-0.43204 -1.24245,-1.63141 -1.18203,-1.57775 -1.32838,-1.76801 -2.57572,-3.28315 -0.77627,-0.96138 -0.0511,-0.0629 -1.30237,-1.69484 -0.29977,-0.40005 -1.51134,-1.95503 -0.73126,-0.91152 -0.3128,-0.38325 -0.26535,-0.35073 -0.19623,-0.21711 -0.61446,-0.78115 -0.66866,-0.9294 -0.74889,-0.92968 -0.40359,-0.54236 -2.04637,-2.54266 -0.43449,-0.53694 -0.39436,-0.5082 -1.03945,-1.35278 -1.63032,-1.97455 -2.12932,-2.739972 -0.18079,-0.22578 -0.85541,-1.12376 -1.17659,-1.50212 -0.59224,-0.76596 -0.80716,-1.06412 -0.73073,-0.91856 -0.29056,-0.36889 -0.38923,-0.54452 -0.75593,-0.95489 -0.40115,-0.53016 -1.6184,-2.13962 -0.73913,-0.82397 -0.0965,-0.1176 z"
      data-name="Potengi" id="potengi" />
   <path class="neighborhood"
      d="m 144.1742,268.44014 -0.24041,-0.57054 -0.35264,-0.79579 -0.0837,-0.23309 -0.22172,-0.68167 -0.0797,-0.22768 0.0709,-1.46581 0.3079,-1.55768 0.63316,-2.04475 0.2911,-0.32743 1.21969,-0.62122 0.38679,-0.34288 0.0417,-1.82248 0.28867,-4.51424 0.0388,-0.21195 -0.15315,-0.0617 -0.10187,-0.0388 -0.82641,-0.32579 -2.48925,-1.27309 -0.005,-0.28162 0.0977,-0.0819 0.5204,-0.9839 0.59169,-1.21508 0.20409,-0.36184 9.8733,-18.42362 -9.67272,-3.52628 -6.51779,-3.66992 -5.57156,-5.26719 -6.46764,-3.02185 -3.52708,-0.39546 -3.51625,0.69332 -0.26209,0.09 -0.1204,0.0659 -3.47884,3.68971 -3.30239,5.88218 -2.97335,6.47279 -0.3499,1.65688 -1.49238,7.068 0.27836,8.78479 -1.09798,6.90157 24.74217,19.533 1.81844,1.23433 1.01396,1.12104 1.33652,1.3956 0.90096,0.91884 0.161,0.16886 2.50985,-1.61867 0.80256,-0.41497 0.82939,-0.52854 0.13932,-0.1128 0.99772,-0.76516 0.40709,-0.2873 0.62151,-0.44668 0.58165,-0.4521 0.52529,-0.51173 0.92127,-1.35956 0.37079,-0.58219 0.32716,-0.7161 0.10546,-0.72694 -0.0981,-0.54616 -0.0435,-0.1032 -0.91016,-2.1594 z"
      data-name="Nordeste" id="nordeste" />
   <path class="neighborhood"
      d="m 146.43606,253.23488 -0.28866,4.51424 -0.0417,1.82249 -0.38677,0.34287 -1.2197,0.62122 -0.2911,0.32743 -0.63316,2.04476 -0.30791,1.55768 -0.0711,1.4658 0.0797,0.22768 0.2217,0.68167 0.0839,0.23309 0.35263,0.79579 0.24041,0.57054 0.91016,2.1594 0.0435,0.1032 0.0981,0.54616 -0.10547,0.72694 -0.32716,0.7161 -0.37078,0.5822 -0.92127,1.35955 -0.52529,0.51173 -0.58166,0.4521 -0.6215,0.44668 -0.4071,0.2873 1.47583,1.4864 1.71921,1.6184 1.38856,1.30724 1.3376,1.24599 0.67788,0.60199 1.01967,0.94486 0.38705,0.3426 1.26686,1.28203 0.76894,-0.55889 0.16534,-0.11027 0.24177,-0.16995 0.43421,-0.30357 0.8107,-0.60415 1.47582,-1.10912 2.01006,-1.54873 1.75826,-1.33923 0.80148,-0.25316 1.50212,0.50984 1.83956,0.68276 1.37366,0.50902 0.16669,0.0635 0.14337,-0.0957 3.38696,-2.26836 3.7984,-2.84541 0.15476,-0.11574 0.16724,-0.12146 2.77196,-1.96344 2.9495,-2.16211 0.92913,-0.82316 0.37215,-0.90259 v -0.92588 l -0.31875,-0.91613 -0.83183,-1.26332 -0.51228,-1.27065 -0.0107,-1.06711 0.33717,-0.91423 1.36064,-1.75121 0.24177,-0.82343 -0.005,-0.67516 -0.14365,-0.80066 -0.77166,-1.58695 -0.2423,-0.44397 -0.54508,-1.04379 -0.0821,-0.23201 -0.13986,-0.84459 0.0176,-0.76732 0.1212,-0.40845 0.30709,-0.60443 0.56729,-0.65348 0.59332,-0.37025 1.3609,-0.45156 1.82196,-0.87222 0.90664,-0.81124 0.91097,-1.46417 0.3632,-0.71664 0.19327,-0.83888 0.0483,-0.66648 -1.69836,-0.65431 -0.24529,-0.27402 -0.18187,-0.25451 -5.33386,-6.601 -0.11174,-0.13796 -6.05077,-7.48837 -1.90408,0.15693 -7.34256,0.45156 -7.15419,-1.66963 -9.87329,18.42363 -0.20409,0.36184 -0.5917,1.21508 -0.5204,0.98389 -0.0979,0.0819 0.007,0.28161 2.48927,1.2731 0.8264,0.32578 0.10187,0.0388 0.15313,0.0617 -0.0388,0.21194 z"
      data-name="Quintas" id="quintas" />
   <path class="neighborhood"
      d="m 88.82825,286.32114 6.08764,5.58079 12.32542,10.9626 3.68727,1.04813 1.57856,0.60388 2.76301,1.04596 0.39762,-0.0787 1.34817,0.52826 7.87408,2.96739 4.03338,1.56284 8.44788,3.18989 1.57775,0.61826 0.0661,-0.1136 6.52782,-10.03403 3.06929,-4.88013 2.48193,-3.74148 0.85271,-1.27987 0.77409,-1.16169 0.13444,-0.20166 1.74472,-2.61693 0.3079,-0.46185 1.34898,-1.75419 0.51363,-0.63479 0.51253,-0.60252 0.0987,-0.10786 0.5868,-0.61419 1.16523,-1.21183 1.07224,-0.99908 0.64698,-0.59357 0.26319,-0.22036 0.32552,-0.27295 0.69983,-0.53314 1.02184,-0.76136 0.71393,-0.54074 0.0561,-0.0425 0.0535,-0.0412 -0.16669,-0.0635 -1.37364,-0.50901 -1.83958,-0.68276 -1.50212,-0.50983 -0.80148,0.25315 -1.75825,1.33923 -2.01005,1.54874 -1.47583,1.10911 -0.81069,0.60415 -0.43423,0.30357 -0.24176,0.16995 -0.16533,0.11026 -0.76895,0.5589 -1.26687,-1.28203 -0.38705,-0.3426 -1.01965,-0.94487 -0.67788,-0.60198 -1.3376,-1.24598 -1.38856,-1.30724 -1.71923,-1.6184 -1.47583,-1.48641 -0.9977,0.76516 -0.13932,0.1128 -0.82939,0.52855 -0.80256,0.41496 -2.50987,1.61868 -0.161,-0.16887 -0.90094,-0.91884 -1.33652,-1.3956 -1.01398,-1.12104 -1.81842,-1.23433 -24.74219,-19.533 -0.53016,3.33329 -2.17756,3.35389 -2.29953,7.36424 -3.53277,6.31423 -0.83075,1.48504 -7.91475,9.07047 z"
      data-name="Bom Pastor" id="bom_pastor" />
   <path class="neighborhood"
      d="m 82.20151,366.56837 -3.13705,-6.38468 -0.15124,-0.14772 -0.12147,-0.16832 -0.0995,-0.19434 -0.72206,-1.50917 -0.0501,-0.10493 -3.92335,-8.20123 -1.59726,-3.17853 -2.05667,-4.51692 -0.79552,-1.51894 -0.46863,-1.1503 -3.28802,-7.18428 -0.71583,-1.73414 -1.90733,-4.04613 -0.28107,-0.57516 -0.14475,-0.28865 -0.0879,-0.34884 -0.0892,-0.27863 -0.48111,-1.19991 -0.58653,-1.07089 -0.16452,-0.27185 -0.67164,-1.02482 -0.17375,-0.48788 -5.68107,-11.79119 -3.93229,-5.26339 -5.37939,5.75045 -4.33264,1.96643 -6.30392,1.57476 -3.49157,1.67124 -1.54061,2.40904 -1.54035,2.40904 -1.93632,3.66314 -0.85516,9.15666 -0.37647,10.97589 0.0144,1.60512 0.6738,4.50935 0.22362,5.29482 1.74822,4.73242 -0.30709,4.83053 -0.50657,3.58943 -4.17407,1.40048 0.50116,4.06402 0.3884,2.45972 0.0875,2.63156 -0.26156,3.84963 -0.34531,4.47465 0.0613,1.56527 0.0181,1.05003 0.29869,7.06284 0.0537,1.378 0.32146,0.64508 2.4757,2.52422 0.38163,0.4136 2.06453,1.48884 1.85558,1.36579 1.24733,1.94257 1.07415,1.89758 0.78928,1.04053 0.73914,0.62205 0.49031,0.12814 0.17781,0.0195 4.67387,0.89824 4.21309,-2.06725 1.13892,-0.58247 0.44994,-0.13334 0.28161,-0.0979 1.13811,-0.55591 0.43964,-0.26182 0.20382,-0.19814 0.17156,-0.1184 0.21088,-0.12986 1.71408,-0.93104 1.73847,-0.88794 0.29137,-0.13985 1.94935,-0.93755 0.74969,-0.41686 0.38571,-0.19462 3.24981,-1.63845 1.30398,-0.66893 0.64509,-0.34206 0.20897,-0.0577 0.2396,-0.0401 0.219,-0.0461 0.22524,-0.0919 0.93184,-0.5223 0.78143,-0.37025 0.77085,-0.38379 0.8405,-0.43449 0.86326,-0.42093 0.79498,-0.409 0.69522,-0.3594 0.75866,-0.40088 0.72016,-0.4342 0.25153,-0.15018 5.37343,-2.90069 2.92862,-1.55117 0.64048,-0.31767 1.21346,-0.62313 1.95666,-0.94838 0.40223,-0.19922 0.91341,-0.4548 1.44982,-0.65838 2.58277,-1.21426 2.22825,-1.20751 0.18783,-0.1044 2.80909,-1.72465 0.42527,-0.25098 1.77857,-0.85542 0.20248,-0.0271 0.22984,-0.074 0.367,-0.19732 0.97304,-0.52257 3.11672,-1.40428 1.87996,-1.03675 0.51796,-0.41551 0.64347,-0.37621 0.66133,-0.33989 0.53451,-0.20599 0.58383,-0.0884 20.8771,-10.5902 -0.47188,-1.14569 -0.08,-0.89743 -0.001,-0.21088 -10e-4,-0.24963 0.0496,-0.63017 0.0217,-0.31088 0.1184,-0.85541 -19.62867,-10.26468 -0.87738,3.54577 -5.40188,2.67819 -4.94518,2.52449 -1.57206,0.81287 -3.84962,1.81545 -2.14151,1.07712 -1.63439,0.87465 -0.87656,0.42907 -0.44261,-0.90041 z"
      data-name="Guarapes" id="guarapes" />
   <path class="neighborhood"
      d="m 260.60896,191.076 -0.0539,0.11813 -0.10413,0.09 -0.1236,0.0469 -0.55943,0.14854 -0.1044,-0.23826 -0.702,-0.36265 -0.5364,1.13704 -0.85622,1.80731 -0.83726,1.77425 -0.0176,0.11707 0.0157,0.12466 -0.13014,0.1192 -0.0892,0.15206 -0.0743,0.20246 -0.52014,1.50944 -1.21426,2.41202 0.0389,0.0309 0.96952,0.92913 -0.17645,0.0779 -1.54277,0.77572 -0.1036,0.27023 0.23717,0.27782 0.50197,0.58763 -0.12746,0.20464 -0.0751,0.22821 -0.0577,0.2453 -0.005,0.4033 -0.0525,0.3464 -0.0743,0.33419 -0.18078,0.43205 -0.25099,0.38651 -0.29327,0.37593 -0.2976,0.36211 -0.39844,0.35996 -0.98198,0.61419 -0.43503,0.24961 -1.39235,0.96085 -0.3743,0.29355 -0.65404,0.49195 -0.003,0.14717 5.297,4.05453 0.14963,0.16696 0.0848,-0.0588 3.03921,-2.09652 0.22524,-0.012 0.23688,0.0989 0.19217,0.1675 0.23933,0.2594 1.38883,1.55876 5.33007,4.98286 0.64318,0.52826 0.63831,0.35562 0.98579,0.4624 0.16804,0.0921 0.24068,0.11467 0.13444,0.068 0.32905,0.17645 0.12547,0.0545 0.15286,0.0517 0.29571,0.0289 0.11653,0.0377 0.18431,0.007 0.0767,-0.005 0.43286,-0.34016 0.82398,-0.39763 0.16424,-0.29597 0.51552,-0.2808 0.15829,-0.0397 0.0851,-0.0396 0.0525,-0.0352 0.0545,-0.0363 1.98703,-1.54902 0.1024,-0.0813 0.48516,-0.19787 -0.85487,-1.13594 -0.51904,-0.004 -1.05274,0.81529 -0.46592,0.0244 -0.65808,0.0979 -0.90936,-0.0916 -1.08472,-0.71502 -1.29803,-1.52814 -0.49573,-0.83427 -0.57244,-2.05993 -0.37622,-2.24858 -0.007,-0.58492 -0.0869,-0.8096 -0.53178,-1.88157 0.0209,-1.98513 -0.39844,-1.00042 0.16968,-1.06438 0.25693,-1.2235 -0.27482,-0.31278 -0.51418,-0.0879 -0.35994,-1.20073 -0.08,-6.42832 -1.06791,-1.24056 -1.08147,-0.6741 -0.64941,0.0247 -0.60985,-0.19433 z"
      data-name="Praia do Meio" id="praia_do_meio" />
   <path class="neighborhood"
      d="m 198.50483,449.4713 5.87432,-12.33789 -0.27023,-0.14366 -0.30465,-0.13687 -1.82603,-1.06439 -0.21304,-0.12983 -10.79673,-6.57958 -16.31436,-9.67868 -5.21108,-3.10101 -0.44885,-0.23201 -0.87846,-0.45427 -0.24393,-0.12631 -6.50043,-4.13638 -3.10561,-1.79621 -2.48005,-2.32799 -8.31642,-8.35491 -4.13937,-1.37473 -0.41849,-0.21927 1.99298,-3.23545 -2.1136,-1.31049 0.72287,-2.05614 -0.0249,-0.0981 -0.0924,-0.15205 -0.11254,-0.1176 -0.91857,-0.75892 -1.95204,-1.23216 -2.83404,-2.06644 -1.22673,-1.01912 -1.1533,-1.0259 -1.22917,-1.01804 -1.17931,-0.93726 -2.48032,-2.26836 -0.1244,-0.0683 -0.15801,-0.0388 -0.13985,0.0137 -0.0984,0.0551 -0.98932,-2.27189 -0.1244,0.23228 -1.91248,5.77512 -2.13338,6.41777 -1.74254,4.96931 -0.1044,0.59656 -0.60146,1.81301 -0.79007,2.36947 -0.79172,2.37488 -0.72124,2.33748 -1.58208,7.26666 -1.0728,4.31989 -0.0679,0.25776 -0.30167,1.06899 -0.18213,0.36239 -0.30628,0.60957 -0.97712,1.68942 -0.39544,0.97196 -0.16291,1.111 0.18892,1.94013 0.0305,0.76055 -0.0481,0.43719 -0.1759,0.64292 -0.57136,1.34627 -0.78656,1.61325 -0.55375,0.76082 -0.29436,0.28405 -0.56268,0.41984 -0.74265,0.35832 -0.89228,0.31496 -0.66351,0.25342 -0.51417,0.30601 -0.45699,0.38922 -0.4044,0.44153 -0.30763,0.48517 -0.76921,1.5303 -0.64156,1.28529 -0.29436,0.50712 -0.39112,0.46349 -0.6814,0.64264 -0.82613,0.69929 -1.50727,1.25493 -0.5364,0.50252 -0.35155,0.53341 -0.2461,0.47216 -0.0879,0.42852 -0.0263,0.44586 0.0535,0.41578 0.21385,0.88821 0.0163,0.0716 8.40125,-3.88595 5.17476,-2.4646 2.11171,-0.44478 4.70313,1.06954 3.92552,1.68697 2.44943,0.71474 2.28922,1.45469 7.11868,4.79042 6.11962,5.66752 2.00056,4.096 1.20968,2.70772 4.18625,5.27857 7.44448,4.95224 2.72588,1.61487 4.12663,0.71772 2.25184,0.82696 2.58574,2.05938 3.24412,2.72643 4.28763,3.44469 0.36808,0.28811 0.24259,0.17781 0.11106,0.17672 1.55743,-2.98581 2.81397,-4.30905 5.06688,-6.94738 4.61939,-6.25026 1.27933,-2.106 4.09004,-8.69534 z"
      data-name="Pitimbu" id="pitimbu" />
   <path class="neighborhood"
      d="m 101.98361,443.03781 -0.21384,-0.88821 -0.0535,-0.41578 0.0263,-0.44586 0.0879,-0.42852 0.24611,-0.47216 0.35155,-0.53341 0.5364,-0.50252 1.50726,-1.25493 0.82615,-0.69929 0.6814,-0.64264 0.39112,-0.46349 0.29435,-0.50712 0.64156,-1.28529 0.76921,-1.5303 0.30764,-0.48517 0.4044,-0.44153 0.45697,-0.38922 0.51418,-0.30601 0.6635,-0.25342 0.89228,-0.31496 0.74266,-0.35832 0.56269,-0.41984 0.29435,-0.28405 0.55374,-0.76082 0.78656,-1.61325 0.57136,-1.34627 0.17591,-0.64292 0.0483,-0.43719 -0.0305,-0.76055 -0.18892,-1.94013 0.16291,-1.111 0.39545,-0.97196 0.97711,-1.68942 0.30628,-0.60957 0.18213,-0.36239 0.30168,-1.06899 0.0677,-0.25776 1.07278,-4.31989 1.58208,-7.26667 0.72126,-2.33748 0.7917,-2.37488 0.79009,-2.36946 0.60144,-1.81302 0.1044,-0.59656 1.74254,-4.9693 2.13338,-6.41778 1.91248,-5.77512 0.1244,-0.23228 -0.15124,-1.02453 -0.34882,-0.80988 -0.86084,-0.99527 -0.83752,-0.8332 -0.79091,-1.55062 -0.23689,-0.51526 -1.13567,-2.47002 -0.50251,-1.19638 -20.87711,10.5902 -0.58383,0.0884 -0.53449,0.20599 -0.66135,0.33989 -0.64345,0.3762 -0.51796,0.41552 -1.87996,1.03674 -3.11672,1.40428 -0.97306,0.52257 -0.36698,0.19732 -0.22986,0.074 -0.20246,0.0271 -1.77859,0.85542 -0.42527,0.25098 -2.80909,1.72465 -0.18783,0.1044 -2.22825,1.20751 -2.58277,1.21426 -1.4498,0.65838 -0.91343,0.45481 -0.40223,0.19921 -1.95666,0.94839 -1.21346,0.62312 -0.64046,0.31767 -2.92864,1.55117 -5.37343,2.90071 -0.25153,0.15016 -0.72016,0.43421 -0.75864,0.40088 -0.69524,0.3594 -0.79496,0.409 -0.86328,0.42092 -0.8405,0.43449 -0.77085,0.38379 -0.78141,0.37025 -0.93184,0.52231 -0.22524,0.0919 -0.21902,0.0461 -0.2396,0.0401 -0.20897,0.0577 -0.64509,0.34204 -1.30398,0.66894 -3.24981,1.63846 -0.38569,0.1946 -0.74971,0.41688 -1.94935,0.93753 -0.29137,0.13987 -1.73847,0.88792 -1.71408,0.93104 -0.21086,0.12986 -0.17158,0.1184 -0.20382,0.19812 -0.43964,0.26184 -1.13811,0.55591 -0.28161,0.0979 -0.44992,0.13336 -1.13894,0.58246 -4.21309,2.06726 2.40823,0.525 1.59941,0.29652 1.88375,0.28948 1.32161,0.1732 0.0511,0.007 0.21574,0.0369 0.8462,0.11026 0.66542,0.19515 0.73126,0.31305 0.58708,0.27864 1.09584,0.47542 1.00908,0.26778 1.47259,-0.0677 2.79797,-0.0699 1.03702,0.0465 2.35698,0.004 1.48208,0.0717 0.91911,0.0553 0.87573,0.0816 3.2013,0.56025 1.94717,0.40385 1.49996,0.53775 1.66285,0.93266 2.68062,1.90164 3.77509,2.8587 1.95341,1.74877 0.50304,0.4502 1.04108,1.00286 1.39886,1.50917 1.01994,1.24029 0.52148,0.74212 0.39464,0.56269 0.88008,1.47637 1.20967,1.41159 1.17551,1.15058 0.17889,0.19895 0.69413,0.63153 0.45564,0.4231 1.12103,0.8527 1.13025,0.78413 1.1278,0.70715 1.13568,0.76597 0.80582,0.45833 2.45782,1.47936 1.14028,0.37024 0.93022,0.74076 0.369702,0.60253 0.432578,0.67625 0.76272,1.23244 0.53125,0.85243 0.62285,-0.23391 -0.0163,-0.0716 z"
      data-name="Planalto" id="planalto" />
   <path class="neighborhood"
      d="m 328.61887,486.17245 -1.16982,-0.9023 -1.7626,-1.40672 -1.66338,-1.50808 -2.47788,-2.66869 -1.945,-2.10465 -1.39588,-2.12715 -0.59142,-0.66162 -1.64117,-2.43505 -1.56337,-2.71558 -0.89092,-1.88972 -1.5585,-2.59307 -2.04177,-4.23722 -1.84608,-3.78756 -1.59753,-4.31988 -1.2148,-3.59295 -0.82968,-2.51393 -0.65916,-2.5741 -0.79308,-3.93636 -0.77546,-3.33898 -0.65538,0.15287 -2.58792,0.80391 0.0285,1.20669 -0.53421,2.61096 -0.351,0.61987 -0.3258,0.57516 -0.29924,-0.0393 -1.92278,-0.25316 -4.13856,-1.71544 -1.39398,1.71354 -0.78955,-0.41362 -0.32225,0.48138 -0.0599,0.30926 -0.22632,0.25072 -0.004,0.016 -0.007,0.0217 -0.0149,0.0228 -0.0295,0.0236 -0.0107,0.004 -0.49927,0.66514 -0.5738,0.76461 -1.06141,1.37067 -0.46348,0.63803 -0.0908,0.12116 -0.0745,0.0607 -0.16724,0.0531 -0.47622,0.66974 -1.11507,1.46391 -0.52717,0.68872 -0.48056,0.64535 -0.73779,1.00557 -0.30193,0.41009 -0.35806,0.47189 -0.5017,0.64535 -0.39058,0.49547 -0.67056,0.84267 -0.2892,0.3613 -0.76678,1.0053 -0.14447,0.19976 -0.92236,1.22674 -1.03781,1.34872 -1.08798,1.53925 -0.33664,0.16778 -1.6436,1.48098 -1.90164,2.81641 -2.93052,-2.50688 -5.57076,-4.76603 -7.06284,-5.85968 -0.14176,-0.0878 -0.97521,0.95462 -2.42204,2.8595 -0.97413,1.1354 -0.21737,0.27755 -1.14543,1.55687 -0.0947,0.21684 -0.0819,0.19894 -0.13254,0.17537 -0.89065,1.07929 -0.47623,0.59305 -0.91584,1.1354 -0.6253,0.67625 -0.82072,0.7123 -0.28812,-0.56594 -0.4887,-1.13025 -0.1843,-0.71122 -0.19027,-0.61174 -0.3052,-0.7161 -0.23987,-0.37431 -0.33989,-0.31278 -0.49628,-0.27484 -0.68276,-0.26481 -1.73495,-0.53531 -1.11534,-0.18837 -1.33136,-0.24259 -0.92643,-0.11086 1.60187,7.09022 0.322,1.63086 0.35561,1.44006 -0.12653,0.17211 0.33664,0.36997 1.28448,4.48035 0.29028,1.01207 0.67462,2.40687 0.41307,1.54738 0.14963,0.52122 0.0369,0.15368 -0.0263,0.24882 1.404,4.93407 0.47595,2.08026 16.54909,13.12554 2.62452,2.05776 1.42052,1.08336 1.51649,1.13648 1.2636,0.96221 -10e-4,0.0594 0.22227,0.17211 1.23839,1.00422 1.32241,0.9847 1.26496,0.98253 1.22268,0.95515 0.49953,0.3857 0.74835,0.57759 1.82576,1.41864 0.1984,0.17645 0.8302,0.53721 22.9796,16.9196 11.48247,7.89062 1.93226,-0.093 56.45859,-4.025 -0.27077,-3.48941 0.48841,-4.11904 1.07036,-3.44821 0.41876,-6.08601 -0.512,-3.47098 2.28001,-12.4501 -2.65948,-8.88886 -1.36524,-1.22377 -0.60497,0.48599 0.16291,1.01831 -1.55851,0.34693 -1.48911,-0.37024 -1.7214,-1.71246 -0.37213,-2.38355 -1.18664,-0.48598 -3.16388,-1.80488 -1.93092,-1.6661 -2.30304,-1.45794 -4.86199,0.0924 -0.69793,0.67111 -1.11669,1.62002 -1.72167,0.46267 -3.11728,3.08366 -0.15991,0.7554 -0.41225,0.3323 -0.43421,0.0453 -0.28678,0.09 -0.0869,0.18431 0.10267,0.18458 0.39598,0.29408 -0.0276,0.28026 -0.26154,0.4109 0.0379,0.644 -0.18864,0.49411 -0.41848,0.55998 -0.44968,0.37675 -0.5212,0.18024 -0.86924,0.13661 -1.42,0.051 -1.73413,-0.23933 -1.61651,-0.35588 -2.38084,-0.88902 -2.34262,-1.13459 -1.17335,-0.66161 -1.82683,-1.40916 z"
      data-name="Ponta Negra" id="ponta_negra" />
   <path class="neighborhood"
      d="m 248.82075,460.2347 0.47623,-0.59305 0.89065,-1.07929 0.13253,-0.17537 0.0819,-0.19894 0.0945,-0.21684 1.14543,-1.55687 0.21739,-0.27755 0.97412,-1.1354 2.42203,-2.8595 0.97522,-0.95462 -2.33803,-1.76422 -0.0913,-0.0626 -0.1488,-0.0856 -0.17455,-0.11492 -0.18594,-0.13661 -0.32038,-0.24421 -0.62258,-0.49411 -0.67164,-0.55347 -0.5635,-0.44126 -1.17389,-0.94784 -0.42391,-0.34639 -0.40738,-0.31197 -1.63195,-1.25114 -0.21223,-0.18187 -2.18976,-1.77967 -1.565,-1.26252 -0.0651,-0.0642 -10.27174,-8.38039 -0.174,-0.87872 -0.26941,-1.30453 -0.34857,-0.58085 -0.0629,-0.1881 -0.15097,-0.51173 -0.0679,-0.26536 -0.0412,-0.27565 -0.0183,-0.30085 -0.009,-0.46457 -0.003,-0.46322 -0.0328,-0.72395 -0.0388,-0.40982 -0.0539,-0.56702 -0.0344,-0.38787 -0.007,-0.0745 -0.0417,-0.57461 0.0165,-1.09529 -0.003,-1.01723 -0.0477,-1.24923 -0.007,-0.62638 -0.012,-0.55591 -0.026,-0.95516 0.003,-0.59494 -0.0268,-0.66677 -0.0153,-0.2518 -0.005,-0.18729 -0.0136,-0.36157 -0.004,-0.22144 -0.0199,-0.71745 -0.0176,-0.44939 -0.0139,-0.32038 -0.012,-0.69739 -0.0187,-0.64752 -1.13756,-0.35751 -2.4776,-0.73697 -0.66922,-0.21195 -0.38569,-0.126 -1.21237,-0.38108 -1.0045,-0.29652 -0.16614,-0.0517 -1.22728,-0.3632 -0.78495,-0.25424 -0.74483,-0.22064 -1.01424,-0.30844 -0.53044,-0.16128 -1.07821,-0.32768 -0.1068,-0.0325 -0.21873,-0.0664 -1.04135,-0.31658 -0.51064,-0.23066 -4.35892,9.25667 -1.55064,3.29318 -0.88441,2.07294 -6.1123,12.77644 -5.87432,12.33789 0.53964,0.19975 3.87511,2.26267 3.69405,2.2166 -0.38461,0.85947 1.38747,0.69794 1.35956,0.7123 1.39533,0.7348 1.33081,0.72043 2.72643,1.36254 0.22063,-0.55429 -0.10054,0.90285 -2.28353,4.55895 0.0743,0.0431 0.91802,0.47921 0.47596,0.24421 1.36578,0.70064 1.39262,0.71448 1.10179,0.56539 0.23852,0.1225 1.44629,0.74185 1.90976,1.00015 0.58574,-0.56242 0.25017,-0.28974 0.31521,-0.40006 0.20275,0.13064 0.57921,0.37323 0.65431,0.47649 0.1152,0.0832 1.08363,0.77139 0.17728,0.13335 1.06329,0.85271 0.14691,0.10138 1.2449,0.9397 1.22592,0.94242 1.00747,0.75784 0.25343,0.1919 2.68278,2.10953 1.77723,1.40102 0.0613,0.0499 0.15232,0.12007 2.19139,1.65093 3.49375,2.65053 1.53302,1.24057 0.89796,0.63451 0.66406,0.45752 1.4509,1.11453 0.15476,0.0913 0.17455,0.0282 -0.47595,-2.08026 -1.404,-4.93407 0.0263,-0.24882 -0.0369,-0.15368 -0.14963,-0.52122 -0.41307,-1.54738 -0.67462,-2.40687 -0.29028,-1.01207 -1.28448,-4.48035 -0.33664,-0.36997 0.12653,-0.17211 -0.35561,-1.44006 -0.322,-1.63086 -1.60187,-7.09022 0.92643,0.11086 1.33136,0.24259 1.11534,0.18837 1.73495,0.53531 0.68276,0.26481 0.49628,0.27484 0.33989,0.31278 0.23987,0.37431 0.3052,0.7161 0.19027,0.61174 0.1843,0.71122 0.4887,1.13025 0.28812,0.56594 0.82072,-0.7123 0.6253,-0.67625 0.91584,-1.1354 z"
      data-name="Neópolis" id="neopolis" />
   <path class="neighborhood"
      d="m 288.90915,442.6017 -7.77,-4.04992 -2.621,-1.83605 -16.7811,-13.22962 -14.19102,-11.03878 -0.78113,-0.63235 0.0625,-0.0957 0.1192,-0.28596 0.35507,-0.85054 0.22416,-0.53666 0.22793,-0.5467 0.42176,-1.01045 0.32227,-0.77193 0.10973,-0.26318 0.2068,-0.49546 0.22144,-0.53044 0.0599,-0.14338 0.20653,-0.49466 0.46185,-1.10667 0.45699,-1.09528 0.45236,-1.08336 0.46051,-1.10343 1.69809,-4.07621 0.14067,-0.33745 1.85096,-4.42668 0.84185,-2.05478 0.14338,-0.32145 0.55239,-1.34113 0.31523,-0.76542 0.68464,-1.68264 1.0175,-2.39684 0.0813,-0.20084 0.0485,-0.14257 -0.16805,-0.59927 -0.0957,-0.78142 -0.93212,0.49438 -0.76624,0.1545 -1.30264,-0.0239 -0.50223,-0.0541 -4.01091,-0.43179 -8.74737,-0.90257 -1.48884,-0.53232 -0.23608,-0.1957 -0.46186,-0.38298 -0.62557,-0.908 -5.44824,-10.56202 -0.72937,0.30547 -0.11467,0.0648 -0.26373,0.12853 -2.12714,1.2666 -1.00341,0.6364 -0.79605,0.45211 -1.87914,1.14976 -0.2716,0.16533 -1.36442,0.85298 -2.43886,1.55362 -0.1024,0.0645 -0.95706,0.61445 -0.43638,0.25723 -0.11626,0.0685 -0.25072,0.14799 -0.48354,0.25858 -0.2873,0.34856 3.75016,8.12154 0.6074,2.34398 0.132,1.0671 0.10466,0.84484 -0.0995,2.10818 -0.19732,1.57936 -0.27755,1.0774 -0.11813,0.46592 -0.0228,0.0813 -0.29139,0.96844 -0.74672,1.76449 -3.58021,7.52849 -2.07592,4.51775 0.51064,0.23065 1.04136,0.31659 0.21872,0.0664 0.1068,0.0325 1.0782,0.3277 0.53044,0.16126 1.01424,0.30846 0.74484,0.22062 0.78493,0.25424 1.22728,0.3632 0.16615,0.0517 1.00449,0.29652 1.21239,0.38108 0.38568,0.126 0.66921,0.21196 2.4776,0.73696 1.13757,0.35752 0.0187,0.64751 0.012,0.69739 0.0137,0.32038 0.0176,0.44939 0.0197,0.71745 0.004,0.22144 0.0136,0.36157 0.005,0.18729 0.0153,0.2518 0.0268,0.66677 -0.003,0.59494 0.026,0.95516 0.012,0.55591 0.007,0.62638 0.0477,1.24923 0.003,1.01723 -0.0165,1.09529 0.0417,0.57461 0.007,0.0745 0.0344,0.38787 0.0539,0.56702 0.0388,0.40982 0.0328,0.72395 0.003,0.46322 0.009,0.46457 0.0181,0.30085 0.0412,0.27565 0.0677,0.26536 0.15098,0.51173 0.0629,0.1881 0.34856,0.58085 0.26941,1.30453 0.17402,0.87872 10.27173,8.38039 0.0651,0.0642 1.565,1.26252 2.18976,1.77967 0.21222,0.18187 1.63196,1.25114 0.40738,0.31197 0.4239,0.34639 1.1739,0.94784 0.5635,0.44126 0.67164,0.55347 0.62259,0.49411 0.32037,0.24421 0.18594,0.13661 0.17454,0.11492 0.1488,0.0856 0.0913,0.0626 2.33801,1.76422 0.14176,0.0878 7.06284,5.85968 5.57076,4.76603 2.93052,2.50688 1.90164,-2.81641 1.6436,-1.48098 0.33664,-0.16778 1.08797,-1.53925 1.03783,-1.34872 0.92236,-1.22674 0.14446,-0.19976 0.76679,-1.0053 0.2892,-0.3613 0.67056,-0.84267 0.39057,-0.49547 0.50171,-0.64535 0.35804,-0.47189 0.30195,-0.41009 0.73777,-1.00557 0.48056,-0.64535 0.52719,-0.68872 1.11506,-1.46391 0.47623,-0.66974 0.16724,-0.0531 0.0745,-0.0607 0.0908,-0.12116 0.46348,-0.63803 1.06142,-1.37067 0.5738,-0.76461 0.49925,-0.66514 0.0107,-0.004 0.0295,-0.0236 0.0149,-0.0228 0.007,-0.0217 0.004,-0.016 0.22632,-0.25072 0.0599,-0.30926 z"
      data-name="Capim Macio" id="capim_macio" />
   <path class="neighborhood"
      d="m 31.6281,56.650733 -0.44208,0.0548 0.0375,0.1212 0.3632,2.474627 0.88386,3.009119 0.88415,1.736307 1.04379,1.433813 0.99418,1.099347 0.4765,0.442613 0.85866,0.797147 0.42419,0.32904 1.72627,1.34004 1.56662,1.215907 1.04136,0.80824 1.56067,1.211293 0.88088,0.76624 1.80325,2.130133 0.43043,0.65376 0.82585,1.683987 2.41935,6.828666 1.20965,2.106276 5.02814,6.65222 1.78833,2.05125 0.0428,0.0547 5.67999,7.259612 1.20965,1.85177 1.25629,2.68523 0.96899,2.48195 0.65944,1.63818 0.74104,1.30318 0.79443,0.98849 0.96789,0.96899 1.40508,1.0446 3.16389,2.03688 0.28894,0.12493 1.31618,0.56945 0.93564,0.1244 0.50686,0.0609 4.6183,-4.57819 0.0385,-0.0375 1.0156,-0.98985 0.26941,-0.28677 0.75567,-0.75838 0.1236,-0.13742 0.90528,-0.91856 2.02469,-2.00735 1.03593,-1.04893 1.04326,-1.0091 1.29042,-1.30182 1.9591,-1.98214 1.00341,-1.07414 3.17311,-3.302122 1.00692,-1.06683 1.05056,-1.08147 0.38542,-0.42689 1.41024,-1.56608 0.34531,-0.36511 0.51635,-0.5643 1.03592,-1.11751 0.98876,-1.05627 0.1016,-0.0867 0.82506,-0.9332 0.21466,-0.23147 0.72694,-0.792 0.37079,-0.46267 0.22849,-0.26644 0.55754,-0.65022 0.65864,-0.86139 0.0637,-0.1228 0.0165,-0.19705 0.0491,-0.12654 0.28351,-0.37973 0.0824,-0.25857 0.68086,-1.170096 0.61147,-0.986053 0.26101,-0.420933 0.34423,-0.58492 0.13823,-0.221707 0.1808,-0.292733 0.10186,-0.20084 0.0619,-0.17536 0.0761,-0.20816 0.0347,-0.168054 0.0511,-0.169946 0.0491,-0.137414 1.41566,-2.300346 0.93049,-1.509174 0.13093,-0.212493 0.95978,-2.35808 0.13796,-0.4136 0.66676,-1.842013 0.322,-1.16956 0.69225,-2.686853 0.0461,-0.178347 0.3426,-1.29964 2.46867,-8.775026 0.18729,-0.717187 0.0661,-0.276467 0.2499,-1.043786 0.0656,-0.253147 0.40358,-1.656627 0.33798,-1.58424 0.59034,-2.328533 0.21304,-0.839693 0.08,-0.350734 0.25072,-0.926146 0.15258,-0.672734 0.42935,-1.356026 0.70497,0.346933 1.04677,0.571627 0.644,0.36672 1.39507,0.79416 1.45415,0.89336 1.56309,0.94052 0.77411,0.459146 0.63289,0.365907 0.1328,0.07973 0.75377,0.46972 0.31251,0.213307 0.46187,0.28216 0.37052,0.25668 0.31629,0.206253 0.65811,0.481107 0.11626,0.0868 0.52339,0.31088 0.56351,0.30032 0.68709,0.384067 0.64236,0.358866 0.50795,0.300587 0.15449,0.09213 0.26048,0.155307 0.49193,0.293267 0.80338,0.469986 0.76325,0.448574 0.87981,0.491946 1.56203,0.746454 0.36808,0.175906 0.18891,0.0976 0.47025,0.24692 1.42108,0.7478 0.28976,0.151787 1.95557,1.110466 2.00788,1.10612 1.3181,0.843227 0.63532,0.488413 0.7787,0.737787 0.79471,0.804173 0.63912,0.756214 0.14907,0.178346 0.49249,0.563227 0.0365,-0.102933 0.058,-0.074 0.11174,-0.08347 0.0485,-0.0067 0.26345,-0.36212 0.23935,-0.32932 0.1068,-0.147986 0.24095,-0.33392 0.1296,-0.20084 0.0667,-0.102934 0.38895,-0.62584 0.37431,-0.6112 0.3453,-0.57868 0.17808,-0.441253 0.11654,-0.401413 0.10546,-0.365374 0.0545,-0.361573 0.0289,-0.560787 -0.0107,-0.647253 -0.0436,-0.705253 -0.0469,-0.789 -0.0225,-0.571093 -0.007,-0.535854 0.0428,-0.46348 0.0829,-0.484906 0.16074,-0.5288 0.20273,-0.708774 0.23771,-0.67056 0.1236,-0.83916 0.14906,-1.186346 0.0867,-1.136494 0.0679,-0.763253 0.10653,-1.45876 0.13173,-1.484493 0.0835,-0.770587 0.10867,-0.497906 0.1168,-0.4334 0.24502,-0.79388 0.14636,-0.267787 0.41931,-0.3342 -0.27891,-0.47188 -0.37918,-0.266707 -0.57651,-0.752693 -0.85948,-2.320947 -0.7684,-2.252093 -0.28569,-0.222253 -0.88631,-0.225787 -0.93049,-0.456427 -0.70552,-0.646173 -0.99338,-0.865707 -1.56554,-1.120773 -0.68846,-0.736427 -0.82857,-0.820173 -0.52123,-0.360213 -0.73614,-0.941333 -0.74835,-0.58356 -0.55944,-0.1328 -0.48381,0.173746 -1.76828,1.250054 -0.70716,0.1946 -0.51579,0.02853 -0.42879,0.239866 -0.22444,0.65972 -0.43013,0.572174 -1.47665,0.99608 -0.89308,0.75812 -1.07008,0.416853 -1.89162,-0.282427 -0.75376,-0.0067 -0.37106,0.279453 -0.43096,0.419027 -0.27863,0.04387 -0.425,0.772734 -0.38543,0.464026 -0.3342,0.316587 -0.4567,0.143373 -0.65078,-0.374306 -0.57786,-0.875747 -0.93103,-1.257907 -0.76543,-0.8256 -0.90692,-0.72748 -1.07522,-0.973306 -1.92658,-1.25656 -1.73738,-1.54928 -1.61813,-1.10884 -0.78384,-1.081467 0.50738,-2.00436 0.15368,-0.607146 -0.44288,-0.963827 -0.6177,-0.690347 -1.02428,-0.3716 -0.97386,-0.106533 -0.78169,-0.267787 -0.77925,-0.757573 -0.74835,-0.620147 -1.98567,-1.306693 -1.88808,-1.085533 -1.81545,-0.52176 -0.98145,-0.29788 -1.72139,0.483 -1.10613,0.240693 -0.7367,-0.0027 -0.5887,-0.320919 -0.80934,-0.272667 -1.20018,0.129067 -1.04379,0.327693 -1.33461,0.137693 -1.63846,0.388947 -1.3048,-0.56512 -2.50226,-1.277973 -1.407,-0.745907 -0.87276,-0.424733 -1.35304,-1.206134 -1.9938,-1.859906 -1.34519,-1.09556 -1.05652,-0.794694 -0.91559,-0.977653 -1.1766,-0.699293 L 83.96517,9.7621727 82.31859,7.943466 81.08453,7.049573 78.10332,4.32748 75.24111,2.065346 71.30447,0 71.18193,0.260746 70.86563,0.80337302 70.56776,1.32784 l -0.29084,0.586 -0.18187,0.433933 -0.23988,0.53884 -0.66893,1.352773 -0.2106,0.466747 -1.38909,2.999906 -0.0816,0.261547 -0.1288,0.438827 -1.47963,2.951386 -1.38856,2.318227 -1.16305,1.739827 -0.5597,0.799306 -1.10504,1.47936 -2.15209,2.618827 -1.26496,1.46824 -1.58125,1.942293 -0.15668,0.203013 -2.48031,2.967107 -0.39816,0.4868 -1.72303,2.285707 -0.74102,1.084986 -0.47298,0.70904 -1.13784,1.81924 -0.71582,1.24084 -1.50863,3.01996 -2.13745,4.727267 -1.75202,3.790546 -0.54534,1.016413 -0.59602,1.059774 -0.98145,1.44656 -0.60713,0.763253 -0.9595,1.14652 -1.14137,1.067093 -0.57081,0.452107 -0.4876,0.31116 -0.3811,0.32524 -0.39626,0.28948 -0.88631,0.586 -0.26237,0.173467 -0.7272,0.375933 -0.8538,0.455893 -2.43315,1.124827 z"
      data-name="Lagoa Azul" id="lagoa_azul" />
   <path class="neighborhood"
      d="m 121.48761,105.30219 0.43449,0.53693 2.04637,2.54265 0.40359,0.54236 0.74889,0.92968 0.66865,0.9294 0.61447,0.78115 0.19623,0.21712 0.26534,0.35072 0.3128,0.38325 0.73127,0.91152 1.51133,1.95504 0.29978,0.40006 1.30237,1.69484 0.0511,0.0629 0.77626,0.9614 2.57572,3.28315 1.32839,1.76801 1.18203,1.57775 1.24245,1.63141 0.33231,0.43204 0.23038,0.30275 0.9088,1.21617 1.04678,1.36715 0.21765,0.28946 1.94039,2.57872 0.60334,0.7703 0.29219,0.35832 0.64048,0.83725 0.96031,1.22104 0.85948,1.08148 0.11946,0.1618 0.0965,0.13093 0.0181,0.0271 4.94761,-3.05709 1.34547,-0.79986 9.24365,-5.49566 2.42584,-1.44006 1.93011,-1.19177 10.51321,-6.33076 4.59528,-2.80151 0.59928,-0.33149 0.0375,-0.0209 1.13349,-0.50686 1.59402,-0.47486 1.15978,-0.19462 1.20263,-0.0527 4.83731,0.1675 3.94422,0.0848 8.56036,0.44804 3.4493,0.23148 -0.13986,-0.43882 -0.22225,-0.24828 -0.92724,-0.65511 -1.73956,-1.29965 -0.72124,-0.90286 -0.79091,-0.54261 -1.39777,-0.62232 -0.98389,-0.90393 -2.85274,-2.02794 -2.21876,-1.64713 -1.37852,-0.33989 -0.6158,-0.93646 -1.4154,-1.24381 -0.2434,-0.39329 -0.40086,-0.29246 -0.44262,-0.0431 -0.2724,-0.18512 -0.5776,-0.14176 -0.93481,-0.63695 -0.63099,-0.53668 -0.34558,-0.44585 -0.48762,-0.37703 -0.422,-0.512 -1.21944,-0.916672 -0.2808,-0.56974 -0.40548,-0.0447 -0.24448,-0.23527 -0.40872,-0.53666 -0.29978,-0.43042 -0.21982,-0.52474 0.27268,-1.38882 0.1675,-0.68654 0.0968,-0.28651 -0.14528,-0.43989 -0.18891,-0.1648 -0.28812,-0.11947 -0.38759,-0.22335 -0.16616,-0.32281 0.0635,-0.28188 0.13253,-0.24584 0.26427,-0.20763 0.26128,-0.26697 0.0648,-0.20084 0.0293,-0.30656 -0.0543,-0.40628 0.0377,-0.37865 0.1036,-0.39031 0.17835,-0.45372 0.0435,-0.27809 -0.0572,-0.1244 -0.10893,-0.10214 -0.0667,-0.25804 0.0472,-0.18132 -0.15557,-0.116 -0.49465,0.0987 -0.48924,0.0179 -0.61499,-0.42338 -0.46701,-0.35425 0.0331,-0.43232 -0.17484,-0.79768 -0.1176,-0.27836 0.007,-0.40656 -0.0939,-0.223066 -0.34504,-0.064 -0.40629,0.02573 -0.3548,-0.133614 -0.22848,0.02467 -0.55808,-0.150693 -0.39167,0.400053 -0.5109,0.1108 -0.43963,-0.261827 -0.60607,-0.6028 -0.37213,-0.717453 -0.13444,-0.458867 0.15693,-0.290026 0.36971,-0.6448 0.26805,-0.41904 -0.11813,-0.31712 -0.19433,-0.214934 -0.38271,-0.2518 -0.48436,-0.418493 -0.29436,-0.1404 -0.0795,-0.219813 -0.036,-0.263454 0.0789,-0.38028 0.048,-0.293533 -0.0955,-0.848907 0.0751,-0.18188 -0.0107,-0.366173 -0.12013,-0.6562 0.005,-0.32904 -0.0659,-0.189187 -0.2087,-0.169413 -0.29707,-0.07187 -0.30708,0.0556 -0.24936,0.197587 -0.17484,-0.144733 -0.19405,-0.160454 -0.11627,-0.208973 0.0537,-0.223347 0.27186,-0.32444 0.16154,-0.23608 0.0588,-0.31712 -0.14528,-0.248813 -0.0867,-0.299507 -0.1919,-0.381893 -0.23636,-0.21792 -0.39464,-0.15612 -0.65376,-0.215747 -0.0984,-0.21928 0.13418,-0.21196 0.0463,-0.24312 -0.1854,-0.166426 -0.29218,-0.168854 -0.23147,-0.0212 -0.13688,0.16344 -0.14257,0.1252 -0.15964,0.16804 -0.28107,-0.159373 -0.16425,-0.09213 -0.14258,-0.16452 -0.14772,-0.126267 -0.0832,-0.18376 -0.003,-0.1212 0.15585,-0.113333 0.13987,-0.130667 0.23932,-0.120133 0.0943,-0.227133 0.0525,-0.2846 0.25478,0.03387 0.23419,0.004 h 0.25016 l 0.15937,-0.08213 0.0367,-0.14664 -0.15829,-0.145827 -0.26724,-0.160453 -0.15938,-0.144733 -0.0987,-0.04333 -0.012,-0.151786 -0.28107,-0.159094 -0.21169,-0.123866 -0.16127,-0.140947 -0.0389,-0.21684 0.0973,-0.134707 0.27645,-0.233093 0.40251,-0.526373 0.33284,-0.350187 0.10493,-0.133893 0.004,-0.368614 0.0133,-0.275106 0.0439,-0.148534 0.1816,-0.248546 0.18866,-0.25776 0.132,-0.165067 0.0927,-0.221453 -0.0553,-0.207067 -0.13959,-0.249093 -0.0285,-0.218187 0.0401,-0.09107 0.0767,-0.04747 0.12547,-0.07747 0.28406,0.112 0.1984,0.19 0.15314,0.167507 0.1442,0.14392 0.24936,0.03067 0.24828,-0.0504 0.39626,-8.13e-4 0.27239,-0.26996 0.14339,-0.36944 0.0775,-0.5326 0.094,-0.310347 0.26834,-0.299226 0.25965,-0.07973 0.1108,-0.107066 -0.096,-0.209787 -0.11733,-0.206813 -0.21576,-0.0368 -0.28026,-0.111467 -0.53152,-0.246653 -0.10733,-0.126267 -0.31387,-0.148267 -0.0615,-0.135786 -0.14636,-0.233094 -0.08,-0.250453 0.17293,-0.156933 0.20897,-0.08893 0.18756,-0.05253 0.2453,-0.0596 0.12253,-0.155853 -0.007,-0.277 -0.2461,-0.096 -0.24638,-0.03067 -0.34124,-0.0916 -0.32932,0.03173 -0.2022,0.0764 -0.0892,0.181334 -0.60362,0.01867 -0.34287,-0.105733 -0.36347,-0.341787 -0.29354,-0.37024 -0.0537,-0.46592 0.13742,-0.7096 -0.0433,-0.63288 -0.18593,-0.78684 -0.0604,-0.260199 -0.12773,-0.32688 -0.29896,-0.1008 -0.21142,0.07893 -0.3613,0.406293 -0.36482,0.474333 -0.26672,0.133614 -0.19216,-0.0696 -0.11306,-0.265347 -0.11254,-0.411986 0.10467,-0.211414 0.3014,-0.09213 0.24963,-0.110533 0.10493,-0.372694 -0.14229,-0.419573 -0.42988,-0.25668 -0.35344,-0.307627 -0.22496,-0.16452 -0.34775,-0.459426 -0.39899,-0.1236 -0.29733,-0.33528 -0.27781,-0.27376 -0.51715,-0.251254 -0.54752,-0.225786 -0.67707,-0.05453 -0.99445,-0.377013 -0.68817,-0.2724 -0.46267,-0.396267 -0.17511,-0.263733 -0.10786,-0.483267 -0.18487,-0.554546 -0.26913,-0.480027 -0.29327,-0.284587 -0.20328,-0.35344 -0.26969,-0.720986 -0.42826,-0.534494 -0.58382,-0.297066 -0.35534,-0.273747 -0.17753,-0.32688 -0.23175,-0.409 -0.42309,-0.33284 -0.1276,-0.156933 -0.26616,0.012 -0.33393,-0.0596 -0.41307,0.0488 -0.49655,-0.02893 -0.32362,-0.356146 -0.10947,-0.48544 -0.19352,-0.493294 0.0175,-0.787653 0.16098,-0.295987 -0.24176,-0.172106 -0.24908,0.09133 -0.31984,-0.03333 -0.43882,-0.01707 -0.72043,0.0864 -0.4708,-0.1572 -0.33176,-0.433666 0.0808,-0.439907 0.008,-0.130667 0.26264,-0.361306 -0.0301,-0.549947 -0.24312,-0.45752 -0.41931,0.3342 -0.14636,0.267787 -0.24503,0.79388 -0.1168,0.4334 -0.10866,0.497906 -0.0835,0.770587 -0.13173,1.484493 -0.10654,1.45876 -0.0679,0.763253 -0.0867,1.136494 -0.14908,1.186346 -0.1236,0.83916 -0.23769,0.67056 -0.20275,0.708774 -0.16072,0.5288 -0.0829,0.484906 -0.0428,0.46348 0.007,0.535854 0.0225,0.571093 0.0469,0.789 0.0436,0.705253 0.0107,0.647253 -0.0289,0.560787 -0.0545,0.361573 -0.10547,0.365374 -0.11653,0.401413 -0.17807,0.441253 -0.3453,0.57868 -0.37431,0.6112 -0.38896,0.62584 -0.0667,0.102934 -0.1296,0.20084 -0.24094,0.33392 -0.1068,0.147986 -0.23934,0.32932 -0.26345,0.36212 -0.0485,0.0067 -0.11174,0.08347 -0.058,0.074 -0.0365,0.102933 -0.49248,-0.563227 -0.14908,-0.178346 -0.63912,-0.756214 -0.79469,-0.804173 -0.77871,-0.737787 -0.63532,-0.488413 -1.31809,-0.843227 -2.00788,-1.10612 -1.95559,-1.110466 -0.28975,-0.151787 -1.42108,-0.7478 -0.47025,-0.24692 -0.18892,-0.0976 -0.36808,-0.175906 -1.56201,-0.746454 -0.87982,-0.491946 -0.76325,-0.448574 -0.80337,-0.469986 -0.49195,-0.293267 -0.26048,-0.155307 -0.15448,-0.09213 -0.50795,-0.300587 -0.64237,-0.358866 -0.68708,-0.384067 -0.56351,-0.30032 -0.52338,-0.31088 -0.11627,-0.08667 -0.65811,-0.481106 -0.31629,-0.206267 -0.37052,-0.256667 -0.46187,-0.28216 -0.3125,-0.213306 -0.75378,-0.46972 -0.1328,-0.07973 -0.63288,-0.365906 -0.7741,-0.459147 -1.5631,-0.94052 -1.45416,-0.89336 -1.39505,-0.79416 -0.644,-0.36672 -1.04677,-0.571627 -0.70497,-0.346933 -0.42935,1.356027 -0.15259,0.672733 -0.25072,0.926147 -0.08,0.350733 -0.21304,0.839693 -0.59033,2.328534 -0.33799,1.58424 -0.40358,1.656626 -0.0656,0.253147 -0.2499,1.043787 -0.0661,0.276466 -0.18728,0.717187 -2.46868,8.775026 -0.34259,1.29964 -0.0461,0.178347 -0.69225,2.686853 -0.322,1.16956 -0.66676,1.842013 -0.13796,0.4136 -0.95978,2.35808 -0.13093,0.212494 -0.93049,1.509173 -1.41566,2.300347 -0.0491,0.137413 -0.0509,0.169947 -0.0347,0.168053 -0.0763,0.20816 -0.0617,0.17536 -0.10187,0.20084 -0.18079,0.292733 -0.13822,0.221707 -0.34423,0.58492 -0.26101,0.420933 -0.61147,0.986054 -0.68087,1.170094 -0.0824,0.25857 0.0289,0.25478 0.0725,0.21358 0.0965,0.1751 0.0965,0.1176 0.73914,0.82397 1.6184,2.13963 0.40114,0.53016 0.75594,0.95488 0.38922,0.54452 0.29056,0.36889 0.73073,0.91857 0.80717,1.06411 0.59223,0.76597 1.17659,1.50212 0.85542,1.12375 0.18078,0.22579 2.12932,2.739962 1.63032,1.97456 1.03946,1.35277 0.39436,0.50821 z"
      data-name="Pajuçara" id="pajucara" />
   <path class="neighborhood"
      d="m 224.12059,394.40777 0.27755,-1.0774 0.19732,-1.57936 0.0995,-2.10818 -0.10466,-0.84484 -0.132,-1.0671 -0.60742,-2.34398 -3.75016,-8.12154 -0.67,-1.45984 -2.83052,-9.5578 -1.93388,-6.96039 -0.24964,-1.24897 -0.26914,-1.61243 -0.0357,-0.95272 -0.22849,0.13904 -0.32768,-0.15368 -37.33052,-16.12436 -3.66613,-1.15465 -0.57596,0.86708 -0.20899,0.34801 -2.15912,-0.036 -3.81684,5.02407 -3.33681,-2.35782 -2.32718,3.27746 1.01668,0.73073 0.11627,0.20979 -0.0363,0.26048 -0.11626,0.20978 -1.10504,1.46092 5.13246,3.78486 -0.0981,0.1732 -0.62611,1.5715 -0.40249,0.85107 -0.29815,0.65376 -0.0537,0.0813 -0.0625,0.0679 -0.0691,0.0577 -0.19623,0.0816 -0.0609,0.0423 -0.0519,0.0588 -0.10893,0.16263 -0.15099,0.23525 -0.77598,1.37392 -1.17498,2.12092 -0.41253,0.74483 -1.61297,2.90396 -0.47054,1.04242 -0.10213,0.50523 -2.31145,4.24101 15.48822,45.98981 -10.21888,-3.56746 6.50044,4.13638 0.24394,0.12631 0.87845,0.45427 0.44885,0.23201 5.21108,3.10101 16.31436,9.67868 10.79674,6.57958 0.21304,0.12982 1.82602,1.06439 0.30464,0.13687 0.27024,0.14366 6.1123,-12.77644 0.88441,-2.07294 1.55064,-3.29318 4.35892,-9.25666 2.07592,-4.51776 3.58021,-7.52848 0.74672,-1.76449 0.29138,-0.96844 0.0228,-0.0813 0.11813,-0.46592 z"
      data-name="Candelária" id="candelaria" />
   <path class="neighborhood"
      d="m 236.12211,178.51504 -0.2106,-0.012 -10.82819,-2.01141 0.65972,10.14217 -0.4212,5.23628 -2.42096,7.43553 -5.99981,11.51988 -0.56864,0.64211 5.36828,3.55961 0.35045,0.22469 0.0745,0.0641 0.29244,0.14662 0.89878,-0.75946 1.44034,-0.92507 0.17264,-0.0995 2.09137,-1.2048 0.1328,-0.0677 1.82223,-0.9828 0.39762,-0.1036 0.47432,0.0343 0.47216,0.23905 0.45888,0.27348 0.11574,0.58167 -0.1092,0.23146 1.61732,0.99636 1.12537,0.63127 0.42337,0.24475 0.38542,0.19622 0.54154,0.35264 0.84348,0.46674 0.45048,0.26941 1.35062,0.74483 0.4689,0.2461 1.7588,0.97278 0.23852,0.132 0.17076,0.0848 0.95596,-2.52559 0.47324,-1.40508 1.17579,-2.75543 0.54995,-1.26306 0.0317,-0.0648 0.56404,-1.15898 0.90935,-1.32974 0.0285,-0.0641 -0.15991,-0.0892 -0.2266,-0.1196 -0.45968,-0.2228 -0.18784,-2.26266 -0.15937,-2.09978 -0.15449,-1.66312 -0.26508,-2.50552 -0.007,-0.23553 -2.0686,-0.53179 -2.59227,-0.85785 -2.11874,-0.67355 -0.19515,-0.0531 0.0511,-0.17075 0.42742,-2.11795 1.76639,-7.50219 0.39573,-1.6924 0.14283,-0.0924 0.0995,-0.16019 10e-4,-0.004 0.0107,-0.0763 -0.0163,-0.0596 -0.0839,-0.21466 -0.20572,-0.4708 -0.25098,-0.44994 -1.1991,-1.84282 -1.17632,-1.94256 -0.0887,-0.27755 -0.0381,-0.23988 0.0312,-0.30736 z"
      data-name="Ribeira" id="ribeira" />
   <path class="neighborhood"
      d="m 256.43625,196.31281 0.0743,-0.20245 0.0892,-0.15207 0.13013,-0.1192 -0.0157,-0.12467 0.0176,-0.11706 0.83725,-1.77426 0.85623,-1.8073 0.5364,-1.13703 -1.03836,-0.52501 -2.39277,-1.10667 0.0496,1.09284 -0.005,0.0201 -0.0107,0.0173 -0.0228,0.009 -0.0861,0.004 -0.28269,0.009 -0.36157,-0.003 -0.12987,-0.0651 -0.30548,-0.57921 -0.12173,-0.23203 -0.32904,-0.65049 -0.74185,-1.27688 -0.41767,-0.66352 -0.80283,-0.55076 -1.83226,-1.13865 -0.72992,-0.49872 -1.27011,-0.86626 -2.16944,-1.50348 -1.4162,-0.93753 -1.43111,-0.96059 -0.59845,-0.53313 -0.30656,-0.33664 -0.40792,-0.1076 -0.21113,-0.0515 -0.17755,-0.0547 -0.27049,-0.16452 -0.25587,-0.18134 -0.31468,-0.25098 -0.26644,-0.29272 -0.24772,-0.29491 -0.2182,-0.37105 -0.0861,-0.14664 -0.15828,-0.29435 -0.15803,-0.37323 -0.19163,-0.49032 -0.19514,0.0315 -0.19191,-0.001 -0.19893,-0.0225 -1.0194,-0.27755 -0.34667,0.005 -0.21819,0.0725 -0.1816,0.12333 -0.14176,0.18729 -0.6234,1.84906 -0.007,0.0165 -0.0312,0.30736 0.0381,0.23988 0.0887,0.27753 1.17633,1.94258 1.19908,1.84281 0.251,0.44995 0.20572,0.4708 0.0837,0.21465 0.0163,0.0596 -0.0107,0.0761 -0.001,0.004 -0.0995,0.1602 -0.14284,0.0924 -0.39572,1.6924 -1.7664,7.5022 -0.42742,2.11793 -0.0511,0.17075 0.19515,0.0531 2.11876,0.67353 2.59225,0.85785 2.0686,0.53179 0.007,0.23555 0.26508,2.50552 0.1545,1.66312 0.15936,2.09977 0.18784,2.26267 0.45968,0.2228 0.2266,0.11946 0.15992,0.0892 1.64604,0.71854 0.30276,0.1024 0.56376,0.31685 0.12254,0.0729 0.25125,0.14014 1.23921,0.81828 0.001,-0.14718 0.65402,-0.49194 0.37431,-0.29355 1.39236,-0.96084 0.43501,-0.24963 0.98199,-0.61418 0.39844,-0.35995 0.2976,-0.36212 0.29328,-0.37593 0.25099,-0.38651 0.18077,-0.43204 0.0743,-0.3342 0.0525,-0.3464 0.005,-0.40331 0.0577,-0.24529 0.0751,-0.22821 0.12734,-0.20464 -0.50198,-0.58763 -0.23716,-0.27781 0.1036,-0.27023 1.54279,-0.77573 0.17644,-0.0777 -0.96952,-0.92913 -0.0389,-0.0309 1.21427,-2.41203 0.52012,-1.50944 z"
      data-name="Rocas" id="rocas" />
   <path class="neighborhood"
      d="m 241.47684,145.55103 -3.44144,3.31133 -4.9178,5.89844 -4.7831,6.76957 -3.25118,14.96079 10.82819,2.01141 0.2106,0.012 0.007,-0.0165 0.6234,-1.84905 0.14176,-0.1873 0.1816,-0.12333 0.21818,-0.0725 0.34667,-0.005 1.0194,0.27756 0.19893,0.0225 0.19191,0.001 0.19515,-0.0315 0.19162,0.49032 0.15803,0.37323 0.15828,0.29436 0.0861,0.14662 0.2182,0.37107 0.24772,0.29489 0.26644,0.29272 0.31468,0.25099 0.25587,0.18133 0.27049,0.16452 0.17755,0.0547 0.21113,0.0515 0.40792,0.1076 0.30656,0.33662 0.59846,0.53315 1.4311,0.96057 1.4162,0.93755 2.16944,1.50348 1.27011,0.86624 0.72992,0.49872 1.83225,1.13865 0.80284,0.55076 0.41767,0.66352 0.74185,1.27688 0.32904,0.65051 0.12174,0.23201 0.30546,0.57923 0.12987,0.0651 0.36156,0.003 0.2827,-0.009 0.0861,-0.004 0.0228,-0.009 0.0107,-0.0173 0.005,-0.0201 -0.0496,-1.09284 2.39277,1.10666 1.03836,0.52502 0.702,0.36265 0.1044,0.23825 0.55944,-0.14853 0.1236,-0.0469 0.10413,-0.09 0.0539,-0.11814 0.60985,0.19434 0.64942,-0.0247 1.08146,0.67408 -0.88685,-1.58127 -0.28568,-1.78048 -0.46889,-1.7588 -10e-4,-1.4929 -0.57515,-1.32865 0.55265,-1.51107 -1.08472,-1.94311 -0.7169,-4.01361 -0.0225,-0.55511 -0.19541,-4.83269 1.57665,-3.76587 -0.16641,-0.72802 -0.77383,-0.49628 -0.49953,-0.31578 -0.44533,-0.76108 -0.34342,-0.71013 -0.13416,-1.15573 0.1328,-1.01967 0.5204,-0.76949 0.43558,-0.86652 1.3132,-0.58248 0.99174,-0.9267 -0.0447,-1.20993 0.58328,-10.76123 0.28948,-0.72802 -0.0845,-0.46728 0.37568,-0.35507 -0.25344,-0.52339 -0.0847,-0.97196 0.0187,-1.60728 -0.30926,-0.7947 -0.45156,-0.51363 -0.0609,-0.54832 0.22064,-3.08719 -0.0963,-1.2636 0.18078,-0.66161 0.0377,-1.13079 -0.1032,-1.056 0.122,-0.6261 0.2629,-0.53287 0.008,-0.4128 -0.42146,-0.18539 -0.23852,-0.41605 -2.09382,-0.79524 -2.29384,4.20713 -3.77157,3.42111 -9.4987,4.95981 -2.68875,2.58712 z"
      data-name="Santos Reis" id="santos_reis" />
   <path class="neighborhood"
      d="m 163.27354,160.36788 7.1344,9.96247 2.75433,-4.31555 0.69307,-1.0858 1.54549,-0.48843 3.14545,-0.99418 5.9879,0.5765 6.48442,-0.71392 2.81751,2.6386 0.46592,0.43639 1.87996,3.26471 1.15545,2.00654 1.40563,1.3815 3.14708,3.09342 3.53197,1.04324 4.74623,0.10974 4.66684,-2.49983 10.24813,1.70784 3.25118,-14.96079 4.78309,-6.76956 4.91781,-5.89845 3.44143,-3.31133 2.68876,-2.58711 9.49871,-4.95983 3.77157,-3.4211 2.29384,-4.20714 -3.65611,-1.38882 -0.14528,-0.1276 -0.22089,-0.10627 -0.3502,0.0615 -0.22821,0.26806 -0.94622,0.0916 -0.48137,-0.12853 -0.25831,0.0816 -0.0941,0.35045 -1.58507,0.88795 -0.26508,-0.1602 -0.26697,0.11333 -0.0265,0.33746 -1.43871,0.90202 -0.34585,-0.0447 -0.2854,0.17184 -0.0449,0.30656 -1.44276,0.83724 -0.2632,-0.0748 -0.31548,0.12706 -0.1128,0.35156 -0.99554,0.55752 -1.86152,-0.71554 -1.40374,-1.2365 -2.6405,-3.06686 -1.86532,-3.93338 -0.7001,-10.54141 0.0537,-4.61235 -0.11027,-1.83469 -5.11676,0.0147 -1.86559,-3.40838 -0.1797,-0.33581 -0.15287,-0.18812 -0.18947,-0.13713 -0.21492,-0.13499 -0.586,-0.3754 -0.95164,-0.51633 -2.27188,-1.20424 -0.16724,0.19352 -1.17578,1.13025 -0.66406,0.66324 -0.48109,0.52556 -0.57028,0.60089 -1.40156,1.64687 -0.35047,0.43936 -0.18376,0.22199 -0.4109,-0.33311 -1.31727,-1.0774 -1.21617,-1.08527 -0.88334,-0.64752 -0.62881,-0.48082 -0.30547,-0.26779 -0.59088,-0.55293 -0.39789,-0.41632 -0.57244,-0.47379 -1.31673,-1.22565 -0.6375,-0.596843 -0.90556,-0.856779 -1.08226,-0.94837 -35.32182,-30.035665 -0.0908,-0.281347 -0.1984,-0.19 -0.28406,-0.112 -0.12547,0.07747 -0.0767,0.04747 -0.0401,0.09107 0.0285,0.218187 0.13959,0.249093 0.0553,0.20708 -0.0927,0.22144 -0.132,0.165067 -0.18866,0.25776 -0.1816,0.248546 -0.0439,0.148534 -0.0133,0.275106 -0.004,0.368627 -0.10493,0.133893 -0.33284,0.350187 -0.40249,0.52636 -0.27647,0.233093 -0.0973,0.13472 0.0389,0.216827 0.16127,0.140947 0.21169,0.123866 0.28107,0.159107 0.012,0.151773 0.0987,0.04333 0.15938,0.144746 0.26724,0.160454 0.15829,0.145813 -0.0365,0.14664 -0.15938,0.08213 h -0.25017 l -0.23417,-0.004 -0.25479,-0.03387 -0.0527,0.284586 -0.0943,0.227133 -0.23934,0.120134 -0.13985,0.130666 -0.15585,0.113334 0.001,0.1212 0.0832,0.183773 0.14772,0.126267 0.14257,0.16452 0.16426,0.09213 0.28106,0.159373 0.15964,-0.168053 0.14258,-0.1252 0.13688,-0.16344 0.23146,0.0212 0.29219,0.168867 0.18539,0.166413 -0.0463,0.243133 -0.13417,0.211947 0.0984,0.21928 0.65376,0.215747 0.39464,0.15612 0.23634,0.21792 0.19191,0.381906 0.0867,0.299494 0.14528,0.248826 -0.0588,0.31712 -0.16154,0.23608 -0.27185,0.32444 -0.0537,0.223334 0.11626,0.208973 0.19406,0.160467 0.17482,0.144733 0.24936,-0.197587 0.3071,-0.0556 0.29706,0.07187 0.20871,0.1694 0.0659,0.189187 -0.005,0.329053 0.12014,0.656187 0.0107,0.366186 -0.0751,0.181867 0.0955,0.848907 -0.048,0.293546 -0.0789,0.380267 0.036,0.263453 0.0795,0.219814 0.29434,0.1404 0.48436,0.418493 0.38272,0.2518 0.19434,0.214933 0.11813,0.31712 -0.26807,0.41904 -0.36969,0.644814 -0.15695,0.290013 0.13444,0.45888 0.37215,0.717453 0.60605,0.6028 0.43964,0.261827 0.51091,-0.1108 0.39165,-0.400053 0.55808,0.150693 0.2285,-0.02467 0.35478,0.133627 0.40631,-0.02573 0.34504,0.064 0.0937,0.223083 -0.007,0.40656 0.1176,0.27836 0.17482,0.79768 -0.0331,0.43232 0.46701,0.35425 0.61499,0.42337 0.48924,-0.0179 0.49465,-0.0987 0.15557,0.116 -0.0472,0.18133 0.0667,0.25803 0.10893,0.10213 0.0572,0.1244 -0.0433,0.27808 -0.17836,0.45374 -0.1036,0.3903 -0.0377,0.37864 0.0543,0.4063 -0.0293,0.30654 -0.0648,0.20084 -0.26128,0.26699 -0.26427,0.20761 -0.13253,0.24584 -0.0635,0.28188 0.16615,0.32283 0.3876,0.22333 0.28812,0.1196 0.18891,0.16479 0.14528,0.43991 -0.0968,0.28649 -0.16751,0.68656 -0.27267,1.38881 0.21982,0.52475 0.29977,0.43041 0.40873,0.53667 0.24448,0.23527 0.40548,0.0447 0.2808,0.56975 1.21943,0.916672 0.42201,0.512 0.48762,0.37702 0.34557,0.44586 0.631,0.53666 0.93481,0.63696 0.5776,0.14176 0.2724,0.18512 0.44262,0.0431 0.40086,0.29245 0.2434,0.3933 1.41539,1.2438 0.61581,0.93646 1.37852,0.3399 2.21876,1.64712 2.85274,2.02794 0.98389,0.90394 1.39776,0.62232 0.79092,0.54261 0.72124,0.90285 1.73956,1.29966 0.92724,0.6551 0.22224,0.24828 0.13987,0.43882 -3.44931,-0.23147 -8.56036,-0.44804 -3.94421,-0.0848 -4.83731,-0.16751 -1.20263,0.0525 -1.15978,0.19461 -1.59402,0.47487 -1.13349,0.50685 -0.0375,0.0209 -0.59928,0.3315 -4.59528,2.80149 -10.51321,6.33076 -1.93011,1.19179 -2.42584,1.44005 -9.24365,5.49567 -1.34547,0.79985 -4.94761,3.05709 0.0249,0.0328 1.21808,1.60838 1.14868,1.51676 0.15856,0.20734 0.95272,1.27283 0.54642,0.70172 0.16832,0.23445 0.44668,0.53315 4.63457,6.39039 7.52931,10.33406 z"
      data-name="Redinha" id="redinha" />
   <path class="neighborhood"
      d="m 127.9192,153.42483 -0.62801,-0.007 -0.62773,0.0504 -1.59754,0.17076 -0.69874,0.0369 -0.82424,0.12067 -0.747,0.25179 -0.4502,0.2369 -0.40631,0.26996 -0.46238,0.42038 -0.41091,0.48814 -0.39627,0.57842 -0.7432,1.58236 -0.628,1.32512 -0.46945,0.6505 -0.56837,0.55184 -0.46539,0.35264 -1.36389,0.72043 -1.124,0.60823 -1.10994,0.7581 -0.63884,0.61012 -0.41362,0.60334 -0.28648,0.53856 -0.25262,0.75214 -0.47108,1.82331 -0.34314,1.43409 -0.75919,3.25767 -0.72152,2.737 -0.73696,3.10697 -0.68195,2.58114 -0.43014,1.74525 -0.18675,0.89065 -0.012,0.56972 0.0136,0.38028 0.0443,0.4475 0.11,0.54913 0.0236,0.0887 0.3041,1.02509 1.08444,3.65446 0.0615,0.22146 0.36347,0.93672 0.50388,1.01966 1.91221,3.0533 0.58924,1.26089 0.36591,1.96507 0.0821,0.91776 0.0569,1.2167 0.0919,0.6459 0.0981,0.43856 0.13986,0.64996 0.34368,1.44302 0.23608,1.00015 0.23526,0.92236 -0.18593,0.0791 -0.11493,0.0375 1.34573,3.35796 1.70837,4.26242 0.85352,2.12932 0.1204,-0.0659 0.2621,-0.09 3.51625,-0.69333 3.52708,0.39545 6.46764,3.02185 5.57156,5.26719 6.51777,3.66992 9.67272,3.52628 7.1542,1.66963 7.34256,-0.45156 1.90408,-0.15694 15.15728,-1.46606 13.26296,-3.14167 4.06537,-2.73863 6.03967,-4.06862 7.22059,-8.1546 0.56865,-0.64211 5.9998,-11.51988 2.42096,-7.43553 0.4212,-5.23628 -0.65972,-10.14217 -10.24813,-1.70784 -4.66683,2.49982 -4.74624,-0.10973 -3.53196,-1.04325 -3.14708,-3.09343 -1.40564,-1.38149 -1.15545,-2.00655 -1.87996,-3.26471 -0.46592,-0.43637 -2.81751,-2.63861 -6.48443,0.71393 -5.98789,-0.57652 -3.14545,0.9942 -1.5455,0.48841 -0.69305,1.0858 -2.75435,4.31555 -0.38,0.52068 -1.39397,1.90949 -0.98144,0.97631 -0.87249,0.86815 -3.01022,0.42065 -2.20682,0.30845 -3.60867,-0.64021 -1.95315,-0.34639 -2.40117,-0.90772 -1.91032,-0.72233 -0.28812,-0.53667 -1.09311,-2.03661 -1.00177,-2.60663 -0.88903,-1.08472 -1.28041,-0.94485 -1.21671,-0.54588 -0.45345,-0.0717 -0.77708,-0.12334 -1.23081,0.21304 -1.05518,0.53098 -0.75078,1.23189 -0.51743,0.84919 0.42148,1.27985 0.26101,0.79307 1.59211,2.0098 3.00615,2.09164 0.43665,0.85486 0.84185,1.64794 -0.19921,1.44954 -1.45984,1.24979 -18.1168,-25.54367 z"
      data-name="Salinas" id="salinas" />
   <path class="neighborhood"
      d="m 65.22797,184.37065 1.32568,0.45482 3.90682,1.47202 10.91924,4.04588 10.74008,3.97972 6.01744,2.19735 4.5004,1.39966 1.83578,0.6711 2.6462,1.05382 2.12525,1.069 1.89215,0.81231 0.89744,0.4624 0.95785,0.72477 0.95164,1.0663 0.0729,0.13066 0.32551,0.58436 0.28027,0.69958 0.11493,-0.0375 0.18593,-0.0791 -0.23526,-0.92236 -0.23608,-1.00014 -0.34368,-1.44303 -0.13986,-0.64996 -0.0981,-0.43856 -0.0919,-0.64589 -0.0569,-1.21671 -0.0821,-0.91776 -0.36592,-1.96507 -0.58924,-1.26089 -1.91222,-3.05329 -0.50386,-1.01967 -0.36348,-0.93672 -0.0615,-0.22145 -1.08444,-3.65447 -0.30411,-1.02509 -0.0236,-0.0885 -0.11,-0.54914 -0.0443,-0.44749 -0.0136,-0.38028 0.012,-0.56972 0.18676,-0.89065 0.43013,-1.74526 -0.24883,-0.15097 -1.59209,-0.55509 -1.28855,-0.35072 -5.990318,-1.78294 -0.942962,-0.27998 -0.0585,-0.16046 -0.0517,-1.14353 -0.25236,-0.0549 -21.2224,-6.52266 -7.19242,-2.31498 -0.0943,-0.13688 -2.49712,-0.91612 -1.15816,-0.36564 -3.65448,-1.00204 -1.07739,-0.32635 -0.32905,-0.0995 -0.69523,-0.21928 -0.36021,-0.12013 -0.13336,-0.0444 -1.71895,-0.62989 -1.35604,-0.57624 -0.53069,-0.2369 -0.51798,-0.20626 -0.29434,-0.11027 -1.46228,-0.54047 -1.38558,-0.512 -0.73805,-0.36157 -0.47867,0.43665 -0.35397,0.3567 -0.40168,0.40493 -1.10831,1.00964 -0.72178,0.67816 -0.51227,0.49003 -0.63263,0.57678 -0.86814,0.83726 -1.24788,1.17796 -0.50739,0.4529 -0.73996,0.66812 -0.68112,0.615 -0.61256,0.5543 -1.40591,1.26848 -1.20777,1.09501 -1.39316,1.33408 -1.40076,1.36361 -0.11333,0.1032 -0.0545,0.1168 4.59582,1.81194 3.43465,1.3544 0.32688,0.1228 15.88801,5.96214 1.60756,0.64644 1.76802,0.61798 z"
      data-name="Igapó" id="igapo" />
   <path class="neighborhood"
      d="m 11.19361,163.5296 0.35912,0.19921 1.01642,0.5635 7.28428,2.90613 2.87062,1.05761 8.23348,3.0945 0.24069,0.0905 0.0724,0.0271 6.33645,2.3868 0.0545,-0.1168 0.11333,-0.1032 1.40076,-1.36362 1.39316,-1.33408 1.20777,-1.09501 1.4059,-1.26848 0.61256,-0.55429 0.68113,-0.615 0.73995,-0.66812 0.50738,-0.45291 1.24788,-1.17796 0.86816,-0.83725 0.63262,-0.57679 0.51226,-0.49004 0.7218,-0.67815 1.1083,-1.00964 0.40168,-0.40493 0.35398,-0.35669 0.47867,-0.43666 0.73805,0.36158 1.38556,0.512 1.46228,0.54045 0.29436,0.11027 0.51796,0.20626 0.53071,0.2369 1.35603,0.57624 1.71894,0.62989 0.13336,0.0444 0.36022,0.12013 0.69522,0.21928 0.32906,0.0995 1.07738,0.32633 3.65448,1.00206 1.15818,0.36562 2.49712,0.91614 0.6879,-3.00262 0.18106,-0.8096 0.0459,-0.20708 0.0984,-0.43774 0.38136,-1.7016 0.0675,-0.25316 0.0199,-0.1084 0.15828,-0.74672 0.14718,-0.69442 0.0561,-0.27376 0.0965,-0.47134 0.25071,-1.11751 0.13093,-0.57868 0.28731,-1.47204 0.32904,-1.4574 0.0525,-0.24421 0.18892,-0.80824 0.4998,-2.05423 0.15451,-0.69443 0.2835,-1.53708 0.22388,-1.01425 0.32418,-1.46987 0.1136,-0.48516 0.40385,-1.8065 0.3342,-1.49535 0.1016,-0.48463 0.2182,-1.18634 0.20843,-0.92724 10e-4,-0.005 0.21493,-0.95624 0.35344,-1.5726 0.28704,-1.0343 0.55428,-1.76314 0.55456,-1.76313 0.0305,-0.0957 0.0929,-0.29138 0.0447,-0.16398 0.2659,-0.97522 0.92886,-2.91858 0.1184,-0.39519 0.24422,-0.51715 0.16425,-0.32444 0.6608,-1.18825 0.148,-0.29111 0.1328,-0.2461 0.0943,-0.15368 0.10186,-0.13742 2.29275,-2.28436 0.80093,-0.70769 0.12414,-0.14609 0.34424,-0.57244 0.0959,-0.3876 0.16562,-0.66866 -0.89987,-0.19949 -6.54976,-0.49357 -0.50685,-0.0609 -0.93564,-0.1244 -1.31619,-0.56945 -0.28893,-0.12493 -3.1639,-2.0369 -1.40509,-1.0446 -0.96788,-0.96897 -0.79444,-0.98851 -0.74103,-1.30317 -0.65945,-1.63819 -0.96897,-2.48193 -1.2563,-2.68524 -1.20965,-1.85177 -5.67999,-7.259622 -0.0428,-0.0547 -1.78833,-2.05127 -5.02813,-6.65221 -1.20967,-2.106282 -2.41933,-6.828654 -0.82587,-1.684 -0.43041,-0.65376 -1.80326,-2.13012 -0.88089,-0.766239 -1.56067,-1.211294 -1.04134,-0.808253 -1.56663,-1.215893 -1.72628,-1.34004 -0.42419,-0.329054 -0.85865,-0.797133 -0.47649,-0.442613 -0.99419,-1.09936 -1.0438,-1.433814 -0.88413,-1.736306 -0.88387,-3.00912 -0.3632,-2.474627 -0.0375,-0.1212 -8.14892,3.921173 -10.15897,4.943827 -1.28067,0.761373 -4.42126,3.613547 -4.33074,3.717893 -0.77165,0.815573 -0.61039,0.7638 -0.49249,0.853787 -0.38976,0.921 L 0.32423,77.764172 0.128,78.611732 0,79.880479 l 0.0772,1.31808 2.25427,18.457768 1.45361,12.623033 0.91016,7.88439 1.9179,16.64016 -0.0168,0.49789 0.29381,2.12527 1.1232,9.25721 3.36988,13.96793 -0.19,0.87764 z"
      data-name="Nossa Senhora da Apresentação" id="nossa_senhora_da_apresentacao" />
   <path class="neighborhood"
      d="m 231.04411,238.2386 0.14773,-0.1385 0.60334,-0.21765 0.52662,-0.30059 0.38002,-0.37376 0.33906,-0.4372 0.34287,-0.71934 1.51596,-4.17732 0.97223,-2.2876 0.0889,-0.1 1.07931,-3.11943 1.11913,-2.956 0.51281,-1.40833 0.61039,-1.6764 0.87792,-2.3093 -0.17076,-0.0848 -0.23852,-0.132 -1.7588,-0.97277 -0.46891,-0.24611 -1.3506,-0.74482 -0.45048,-0.26942 -0.84348,-0.46674 -0.54156,-0.35263 -0.38541,-0.19623 -0.42337,-0.24474 -1.12538,-0.63127 -1.61732,-0.99636 0.1092,-0.23147 -0.11573,-0.58166 -0.45888,-0.27348 -0.47216,-0.23906 -0.47432,-0.0343 -0.39763,0.1036 -1.82222,0.9828 -0.1328,0.0677 -2.09136,1.2048 -0.17266,0.0995 -1.44033,0.92506 -0.89877,0.75947 -0.29246,-0.14663 -0.0745,-0.0641 -0.35045,-0.22469 -5.36828,-3.55962 -7.22059,8.1546 -6.03967,4.06863 4.0643,5.0772 1.43761,1.46064 1.94935,1.19043 2.122,1.51702 1.16033,0.52014 0.75323,0.37133 0.27537,0.27971 0.821,1.16006 1.84797,1.37962 0.94839,0.66569 1.12971,0.63233 0.85188,-0.0312 1.40889,1.03946 0.21601,0.10813 0.35074,0.25776 0.6879,0.64752 0.52746,0.51932 1.61677,2.02009 1.38395,1.83848 1.22429,1.17036 0.2396,0.23012 0.0759,-0.41632 0.0247,-0.1168 0.038,-0.17644 0.0365,-0.14365 0.0344,-0.10467 0.0203,-0.0512 0.0271,-0.0596 0.0301,-0.0607 0.17347,-0.24314 0.29001,-0.4006 0.2022,-0.37566 0.1228,-0.25858 0.20356,-0.528 0.25614,-0.70552 1.42,-3.86508 z"
      data-name="Cidade Alta" id="cidade_alta" />
   <path class="neighborhood"
      d="m 168.53286,299.21684 0.28433,0.0995 0.17428,0.0675 1.12483,0.41957 0.48353,0.18431 0.9034,0.30927 0.74699,0.25857 0.95624,0.34964 0.81937,0.29951 0.18348,0.0751 1.65067,0.62936 1.58397,0.61148 1.00964,0.38216 0.92804,0.34531 1.72683,0.68819 1.74334,0.65348 0.39058,-1.05679 0.27754,-0.75161 0.18866,-0.51091 0.37213,-1.0072 0.10867,-0.29436 0.42282,-1.14408 0.45942,-1.24353 0.50414,-1.36499 1.46688,-4.04585 0.60606,-1.68075 0.56078,-1.53519 0.08,-0.1176 0.0951,-0.0995 0.26372,-0.19786 0.16643,-0.10946 0.18349,-0.12854 1.11777,-0.83156 0.22308,-0.14961 0.93754,-0.6486 1.37717,-0.97008 0.56919,-0.41903 1.95693,-1.56689 0.16127,-0.14664 0.016,-0.11053 -9.42851,-3.58103 -0.25396,-0.0785 -1.46797,-0.46863 -7.76458,-2.8858 -4.97176,-1.84067 -0.15476,0.11574 -3.7984,2.8454 -3.38696,2.26836 -0.14337,0.0957 -0.0535,0.0412 -0.0561,0.0425 -0.71392,0.54074 -1.02184,0.76136 -0.69984,0.53314 -0.32552,0.27294 -0.26317,0.22036 -0.64699,0.59358 -1.07224,0.99907 -1.16523,1.21183 -0.58681,0.6142 -0.0987,0.10786 -0.51254,0.60254 -0.51363,0.63477 -1.34897,1.75419 -0.30791,0.46186 -1.74471,2.61692 -0.13444,0.20166 0.1244,0.0709 1.11452,0.52692 0.58763,0.22063 1.01208,0.38244 0.63885,0.22633 0.71474,0.27456 1.87508,0.69088 1.63548,0.61473 1.72844,0.6703 2.13446,0.78413 1.45767,0.58111 0.16019,0.0107 0.15802,0.0399 0.71907,0.25912 0.0244,-0.0171 0.0697,-0.0217 0.0724,0.009 0.0609,0.0401 0.0377,0.0623 0.008,0.0423 0.23039,0.0929 0.82261,0.30466 0.19813,0.0743 0.22659,0.1366 z"
      data-name="Dix-Sept Rosado" id="dix-sept_rosado" />
   <path class="neighborhood"
      d="m 178.7558,316.00986 0.51526,-1.43057 0.48516,-1.33055 0.14176,-0.39978 0.40737,-1.15112 0.15124,-0.42771 0.0892,-0.25451 0.84079,-2.23474 0.3163,-0.83048 0.41958,-1.16306 0.72938,-2.19762 -1.74336,-0.65347 -1.72681,-0.68819 -0.92805,-0.3453 -1.00964,-0.38218 -1.58398,-0.61146 -1.65065,-0.62938 -0.18349,-0.0751 -0.81938,-0.29951 -0.95624,-0.34965 -0.74698,-0.25856 -0.90339,-0.30927 -0.48355,-0.18431 -1.12482,-0.41958 -0.17428,-0.0675 -0.28434,-0.0995 -0.22658,-0.1366 -0.19814,-0.0743 -0.82261,-0.30466 -0.23039,-0.0929 -0.008,-0.0423 -0.0377,-0.0623 -0.0609,-0.0401 -0.0724,-0.009 -0.0697,0.0217 -0.0244,0.0171 -0.71906,-0.25912 -0.15802,-0.0399 -0.1602,-0.0107 -1.45766,-0.58111 -2.13446,-0.78413 -1.72845,-0.6703 -1.63547,-0.61473 -1.87508,-0.69088 -0.71474,-0.27456 -0.63886,-0.22633 -1.01208,-0.38244 -0.58761,-0.22064 -1.11453,-0.52691 -0.1244,-0.0709 -0.7741,1.16169 -0.8527,1.27987 -2.48194,3.74148 -3.06929,4.88013 -6.52781,10.03403 -0.0661,0.1136 5.50382,2.15372 11.2388,4.13666 2.4852,1.03592 0.23824,0.0979 6.81648,2.41986 0.19649,0.0708 4.53239,1.65607 0.26698,0.0929 4.12014,1.44386 0.22658,0.0661 0.72558,-1.94473 1.23325,-3.64934 0.0517,-0.11786 0.0789,-0.25615 1.04704,-2.73754 0.87898,-2.37732 -0.0596,-0.14419 0.0695,-0.0225 0.15639,-0.26482 z"
      data-name="Nossa Senhora de Nazaré" id="nossa_senhora_de_nazare" />
   <path class="neighborhood"
      d="m 237.6451,333.4309 -0.0615,-0.33691 2.6714,-6.86661 0.0691,-0.17184 0.45669,-1.18663 0.2632,-0.66704 0.0596,-0.1052 0.0751,-0.16561 0.0396,-0.18945 0.80146,-2.254 0.59495,-1.60323 0.55727,-1.47637 0.53314,-1.39424 0.41063,-1.07876 0.3014,-0.79604 0.15748,-0.42772 0.65185,-1.76883 0.2518,-0.70281 0.27647,-0.77192 0.0893,-0.25993 0.0707,-0.1995 0.0707,-0.19949 0.0916,-0.26128 0.29245,-0.83292 0.29896,-0.85188 0.0631,-0.17971 0.36373,-1.0362 0.13525,-0.39084 0.16155,-0.46646 0.1024,-0.31495 0.68004,-1.99976 0.25615,-0.64129 -0.1778,-0.0599 -2.3982,-0.90473 -2.98202,-1.10803 -1.83306,-0.69252 -0.20328,-0.0672 -7.26396,-2.63752 -0.26264,-0.0863 -6.69451,-2.43316 -1.01289,-0.41333 -0.1176,-0.0457 -0.1252,-0.0485 -4.88692,-1.77397 -4.86008,-1.77995 -0.2209,-0.0797 -8.31018,-2.94272 -11.72452,-4.30172 -0.016,0.11053 -0.16128,0.14664 -1.95692,1.56691 -0.5692,0.41903 -1.37716,0.97006 -0.93755,0.6486 -0.22307,0.14963 -1.11778,0.83156 -0.1835,0.12853 -0.16642,0.10947 -0.26372,0.19785 -0.0951,0.0995 -0.08,0.1176 -0.56079,1.53519 -0.60605,1.68074 -1.46689,4.04586 -0.50414,1.36498 -0.45941,1.24354 -0.42283,1.14408 -0.10866,0.29434 -0.37215,1.0072 -0.18864,0.51092 -0.27756,0.7516 -0.39056,1.0568 -0.72939,2.19762 -0.41957,1.16305 -0.31631,0.83048 -0.84077,2.23475 -0.0892,0.2545 -0.15124,0.42771 -0.40739,1.15112 -0.14176,0.39979 -0.48516,1.33054 -0.51525,1.43058 -0.1564,0.26481 -0.0695,0.0225 0.0596,0.1442 -0.87898,2.37732 -1.04704,2.73753 -0.0789,0.25615 -0.0517,0.11787 -1.23325,3.64933 -0.72559,1.94473 -0.0792,0.13471 0.75757,0.27157 -0.56729,0.90828 -0.27537,0.44099 -1.48451,2.40225 -1.05137,1.70188 -0.0236,0.26454 -0.36186,0.14745 -1.70133,3.26119 2.77168,1.12238 3.66613,1.15466 37.33052,16.12436 0.3277,0.15368 0.22849,-0.13904 0.0359,0.95272 0.26914,1.61242 0.24963,1.24898 1.93389,6.96038 2.83051,9.5578 0.67001,1.45984 0.28731,-0.34856 0.48355,-0.25857 0.25072,-0.14799 0.11626,-0.0685 0.43638,-0.25723 0.95706,-0.61445 0.1024,-0.0645 2.43884,-1.55363 1.36444,-0.85297 0.27159,-0.16535 1.87913,-1.14976 0.79606,-0.45209 1.00341,-0.63642 2.12713,-1.26658 0.26374,-0.12854 0.11466,-0.0648 0.72938,-0.30548 5.44824,10.56203 0.62557,0.90799 0.46185,0.38298 0.23608,0.1957 1.48884,0.53233 8.74738,0.90257 4.0109,0.43178 0.50224,0.0541 1.30264,0.0239 0.76624,-0.15451 0.93212,-0.49437 0.77735,0.35344 1.71624,-3.63199 0.1296,-1.53031 0.24258,-2.86601 -0.2022,-1.22592 -0.45128,-1.28936 -1.11968,-1.65824 -2.19844,-3.25551 -1.40048,-1.97833 -0.84998,-1.20019 -0.3426,0.18459 -1.00041,-1.01832 -8.84226,-6.94223 -0.27944,-0.21196 -5.26718,-3.99409 -0.0141,-0.28133 1.0362,-2.78823 0.26535,-0.73399 0.5196,-1.4284 0.53883,-1.42378 0.54262,-1.46743 0.35399,-0.9538 0.0417,-0.11227 0.1136,-0.43638 0.007,-0.0653 -0.20925,-0.25289 -0.1284,-0.0612 -6.69966,-2.48493 -0.0819,-0.0249 0.51064,-1.27662 1.01234,-2.7012 0.67978,-2.0865 z"
      data-name="Lagoa Nova" id="lagoa_nova" />
   <path class="neighborhood"
      d="m 288.38169,243.79282 -1.39018,1.08499 -1.93796,1.58615 -0.42283,-0.48274 -0.33068,-0.32173 -0.30545,-0.28215 -0.76706,-0.65077 -1.14489,-0.94052 -0.74157,-0.60388 -1.44656,-1.38856 -0.21087,-0.23879 -0.1128,-0.14473 -1.51947,-2.16619 -0.0472,-0.0713 -0.1288,-0.19977 -0.0301,-0.0455 -2.12932,-3.21673 -1.64305,-2.48575 -0.53559,-0.84213 -0.16045,-0.25234 -0.19652,-0.293 -0.14175,-0.19516 -0.13067,-0.14636 -0.25098,-0.24773 -0.24178,-0.18647 -0.23065,-0.17698 -0.40168,-0.25154 -0.50172,-0.2621 -0.13253,-0.0615 -0.14555,-0.0705 -0.69063,-0.24963 -0.4781,-0.24773 -0.33772,-0.11707 -0.92155,-0.38 -0.19652,-0.0867 -0.18892,-0.12306 -0.28729,-0.25315 -0.45699,-0.47433 -1.12375,-1.01099 -0.12493,-0.11227 -0.29219,-0.26292 -1.19638,1.4051 0.6337,0.27374 0.61716,0.27431 -0.66622,1.58939 -0.91287,2.14585 -0.97088,0.69523 0.28704,-0.17238 2.13744,-1.02428 0.23825,0.35859 0.85514,1.28639 0.20572,0.43908 0.0559,0.1192 -0.16614,1.67693 0.20381,0.29381 -0.75321,0.49439 -0.70202,-0.69171 -0.50061,-0.20869 -0.46159,0.61905 -0.1442,0.21467 -0.94349,1.36552 0.53341,1.46824 0.0901,0.0987 2.07348,2.26945 -0.3491,2.49224 1.86803,0.88793 0.22577,0.10734 0.97712,-0.41659 0.94215,1.21969 0.96193,1.24572 0.56458,0.73072 0.3773,0.77818 1.6932,2.08676 1.14164,0.82694 1.17172,0.84892 0.75458,0.5952 1.89486,1.9488 0.44967,0.26238 1.57747,0.92046 5.15226,4.17299 0.0685,0.0556 1.51214,1.01831 0.87954,1.87318 0.67625,1.16168 0.27457,0.17727 0.20898,-0.0832 0.90772,0.73372 0.86164,0.69604 0.0299,0.0241 2.13284,0.77086 0.79254,0.94322 0.10893,0.5383 0.22823,0.032 0.21628,-0.0197 4.99696,-0.21954 0.9313,-0.0428 1.30914,-6.62023 0.41686,-0.74456 -1.07225,-1.06223 -1.67585,-0.43854 -1.04271,-0.90475 -1.16305,-1.85745 -0.99364,-6.36682 -0.39544,-1.85176 -0.7676,-3.88812 -2.16348,-0.80988 -2.32663,0.46267 -0.69767,0.13879 -1.3029,-0.1621 -0.39084,-0.38053 z"
      data-name="Mãe Luiza" id="mae_luiza" />
   <path class="neighborhood"
      d="m 251.80088,305.20662 -1.56853,-0.62665 -1.80135,-0.74645 -0.25614,0.64129 -0.68004,1.99976 -0.1024,0.31495 -0.16155,0.46646 -0.13525,0.39084 -0.36374,1.0362 -0.0631,0.17971 -0.29896,0.85188 -0.29246,0.83292 -0.0916,0.26128 -0.0707,0.19949 -0.0707,0.1995 -0.0893,0.25993 -0.27647,0.77192 -0.2518,0.70281 -0.65185,1.76883 -0.15748,0.42772 -0.3014,0.79604 -0.41063,1.07876 -0.53315,1.39424 -0.55726,1.47637 -0.59495,1.60323 -0.80147,2.254 -0.0396,0.18945 -0.0751,0.16561 -0.0596,0.1052 -0.2632,0.66704 -0.4567,1.18663 -0.0691,0.17184 -2.6714,6.86661 0.0615,0.33691 -0.67977,2.08649 -1.01235,2.70122 -0.51064,1.27661 0.0819,0.0249 6.69965,2.48492 0.12854,0.0612 0.20925,0.2529 -0.007,0.0653 -0.1136,0.43637 -0.0417,0.11227 -0.35399,0.9538 -0.54262,1.46743 -0.53883,1.42378 -0.51959,1.4284 -0.26536,0.73399 -1.0362,2.78823 0.0141,0.28133 5.26718,3.99409 0.27944,0.21196 8.84226,6.94223 1.00041,1.01832 0.3426,-0.18459 -0.0325,-1.66853 3.00098,-5.32303 1.63467,-7.65669 3.04164,-6.51236 2.70257,0.58897 1.25195,0.27267 2.8381,-1.08769 -4.69908,-6.24891 -3.70408,-3.539 -2.62802,-3.68376 -0.13444,-1.74579 0.7768,-2.36269 -1.12672,-1.53653 -3.13679,-4.85059 -0.94973,-1.92333 0.49085,-1.33895 0.39682,-0.1328 0.35885,-0.67436 1.07198,-0.15258 0.65132,-2.89286 -3.92118,-5.8651 -0.73399,-0.34584 -0.2377,-0.10574 z"
      data-name="Nova Descoberta" id="nova_descoberta" />
   <path class="neighborhood"
      d="m 263.00417,233.14434 -0.31629,-0.15801 -0.44804,-0.23771 -1.81464,-0.7638 -2.02524,-0.87764 -0.0601,-0.0299 -1.14814,3.11889 -0.24665,-0.0949 -0.32796,-0.12707 -0.76299,-0.29544 -1.42921,-0.55347 -0.16425,-0.0637 -0.28568,-0.11053 -0.35236,-0.13662 -1.23839,-0.47946 -1.27716,-0.49494 -0.24556,-0.106 -0.33664,-0.1196 -0.37621,-0.14553 -2.00977,-0.77683 -0.27999,-0.0312 -0.33692,-0.1076 -0.2114,-0.0832 -2.89611,-1.14245 -0.32009,-0.12813 -0.33528,-0.12654 -3.89625,-1.42298 -0.28487,-0.11947 -0.32336,-0.23256 -1.90109,-0.79496 -0.20139,-0.0843 -0.11187,-0.0515 -1.0793,3.11942 -0.0889,0.1 -0.97222,2.2876 -1.51596,4.17732 -0.34287,0.71935 -0.33907,0.4372 -0.38001,0.37376 -0.52663,0.3006 -0.60334,0.21765 -0.14772,0.1385 -1.42,3.86508 -0.25614,0.70552 -0.20354,0.528 -0.1228,0.25857 -0.2022,0.37567 -0.29002,0.4006 -0.17346,0.24313 -0.0301,0.0607 -0.0271,0.0596 -0.0203,0.0512 -0.0344,0.10466 -0.0365,0.14364 -0.038,0.17646 -0.0247,0.1168 -0.0352,0.17021 -0.0873,0.47351 -0.0187,0.0851 -0.0373,0.15774 -0.0396,0.17645 -0.0625,0.33123 -0.11026,0.53612 -0.18919,1.02101 -0.12307,0.56892 -0.27402,1.23216 -0.43015,1.67479 -0.0653,0.277 -0.0631,0.29896 -0.34531,1.6138 1.53519,0.58924 1.11671,0.4288 1.18636,0.45534 0.53069,0.20382 0.31333,0.1204 1.09664,0.42092 0.63695,0.24448 0.88551,0.34017 0.25152,0.0965 0.28866,0.10947 0.19704,0.0693 1.16983,0.43286 1.58371,0.58329 0.3182,0.1252 1.89784,0.69063 0.69252,0.26046 0.28134,0.10574 0.35507,0.1328 0.20653,0.0737 0.73454,0.26209 0.71365,0.25451 0.0865,0.0323 0.0848,0.0317 1.17008,0.43773 0.28542,0.1068 0.10866,0.0344 -0.9931,2.70312 -0.92074,2.6554 -0.0705,0.22254 -0.13849,-0.0493 -4.82539,-1.94013 -0.36509,0.77871 -3.00886,8.18144 -0.32065,0.72882 -2.31525,6.30475 0.0187,0.31279 -0.26725,0.18268 0.0241,0.13362 -2.79825,7.71823 -2.43885,6.56955 -0.0488,0.1184 -0.0575,0.17645 0.1176,0.0457 1.01289,0.41334 6.6945,2.43316 0.26264,0.0863 7.26396,2.63752 0.20328,0.0672 1.83306,0.69252 2.98203,1.10803 2.39819,0.90473 0.1778,0.0599 1.80134,0.74645 1.56854,0.62666 0.2377,0.10573 0.73399,0.34585 1.98973,-1.85909 1.39641,0.71149 1.62843,-0.1176 1.31592,-0.91721 -0.31144,-3.78377 2.71776,-2.81884 -0.69795,-3.4718 -0.032,-0.25504 -0.0805,-0.64212 0.26209,-0.35912 2.47111,-5.58728 -2.47436,-1.01832 0.29272,-0.89363 -4.0052,-1.60457 -1.44412,3.71113 -3.84149,-1.61841 1.12836,-2.88824 0.22063,-1.4292 -0.13959,-1.29614 -0.30249,-1.13405 0.0737,-0.57785 0.4792,0.20652 7.34554,3.16606 2.19546,-1.04757 0.0843,-0.0401 0.46539,-1.73576 -1.51487,-2.4871 -1.00149,-0.7058 -0.0453,-0.0811 -1.50971,-2.69742 -0.46809,-4.20442 -0.0671,-2.36866 -0.51172,-2.08296 -1.62844,-2.61557 -0.1136,-3.17716 -0.93348,-1.49807 -0.93048,-0.85622 0.11627,-1.45822 -0.8142,-0.57868 -0.23256,-1.20342 0.69793,-1.22674 0.81421,-0.92561 0.69794,-0.11573 0.93049,-1.43516 1.39587,0.0927 2.5516,0.97875 7.44909,13.23992 0.33988,0.50196 0.36537,0.0107 0.50875,-0.46268 -0.0168,-1.41728 -0.24448,-1.26631 -0.94648,-2.18624 -1.41673,-5.23548 0.75782,-2.79148 -1.42677,-3.57587 -0.90555,0.0488 -1.4387,-0.66189 -0.72504,-2.25968 -0.012,-0.39816 1.14245,-0.36619 0.15937,-0.45453 -0.22957,-0.631 -0.49547,0.0192 -0.25288,-0.79172 -0.43394,-0.18701 -1.2186,-2.99503 -0.23528,-0.63723 -0.13524,-1.44304 0.38976,-1.06221 0.0255,-0.0695 0.51526,-0.76624 0.94593,-0.56838 -0.40493,-0.16046 z"
      data-name="Tirol" id="tirol" />
   <path class="neighborhood"
      d="m 248.97443,209.61941 -1.2392,-0.81828 -0.25125,-0.14012 -0.12254,-0.0729 -0.56377,-0.31686 -0.30275,-0.1024 -1.64605,-0.71854 -0.0285,0.0641 -0.90935,1.32975 -0.56404,1.15897 -0.0317,0.0648 -0.54995,1.26307 -1.17579,2.75542 -0.47324,1.40508 -0.95596,2.52559 -0.87792,2.30929 -0.61038,1.6764 -0.51283,1.40834 -1.11912,2.956 0.11187,0.0515 0.20138,0.0843 1.9011,0.79497 0.32334,0.23255 0.28488,0.1196 3.89624,1.42299 0.33528,0.12653 0.32011,0.12813 2.89609,1.14246 0.21142,0.0832 0.3369,0.1076 0.28,0.0312 2.00978,0.77681 0.37621,0.14555 0.33664,0.11946 0.24556,0.106 1.27716,0.49494 1.23839,0.47946 0.35236,0.13662 0.28568,0.11053 0.16425,0.0637 1.42921,0.55347 0.76299,0.29544 0.32796,0.12707 0.24665,0.0949 1.14813,-3.11888 0.0601,0.0297 2.02524,0.87764 1.81462,0.7638 0.44804,0.2377 0.31631,0.15802 0.40493,0.16046 0.97088,-0.69523 0.91288,-2.14585 0.66623,-1.58939 -0.61717,-0.27431 -0.6337,-0.27374 1.19639,-1.4051 -1.55308,-1.44736 -0.87764,-0.78088 -0.34016,-0.2472 -0.80608,-0.52554 -1.07415,-0.81855 -0.15396,0.11947 -0.16234,-0.53939 -1.05843,-1.3788 0.44181,-0.1296 4.83703,-2.43208 -5.33007,-4.98287 -1.38882,-1.55876 -0.23934,-0.25938 -0.19216,-0.16751 -0.23689,-0.0989 -0.22524,0.012 -3.03921,2.09652 -0.0848,0.0588 -0.14961,-0.16696 -5.297,-4.05455 z"
      data-name="Petrópolis" id="petropolis" />
   <path class="neighborhood"
      d="m 271.18535,219.39865 -0.51552,0.28081 -0.16426,0.29598 -0.82397,0.39761 -0.43285,0.34016 -0.0767,0.005 -0.18431,-0.007 -0.11653,-0.0377 -0.29572,-0.0289 -0.15287,-0.0517 -0.12546,-0.0545 -0.32904,-0.17644 -0.13444,-0.068 -0.24068,-0.11466 -0.16806,-0.0921 -0.98578,-0.4624 -0.63831,-0.35561 -0.64319,-0.52827 -4.83702,2.43208 -0.44182,0.1296 1.05843,1.3788 0.16235,0.53939 0.15396,-0.1196 1.07414,0.81855 0.80608,0.52554 0.34016,0.2472 0.87764,0.78088 1.55308,1.44736 0.29218,0.26292 0.12493,0.11214 1.12375,1.011 0.45697,0.47432 0.28731,0.25316 0.18892,0.12306 0.1965,0.0867 0.92155,0.38 0.33772,0.11707 0.47812,0.24773 0.69061,0.24963 0.14555,0.0705 0.13253,0.0615 0.50171,0.2621 0.40168,0.25152 0.23067,0.177 0.24176,0.18647 0.251,0.24773 0.13066,0.14636 0.14175,0.19516 0.19651,0.293 0.16046,0.25234 0.53558,0.84213 1.64306,2.48573 2.12932,3.21675 0.0301,0.0455 0.1288,0.19976 0.0472,0.0713 1.51946,2.16617 0.1128,0.14475 0.21088,0.23877 1.44656,1.38856 0.74158,0.60388 1.14489,0.94052 0.76704,0.65079 0.30547,0.28215 0.33068,0.32173 0.42281,0.48273 1.93796,-1.58614 1.3902,-1.08499 -1.72628,-1.67939 -0.74428,-1.62002 -0.41877,-1.34248 1.88132,-1.59266 0.11653,-0.27944 -0.41279,0.1108 -1.97645,1.58426 -0.63235,-0.28595 -1.25601,0.23147 -0.96084,-0.61256 -1.62275,-2.18543 -1.72626,-2.87875 -0.92454,-1.79918 0.18079,-0.85812 0.15937,-0.22415 2.29575,-1.85773 0.0325,-0.19787 -0.22144,0.009 -1.94853,1.58424 -1.21915,-1.43326 -0.74509,-1.28178 -0.81423,-1.24977 -0.0463,-1.06465 -0.17863,-0.8481 -0.0309,-0.14717 -0.3586,-1.90192 -0.14528,-0.77003 0.1984,-0.56106 0.3212,-0.41198 2.02768,1.67775 0.25396,0.14257 0.0935,-0.0691 -0.10546,-0.30547 -2.01331,-1.9114 -1.1392,-1.08173 -0.13877,-0.83022 -0.32607,-0.43312 -0.48516,0.19787 -0.1024,0.0813 -1.98701,1.54902 -0.0545,0.0363 -0.0527,0.0352 -0.0851,0.0396 -0.15829,0.0399 z"
      data-name="Areia Preta" id="areia_preta" />
   <path class="neighborhood"
      d="m 130.25695,335.91501 -0.0632,-0.1667 -2.92456,-1.63628 -0.32172,0.86435 -0.46213,2.17187 -0.37595,3.36176 -0.14933,1.35006 -0.29111,2.80367 -0.63804,6.01555 -0.19785,1.726 -0.11054,1.03294 -0.93564,8.41724 -0.21548,2.12038 -0.1184,0.85541 -0.0217,0.31089 -0.0496,0.63018 0.001,0.24962 0.001,0.21087 0.08,0.89743 0.47189,1.1457 0.50251,1.19638 1.13567,2.47002 0.23689,0.51526 0.79091,1.55062 0.83752,0.8332 0.86084,0.99527 0.34884,0.80988 0.15124,1.02453 0.9893,2.2719 0.0984,-0.0551 0.13986,-0.0139 0.15801,0.0388 0.1244,0.0683 2.48032,2.26836 1.17931,0.93727 1.22918,1.01804 1.15328,1.02589 1.22675,1.01912 2.83403,2.06644 1.95205,1.23216 0.91857,0.75892 0.11254,0.1176 0.0924,0.15205 0.0249,0.0981 -0.72287,2.05613 2.1136,1.31049 -1.99298,3.23546 0.41849,0.21926 4.13937,1.37474 8.31642,8.3549 2.48005,2.32799 3.10561,1.79621 10.21887,3.56747 -15.48821,-45.98981 2.31144,-4.24102 0.10213,-0.50522 0.47052,-1.04243 1.61299,-2.90396 0.41253,-0.74483 1.17496,-2.1209 0.776,-1.37392 0.15097,-0.23527 0.10894,-0.16263 0.0519,-0.0588 0.0609,-0.0423 0.19624,-0.0816 -2.19356,-0.95815 -0.14744,-0.0635 -1.65688,-0.74834 -1.6363,-0.68004 -0.35588,-0.15179 -0.99636,-0.48084 -1.91736,-0.96383 -0.33636,-0.19162 -0.30898,-0.21711 -0.4326,-0.33068 -0.51606,-0.48461 -0.59982,-0.48274 -1.06872,-0.75593 -0.51959,-0.34152 -1.12509,-0.78305 -1.1468,-0.71771 -0.27456,0.57488 -0.32172,0.54425 -0.20167,0.29652 -0.17808,0.264 -0.13173,0.16452 -0.0937,0.0787 -0.0699,0.0255 -0.0735,8e-4 -0.0745,-0.0133 -0.11734,-0.0569 -0.0672,-0.0507 -0.36266,-0.33718 -0.35859,-0.30736 -0.66649,-0.57136 -1.0503,-0.88224 -0.47649,-0.38136 -0.58491,-0.46836 -1.06032,-0.91559 -1.11996,-0.99283 -0.1304,-0.0921 -1.24625,-0.99907 -1.07415,-0.9088 -0.60442,-0.49438 -0.26319,-0.22687 -0.15395,-0.14013 -0.0617,-0.0541 -0.23093,-0.1973 -0.5868,-0.45374 -0.17456,-0.14989 -0.34531,-0.26941 -0.67788,-0.58599 -0.93672,-0.77193 -0.1,-0.0845 -0.37323,-0.34396 -0.2472,-0.19136 -0.26561,-0.18918 -0.28352,-0.14934 -1.13973,-0.528 -0.47432,-0.2602 -0.4307,-0.23878 -0.19813,-0.11387 -0.48353,-0.31631 -0.55076,-0.36184 z"
      data-name="Cidade Nova" id="cidade_nova" />
   <path class="neighborhood"
      d="m 147.30232,349.01209 0.0699,-0.0255 0.0937,-0.0787 0.13174,-0.16452 0.17808,-0.264 0.20165,-0.29652 0.32173,-0.54426 0.27456,-0.57488 1.1468,0.71772 1.1251,0.78305 0.51958,0.34151 1.06872,0.75594 0.59983,0.48274 0.51605,0.48461 0.4326,0.33068 0.30899,0.21711 0.33636,0.19162 1.91736,0.96383 0.99636,0.48083 0.35588,0.15178 1.63628,0.68006 1.65688,0.74834 0.14745,0.0635 2.19356,0.95813 0.0691,-0.0577 0.0627,-0.0677 0.0537,-0.0813 0.29815,-0.65376 0.40249,-0.85106 0.62611,-1.57151 0.0981,-0.1732 -5.13247,-3.78485 1.10504,-1.46092 0.11627,-0.20979 0.0363,-0.26047 -0.11627,-0.2098 -1.01668,-0.73072 2.32717,-3.27746 3.33683,2.35781 3.81683,-5.02407 2.15913,0.036 0.20897,-0.34801 0.57596,-0.86707 -2.77169,-1.1224 1.70135,-3.26118 0.36185,-0.14746 0.0236,-0.26453 1.05136,-1.70187 1.48452,-2.40226 0.27537,-0.44099 0.5673,-0.90827 -0.75758,-0.27158 0.0792,-0.13471 -0.22658,-0.0661 -4.12014,-1.44384 -0.26697,-0.0929 -4.5324,-1.65608 -0.19649,-0.0708 -6.81647,-2.41986 -0.23825,-0.0979 -2.48519,-1.03592 -11.23881,-4.13666 -5.50382,-2.15371 -0.0695,0.0615 -2.57031,3.87754 -1.85719,2.82345 -1.27254,1.93499 -1.48884,2.19869 -1.7645,2.75624 -0.25938,0.53016 -0.7676,1.66639 -0.48354,1.12536 -0.73778,1.87319 -0.40874,0.91396 2.92456,1.63628 0.0632,0.16669 0.55076,0.36184 0.48354,0.31631 0.19813,0.11386 0.43069,0.23879 0.47432,0.26021 1.13974,0.52799 0.2835,0.14933 0.26563,0.1892 0.2472,0.19136 0.37321,0.34395 0.1,0.0847 0.93672,0.77193 0.67788,0.58599 0.34531,0.26941 0.17455,0.14989 0.58681,0.45374 0.23093,0.1973 0.0619,0.0541 0.15395,0.14013 0.26318,0.22687 0.60443,0.49438 1.07415,0.9088 1.24625,0.99907 0.1304,0.0923 1.11996,0.99282 1.06032,0.91559 0.58491,0.46836 0.47649,0.38136 1.05028,0.88224 0.66651,0.57136 0.35858,0.30736 0.36267,0.33719 0.0672,0.0507 0.11733,0.0569 0.0745,0.0133 0.0735,-8e-4 z"
      data-name="Cidade da Esperança" id="cidade_da_esperanca" />
   <path class="neighborhood"
      d="m 136.30934,318.28961 2.5703,-3.87755 0.0695,-0.0615 -1.57773,-0.61824 -8.44788,-3.18991 -4.0334,-1.56284 -7.87408,-2.96737 -1.34816,-0.52828 -0.39763,0.0787 -2.76301,-1.04594 -1.57856,-0.6039 -3.68727,-1.04812 -12.32541,-10.96261 -6.08764,-5.58079 -7.51956,4.48198 -5.23439,1.5688 -5.40893,1.45333 -4.67549,1.14677 -10.47719,5.18696 -4.63891,3.7686 3.93231,5.26338 5.68107,11.79119 0.17373,0.48788 0.67164,1.02482 0.16452,0.27185 0.58655,1.07089 0.48109,1.19991 0.0892,0.27864 0.0877,0.34883 0.14475,0.28866 0.28107,0.57516 1.90733,4.04612 0.71583,1.73415 3.28802,7.18427 0.46864,1.1503 0.79551,1.51894 2.05668,4.51693 1.59727,3.17853 3.92334,8.20122 0.0501,0.10493 0.72206,1.50916 0.0995,0.19433 0.12147,0.16832 0.15124,0.14772 3.13706,6.3847 0.44262,0.90041 0.87656,-0.42907 1.63438,-0.87465 2.14151,-1.07712 3.84963,-1.81545 1.57205,-0.81287 4.94519,-2.52449 5.40188,-2.67819 0.87737,-3.54577 19.62868,10.26468 0.21548,-2.12039 0.93564,-8.41724 0.11053,-1.03295 0.19787,-1.726 0.63804,-6.01553 0.29109,-2.80368 0.14935,-1.35007 0.37593,-3.36174 0.46213,-2.17188 0.32174,-0.86435 0.40873,-0.91396 0.73777,-1.87317 0.48355,-1.12538 0.7676,-1.66637 0.25937,-0.53016 1.76451,-2.75624 1.48884,-2.19871 1.27253,-1.93497 1.85719,-2.82345 z"
      data-name="Felipe Camarão" id="felipe_camarao" />
</svg>