<?xml version="1.0" encoding="UTF-8" standalone="no"?>
<svg width="1000.0001" height="764.76056" viewBox="0 0 264.58335 202.3429" version="1.1" id="svg2" xml:space="preserve"
   xmlns="http://www.w3.org/2000/svg" xmlns:svg="http://www.w3.org/2000/svg">
   <defs id="defs2" />
   <path class="neighborhood"
      d="m 125.39893,0 -1.44459,3.6887669 -5.07554,0.9713915 -3.12343,5.8798446 1.36339,2.562765 -1.98494,2.840738 0.32638,7.486842 -6.60759,3.818386 -3.25615,4.911566 -4.24161,1.194723 -0.0311,2.818887 -3.476348,4.076049 -4.516485,-1.513284 -9.507688,12.343741 -0.823005,5.759593 -15.601485,-3.020338 -0.471627,3.137477 -3.612248,1.324314 L 52.826386,52.723346 41.881938,65.741738 35.500789,63.689677 32.64911,68.248295 25.652648,65.110815 8.2645697,61.806246 0,67.687634 l 13.034031,12.059539 24.773401,23.998777 0.368575,6.68569 6.145337,10.16517 6.107829,2.54714 -2.058315,6.62011 6.243701,12.15323 5.900126,-0.76212 2.406613,31.82451 9.527995,9.72009 -3.0797,-11.60194 3.518538,-4.58675 1.347761,-9.7435 -1.752243,-2.53778 4.455536,-6.96523 12.059542,-1.83813 12.649853,-0.18585 2.80326,6.81219 7.88821,-0.24056 7.76792,5.62526 8.99233,13.08869 0.6169,12.7264 4.21972,7.06202 6.76066,4.34937 13.09338,4.71948 14.87839,-3.40451 16.29957,-3.70125 7.11827,0.67308 3.59662,3.27647 0.43105,4.40246 4.26659,1.7132 6.70442,-3.32799 1.65226,-2.57528 4.20728,-0.18737 -0.84646,-4.29312 1.76318,-2.53934 7.02923,-4.4993 8.69874,-1.0354 -0.64498,-4.66952 6.19529,-5.20205 5.05058,-1.51331 10.73049,-6.87621 -1.98337,-2.73454 2.67834,-2.00836 5.87829,2.88135 6.98865,-5.96419 -4.40403,-3.54818 0.2327,-4.98186 4.27127,-4.97406 -4.22286,-5.00528 -8.43949,-4.09478 -2.52841,-8.5207 -5.92357,-2.39411 -2.71424,-6.27806 -2.94382,-0.49037 -8.82524,2.44717 -8.70809,-12.21412 -2.84543,0.43884 -3.62004,-2.62212 3.98547,-5.925119 -2.76421,-5.996953 -5.47223,-4.547701 8.88457,-25.113869 0.54191,-7.446224 9.58109,-13.852369 -2.38787,-7.179196 -6.97614,-0.604356 -10.40724,-0.849572 -10.63211,-11.786225 0.46851,-7.672702 -10.40881,-7.6539344 -6.29369,1.5226813 -10.34007,-4.6960602 -7.37596,2.7204881 -5.87673,8.5644002 -4.0979,0.662171 -2.23327,3.207771 -8.97044,0.660599 -2.16923,-3.135905 -1.7866,-6.9995912 -8.64092,-1.0885278 0.2203,-6.0953501 z m 46.43588,27.453299 -1.06819,7.035525 1.03383,2.128607 1.31809,-0.188878 0.28437,-1.95058 4.00268,3.443584 2.00525,0.410702 -3.06879,3.431104 0.039,4.735076 -1.16501,1.22283 -4.30879,-0.08129 -2.44405,4.283755 0.67622,2.469081 3.22025,-0.120279 4.52894,-4.093242 2.00368,2.633025 -3.71844,4.079195 1.57578,2.664275 1.21031,0.101542 0.80899,-4.097931 4.87878,-5.220787 6.86214,1.138481 3.96831,3.662206 2.19888,4.012041 -0.71838,1.877172 -2.86105,1.111948 -1.58669,-0.59659 -3.50762,0.265639 14.95652,12.032982 -9.50147,9.018892 -3.53415,0.323273 0.29374,1.413341 -8.29113,6.281179 -2.79859,0.919864 -0.35606,2.448742 -3.7075,1.536738 -2.95476,-0.826151 -1.06508,0.901094 1.57421,0.979223 0.23905,3.496643 -1.50549,2.15829 -2.52998,0.44352 -0.25144,-9.474889 -0.97604,0.562227 -1.54922,2.166091 -0.036,1.408655 0.9542,0.837094 -0.0858,1.291518 -0.63717,0.634064 -1.607,0.29344 -1.65853,-0.743372 -0.23572,1.972432 -3.52168,0.13418 3.35613,3.14373 1.17752,5.54874 1.46019,1.00107 3.03754,-3.79651 1.54296,-0.19673 0.62627,1.57889 -0.26383,3.46701 -1.70537,0.75117 -6.57481,6.57949 1.43991,1.16659 0.32328,2.33477 -4.5977,4.65233 -1.27903,3.32956 -1.59607,-1.05102 0.078,1.696 -2.09425,0.56845 -0.12179,7.64929 -2.25355,0.32481 -2.97192,-11.42076 -2.42846,-0.33579 -3.00007,-4.38995 -10.70238,5.86108 1.36492,4.62111 0.0514,8.26458 0.83396,2.90478 -5.18643,1.99899 -3.08595,-3.74033 -3.10466,-0.13115 0.33576,-1.96931 -0.481,-0.37484 -1.2775,0.50913 -2.06614,-1.96463 -3.42325,1.36804 -1.32277,2.74863 -3.27646,0.32953 -1.02917,-1.80848 -0.0577,-1.61949 1.32746,-0.47162 5.72834,-3.75906 0.0547,-12.41246 0.80115,-1.44145 -0.4045,-2.35195 -8.44572,-0.0577 0.0734,-7.06516 3.04845,-0.0798 2.03178,-1.73036 4.29315,3.7325 2.90478,-2.06146 -0.57156,-2.93134 2.32223,-2.15829 1.67572,2.20202 5.78145,17.73165 7.78669,-3.97922 -9.99026,-6.34368 6.93556,-10.00119 2.07862,6.82624 8.27706,-4.39467 4.1604,0.61376 -0.2046,-1.16502 1.12912,-0.53255 -0.27169,-2.21139 -4.75073,0.17951 0.0611,-2.56119 2.30507,-0.36858 0.13599,-2.15203 -2.93913,-2.8142 -1.53517,-3.843377 -1.23842,-0.287393 -9.68417,5.34728 -1.8272,0.27652 -6.10939,-6.317101 -2.7299,-0.640289 -1.49611,1.327451 -2.62212,0.177999 -0.96045,0.691851 -0.49817,-0.03291 -0.39199,0.837059 -2.30196,-0.0828 -0.28256,0.783992 -1.73505,0.215472 -13.133981,5.945426 -1.411775,0.003 -0.698103,-1.78817 0.468517,-0.99636 2.023982,-0.91829 1.64605,0.26564 3.87302,-2.161396 6.10003,-5.675249 0.92142,0.582509 -0.2593,2.170772 0.9136,0.03025 5.40351,-2.820455 6.49828,-7.817917 2.18014,0.103053 0.74184,-0.591913 2.64865,-0.184343 0.25295,-0.501332 1.0979,0.557546 1.5461,-0.248418 0.61061,0.854255 1.19473,0.04231 1.11038,-0.877705 3.56222,0.07646 3.81685,-2.918859 2.77515,-0.25295 -0.11725,-0.22484 -1.53985,-1.051023 0.89019,-1.043231 1.60542,-0.08129 0.0532,-2.177026 0.70277,-0.43415 -1.68664,-1.989632 -0.24055,-1.149422 7.3525,-4.082298 -1.71005,-2.512783 4.83505,-3.032852 1.5367,1.677294 1.93499,-0.918294 3.82619,2.256657 0.0329,-0.841743 -2.93288,-2.020845 -0.20762,-2.13955 0.97137,-0.470085 -0.1218,-2.614293 2.75328,-2.747052 2.88136,-0.0091 -0.0843,-3.209317 -3.24056,1.485181 -5.19894,3.309281 -12.67794,10.794524 -3.973,4.761645 -4.50709,4.771033 -15.16266,-0.196736 -7.47276,-9.866892 0.92609,-1.617941 2.5003,0.324848 2.15361,2.278536 2.01615,-0.101539 V 67.44721 l -2.51903,-3.474804 0.55751,-2.837625 3.33582,-2.83451 3.58568,-0.693391 1.55236,-3.084378 -1.96463,-4.505547 1.09161,-3.315507 2.12707,0.173466 5.67525,2.700211 3.79496,-0.357635 3.1078,-3.154643 1.31026,-6.154703 -2.63302,-2.144236 1.21657,-7.886634 8.78305,5.152094 1.63041,-4.694521 1.46959,1.31186 h 8.46445 z"
      data-name="Zona Rural" id="zona_rural" />
   <path class="neighborhood"
      d="m 151.86368,100.3024 -1.18848,0.61218 0.14053,1.90374 -1.41959,0.0242 -0.178,-0.17015 -0.136,2.15204 -2.30508,0.36858 -0.061,2.56119 4.75073,-0.17951 0.27169,2.21139 -1.12912,0.53255 0.2046,1.16501 -4.16039,-0.61375 -8.27706,4.39466 -2.07863,-6.82623 -6.93555,10.00118 9.99025,6.34369 -7.78669,3.97922 -5.78145,-17.73165 -1.67572,-2.20203 -2.32224,2.1583 0.57157,2.93134 -2.90477,2.06146 -4.29316,-3.7325 -2.03178,1.73036 -3.04845,0.0798 -0.0734,7.06517 8.44572,0.0577 0.4045,2.35195 -0.80115,1.44145 -0.0547,12.41246 -5.72835,3.75907 -1.32745,0.47162 0.0577,1.61948 1.02918,1.80848 3.27645,-0.32953 1.32277,-2.74862 3.42325,-1.36804 2.06615,1.96463 1.27749,-0.50913 0.481,0.37483 -0.33575,1.96931 3.10465,0.13116 3.08596,3.74033 5.18642,-1.99899 -0.83395,-2.90479 -0.0514,-8.26457 -1.36493,-4.62112 10.70238,-5.86107 3.00006,4.38995 2.42846,0.33579 2.97193,11.42075 2.25355,-0.32481 0.12178,-7.64928 2.09425,-0.56845 -0.078,-1.696 1.59605,1.05102 1.27905,-3.32956 4.59768,-4.65233 -0.32327,-2.33478 -1.4399,-1.16659 6.5748,-6.57949 1.70537,-0.75117 0.26382,-3.467 -0.62626,-1.5789 -1.54296,0.19674 -3.03755,3.79651 -1.46017,-1.00107 -1.17753,-5.54875 -3.35613,-3.14373 -1.12754,0.0438 -0.62624,-1.61322 -1.51954,-0.0892 -1.44616,0.81678 z"
      data-name="Zona Sul" id="zona_sul" />
   <path class="neighborhood"
      d="m 146.74908,81.190198 -2.77515,0.252944 -3.81684,2.91886 -3.56224,-0.07645 -1.11038,0.877705 -1.19472,-0.04231 -0.61061,-0.854255 -1.54611,0.248409 -1.0979,-0.557546 -0.25295,0.501335 -2.64865,0.184349 -0.74183,0.59191 -2.18014,-0.103058 -6.49828,7.817916 -5.4035,2.820464 -0.91361,-0.03025 0.25929,-2.170771 -0.92141,-0.58251 -6.10003,5.675247 -3.87303,2.161403 -1.64604,-0.26564 -2.023989,0.9183 -0.468511,0.99635 0.698106,1.78817 1.411766,-0.003 13.133988,-5.945415 1.73505,-0.215477 0.28255,-0.783987 2.30197,0.0828 0.392,-0.83706 0.49815,0.03291 0.96046,-0.691849 2.62211,-0.178001 1.49612,-1.327457 2.72989,0.640289 6.10941,6.317107 1.82718,-0.27651 9.68418,-5.347299 1.23842,0.287404 1.53516,3.843377 3.11717,2.984408 1.4196,-0.0242 -0.14053,-1.90374 1.18847,-0.61219 2.6346,0.87456 1.4477,-0.81835 -1.80219,-2.737681 -0.12481,-2.50498 z"
      data-name="Zona Oeste" id="zona_oeste" />
   <path class="neighborhood"
      d="m 167.56822,55.584394 -2.88135,0.0091 -2.75328,2.747053 0.12179,2.614292 -0.97136,0.470088 0.20762,2.139548 2.93287,2.020845 -0.0329,0.841743 -3.82618,-2.256658 -1.93499,0.918295 -1.5367,-1.677295 -4.83505,3.032853 1.71005,2.51278 -7.35251,4.082298 0.24056,1.14943 1.68663,1.989624 -0.70276,0.434152 -0.0532,2.177024 -1.60542,0.08129 -0.89019,1.043231 1.53984,1.051023 0.11726,0.22484 7.26974,13.925748 0.12481,2.504977 1.13848,1.72882 0.66372,1.008865 -10e-4,10e-4 1.51954,0.0891 0.62624,1.61322 4.64921,-0.178 0.23573,-1.972422 1.65852,0.743372 1.607,-0.29344 0.63717,-0.634066 0.0858,-1.291526 -0.95419,-0.837086 0.036,-1.40866 1.54922,-2.166083 0.97605,-0.562229 z"
      data-name="Centro" id="centro" />
   <path class="neighborhood"
      d="m 176.88851,50.179319 -4.52894,4.093245 -3.22025,0.120277 -0.67622,-2.469082 -0.001,0.003 -0.97761,0.448207 1.33836,50.561914 2.52998,-0.44352 1.50548,-2.15829 -0.23905,-3.496658 -1.5742,-0.979217 1.06507,-0.901095 2.95476,0.826146 3.70751,-1.536729 0.35606,-2.448745 2.79858,-0.919861 8.29114,-6.281182 -0.29374,-1.413341 3.53415,-0.32327 9.50146,-9.0189 -14.95651,-12.032972 3.50762,-0.265642 1.58669,0.596593 2.86105,-1.111948 0.71837,-1.877174 -2.19887,-4.012039 -3.96831,-3.662206 -6.86215,-1.138481 -4.87877,5.220788 -0.80899,4.097927 -1.21031,-0.101542 -1.57579,-2.664275 3.71845,-4.079192 z"
      data-name="Zona Leste" id="zona_leste" />
   <path class="neighborhood"
      d="m 143.0848,29.877803 8.78344,5.150977 1.6309,-4.694068 1.4691,1.311529 h 8.46455 l 8.40157,-4.193336 -1.06767,7.036432 1.03364,2.128367 1.31806,-0.188878 0.28438,-1.951186 4.00215,3.44316 2.00577,0.411216 -3.06879,3.431497 0.0387,4.735105 -1.16514,1.221984 -4.30757,-0.08008 -2.44681,4.28566 -4.21709,1.934414 -5.19996,3.308402 -12.67744,10.795704 -3.97279,4.760762 -4.50805,4.771919 -15.16154,-0.196741 -7.47379,-9.867435 0.92594,-1.617366 2.5009,0.324033 2.15403,2.279414 2.01601,-0.102452 v -0.869063 l -2.51955,-3.475316 0.55809,-2.83705 3.33546,-2.834722 3.58628,-0.694238 1.55209,-3.083681 -1.96563,-4.506638 1.09237,-3.31448 2.12652,0.172863 5.67549,2.700935 3.79518,-0.358087 3.10791,-3.154553 1.31014,-6.154309 -2.63236,-2.144236 z"
      data-name="Zona Norte" id="zona_norte" />
</svg>