<?xml version="1.0" encoding="UTF-8" standalone="no"?>
<svg width="87.549698mm" height="66.954567mm" viewBox="0 0 87.549698 66.954567" version="1.1" id="svg5"
  xml:space="preserve" xmlns="http://www.w3.org/2000/svg" xmlns:svg="http://www.w3.org/2000/svg">
  <defs id="defs2" />
  <path class="neighborhood"
    d="m 41.494106,0 -0.47801,1.2206 -1.67948,0.32143 -1.03353,1.94562 0.45114,0.84801 -0.65681,0.93999 0.108,2.47737 -2.18643,1.26349 -1.07745,1.62522 -1.40353,0.39533 -0.0103,0.93276 -1.15031,1.34875 -1.49449,-0.50074 -3.14606,4.0845 -0.27233,1.90583 -5.16248,-0.99942 -0.15606,1.03818 -1.19528,0.43821 -3.47059,-1.83916 -3.62148,4.30774 -2.1115,-0.67902 -0.943611,1.50843 L 8.488411,21.54494 2.734757,20.45147 4e-5,22.3976 l 4.312915,3.99046 8.197431,7.94111 0.12196,2.21227 2.03347,3.36362 2.02106,0.84284 -0.68109,2.19057 2.06602,4.02146 1.95233,-0.25218 0.79634,10.53062 3.15278,3.21634 -1.01906,-3.83904 1.16427,-1.51774 0.44597,-3.22409 -0.57981,-0.83974 1.47432,-2.30477 3.99046,-0.60823 4.18579,-0.0615 0.92759,2.25413 2.61018,-0.0796 2.57038,1.86138 2.97553,4.331 0.20413,4.21112 1.39629,2.3368 2.23708,1.43919 4.33255,1.56166 4.92321,-1.12654 5.39347,-1.22473 2.35541,0.22272 1.19011,1.08417 0.14263,1.45676 1.4118,0.56689 2.21847,-1.10122 0.54673,-0.85215 1.39217,-0.062 -0.28009,-1.42058 0.58343,-0.84026 2.32595,-1.4888 2.87838,-0.34261 -0.21342,-1.54513 2.05,-1.72134 1.67122,-0.50075 3.55068,-2.27531 -0.65629,-0.90485 0.88625,-0.66456 1.94511,0.95343 2.31252,-1.97353 -1.45728,-1.17408 0.077,-1.64848 1.41335,-1.6459 -1.39733,-1.65623 -2.7926,-1.35495 -0.83664,-2.81947 -1.96009,-0.7922 -0.89813,-2.07739 -0.9741,-0.16226 -2.92024,0.80976 -2.88148,-4.04161 -0.94154,0.14521 -1.19786,-0.86765 1.31878,-1.9606 -0.91467,-1.98437 -1.81074,-1.50482 2.93987,-8.31009 0.17932,-2.46393 3.17035,-4.5837 -0.79014,-2.37557 -2.30838,-0.19998 -3.44372,-0.28112 -3.51813,-3.90002 0.15503,-2.53887 -3.44424,-2.53266 -2.08256,0.50385 -3.42149,-1.55391 -2.44068,0.9002 -1.94459,2.83393 -1.35598,0.21911 -0.73898,1.06144 -2.96829,0.21859 -0.71779,-1.03766 -0.59118,-2.31614 -2.85925,-0.36019 0.0729,-2.01693 z m 15.36547,9.0842 -0.35346,2.32803 0.34209,0.70435 0.43615,-0.0625 0.0941,-0.64544 1.32447,1.13947 0.66353,0.1359 -1.01545,1.13534 0.0129,1.56682 -0.3855,0.40463 -1.42576,-0.0269 -0.80873,1.41748 0.22376,0.81701 1.06557,-0.0398 1.49861,-1.35444 0.66301,0.87126 -1.23042,1.34979 0.52142,0.8816 0.40049,0.0336 0.26769,-1.35599 1.61437,-1.72754 2.27066,0.37672 1.3131,1.21181 0.7276,1.32757 -0.23771,0.62115 -0.94671,0.36794 -0.52503,-0.19741 -1.16066,0.0879 4.94906,3.98167 -3.144,2.98432 -1.16944,0.10697 0.0972,0.46767 -2.74351,2.07842 -0.92604,0.30438 -0.11782,0.81028 -1.2268,0.5085 -0.97772,-0.27337 -0.35243,0.29817 0.5209,0.32402 0.0791,1.15703 -0.49816,0.71417 -0.83716,0.14676 -0.0832,-3.13521 -0.32297,0.18604 -0.51263,0.71675 -0.0119,0.46612 0.31574,0.27699 -0.0284,0.42736 -0.21084,0.20981 -0.53175,0.0971 -0.5488,-0.24598 -0.078,0.65267 -1.16531,0.0444 1.11053,1.04025 0.38964,1.83606 0.48317,0.33125 1.00511,-1.25625 0.51056,-0.0651 0.20723,0.52245 -0.0873,1.14722 -0.5643,0.24856 -2.17558,2.17713 0.47646,0.38602 0.10697,0.77257 -1.52136,1.53944 -0.42323,1.10174 -0.52813,-0.34778 0.0258,0.5612 -0.69298,0.1881 -0.0403,2.53112 -0.74569,0.10748 -0.9834,-3.77909 -0.80357,-0.11111 -0.99271,-1.45262 -3.54138,1.93941 0.45165,1.52911 0.017,2.73472 0.27595,0.96118 -1.71617,0.66146 -1.02113,-1.23766 -1.02732,-0.0434 0.1111,-0.65164 -0.15916,-0.12403 -0.42272,0.16847 -0.68368,-0.65009 -1.13274,0.45268 -0.4377,0.90951 -1.08417,0.10904 -0.34055,-0.59842 -0.0191,-0.53588 0.43925,-0.15606 1.89549,-1.24386 0.0181,-4.10724 0.2651,-0.47697 -0.13385,-0.77825 -2.79466,-0.0191 0.0243,-2.33784 1.00872,-0.0264 0.67231,-0.57257 1.42059,1.23507 0.96118,-0.68213 -0.18913,-0.96997 0.76842,-0.71417 0.55449,0.72864 1.91306,5.86734 2.57659,-1.31671 -3.30574,-2.0991 2.29495,-3.30936 0.68781,2.25878 2.73885,-1.45418 1.37666,0.20309 -0.0677,-0.3855 0.37362,-0.17622 -0.0899,-0.73174 -1.572,0.0594 0.0202,-0.84749 0.76274,-0.12196 0.045,-0.7121 -0.97255,-0.93121 -0.50798,-1.27176 -0.40979,-0.0951 -3.20446,1.7694 -0.60461,0.0915 -2.02158,-2.09031 -0.90331,-0.21187 -0.49506,0.43925 -0.86765,0.0589 -0.31781,0.22893 -0.16484,-0.0109 -0.12971,0.27698 -0.76171,-0.0274 -0.0935,0.25942 -0.57412,0.0713 -4.34599,1.96732 -0.46715,0.001 -0.231,-0.5917 0.15503,-0.32969 0.66973,-0.30386 0.54467,0.0879 1.28157,-0.7152 2.01848,-1.87792 0.30489,0.19275 -0.0858,0.7183 0.30231,0.01 1.788,-0.93328 2.15026,-2.58692 0.7214,0.0341 0.24547,-0.19586 0.87643,-0.061 0.0837,-0.16589 0.36329,0.18449 0.5116,-0.0822 0.20205,0.28267 0.39533,0.014 0.36742,-0.29043 1.17873,0.0253 1.26298,-0.96584 0.91829,-0.0837 -0.0388,-0.0744 -0.50953,-0.34778 0.29456,-0.3452 0.53123,-0.0269 0.0176,-0.72037 0.23254,-0.14366 -0.5581,-0.65836 -0.0796,-0.38034 2.43292,-1.35082 -0.56585,-0.83147 1.5999,-1.00356 0.50849,0.55501 0.64028,-0.30386 1.26607,0.74672 0.0109,-0.27853 -0.97048,-0.66869 -0.0687,-0.70797 0.32142,-0.15555 -0.0403,-0.86506 0.91105,-0.90899 0.95343,-0.003 -0.0279,-1.06195 -1.07229,0.49144 -1.72031,1.09503 -4.19509,3.57187 -1.31465,1.57561 -1.49138,1.57872 -5.01727,-0.0651 -2.47271,-3.26492 0.30644,-0.53537 0.82734,0.10749 0.71262,0.75396 0.66714,-0.0336 v -0.28784 l -0.83354,-1.1498 0.18448,-0.93896 1.10381,-0.93793 1.18649,-0.22944 0.51367,-1.02061 -0.65009,-1.49087 0.36121,-1.09709 0.70384,0.0574 1.87792,0.89349 1.25574,-0.11834 1.02836,-1.04386 0.43356,-2.03657 -0.87126,-0.70952 0.40256,-2.60966 2.90628,1.70481 0.5395,-1.5534 0.48628,0.43409 h 2.80086 z"
    data-name="Zona Rural" id="zona_rural" />
  <path class="neighborhood"
    d="m 50.251196,33.18971 -0.39326,0.20257 0.0465,0.62994 -0.46974,0.008 -0.0589,-0.0563 -0.045,0.7121 -0.76274,0.12196 -0.0202,0.84749 1.572,-0.0594 0.0899,0.73174 -0.37362,0.17622 0.0677,0.3855 -1.37666,-0.20309 -2.73885,1.45418 -0.68781,-2.25878 -2.29495,3.30936 3.30574,2.0991 -2.57659,1.31671 -1.91306,-5.86734 -0.55449,-0.72864 -0.76842,0.71417 0.18913,0.96997 -0.96118,0.68213 -1.42059,-1.23507 -0.67231,0.57257 -1.00872,0.0264 -0.0243,2.33784 2.79466,0.0191 0.13385,0.77825 -0.2651,0.47697 -0.0181,4.10724 -1.89549,1.24386 -0.43925,0.15606 0.0191,0.53588 0.34055,0.59842 1.08417,-0.10904 0.4377,-0.90951 1.13274,-0.45268 0.68368,0.65009 0.42272,-0.16847 0.15916,0.12403 -0.1111,0.65164 1.02732,0.0434 1.02113,1.23766 1.71617,-0.66146 -0.27595,-0.96118 -0.017,-2.73472 -0.45165,-1.52911 3.54138,-1.93941 0.99271,1.45262 0.80357,0.11111 0.9834,3.77909 0.74569,-0.10748 0.0403,-2.53112 0.69298,-0.1881 -0.0258,-0.5612 0.52813,0.34778 0.42323,-1.10174 1.52136,-1.53944 -0.10697,-0.77257 -0.47646,-0.38602 2.17558,-2.17713 0.5643,-0.24856 0.0873,-1.14722 -0.20723,-0.52245 -0.51056,0.0651 -1.00511,1.25625 -0.48317,-0.33125 -0.38964,-1.83606 -1.11053,-1.04025 -0.3731,0.0145 -0.20722,-0.53381 -0.50281,-0.0295 -0.47853,0.27027 z"
    data-name="Zona Sul" id="zona_sul" />
  <path class="neighborhood"
    d="m 48.558796,26.86555 -0.91829,0.0837 -1.26298,0.96584 -1.17873,-0.0253 -0.36742,0.29043 -0.39533,-0.014 -0.20205,-0.28267 -0.5116,0.0822 -0.36329,-0.18449 -0.0837,0.16589 -0.87643,0.061 -0.24547,0.19586 -0.7214,-0.0341 -2.15026,2.58692 -1.788,0.93328 -0.30231,-0.01 0.0858,-0.7183 -0.30489,-0.19275 -2.01848,1.87792 -1.28157,0.7152 -0.54467,-0.0879 -0.66973,0.30386 -0.15503,0.32969 0.231,0.5917 0.46715,-10e-4 4.34599,-1.96732 0.57412,-0.0713 0.0935,-0.25942 0.76171,0.0274 0.12971,-0.27698 0.16484,0.0109 0.31781,-0.22893 0.86765,-0.0589 0.49506,-0.43925 0.90331,0.21187 2.02158,2.09031 0.60461,-0.0915 3.20446,-1.7694 0.40979,0.0951 0.50798,1.27176 1.03146,0.98753 0.46974,-0.008 -0.0465,-0.62994 0.39326,-0.20257 0.87178,0.28939 0.47904,-0.27079 -0.59634,-0.90589 -0.0413,-0.82889 z"
    data-name="Zona Oeste" id="zona_oeste" />
  <path class="neighborhood"
    d="m 55.447776,18.39268 -0.95343,0.003 -0.91105,0.90899 0.0403,0.86506 -0.32142,0.15555 0.0687,0.70797 0.97048,0.66869 -0.0109,0.27853 -1.26607,-0.74672 -0.64028,0.30386 -0.50849,-0.55501 -1.5999,1.00356 0.56585,0.83147 -2.43292,1.35082 0.0796,0.38034 0.5581,0.65836 -0.23254,0.14366 -0.0176,0.72037 -0.53123,0.0269 -0.29456,0.3452 0.50953,0.34778 0.0388,0.0744 2.40553,4.60798 0.0413,0.82889 0.37672,0.57206 0.21962,0.33383 -5.1e-4,5.2e-4 0.50281,0.0295 0.20722,0.53381 1.53841,-0.0589 0.078,-0.65267 0.5488,0.24598 0.53175,-0.0971 0.21084,-0.20981 0.0284,-0.42736 -0.31574,-0.27699 0.0119,-0.46612 0.51263,-0.71675 0.32297,-0.18604 z"
    data-name="Centro" id="centro" />
  <path class="neighborhood"
    d="m 58.531826,16.60416 -1.49861,1.35444 -1.06557,0.0398 -0.22376,-0.81701 -5.2e-4,0.001 -0.32349,0.14831 0.44286,16.73076 0.83716,-0.14676 0.49816,-0.71417 -0.0791,-1.15703 -0.5209,-0.32402 0.35243,-0.29817 0.97772,0.27337 1.2268,-0.5085 0.11782,-0.81028 0.92604,-0.30438 2.74351,-2.07842 -0.0972,-0.46767 1.16944,-0.10697 3.144,-2.98432 -4.94906,-3.98167 1.16066,-0.0879 0.52503,0.19741 0.94671,-0.36794 0.23771,-0.62115 -0.7276,-1.32757 -1.3131,-1.21181 -2.27066,-0.37672 -1.61437,1.72754 -0.26769,1.35599 -0.40049,-0.0336 -0.52142,-0.8816 1.23042,-1.34979 z"
    data-name="Zona Leste" id="zona_leste" />
  <path class="neighborhood"
    d="m 47.346296,9.88646 2.90641,1.70444 0.53966,-1.55325 0.48612,0.43398 h 2.80089 l 2.78005,-1.38756 -0.35329,2.32833 0.34203,0.70427 0.43614,-0.0625 0.0941,-0.64564 1.3243,1.13933 0.6637,0.13607 -1.01545,1.13547 0.0128,1.56683 -0.38554,0.40435 -1.42536,-0.0265 -0.80964,1.41811 -1.39542,0.64009 -1.72065,1.09474 -4.19492,3.57226 -1.31458,1.57532 -1.4917,1.57901 -5.0169,-0.0651 -2.47305,-3.2651 0.30639,-0.53518 0.82754,0.10722 0.71276,0.75425 0.66709,-0.0339 v -0.28757 l -0.83371,-1.14997 0.18467,-0.93877 1.10369,-0.938 1.18669,-0.22972 0.51358,-1.02038 -0.65042,-1.49123 0.36146,-1.09675 0.70366,0.0572 1.878,0.89373 1.25581,-0.11849 1.0284,-1.04383 0.43352,-2.03644 -0.87104,-0.70952 z"
    data-name="Zona Norte" id="zona_norte" />
</svg>