<?xml version="1.0" encoding="UTF-8" standalone="no"?>
<svg version="1.1" id="svg2" width="1000" height="809.60547" viewBox="0 0 1000 809.60546" xml:space="preserve"
  xmlns="http://www.w3.org/2000/svg" xmlns:svg="http://www.w3.org/2000/svg">
  <defs id="defs6" />
  <path style="fill:#000000;stroke-width:1.76329;-inkscape-stroke:none;stop-color:#000000"
    d="m 233.69119,8.0615771 18.14712,-7.25883959 -1.81473,33.57214149 35.38687,26.766989 31.30376,-11.341944 0.45368,17.239752 34.93319,25.85963 32.2111,58.524414 32.66481,22.68389 0.45366,17.69342 50.35824,2.2684 32.6648,24.4986 33.57215,58.07074 34.47951,24.04492 46.27508,1.36104 35.38689,7.71251 -0.4537,50.81191 49.90461,2.26838 -0.4537,33.57215 16.786,47.18249 68.0517,48.54352 31.30379,5.44412 17.69341,30.85009 -0.9074,32.6648 16.7862,47.18248 16.786,12.24929 -0.4537,15.87872 -15.8786,23.59125 -34.02591,27.67434 0.4537,31.75743 -16.7862,23.59125 -32.6647,9.07355 -17.6935,-12.70298 0.9074,-33.11847 -33.1185,-24.04492 -16.786,-44.00673 -0.9074,-37.20157 -49.9045,-1.81473 -15.8788,39.46998 0.4537,51.26558 -33.5722,28.12801 16.7862,46.27513 0.4536,33.57215 -34.02579,10.88827 -100.71647,-4.99046 -14.97136,4.0831 -16.78608,-10.88827 -49.90453,-2.26839 0.45367,-34.02582 15.87872,-21.32286 15.87871,-39.92363 34.47951,-44.00673 -17.23975,-47.18249 -32.6648,-6.35149 -17.23975,21.77652 -15.42505,39.0163 -17.69342,4.53677 -31.75744,27.67434 -117.95619,35.84054 -29.48906,-20.86917 -3.17574,-35.84054 14.51768,-38.10894 36.29421,-47.63615 15.42504,-39.01628 -16.78607,-29.03538 v -18.60079 l 18.60079,-4.53678 31.75743,7.71254 15.87873,-21.32286 -15.87873,-29.94273 -0.45367,-17.23975 16.78608,-22.23021 17.23975,-3.62942 -18.14711,-47.18248 -50.35822,-0.90736 -11.79563,3.62943 -70.77371,-48.54352 0.45367,-33.57216 -33.11847,-23.13756 0.45368,-51.26559 16.78608,-6.80515 18.14709,-43.09938 15.42504,-17.69344 13.15666,-36.74789 19.05448,-25.405946 16.78606,-35.386865 z"
    id="path540" />
</svg>