<?xml version="1.0" encoding="UTF-8" standalone="no"?>
<svg width="999.99994" height="1338.2395" viewBox="0 0 264.58331 354.07587" version="1.1" id="svg5" xml:space="preserve"
   xmlns="http://www.w3.org/2000/svg" xmlns:svg="http://www.w3.org/2000/svg">
   <defs id="defs2" />
   <path class="neighborhood"
      d="m 78.795166,212.14448 -0.115076,0.0663 2.65e-4,5.3e-4 -0.355076,0.20496 0.172897,0.23001 -4.136943,1.30213 -1.272437,0.0689 -3.662434,1.38752 0.77514,2.49958 -6.322103,1.78381 -0.682858,0.19272 0.04192,0.11184 h 1.4e-4 l 0.218334,0.58326 0.532471,0.51432 0.884024,1.87567 0.728998,-0.25167 15.638558,-4.50313 0.50996,0.19456 0.620676,-0.23297 -2.313041,-3.87148 h 1.38e-4 l -0.0021,-0.004 v -1.4e-4 l -0.901329,-1.53861 z"
      data-name="Honório Roldão" id="honorio_roldao" />
   <path class="neighborhood"
      d="m 82.371501,218.17284 -0.620535,0.23297 -0.50996,-0.19456 -15.638558,4.50313 -0.728858,0.25167 0.778658,0.71212 0.09426,1.15188 0.51404,1.13555 0.657813,0.31273 0.203565,0.42682 0.32539,0.0882 0.35043,0.56398 0.388977,0.15643 0.579033,-0.12843 0.549775,0.89162 -0.06415,0.52079 0.211579,0.44975 -0.092,0.52994 0.54738,0.5229 -0.347334,0.84661 0.739127,0.89514 0.212285,0.87544 -0.10959,0.66189 0.500253,0.49365 0.777814,0.0515 0.594789,-0.19272 0.306541,0.36745 0.161216,0.71957 0.441732,0.24647 0.50546,-0.0864 0.652187,0.72802 1.596562,0.69537 1.307751,0.1539 0.140116,0.85378 0.590711,0.67639 0.470569,-0.09 0.814671,0.56877 0.149823,0.45622 -0.229587,0.42161 0.196527,0.40825 0.618427,0.41402 -0.622364,0.72393 0.104664,0.70719 0.187103,0.47142 -0.368017,1.18803 0.104246,0.4174 0.406979,0.62559 -0.345927,0.443 -0.478025,0.20554 -0.408112,0.58311 0.01196,0.66766 0.482669,0.6225 0.107622,0.71929 0.368578,0.1691 15.255211,-9.00851 z"
      data-name="Morada do Sol" id="morada_do_sol" />
   <path class="neighborhood"
      d="m 118.41454,201.45725 -0.57918,0.20905 -5.14322,3.44424 -5.62926,1.46095 4.15664,10.2341 3.17132,-1.40932 12.91319,-6.89411 -1.67802,-4.51311 -6.47573,-2.42784 z"
      data-name="Galo da Serra" id="galo_da_serra" />
   <path class="neighborhood"
      d="m 160.84031,170.52071 -44.69098,25.56866 v 5.3e-4 l 0.11648,0.0667 9.20461,4.75522 -0.61069,2.78995 0.76628,0.28726 0.1027,0.2763 h 1.4e-4 l 1.57518,4.23682 -12.91319,6.8941 -3.17132,1.40932 -0.56089,0.24928 -15.304725,6.65411 -7.673184,3.35041 29.029769,48.58973 13.47858,-32.21444 2.12397,-2.89897 3.56212,-1.31492 34.699,-3.78806 4.20489,-1.53691 1.60922,-1.12783 16.79086,-34.03751 1.42563,-1.42747 1.71614,-0.7328 1.38794,-0.39122 1.58883,0.18035 1.46995,0.65288 2.59285,-11.65791 -9.59584,1.63174 -1.78184,-6.95319 -23.51375,5.48351 z"
      data-name="Marunga" id="marunga" />
   <path class="neighborhood"
      d="m 75.334606,169.07651 0.0053,29.49331 -0.0073,0.60984 0.02506,-0.002 6.869485,-0.52474 10.329204,-0.78892 v 1.4e-4 l 5.259417,-0.40178 0.222271,2.1023 -0.220303,0.35381 -0.08652,0.0274 -0.427662,-0.12985 -3.332117,0.32286 0.184147,2.22188 1.000366,1.00628 2.504927,1.00909 2.64e-4,-1.4e-4 0.537115,0.22776 3.04035,2.59032 3.46084,-0.009 0.97308,-0.25224 0.003,-7.9e-4 1.38738,-0.36 5.62926,-1.46095 5.14322,-3.44423 0.57917,-0.20905 0.73575,0.10396 5.70945,2.14056 0.61069,-2.78994 -9.20462,-4.75522 -0.11648,-0.0667 v -1.4e-4 h -7.9e-4 l 7.9e-4,-5.3e-4 0.0263,-26.70253 z m 22.326291,35.29968 -1.812791,1.4158 -0.98503,0.33579 -1.878626,1.33477 -0.428083,0.26081 v 1.4e-4 l 0.428083,-0.26081 1.878626,-1.33476 0.98503,-0.3358 z m 28.067813,-0.11085 1.57532,4.23682 -1.57518,-4.23682 z"
      data-name="Orquídeas" id="orquideas" />
   <path class="neighborhood"
      d="m 91.804876,205.42959 -1.097719,0.35733 -1.983147,-0.006 -2.503662,-0.0625 -3.053856,0.69903 0.165862,1.21504 0.422598,4.85286 0.07372,-0.0335 -2.65e-4,-0.003 3.330009,-2.22821 1.520595,-0.47395 2.850012,-1.39708 1.455462,-0.88697 0.03348,-0.0238 -0.729419,-1.93602 z"
      data-name="José Dutra" id="jose_dutra" />
   <path class="neighborhood"
      d="m 82.227182,198.6531 -6.894531,0.5267 -3.646109,3.43439 -0.965904,0.37885 -0.451014,2.22441 -0.521356,0.71634 -1.068173,0.89274 -0.03179,0.57608 0.551881,0.85604 -0.277556,0.48716 -0.730266,0.17008 -0.473946,-0.10339 -0.444404,0.38743 -0.282485,0.45298 -0.268976,0.0793 -0.795538,0.36478 -0.09172,0.30035 -0.602248,-0.21833 -1.7575,5.1767 -0.166703,0.81579 -0.517837,0.49969 -0.09777,1.86512 0.503346,1.34461 7.00496,-1.97653 -0.775139,-2.49958 3.662431,-1.38752 1.272443,-0.0689 4.13694,-1.30212 -0.172895,-0.23001 0.355071,-0.20497 -2.65e-4,-5.3e-4 0.115076,-0.0663 1.192818,2.03619 0.110009,-0.0366 h 2.64e-4 v -1.4e-4 l 3.656666,-1.65846 -0.422598,-4.853 -0.560466,-4.10683 -0.112824,-1.9176 z"
      data-name="Centro" id="centro" />
   <path class="neighborhood"
      d="m 97.661193,204.37605 -1.813071,1.41607 -0.98503,0.3358 -1.878626,1.33476 -1.455463,0.88698 -2.850012,1.39708 -1.520595,0.47395 -3.330009,2.22821 2.65e-4,0.003 -3.730382,1.69194 v 1.4e-4 h -2.64e-4 l -0.110152,0.0366 0.0709,0.12098 h -1.42e-4 l 7.622119,12.75774 7.673186,-3.35041 15.304733,-6.6541 0.56088,-0.24929 -4.15664,-10.2341 -1.38737,0.36 -0.003,7.9e-4 -0.97308,0.25238 -3.46084,0.009 -3.040351,-2.59032 z"
      data-name="Aida Mendonça" id="aida_mendonca" />
   <path class="neighborhood"
      d="m 94.155334,202.35787 -4.944578,0.81411 -6.421284,0.48253 0.37702,2.76293 3.053856,-0.69904 2.503662,0.0625 1.983147,0.006 1.097719,-0.35733 0.483651,0.0731 0.729419,1.93602 1.845146,-1.31098 0.98503,-0.3358 1.812788,-1.41579 -2.504927,-1.00909 -1.000366,-1.00628 z"
      data-name="Sol Nascente" id="sol_nascente" />
   <path class="neighborhood"
      d="m 97.815797,197.46239 -15.588615,1.19071 0.431882,2.95495 0.112824,1.9176 0.01759,0.12886 6.421284,-0.48253 4.944579,-0.81411 -0.183867,-2.21893 3.332117,-0.32285 0.427668,0.12984 0.08652,-0.0274 0.220302,-0.35381 z"
      data-name="Tancredo Neves" id="tancredo_neves" />
   <path class="neighborhood"
      d="m 142.92122,0 -1.12487,1.3638809 1.84191,1.785636 1.92631,7.0300011 -6.60824,0.506162 3.24785,1.701229 -3.33226,1.771568 -6.60825,-2.727621 -5.59592,1.082664 -2.69962,-0.39376 -5.63813,4.443059 -4.31644,1.363881 -3.75402,-0.534299 -6.35516,4.780406 0.66076,2.22146 -6.397225,6.031882 0.239017,1.588686 -4.189979,4.133709 -0.73111,5.230435 0.5343,6.059881 -1.124866,2.952565 -2.544881,2.432481 0.506163,1.490351 -1.363742,4.864811 -2.179396,2.67135 -0.196808,5.469451 -4.541393,3.233782 -3.233925,6.523983 0.26715,5.047554 2.193464,1.630889 -0.787379,3.360393 4.217969,3.346326 5.975615,6.341099 1.138796,2.221601 0.66091,6.059874 -0.970124,2.19333 -5.117893,2.96677 -4.414922,-0.43596 -0.815515,2.3762 -5.047557,0.63264 -1.124865,1.99665 -7.311218,-1.05453 -2.657425,2.61522 -0.112541,4.6116 -2.966638,1.58882 1.293543,3.05104 -2.854232,2.76983 -3.754014,-0.73111 -4.724276,-2.30587 -0.421754,2.64336 -3.683815,-1.23727 -0.506164,1.12473 -6.172282,3.24799 -2.334,-3.09325 -4.569529,-0.35156 -5.005493,-1.25133 -0.267148,-2.65743 -2.699485,3.4026 0.351554,3.95097 -2.376204,13.90539 -1.560691,0.85772 0.618706,3.37432 5.469307,7.66292 -3.036971,0.0703 -3.374462,1.8699 -3.669607,-0.0703 0.140538,4.72428 -1.420012,2.68541 -3.641611,-0.5765 2.319934,4.33052 -0.843651,3.38853 1.687302,2.06685 -2.319934,0.95605 2.094988,3.4728 -1.785635,2.65742 -4.935154,0.70298 -2.2495942,-1.98245 -3.2900548,1.78563 -0.6187057,2.27774 -2.8120283,0.0561 L 0,189.50222 l 0.6046375,1.05453 5.2021613,-0.18274 0.9421259,-1.15301 4.0492983,0.29529 0.492094,3.48686 5.033488,3.48687 1.574759,6.76299 -3.275988,2.71355 0.632633,1.13894 3.908761,0.59043 -1.209135,5.17416 2.291798,-0.88585 1.968378,-3.06511 3.613476,-1.13879 4.217972,0.81551 1.743432,1.78564 9.293805,4.38678 2.094989,2.4042 3.641468,1.40609 5.441318,4.38665 1.307611,3.38853 0.0422,4.48526 -3.866557,5.34284 -2.319936,6.4535 1.124869,4.65393 -0.941986,3.69774 -0.168815,6.29904 2.080922,5.98954 -0.632635,4.5836 5.638125,6.32717 2.390135,1.08252 5.975612,-0.25308 6.059882,0.4921 4.119636,3.97909 12.204166,0.67482 2.530814,-0.25307 8.239275,-3.97896 -2.291797,4.65394 4.274244,4.07744 4.794474,2.34791 3.96504,0.12663 7.88771,5.32876 1.19507,-0.23902 4.69614,3.02294 2.17926,-0.2531 1.09673,2.2918 3.21971,1.63089 1.36388,2.06687 5.06163,-0.0983 2.02464,2.57302 1.46222,-0.81553 10.78416,2.54489 6.20042,0.014 0.15474,1.08254 8.33761,2.6574 5.7366,6.29893 2.69949,1.2233 5.13196,-3.79635 1.92618,-4.68193 -2.2496,-7.46596 -0.0141,-5.49743 3.19173,-2.0106 2.15111,0.80132 0.57651,3.47292 -0.61871,5.01944 2.74169,0.52022 4.80868,3.62754 -1.18113,2.03872 3.24785,2.88224 5.2023,0.78738 1.39202,1.82782 0.66077,3.71197 2.4464,0.88569 2.76996,3.37447 -0.32342,2.4184 1.78564,1.53244 0.43582,3.57142 5.37098,0.82942 2.48861,1.72937 3.19172,6.69264 5.56778,-1.2654 1.81378,1.42018 3.86655,-0.2953 2.362,1.63089 0.40782,2.41839 5.2303,4.94909 0.5343,2.54489 -1.89804,2.76995 3.36026,1.16695 0.66091,-4.56954 13.93353,-8.68918 5.56778,-6.25668 3.34633,-6.17242 3.81028,-3.02291 -3.29005,-4.4712 -0.71704,-2.86829 h -2.58709 l -2.09498,3.64162 -2.65728,-2.3481 2.54488,-1.16692 -2.22161,-2.02464 h -2.51674 l -0.12647,-3.52907 2.62929,-2.27774 2.39013,0.42177 1.61696,-3.06512 0.56244,-6.95979 2.19332,-3.27599 -1.57476,-9.84205 -5.3849,-3.06509 1.02639,-2.60114 -6.58025,-3.75405 -0.28122,-3.13541 -3.37432,-6.25684 -2.50268,-1.57462 -0.85771,-4.10557 3.52907,-0.92806 1.71529,-2.71355 -0.46396,-3.65568 2.68556,-7.05814 0.36549,-2.85423 4.00709,-4.63987 -0.0561,-2.60101 3.88062,-2.27773 -0.32342,-3.21986 2.12313,-1.77157 0.0422,-2.55894 -4.10557,-6.21449 0.70297,-4.10557 -1.82784,-3.17765 -3.12124,-2.8683 -1.96838,-0.4921 1.30747,-3.24785 -5.98954,0.50617 0.5343,-1.68717 -5.68033,-0.94212 -3.61347,3.20579 -1.27948,4.2039 -3.48686,-0.28122 -0.64684,-3.47279 -3.515,0.25308 -7.19882,-1.87005 -1.96838,0.74518 -1.81377,-2.2918 -2.9385,0.0281 -3.86655,2.67149 -4.65394,-2.95271 -0.12647,-1.81363 2.26366,-4.30252 4.47106,-4.76634 0.60463,-2.81203 3.59941,-2.27773 0.29529,-4.80854 4.99128,-3.73995 3.21986,-0.0141 2.31993,1.33574 0.4921,-2.4184 -1.6029,-1.98245 0.11254,-6.03175 -1.63103,-2.51674 0.61871,-3.95096 -0.12661,-5.77867 -31.46647,0.42176 -3.82436,-2.13719 -0.6889,-2.33387 -4.56953,-1.61696 -1.01232,3.36039 -3.37447,2.03872 -2.93864,-3.76822 -3.16344,-0.23901 -1.18114,-3.29006 -3.95082,-1.04046 -3.10732,-2.58708 -2.89643,-3.75402 0.36562,-1.23726 -2.72762,-2.74169 -0.33748,-3.97896 -1.72937,-4.14778 -1.96852,-1.85597 -4.61159,-1.67309 0.0843,-2.44655 -4.51325,-2.75576 -1.37795,0.26715 -4.76634,-2.9807 -3.54313,-4.89295 -2.01073,-0.28121 -2.84002,-7.77532 0.28108,-2.54488 -2.84003,-6.58011 0.12647,-3.627545 3.99303,1.602893 -1.56069,-3.669606 1.91225,-2.544879 -2.2496,-2.910504 5.2725,-3.796218 4.68207,-0.09848 2.44641,-5.385044 -0.54837,-2.108917 3.47294,-2.516883 0.50616,-1.8277 4.63973,-4.119639 3.19172,1.954311 3.10731,-3.754012 2.34793,-4.386786 -0.84351,-3.079179 -2.2216,0.379693 -1.3356,-3.655679 1.27947,0.393615 1.01233,-4.724132 1.06859,-9.532819 4.33052,-2.685415 -0.35156,-2.587085 -5.21637,-6.790986 -3.58534,-2.573015 -5.68019,-1.884111 -0.84364,-3.388391 3.78214,-3.374462 2.50268,1.588826 -0.6045,-3.655679 2.10892,-2.319934 -0.0703,-3.388395 -2.2496,-4.3727196 -1.81377,-1.4340795 -1.3778,-3.8524563 -1.92632,-1.6028943 z m -67.586598,169.0765 40.841028,0.31048 -0.0263,26.70238 44.69098,-25.56865 7.62873,14.99566 23.51376,-5.48352 1.78183,6.95319 9.59585,-1.63173 -2.59285,11.65791 -1.46996,-0.65289 -1.58882,-0.18035 -1.38794,0.39122 -1.71614,0.7328 -1.42564,1.42747 -16.79086,34.03751 -1.60922,1.12783 -4.20489,1.53691 -34.69899,3.78806 -3.56213,1.31493 -2.12397,2.89896 -13.47857,32.21446 -21.895535,-36.64865 -15.255208,9.0085 -0.368578,-0.16909 -0.107619,-0.71929 -0.482669,-0.62251 -0.01196,-0.66766 0.408107,-0.58311 0.478028,-0.20553 0.345929,-0.443 -0.406985,-0.6256 -0.104243,-0.41739 0.368014,-1.18803 -0.1871,-0.47142 -0.104666,-0.70719 0.622363,-0.72393 -0.618424,-0.41402 -0.196529,-0.40825 0.229589,-0.42162 -0.149823,-0.45622 -0.81467,-0.56876 -0.470573,0.09 -0.590708,-0.67638 -0.140116,-0.85378 -1.30775,-0.1539 -1.596565,-0.69538 -0.652187,-0.72801 -0.505458,0.0864 -0.441732,-0.24646 -0.161216,-0.71958 -0.306538,-0.36745 -0.594792,0.19273 -0.777814,-0.0515 -0.500253,-0.49364 0.109588,-0.66189 -0.212286,-0.87545 -0.739127,-0.89514 0.34734,-0.8466 -0.54738,-0.52291 0.092,-0.52993 -0.211579,-0.44975 0.06415,-0.52079 -0.549769,-0.89163 -0.579038,0.12844 -0.388975,-0.15643 -0.350433,-0.56398 -0.32539,-0.0882 -0.203559,-0.42682 -0.657815,-0.31273 -0.514041,-1.13556 -0.09425,-1.15187 -0.778656,-0.71212 h -1.42e-4 l -0.884026,-1.87567 -0.532469,-0.51432 -0.218334,-0.58326 h -1.38e-4 l -0.04192,-0.11184 -0.503349,-1.34461 0.09777,-1.86512 0.517837,-0.49969 0.166704,-0.81579 1.757502,-5.1767 0.602245,0.21833 0.09172,-0.30035 0.795539,-0.36478 0.268975,-0.0793 0.282485,-0.45298 0.444405,-0.38743 0.473945,0.10339 0.730266,-0.17008 0.277556,-0.48716 -0.551881,-0.85604 0.0318,-0.57608 1.068173,-0.89274 0.521356,-0.71634 0.451014,-2.22441 0.965904,-0.37885 3.646109,-3.43439 6.894531,-0.5267 10.329199,-0.78893 v -1.4e-4 l -10.329199,0.78892 -6.869488,0.52474 -0.02506,0.002 0.0073,-0.60985 z m 40.814718,27.01301 -7.9e-4,7.9e-4 h 7.9e-4 v -1.4e-4 z m 0,7.9e-4 v 1.4e-4 l 0.11648,0.0667 9.20462,4.75523 v -1.4e-4 l -9.20462,-4.75534 z m -23.59296,11.63329 -1.027377,0.62602 -2.850012,1.39708 -1.520595,0.47395 -3.330009,2.22821 v 1.4e-4 l 3.330009,-2.22821 1.520595,-0.47395 2.850012,-1.39708 z m -8.727712,4.72836 -0.07372,0.0335 0.07372,-0.0333 z"
      data-name="Zona Rural" id="zona_rural" />
</svg>