<?xml version="1.0" encoding="UTF-8" standalone="no"?>
<svg width="999.99994" height="1338.2395" viewBox="0 0 264.58331 354.07587" version="1.1" id="svg5" xml:space="preserve"
   xmlns="http://www.w3.org/2000/svg" xmlns:svg="http://www.w3.org/2000/svg">
   <defs id="defs2" />
   <path class="neighborhood"
      d="m 78.795166,212.14448 -0.115076,0.0663 2.65e-4,5.3e-4 -0.355076,0.20496 0.172897,0.23001 -4.136943,1.30213 -1.272437,0.0689 -3.662434,1.38752 0.77514,2.49958 -6.322103,1.78381 -0.682858,0.19272 0.04192,0.11184 h 1.4e-4 l 0.218334,0.58326 0.532471,0.51432 0.884024,1.87567 0.728998,-0.25167 15.638558,-4.50313 0.50996,0.19456 0.620676,-0.23297 -2.313041,-3.87148 h 1.38e-4 l -0.0021,-0.004 v -1.4e-4 l -0.901329,-1.53861 z"
      data-name="Honório Roldão" id="honorio_roldao" />
   <path class="neighborhood"
      d="m 82.371501,218.17284 -0.620535,0.23297 -0.50996,-0.19456 -15.638558,4.50313 -0.728858,0.25167 0.778658,0.71212 0.09426,1.15188 0.51404,1.13555 0.657813,0.31273 0.203565,0.42682 0.32539,0.0882 0.35043,0.56398 0.388977,0.15643 0.579033,-0.12843 0.549775,0.89162 -0.06415,0.52079 0.211579,0.44975 -0.092,0.52994 0.54738,0.5229 -0.347334,0.84661 0.739127,0.89514 0.212285,0.87544 -0.10959,0.66189 0.500253,0.49365 0.777814,0.0515 0.594789,-0.19272 0.306541,0.36745 0.161216,0.71957 0.441732,0.24647 0.50546,-0.0864 0.652187,0.72802 1.596562,0.69537 1.307751,0.1539 0.140116,0.85378 0.590711,0.67639 0.470569,-0.09 0.814671,0.56877 0.149823,0.45622 -0.229587,0.42161 0.196527,0.40825 0.618427,0.41402 -0.622364,0.72393 0.104664,0.70719 0.187103,0.47142 -0.368017,1.18803 0.104246,0.4174 0.406979,0.62559 -0.345927,0.443 -0.478025,0.20554 -0.408112,0.58311 0.01196,0.66766 0.482669,0.6225 0.107622,0.71929 0.368578,0.1691 15.255211,-9.00851 z"
      data-name="Morada do Sol" id="morada_do_sol" />
   <path class="neighborhood"
      d="m 118.41454,201.45725 -0.57918,0.20905 -5.14322,3.44424 -5.62926,1.46095 4.15664,10.2341 3.17132,-1.40932 12.91319,-6.89411 -1.67802,-4.51311 -6.47573,-2.42784 z"
      data-name="Galo da Serra" id="galo_da_serra" />
   <path class="neighborhood"
      d="m 160.84031,170.52071 -44.69098,25.56866 v 5.3e-4 l 0.11648,0.0667 9.20461,4.75522 -0.61069,2.78995 0.76628,0.28726 0.1027,0.2763 h 1.4e-4 l 1.57518,4.23682 -12.91319,6.8941 -3.17132,1.40932 -0.56089,0.24928 -15.304725,6.65411 -7.673184,3.35041 29.029769,48.58973 13.47858,-32.21444 2.12397,-2.89897 3.56212,-1.31492 34.699,-3.78806 4.20489,-1.53691 1.60922,-1.12783 16.79086,-34.03751 1.42563,-1.42747 1.71614,-0.7328 1.38794,-0.39122 1.58883,0.18035 1.46995,0.65288 2.59285,-11.65791 -9.59584,1.63174 -1.78184,-6.95319 -23.51375,5.48351 z"
      data-name="Marunga" id="marunga" />
   <path class="neighborhood"
      d="m 75.334606,169.07651 0.0053,29.49331 -0.0073,0.60984 0.02506,-0.002 6.869485,-0.52474 10.329204,-0.78892 v 1.4e-4 l 5.259417,-0.40178 0.222271,2.1023 -0.220303,0.35381 -0.08652,0.0274 -0.427662,-0.12985 -3.332117,0.32286 0.184147,2.22188 1.000366,1.00628 2.504927,1.00909 2.64e-4,-1.4e-4 0.537115,0.22776 3.04035,2.59032 3.46084,-0.009 0.97308,-0.25224 0.003,-7.9e-4 1.38738,-0.36 5.62926,-1.46095 5.14322,-3.44423 0.57917,-0.20905 0.73575,0.10396 5.70945,2.14056 0.61069,-2.78994 -9.20462,-4.75522 -0.11648,-0.0667 v -1.4e-4 h -7.9e-4 l 7.9e-4,-5.3e-4 0.0263,-26.70253 z"
      data-name="Orquídeas" id="orquideas" />
   <path class="neighborhood"
      d="m 91.804876,205.42959 -1.097719,0.35733 -1.983147,-0.006 -2.503662,-0.0625 -3.053856,0.69903 0.165862,1.21504 0.422598,4.85286 0.07372,-0.0335 -2.65e-4,-0.003 3.330009,-2.22821 1.520595,-0.47395 2.850012,-1.39708 1.455462,-0.88697 0.03348,-0.0238 -0.729419,-1.93602 z"
      data-name="José Dutra" id="jose_dutra" />
   <path class="neighborhood"
      d="m 82.227182,198.6531 -6.894531,0.5267 -3.646109,3.43439 -0.965904,0.37885 -0.451014,2.22441 -0.521356,0.71634 -1.068173,0.89274 -0.03179,0.57608 0.551881,0.85604 -0.277556,0.48716 -0.730266,0.17008 -0.473946,-0.10339 -0.444404,0.38743 -0.282485,0.45298 -0.268976,0.0793 -0.795538,0.36478 -0.09172,0.30035 -0.602248,-0.21833 -1.7575,5.1767 -0.166703,0.81579 -0.517837,0.49969 -0.09777,1.86512 0.503346,1.34461 7.00496,-1.97653 -0.775139,-2.49958 3.662431,-1.38752 1.272443,-0.0689 4.13694,-1.30212 -0.172895,-0.23001 0.355071,-0.20497 -2.65e-4,-5.3e-4 0.115076,-0.0663 1.192818,2.03619 0.110009,-0.0366 h 2.64e-4 v -1.4e-4 l 3.656666,-1.65846 -0.422598,-4.853 -0.560466,-4.10683 -0.112824,-1.9176 z"
      data-name="Centro" id="centro" />
   <path class="neighborhood"
      d="m 97.661193,204.37605 -1.813071,1.41607 -0.98503,0.3358 -1.878626,1.33476 -1.455463,0.88698 -2.850012,1.39708 -1.520595,0.47395 -3.330009,2.22821 2.65e-4,0.003 -3.730382,1.69194 v 1.4e-4 h -2.64e-4 l -0.110152,0.0366 0.0709,0.12098 h -1.42e-4 l 7.622119,12.75774 7.673186,-3.35041 15.304733,-6.6541 0.56088,-0.24929 -4.15664,-10.2341 -1.38737,0.36 -0.003,7.9e-4 -0.97308,0.25238 -3.46084,0.009 -3.040351,-2.59032 z"
      data-name="Aida Mendonça" id="aida_mendonca" />
   <path class="neighborhood"
      d="m 94.155334,202.35787 -4.944578,0.81411 -6.421284,0.48253 0.37702,2.76293 3.053856,-0.69904 2.503662,0.0625 1.983147,0.006 1.097719,-0.35733 0.483651,0.0731 0.729419,1.93602 1.845146,-1.31098 0.98503,-0.3358 1.812788,-1.41579 -2.504927,-1.00909 -1.000366,-1.00628 z"
      data-name="Sol Nascente" id="sol_nascente" />
   <path class="neighborhood"
      d="m 97.815797,197.46239 -15.588615,1.19071 0.431882,2.95495 0.112824,1.9176 0.01759,0.12886 6.421284,-0.48253 4.944579,-0.81411 -0.183867,-2.21893 3.332117,-0.32285 0.427668,0.12984 0.08652,-0.0274 0.220302,-0.35381 z"
      data-name="Tancredo Neves" id="tancredo_neves" />
   <path class="neighborhood"
      d="m 142.92099,0 -1.12448,1.363741 1.84175,1.7859375 1.9265,7.0300615 -6.60839,0.505913 3.24787,1.701188 -3.3321,1.771468 -6.60838,-2.727482 -5.59604,1.082621 -2.69958,-0.393774 -5.6379,4.443139 -4.31653,1.363741 -3.75429,-0.534334 -6.35517,4.780587 0.66094,2.221569 -6.397023,6.031673 0.238745,1.588534 -4.189925,4.134115 -0.731221,5.230171 0.534334,6.060095 -1.124996,2.952275 -2.544548,2.43241 0.505913,1.490865 -1.363741,4.864302 -2.179195,2.671672 -0.196888,5.469433 -4.541324,3.233911 -3.233912,6.523633 0.267168,5.047754 2.193147,1.630908 -0.787032,3.360518 4.217831,3.346049 5.975345,6.341215 1.138949,2.22157 0.660942,6.060091 -0.969967,2.19315 -5.118034,2.96675 -4.414717,-0.43615 -0.815455,2.3766 -5.047753,0.63252 -1.124996,1.99677 -7.311182,-1.05471 -2.657202,2.61534 -0.112655,4.61161 -2.966744,1.58853 1.293462,3.05098 -2.85409,2.76985 -3.753776,-0.7307 -4.724259,-2.30632 -0.422197,2.64376 -3.683496,-1.23765 -0.506429,1.125 -6.172233,3.24786 -2.333707,-3.09335 -4.569747,-0.3514 -5.005379,-1.25108 -0.267168,-2.65772 -2.699576,3.40237 0.351399,3.95118 -2.376082,13.90562 -1.560628,0.85731 0.618567,3.37447 5.469433,7.6631 -3.037024,0.0703 -3.374471,1.86965 -3.669543,-0.0703 0.14056,4.72426 -1.420068,2.68562 -3.641639,-0.57671 2.319755,4.33049 -0.843359,3.38894 1.687236,2.06654 -2.319755,0.95601 2.094962,3.47318 -1.785937,2.6572 -4.9351,0.7028 -2.2494747,-1.98231 -3.2902384,1.78542 -0.6185669,2.2779 -2.8122314,0.0563 L 0,189.50213 l 0.60461425,1.05471 5.20226635,-0.18293 0.9420614,-1.1529 4.049365,0.29507 0.49196,3.48712 5.033284,3.48661 1.575098,6.76341 -3.276286,2.71353 0.633036,1.13895 3.908806,0.59015 -1.209229,5.17436 2.29185,-0.88574 1.968355,-3.06544 3.613216,-1.13843 4.217831,0.81545 1.743563,1.78542 9.294006,4.38681 2.094962,2.40399 3.641638,1.40612 5.441012,4.38681 1.30793,3.38842 0.04186,4.48552 -3.86643,5.34282 -2.319755,6.45336 1.124479,4.65398 -0.942062,3.69796 -0.168465,6.29884 2.08101,5.9893 -0.633036,4.5837 5.638415,6.32726 2.390035,1.08262 5.975863,-0.25321 6.059578,0.49196 4.119645,3.97908 12.204423,0.6749 2.530595,-0.25322 8.23929,-3.97857 -2.291849,4.65398 4.274157,4.07727 4.794538,2.34766 3.96513,0.12661 7.88789,5.32888 1.19476,-0.23875 4.69636,3.02255 2.17919,-0.25269 1.09658,2.29185 3.21995,1.63091 1.36374,2.06654 5.06171,-0.0982 2.02468,2.57297 1.46193,-0.81545 10.78435,2.54506 6.20066,0.014 0.15451,1.08262 8.33748,2.65721 5.7366,6.29884 2.69957,1.22318 5.13199,-3.79615 1.92598,-4.68189 -2.24947,-7.46621 -0.014,-5.49734 3.19154,-2.01073 2.15129,0.8015 0.57671,3.47318 -0.61908,5.01933 2.74195,0.51986 4.80849,3.62769 -1.18132,2.03863 3.24786,2.88252 5.20278,0.78754 1.39165,1.8278 0.66094,3.71192 2.44636,0.88573 2.76986,3.37447 -0.32349,2.41794 1.78593,1.53273 0.43564,3.57135 5.37124,0.82941 2.48822,1.72961 3.19206,6.69262 5.56762,-1.26556 1.81384,1.42007 3.86643,-0.29507 2.36213,1.6309 0.40773,2.41846 5.23017,4.94905 0.53433,2.54455 -1.89807,2.76986 3.36051,1.16737 0.66095,-4.56975 13.93351,-8.68939 5.56762,-6.25647 3.34657,-6.17223 3.8101,-3.02307 -3.29024,-4.47105 -0.71675,-2.86855 h -2.58744 l -2.09496,3.64163 -2.6572,-2.34817 2.54506,-1.16686 -2.22157,-2.02468 h -2.51664 l -0.12661,-3.52898 2.6293,-2.2779 2.39003,0.4222 1.61696,-3.06545 0.56224,-6.95978 2.19366,-3.27577 -1.57509,-9.84229 -5.38469,-3.06493 1.02629,-2.60139 -6.57996,-3.75378 -0.28163,-3.13521 -3.37396,-6.25698 -2.50269,-1.57458 -0.85782,-4.1057 3.52898,-0.9281 1.71514,-2.71353 -0.46354,-3.65559 2.68563,-7.05849 0.36535,-2.85409 4.00699,-4.63951 -0.0563,-2.60139 3.8809,-2.27738 -0.32349,-3.21996 2.12338,-1.77147 0.0419,-2.55901 -4.10569,-6.21461 0.70331,-4.10569 -1.82779,-3.17759 -3.12126,-2.86804 -1.96835,-0.49248 1.30741,-3.24786 -5.98981,0.50643 0.53433,-1.68724 -5.68027,-0.94206 -3.61322,3.20549 -1.27951,4.20388 -3.48712,-0.28112 -0.64699,-3.47266 -3.51452,0.25322 -7.19904,-1.87017 -1.96836,0.74517 -1.81384,-2.29185 -2.93832,0.0279 -3.86695,2.67167 -4.65346,-2.95279 -0.12661,-1.81333 2.26343,-4.30258 4.47104,-4.76663 0.60462,-2.81172 3.59978,-2.27789 0.29507,-4.80849 4.99143,-3.73983 3.21996,-0.0145 2.31975,1.33584 0.49196,-2.41846 -1.603,-1.98231 0.11265,-6.03167 -1.63091,-2.51664 0.61857,-3.95118 -0.12661,-5.77846 -31.46629,0.42168 -3.82457,-2.13734 -0.68885,-2.33371 -4.56923,-1.61695 -1.01234,3.36052 -3.37447,2.03863 -2.93884,-3.76824 -3.16363,-0.23927 -1.18081,-3.28972 -3.95118,-1.04076 -3.1073,-2.58692 -2.89647,-3.75378 0.36587,-1.23765 -2.72748,-2.74143 -0.33745,-3.97909 -1.72961,-4.14755 -1.96835,-1.85622 -4.61161,-1.67328 0.0842,-2.44636 -4.51341,-2.75591 -1.3777,0.26717 -4.76663,-2.9807 -3.54294,-4.89272 -2.01073,-0.28112 -2.84014,-7.77524 0.28112,-2.54506 -2.84013,-6.57996 0.1266,-3.627685 3.99304,1.603002 -1.56063,-3.669543 1.91203,-2.545064 -2.24947,-2.910417 5.27254,-3.796151 4.68189,-0.0987 2.44688,-5.385201 -0.54881,-2.108916 3.47318,-2.516642 0.50591,-1.827795 4.64003,-4.119645 3.19153,1.954402 3.10731,-3.754292 2.34817,-4.386813 -0.84387,-3.078882 -2.22157,0.379822 -1.33532,-3.656107 1.27951,0.393774 1.01234,-4.724259 1.06867,-9.532752 4.33048,-2.685107 -0.35191,-2.587439 -5.21622,-6.7908 -3.58531,-2.572969 -5.68028,-1.884123 -0.84336,-3.388424 3.78168,-3.374471 2.50269,1.589051 -0.60409,-3.656108 2.10891,-2.319755 -0.0703,-3.388424 -2.24999,-4.3728593 -1.81333,-1.434021 -1.37821,-3.852478 -1.92598,-1.60248614 z m -67.586571,169.0765 40.841431,0.31057 -0.0263,26.70225 44.69081,-25.56846 7.62847,14.99546 23.51381,-5.48338 1.78181,6.95306 9.59631,-1.63194 -2.59312,11.6582 -1.46968,-0.65319 -1.58905,-0.18035 -1.38803,0.39171 -1.71617,0.73277 -1.42576,1.4273 -16.7907,34.03772 -1.60921,1.12758 -4.20491,1.53686 -34.69917,3.78788 -3.56206,1.31516 -2.1239,2.89905 -13.47825,32.21457 -21.895817,-36.64892 -15.254882,9.00875 -0.36897,-0.16898 -0.107487,-0.71934 -0.482658,-0.6227 -0.01189,-0.66766 0.408243,-0.58291 0.478007,-0.20567 0.345716,-0.44287 -0.406694,-0.6258 -0.104386,-0.41755 0.367936,-1.18804 -0.187069,-0.47129 -0.104903,-0.70693 0.622701,-0.72399 -0.618567,-0.41393 -0.19637,-0.40876 0.229443,-0.42116 -0.149861,-0.4563 -0.814421,-0.56896 -0.470772,0.0899 -0.590662,-0.67645 -0.140043,-0.85369 -1.307931,-0.154 -1.596801,-0.69505 -0.652157,-0.72812 -0.505395,0.0863 -0.441317,-0.24649 -0.161231,-0.71934 -0.306958,-0.36742 -0.594795,0.19275 -0.777731,-0.0517 -0.500227,-0.49351 0.109554,-0.66198 -0.212391,-0.8754 -0.738973,-0.89503 0.347266,-0.84698 -0.547253,-0.52296 0.09198,-0.52969 -0.211357,-0.44958 0.06408,-0.5209 -0.549837,-0.89194 -0.579293,0.12868 -0.388607,-0.15658 -0.350366,-0.56379 -0.325562,-0.0884 -0.203605,-0.42684 -0.657841,-0.31265 -0.51418,-1.13533 -0.09405,-1.15187 -0.778764,-0.7121 -0.884184,-1.87585 -0.532267,-0.51418 -0.218591,-0.58343 -0.04186,-0.11162 -0.503329,-1.34462 0.09767,-1.86552 0.517797,-0.49971 0.166915,-0.81546 1.757516,-5.17694 0.60203,0.21859 0.09198,-0.30076 0.795301,-0.36431 0.269234,-0.0796 0.282153,-0.45268 0.444417,-0.38758 0.473873,0.10336 0.730188,-0.17002 0.278019,-0.48731 -0.551904,-0.85576 0.03152,-0.57619 1.068152,-0.89297 0.521415,-0.71623 0.451135,-2.22416 0.965833,-0.3793 3.645772,-3.43442 0.0078,-0.60978 z"
      data-name="Zona Rural" id="zona_rural" />
</svg>