<?xml version="1.0" encoding="UTF-8" standalone="no"?>
<svg width="999.99994" height="1338.2395" viewBox="0 0 264.58331 354.07587" version="1.1" id="svg5" xml:space="preserve"
   xmlns="http://www.w3.org/2000/svg" xmlns:svg="http://www.w3.org/2000/svg">

   <defs id="defs2" />
   <path class="neighborhood"
      d="m 78.795166,212.14448 -0.115076,0.0663 2.65e-4,5.3e-4 -0.355076,0.20496 0.172897,0.23001 -4.136943,1.30213 -1.272437,0.0689 -3.662434,1.38752 0.77514,2.49958 -6.322103,1.78381 -0.682858,0.19272 0.04192,0.11184 h 1.4e-4 l 0.218334,0.58326 0.532471,0.51432 0.884024,1.87567 0.728998,-0.25167 15.638558,-4.50313 0.50996,0.19456 0.620676,-0.23297 -2.313041,-3.87148 h 1.38e-4 l -0.0021,-0.004 v -1.4e-4 l -0.901329,-1.53861 z"
      data-name="Honório Roldão" id="honorio_roldao" />
   <path class="neighborhood"
      d="m 82.371501,218.17284 -0.620535,0.23297 -0.50996,-0.19456 -15.638558,4.50313 -0.728858,0.25167 0.778658,0.71212 0.09426,1.15188 0.51404,1.13555 0.657813,0.31273 0.203565,0.42682 0.32539,0.0882 0.35043,0.56398 0.388977,0.15643 0.579033,-0.12843 0.549775,0.89162 -0.06415,0.52079 0.211579,0.44975 -0.092,0.52994 0.54738,0.5229 -0.347334,0.84661 0.739127,0.89514 0.212285,0.87544 -0.10959,0.66189 0.500253,0.49365 0.777814,0.0515 0.594789,-0.19272 0.306541,0.36745 0.161216,0.71957 0.441732,0.24647 0.50546,-0.0864 0.652187,0.72802 1.596562,0.69537 1.307751,0.1539 0.140116,0.85378 0.590711,0.67639 0.470569,-0.09 0.814671,0.56877 0.149823,0.45622 -0.229587,0.42161 0.196527,0.40825 0.618427,0.41402 -0.622364,0.72393 0.104664,0.70719 0.187103,0.47142 -0.368017,1.18803 0.104246,0.4174 0.406979,0.62559 -0.345927,0.443 -0.478025,0.20554 -0.408112,0.58311 0.01196,0.66766 0.482669,0.6225 0.107622,0.71929 0.368578,0.1691 15.255211,-9.00851 z"
      data-name="Morada do Sol" id="morada_do_sol" />
   <path class="neighborhood"
      d="m 118.41454,201.45725 -0.57918,0.20905 -5.14322,3.44424 -5.62926,1.46095 4.15664,10.2341 3.17132,-1.40932 12.91319,-6.89411 -1.67802,-4.51311 -6.47573,-2.42784 z"
      data-name="Galo da Serra" id="galo_da_serra" />
   <path class="neighborhood"
      d="m 160.84031,170.52071 -44.69098,25.56866 v 5.3e-4 l 0.11648,0.0667 9.20461,4.75522 -0.61069,2.78995 0.76628,0.28726 0.1027,0.2763 h 1.4e-4 l 1.57518,4.23682 -12.91319,6.8941 -3.17132,1.40932 -0.56089,0.24928 -15.304725,6.65411 -7.673184,3.35041 29.029769,48.58973 13.47858,-32.21444 2.12397,-2.89897 3.56212,-1.31492 34.699,-3.78806 4.20489,-1.53691 1.60922,-1.12783 16.79086,-34.03751 1.42563,-1.42747 1.71614,-0.7328 1.38794,-0.39122 1.58883,0.18035 1.46995,0.65288 2.59285,-11.65791 -9.59584,1.63174 -1.78184,-6.95319 -23.51375,5.48351 z"
      data-name="Marunga" id="marunga" />
   <path class="neighborhood"
      d="m 75.334606,169.07651 0.0053,29.49331 -0.0073,0.60984 0.02506,-0.002 6.869485,-0.52474 10.329204,-0.78892 v 1.4e-4 l 5.259417,-0.40178 0.222271,2.1023 -0.220303,0.35381 -0.08652,0.0274 -0.427662,-0.12985 -3.332117,0.32286 0.184147,2.22188 1.000366,1.00628 2.504927,1.00909 2.64e-4,-1.4e-4 0.537115,0.22776 3.04035,2.59032 3.46084,-0.009 0.97308,-0.25224 0.003,-7.9e-4 1.38738,-0.36 5.62926,-1.46095 5.14322,-3.44423 0.57917,-0.20905 0.73575,0.10396 5.70945,2.14056 0.61069,-2.78994 -9.20462,-4.75522 -0.11648,-0.0667 v -1.4e-4 h -7.9e-4 l 7.9e-4,-5.3e-4 0.0263,-26.70253 z m 22.326291,35.29968 -1.812791,1.4158 -0.98503,0.33579 -1.878626,1.33477 -0.428083,0.26081 v 1.4e-4 l 0.428083,-0.26081 1.878626,-1.33476 0.98503,-0.3358 z m 28.067813,-0.11085 1.57532,4.23682 -1.57518,-4.23682 z"
      data-name="Orquídeas" id="orquideas" />
   <path class="neighborhood"
      d="m 91.804876,205.42959 -1.097719,0.35733 -1.983147,-0.006 -2.503662,-0.0625 -3.053856,0.69903 0.165862,1.21504 0.422598,4.85286 0.07372,-0.0335 -2.65e-4,-0.003 3.330009,-2.22821 1.520595,-0.47395 2.850012,-1.39708 1.455462,-0.88697 0.03348,-0.0238 -0.729419,-1.93602 z"
      data-name="José Dutra" id="jose_dutra" />
   <path class="neighborhood"
      d="m 82.227182,198.6531 -6.894531,0.5267 -3.646109,3.43439 -0.965904,0.37885 -0.451014,2.22441 -0.521356,0.71634 -1.068173,0.89274 -0.03179,0.57608 0.551881,0.85604 -0.277556,0.48716 -0.730266,0.17008 -0.473946,-0.10339 -0.444404,0.38743 -0.282485,0.45298 -0.268976,0.0793 -0.795538,0.36478 -0.09172,0.30035 -0.602248,-0.21833 -1.7575,5.1767 -0.166703,0.81579 -0.517837,0.49969 -0.09777,1.86512 0.503346,1.34461 7.00496,-1.97653 -0.775139,-2.49958 3.662431,-1.38752 1.272443,-0.0689 4.13694,-1.30212 -0.172895,-0.23001 0.355071,-0.20497 -2.65e-4,-5.3e-4 0.115076,-0.0663 1.192818,2.03619 0.110009,-0.0366 h 2.64e-4 v -1.4e-4 l 3.656666,-1.65846 -0.422598,-4.853 -0.560466,-4.10683 -0.112824,-1.9176 z"
      data-name="Centro" id="centro" />
   <path class="neighborhood"
      d="m 97.661193,204.37605 -1.813071,1.41607 -0.98503,0.3358 -1.878626,1.33476 -1.455463,0.88698 -2.850012,1.39708 -1.520595,0.47395 -3.330009,2.22821 2.65e-4,0.003 -3.730382,1.69194 v 1.4e-4 h -2.64e-4 l -0.110152,0.0366 0.0709,0.12098 h -1.42e-4 l 7.622119,12.75774 7.673186,-3.35041 15.304733,-6.6541 0.56088,-0.24929 -4.15664,-10.2341 -1.38737,0.36 -0.003,7.9e-4 -0.97308,0.25238 -3.46084,0.009 -3.040351,-2.59032 z"
      data-name="Aida Mendonça" id="aida_mendonca" />
   <path class="neighborhood"
      d="m 94.155334,202.35787 -4.944578,0.81411 -6.421284,0.48253 0.37702,2.76293 3.053856,-0.69904 2.503662,0.0625 1.983147,0.006 1.097719,-0.35733 0.483651,0.0731 0.729419,1.93602 1.845146,-1.31098 0.98503,-0.3358 1.812788,-1.41579 -2.504927,-1.00909 -1.000366,-1.00628 z"
      data-name="Sol Nascente" id="sol_nascente" />
   <path class="neighborhood"
      d="m 97.815797,197.46239 -15.588615,1.19071 0.431882,2.95495 0.112824,1.9176 0.01759,0.12886 6.421284,-0.48253 4.944579,-0.81411 -0.183867,-2.21893 3.332117,-0.32285 0.427668,0.12984 0.08652,-0.0274 0.220302,-0.35381 z"
      data-name="Tancredo Neves" id="tancredo_neves" />
   <path class="neighborhood"
      d="M 142.92099 0 L 141.79651 1.363741 L 143.63826 3.1496785 L 145.56476 10.17974 L 138.95637 10.685653 L 142.20424 12.386841 L 138.87214 14.158309 L 132.26376 11.430827 L 126.66772 12.513448 L 123.96814 12.119674 L 118.33024 16.562813 L 114.01371 17.926554 L 110.25942 17.39222 L 103.90425 22.172807 L 104.56519 24.394376 L 98.168167 30.426049 L 98.406912 32.014583 L 94.216987 36.148698 L 93.485766 41.378869 L 94.0201 47.438964 L 92.895104 50.391239 L 90.350556 52.823649 L 90.856469 54.314514 L 89.492728 59.178816 L 87.313533 61.850488 L 87.116645 67.319921 L 82.575321 70.553832 L 79.341409 77.077465 L 79.608577 82.125219 L 81.801724 83.756127 L 81.014692 87.116645 L 85.232523 90.462694 L 91.207868 96.803909 L 92.346817 99.025479 L 93.007759 105.08557 L 92.037792 107.27872 L 86.919758 110.24547 L 82.505041 109.80932 L 81.689586 112.18592 L 76.641833 112.81844 L 75.516837 114.81521 L 68.205655 113.7605 L 65.548453 116.37584 L 65.435798 120.98745 L 62.469054 122.57598 L 63.762516 125.62696 L 60.908426 128.39681 L 57.15465 127.66611 L 52.430391 125.35979 L 52.008194 128.00355 L 48.324698 126.7659 L 47.818269 127.8909 L 41.646036 131.13876 L 39.312329 128.04541 L 34.742582 127.69401 L 29.737203 126.44293 L 29.470035 123.78521 L 26.770459 127.18758 L 27.121858 131.13876 L 24.745776 145.04438 L 23.185148 145.90169 L 23.803715 149.27616 L 29.273148 156.93926 L 26.236124 157.00954 L 22.861653 158.87919 L 19.19211 158.80891 L 19.33267 163.53317 L 17.912602 166.21879 L 14.270963 165.64208 L 16.590718 169.97257 L 15.747359 173.36151 L 17.434595 175.42805 L 15.11484 176.38406 L 17.209802 179.85724 L 15.423865 182.51444 L 10.488765 183.21724 L 8.2392903 181.23493 L 4.9490519 183.02035 L 4.330485 185.29825 L 1.5182536 185.35458 L 0 189.50213 L 0.60461425 190.55684 L 5.8068806 190.37391 L 6.748942 189.22101 L 10.798307 189.51608 L 11.290267 193.0032 L 16.323551 196.48981 L 17.898649 203.25322 L 14.622363 205.96675 L 15.255399 207.1057 L 19.164205 207.69585 L 17.954976 212.87021 L 20.246826 211.98447 L 22.215181 208.91903 L 25.828397 207.7806 L 30.046228 208.59605 L 31.789791 210.38147 L 41.083797 214.76828 L 43.178759 217.17227 L 46.820397 218.57839 L 52.261409 222.9652 L 53.569339 226.35362 L 53.611197 230.83914 L 49.744767 236.18196 L 47.425012 242.63532 L 48.549491 247.2893 L 47.607429 250.98726 L 47.438964 257.2861 L 49.519974 263.2754 L 48.886938 267.8591 L 54.525353 274.18636 L 56.915388 275.26898 L 62.891251 275.01577 L 68.950829 275.50773 L 73.070474 279.48681 L 85.274897 280.16171 L 87.805492 279.90849 L 96.044782 275.92992 L 93.752933 280.5839 L 98.02709 284.66117 L 102.82163 287.00883 L 106.78676 287.13544 L 114.67465 292.46432 L 115.86941 292.22557 L 120.56577 295.24812 L 122.74496 294.99543 L 123.84154 297.28728 L 127.06149 298.91819 L 128.42523 300.98473 L 133.48694 300.88654 L 135.51162 303.45951 L 136.97355 302.64406 L 147.7579 305.18912 L 153.95856 305.20307 L 154.11307 306.28569 L 162.45055 308.9429 L 168.18715 315.24174 L 170.88672 316.46492 L 176.01871 312.66877 L 177.94469 307.98688 L 175.69522 300.52067 L 175.68126 295.02333 L 178.8728 293.0126 L 181.02409 293.8141 L 181.6008 297.28728 L 180.98172 302.30661 L 183.72367 302.82647 L 188.53216 306.45416 L 187.35084 308.49279 L 190.5987 311.37531 L 195.80148 312.16285 L 197.19313 313.99065 L 197.85407 317.70257 L 200.30043 318.5883 L 203.07029 321.96277 L 202.7468 324.38071 L 204.53273 325.91344 L 204.96837 329.48479 L 210.33961 330.3142 L 212.82783 332.04381 L 216.01989 338.73643 L 221.58751 337.47087 L 223.40135 338.89094 L 227.26778 338.59587 L 229.62991 340.22677 L 230.03764 342.64523 L 235.26781 347.59428 L 235.80214 350.13883 L 233.90407 352.90869 L 237.26458 354.07606 L 237.92553 349.50631 L 251.85904 340.81692 L 257.42666 334.56045 L 260.77323 328.38822 L 264.58333 325.36515 L 261.29309 320.8941 L 260.57634 318.02555 L 257.9889 318.02555 L 255.89394 321.66718 L 253.23674 319.31901 L 255.7818 318.15215 L 253.56023 316.12747 L 251.04359 316.12747 L 250.91698 312.59849 L 253.54628 310.32059 L 255.93631 310.74279 L 257.55327 307.67734 L 258.11551 300.71756 L 260.30917 297.44179 L 258.73408 287.5995 L 253.34939 284.53457 L 254.37568 281.93318 L 247.79572 278.1794 L 247.51409 275.04419 L 244.14013 268.78721 L 241.63744 267.21263 L 240.77962 263.10693 L 244.3086 262.17883 L 246.02374 259.4653 L 245.5602 255.80971 L 248.24583 248.75122 L 248.61118 245.89713 L 252.61817 241.25762 L 252.56184 238.65623 L 256.44274 236.37885 L 256.11925 233.15889 L 258.24263 231.38742 L 258.28449 228.82841 L 254.1788 222.6138 L 254.88211 218.50811 L 253.05432 215.33052 L 249.93306 212.46248 L 247.96471 211.97 L 249.27212 208.72214 L 243.28231 209.22857 L 243.81664 207.54133 L 238.13637 206.59927 L 234.52315 209.80476 L 233.24364 214.00864 L 229.75652 213.72752 L 229.10953 210.25486 L 225.59501 210.50808 L 218.39597 208.63791 L 216.42761 209.38308 L 214.61377 207.09123 L 211.67545 207.11914 L 207.8085 209.79081 L 203.15504 206.83802 L 203.02843 205.02469 L 205.29186 200.72211 L 209.7629 195.95548 L 210.36752 193.14376 L 213.9673 190.86587 L 214.26237 186.05738 L 219.2538 182.31755 L 222.47376 182.30308 L 224.79351 183.63892 L 225.28547 181.22046 L 223.68247 179.23815 L 223.79512 173.20648 L 222.16421 170.68984 L 222.78278 166.73866 L 222.65617 160.9602 L 191.18988 161.38188 L 187.36531 159.24454 L 186.67646 156.91083 L 182.10723 155.29388 L 181.09489 158.6544 L 177.72042 160.69303 L 174.78158 156.92479 L 171.61795 156.68552 L 170.43714 153.3958 L 166.48596 152.35504 L 163.37866 149.76812 L 160.48219 146.01434 L 160.84806 144.77669 L 158.12058 142.03526 L 157.78313 138.05617 L 156.05352 133.90862 L 154.08517 132.0524 L 149.47356 130.37912 L 149.55779 127.93276 L 145.04438 125.17685 L 143.66668 125.44402 L 138.90005 122.46332 L 135.35711 117.5706 L 133.34638 117.28948 L 130.50624 109.51424 L 130.78736 106.96918 L 127.94723 100.38922 L 128.07383 96.761535 L 132.06687 98.364537 L 130.50624 94.694994 L 132.41827 92.14993 L 130.1688 89.239513 L 135.44134 85.443362 L 140.12323 85.344661 L 142.57011 79.95946 L 142.0213 77.850544 L 145.49448 75.333902 L 146.00039 73.506107 L 150.64042 69.386462 L 153.83195 71.340864 L 156.93926 67.586572 L 159.28743 63.199759 L 158.44356 60.120877 L 156.22199 60.500699 L 154.88667 56.844592 L 156.16618 57.238366 L 157.17852 52.514107 L 158.24719 42.981355 L 162.57767 40.296248 L 162.22576 37.708809 L 157.00954 30.918009 L 153.42423 28.34504 L 147.74395 26.460917 L 146.90059 23.072493 L 150.68227 19.698022 L 153.18496 21.287073 L 152.58087 17.630965 L 154.68978 15.31121 L 154.6195 11.922786 L 152.36951 7.5499267 L 150.55618 6.1159057 L 149.17797 2.2634277 L 147.25199 0.66094156 L 142.92099 0 z M 75.334419 169.0765 L 116.17585 169.38707 L 116.1495 196.08932 L 160.84031 170.52086 L 168.46878 185.51632 L 191.98259 180.03294 L 193.7644 186.986 L 203.36071 185.35406 L 200.76759 197.01226 L 199.29791 196.35907 L 197.70886 196.17872 L 196.32083 196.57043 L 194.60466 197.3032 L 193.1789 198.7305 L 176.3882 232.76822 L 174.77899 233.8958 L 170.57408 235.43266 L 135.87491 239.22054 L 132.31285 240.5357 L 130.18895 243.43475 L 116.7107 275.64932 L 94.814883 239.0004 L 79.560001 248.00915 L 79.191031 247.84017 L 79.083544 247.12083 L 78.600886 246.49813 L 78.589001 245.83047 L 78.997244 245.24756 L 79.475251 245.04189 L 79.820967 244.59902 L 79.414273 243.97322 L 79.309887 243.55567 L 79.677823 242.36763 L 79.490754 241.89634 L 79.385851 241.18941 L 80.008552 240.46542 L 79.389985 240.05149 L 79.193615 239.64273 L 79.423058 239.22157 L 79.273197 238.76527 L 78.458776 238.19631 L 77.988004 238.28623 L 77.397342 237.60978 L 77.257299 236.75609 L 75.949368 236.60209 L 74.352567 235.90704 L 73.70041 235.17892 L 73.195015 235.26522 L 72.753698 235.01873 L 72.592467 234.29939 L 72.285509 233.93197 L 71.690714 234.12472 L 70.912983 234.07305 L 70.412756 233.57954 L 70.52231 232.91756 L 70.309919 232.04216 L 69.570946 231.14713 L 69.918212 230.30015 L 69.370959 229.77719 L 69.462943 229.2475 L 69.251586 228.79792 L 69.315665 228.27702 L 68.765828 227.38508 L 68.186535 227.51376 L 67.797928 227.35718 L 67.447562 226.79339 L 67.122 226.70502 L 66.918395 226.27818 L 66.260554 225.96553 L 65.746374 224.8302 L 65.652323 223.67833 L 64.873559 222.96623 L 63.989375 221.09038 L 63.457108 220.5762 L 63.238517 219.99277 L 63.196659 219.88115 L 62.69333 218.53653 L 62.790999 216.67101 L 63.308796 216.1713 L 63.475711 215.35584 L 65.233227 210.1789 L 65.835257 210.39749 L 65.927241 210.09673 L 66.722542 209.73242 L 66.991776 209.65283 L 67.273929 209.20015 L 67.718346 208.81257 L 68.192219 208.91593 L 68.922407 208.74591 L 69.200426 208.2586 L 68.648522 207.40284 L 68.680045 206.82665 L 69.748197 205.93368 L 70.269612 205.21745 L 70.720747 202.99329 L 71.68658 202.61399 L 75.332352 199.17957 L 75.340103 198.56979 L 75.334419 169.0765 z "
      data-name="Zona Rural" id="zona_rural" />
</svg>