<?xml version="1.0" encoding="UTF-8" standalone="no"?>
<svg
   width="415.27615mm"
   height="674.76654mm"
   viewBox="0 0 415.27615 674.76654"
   version="1.1"
   id="svg5"
   xml:space="preserve"
   xmlns="http://www.w3.org/2000/svg"
   xmlns:svg="http://www.w3.org/2000/svg"><defs
     id="defs2" /><path
     style="display:inline;fill:#000000;stroke-width:2.64583;stroke:none"
     d="m 234.00836,68.807795 10.85648,2.491653 h 8.72078 l 1.60178,-1.245825 h 3.5595 l 5.51723,-1.957729 3.02559,0.711901 -5.78419,6.140143 -0.26697,1.423802 2.40266,4.004443 -3.5595,9.96661 -2.40267,4.360392 -4.2714,2.491653 -2.04671,-0.35595 -0.44494,-0.711904 0.17797,-2.224688 -3.29254,-2.402665 -2.40266,0.266962 -2.04672,-0.711901 -3.20355,-0.08899 -3.11457,-1.156837 -0.26696,-0.978863 v -3.470514 l -1.86874,-6.941032 -1.77975,-3.470518 -0.089,-4.983303 z"
     id="ajapi" /><path
     style="display:inline;fill:#000000;stroke-width:2.64583;stroke:none"
     d="m 159.51165,305.74628 2.83156,-2.83157 -2.57987,-4.53051 -2.57999,1.38433 -1.88759,-3.39789 -2.13941,-0.44045 -3.14619,1.51016 2.01356,4.15295 3.33496,-0.75506 1.0697,2.45401 2.20234,0.81801 z"
     id="boa_vista" /><path
     id="boa_esperanca"
     style="display:inline;fill:#000000;stroke-width:2.64583;stroke:none"
     d="m 159.9522,48.199642 -10.48205,1.564762 -52.324456,83.292596 -63.537202,68.52036 1.423686,24.73854 2.847371,6.40685 9.966833,10.1446 23.314856,16.19591 62.113002,66.74063 12.45867,13.34802 2.6696,-3.40444 -0.17828,-7.98556 4.09329,-12.10262 7.19388,-9.91309 -0.88057,-1.63608 -2.20245,-0.81804 -1.0697,-2.45359 -3.3352,0.75499 -2.01331,-4.15324 3.14606,-1.50998 2.1394,0.44028 1.88774,3.39824 2.58021,-1.38441 2.57969,4.53048 6.70398,-6.98459 11.4794,-11.77241 4.27158,1.69085 5.51697,10.08156 3.55999,3.26647 3.47007,-1.15704 3.38171,-5.60586 6.05131,-2.84789 4.51962,1.24747 -4.65656,-7.29929 -0.88057,-4.27881 -5.28598,-6.54379 -2.01332,-15.47967 -3.39772,-29.95166 0.50333,-8.6832 2.26498,-2.1394 3.52381,-9.56427 0.88108,-8.18038 2.8944,-9.81594 1.00666,-5.53713 0.50333,-4.78265 -0.25167,-7.55045 -3.90105,-13.96917 0.12557,-4.90823 -1.13223,-1.88774 -2.89491,-2.51664 -3.27164,-8.18038 -0.62942,-5.15989 0.755,-16.61139 -0.755,-6.04098 -9.4387,-19.254637 -17.87022,-24.401611 -9.69037,-10.080522 -0.50333,-3.523816 z" /><path
     id="distrito_industrial"
     style="display:inline;fill:#000000;stroke-width:2.64583;stroke:none"
     d="m 340.16549,0 -4.27881,10.067602 -4.02715,4.530473 -5.53713,7.299296 -6.04045,1.258321 -9.18704,6.166549 -4.02714,2.265495 -5.03381,4.404382 -6.66987,4.656563 -10.31979,10.697022 -3.14606,4.530473 -9.4387,8.179862 -5.16971,4.751648 -5.78414,6.140194 -0.26717,1.423685 2.40296,4.004407 -3.55999,9.966834 -2.40244,4.360457 -4.27158,2.491325 -2.04638,-0.35554 -0.44494,-0.712099 0.17777,-2.224671 -3.2923,-2.402437 -2.40296,0.26665 -2.04639,-0.711584 -3.20393,-0.0894 -3.11454,-1.156519 -0.26665,-0.978751 v -3.47059 l -1.86914,-6.941178 -1.77974,-3.470589 -0.0889,-4.983159 0.97875,-1.157035 -1.63091,-5.317505 -5.34851,-8.117334 -8.9979,-1.132747 -3.83852,-0.377755 -5.60018,2.391585 -1.95078,-1.258838 -10.57093,2.517159 -8.05429,0.251665 -3.02049,-1.006657 -2.26498,0.125574 -17.24132,-8.557618 -5.53713,-0.125573 -2.76883,6.292122 0.50333,3.523816 9.69037,10.080522 17.87022,24.401611 9.4387,19.254637 0.755,6.04098 -0.755,16.61139 0.62942,5.15989 3.27164,8.18038 2.89491,2.51664 1.13223,1.88774 -0.12557,4.90823 3.90105,13.96917 0.25167,7.55045 -0.50333,4.78265 -1.00666,5.53713 -2.8944,9.81594 -0.88108,8.18038 -3.52381,9.56427 -2.26498,2.1394 -0.50333,8.6832 3.39772,29.95166 2.01332,15.47967 5.28598,6.54379 0.88057,4.27881 4.65656,7.29929 4.27881,0.25167 2.26498,-0.50333 3.14657,0.12557 1.00666,-1.25832 8.43153,-2.1394 3.6499,-13.59142 h 5.91489 l 6.79545,3.27215 0.88108,-6.66988 8.68371,1.00666 1.63556,-1.00666 7.67705,-1.63607 -1.00666,-5.91489 0.50333,-9.81645 16.61191,4.53099 7.55044,-6.04098 9.06146,2.64273 2.8944,-10.0676 -0.12609,-4.4049 1.25832,-1.88774 10.44536,-29.32224 102.41961,-83.88945 -58.75042,-97.834342 z" /><path
     id="parque_mae_preta"
     style="display:inline;fill:#000000;stroke-width:2.64583;stroke:none"
     d="m 265.66409,268.68438 -7.67705,1.63607 -1.63556,1.00666 -8.68371,-1.00666 -0.88108,6.66988 -6.79545,-3.27215 h -5.91489 l -3.6499,13.59142 1.25884,2.39106 20.26129,7.04764 1.00666,-0.37776 1.13275,1.38441 1.63607,-0.37775 0.62942,-2.39107 12.33258,-13.59142 z" /><path
     style="fill:#000000;stroke-width:2.64583;stroke:none"
     d="m 256.35148,294.98613 7.46772,0.20608 8.36483,4.09345 -0.88987,-3.11457 2.31367,-0.53393 -3.29252,-12.4175 -1.63124,-1.82496 z"
     id="vila_industrial" /><path
     style="fill:#000000;stroke-width:2.64583;stroke:none"
     d="m 231.68529,289.70065 -2.34878,7.18233 17.75302,5.51725 -7.43046,7.65291 4.62735,3.20358 -1.14914,1.42473 1.0697,4.15298 8.18009,-1.0068 4.15297,5.09683 2.64279,2.70571 2.13942,0.94388 4.34173,4.02711 7.17331,3.27202 v -3.27202 l -4.15322,-6.66993 v -5.78898 l -12.33259,-9.43856 v -8.05423 l 3.64936,-2.89452 -3.64936,-2.76881 -0.62942,2.39107 -1.63607,0.37774 -1.13275,-1.38441 -1.00666,0.37778 z"
     id="arco-iris" /><path
     style="fill:#000000;stroke-width:2.64583;stroke:none"
     d="m 220.98824,290.70731 0.12574,7.04763 -6.92161,0.75512 -2.89447,0.7756 v 6.14601 l 5.03387,10.94872 -0.25169,-3.27202 9.8161,1.76186 3.44033,-17.98725 2.34878,-7.18233 -1.25884,-2.39106 -8.43155,2.13942 z"
     id="jardim_floridiana" /><path
     style="fill:#000000;stroke-width:2.64583;stroke:none"
     d="m 225.89618,314.87023 8.18008,1.51016 5.58281,-6.32725 7.43046,-7.65291 -17.75302,-5.51725 z"
     id="jardim_america" /><path
     style="fill:#000000;stroke-width:2.64583;stroke:none"
     d="m 211.29788,290.83341 h 2e-5 l 0.50337,1.82473 0.94385,-0.0315 0.12585,1.38433 1.3214,4.49905 6.92161,-0.75512 -0.12574,-7.04763 -3.14657,-0.12557 -2.26498,0.50335 z"
     id="santa_clara" /><path
     style="fill:#000000;stroke-width:2.64583;stroke:none"
     d="m 193.87519,299.19673 2.00637,0.94933 0.31462,0.62923 3.7125,-1.06968 0.25169,0.94385 11.13753,-1.3638 2.89447,-0.77565 -1.3214,-4.49906 -0.12585,-1.38432 -0.94385,0.0315 -0.50339,-1.82473 -4.5196,-1.24748 -6.05131,2.8479 -3.38171,5.60586 z"
     id="jardim_hipodromo" /><path
     style="display:inline;fill:#000000;stroke-width:2.64583;stroke:none"
     d="m 168.01397,297.00678 2.50174,3.03527 7.34148,1.33482 2.49165,-0.60158 5.91767,8.47699 4.18242,-1.33483 -4.44938,-10.27805 -1.95772,-1.70921 1.95772,-1.93929 3.29038,0.0658 -4.4917,-8.20804 -4.27158,-1.69085 z"
     id="jardim_res._sao_jose" /><path
     style="fill:#000000;stroke-width:2.64583;stroke:none"
     d="m 159.51165,305.74628 0.39229,1.77073 3.2258,1.35705 3.2703,0.0445 7.36372,11.41267 3.20355,-5.38377 -0.0445,-4.04892 3.51501,0.75639 2.8476,2.04671 2.98108,-4.44936 -5.91767,-8.47699 -2.49165,0.60158 -7.34148,-1.33482 -2.50174,-3.03527 -5.6707,5.90806 z"
     id="santa_maria" /><path
     style="fill:#000000;stroke-width:2.64583;stroke:none"
     d="m 153.43199,314.12355 2.26729,1.0464 0.4774,-1.11236 0.85741,-0.35595 0.84538,0.35595 0.88988,3.95996 3.91545,-1.37932 1.4683,2.75862 9.61066,0.93438 -7.36372,-11.41267 -1.63515,-0.0222 -1.63515,-0.0222 -3.2258,-1.35705 -0.39229,-1.77072 z"
     id="recanto_paraiso" /><path
     style="fill:#000000;stroke-width:2.64583;stroke:none"
     d="m 149.43858,324.17144 7.96512,0.3261 0.81801,-1.7304 1.28994,0.69218 4.53051,-1.79335 0.11094,-2.26912 -1.4683,-2.75862 -3.91545,1.37932 -0.88988,-3.95996 -0.84538,-0.35595 -0.85741,0.35595 -0.4774,1.11236 -2.26729,-1.0464 -1.11447,1.53574 z"
     id="jardim_panorama" /><path
     style="fill:#000000;stroke-width:2.64583;stroke:none"
     d="m 148.22423,327.76192 3.07587,3.028 1.16409,-0.69215 0.9678,0.94384 1.80084,-0.0629 3.39789,-6.48116 h -1.22702 l -7.96512,-0.3261 z"
     id="jardim_das_paineiras" /><path
     style="fill:#000000;stroke-width:2.64583;stroke:none"
     d="m 190.44893,307.91745 6.31356,-3.17796 1.25848,-1.636 -1.82479,-2.3282 -0.31462,-0.62923 -2.00637,-0.94933 -3.55999,-3.26646 -1.02527,-1.87357 -3.29038,-0.0658 -1.95772,1.93929 1.95772,1.70921 z"
     id="jardim_ipanema" /><path
     style="fill:#000000;stroke-width:2.64583;stroke:none"
     d="m 198.02097,303.10349 v 3.52372 h 4.09004 l 9.18689,-1.19554 v -6.14601 l -11.13753,1.3638 -0.25169,-0.94385 -3.7125,1.06968 z"
     id="parque_das_industrias" /><path
     style="fill:#000000;stroke-width:2.64583;stroke:none"
     d="m 190.44893,307.91745 4.11123,9.53265 -4.97097,0.44045 -6.30377,-4.18891 2.98108,-4.44936 z"
     id="jardim_azul" /><path
     style="fill:#000000;stroke-width:2.64583;stroke:none"
     d="m 202.11101,306.62721 -0.0629,3.08327 -4.53051,1.76186 2.01356,1.8877 4.2159,0.81801 0.28674,2.51696 7.26412,-0.31462 5.66311,1.51016 -0.62924,-1.51016 -5.03387,-10.94872 z"
     id="jardim_independencia" /><path
     style="fill:#000000;stroke-width:2.64583;stroke:none"
     d="m 194.56016,317.4501 9.47364,-0.75509 -0.28674,-2.51696 -4.2159,-0.81801 -2.01356,-1.8877 4.53051,-1.76186 0.0629,-3.08327 h -4.09004 v -3.52372 l -1.25848,1.636 -6.31356,3.17796 z"
     id="jardim_cherveson" /><path
     style="fill:#000000;stroke-width:2.64583;stroke:none"
     d="m 173.76376,320.33123 3.11484,4.98432 1.82478,-0.81801 4.58204,-10.7959 -2.8476,-2.04671 -3.51501,-0.75639 0.0445,4.04892 z"
     id="jardim_cidade_azul" /><path
     style="fill:#000000;stroke-width:2.64583;stroke:none"
     d="m 176.8786,325.31555 3.14618,4.53052 3.64958,-1.76186 1.13262,-2.76866 5.64195,-1.63602 1.65721,-2.20231 -2.51695,-3.58667 -6.30377,-4.18891 -4.58204,10.7959 z"
     id="jardim_olinda" /><path
     style="fill:#000000;stroke-width:2.64583;stroke:none"
     d="m 164.04216,321.66597 1.38432,1.88772 -1.27338,1.25847 1.96554,4.59343 -0.50339,0.44048 4.15296,11.01164 14.27362,-5.1104 -4.01705,-5.90124 -3.14618,-4.53052 -3.11484,-4.98432 -9.61066,-0.93438 z"
     id="parque_universitario" /><path
     style="fill:#000000;stroke-width:2.64583;stroke:none"
     d="m 145.73291,339.15191 3.70567,1.26535 3.02561,3.58664 0.96328,-5.3485 v -5.03391 l 7.72019,7.23622 -0.818,0.94387 5.60021,3.14619 3.7125,-0.75509 0.12584,-3.33497 -4.15296,-11.01164 0.50339,-0.44048 -1.96554,-4.59343 1.27338,-1.25847 -1.38432,-1.88772 -4.53051,1.79335 -1.28994,-0.69218 -0.81801,1.7304 h 1.22702 l -3.39789,6.48116 -1.80084,0.0629 -0.9678,-0.94384 -1.16409,0.69215 -3.07587,-3.028 0.17828,7.98555 z"
     id="jardim_paulista_ii" /><path
     style="fill:#000000;stroke-width:2.64583;stroke:none"
     d="m 165.92987,344.94777 -1.88771,3.81497 -3.35958,0.35597 -4.80533,-1.95773 -3.41306,-3.15708 0.96328,-5.3485 v -5.03391 l 7.72019,7.23622 -0.818,0.94387 z"
     id="jardim_res._santa_eliza" /><path
     style="fill:#000000;stroke-width:2.64583;stroke:none"
     d="m 164.04216,348.76274 3.9374,-1.33479 4.90951,0.53393 -1.17203,-4.27141 0.089,-2.32037 -2.09571,1.02169 -0.0679,1.80089 -3.7125,0.75509 z"
     id="jardim_matheus_maniero" /><path
     style="display:inline;fill:#000000;stroke-width:2.64583;stroke:none"
     d="m 35.032178,226.3159 -12.505483,3.22974 -1.636017,5.0339 6.795762,26.30212 -4.278813,8.55763 -6.795763,7.04746 L 0,303.41811 l 18.499576,63.6788 5.033898,-0.50339 5.033899,-2.01356 4.152966,-3.52372 7.173304,-12.33305 2.642798,-3.52372 4.027117,-1.63603 6.41822,0.37754 7.425,1.38432 23.785171,9.94196 32.342791,17.36693 4.53051,0.62926 4.53051,-1.38433 1.38432,-2.76865 -4.52689,-3.90128 v -5.53728 l 2.63918,-2.39109 0.88093,-5.53731 3.77542,1.25849 0.50339,-1.13262 11.20043,7.04744 0.88093,-1.76186 -3.52373,-2.26526 -0.25169,-3.27202 -1.25848,-0.5034 0.75508,-1.99557 h 1.51017 l 0.13894,-0.73416 -0.42269,-1.04561 0.62291,-1.09008 -2.58064,-4.40489 -3.20355,0.71191 -0.40687,-1.69817 -3.77543,-0.81799 0.56632,-0.88781 -0.75509,-0.99991 -1.0697,-0.2517 0.0629,-3.2091 -1.32139,-1.38433 2.26525,-2.64279 -0.18877,-1.76186 1.19555,-1.29569 1.76186,1.48444 -0.0922,-3.16465 0.91196,-0.12242 -9.6353,-10.35318 -20.52076,-22.04963 -3.806616,-4.09022 -28.150266,-30.24761 -23.314855,-16.19591 -9.966833,-10.1446 z"
     id="jardim_sigal" /><path
     style="display:inline;fill:#000000;stroke-width:2.64583;stroke:none"
     d="m 140.39318,374.39111 -1.70929,-1.4423 -0.25169,-2.01356 0.69216,-0.69215 -0.18877,-1.63602 2.57987,-3.33494 -0.75508,-2.13943 0.44046,-1.19554 -0.94385,-0.0629 -0.50339,-0.88093 1.69894,-2.0765 -11.20043,-7.04744 -0.50339,1.13262 -3.77542,-1.25849 -0.88093,5.53731 -2.63918,2.39109 v 5.53728 l 4.52689,3.90128 -1.38432,2.76865 -4.53059,1.38438 0.90795,2.19575 12.90309,0.26665 2.93677,0.53383 z"
     id="novo_jardim_wenzel" /><path
     id="res._florenca"
     style="fill:#000000;stroke-width:2.64583;stroke:none"
     d="m 415.27615,124.51385 -102.41959,83.88945 -10.44536,29.32224 -1.25832,1.88774 0.12609,4.4049 -2.8944,10.0676 -9.06146,-2.64273 -7.55044,6.04098 -16.61191,-4.53099 -0.50333,9.81645 1.00666,5.91489 3.01997,12.71033 1.63143,1.8247 3.2923,12.41784 -2.31355,0.53382 0.88987,3.11454 -8.36487,-4.09329 -7.46776,-0.20619 3.64939,2.76882 -3.64939,2.8944 v 8.05429 l 12.33258,9.4387 v 5.78879 l 4.15324,6.66988 v 3.27215 l -5.7888,5.41156 2.64274,1.50998 1.76164,5.91489 -3.90105,6.66988 3.77548,3.90157 -4.65656,1.13223 -1.13275,3.02048 -5.53713,4.02715 3.14606,4.4049 12.83643,8.43152 h 2.64273 l 11.32644,5.41156 9.4387,1.25832 31.46165,-1.63607 7.67653,-0.25167 14.4725,4.15324 24.45432,-84.20933 21.89117,-74.39391 z" /><path
     id="campo_do_cocho"
     style="display:inline;fill:#000000;stroke-width:2.64583;stroke:none"
     d="m 46.563773,343.56353 -4.027144,1.63607 -2.642733,3.52382 -7.173722,12.33258 -4.152718,3.52382 -5.033801,2.01383 -5.034318,0.50332 14.30817,45.3807 14.593941,2.6696 18.542538,7.82588 8.180379,0.62942 26.580805,-8.98912 16.37368,-8.54263 6.94066,-0.97875 5.16144,-3.73776 5.25032,-1.24591 9.5219,0.17828 5.16093,-1.77974 1.77974,-1.95802 -3.73724,-1.60145 v -1.86914 l 3.02565,-3.64835 2.40244,-6.22908 -2.40244,-2.58072 -3.82664,2.0469 -5.96243,-8.27598 -2.5802,1.86862 -2.93677,-0.53381 -12.90309,-0.26666 -0.90795,-2.19573 -4.53048,-0.62942 -32.342722,-17.36689 -23.785112,-9.94203 -7.42487,-1.38441 z" /><path
     id="jardim_nova_rio_claro"
     style="display:inline;fill:#000000;stroke-width:2.64583;stroke:none"
     d="m 149.1141,398.50694 -5.16093,1.77974 -9.5219,-0.17828 -5.25032,1.24591 -5.16144,3.73776 -6.94066,0.97875 -16.37368,8.54263 -26.580805,8.98912 -8.180379,-0.62942 -18.542538,-7.82588 -14.593941,-2.6696 10.609688,225.56866 8.557618,-0.50333 12.836425,14.85026 2.013831,4.02714 110.494031,18.34617 -5.03381,-28.91762 -1.76216,-40.27093 -4.78214,-12.33309 2.2655,-7.55096 -1.51051,-14.59808 -0.50332,-10.82311 2.51715,-18.37356 -4.78213,-21.89788 3.27215,-11.57759 -0.88108,-38.88703 -19.88406,-3.14606 4.97127,-2.51716 2.39107,-1.8247 v -4.4049 l -3.90157,-2.32802 0.37775,-2.32802 -1.13274,-0.69247 -2.13941,0.69247 -1.32136,-3.52382 4.65656,-3.33468 3.5233,-3.14658 3.77548,-9.87898 -0.44029,-2.26498 -2.70577,-1.57303 -1.70429,0.75499 -2.76314,-5.0338 -2.64273,1.76165 -2.70578,-3.58686 9.87898,-5.22242 0.0631,-3.20911 2.39107,-5.22293 -2.58021,-1.3839 -2.26498,0.81752 -2.83186,-4.97075 1.0697,-2.01332 z" /><path
     id="jardim_novo"
     style="fill:#000000;stroke-width:2.64583;stroke:none"
     d="m 160.68239,417.37194 -6.33037,0.56741 -9.87898,5.22242 2.70578,3.58686 2.64273,-1.76165 2.76314,5.0338 1.70429,-0.75499 2.70577,1.57303 0.44029,2.26498 -3.77548,9.87898 -3.5233,3.14658 -4.65656,3.33468 1.32136,3.52382 2.13941,-0.69247 1.13274,0.69247 -0.37775,2.32802 3.90157,2.32802 v 4.4049 l -2.39107,1.8247 -4.97127,2.51716 19.88406,3.14606 0.88108,38.88703 -3.27215,11.57759 4.78213,21.89788 -2.51715,18.37356 0.50332,10.82311 1.51051,14.59808 -2.2655,7.55096 4.78214,12.33309 9.75341,-63.9935 0.88108,-12.3331 -0.56637,-8.68371 -4.15324,-12.71034 1.25884,-8.2429 5.28547,-13.08809 11.51506,4.15272 2.45411,-0.88109 5.47408,3.14658 1.57303,-0.25218 -3.58634,-8.87181 0.37724,-2.95744 4.15323,4.27881 2.42053,-0.69247 0.41082,-2.70578 4.78214,-2.89439 1.25884,-3.14606 4.90771,-0.18862 2.1394,-2.64274 3.52382,3.5233 h 2.76882 l -0.31471,-2.89439 -4.4049,-2.70578 -0.25166,-2.51664 3.58686,0.69194 v -3.52381 l 2.45412,0.56637 0.81803,-2.95744 -5.09684,-5.60018 -1.63608,1.00666 -4.21576,7.23625 -9.35809,-9.52758 -12.19098,-19.5771 -2.84789,9.07696 -15.21664,-0.53433 -10.76782,3.55947 0.44493,-2.75849 4.71651,-6.76289 1.24592,-8.1871 -5.42809,0.44494 -2.31408,-1.15652 0.71211,-2.75901 z" /><path
     style="display:inline;fill:#000000;stroke-width:2.64583;stroke:none"
     d="m 237.56786,341.10983 6.67407,-10.0556 4.44938,-1.5128 2.93659,0.44495 0.88987,-0.88988 4.98331,-0.97888 2.49164,13.34815 -3.64124,24.47158 6.79544,3.92845 12.83645,8.43151 -12.20867,-1.23651 -5.56172,0.13349 -9.66426,-4.18254 -2.48549,0.88093 -3.93967,0.43678 -1.88608,-1.27312 -2.48018,-6.27404 0.43347,-5.56128 7.29699,0.17799 -1.69077,-5.60623 1.06785,-0.71192 -0.88987,-2.49163 0.53392,-1.06786 5.42824,-1.24582 v -1.60179 l 1.86874,-0.80089 -0.089,-7.56393 z"
     id="jardim_vila_bela" /><path
     id="bela_vista"
     style="fill:#000000;stroke-width:2.64583;stroke:none"
     d="m 251.71662,340.30895 -14.14901,0.80098 -9.28522,0.89917 -2.94969,-1.12448 -0.85989,2.77813 2.51354,0.59531 0.74414,12.95528 3.78633,-1.10898 1.6459,-1.01699 3.33726,-0.45165 1.69085,6.58513 4.00854,0.0977 v 5.1e-4 l 3.28817,0.0801 -1.69033,-5.60638 1.06763,-0.7121 -0.88986,-2.49132 0.53381,-1.06815 5.4281,-1.2454 v -1.60197 l 1.86913,-0.80099 z m 18.86293,7.89409 -11.69127,0.68626 -2.5368,17.04806 6.79545,3.92844 -3.14606,-4.4049 5.53713,-4.02715 1.13275,-3.02048 4.65656,-1.13223 -3.77548,-3.90157 z" /><path
     id="vila_nova"
     style="fill:#000000;stroke-width:2.64583;stroke:none"
     d="m 252.38687,317.82763 -8.17987,1.00666 -7.11016,1.32136 2.8944,1.32137 -3.4985,12.01839 1.07487,7.61452 6.67453,-10.05572 4.44934,-1.51257 2.93626,0.44494 0.88987,-0.88987 4.98367,-0.97927 2.49132,13.34854 -1.10432,7.42332 11.69127,-0.68626 0.87333,-1.49345 -1.76164,-5.91489 -2.64274,-1.50998 5.7888,-5.41156 -7.17321,-3.27215 -4.34185,-4.02714 -2.13941,-0.94362 -2.64273,-2.70577 z m -52.79265,105.96356 -2.32854,3.2091 -0.72088,9.59322 12.19098,19.5771 9.35809,9.52758 4.21576,-7.23625 1.63608,-1.00666 -7.61401,-7.36182 -10.63397,-14.72417 z" /><path
     style="fill:#000000;stroke-width:2.64583;stroke:none"
     d="m 150.89384,396.54893 5.16139,-3.73732 7.8309,-1.60176 1.77976,1.86872 2.1357,0.62291 0.7119,-0.62291 13.52611,21.09007 -6.31812,-0.80089 -2.1357,7.11901 1.06785,7.38595 -0.53382,3.11441 -5.42809,0.44495 -2.31408,-1.15652 0.71211,-2.75902 -6.40736,-10.1446 -6.33037,0.56742 0.0631,-3.2091 2.39107,-5.22296 -2.58021,-1.38387 -2.26498,0.81751 -2.83186,-4.97076 1.0697,-2.01332 -1.08474,-3.44993 z"
     id="jardim_res._das_palmeiras" /><path
     style="display:inline;fill:#000000;stroke-width:2.64583;stroke:none"
     d="m 168.51349,393.07857 4.37558,-1.86872 -1.35899,-1.83793 2.51191,-0.88093 8.81436,-0.12586 -5.53725,-10.06782 -3.27711,-3.14616 -28.30908,-35.99924 -12.45867,-13.34801 -0.91202,0.12242 0.0922,3.16465 -1.76186,-1.48444 -1.19555,1.29569 0.18877,1.76186 -2.26525,2.64279 1.32139,1.38433 -0.0629,3.2091 1.0697,0.2517 0.75509,0.99991 -0.56632,0.88781 3.77543,0.81799 0.40687,1.69817 3.20355,-0.71191 2.58064,4.40489 -0.62291,1.09008 0.42269,1.04561 -0.13894,0.73416 h -1.51017 l -0.75508,1.99557 1.25848,0.5034 0.25169,3.27202 3.52373,2.26526 -0.88093,1.76186 -1.69894,2.07653 0.50339,0.88093 0.94385,0.0629 -0.44046,1.19554 0.75508,2.13943 -2.57987,3.33494 0.18877,1.63602 -0.69216,0.69215 0.25169,2.01356 1.70929,1.4423 5.96243,8.27598 3.82664,-2.04693 2.40244,2.58072 -2.40244,6.22909 -3.02565,3.64837 v 1.86912 l 3.73724,1.60147 5.16139,-3.73732 7.8309,-1.60176 1.77976,1.86872 2.1357,0.62291 z"
     id="jardim_centenario" /><path
     style="fill:#000000;stroke-width:2.64583;stroke:none"
     d="m 182.0396,414.16864 14.5052,22.42487 0.72088,-9.59324 2.32854,-3.20908 -16.73787,-35.42606 -8.81436,0.12586 -2.51191,0.88093 1.35899,1.83793 -4.37558,1.86872 z"
     id="jardim_inocoop" /><path
     style="fill:#000000;stroke-width:2.64583;stroke:none"
     d="m 169.106,444.57691 8.2131,-0.90183 1.63598,-2.89449 7.80271,0.0629 0.50322,1.51019 4.53051,-0.62923 3.68994,-1.74183 -1.78455,5.68782 -15.21664,-0.53432 -10.76782,3.55946 0.44493,-2.75849 z"
     id="vila_romana" /><path
     id="jardim_guanabara"
     style="display:inline;fill:#000000;stroke-width:2.64583;stroke:none"
     d="m 180.71475,414.00057 0.31678,1.67328 3.02256,5.03432 0.37517,2.8944 -3.5233,1.25832 -0.75551,-1.63608 -5.97121,1.3653 0.47439,3.28248 -0.53382,3.11454 -1.24592,8.1871 -3.76773,5.40277 8.21294,-0.90175 1.63607,-2.89492 7.80263,0.063 0.50332,1.5105 4.53048,-0.62942 3.68969,-1.74201 1.06351,-3.38894 -14.50506,-22.42499 z" /><path
     style="fill:#000000;stroke-width:2.64583;stroke:none"
     d="m 174.17924,424.5901 5.97121,-1.3653 0.75551,1.63608 3.5233,-1.25831 -0.37517,-2.89441 -3.02256,-5.0343 -0.31678,-1.67331 -4.99327,-0.6328 -2.1357,7.11901 z"
     id="jardim_brasilia_ii" /><path
     style="fill:#000000;stroke-width:2.64583;stroke:none"
     d="m 233.47442,407.67251 -0.2892,3.02562 1.17908,2.40263 10.67851,-0.44495 0.88987,-0.88988 -1.95772,-3.11456 z"
     id="jardim_do_horto" /><path
     style="display:inline;fill:#000000;stroke-width:2.64583;stroke:none"
     d="m 233.47442,407.67251 -0.80088,-2.93655 -3.63099,1.51278 3.18605,8.36483 -5.6952,-2.84761 -2.40267,2.23459 10.0556,13.24925 0.50472,2.84761 2.2539,4.98332 1.15683,-8.45384 -3.73748,-13.52613 -1.17908,-2.40263 z"
     id="jardim_res._copacabana" /><path
     style="fill:#000000;stroke-width:2.64583;stroke:none"
     d="m 224.13073,414.00055 -1.69536,-8.646 -2.01355,-3.52375 -1.19556,-4.02711 -6.54406,9.86882 -8.9981,11.52525 0.12585,3.64959 4.27881,9.24978 -0.72567,0.50339 -3.09632,0.0543 1.43096,2.71446 10.63397,14.72417 7.61401,7.36182 2.40967,-0.48369 1.24592,-2.31354 -2.66961,-2.84789 2.04639,-1.06765 -1.42369,-1.77972 0.26717,-5.78414 1.3348,-1.15705 -0.62321,-0.88987 3.11505,-4.44934 -0.60565,-1.60144 v -3.29282 l 2.82309,-7.59592 z"
     id="jardim_kennedy" /><path
     style="fill:#000000;stroke-width:2.64583;stroke:none"
     d="m 219.22626,397.80369 9.81629,-3.92422 3.63099,10.85649 -3.63099,1.51278 3.18605,8.36483 -5.6952,-2.84761 -2.40267,2.23459 -1.69536,-8.646 -2.01355,-3.52375 z"
     id="cidade_jardim" /><path
     id="vila_santo_antonio"
     style="display:inline;fill:#000000;stroke-width:2.64583;stroke:none"
     d="m 231.11633,386.93866 -3.95997,1.42627 1.88619,5.51439 3.63079,10.8567 0.80098,2.93626 0.53382,-5.16093 2.93677,-3.91552 -0.7121,-5.87303 -0.80047,-5.4901 -3.5667,1.75234 z" /><path
     id="vila_paulista"
     style="display:inline;fill:#000000;stroke-width:2.64583;stroke:none"
     d="m 227.24525,370.74276 0.17776,2.13578 4.53875,4.8054 3.47058,9.54877 0.80047,5.4901 0.7121,5.87303 -2.93677,3.91552 -0.53382,5.16093 10.50066,0.97926 1.9575,3.11454 -0.88987,0.88987 -10.67842,0.44493 3.73776,13.52579 -1.15704,8.45427 -2.25361,-4.98368 -0.50487,-2.84737 -2.32079,-3.05769 -2.82309,7.59592 v 3.29282 l 0.60565,1.60145 -3.11505,4.44934 0.62321,0.88987 -1.3348,1.15704 -0.26717,5.78414 1.42369,1.77973 -2.04639,1.06764 2.66961,2.84789 -1.24592,2.31355 -2.40967,0.48369 5.09684,5.60018 2.47427,-3.50315 3.91552,0.97875 9.4325,-3.47058 2.22467,0.26716 1.24592,-1.51257 0.26665,-2.49183 1.51309,-3.47059 -1.77974,-1.06764 7.11895,-13.25914 3.2923,-3.02565 3.91553,-0.35605 5.33921,-3.73776 4.44934,-7.29671 3.82664,-2.66961 2.31355,-5.07255 1.69085,-1.60146 3.02566,-0.0889 -8.98757,-3.64887 -8.72091,-3.47059 -1.60197,-1.86862 -1.9575,0.7121 v 1.77973 l -11.83546,3.73724 -1.06763,1.51309 -2.84789,-0.7121 0.62322,-3.02566 -1.86914,-4.53822 1.51309,-2.58072 -0.0889,-4.80539 2.22467,-2.93626 -0.26716,-1.86913 -3.11454,-0.62271 -0.44494,-2.10839 1.15704,-1.71825 3.64836,-1.60145 0.35605,-2.13578 0.97875,-0.26717 -0.62322,-3.73724 -5.51698,0.6227 -1.06763,-2.93626 -3.55947,-2.40295 h -5.25033 z" /><path
     style="fill:#000000;stroke-width:2.64583;stroke:none"
     d="m 227.42301,372.87854 -0.26665,3.40524 -3.84005,1.3214 3.84005,10.75974 3.95997,-1.42627 0.74931,2.0464 3.5667,-1.75234 -3.47058,-9.54879 z"
     id="saude" /><path
     style="fill:#000000;stroke-width:2.64583;stroke:none"
     d="m 223.31631,377.60518 -10.88581,3.77542 3.64958,3.83834 -2.83157,5.78898 2.57987,-0.81799 3.39788,7.61376 9.81629,-3.92422 -1.88619,-5.51455 z"
     id="jardim_donangela" /><path
     style="fill:#000000;stroke-width:2.64583;stroke:none"
     d="m 212.4305,381.3806 -2.95741,-3.08329 -5.09682,-3.46078 -4.59344,3.14619 1.00678,6.98452 7.23623,8.36888 5.22267,-2.3282 2.83157,-5.78898 z"
     id="boa_morte" /><path
     style="fill:#000000;stroke-width:2.64583;stroke:none"
     d="m 208.02584,393.33612 5.51924,13.03509 5.68118,-8.56752 -3.39788,-7.61376 -2.57987,0.81799 z"
     id="estadio" /><path
     style="display:inline;fill:#000000;stroke-width:2.64583;stroke:none"
     d="m 204.87845,389.69609 2.48464,6.97497 -3.23852,1.13263 0.75508,1.95064 -7.61377,2.9574 -3.02034,-8.11715 1.82479,-0.71511 -4.02712,-11.36624 7.11038,-6.10359 0.62924,1.57308 1.00678,6.98452 z"
     id="consolacao" /><path
     style="fill:#000000;stroke-width:2.64583;stroke:none"
     d="m 204.87965,399.75433 4.57314,12.05457 2.26376,-2.89954 0.96565,-1.23685 0.86288,-1.3013 -5.51924,-13.03509 -3.14739,-3.64003 2.48464,6.97497 -3.23852,1.13263 z"
     id="olimpico" /><path
     style="fill:#000000;stroke-width:2.64583;stroke:none"
     d="m 197.26588,402.71173 6.41822,16.48603 5.76869,-7.38886 -4.57314,-12.05457 z"
     id="jardim_quitandinha" /><path
     style="fill:#000000;stroke-width:2.64583;stroke:none"
     d="m 197.26588,402.71173 -6.73413,1.89855 3.63801,7.69993 5.42446,11.48098 4.21573,-0.94384 -0.12585,-3.64959 z"
     id="jardim_do_trevo" /><path
     style="fill:#000000;stroke-width:2.64583;stroke:none"
     d="m 204.26677,432.65482 3.09632,-0.0543 0.72567,-0.50339 -4.27881,-9.24978 -4.21573,0.94384 z"
     id="jardim_anhanguera" /><path
     id="cidade_nova"
     style="display:inline;fill:#000000;stroke-width:2.64583;stroke:none"
     d="m 236.49998,354.63572 -3.33726,0.45165 -1.6459,1.01699 -8.20053,2.40244 3.92896,12.23595 7.74216,2.31355 h 5.25033 l -2.48047,-6.27404 0.43356,-5.56141 z" /><path
     id="centro"
     style="display:inline;fill:#000000;stroke-width:2.64583;stroke:none"
     d="m 221.2451,342.38634 -8.87698,3.26078 -1.98438,3.50573 -1.05833,5.35781 -4.16719,1.45521 -12.50156,-8.59896 -4.16719,-0.85989 10.71563,28.32953 -0.0517,1.57303 0.62942,1.57303 4.59352,-3.14606 5.09685,3.46077 2.95744,3.08354 10.88564,-3.77548 3.84007,-1.32137 0.26665,-3.40548 -0.17776,-2.13578 -3.92896,-12.23595 4.4142,-1.29346 -0.74414,-12.95528 -2.51354,-0.59531 z" /><path
     style="fill:#000000;stroke-width:2.64583;stroke:none"
     d="m 194.25936,348.46929 2.63063,-1.89613 -4.36562,-11.37709 8.73125,-2.84427 5.62239,14.94896 5.49011,-1.65364 -1.98438,3.50573 -1.05833,5.35781 -4.16719,1.45521 z"
     id="santana" /><path
     style="fill:#000000;stroke-width:2.64583;stroke:none"
     d="m 184.04183,335.74731 4.44764,10.7597 4.16719,0.8599 1.6027,1.10238 2.63063,-1.89613 -4.36562,-11.37709 -5.13421,-1.57458 z"
     id="vila_santa_terezinha" /><path
     style="fill:#000000;stroke-width:2.64583;stroke:none"
     d="m 186.65198,324.78054 2.73046,8.36501 -0.17086,1.03455 -1.82142,-0.55861 -3.34833,2.12582 -4.01705,-5.90124 3.64958,-1.76186 1.13262,-2.76866 z"
     id="vila_bnh" /><path
     style="fill:#000000;stroke-width:2.64583;stroke:none"
     d="m 172.88907,347.96188 2.05969,0.25881 4.67722,-0.32742 8.11455,-3.1981 -3.6987,-8.94786 -14.27362,5.1104 -0.0579,1.53408 2.09571,-1.02169 -0.089,2.32037 z"
     id="jardim_bela_vista" /><path
     style="fill:#000000;stroke-width:2.64583;stroke:none"
     d="m 161.07595,358.66287 4.85392,0.0151 2.98043,1.19063 4.49792,0.19843 -0.51915,-12.10503 -4.90951,-0.53393 -3.9374,1.3348 -3.35958,0.35597 -3.90415,-1.5906 -0.90118,-0.36713 -3.41306,-3.15709 -3.02561,-3.58664 -3.70567,-1.26534 z"
     id="chacara_bom_retiro" /><path
     id="jardim_sao_paulo"
     style="fill:#000000;stroke-width:2.64583;stroke:none"
     d="m 187.74068,344.69524 -8.11475,3.19826 -4.67723,0.32711 -2.05982,-0.2589 0.51934,12.1052 -4.49791,-0.19844 -2.9807,-1.19062 -4.85345,-0.015 12.96562,16.4884 3.27732,3.14606 5.53713,10.06761 1.73736,3.67677 1.39319,-3.67677 6.05648,-5.85184 7.11016,-6.10351 0.0517,-1.57303 -10.71563,-28.32953 z" /><path
     style="fill:#000000;stroke-width:2.64583;stroke:none"
     d="m 190.53175,404.61028 0.36632,-2.22742 -4.06918,-10.34116 0.56127,-1.35189 2.89987,-0.99372 4.99135,13.57513 1.9845,-0.55949 -3.02034,-8.11715 1.82479,-0.71511 -4.02712,-11.36624 -6.05643,5.85169 -1.39319,3.67678 z"
     id="jardim_shangrila" /><path
     style="fill:#000000;stroke-width:2.64583;stroke:none"
     d="m 186.82889,392.0417 4.06918,10.34116 -0.36632,2.22742 4.74963,-1.33906 -4.99135,-13.57513 -2.89987,0.99372 z"
     id="jardim_rio_claro" /><path
     style="fill:#000000;stroke-width:2.64583;stroke:none"
     d="m 234.07626,316.38039 -1.99669,2.41152 5.01727,1.36374 7.11014,-1.32122 -1.0697,-4.15298 1.14914,-1.42473 -4.62735,-3.20358 z"
     id="vila_sao_jose" /><path
     style="fill:#000000;stroke-width:2.64583;stroke:none"
     d="m 224.75621,314.66563 -1.72566,5.49002 -0.54212,4.12636 6.84808,2.4474 2.74306,-7.9375 1.99669,-2.41152 -8.18008,-1.51016 z"
     id="jardim_do_ipe" /><path
     style="fill:#000000;stroke-width:2.64583;stroke:none"
     d="m 216.96103,317.89055 1.81325,4.69898 1.66363,8.90238 2.05052,-7.2099 0.54212,-4.12636 1.72566,-5.49002 -8.67613,-1.55726 0.25169,3.27202 z"
     id="vila_martins" /><path
     style="fill:#000000;stroke-width:2.64583;stroke:none"
     d="m 194.56016,317.4501 6.69546,14.9017 -8.73125,2.84427 -3.31279,-1.016 0.17086,-1.03452 -2.73046,-8.36501 3.79695,-1.10101 1.65721,-2.20231 -2.51695,-3.58667 z"
     id="alto_do_santana" /><path
     style="fill:#000000;stroke-width:2.64583;stroke:none"
     d="m 199.02578,327.38899 9.50588,-4.49604 -1.98438,-4.10104 0.18564,-2.2138 -2.69912,0.1169 -9.47364,0.75509 z"
     id="jardim_portugal" /><path
     style="fill:#000000;stroke-width:2.64583;stroke:none"
     d="m 208.53166,322.89295 1.25677,2.77813 5.62239,-1.98438 2.18282,2.63639 1.80002,-0.41913 -0.61938,-3.31443 -1.81325,-4.69898 -5.66311,-1.51016 -4.565,0.19772 -0.18564,2.2138 z"
     id="jardim_primavera" /><path
     style="fill:#000000;stroke-width:2.64583;stroke:none"
     d="m 217.59364,326.32309 h -2.4474 l -0.59531,5.63184 0.82682,3.30729 0.99219,0.48509 1.32292,-0.65045 0.19843,-0.69454 3.77032,-2.05052 -1.2237,-0.85989 -1.04425,-5.58795 z"
     id="vila_saibreiro" /><path
     style="display:inline;fill:#000000;stroke-width:2.64583;stroke:none"
     d="m 225.3327,340.88462 2.94964,1.12448 9.28552,-0.89927 -1.07512,-7.61442 3.4985,-12.0184 -2.8944,-1.32136 -5.01727,-1.36374 -2.74306,7.9375 -6.84808,-2.4474 -2.05052,7.2099 1.2237,0.85989 1.19062,2.48047 -1.88516,0.69453 z"
     id="vila_alema" /><path
     style="display:inline;fill:#000000;stroke-width:2.64583;stroke:none"
     d="m 209.78843,325.67108 -1.67846,0.65201 3.86127,10.59278 3.56562,7.56726 5.70824,-2.09679 3.22771,1.2764 0.85989,-2.77812 -4.36563,-5.35782 1.88516,-0.69453 -1.19062,-2.48047 -3.77032,2.05052 -0.19843,0.69454 -1.32292,0.65045 -0.99219,-0.48509 -0.82682,-3.30729 0.59531,-5.63184 h 2.4474 l -2.18282,-2.63639 z"
     id="vila_aparecida" /><path
     style="fill:#000000;stroke-width:2.64583;stroke:none"
     d="m 208.53166,322.89295 -9.50588,4.49604 2.22984,4.96281 5.62239,14.94896 8.65885,-2.81763 -3.56562,-7.56726 -3.86127,-10.59278 1.67846,-0.65201 z"
     id="vila_operaria" /></svg>
