<?xml version="1.0" encoding="UTF-8" standalone="no"?>
<svg width="1000.0002" height="1624.8622" viewBox="0 0 264.58339 429.91145" version="1.1" id="svg5" xml:space="preserve"
   xmlns="http://www.w3.org/2000/svg" xmlns:svg="http://www.w3.org/2000/svg">
   <defs id="defs2" />
   <path class="neighborhood"
      d="m 149.09287,43.839252 6.91695,1.587497 h 5.55623 l 1.02054,-0.793747 h 2.26785 l 3.51517,-1.24732 1.92769,0.45357 -3.68526,3.912047 -0.1701,0.90714 1.5308,2.551337 -2.26785,6.349989 -1.5308,2.77812 -2.72143,1.587498 -1.30401,-0.226785 -0.28348,-0.453573 0.11339,-1.417407 -2.09777,-1.530803 -1.53079,0.17009 -1.30402,-0.453572 -2.04107,-0.0567 -1.98437,-0.73705 -0.17009,-0.62366 v -2.211154 l -1.19062,-4.422315 -1.13393,-2.211157 -0.0567,-3.174995 z"
      data-name="Ajapi" id="ajapi" />
   <path class="neighborhood"
      d="m 101.62906,194.79898 1.80406,-1.80407 -1.6437,-2.88651 -1.64378,0.882 -1.202636,-2.16489 -1.363075,-0.28062 -2.004521,0.96216 1.282894,2.64596 2.124789,-0.48107 0.681535,1.56351 1.403174,0.52118 z"
      data-name="Boa Vista" id="boa_vista" />
   <path class="neighborhood"
      d="m 101.90975,30.709256 -6.678395,0.996953 -33.337283,53.067897 -40.48122,43.656124 0.907068,15.76157 1.814135,4.08197 6.350131,6.46339 14.854507,10.31884 39.573822,42.52221 7.937746,8.50437 1.700874,-2.16906 -0.113588,-5.08781 2.607942,-7.71089 4.583411,-6.31589 -0.56104,-1.04239 -1.403234,-0.5212 -0.681535,-1.56324 -2.124943,0.48102 -1.282732,-2.64614 2.004439,-0.96204 1.363067,0.28051 1.202728,2.16511 1.64392,-0.88205 1.64359,2.88649 4.27128,-4.45006 7.31383,-7.50052 2.72153,1.07729 3.51501,6.42323 2.26816,2.08115 2.21087,-0.73718 2.15458,-3.57164 3.85545,-1.81447 2.87957,0.7948 -2.96682,-4.65057 -0.56103,-2.72614 -3.36784,-4.16922 -1.28274,-9.86251 -2.16478,-19.08299 0.32069,-5.53229 1.44308,-1.36307 2.24511,-6.09365 0.56136,-5.21193 1.8441,-6.25399 0.64137,-3.52786 0.32068,-3.04715 -0.16034,-4.81059 -2.48547,-8.90012 0.08,-3.127163 -0.72138,-1.20273 -1.84442,-1.603418 -2.08445,-5.211934 -0.40102,-3.287501 0.48103,-10.583553 -0.48103,-3.848867 -6.01364,-12.267634 -11.38559,-15.546906 -6.17399,-6.422565 -0.32068,-2.245116 z"
      data-name="Boa Esperança" id="boa_esperanca" />
   <path class="neighborhood"
      d="m 216.72836,0 -2.72614,6.4143334 -2.5658,2.8864833 -3.52786,4.6505733 -3.84852,0.801709 -5.85331,3.92887 -2.5658,1.443407 -3.20717,2.806147 -4.24955,2.966818 -6.57501,6.815354 -2.00443,2.886482 -6.01365,5.211606 -3.29375,3.0274 -3.68523,3.912079 -0.17022,0.907066 1.53099,2.551313 -2.26817,6.350132 -1.53065,2.778162 -2.72154,1.587289 -1.3038,-0.226526 -0.28349,-0.453697 0.11327,-1.417397 -2.09761,-1.530654 -1.53099,0.169889 -1.30381,-0.453369 -2.04131,-0.05696 -1.98436,-0.736849 -0.16988,-0.623586 V 54.38487 l -1.19088,-4.422407 -1.13392,-2.211202 -0.0566,-3.174902 0.62358,-0.737177 -1.03909,-3.387924 -3.40768,-5.171765 -5.73279,-0.721704 -2.44563,-0.240676 -3.56802,1.523741 -1.24289,-0.802039 -6.73502,1.603748 -5.1316,0.160343 -1.92443,-0.641369 -1.44308,0.08001 -10.9849,-5.452281 -3.52785,-0.08001 -1.76409,4.008877 0.32068,2.245116 6.17399,6.422565 11.38559,15.546906 6.01364,12.267634 0.48103,3.848867 -0.48103,10.583553 0.40102,3.287501 2.08445,5.211934 1.84442,1.603418 0.72137,1.20273 -0.08,3.127163 2.48546,8.90012 0.16035,4.81059 -0.32069,3.04715 -0.64137,3.52786 -1.84409,6.25399 -0.56137,5.21193 -2.24511,6.09365 -1.44307,1.36307 -0.32069,5.53229 2.16478,19.08299 1.28274,9.86251 3.36783,4.16922 0.56104,2.72614 2.96681,4.65057 2.72615,0.16034 1.44308,-0.32068 2.00476,0.08 0.64137,-0.80171 5.37194,-1.36306 2.32545,-8.65946 h 3.76853 l 4.32956,2.08478 0.56136,-4.24956 5.53262,0.64137 1.04206,-0.64137 4.89125,-1.04238 -0.64137,-3.76853 0.32069,-6.25432 10.58388,2.88681 4.81058,-3.84886 5.7733,1.68375 1.8441,-6.41433 -0.0803,-2.80648 0.80171,-1.20273 6.65501,-18.68197 65.25422,-53.448168 -37.43143,-62.332827 z"
      data-name="Distrito Industrial" id="distrito_industrial" />
   <path class="neighborhood"
      d="m 169.26156,171.18587 -4.89125,1.04238 -1.04206,0.64137 -5.53262,-0.64137 -0.56135,4.24956 -4.32956,-2.08478 h -3.76854 l -2.32544,8.65946 0.80204,1.5234 12.909,4.49024 0.64137,-0.24068 0.7217,0.88204 1.04239,-0.24067 0.40101,-1.52341 7.85742,-8.65945 z"
      data-name="Parque Mãe Preta" id="parque_mae_preta" />
   <path class="neighborhood"
      d="m 163.32825,187.94341 4.75789,0.13129 5.32945,2.60805 -0.56696,-1.98438 1.4741,-0.34018 -2.09775,-7.91151 -1.03931,-1.16273 z"
      data-name="Vila Industrial" id="vila_industrial" />
   <path class="neighborhood"
      d="m 147.61278,184.57589 -1.49647,4.57605 11.31091,3.51518 -4.73414,4.87587 2.94821,2.04109 -0.73215,0.90773 0.68154,2.64597 5.21175,-0.64146 2.64596,3.24733 1.68379,1.72388 1.36308,0.60137 2.76623,2.56578 4.57031,2.08468 v -2.08468 l -2.64613,-4.24959 v -3.68831 l -7.85742,-6.01356 v -5.13156 l 2.32511,-1.84417 -2.32511,-1.76408 -0.40101,1.52341 -1.04239,0.24067 -0.7217,-0.88205 -0.64137,0.2407 z"
      data-name="Arco-Íris" id="arco-iris" />
   <path class="neighborhood"
      d="m 140.79741,185.21726 0.0801,4.49023 -4.40994,0.4811 -1.84414,0.49416 v 3.91578 l 3.20721,6.97572 -0.16036,-2.08469 6.2541,1.12253 2.19192,-11.46015 1.49647,-4.57605 -0.80204,-1.52341 -5.37196,1.36308 z"
      data-name="Jardim Floridiana" id="jardim_floridiana" />
   <path class="neighborhood"
      d="m 143.92439,200.61209 5.21174,0.96216 3.55695,-4.03126 4.73414,-4.87587 -11.31091,-3.51518 z"
      data-name="Jardim America" id="jardim_america" />
   <path class="neighborhood"
      d="m 134.62342,185.2976 h 2e-5 l 0.32071,1.16258 0.60135,-0.0201 0.0802,0.88199 0.8419,2.86646 4.40994,-0.4811 -0.0801,-4.49023 -2.00476,-0.08 -1.44308,0.3207 z"
      data-name="Santa Clara" id="santa_clara" />
   <path class="neighborhood"
      d="m 123.52297,190.62609 1.27831,0.60484 0.20045,0.4009 2.36534,-0.68152 0.16036,0.60135 7.09601,-0.86891 1.84414,-0.49419 -0.8419,-2.86647 -0.0802,-0.88198 -0.60135,0.02 -0.32073,-1.16258 -2.87955,-0.7948 -3.85545,1.81447 -2.15458,3.57164 z"
      data-name="Jardim Hipodromo" id="jardim_hipodromo" />
   <path class="neighborhood"
      d="m 107.04611,189.23081 1.59392,1.93386 4.67745,0.85044 1.5875,-0.38328 3.7703,5.40091 2.66473,-0.85045 -2.83482,-6.54842 -1.24731,-1.08898 1.24731,-1.23557 2.09639,0.0419 -2.86178,-5.22956 -2.72153,-1.07728 z"
      data-name="Jardim Res. Sao Jose" id="jardim_res._sao_jose" />
   <path class="neighborhood"
      d="m 101.62906,194.79898 0.24994,1.12818 2.05524,0.86461 2.08359,0.0283 4.69162,7.27131 2.04107,-3.43014 -0.0283,-2.57967 2.2395,0.48191 1.81428,1.30402 1.89932,-2.83481 -3.7703,-5.40091 -1.58749,0.38328 -4.67745,-0.85044 -1.59393,-1.93386 -3.61295,3.76418 z"
      data-name="Santa Maria" id="santa_maria" />
   <path class="neighborhood"
      d="m 97.755549,200.13636 1.444548,0.66669 0.304165,-0.70872 0.546278,-0.22678 0.53861,0.22678 0.56697,2.523 2.49464,-0.8788 0.93549,1.75759 6.1232,0.59531 -4.69162,-7.27131 -1.04179,-0.0141 -1.0418,-0.0142 -2.05524,-0.86462 -0.24994,-1.12817 z"
      data-name="Recanto Paraíso" id="recanto_paraiso" />
   <path class="neighborhood"
      d="m 95.211241,206.53813 5.074789,0.20777 0.52117,-1.10248 0.82186,0.441 2.88651,-1.14259 0.0707,-1.44571 -0.93549,-1.75759 -2.49464,0.8788 -0.56697,-2.523 -0.53861,-0.22678 -0.546278,0.22678 -0.304165,0.70872 -1.444548,-0.66669 -0.71006,0.97846 z"
      data-name="Jardim Panorama" id="jardim_panorama" />
   <path class="neighborhood"
      d="m 94.437547,208.82572 1.959718,1.92922 0.741672,-0.44099 0.616612,0.60135 1.14736,-0.0401 2.164891,-4.12931 h -0.78177 l -5.074789,-0.20777 z"
      data-name="Jardim das Paineiras" id="jardim_das_paineiras" />
   <path class="neighborhood"
      d="m 121.34001,196.18229 4.02254,-2.02476 0.80181,-1.04234 -1.16263,-1.48336 -0.20045,-0.4009 -1.27831,-0.60484 -2.26816,-2.08115 -0.65323,-1.1937 -2.09639,-0.0419 -1.24731,1.23557 1.24731,1.08898 z"
      data-name="Jardim Ipanema" id="jardim_ipanema" />
   <path class="neighborhood"
      d="m 126.16436,193.11519 v 2.24505 h 2.60587 l 5.85321,-0.76171 v -3.91578 l -7.09601,0.86891 -0.16036,-0.60135 -2.36534,0.68152 z"
      data-name="Parque das Industrias" id="parque_das_industrias" />
   <path class="neighborhood"
      d="m 121.34001,196.18229 2.61937,6.0735 -3.16713,0.28062 -4.0163,-2.66886 1.89932,-2.83481 z"
      data-name="Jardim Azul" id="jardim_azul" />
   <path class="neighborhood"
      d="m 128.77023,195.36024 -0.0401,1.96444 -2.8865,1.12252 1.28289,1.20271 2.68606,0.52117 0.18269,1.60362 4.62816,-0.20045 3.60812,0.96216 -0.40091,-0.96216 -3.20721,-6.97572 z"
      data-name="Jardim Independencia" id="jardim_independencia" />
   <path class="neighborhood"
      d="m 123.95938,202.25579 6.03591,-0.48109 -0.18269,-1.60362 -2.68606,-0.52117 -1.28289,-1.20271 2.8865,-1.12252 0.0401,-1.96444 h -2.60587 v -2.24505 l -0.80181,1.04234 -4.02254,2.02476 z"
      data-name="Jardim Cherveson" id="jardim_cherveson" />
   <path class="neighborhood"
      d="m 110.70945,204.09143 1.98455,3.17564 1.16261,-0.52117 2.91934,-6.87835 -1.81428,-1.30402 -2.2395,-0.48191 0.0283,2.57967 z"
      data-name="Jardim Cidade Azul" id="jardim_cidade_azul" />
   <path class="neighborhood"
      d="m 112.694,207.26707 2.00451,2.88652 2.32525,-1.12253 0.72162,-1.76399 3.59463,-1.04235 1.05585,-1.40315 -1.60361,-2.28516 -4.0163,-2.66886 -2.91934,6.87835 z"
      data-name="Jardim Olinda" id="jardim_olinda" />
   <path class="neighborhood"
      d="m 104.51557,204.94183 0.88198,1.20272 -0.8113,0.8018 1.2523,2.9266 -0.32073,0.28064 2.64596,7.0158 9.0941,-3.25597 -2.55937,-3.75983 -2.00451,-2.88652 -1.98455,-3.17564 -6.1232,-0.59531 z"
      data-name="Parque Universitario" id="parque_universitario" />
   <path class="neighborhood"
      d="m 92.850261,216.08258 2.36098,0.80619 1.927696,2.28514 0.61373,-3.40767 v -3.20723 l 4.918733,4.61038 -0.52117,0.60137 3.56804,2.00452 2.36534,-0.48109 0.0802,-2.1248 -2.64596,-7.0158 0.32073,-0.28064 -1.2523,-2.9266 0.8113,-0.8018 -0.88198,-1.20272 -2.88651,1.14259 -0.82186,-0.441 -0.52117,1.10248 h 0.78177 l -2.164891,4.12932 -1.14736,0.0401 -0.616612,-0.60135 -0.741672,0.44099 -1.959718,-1.92922 0.113588,5.08781 z"
      data-name="Jardim Paulista II" id="jardim_paulista_ii" />
   <path class="neighborhood"
      d="m 105.71827,219.77528 -1.2027,2.43061 -2.14048,0.2268 -3.061603,-1.24732 -2.17455,-2.01146 0.61373,-3.40767 v -3.20723 l 4.918733,4.61038 -0.52117,0.60137 z"
      data-name="Jardim Res. Santa Eliza" id="jardim_res._santa_eliza" />
   <path class="neighborhood"
      d="m 104.51557,222.20589 2.50862,-0.85043 3.12797,0.34018 -0.74673,-2.72142 0.0567,-1.47837 -1.33523,0.65094 -0.0433,1.1474 -2.36533,0.48109 z"
      data-name="Jardim Matheus Maniero" id="jardim_matheus_maniero" />
   <path class="neighborhood"
      d="m 22.31992,144.1918 -7.967571,2.05775 -1.04235,3.20723 4.329759,16.75777 -2.726145,5.45229 -4.329758,4.49012 L 0,193.31564 l 11.786565,40.57144 3.207229,-0.32073 3.207229,-1.28289 2.645964,-2.24506 4.5703,-7.8577 1.683796,-2.24506 2.565781,-1.04236 4.089217,0.24054 4.730663,0.88199 15.154156,6.33428 20.606441,11.06493 2.886506,0.40092 2.886509,-0.88199 0.881986,-1.76398 -2.884202,-2.48561 v -3.52795 l 1.681491,-1.52342 0.561265,-3.52797 2.405417,0.80182 0.320726,-0.72162 7.136087,4.4901 0.561264,-1.12252 -2.245061,-1.44326 -0.160359,-2.08469 -0.801812,-0.32073 0.481081,-1.27143 h 0.962171 l 0.08852,-0.46775 -0.269307,-0.66619 0.396873,-0.69451 -1.644195,-2.80648 -2.041065,0.45358 -0.259228,-1.08195 -2.405425,-0.52116 0.360818,-0.56565 -0.48109,-0.63707 -0.681532,-0.16036 0.04007,-2.0446 -0.841891,-0.882 1.443249,-1.68379 -0.120269,-1.12252 0.761714,-0.82552 1.12253,0.94577 -0.05874,-2.01628 0.581033,-0.078 -6.138902,-6.59628 -13.074314,-14.0484 -2.425296,-2.60598 -17.93527,-19.27155 -14.854507,-10.31884 -6.350131,-6.46339 z"
      data-name="Jardim Sigal" id="jardim_sigal" />
   <path class="neighborhood"
      d="m 89.44818,238.5344 -1.089033,-0.91893 -0.160359,-1.28289 0.440992,-0.44098 -0.120269,-1.04236 1.643702,-2.12477 -0.481081,-1.36309 0.280628,-0.76171 -0.60135,-0.0401 -0.320723,-0.56126 1.082439,-1.32299 -7.136087,-4.49011 -0.320726,0.72162 -2.405417,-0.80182 -0.561265,3.52797 -1.681491,1.52343 v 3.52794 l 2.884202,2.48561 -0.881986,1.76398 -2.886559,0.88203 0.578479,1.39896 8.220898,0.16989 1.871091,0.34012 z"
      data-name="Novo Jardim Wenzel" id="novo_jardim_wenzel" />
   <path class="neighborhood"
      d="m 264.58333,79.331042 -65.25421,53.448168 -6.65501,18.68197 -0.80171,1.20273 0.0803,2.80648 -1.8441,6.41433 -5.77329,-1.68375 -4.81059,3.84886 -10.58388,-2.88681 -0.32069,6.25432 0.64137,3.76853 1.92411,8.09809 1.03942,1.16256 2.09761,7.91173 -1.47402,0.34011 0.56696,1.98436 -5.32948,-2.60795 -4.75791,-0.13136 2.32513,1.76408 -2.32513,1.8441 v 5.1316 l 7.85742,6.01364 v 3.6882 l 2.64613,4.24955 v 2.08477 l -3.68819,3.44785 1.68376,0.96205 1.12238,3.76853 -2.48546,4.24955 2.40546,2.4858 -2.96682,0.72137 -0.7217,1.92443 -3.52785,2.5658 2.00443,2.80648 8.17843,5.37194 h 1.68375 l 7.21638,3.44785 6.01364,0.80171 20.04504,-1.04239 4.89092,-0.16034 9.22081,2.64614 15.58049,-53.65198 13.94744,-47.39831 z"
      data-name="Res. Florenca" id="res._florenca" />
   <path class="neighborhood"
      d="m 29.667002,218.89334 -2.5658,1.04238 -1.683754,2.24512 -4.570567,7.85741 -2.645805,2.24512 -3.207167,1.28307 -3.207496,0.32067 9.116111,28.91324 9.298182,1.70087 11.813939,4.98609 5.211932,0.401 16.935328,-5.7272 10.432103,-5.44273 4.422077,-0.62359 3.288488,-2.38143 3.345116,-0.7938 6.066652,0.11359 3.288165,-1.13392 1.13392,-1.24751 -2.381094,-1.02032 v -1.19088 l 1.92772,-2.32446 1.530659,-3.96871 -1.530659,-1.64424 -2.438051,1.30413 -3.798821,-5.27284 -1.643915,1.19054 -1.871091,-0.3401 -8.220898,-0.1699 -0.578479,-1.39895 -2.886488,-0.40103 -20.606396,-11.0649 -15.154119,-6.33433 -4.73058,-0.88204 z"
      data-name="Campo do Cocho" id="campo_do_cocho" />
   <path class="neighborhood"
      d="m 95.004506,253.89923 -3.288165,1.13392 -6.066652,-0.11359 -3.345117,0.7938 -3.288487,2.38143 -4.422077,0.62359 -10.432103,5.44273 -16.935328,5.7272 -5.211932,-0.401 -11.813939,-4.98609 -9.298182,-1.70087 6.759711,143.71572 5.452282,-0.3207 8.178424,9.4615 1.283063,2.5658 70.398646,11.68881 -3.20717,-18.42418 -1.12272,-25.65765 -3.04683,-7.85773 1.44341,-4.81092 -0.96238,-9.30081 -0.32068,-6.89571 1.60374,-11.70628 -3.04682,-13.95171 2.08478,-7.37637 -0.56137,-24.77596 -12.66865,-2.00443 3.167324,-1.60374 1.523415,-1.16258 v -2.80646 l -2.485792,-1.48326 0.240673,-1.48323 -0.721699,-0.44119 -1.363072,0.44119 -0.841875,-2.24512 2.966818,-2.12463 2.244786,-2.00475 2.405452,-6.29417 -0.28051,-1.44306 -1.723921,-1.00222 -1.085848,0.48101 -1.760468,-3.20717 -1.683753,1.12239 -1.723925,-2.28526 6.294157,-3.32735 0.0402,-2.04461 1.523412,-3.32767 -1.643919,-0.88172 -1.443077,0.52087 -1.804252,-3.167 0.681532,-1.28274 z"
      data-name="Jardim Nova Rio Claro" id="jardim_nova_rio_claro" />
   <path class="neighborhood"
      d="m 102.37497,265.91861 -4.033248,0.36152 -6.294157,3.32735 1.723925,2.28526 1.683753,-1.12239 1.760468,3.20717 1.085848,-0.48101 1.723921,1.00222 0.28051,1.44306 -2.405452,6.29417 -2.244786,2.00475 -2.966818,2.12463 0.841875,2.24512 1.363072,-0.44119 0.721699,0.44119 -0.240673,1.48323 2.485792,1.48326 v 2.80646 l -1.523415,1.16258 -3.167324,1.60374 12.66865,2.00443 0.56137,24.77596 -2.08478,7.37637 3.04682,13.95171 -1.60374,11.70628 0.32068,6.89571 0.96238,9.30081 -1.44341,4.81092 3.04683,7.85773 6.21415,-40.77195 0.56136,-7.85772 -0.36084,-5.53263 -2.64614,-8.0981 0.80204,-5.25177 3.36751,-8.33876 7.33654,2.6458 1.56358,-0.56136 3.48768,2.00477 1.00222,-0.16065 -2.28495,-5.65248 0.24035,-1.88426 2.64613,2.72613 1.54219,-0.44119 0.26174,-1.72392 3.04683,-1.84409 0.80203,-2.00443 3.12684,-0.12017 1.36306,-1.68376 2.24512,2.24478 h 1.76409 l -0.20051,-1.84409 -2.80648,-1.72392 -0.16033,-1.60343 2.28528,0.44087 v -2.24512 l 1.56358,0.36084 0.52119,-1.88426 -3.24733,-3.56801 -1.04239,0.64135 -2.68597,4.61042 -5.96229,-6.07028 -7.76719,-12.47307 -1.81447,5.78316 -9.69492,-0.34044 -6.86046,2.26785 0.28348,-1.75752 3.00501,-4.30882 0.79381,-5.21621 -3.45838,0.28347 -1.47436,-0.73683 0.45371,-1.75784 z"
      data-name="Jardim Novo" id="jardim_novo" />
   <path class="neighborhood"
      d="m 151.36072,217.33003 4.25222,-6.40669 2.83482,-0.96385 1.87098,0.28349 0.56696,-0.56696 3.175,-0.62367 1.58748,8.50445 -2.31993,15.59149 4.32956,2.50292 8.17844,5.37193 -7.77847,-0.78781 -3.54351,0.085 -6.15736,-2.6648 -1.58357,0.56126 -2.51006,0.27828 -1.20168,-0.81114 -1.58019,-3.99735 0.27618,-3.54324 4.6491,0.1134 -1.07723,-3.57187 0.68036,-0.45359 -0.56696,-1.58748 0.34017,-0.68036 3.45848,-0.79375 v -1.02054 l 1.19062,-0.51027 -0.0567,-4.81917 z"
      data-name="Jardim Vila Bela" id="jardim_vila_bela" />
   <path class="neighborhood"
      d="m 160.37526,216.81976 -9.0147,0.51033 -5.91586,0.57288 -1.87932,-0.71643 -0.54786,1.77002 1.60144,0.37928 0.47411,8.25415 2.41237,-0.70656 1.04865,-0.64795 2.12625,-0.28776 1.07729,4.19556 2.55394,0.0623 v 2.7e-4 l 2.09498,0.051 -1.07695,-3.57197 0.68022,-0.4537 -0.56696,-1.58728 0.34011,-0.68055 3.45838,-0.79348 v -1.02065 l 1.19087,-0.51034 z m 12.01807,5.02953 -7.44881,0.43724 -1.61627,10.86177 4.32956,2.50291 -2.00443,-2.80648 3.52785,-2.5658 0.7217,-1.92443 2.96682,-0.72137 -2.40546,-2.4858 z"
      data-name="Bela Vista" id="bela_vista" />
   <path class="neighborhood"
      d="m 160.8023,202.49632 -5.21161,0.64137 -4.53007,0.84188 1.8441,0.84188 -2.22899,7.65723 0.68483,4.85141 4.25252,-6.40676 2.83479,-0.9637 1.87077,0.28348 0.56695,-0.56696 3.17523,-0.62392 1.58729,8.50471 -0.70359,4.72959 7.44881,-0.43724 0.55642,-0.95151 -1.12238,-3.76853 -1.68376,-0.96205 3.68819,-3.44785 -4.57024,-2.08477 -2.7663,-2.5658 -1.36308,-0.6012 -1.68375,-1.72392 z m -33.63558,67.51216 -1.48358,2.04462 -0.45929,6.11209 7.76719,12.47307 5.96229,6.07028 2.68597,-4.61042 1.04239,-0.64135 -4.85109,-4.69043 -6.77518,-9.38114 z"
      data-name="Vila Nova" id="vila_nova" />
   <path class="neighborhood"
      d="m 96.138426,252.65173 3.288456,-2.38115 4.989268,-1.02052 1.13394,1.19061 1.36071,0.39687 0.45357,-0.39687 8.61784,13.43704 -4.02544,-0.51027 -1.36071,4.5357 0.68035,4.7058 -0.34011,1.98427 -3.45838,0.28347 -1.47436,-0.73683 0.45371,-1.75784 -4.0823,-6.4634 -4.033248,0.36152 0.0402,-2.0446 1.523412,-3.32769 -1.643919,-0.8817 -1.443077,0.52086 -1.804252,-3.167 0.681532,-1.28274 -0.691116,-2.19804 z"
      data-name="Jardim Res. das Palmeiras" id="jardim_res._das_palmeiras" />
   <path class="neighborhood"
      d="m 107.36437,250.44067 2.78779,-1.19061 -0.86584,-1.17099 1.6004,-0.56126 5.61586,-0.0802 -3.52793,-6.41448 -2.08793,-2.0045 -18.036459,-22.93606 -7.937746,-8.50437 -0.58107,0.078 0.05874,2.01628 -1.12253,-0.94577 -0.761714,0.82552 0.120269,1.12252 -1.443249,1.68379 0.841891,0.882 -0.04007,2.0446 0.681532,0.16036 0.48109,0.63707 -0.360818,0.56565 2.405425,0.52116 0.259228,1.08195 2.041065,-0.45358 1.644195,2.80648 -0.396873,0.69451 0.269307,0.66619 -0.08852,0.46775 h -0.962171 l -0.481081,1.27143 0.801812,0.32073 0.160359,2.08469 2.245061,1.44326 -0.561264,1.12252 -1.082439,1.32302 0.320723,0.56126 0.60135,0.0401 -0.280628,0.7617 0.481081,1.36309 -1.643702,2.12478 0.120269,1.04235 -0.440992,0.44099 0.160359,1.28289 1.089033,0.91893 3.798821,5.27284 2.438051,-1.30415 1.530659,1.64424 -1.530659,3.96872 -1.92772,2.32447 v 1.19087 l 2.381094,1.02034 3.288456,-2.38115 4.989265,-1.02052 1.13394,1.19061 1.36071,0.39687 z"
      data-name="Jardim Centenário" id="jardim_centenario" />
   <path class="neighborhood"
      d="m 115.98221,263.87771 9.24164,14.28748 0.45929,-6.11211 1.48358,-2.0446 -10.66414,-22.57086 -5.61586,0.0802 -1.6004,0.56126 0.86584,1.17099 -2.78779,1.19061 z"
      data-name="Jardim Inocoop" id="jardim_inocoop" />
   <path class="neighborhood"
      d="m 107.74187,283.25162 5.23278,-0.57457 1.04233,-1.84417 4.97131,0.0401 0.32061,0.96219 2.88651,-0.4009 2.35096,-1.10977 -1.13699,3.62387 -9.69492,-0.34044 -6.86046,2.26782 0.28348,-1.75749 z"
      data-name="Vila Romana" id="vila_romana" />
   <path class="neighborhood"
      d="m 115.13811,263.77063 0.20183,1.06609 1.92575,3.2075 0.23903,1.84409 -2.24479,0.80171 -0.48135,-1.04238 -3.80442,0.86987 0.30225,2.09135 -0.34011,1.98435 -0.79381,5.21621 -2.40052,3.44225 5.23268,-0.57451 1.04239,-1.84444 4.97125,0.0401 0.32068,0.96236 2.88649,-0.401 2.3508,-1.1099 0.67759,-2.15916 -9.24156,-14.28756 z"
      data-name="Jardim Guanabara" id="jardim_guanabara" />
   <path class="neighborhood"
      d="m 110.97416,270.51749 3.80442,-0.86987 0.48135,1.0424 2.24479,-0.80171 -0.23903,-1.84409 -1.92575,-3.2075 -0.20183,-1.0661 -3.18134,-0.40318 -1.36071,4.5357 z"
      data-name="Jardim Brasília II" id="jardim_brasilia_ii" />
   <path class="neighborhood"
      d="m 148.75268,259.73885 -0.18426,1.92771 0.75123,1.53077 6.80356,-0.28348 0.56695,-0.56697 -1.24731,-1.98437 z"
      data-name="Jardim do Horto" id="jardim_do_horto" />
   <path class="neighborhood"
      d="m 148.75268,259.73885 -0.51026,-1.87095 -2.3134,0.96383 2.02991,5.32946 -3.62855,-1.81429 -1.53081,1.42372 6.40669,8.44144 0.32157,1.81428 1.43602,3.175 0.73704,-5.38615 -2.38124,-8.61786 -0.75123,-1.53077 z"
      data-name="Jardim Res. Copacabana" id="jardim_res._copacabana" />
   <path class="neighborhood"
      d="m 142.79957,263.77062 -1.08016,-5.5086 -1.28288,-2.24507 -0.76173,-2.56578 -4.16939,6.28768 -5.73292,7.34305 0.0802,2.32524 2.72614,5.89327 -0.46234,0.32073 -1.97275,0.0346 0.9117,1.72945 6.77518,9.38114 4.85109,4.6904 1.53526,-0.30816 0.79381,-1.47402 -1.70088,-1.81446 1.30381,-0.68021 -0.90707,-1.13393 0.17022,-3.68522 0.85044,-0.73718 -0.39707,-0.56698 1.98469,-2.83477 -0.38588,-1.02031 v -2.09796 l 1.79866,-4.83955 z"
      data-name="Jardim Kennedy" id="jardim_kennedy" />
   <path class="neighborhood"
      d="m 139.6748,253.45117 6.25422,-2.50022 2.3134,6.91695 -2.3134,0.96383 2.02991,5.32946 -3.62855,-1.81429 -1.53081,1.42372 -1.08016,-5.5086 -1.28288,-2.24507 z"
      data-name="Cidade Jardim" id="cidade_jardim" />
   <path class="neighborhood"
      d="m 147.25028,246.52878 -2.523,0.90871 1.20174,3.51336 2.31327,6.91709 0.51033,1.87077 0.34011,-3.28817 1.87109,-2.49468 -0.4537,-3.74186 -0.51,-3.49788 -2.27244,1.11646 z"
      data-name="Vila Santo Antônio" id="vila_santo_antonio" />
   <path class="neighborhood"
      d="m 144.78391,236.20994 0.11326,1.36076 2.89175,3.06165 2.2112,6.08377 0.51,3.49789 0.4537,3.74186 -1.87109,2.49468 -0.34011,3.28816 6.69024,0.62392 1.24718,1.98435 -0.56696,0.56696 -6.8035,0.28348 2.38142,8.61764 -0.73718,5.38644 -1.43584,-3.17524 -0.32166,-1.81414 -1.47864,-1.94813 -1.79866,4.83955 v 2.09796 l 0.38588,1.02031 -1.98469,2.8348 0.39707,0.56695 -0.85044,0.73718 -0.17022,3.68522 0.90707,1.13393 -1.30381,0.68021 1.70088,1.81446 -0.79381,1.47405 -1.53526,0.30816 3.24733,3.56801 1.57642,-2.23194 2.49468,0.62359 6.0097,-2.2112 1.41739,0.17021 0.79381,-0.96369 0.16989,-1.58761 0.96403,-2.2112 -1.13392,-0.68022 4.53567,-8.44775 2.09761,-1.92773 2.49469,-0.22685 3.40175,-2.38141 2.83479,-4.64894 2.43805,-1.70087 1.47403,-3.23186 1.07728,-1.02033 1.92773,-0.0566 -5.72622,-2.32479 -5.55632,-2.2112 -1.02066,-1.19055 -1.24717,0.4537 v 1.13391 l -7.54068,2.38109 -0.68022,0.96403 -1.81447,-0.45369 0.39708,-1.92773 -1.19088,-2.89142 0.96403,-1.64424 -0.0566,-3.06165 1.41739,-1.87076 -0.17021,-1.19088 -1.98436,-0.39674 -0.28348,-1.34331 0.73718,-1.09474 2.32447,-1.02033 0.22684,-1.36076 0.62359,-0.17022 -0.39707,-2.38109 -3.51501,0.39673 -0.68022,-1.87076 -2.26783,-1.53099 h -3.34512 z"
      data-name="Vila Paulista" id="vila_paulista" />
   <path class="neighborhood"
      d="m 144.89717,237.5707 -0.16989,2.16957 -2.4466,0.8419 2.4466,6.85531 2.523,-0.90871 0.4774,1.30381 2.27244,-1.11646 -2.2112,-6.08378 z"
      data-name="Saude" id="saude" />
   <path class="neighborhood"
      d="m 142.28068,240.58217 -6.93563,2.40542 2.32524,2.44551 -1.80407,3.68831 1.6437,-0.52117 2.16488,4.85093 6.25422,-2.50022 -1.20174,-3.51347 z"
      data-name="Jardim Donangela" id="jardim_donangela" />
   <path class="neighborhood"
      d="m 135.34505,242.98759 -1.88425,-1.96445 -3.24731,-2.20495 -2.9266,2.00452 0.64144,4.45002 4.61039,5.33203 3.3275,-1.48335 1.80407,-3.68831 z"
      data-name="Boa Morte" id="boa_morte" />
   <path class="neighborhood"
      d="m 132.53872,250.60476 3.51645,8.305 3.61963,-5.45859 -2.16488,-4.85093 -1.6437,0.52117 z" data-name="Estádio"
      id="estadio" />
   <path class="neighborhood"
      d="m 130.53344,248.28561 1.58303,4.44393 -2.06335,0.72163 0.48108,1.24281 -4.85093,1.88423 -1.92434,-5.17165 1.16262,-0.45561 -2.56578,-7.24173 4.53021,-3.88876 0.40091,1.00225 0.64144,4.45002 z"
      data-name="Consolação" id="consolacao" />
   <path class="neighborhood"
      d="m 130.5342,254.69398 2.91367,7.68028 1.4423,-1.84738 0.61524,-0.78803 0.54976,-0.82909 -3.51645,-8.305 -2.00528,-2.31915 1.58303,4.44393 -2.06335,0.72163 z"
      data-name="Olímpico" id="olimpico" />
   <path class="neighborhood" d="m 125.68327,256.57821 4.08922,10.50369 3.67538,-4.70764 -2.91367,-7.68028 z"
      data-name="Jardim Quitandinha" id="jardim_quitandinha" />
   <path class="neighborhood"
      d="m 125.68327,256.57821 -4.29049,1.20962 2.31787,4.90583 3.45607,7.31482 2.68595,-0.60134 -0.0802,-2.32524 z"
      data-name="Jardim do Trevo" id="jardim_do_trevo" />
   <path class="neighborhood"
      d="m 130.14372,275.65575 1.97275,-0.0346 0.46234,-0.32073 -2.72614,-5.89327 -2.68595,0.60134 z"
      data-name="Jardim Anhanguera" id="jardim_anhanguera" />
   <path class="neighborhood"
      d="m 150.68034,225.94772 -2.12625,0.28776 -1.04865,0.64795 -5.22477,1.53066 2.50324,7.79585 4.93274,1.47402 h 3.34512 l -1.58037,-3.99736 0.27623,-3.54332 z"
      data-name="Cidade Nova" id="cidade_nova" />
   <path class="neighborhood"
      d="m 140.96106,218.14332 -5.65576,2.07753 -1.2643,2.23359 -0.67429,3.4136 -2.65502,0.92716 -7.96508,-5.47863 -2.65502,-0.54785 6.82721,18.04948 -0.0329,1.00222 0.40102,1.00222 2.92665,-2.00444 3.24734,2.20495 1.88426,1.9646 6.93553,-2.40545 2.44661,-0.84188 0.16988,-2.16972 -0.11325,-1.36076 -2.50324,-7.79585 2.8124,-0.8241 -0.47411,-8.25415 -1.60145,-0.37928 z"
      data-name="Centro" id="centro" />
   <path class="neighborhood"
      d="m 123.76774,222.01893 1.67604,-1.20808 -2.78145,-7.24864 5.56291,-1.81216 3.58217,9.52438 3.49789,-1.05358 -1.2643,2.23359 -0.67429,3.4136 -2.65502,0.92716 z"
      data-name="Santana" id="santana" />
   <path class="neighborhood"
      d="m 117.25788,213.91342 2.83371,6.85529 2.65502,0.54786 1.02113,0.70236 1.67604,-1.20808 -2.78145,-7.24864 -3.27114,-1.0032 z"
      data-name="Vila Santa Terezinha" id="vila_santa_terezinha" />
   <path class="neighborhood"
      d="m 118.92087,206.92621 1.73965,5.32956 -0.10886,0.65914 -1.16047,-0.3559 -2.13331,1.35441 -2.55937,-3.75983 2.32525,-1.12253 0.72162,-1.76399 z"
      data-name="Vila Bnh" id="vila_bnh" />
   <path class="neighborhood"
      d="m 110.15216,221.69564 1.31229,0.1649 2.97998,-0.20861 5.16999,-2.03759 -2.35654,-5.70092 -9.0941,3.25597 -0.0369,0.9774 1.33523,-0.65094 -0.0567,1.47837 z"
      data-name="Jardim Bela Vista" id="jardim_bela_vista" />
   <path class="neighborhood"
      d="m 102.62572,228.51353 3.09255,0.01 1.89892,0.75858 2.86574,0.12642 -0.33077,-7.71243 -3.12797,-0.34018 -2.50862,0.85044 -2.14048,0.22679 -2.487439,-1.01341 -0.574164,-0.23391 -2.17455,-2.01146 -1.927696,-2.28514 -2.36098,-0.80618 z"
      data-name="Chácara Bom Retiro" id="chacara_bom_retiro" />
   <path class="neighborhood"
      d="m 119.61451,219.61438 -5.17012,2.0377 -2.97998,0.20841 -1.31237,-0.16495 0.33089,7.71254 -2.86574,-0.12643 -1.89908,-0.75858 -3.09226,-0.01 8.26074,10.50519 2.08806,2.00444 3.52785,6.41434 1.10692,2.34257 0.88764,-2.34257 3.85874,-3.72836 4.53007,-3.88871 0.0329,-1.00221 -6.82721,-18.04949 z"
      data-name="Jardim São Paulo" id="jardim_sao_paulo" />
   <path class="neighborhood"
      d="m 121.39278,257.78783 0.23339,-1.41915 -2.59258,-6.58863 0.3576,-0.86132 1.84758,-0.63312 3.18012,8.64907 1.26438,-0.35647 -1.92434,-5.17165 1.16262,-0.45561 -2.56578,-7.24173 -3.85871,3.72826 -0.88764,2.34257 z"
      data-name="Jardim Shangrila" id="jardim_shangrila" />
   <path class="neighborhood"
      d="m 119.03359,249.78005 2.59258,6.58863 -0.23339,1.41915 3.02611,-0.85315 -3.18012,-8.64907 -1.84758,0.63312 z"
      data-name="Jardim Rio Claro" id="jardim_rio_claro" />
   <path class="neighborhood"
      d="m 149.13613,201.57425 -1.27215,1.53644 3.19664,0.86888 4.53006,-0.84179 -0.68154,-2.64597 0.73215,-0.90773 -2.94821,-2.04109 z"
      data-name="Vila Sao Jose" id="vila_sao_jose" />
   <path class="neighborhood"
      d="m 143.19808,200.48173 -1.09946,3.49784 -0.3454,2.62901 4.36309,1.5593 1.74767,-5.05719 1.27215,-1.53644 -5.21174,-0.96216 z"
      data-name="Jardim do Ipe" id="jardim_do_ipe" />
   <path class="neighborhood"
      d="m 138.23157,202.53641 1.15526,2.99384 1.05995,5.67195 1.30644,-4.59362 0.3454,-2.62901 1.09946,-3.49784 -5.52779,-0.99217 0.16036,2.08469 z"
      data-name="Vila Martins" id="vila_martins" />
   <path class="neighborhood"
      d="m 123.95938,202.25579 4.26586,9.49426 -5.56291,1.81216 -2.11067,-0.64732 0.10886,-0.65912 -1.73965,-5.32956 2.41914,-0.70149 1.05585,-1.40315 -1.60361,-2.28516 z"
      data-name="Alto do Santana" id="alto_do_santana" />
   <path class="neighborhood"
      d="m 126.80455,208.58812 6.05644,-2.86455 -1.2643,-2.61288 0.11828,-1.41047 -1.71968,0.0745 -6.03591,0.48109 z"
      data-name="Jardim Portugal" id="jardim_portugal" />
   <path class="neighborhood"
      d="m 132.86099,205.72357 0.80072,1.77002 3.58218,-1.2643 1.39073,1.67971 1.14684,-0.26703 -0.39463,-2.11172 -1.15526,-2.99384 -3.60812,-0.96216 -2.90848,0.12597 -0.11828,1.41047 z"
      data-name="Jardim Primavera" id="jardim_primavera" />
   <path class="neighborhood"
      d="m 138.63462,207.909 h -1.55931 l -0.37928,3.5882 0.52679,2.10716 0.63215,0.30906 0.84287,-0.41442 0.12642,-0.44251 2.40217,-1.30644 -0.77965,-0.54785 -0.66532,-3.56023 z"
      data-name="Vila Saibreiro" id="vila_saibreiro" />
   <path class="neighborhood"
      d="m 143.56538,217.18654 1.87929,0.71643 5.91605,-0.57294 -0.68499,-4.85135 2.22899,-7.65724 -1.8441,-0.84187 -3.19664,-0.86888 -1.74767,5.05719 -4.36309,-1.5593 -1.30644,4.59362 0.77965,0.54785 0.75858,1.58038 -1.20109,0.4425 z"
      data-name="Vila Alemã" id="vila_alema" />
   <path class="neighborhood"
      d="m 133.66171,207.49359 -1.06939,0.41541 2.46012,6.74894 2.27175,4.8213 3.63687,-1.33592 2.05646,0.81323 0.54786,-1.77001 -2.78146,-3.41361 1.20109,-0.4425 -0.75858,-1.58038 -2.40217,1.30644 -0.12642,0.44251 -0.84287,0.41442 -0.63215,-0.30906 -0.52679,-2.10716 0.37928,-3.5882 h 1.55931 l -1.39073,-1.67971 z"
      data-name="Vila Aparecida" id="vila_aparecida" />
   <path class="neighborhood"
      d="m 132.86099,205.72357 -6.05644,2.86455 1.42069,3.16193 3.58217,9.52438 5.51678,-1.79519 -2.27175,-4.8213 -2.46012,-6.74894 1.06939,-0.41541 z"
      data-name="Vila Operaria" id="vila_operaria" />
</svg>