<?xml version="1.0" encoding="UTF-8" standalone="no"?>
<svg
   version="1.1"
   id="svg2"
   width="436.37695"
   height="353.29315"
   viewBox="0 0 436.37696 353.29315"
   xmlns="http://www.w3.org/2000/svg"
   xmlns:svg="http://www.w3.org/2000/svg">
  <defs
     id="defs6" />
  <path
     id="sede"
     style="display:inline;fill:#000000;fill-opacity:1;fill-rule:evenodd;stroke:none;stroke-width:0.982677;stroke-linecap:square;stroke-linejoin:bevel;stroke-miterlimit:10;stroke-dasharray:none;stroke-opacity:1"
     d="m 101.79675,6.7365888 1.49609,8.2324212 12.72461,13.474609 h 0.002 L 103.2948,14.96901 Z m 8.98242,25.4492182 2.99219,4.490234 -2.24414,5.240235 4.49023,6.736328 h 0.002 l -4.49024,-6.736328 2.24414,-5.240235 z m 130.98633,9.730469 -16.46679,2.24414 v 0.002 z m -109.28125,4.490234 -2.79688,10.923828 1.28125,25.898438 -8.07812,12.988281 2.42187,2.99414 h 0.002 l -2.42188,-2.99414 8.07813,-12.988281 -1.28129,-25.898438 2.79687,-10.923828 z m 14.96875,5.988281 0.75,2.994141 -0.74804,-2.994141 z m 11.22852,0 1.49609,3.742188 -4.49023,5.988281 h 0.002 l 4.49024,-5.988281 z m 54.64063,2.246094 -1.4961,6.736328 1.49805,-6.736328 z m 43.41406,0 2.24414,11.226562 8.23437,10.480469 -8.23242,-10.480469 z m 10.47851,21.707031 -13.91015,-1.748047 -20.16992,11.257813 -2.43946,3.492187 1.00977,8.869141 -14.33789,19.22461 -5.57422,0.71875 -13.03125,-6.75195 -27.71289,8.93945 -5.625,3.68359 -6.65821,9.97461 -15.57617,2.25391 -0.28125,0.29102 -0.35351,0.16992 -0.25586,0.37109 0.0156,0.41602 0.11133,0.38672 0.43555,0.63281 0.0957,0.67969 -0.0801,0.57031 v 0.40234 l 0.19141,0.21485 0.64258,0.23242 0.67578,0.35547 0.32422,0.7207 0.0332,0.64844 -0.0488,0.54101 0.12891,0.55469 0.25586,0.35547 0.93164,0.89453 0.43359,0.35547 0.17774,0.54101 -0.0488,0.44727 -0.38867,0.30664 -1.55078,0.14649 -0.11133,0.21289 0.0469,0.19531 0.0918,0.39062 0.29101,0.50586 0.17969,0.53125 -0.0703,0.37305 -0.30469,0.30664 -0.71875,0.21289 -0.30469,0.23828 -0.36132,0.33203 -0.69141,0.24024 -0.74805,0.0937 -0.29102,0.10547 -0.27929,0.31445 -0.27344,0.69727 -0.11719,0.45117 -0.20703,0.16992 -0.42969,0.0469 -0.60742,-0.12304 -0.35156,0.0371 -0.50977,0.37695 -0.48047,0.19727 -0.27343,0.21679 -0.0781,0.39453 0.0391,0.81836 0.15625,0.29297 0.18555,0.21485 -0.0977,0.42382 -0.34179,0.28321 -8.14649,8.67773 2.68555,2.88672 -2.47852,2.06641 -0.0859,6.08593 -7.44336,3.20899 -1.32813,6.26758 -4.05859,0.082 -12.36914,-16.87891 -8.19531,0.2207 -1.49609,5.24024 -5.98829,1.49609 v 11.97657 l -8.23437,7.48437 -15.71875,-14.9707 -8.23242,-18.71094 -8.23438,-0.75 -9.73047,6.73828 -12.72461,-4.49219 -11.97656,2.2461 L 0,171.40645 l 0.74803996,12.72461 2.24610004,7.48438 15.71875,14.9707 6.73633,-1.49609 6.73632,20.20898 v 5.98828 l 5.24024,10.47852 15.71875,8.98242 v 8.23242 l -8.98242,18.71289 10.47851,18.71289 -5.24023,2.99414 0.75,7.48438 2.24414,7.48633 -4.49024,8.23242 8.23438,8.23437 5.98633,2.2461 15.71875,10.47851 3.74219,0.74805 0.75,-4.49024 3.74218,-0.75 2.2461,0.75 -0.75,2.99415 8.98242,-1.49805 9.94921,0.34765 2.65039,-2.23437 0.875,-0.68164 0.65821,-0.043 0.45508,0.18164 10.11328,-5.05469 5.23828,7.48438 2.24609,-3.74219 8.98242,3.74219 v -3.74219 l 2.99414,-1.49805 0.74805,4.49219 1.49805,-2.99414 2.24414,2.24609 20.95899,-3.74414 8.98242,-6.73632 5.23828,4.49218 0.74805,-7.48633 7.48633,2.2461 2.24609,-2.99414 -1.49805,-4.49024 1.49805,-3.74218 8.23242,-3.74414 1.49805,4.49218 14.96875,-2.24609 9.73047,-14.2207 6.73633,-3.74219 v -2.99414 l 7.48632,-0.75 3.74219,2.99414 2.2461,-0.74805 2.24414,-8.23242 8.98242,-5.24023 2.24609,4.49023 -0.74805,5.98828 2.99219,3.74219 0.75,13.47461 13.47266,2.99219 9.73047,-11.22657 15.71875,6.73633 15.71875,20.20899 10.47851,-0.74805 8.23438,3.74219 2.99219,7.48632 6.73828,-1.49804 21.70507,3.74219 7.48633,8.23437 11.22656,2.99414 -2.24609,-5.98828 1.49805,-5.24023 L 375,333.8322 l -5.98828,-11.22851 10.47851,-14.96875 3.74219,-2.99414 0.65235,-5.20508 0.0996,-0.79688 0.19922,-1.60351 0.54688,-4.3711 8.23242,-8.23437 -1.63867,-2.18555 -0.60547,-0.80859 2.99414,-3.74219 7.48438,-14.96875 17.21484,-17.2168 2.99414,-3.74218 v -7.48438 l 3.74414,-11.97656 6.73633,-4.49023 4.49023,-7.48633 -8.98242,-10.47852 -5.23828,2.24609 -9.73047,-0.75 -6.73828,-5.23828 -11.97461,5.23828 -5.24023,6.73829 -13.47266,3.74218 -3.74219,-1.49804 -4.49219,-6.73633 6.73633,-9.73047 -2.24414,-8.98242 -0.0195,-0.94727 0.0312,-0.875 -0.0117,-0.42187 -0.75,-1.49805 2.2461,-5.98828 -1.4961,-8.98242 6.73633,-6.73633 -5.98828,-14.2207 9.73047,-5.24024 2.24609,-14.96875 -16.4668,-6.73633 -0.75,-5.24023 -4.49023,-3.74219 -9.73047,1.4961 -47.15625,-3.74219 -6.73633,-5.98829 -16.46679,-5.988276 -5.98828,-5.238282 -7.48438,1.496094 z m -124.02539,59.914064 0.008,-0.30859 -0.0723,-0.37305 0.26562,-0.35352 -0.26757,0.35352 0.0723,0.37305 -0.008,0.30859 z m 28.96485,-68.148439 -4.49024,5.240235 4.49219,-5.240235 z m -4.49024,5.240235 0.75,-3.744141 h -0.002 z m -32.25196,27.464844 -0.67382,3.79297 h 0.002 l 0.67383,-3.79297 z m 1.67969,5.08594 -0.125,0.15234 0.12695,-0.15234 z m -0.125,0.15234 0.12695,0.26953 0.19336,0.61719 0.25782,1.60547 -0.25586,-1.60547 -0.19336,-0.61719 z m 0.57813,2.49219 -0.22657,0.37109 h 0.002 z m -2.2168,1.05078 -0.5957,0.84766 -0.0801,0.43359 0.17773,0.43164 h 0.002 l -0.17774,-0.43164 0.0801,-0.43359 0.5957,-0.84766 z m 0.43359,2.33008 0.17578,0.35547 -0.18359,0.3164 0.18555,-0.3164 -0.17578,-0.35547 z m -0.97265,1.19727 -0.19141,0.30859 0.19336,-0.30859 z m -0.19141,0.30859 0.0957,0.52539 0.48243,0.77148 -0.48047,-0.77148 z m 1.50977,2.31641 0.32031,1.20312 0.0957,0.77344 0.45117,0.40039 -0.44921,-0.40235 -0.0957,-0.77148 z m 2.82617,3.61132 0.0957,0.49414 -1.0918,1.32813 v 0.46289 h 0.002 v -0.46289 l 1.09179,-1.32813 -0.0957,-0.49414 z m -0.0644,2.7793 0.0312,0.37109 h 0.002 l -0.0312,-0.37109 z m -0.32227,0.67969 v 0.40039 l 0.41797,0.43359 0.72265,1.01758 h 0.002 l -0.72266,-1.01758 -0.41797,-0.43359 v -0.40039 z m 1.42969,2.09961 0.0801,0.21679 -0.20899,0.38477 0.0488,0.67969 -0.14453,0.24609 h 0.002 l 0.14453,-0.24609 -0.0488,-0.67969 0.20899,-0.38477 -0.0801,-0.21679 z m -1.23633,1.88281 -0.12891,0.13867 0.0488,0.32422 0.28906,0.44922 v 0.29297 l -0.30468,0.57031 -0.0957,0.30859 0.0977,-0.30859 0.30469,-0.57031 v -0.29297 l -0.28907,-0.44922 -0.0488,-0.32422 0.1289,-0.13867 z m -2.32813,2.81055 -0.24218,0.27734 -0.16016,0.44727 v 0.35546 l 0.19336,0.26172 0.12891,0.29297 -0.12696,-0.29297 -0.19336,-0.26172 v -0.35546 l 0.16016,-0.44727 0.24219,-0.27734 z m -0.0801,1.63672 0.0469,0.36914 h 0.002 z m 2.53711,0.26171 0.17578,0.41602 h 0.002 l -0.17578,-0.41602 z m 0.86718,0.91016 0.5293,0.58789 h 0.002 l -0.52929,-0.58789 z m 3.47657,1.08789 0.80469,1.06641 -0.80274,-1.06641 z" />
  <path
     d="m 132.48495,46.407145 -2.7979,10.9244 1.28114,25.897132 -8.07776,12.98952 2.42163,2.99272 6.2336,-0.85784 3.86699,2.465103 -0.67455,3.79311 2.35404,1.29439 -0.126,0.15128 0.12813,0.26938 0.19267,0.61759 0.25703,1.60569 -0.22486,0.37059 -0.61032,0.26249 -0.5461,0.0463 -0.48182,0.10813 -0.35336,0.2625 -0.59424,0.84909 -0.0803,0.43235 0.17665,0.43225 0.93157,0.6176 0.17666,0.35508 -0.18474,0.31655 -0.96361,0.52485 -0.19275,0.30883 0.0963,0.52492 0.48188,0.77193 0.93152,1.01893 0.32125,1.20419 0.0963,0.77193 0.44971,0.40143 1.95949,1.23503 0.0963,0.49401 -1.09215,1.32769 v 0.46318 l 0.61033,0.18525 0.32118,0.30876 0.0321,0.37051 -0.35331,0.30876 v 0.40133 l 0.4176,0.43227 0.72276,1.01885 0.28907,0.247 0.0803,0.21617 -0.20883,0.38594 0.0483,0.67926 -0.14454,0.247 -0.38436,0.2146 -0.62746,0.14043 -0.12854,0.13899 0.0483,0.32417 0.28907,0.44768 v 0.29327 l -0.30516,0.57118 -0.0963,0.30875 -0.20883,0.21609 -1.50973,0.30876 -0.41759,0.20068 -0.24094,0.27791 -0.16056,0.44768 v 0.35503 l 0.19274,0.26241 0.1284,0.29335 0.0483,0.3705 0.38548,0.29327 0.4818,0.0153 0.44971,-0.27784 0.56213,-0.29334 0.33727,-0.0153 0.27305,0.16984 0.17672,0.41676 0.40149,0.27792 0.28907,0.2161 0.53003,0.58661 0.63442,0.59431 0.4819,0.18525 0.30516,-0.0309 0.51392,-0.27786 0.46578,-0.15433 0.54604,0.18517 0.80307,1.0652 -0.0643,0.29327 -0.56212,0.35501 -0.26698,0.35508 0.0721,0.37239 -0.007,0.30876 15.57634,-2.25411 6.65965,-9.97448 5.62469,-3.68382 27.71331,-8.94019 13.03024,6.75261 5.57408,-0.71856 14.33788,-19.224463 -1.00928,-8.87028 2.44041,-3.491773 20.16907,-11.25664 13.90965,1.74632 -8.23353,-10.479026 -2.24551,-11.227533 -8.98203,-4.491027 -5.98802,-8.23352 -16.46704,2.245507 -5.98803,8.23352 -5.98801,2.24552 -1.49701,6.73652 -7.48503,5.988013 h -15.71856 l -7.48501,-2.994013 -8.98203,3.742519 -4.49103,5.23952 0.74851,-3.74252 -12.72455,-7.485026 4.49103,-5.988013 -1.49701,-3.74252 -10.47903,2.994013 -0.74851,-2.994013 -7.48502,-7.485013 -7.48503,1.497 z"
     style="display:inline;fill:#000000;fill-opacity:1;fill-rule:evenodd;stroke:none;stroke-width:0.982677;stroke-linecap:square;stroke-linejoin:bevel;stroke-miterlimit:10;stroke-dasharray:none;stroke-opacity:1"
     id="ferreiropolis" />
  <path
     d="M 73.353263,0 V 6.7365198 L 59.131717,8.9820265 53.892197,7.4850132 51.64669,8.9820265 40.419157,20.209559 39.670651,29.191585 h -7.485027 l -6.73652,4.491027 -3.742506,5.988013 v 2.245507 l 8.982026,10.47904 15.718547,5.239519 -5.988014,5.23952 0.748494,8.982027 2.994013,6.73652 -9.730533,14.221546 7.485026,4.491013 v 8.233533 l 3.74252,3.74251 6.73652,-0.74851 5.988013,3.74252 11.227547,-1.497 5.239506,-4.49103 18.712573,8.98203 -14.970053,14.97005 20.958068,21.70657 -4.491015,4.49102 -1.497,5.23952 2.245493,3.74252 0.74852,2.2455 8.195201,-0.2211 12.36877,16.87924 4.05883,-0.0825 1.32754,-6.2663 7.44326,-3.21018 0.0867,-6.08488 2.47784,-2.06788 -2.6845,-2.88608 8.14573,-8.67806 0.34267,-0.28219 0.0979,-0.42335 -0.186,-0.2164 -0.15665,-0.29161 -0.0392,-0.81841 0.0783,-0.39514 0.2741,-0.2164 0.47971,-0.19752 0.50905,-0.37634 0.3524,-0.0376 0.60688,0.12226 0.43076,-0.0471 0.20555,-0.16931 0.11747,-0.45159 0.27409,-0.69617 0.28016,-0.31452 0.29072,-0.1064 0.74761,-0.0931 0.69222,-0.23952 0.35996,-0.33256 0.30456,-0.23952 0.71984,-0.21286 0.30456,-0.30599 0.0692,-0.37253 -0.17995,-0.53219 -0.29072,-0.50555 -0.0921,-0.38989 -0.0461,-0.19551 0.1108,-0.21294 1.55052,-0.14634 0.3899,-0.30725 0.0481,-0.44768 -0.17665,-0.5402 -0.43368,-0.35501 -0.93151,-0.89528 -0.25696,-0.35503 -0.12853,-0.55568 0.0483,-0.54028 -0.0321,-0.64827 -0.32529,-0.72164 -0.67456,-0.35501 -0.64244,-0.23159 -0.19274,-0.21609 v -0.40134 l 0.0803,-0.57111 -0.0963,-0.6792 -0.43368,-0.63292 -0.1124,-0.38585 -0.0161,-0.41684 0.25704,-0.37044 0.35329,-0.16983 0.28107,-0.29132 0.007,-0.30876 -0.0721,-0.37239 0.26699,-0.35509 0.56212,-0.355 0.0643,-0.29327 -0.80307,-1.0652 -0.54604,-0.18517 -0.46579,0.15433 -0.51392,0.27786 -0.30516,0.0309 -0.48189,-0.18525 -0.63443,-0.59432 -0.53002,-0.5866 -0.28907,-0.2161 -0.40149,-0.27792 -0.17674,-0.41676 -0.27304,-0.16984 -0.33728,0.0153 -0.56212,0.29333 -0.4497,0.27784 -0.48182,-0.0153 -0.38548,-0.29326 -0.0481,-0.3705 -0.1284,-0.29335 -0.19275,-0.26241 v -0.35503 l 0.16056,-0.44768 0.24095,-0.27791 0.41759,-0.20068 1.50973,-0.30876 0.20883,-0.21609 0.0963,-0.30875 0.30518,-0.57118 v -0.29327 l -0.28907,-0.44768 -0.0483,-0.32417 0.12854,-0.139 0.62746,-0.14042 0.38436,-0.2146 0.14454,-0.247 -0.0481,-0.67926 0.20883,-0.38594 -0.0803,-0.21617 -0.28908,-0.247 -0.72276,-1.01885 -0.41758,-0.43227 v -0.40135 l 0.3533,-0.30876 -0.0321,-0.3705 -0.32119,-0.30876 -0.61032,-0.18526 v -0.46317 l 1.09214,-1.32769 -0.0963,-0.49402 -1.95951,-1.23502 -0.44969,-0.40143 -0.0963,-0.77193 -0.32125,-1.20419 -0.93151,-1.01893 -0.48188,-0.77194 -0.0963,-0.52492 0.19274,-0.30882 0.96362,-0.52486 0.18473,-0.31654 -0.17665,-0.35508 -0.93158,-0.6176 -0.17665,-0.43226 0.0803,-0.43234 0.59424,-0.8491 0.35337,-0.2625 0.48181,-0.10814 0.54611,-0.0463 0.61032,-0.26251 0.22485,-0.37057 -0.25702,-1.6057 -0.19268,-0.61758 -0.12814,-0.26939 0.126,-0.15128 -2.35404,-1.29439 0.67455,-3.7931 -3.86699,-2.46511 -6.2336,0.85784 -2.42164,-2.99272 8.07776,-12.989519 -1.28113,-25.897133 2.79791,-10.9244 h -0.74851 l -5.23951,-1.497 -4.49102,3.742507 h -5.98802 l -4.49101,-6.73652 2.24549,-5.23952 -2.994,-4.491013 5.23952,-3.74252 -12.7252,-13.47293 L 101.79727,6.7365332 99.116156,5.5449065 95.612929,3.9879466 95.060756,3.7425199 83.084716,4.4910132 73.354197,1.333e-5 Z"
     style="display:inline;fill:#000000;fill-opacity:1;fill-rule:evenodd;stroke:none;stroke-width:0.982677;stroke-linecap:square;stroke-linejoin:bevel;stroke-miterlimit:10;stroke-dasharray:none;stroke-opacity:1"
     id="nova_matrona" />
</svg>
