<?xml version="1.0" encoding="UTF-8" standalone="no"?>
<svg version="1.1" id="svg2" width="1000" height="809.60547" viewBox="0 0 1000 809.60546"
   xmlns="http://www.w3.org/2000/svg" xmlns:svg="http://www.w3.org/2000/svg">
   <defs id="defs6" />
   <path class="neighborhood"
      d="m 612.34838,174.95864 -31.87645,-4.00582 -46.22132,25.79836 -5.59026,8.00269 2.31398,20.32449 -32.85666,44.05506 -12.77386,1.64708 -29.86237,-15.47274 -63.50677,20.48561 -12.89023,8.4413 -15.25794,22.85779 -35.6943,5.16505 -0.64451,0.6669 -0.8101,0.38939 -0.58633,0.85039 0.0358,0.95335 0.25512,0.8862 0.99811,1.45015 0.2193,1.55757 -0.18355,1.30693 v 0.922 l 0.43863,0.49235 1.47254,0.53261 1.54861,0.81459 0.74298,1.65156 0.0761,1.48596 -0.11183,1.23978 0.29541,1.27112 0.58633,0.8146 2.13494,2.0499 0.99362,0.81459 0.40731,1.23978 -0.11183,1.02496 -0.89068,0.7027 -3.55376,0.33569 -0.25512,0.48786 0.10747,0.44757 0.21037,0.89515 0.66688,1.15922 0.41178,1.21741 -0.1611,0.85488 -0.69823,0.7027 -1.64709,0.48786 -0.69822,0.54604 -0.828,0.76088 -1.58444,0.55053 -1.71422,0.21472 -0.6669,0.2417 -0.64002,0.72059 -0.62662,1.59786 -0.26855,1.0339 -0.47443,0.38939 -0.98468,0.10748 -1.39196,-0.28196 -0.80563,0.085 -1.16819,0.86381 -1.10104,0.45207 -0.62659,0.49679 -0.17898,0.90411 0.0896,1.87535 0.35807,0.67137 0.4252,0.49235 -0.22389,0.97122 -0.78324,0.649 -18.66847,19.88586 6.1542,6.6152 -5.67977,4.73538 -0.19685,13.9465 -17.05718,7.35371 -3.04354,14.36276 -9.30065,0.18791 -28.34508,-38.67965 -18.78035,0.50575 -3.42843,12.00852 -13.72275,3.42844 v 27.44546 L 185.24792,444.25243 149.22688,409.94562 130.36149,367.0677 111.49161,365.349 89.193231,380.79044 60.033556,370.49615 32.58811,375.64331 0,392.79446 l 1.7142059,29.15968 5.1471556,17.15118 36.0210365,34.30681 15.436952,-3.42844 15.436929,46.31083 v 13.72273 l 12.008517,24.01254 36.021034,20.58408 v 18.86539 l -20.58408,42.8824 24.01252,42.8824 -12.0085,6.86136 1.7187,17.15118 5.14266,17.15565 -10.28981,18.86539 18.86987,18.86985 13.71826,5.14716 36.02103,24.01252 8.57559,1.71423 1.7187,-10.28982 8.57557,-1.7187 5.14716,1.7187 -1.7187,6.86138 20.58408,-3.43293 22.79958,0.79668 6.07362,-5.12028 2.00515,-1.56204 1.50835,-0.0985 1.04286,0.41625 23.17556,-11.58332 12.00403,17.15119 5.14713,-8.5756 20.58409,8.5756 v -8.5756 l 6.86136,-3.43292 1.71423,10.29429 3.43292,-6.86137 5.14267,5.14714 48.02955,-8.58006 20.58408,-15.43693 12.00403,10.29426 1.71423,-17.15565 17.15565,5.14716 5.14713,-6.86136 -3.43293,-10.28982 3.43293,-8.57557 18.86539,-8.58006 3.43292,10.29427 34.30234,-5.14713 22.29832,-32.58811 15.43695,-8.5756 v -6.86136 l 17.15562,-1.71869 8.5756,6.86136 5.14715,-1.71423 5.14266,-18.86539 20.58409,-12.00849 5.14713,10.28979 -1.71423,13.72273 6.8569,8.57559 1.71869,30.87837 30.87391,6.85689 22.29831,-25.72677 36.02104,15.43695 36.02103,46.31086 24.01252,-1.71423 18.86988,8.57559 6.85689,17.15563 15.44142,-3.43291 49.73927,8.57559 17.15565,18.86986 25.72675,6.86136 -5.14713,-13.72272 3.43292,-12.0085 -22.29831,-18.86541 -13.72272,-25.73121 24.01252,-34.30234 8.57559,-6.86136 1.49492,-11.92795 0.22824,-1.82613 0.45654,-3.67459 1.25322,-10.0168 18.86539,-18.86986 -3.75517,-5.0084 -1.38749,-1.85296 6.86136,-8.57559 17.15118,-34.30234 39.44947,-39.45396 6.86136,-8.57557 v -17.15118 l 8.58006,-27.44545 15.43695,-10.28979 10.2898,-17.15565 -20.58408,-24.01254 -12.00403,5.14713 -22.29831,-1.7187 -15.44142,-12.00402 -27.44098,12.00402 -12.0085,15.44144 -30.8739,8.57557 -8.57559,-3.4329 -10.29429,-15.43695 15.43695,-22.29832 -5.14266,-20.58408 -0.0447,-2.17076 0.0715,-2.00515 -0.0268,-0.96676 -1.7187,-3.43292 5.14716,-13.72272 -3.42846,-20.58409 15.43695,-15.43695 -13.72272,-32.58811 22.29831,-12.00852 5.14714,-34.30234 -37.73527,-15.43695 -1.7187,-12.00849 -10.28979,-8.57559 -22.29832,3.42845 -108.06311,-8.57559 -15.43695,-13.72274 -37.73524,-13.72272 -13.72272,-12.00403 -17.15118,3.42845 z"
      data-name="Sede" id="sede" />
   <path class="neighborhood"
      d="m 303.60208,106.34646 -6.41166,25.03432 2.93586,59.34579 -18.51097,29.76674 5.5494,6.8581 14.2849,-1.96582 8.86158,5.64902 -1.5458,8.69228 5.39451,2.96622 -0.28874,0.34667 0.29362,0.61732 0.44153,1.41526 0.589,3.6796 -0.51528,0.84924 -1.39861,0.60152 -1.25144,0.1061 -1.10414,0.24779 -0.80976,0.60155 -1.36176,1.94577 -0.18401,0.99077 0.40481,0.99054 2.13478,1.41529 0.40484,0.8137 -0.42335,0.72541 -2.20821,1.20274 -0.44171,0.70772 0.22069,1.2029 1.10427,1.76895 2.13467,2.33498 0.73617,2.75952 0.22068,1.76895 1.03056,0.91992 4.49036,2.83019 0.22068,1.13207 -2.50277,3.04253 v 1.06142 l 1.39863,0.42452 0.73602,0.70755 0.0736,0.84906 -0.80965,0.70755 v 0.91969 l 0.95698,0.99059 1.65627,2.33479 0.66243,0.56603 0.18402,0.49537 -0.47856,0.88442 0.11069,1.55659 -0.33123,0.56603 -0.8808,0.49177 -1.43788,0.32181 -0.29457,0.31851 0.11069,0.74287 0.66243,1.0259 v 0.67206 l -0.6993,1.30891 -0.22068,0.70753 -0.47856,0.49519 -3.45969,0.70755 -0.95695,0.45988 -0.55214,0.63686 -0.36793,1.0259 v 0.81359 l 0.44168,0.60134 0.29424,0.67224 0.11068,0.84903 0.88337,0.67206 1.10409,0.0351 1.03055,-0.6367 1.28818,-0.67221 0.77288,-0.0351 0.62573,0.38921 0.40497,0.95504 0.92005,0.63689 0.66243,0.49521 1.21462,1.34427 1.45383,1.36192 1.10432,0.42452 0.69931,-0.0708 1.17769,-0.63674 1.06738,-0.35367 1.25131,0.42434 1.84031,2.44101 -0.14735,0.67206 -1.28815,0.81353 -0.61181,0.81371 0.16522,0.85336 -0.016,0.70756 35.69469,-5.16551 15.26123,-22.85749 12.88952,-8.44183 63.50773,-20.48731 29.86006,15.47426 12.77354,-1.64665 32.85664,-44.05472 -2.31286,-20.3271 5.59244,-8.00174 46.21937,-25.79568 31.87531,4.00186 -18.86793,-24.0137 -5.1458,-25.72898 -20.5832,-10.29162 -13.72212,-18.867908 -37.73582,5.145798 -13.72215,18.86791 -13.7221,5.14582 -3.43055,15.43739 -17.15267,13.72211 h -36.0206 l -17.15262,-6.86107 -20.58319,8.57634 -10.29163,12.00687 1.71528,-8.57634 -29.15954,-17.15267 10.29163,-13.72211 -3.43054,-8.57634 -24.01371,6.86107 -1.71528,-6.86107 -17.15265,-17.15264 -17.15267,3.43052 z"
      data-name="Ferreirópolis" id="ferreiropolis" />
   <path class="neighborhood"
      d="m 168.0961,0 v 15.437387 l -32.59005,5.145796 -12.00687,-3.430551 -5.14579,3.430551 L 92.624409,46.31216 90.909135,66.895341 H 73.756471 L 58.319084,77.186964 49.742769,90.909075 v 5.145797 l 20.583182,24.013738 36.020569,12.00686 -13.722111,12.00687 1.715246,20.58318 6.861075,15.43739 -22.298462,32.59005 17.152661,10.29159 v 18.86794 l 8.576351,8.57632 15.43738,-1.71528 13.72211,8.57634 25.72901,-3.43052 12.00684,-10.29163 42.88167,20.58319 -34.30532,34.30532 48.02744,49.74271 -10.2916,10.2916 -3.43052,12.00687 5.14577,8.57635 1.7153,5.14578 18.7801,-0.50667 28.34423,38.68041 9.3012,-0.18906 3.04219,-14.35983 17.05695,-7.35644 0.19868,-13.94409 5.67821,-4.73875 -6.15179,-6.61373 18.66673,-19.88661 0.78526,-0.64667 0.22435,-0.97015 -0.42624,-0.4959 -0.35898,-0.66825 -0.0898,-1.87547 0.17943,-0.9055 0.62813,-0.4959 1.0993,-0.45264 1.16654,-0.86242 0.80756,-0.0862 1.39072,0.28017 0.98713,-0.10793 0.47104,-0.38799 0.26919,-1.03487 0.6281,-1.59534 0.64202,-0.72075 0.66621,-0.24383 1.71322,-0.21334 1.58629,-0.54889 0.82488,-0.76209 0.69793,-0.54888 1.64959,-0.48779 0.69792,-0.70121 0.15858,-0.85369 -0.41237,-1.21956 -0.66621,-1.15852 -0.21106,-0.89347 -0.10564,-0.44803 0.25391,-0.48797 3.55316,-0.33535 0.8935,-0.7041 0.11022,-1.0259 -0.40481,-1.23792 -0.99382,-0.81354 -2.13464,-2.05162 -0.58885,-0.81359 -0.29454,-1.27339 0.11068,-1.2381 -0.0736,-1.48558 -0.74543,-1.65371 -1.54582,-0.81354 -1.47221,-0.53071 -0.44168,-0.49519 v -0.91971 l 0.18401,-1.30875 -0.22068,-1.55645 -0.99382,-1.4504 -0.25758,-0.88421 -0.0369,-0.95523 0.58903,-0.8489 0.8096,-0.38918 0.6441,-0.66759 0.016,-0.70755 -0.16522,-0.85337 0.61183,-0.81373 1.28815,-0.81351 0.14735,-0.67206 -1.84031,-2.44101 -1.2513,-0.42433 -1.06741,0.35366 -1.17769,0.63674 -0.69931,0.0708 -1.1043,-0.42452 -1.45385,-1.36194 -1.2146,-1.34425 -0.66243,-0.49521 -0.92005,-0.63688 -0.40502,-0.95505 -0.6257,-0.3892 -0.77291,0.0351 -1.28815,0.67219 -1.03053,0.6367 -1.10414,-0.0351 -0.88336,-0.67204 -0.11023,-0.84903 -0.29424,-0.67224 -0.4417,-0.60134 v -0.81359 l 0.36794,-1.0259 0.55216,-0.63686 0.95694,-0.45987 3.4597,-0.70756 0.47855,-0.49519 0.22068,-0.70753 0.69935,-1.30891 v -0.67206 l -0.66243,-1.0259 -0.11068,-0.74287 0.29456,-0.31853 1.43788,-0.32179 0.8808,-0.49177 0.33123,-0.56603 -0.11023,-1.55659 0.47856,-0.88442 -0.18402,-0.49537 -0.66245,-0.56602 -1.65628,-2.3348 -0.95692,-0.99059 v -0.91973 l 0.80962,-0.70755 -0.0736,-0.84904 -0.73604,-0.70755 -1.39861,-0.42454 v -1.0614 l 2.50275,-3.04253 -0.22068,-1.1321 -4.49041,-2.83016 -1.03051,-0.91992 -0.22068,-1.76895 -0.73618,-2.75952 -2.13464,-2.33498 -1.10428,-1.76897 -0.22068,-1.20291 0.44169,-0.70769 2.20823,-1.20277 0.42332,-0.72538 -0.40481,-0.8137 -2.1348,-1.41529 -0.40482,-0.99056 0.18402,-0.99075 1.36176,-1.9458 0.80978,-0.60154 1.10411,-0.24781 1.25147,-0.10611 1.39861,-0.60156 0.51526,-0.8492 -0.58899,-3.67962 -0.44154,-1.41524 -0.29365,-0.61733 0.28875,-0.34668 -5.39451,-2.96622 1.54579,-8.69225 -8.86158,-5.64904 -14.2849,1.96582 -5.54942,-6.8581 18.51097,-29.76674 -2.93583,-59.34579 6.41168,-25.03432 h -1.71529 l -12.00684,-3.43052 -10.29161,8.57632 H 265.86989 L 255.5783,96.05465 260.72406,84.047783 253.86302,73.756192 265.86989,65.179845 236.70886,34.305322 233.27829,15.437418 227.13426,12.70669 219.10628,9.1387655 217.84092,8.5763464 190.39667,10.291591 168.09824,3.0546985e-5 Z"
      data-name="Nova Matrona" id="nova_matrona" />
</svg>