<?xml version="1.0" encoding="UTF-8" standalone="no"?>
<svg version="1.1" id="svg2" width="1000" height="809.60547" viewBox="0 0 1000 809.60546" xml:space="preserve"
   sodipodi:docname="Santarém-PA.svg" inkscape:version="1.2.2 (b0a8486, 2022-12-01)"
   xmlns:inkscape="http://www.inkscape.org/namespaces/inkscape"
   xmlns:sodipodi="http://sodipodi.sourceforge.net/DTD/sodipodi-0.dtd" xmlns="http://www.w3.org/2000/svg"
   xmlns:svg="http://www.w3.org/2000/svg">
   <sodipodi:namedview id="namedview135" pagecolor="#505050" bordercolor="#eeeeee" borderopacity="1"
      inkscape:showpageshadow="0" inkscape:pageopacity="0" inkscape:pagecheckerboard="0" inkscape:deskcolor="#505050"
      showgrid="false" inkscape:zoom="0.50000001" inkscape:cx="449.99999" inkscape:cy="411.99999"
      inkscape:window-width="1180" inkscape:window-height="740" inkscape:window-x="197" inkscape:window-y="0"
      inkscape:window-maximized="0" inkscape:current-layer="svg2" />
   <defs id="defs6" />

   <path style="display:inline;fill:#000000;stroke-width:1.33333;-inkscape-stroke:none;stop-color:#000000"
      d="m 143.517,313.1717 -35.31266,1.54982 -41.719306,5.65685 -28.814601,11.66726 -2.65165,23.5113 36.946329,28.63783 40.835418,24.92551 45.96194,42.07286 11.31371,24.74873 30.75915,22.62742 36.06244,11.76483 16.26346,13.69101 48.79036,-1.76776 36.06245,-8.48528 24.74874,9.19238 19.79899,16.26346 -4.94975,-32.88046 10.96015,-5.30331 -4.59619,-16.617 -14.49569,13.08147 -24.04163,7.42462 -22.98097,-50.20458 -15.20279,5.3033 -3.18199,-3.18198 -25.10229,11.31371 -2.95362,-15.55635 -47.95806,6.01041 -3.18251,-61.51959 -23.35943,9.57354 -7,-8.5 1.5,-11 -24.5,-38.5 -19.5,-8.5 z"
      id="path904" inkscape:label="Zona Rural" />
   <path style="display:inline;fill:#000000;stroke-width:1.33333;-inkscape-stroke:none;stop-color:#000000"
      d="m 472.517,510.33381 -11.25,35.58789 11.25,3.25 3,10.25 12.75,-9 31,12.5 30.25,-15.75 0.248,-10.56262 -0.248,-0.56238 -9.5,-0.625 -3.5,-8.25 -6.25,5.25 -7.75,-9.75 -1.75,-17.73828 -22,11.49023 z"
      id="path1102" inkscape:label="Vitória Régia" />
   <path style="display:inline;fill:#000000;stroke-width:1.33333;-inkscape-stroke:none;stop-color:#000000"
      d="m 243.017,185.42456 -15,42.74714 -44.5,22.5 -1,10.5 -20.5,6.5 -1,11.19533 -9,4.74179 -8.5,29.56288 8.5,27 19.5,8.5 24.5,38.5 -1.5,11 7,8.5 30.5,-12.5 11,-27 3.5,-72 z"
      id="path819" inkscape:label="Vista Alegre do Juá" />
   <path style="display:inline;fill:#000000;stroke-width:1.33333;-inkscape-stroke:none;stop-color:#000000"
      d="m 550.517,504.57969 -1,42.59201 20.5,24.5 -2.5,8.5 12.5,20 23.13308,15.5 3.36692,12.5 -3.36692,5 v 20.5 l 8.86692,7.5 8,-11.5 33,-26.5 5.44823,-15.64127 26.05177,-19.85873 31.5,-1 7.14062,9.5 8.85938,1.5 38.719,-26.79195 -43.96364,-48.49323 -29.59418,-36.62886 -40.25898,18.82203 -28.28427,-8.13173 -65.76051,10.65632 z"
      id="path863" inkscape:label="Vigia" />
   <path style="display:inline;fill:#000000;stroke-width:1.33333;-inkscape-stroke:none;stop-color:#000000"
      d="m 697.17818,485.75766 -40.25898,18.82203 -28.28427,-8.13173 6.0104,-5.65685 -1.41421,-9.8995 10.25305,-39.04006 19.79899,-17.88203 -19.79899,-53.03301 34.64823,-6.01041 3.7596,16.2456 15.28711,57 25.97851,33.41602 z"
      id="path595" inkscape:label="Urumari" />
   <path style="display:inline;fill:#000000;stroke-width:1.33333;-inkscape-stroke:none;stop-color:#000000"
      d="m 927.62464,518.50532 37.35658,59.91607 -2.42575,45.36157 -7.51983,19.16344 -12.61391,11.64361 -8.97529,5.09408 -11.64361,-0.24257 -48.27246,37.11401 -0.72773,-12.12876 -15.28224,-24.74268 -50.69822,-49.00019 24.01495,-22.31692 40.51006,-21.83177 z"
      id="path545" inkscape:label="Urumanduba" />
   <path style="display:inline;fill:#000000;stroke-width:1.33333;-inkscape-stroke:none;stop-color:#000000"
      d="m 735.01991,255.55378 45.36157,30.56448 -27.65357,22.80207 -10.18816,18.19314 -7.51984,-1.69803 -5.57923,12.37134 -14.31193,4.60893 -17.22284,-3.15348 -4.24508,-26.68328 -15.16094,2.91091 -2.42575,-24.01495 z"
      id="path522" inkscape:label="Uruará" />
   <path style="display:inline;fill:#000000;stroke-width:1.33333;-inkscape-stroke:none;stop-color:#000000"
      d="m 643.48417,370.93651 -8.52654,-24.04163 34.33594,-11.31371 -1.76777,-9.54594 14.3662,-1.41422 -3.39211,-9.15115 15.16094,-2.91091 4.24508,26.68328 17.22284,3.15348 -6.30696,15.28224 -26.92979,23.49375 -3.7596,-16.2456 z"
      id="path616" inkscape:label="São José Operário" />
   <path id="path989" style="display:inline;fill:#000000;stroke-width:1.33333;-inkscape-stroke:none;stop-color:#000000"
      inkscape:label="São Cristóvão"
      d="m 328.017,381.1717 -49.25,2.5 -2.2832,57.24023 30.0332,-12.49023 -3.5,-7.27734 7.75,-4.22266 -1.25,-10.25 7.25,-2.75 -3.5,-12.25 z" />
   <path style="display:inline;fill:#000000;stroke-width:1.33333;-inkscape-stroke:none;stop-color:#000000"
      d="m 543.017,435.97443 7.5,16.19727 v 52.40799 l 12.35742,2.52459 65.76051,-10.65632 6.0104,-5.65685 -1.41421,-9.8995 10.25305,-39.04006 19.79899,-17.88203 -4.81793,-12.90516 z"
      id="path861" inkscape:label="Santo André" />
   <path id="path647" style="display:inline;fill:#000000;stroke-width:1.33333;-inkscape-stroke:none;stop-color:#000000"
      d="m 591.07169,196.66389 -25.01563,7.04101 5.30274,22.27539 -8.48438,4.83008 31.4668,35.1211 14.14062,-0.35352 8.48633,31.11328 15.5293,-2.63476 -7.23047,-48.13477 19.5,-3.70898 -3.25391,-11.40235 h -0.12695 l -8.73242,-31.04883 -39.7832,7.51954 z"
      inkscape:label="Santíssimo" />
   <path style="display:inline;fill:#000000;stroke-width:1.33333;-inkscape-stroke:none;stop-color:#000000"
      d="m 401.017,392.4217 14.88003,-14.76873 -3.3016,-40.34593 -2.90417,-35.48939 -21.47264,7.24701 -68.70162,30.10704 8.5,42 10.75,2.5 13,32.5 25,-6.75 11.45162,-15.75 z"
      id="path1044" inkscape:label="Santarenzinho" />
   <path id="path623" style="display:inline;fill:#000000;stroke-width:1.33333;-inkscape-stroke:none;stop-color:#000000"
      d="m 691.11466,192.96858 -38.8125,37.84179 h -10.91602 l 3.38086,11.40235 -19.5,3.70898 7.23047,48.13477 36.78515,-6.24024 5.82032,-1.21289 0.9707,4.85156 58.94531,-35.90039 z"
      inkscape:label="Santana" />
   <path style="display:inline;fill:#000000;stroke-width:1.33333;-inkscape-stroke:none;stop-color:#000000"
      d="m 562.874,230.81111 -19.09189,-16.49875 -17.86203,18.73833 -9.71513,-43.84062 -17.58606,-3.78551 27.30119,-5.79683 -4.60893,-19.40601 9.70301,-2.66833 3.39605,8.36885 44.39126,-9.58173 19.40602,6.54953 -3.8812,4.85151 0.9703,9.46043 h -7.51983 l 3.2958,19.46093 -25.01658,7.04284 5.3033,22.27387 z"
      id="path649" inkscape:label="Santa Clara" />
   <path style="display:inline;fill:#000000;stroke-width:1.33333;-inkscape-stroke:none;stop-color:#000000"
      d="m 303.4786,194.6674 11.88619,-52.15367 22.80207,-27.41101 37.35658,-10.18816 14.31194,11.15846 -6.06438,-1.9406 -4.36636,12.12876 4.36636,-0.24257 10.18816,50.69822 z"
      id="path508" inkscape:label="Salé" />
   <path id="path781" style="display:inline;fill:#000000;stroke-width:1.33333;-inkscape-stroke:none;stop-color:#000000"
      d="m 445.14005,272.64826 -20.87305,4.52344 -10.29297,12.13477 2.5293,10.21289 15.41601,34.64843 9.09766,-23.49609 27.65039,-25.2793 -1.42969,-11.85937 z"
      inkscape:label="Rodagem" />
   <path style="display:inline;fill:#000000;stroke-width:1.33333;-inkscape-stroke:none;stop-color:#000000"
      d="m 591.17281,134.26617 57.00518,19.89117 42.93581,38.81203 -38.81204,37.84174 h -10.91588 l -8.73271,-31.04963 -39.78233,7.51983 -5.09408,-30.07933 h 7.51983 l -0.9703,-9.46043 3.8812,-4.85151 -19.40602,-6.54953 z"
      id="path518" inkscape:label="Prainha" />
   <path style="display:inline;fill:#000000;stroke-width:1.33333;-inkscape-stroke:none;stop-color:#000000"
      d="m 843.69361,376.59881 39.29719,61.12896 9.70301,2.18317 5.8218,8.49014 -3.8812,8.49013 10.18816,14.31194 -68.40621,30.07933 -11.40104,-2.18318 -27.89615,8.00498 -50.19675,-93.78551 31.51846,-14.16046 14.55451,-3.15348 z"
      id="path526" inkscape:label="Pérola do Maicá" />
   <path style="display:inline;fill:#000000;stroke-width:1.33333;-inkscape-stroke:none;stop-color:#000000"
      d="m 303.4786,283.60882 16.0384,55.56288 -43.5,14 v -61 z" id="path817" inkscape:label="Nova Vitória" />
   <path style="display:inline;fill:#000000;stroke-width:1.33333;-inkscape-stroke:none;stop-color:#000000"
      d="m 567.517,580.1717 -114.24455,81 -18.38478,1.79991 -37.47666,41.7193 -2.47487,-5.3033 1.41421,-19.79899 18.73833,-30.05204 31.42832,-164.61488 29.5,9 -3.5,16.41211 -11.25,35.58789 11.25,3.25 3,10.25 12.75,-9 31,12.5 30.25,-15.75 20.5,24.5 z"
      id="path1104" inkscape:label="Nova República II" />
   <path id="path1048" style="display:inline;fill:#000000;stroke-width:1.33333;-inkscape-stroke:none;stop-color:#000000"
      inkscape:label="Nova República"
      d="m 550.517,476.76545 -69.99805,1.99414 -4.50195,15.16211 -3.5,16.41211 26.25,6.08984 22,-11.49023 1.75,17.73828 7.75,9.75 6.25,-5.25 3.5,8.25 9.5,0.625 0.24805,0.5625 0.23633,-10.04102 0.23242,-9.96679 0.2832,-12.02149 z" />
   <path id="path659" style="display:inline;fill:#000000;stroke-width:1.33333;-inkscape-stroke:none;stop-color:#000000"
      inkscape:label="São Francisco"
      d="m 543.017,435.97443 -17.25,6.57227 -16.875,3.875 0.375,7.375 -7.125,-0.25 -0.375,3.625 -14.02344,-3.375 -3.22656,11.5 -3.99805,13.46289 69.99805,-1.99414 V 452.1717 Z" />
   <path style="display:inline;fill:#000000;stroke-width:1.33333;-inkscape-stroke:none;stop-color:#000000"
      d="m 379.12887,516.42368 28.88813,-10.12698 20,-1.36346 18.5,-20.01154 29.5,9 8.5,-28.625 -6.17719,-12.125 -6.32281,-1.75 -11.875,-21.125 -9.625,2.5 -2.25,-11 -22.25,-10.875 -8.625,-15 -1.56054,-19.06999 -14.81446,15.56999 4,24.75 -16.44483,34.25 -4.59619,33.00545 4.59619,16.617 -10.96015,5.30331 z"
      id="path1046" inkscape:label="Matinha" />
   <path style="display:inline;fill:#000000;stroke-width:1.33333;-inkscape-stroke:none;stop-color:#000000"
      d="m 283.517,194.6674 -17,-9.24284 h -23.5 l 3.5,109.74714 29.5,-3 27.4616,-8.56288 -5.4616,-11.93712 -9,-36.26287 z"
      id="path813" inkscape:label="Maracanã I" />
   <path style="display:inline;fill:#000000;stroke-width:1.33333;-inkscape-stroke:none;stop-color:#000000"
      d="m 319.517,339.1717 68.70162,-30.10704 -21.92031,-20.50609 -37.83021,-5.65686 -7.07107,-14.84924 -23.38003,3.61923 5.4616,11.93712 z"
      id="path855" inkscape:label="Maracanã" />
   <path style="display:inline;fill:#000000;stroke-width:1.33333;-inkscape-stroke:none;stop-color:#000000"
      d="m 289.017,235.40883 9,36.26287 23.38003,-3.61923 6.36396,-10.6066 40.65864,-7.77818 -0.70711,-8.48528 3.53554,-0.7071 -3.18198,-15.90991 -13.08148,1.06066 -1.76776,-9.19238 -35.19984,4.2388 z"
      id="path779" inkscape:label="Mapiri" />
   <path style="display:inline;fill:#000000;stroke-width:1.33333;-inkscape-stroke:none;stop-color:#000000"
      d="m 726.77236,522.38652 -29.59418,-36.62886 26.68327,-14.55451 41.31492,-23.77947 31.9428,59.6806 z" id="path547"
      inkscape:label="Maicá" />
   <path id="path618" style="display:inline;fill:#000000;stroke-width:1.33333;-inkscape-stroke:none;stop-color:#000000"
      inkscape:label="Livramento"
      d="m 675.10294,286.60334 -5.82032,1.21289 -52.31445,8.875 17.99024,50.20313 34.33593,-11.3125 -1.76757,-9.54688 14.36523,-1.41406 -3.39258,-9.15039 -2.42578,-24.01563 z" />
   <path id="path2080" style="display:inline;fill:#000000;stroke-width:1.33333;-inkscape-stroke:none;stop-color:#000000"
      inkscape:label="Liberdade"
      d="m 393.95841,176.71662 -90.48047,17.95117 H 283.517 l 5.5,40.74024 29,-14.73633 35.19922,-4.23828 46.56445,-10.12305 z" />
   <path style="display:inline;fill:#000000;stroke-width:1.33333;-inkscape-stroke:none;stop-color:#000000"
      d="m 389.83538,116.07302 23.52979,17.46542 14.06937,67.19334 -27.65358,5.57923 -5.8218,-29.59418 -10.18816,-50.69822 -4.36636,0.24257 4.36636,-12.12876 z"
      id="path510" inkscape:label="Laguinho" />
   <path id="path572" style="display:inline;fill:#000000;stroke-width:1.33333;-inkscape-stroke:none;stop-color:#000000"
      d="m 708.82169,357.67756 -26.92969,23.49414 15.28711,57 25.97851,33.41602 1.30665,-0.73243 16.68945,-9.60547 10.5664,-6.08203 13.45704,-7.74414 -2.72657,-5.09375 -15.52734,-29.01172 -18.69531,8.4004 z"
      inkscape:label="Jutaí" />
   <path style="display:inline;fill:#000000;stroke-width:1.33333;-inkscape-stroke:none;stop-color:#000000"
      d="m 525.92008,233.05069 -84.90308,77.62101 30.75,32.75 103.72244,-98.5313 -12.61544,-14.07929 -19.09189,-16.49875 z"
      id="path717" inkscape:label="Jardim Santarém" />
   <path style="display:inline;fill:#000000;stroke-width:1.33333;-inkscape-stroke:none;stop-color:#000000"
      d="m 904.82257,471.20315 22.80207,47.30217 -56.27745,48.02989 -40.51006,21.83177 -24.01495,22.31692 -80.04982,-88.29738 70.34681,-15.28224 27.89615,-8.00498 11.40104,2.18318 z"
      id="path528" inkscape:label="Jaderlândia" />
   <path style="display:inline;fill:#000000;stroke-width:1.33333;-inkscape-stroke:none;stop-color:#000000"
      d="m 594.34122,265.93147 -43.82422,37.68061 7.5,46.55962 49,-11 4.5,7.72266 h 23.44141 l -17.99024,-50.20313 -8.48633,-31.11328 z"
      id="path857" inkscape:label="Ipanema" />
   <path style="display:inline;fill:#000000;stroke-width:1.33333;-inkscape-stroke:none;stop-color:#000000"
      d="m 448.267,421.7967 2.25,11 9.625,-2.5 11.875,21.125 6.32281,1.75 6.17719,12.125 3.2269,-11.5 14.0231,3.375 0.375,-3.625 7.125,0.25 -0.375,-7.375 16.875,-3.875 17.25,-6.57227 -3.5,-14.25663 4.5,-7.08516 0.5,-29.46094 -64.19772,17.40784 -33.80228,6.71716 z"
      id="path1040" inkscape:label="Floresta" />
   <path style="display:inline;fill:#000000;stroke-width:1.33333;-inkscape-stroke:none;stop-color:#000000"
      d="m 409.69126,301.81765 7.70074,94.10405 8.625,15 22.25,10.875 -1.75,-12.5 33.80228,-6.71716 -6.18718,-33.23402 9.01561,-3.00521 4.59619,-5.48007 -15.9769,-17.43854 -30.75,-32.75 -9.09861,23.49525 -15.4155,-34.64823 z"
      id="path1038" inkscape:label="Esperança" />
   <path style="display:inline;fill:#000000;stroke-width:1.33333;-inkscape-stroke:none;stop-color:#000000"
      d="m 413.36517,133.53844 34.44569,-2.42575 8.24755,43.66354 -5.8218,1.9406 4.8515,17.95057 -27.65357,6.06438 z"
      id="path512" inkscape:label="Fátima" />
   <path style="display:inline;fill:#000000;stroke-width:1.33333;-inkscape-stroke:none;stop-color:#000000"
      d="m 246.517,295.1717 -3.5,72 33,-14 v -61 z" id="path815" inkscape:label="Elcione Barbalho" />
   <path style="display:inline;fill:#000000;stroke-width:1.33333;-inkscape-stroke:none;stop-color:#000000"
      d="m 558.017,350.1717 -13.5,35 -0.5,29.46094 -4.5,7.08516 3.5,14.25663 115.44823,-24.91007 -14.98106,-40.12785 -8.52576,-24.04215 H 611.517 l -4.5,-7.72266 z"
      id="path859" inkscape:label="Diamantino" />
   <path id="path730" style="display:inline;fill:#000000;stroke-width:1.33333;-inkscape-stroke:none;stop-color:#000000"
      inkscape:label="Conquista"
      d="m 299.6713,382.61115 -6.69336,-34.89843 -16.96094,5.45898 -33,14 -7.75781,19.04297 43.50781,-2.54297 z" />
   <path id="path440" style="display:inline;fill:#000000;stroke-width:1.33333;-inkscape-stroke:none;stop-color:#000000"
      inkscape:label="Novo Horizonte"
      d="m 319.517,339.1717 -7.22656,2.32617 -19.3125,6.21485 6.69336,34.89843 28.3457,-1.43945 z" />
   <path style="display:inline;fill:#000000;stroke-width:1.33333;-inkscape-stroke:none;stop-color:#000000"
      d="m 520.58342,131.11269 32.26251,-9.21786 13.34163,-0.72773 24.98525,13.09907 -12.37134,22.07434 -44.39126,9.58173 -3.39605,-8.36885 -9.70301,2.66833 z"
      id="path516" inkscape:label="Centro" />
   <path id="path749" style="display:inline;fill:#000000;stroke-width:1.33333;-inkscape-stroke:none;stop-color:#000000"
      inkscape:label="Caranazal"
      d="m 455.08731,194.66779 -27.65234,6.06446 -27.6543,5.57812 -46.56445,10.12305 1.76758,9.19336 13.08203,-1.06055 3.18164,15.9082 -3.53516,0.70704 0.70703,8.48632 -40.6582,7.77735 -6.36328,10.60742 7.07031,14.84961 37.83008,5.65625 21.91992,20.50586 28.28516,-9.54492 -2.5293,-10.21289 10.29297,-12.13477 20.87305,-4.52344 15.91015,-39.59765 3.00586,-7.42383 -3.80078,-2.29883 z" />
   <path style="display:inline;fill:#000000;stroke-width:1.33333;-inkscape-stroke:none;stop-color:#000000"
      d="m 382.56177,539.22792 6.0104,41.01219 -14.84924,-1.06066 10.6066,34.64824 -6.71751,-3.53554 -9.54594,35.00179 -7.42462,4.94974 12.02081,19.44544 9.54594,-4.24264 19.17874,6.06457 13.70173,-21.97447 31.42832,-164.61488 -18.5,20.01154 -20,1.36346 -28.88813,10.12698 z"
      id="path1106" inkscape:label="Cambuquira" />
   <path style="display:inline;fill:#000000;stroke-width:1.33333;-inkscape-stroke:none;stop-color:#000000"
      d="m 780.38148,286.11826 39.29719,27.16842 24.01494,63.31213 -50.69822,19.40602 -14.55451,3.15348 -50.21307,22.55949 -19.40602,-64.03985 6.30696,-15.28224 14.31193,-4.60893 5.57923,-12.37134 7.51984,1.69803 10.18816,-18.19314 z"
      id="path524" inkscape:label="Área Verde" />
   <path style="display:inline;fill:#000000;stroke-width:1.33333;-inkscape-stroke:none;stop-color:#000000"
      d="m 455.08811,194.6674 5.16702,28.66057 3.80069,2.29809 -18.9151,47.02261 22.09708,0.88388 1.42932,11.86056 57.25296,-52.34242 -9.71513,-43.84062 -17.58606,-3.78551 z"
      id="path719" inkscape:label="Aparecida" />
   <path style="display:inline;fill:#000000;stroke-width:1.33333;-inkscape-stroke:none;stop-color:#000000"
      d="m 328.017,381.1717 10.75,2.5 13,32.5 25,-6.75 11.45162,-15.75 12.79838,-1.25 4,24.75 -16.44483,34.25 -4.59619,33.00545 -14.49569,13.08147 -24.04163,7.42462 -22.98097,-50.20458 -15.20279,5.3033 -3.18199,-3.18198 -25.10229,11.31371 -2.95362,-15.55635 0.4668,-11.69541 30.0332,-12.49023 -3.5,-7.27734 7.75,-4.22266 -1.25,-10.25 7.25,-2.75 -3.5,-12.25 z"
      id="path1042" inkscape:label="Amparo" />
   <path style="display:inline;fill:#000000;stroke-width:1.33333;-inkscape-stroke:none;stop-color:#000000"
      d="m 235.25876,386.21464 43.50824,-2.54294 -2.75,68.93564 -47.95806,6.01041 -3.18251,-61.51959 7.14057,-2.92646 z"
      id="path946" inkscape:label="Alvorada" />
   <path style="display:inline;fill:#000000;stroke-width:1.33333;-inkscape-stroke:none;stop-color:#000000"
      d="m 447.81086,131.11269 h 72.77256 l 0.72773,29.10903 4.60893,19.40601 -70.83197,15.03967 -4.8515,-17.95057 5.8218,-1.9406 z"
      id="path514" inkscape:label="Aldeia" />
   <path style="display:inline;fill:#000000;stroke-width:1.33333;-inkscape-stroke:none;stop-color:#000000"
      d="m 471.767,343.4217 15.9769,17.43854 -4.59619,5.48007 -9.01561,3.00521 6.18718,33.23402 64.19772,-17.40784 13.5,-35 -7.5,-46.55962 43.82422,-37.68061 -18.85178,-21.04107 z"
      id="path1036" inkscape:label="Aeroporto Velho" />
</svg>