<?xml version="1.0" encoding="UTF-8" standalone="no"?>
<svg version="1.1" id="svg2" width="607.77563" height="536.14618" viewBox="0 0 607.77563 536.14618"
   xmlns="http://www.w3.org/2000/svg" xmlns:svg="http://www.w3.org/2000/svg">
   <defs id="defs6" />
   <path class="neighborhood"
      d="m 334.57204,47.25388 0.24461,0.623612 0.67839,0.894567 -3.33483,4.168532 -1.66741,15.840422 2.50112,11.67189 -4.16853,6.669651 1.66741,4.16853 -3.33482,5.83595 -7.50336,4.168526 -3.33483,9.17077 -20.00895,4.16853 -13.3393,-1.66741 -5.83595,10.00447 -13.3393,10.00448 v 10.00448 l 17.50783,9.17077 8.33707,-2.50112 12.50559,7.50336 5.83595,15.00671 6.66965,9.17077 -10.83818,5.83595 -4.16854,-2.50112 -9.17076,5.83594 -14.17301,0.83371 -3.33483,2.50112 -5.00224,10.00447 -9.17077,3.33483 -0.16307,5.8427 -0.002,-0.16074 -0.0291,-0.15007 -0.0796,-0.11663 -0.28937,-0.0806 -0.31973,0.009 -0.16774,-0.0257 -0.0662,-0.15307 0.0193,-0.22427 0.0849,-0.35366 -0.0268,-0.12655 -0.0872,-0.0429 -0.19233,0.0344 -0.21602,-0.10596 -0.17883,0.0172 -0.18433,0.14882 -0.22935,0.15557 -0.14315,0.0214 -0.18425,-0.0677 -0.40159,-0.2131 -0.42936,-0.0278 -0.42353,-0.0549 -0.21242,0.002 -0.21252,0.0194 -0.0492,0.075 0.003,0.13206 -0.01,0.13589 -0.0484,0.0656 -0.14757,0.0385 -0.2647,-0.0291 -0.31314,-0.0729 -0.21684,-0.10072 -0.13198,-0.13506 -0.14665,-0.24952 -0.11497,-0.13848 -0.15657,-0.1329 -0.0536,-0.13722 0.0558,-0.13506 0.26387,-0.0771 0.27287,-0.0794 0.0939,-0.09 0.0425,-0.13931 -0.0224,-0.14365 -0.067,-0.0536 -0.076,0.0258 -0.1163,0.19292 -0.23928,0.1329 -0.14448,0.0163 -0.0836,-0.0614 -0.0268,-0.13507 0.0716,-0.11788 0.24369,-0.15866 0.0649,-0.0815 -0.0179,-0.10288 -0.094,-0.045 -0.17441,0.0214 -0.0997,-0.007 -0.14623,-0.11705 -0.30639,-0.23577 -0.0595,-0.12739 -0.003,-0.1599 -0.0559,-0.0708 -0.0872,-0.004 -0.12964,0.0922 -0.0752,-0.007 -0.11046,-0.0677 -0.11847,-0.11364 -0.0649,-0.0408 h -0.12297 l -0.0864,-0.0523 -0.007,-0.045 0.0639,-0.0699 0.0246,-0.06 -0.0371,-0.0544 -0.10738,-0.0236 -0.0626,-0.0408 -0.021,-0.0741 0.0425,-0.14582 0.0268,-0.16932 -0.0559,-0.21226 -0.0895,-0.0407 -0.18241,-0.007 -0.40702,-0.0772 -0.14181,-0.0463 -0.12522,0.009 -0.076,-0.0428 0.0291,-0.0815 0.1454,-0.0193 0.10063,-0.002 0.11263,-0.12305 0.0103,-0.14915 -0.0783,-0.10938 -0.14981,-0.0214 -0.24736,0.0463 -0.10372,8.4e-4 -0.0671,-0.0643 -0.0594,-0.14665 -0.0962,-0.0558 -0.1073,0.002 -0.0671,0.0258 -0.14624,0.12297 -0.0684,0.0485 -0.23119,0.14656 -0.16549,0.0858 -0.10513,-0.002 -0.064,-0.0523 0.0193,-0.11063 0.12747,-0.0536 0.20351,-0.0643 0.0725,-0.0824 0.0148,-0.0785 -0.0559,-0.0536 -0.093,0.001 -0.14982,0.0386 -0.14532,-0.0129 -0.12072,-0.0385 -0.0658,-0.0656 -0.0335,-0.15007 0.0246,-0.0944 0.0738,-0.0214 0.10821,0.10421 0.12297,0.0364 0.0528,-0.0377 -0.007,-0.09 -0.11631,-0.16941 -0.0335,-0.11363 0.0299,-0.0265 0.1243,0.018 0.10964,-0.0408 0.0679,-0.0973 -0.008,-0.10421 -0.10955,-0.0922 -0.13106,-0.0609 -0.0948,-0.0656 -0.0729,-0.15091 0.004,-0.12347 0.0895,-0.10721 0.15432,-0.10505 0.0201,-0.1243 -0.0425,-0.0644 -0.22493,-0.0287 -0.1865,-0.0163 -0.17892,0.0708 -0.17574,0.0442 -0.0649,-0.0386 -8.4e-4,-0.0806 0.13865,-0.0536 0.11847,-0.10071 0.10288,-0.15006 0.15873,-0.0708 0.0671,-0.1865 0.0246,-0.13289 0.0269,-0.23802 -0.0528,-0.11447 -0.0479,-0.0913 0.002,-0.19084 0.0246,-0.18858 -0.0618,-0.0888 -0.15065,-0.0484 -0.16016,-0.018 0.001,-0.1128 0.0783,-0.0814 0.18116,-0.0879 0.17667,-0.12006 0.0925,-0.10379 0.0282,-0.12348 -0.0827,-0.11363 -0.0828,-0.19934 0.0805,-0.0536 h 0.0984 l 0.14532,0.0386 0.13197,-0.004 0.0403,-0.0835 -0.0537,-0.0922 -0.19676,-0.0965 -0.0894,-0.0536 -0.15657,-0.06 -0.0984,-0.004 -0.29205,0.0419 -0.13956,-0.0227 -0.12964,-0.1865 -0.0819,-0.17667 -0.0747,-0.11705 -0.12656,-0.018 -0.12297,0.0558 -0.16549,0.0879 -0.0322,0.12306 -0.0626,0.0493 -0.0819,-0.0201 -0.0836,-0.0978 -0.0908,-0.25386 -0.0884,-0.0828 h -0.14314 l -0.23253,0.0429 -0.12522,-0.0444 -0.15657,-0.20001 -0.18783,-0.15431 -0.1118,-0.0558 -0.23702,0.0172 -0.20576,0.0557 -0.17892,-0.0128 -0.19675,-0.12006 -0.39801,-0.0857 -0.28621,-0.004 -0.30414,-0.0615 -0.16549,-0.0714 -0.15657,0.0857 -0.13414,0.0515 -0.14315,-0.0258 -0.0358,-0.15007 0.12523,-0.083 0.25944,-0.0944 0.11622,-0.14857 -0.0402,-0.17299 -0.16549,0.0615 -0.16999,0.0772 -0.0939,-0.0472 v -0.19725 l -0.0134,-0.15432 -0.13865,-0.12864 -0.18783,-0.0214 -0.0715,0.0628 -0.0493,0.20309 -0.0626,0.11147 -0.12072,-0.0444 -0.12072,-0.19142 -0.17449,-0.17575 -0.15649,0.0128 -0.0715,0.11147 -0.0359,0.20151 -0.0402,0.0814 -0.10288,0.0644 -0.17441,-0.0214 -0.0626,-0.13448 0.18333,-0.19292 v -0.16141 l -0.12972,-0.0514 -0.17441,0.10562 -0.25487,0.0101 -0.12522,0.0686 -0.0895,0.10721 -0.14314,0.0343 -0.0671,0.10571 0.0269,0.28446 -0.0581,0.13148 -0.19676,0.0358 -0.0805,0.0772 v 0.13998 l -0.085,0.0615 -0.18783,-0.0701 -0.17891,-0.1143 -0.13415,-0.0128 -0.33098,0.0944 -0.25044,0.0257 -0.37125,-0.0943 -0.49639,-0.23152 -0.23702,-0.0815 -0.15658,0.004 -0.24152,0.0686 -0.42035,-0.0729 -0.24603,0.0472 -0.88998,0.39876 -0.16099,0.009 -0.17892,-0.14582 -0.0849,0.0858 -0.0984,0.16724 -0.0805,0.06 -0.26387,0.0857 -0.19676,-0.0214 -0.0805,-0.09 -0.0268,-0.14298 0.2818,-0.4101 0.32197,-0.34307 0.0403,-0.15866 -0.067,-0.27162 -0.25495,-0.3329 -0.15206,-0.18867 0.009,-0.2416 0.13864,-0.23152 0.15657,-0.21443 0.004,-0.0671 -0.0939,-0.06 -0.1163,-0.0343 -0.24152,0.0686 -0.17441,-0.10437 -0.15649,-0.007 -0.26387,0.06 -0.27729,-0.0258 -0.16549,-0.0428 -0.33098,-0.25303 -0.18784,-0.0744 -0.15648,-0.0113 -0.1745,0.0686 -0.1654,0.09 -0.23261,0.03 -0.4472,-0.0573 -0.44728,-0.06 -0.58135,-0.17424 -0.27287,-0.09 -0.12522,0.004 -0.12072,0.0843 -0.19234,0.083 -0.13864,-0.0729 -0.1163,-0.20301 -0.0984,-0.2386 -0.13415,-0.0514 -0.31755,0.0428 -0.14307,0.12864 -0.1208,0.20584 -0.0134,0.19142 -0.085,0.10872 -0.12972,0.0643 -0.12964,0.009 -0.13423,-0.0744 0.0179,-0.16575 -0.13864,-0.10287 -0.23703,-0.0101 -0.12522,-0.0671 -0.094,-0.14581 -0.009,-0.13715 0.0358,-0.24869 -0.0313,-0.31731 0.0358,-0.16724 -0.10738,-0.11572 -0.17891,0.0685 -0.39351,0.18442 -0.24153,0.12005 -0.2236,0.0986 -0.24603,0.0643 -0.25936,0.1158 -0.28621,0.18008 h -0.0805 l -0.0804,-0.18433 -0.12081,-0.0573 -0.0537,0.0615 0.0314,0.11147 -0.005,0.18441 -0.0984,0.12431 -0.19675,0.0344 -0.29522,0.0171 -0.32198,-0.0857 -0.0403,-0.16299 0.1208,-0.21009 0.20126,-0.13289 0.15648,-0.18867 0.1118,-0.21868 0.0448,-0.17583 -0.076,-0.13715 -0.0626,0.0386 -0.0359,0.18008 -0.0984,0.0842 -0.12964,0.0143 -0.15207,-0.0771 -0.0358,-0.09 -0.009,-0.21009 0.13423,-0.18442 0.19675,-0.0572 0.16991,0.0315 0.12081,-0.03 -0.0224,-0.13298 -0.1208,-0.13723 -0.24153,-0.0872 -0.0581,-0.0799 0.0223,-0.16724 0.14315,-0.0487 0.13414,-0.17433 0.1163,0.0629 0.15207,0.16441 0.076,0.0429 0.17442,0.0413 0.14314,0.09 0.14757,0.0615 0.12072,-0.0128 0.0537,-0.0744 -0.0358,-0.10996 -0.14756,-0.0643 -0.21468,-0.0558 -0.15657,-0.1243 -0.0626,-0.15866 0.0447,-0.083 0.20126,-0.0456 0.19684,0.0971 0.24152,0.0401 0.11622,-0.0772 -0.0223,-0.1544 -0.0671,-0.25728 -0.0581,-0.41586 -0.15649,-0.2316 -0.13423,-0.12005 -0.12522,-0.0444 -0.17441,-0.0414 -0.12072,-0.0529 -0.20126,0.0358 -0.2326,-0.0128 -0.10288,-0.0858 0.005,-0.15432 0.0447,-0.10013 0.0582,-0.13297 -0.0671,-0.11147 -0.0626,0.0101 -0.0804,0.10721 -0.13423,0.0386 -0.21017,-0.0429 -0.23703,-0.0643 -0.19233,0.03 -0.19234,-0.0258 -0.1118,-0.0986 -0.0626,-0.17149 -0.076,-0.12581 -0.0984,0.006 -0.0492,0.0986 -0.0984,0.13723 -0.14756,0.03 -0.094,-0.0815 0.005,-0.14148 0.076,-0.18434 -0.0626,-0.27595 -0.0671,-0.0971 -0.085,-0.16015 -0.18342,0.0273 -0.13414,0.0729 -0.0269,0.12006 0.0537,0.25578 0.0178,0.22302 -0.13856,0.13864 -0.16107,0.0929 -0.24144,0.0101 -0.14315,0.0771 -0.094,-0.01 -0.13864,-0.11005 -0.17883,-0.18433 -0.17892,-0.14148 -0.16999,-0.0258 -0.11622,-0.0315 -0.13864,0.0858 -0.10738,0.0915 -0.0626,0.12005 0.0671,0.13139 0.0581,0.17733 -0.076,0.13723 -0.0894,0.0413 -0.1028,-0.0157 -0.0314,-0.0943 0.0403,-0.13298 -0.12972,-0.14573 -0.0626,-0.12005 0.0313,-0.10722 0.16099,-0.06 0.20126,-0.14148 0.0671,-0.15015 -0.0493,-0.13439 -0.12522,-0.0628 -0.17442,0.0585 -0.11621,-0.05 -0.0985,-0.1344 -0.0447,-0.14431 -0.094,-0.0471 -0.0939,0.0771 -0.11631,0.0129 -0.0671,-0.0814 0.0537,-0.0815 0.0492,-0.10287 -0.0447,-0.13873 -0.0492,-0.11581 0.1163,-0.0756 0.12073,-0.13873 -0.094,-0.10997 -0.14757,-0.0787 -0.0671,-0.12864 -0.0894,-0.30722 -0.12972,-0.24011 -0.2326,-0.12439 -0.31748,-0.14148 -0.0895,-0.09 -0.0358,-0.18441 -0.0895,-0.0729 -0.0895,0.13289 -0.13864,0.0843 -0.16099,-0.0243 -0.085,-0.12155 -0.004,-0.1143 -0.0223,-0.1715 -0.10288,-0.0487 -0.094,0.0573 v 0.16724 l -0.1118,0.20001 -0.12972,0.10871 -0.14307,0.06 -0.18783,-0.0472 -0.005,-0.17149 -0.0224,-0.12581 -0.21918,-0.0586 -0.27729,-0.0171 -0.24594,0.0171 -0.1118,0.0815 -0.17425,0.1243 -0.11622,0.0815 0.004,0.0686 0.009,0.22302 -0.094,0.15006 -0.24594,0.0729 -0.16574,0.14006 -0.21443,0.17725 -0.12523,0.0558 -0.076,-0.0428 -0.0179,-0.19725 -0.10304,-0.26737 -0.1429,0.0101 -0.0179,0.0857 -0.0226,0.17008 -0.0849,0.0729 -0.0892,-0.0199 -0.036,-0.19017 -0.17866,-0.10572 -0.2236,-0.0343 h -0.0671 l -0.0941,0.0692 -0.0132,0.0745 0.0201,0.16074 0.12723,0.3158 0.036,0.13448 -0.0246,0.0707 -0.0403,0.0279 -0.13414,-0.009 -0.23478,-0.0836 -0.0872,-0.11147 0.0154,-0.11088 0.0269,-0.12647 -0.0848,-0.1379 -0.12747,-0.0236 -0.11847,-0.0771 -0.0828,-0.20801 -0.12747,-0.13289 -0.11847,0.0128 -0.0962,-0.0236 v -0.0943 l 0.0694,-0.193 -0.004,-0.18867 -0.0424,-0.19084 -0.1098,-0.0658 -0.0199,-0.0735 0.0825,-0.0359 0.14081,-0.045 0.002,-0.14423 -0.0268,-0.10721 0.0604,-0.10505 0.15657,0.0107 0.11831,-0.0422 0.0293,-0.0779 -0.0514,-0.0772 -0.17441,-0.0429 -0.0917,-0.0922 -0.0559,-0.11572 v -0.15224 l -0.0805,-0.10721 -0.16099,-0.0214 -0.12097,-0.0594 -0.0266,-0.0992 0.0626,-0.15224 0.19434,-0.17949 0.0872,-0.12648 -0.0177,-0.0907 -0.10288,-0.002 -0.15873,0.13506 -0.18567,0.0514 -0.0804,-0.0622 0.004,-0.1093 0.0828,-0.075 0.20993,-0.0851 0.0785,-0.10354 0.0134,-0.11797 -0.0738,-0.12223 -0.197,-0.15156 -0.1474,-0.17642 -0.074,-0.18808 -0.10955,-0.38159 -0.0825,-0.27729 -0.0649,-0.11572 -0.0941,-0.0573 -0.15182,0.0123 -0.13639,-0.0408 -0.0895,-0.0172 -0.15432,-0.10505 -0.076,0.0108 -0.0514,0.10505 -0.0156,0.0772 0.15874,0.15648 -0.002,0.0944 -0.12523,0.0321 -0.11405,0.007 -0.1945,-0.088 -0.12997,-0.098 -0.0536,-0.14148 0.002,-0.17583 0.0182,-0.12714 -0.0537,-0.11146 -0.0917,-0.0494 -0.10288,-0.006 -0.2191,-0.006 -0.0783,-0.0236 -0.18117,-0.193 -0.15873,-0.1008 -0.22369,-0.002 -0.1654,0.0236 -0.12306,0.0643 -0.18341,0.0955 -0.0871,0.0332 -0.18341,-0.09 -0.29963,-0.10288 -0.0939,0.004 -0.0604,0.0514 -0.002,0.0708 0.16099,0.12223 0.0469,0.10504 -0.0246,0.12864 -0.12747,0.14148 -0.16324,0.0729 -0.22811,0.15007 -0.16324,0.0643 -0.14306,0.0665 -0.16116,0.059 -0.096,0.0418 -0.14982,0.15866 -0.0895,0.0633 -0.0446,0.15757 -0.0203,0.37842 -0.0626,0.14582 -0.058,0.10613 -0.25711,0.0707 -0.19684,0.0922 -0.12522,0.0965 -0.19676,0.28521 -0.10287,0.13072 -0.0895,0.0429 -0.24369,0.0707 -0.19234,0.0408 -0.32648,0.0364 -0.17441,0.002 -0.0604,0.0429 -0.076,0.0536 -0.0425,0.0836 -0.10288,0.31089 -0.11847,0.1394 -0.16108,0.0257 -0.10504,-0.0557 -0.0984,-0.30231 -0.0359,-0.13939 -0.0627,-0.0203 -0.15416,-0.003 -0.0514,0.0836 -0.002,0.0836 0.0827,0.13506 -0.0536,0.10288 -0.0783,0.0515 -0.14539,0.0278 -0.16099,-0.0258 -0.0715,0.0344 -0.076,0.11789 -0.0984,0.0686 -0.11421,-0.0353 -0.15866,-0.2005 -0.0761,-0.17475 -0.0401,-0.2948 -0.0738,-0.33656 -0.0985,-0.13081 -0.25937,-0.10722 -0.21251,-0.16399 -0.20784,-0.2562 -0.009,-0.15223 -0.0335,-0.15649 -1.40313,-0.55833 -7.39181,0.36533 1.89635,-3.17317 -2.11094,-2.33271 -1.8605,-4.42548 -6.51175,1.23497 -3.79253,-2.50437 -2.50454,1.78396 -4.40288,-0.1193 -4.47025,1.90327 -4.68702,-1.40655 -7.85343,0.95193 -1.59221,-2.42717 -2.96966,-0.54891 -4.36496,3.67081 -0.33381,-0.35333 -0.0744,-0.0788 -1.30925,-1.38612 -1.82473,-1.98981 -1.53844,0.54891 -4.1191,4.79365 -4.4439,0.99486 -1.90369,-4.21314 -4.31168,0.14757 1.0393,-4.8791 -3.68523,-0.68623 -2.39716,-7.99374 -10.80517,-2.09294 2.18248,-6.10715 -2.07643,-1.58829 -0.929,-0.71057 -0.75133,-3.39685 -3.25588,-0.92641 -0.25044,-3.94594 -2.39724,-1.57845 -6.51167,4.28916 -12.486827,-7.92638 -2.5604,-5.92606 -0.80011,-0.67897 -1.20687,-1.84575 -2.51679,-2.11836 -1.40863,-2.43601 -0.026,-0.0449 -2.8306,-1.34827 -4.42907,-1.18102 -3.50632,0.96084 -3.25587,-1.78446 -11.52074,-0.3775 -6.40445,-5.35365 -7.69244,-2.88279 -5.29521,0.72066 -5.4742,-0.75501 -2.30769,-2.38523 -2.16364,-0.374 -0.0653,-0.0194 -2.85419,-0.84813 -4.27733,-0.78293 -3.62938,1.77854 12.27916,12.92837 2.50112,7.50336 17.50784,9.17077 -5.00224,11.67189 2.50112,15.00672 20.84266,14.173 2.50112,5.00224 -1.66742,10.83819 9.17078,1.66741 20.00895,32.51455 7.503357,-3.33483 8.33706,24.17749 22.51007,14.17301 h 25.8449 l 6.66965,13.3393 0.83371,16.67413 v 4.16853 25.8449 l -4.16853,8.33706 -35.84938,-31.68084 -12.42739,-10.58157 -2.14671,-2.31403 -2.70138,-1.21697 -5.40258,-1.37128 -4.865927,1.93695 -4.97056,1.0413 -1.68425,2.69538 -3.98937,4.97064 -1.39537,3.78794 -2.14671,2.21099 -3.02327,1.78247 -2.1468,-0.13707 0.53674,1.57679 -1.94995,0.53132 -4.1682,2.34797 -5.16181,2.79617 -1.7106,-2.80467 -2.12595,0.19709 -0.56359,0.69406 -1.17169,0.6342 -1.23438,-0.97694 -1.38646,0.79694 -1.10016,-1.49108 -1.13601,0.65129 -1.3596,0.32564 -0.73342,-0.8312 -0.7961,0.43703 -0.47405,-0.0429 -0.40251,-0.23135 -0.64404,-0.12856 0.0895,0.9255 -0.84088,0.48839 -1.63681,-2.27944 -1.92311,-0.0171 -1.69952,1.02829 -1.18069,-0.0257 -1.55636,1.36253 -1.46699,-0.71982 -1.1807,0.46271 -1.03755,-0.27421 -1.79021,0.933 -1.66742,-1.66741 -0.29913,1.3857 -1.03763,1.55962 -1.6279,1.23388 -0.0894,1.23397 -1.11442,1.25648 h -1.66741 l -1.67267,6.147 -1.93203,0.85688 -0.39359,1.95363 -1.89627,0.99394 -1.21646,2.24492 -1.05547,4.67826 -0.64404,1.69651 -0.96601,0.46263 -0.3399,1.16527 0.64403,0.41126 -0.25044,0.83963 -4.25766,2.05634 -1.36853,0.9681 0.30406,0.7154 -0.38459,0.40693 -0.0715,1.6279 1.01962,1.42222 -0.76918,0.99378 -1.64582,-0.85672 -0.66196,0.70248 -0.93025,-0.22268 -0.27512,0.92108 1.29482,1.88901 -0.82286,0.78818 -0.53674,2.15889 -2.60292,3.88949 0.0179,2.37298 -1.0017899,-0.62537 -0.50089,1.52485 -0.92132,1.1822 -1.98573,-0.29122 0.0895,0.80528 0.82287,0.42828 -0.39351,1.19937 -1.66375,-0.44554 -1.8605,0.46263 v -0.87381 l -1.18469,1.20387 -0.6758,0.93784 -0.11631,1.88459 -0.85738004,0.93217 1.06314004,0.78968 1.35961,1.75604 1.6279,2.70688 0.89448,0.20559 2.50454,4.16303 1.05547,0.0857 1.4489799,1.55895 0.26837,-0.87372 h 1.87843 l 1.39537,0.0343 0.75134,-0.97652 1.77104,0.2913 0.41143,-0.7881 1.78897,-0.0171 2.60567,-1.01871 1.24055,0.45337 -0.17891,1.28482 0.7871,0.27413 -0.32198,1.61038 1.61006,-0.15423 0.0537,0.56534 1.28799,-0.37684 0.76926,1.33618 1.98572,1.19921 1.50276,-0.53108 0.42927,0.65105 1.53853,-0.0514 -0.30414,1.28482 0.62611,1.31909 -0.48296,0.0857 0.48296,0.88222 0.89632,1.45941 11.42144,7.88311 -3.33482,8.33706 10.00448,-13.3393 12.50559,9.17077 5.83595,0.83371 7.50335,12.50559 -1.66741,5.00224 -4.16853,-0.83371 -3.33483,2.50112 5.00224,5.83595 v 0.8337 l 11.67189,0.83371 7.50336,-3.33482 5.00224,3.33482 10.004477,12.5056 1.66741,21.67636 1.66741,8.33707 6.66965,7.50336 9.17077,-5.83595 2.50112,-5.83594 13.3393,3.33482 h 20.84266 l 5.33172,8.33173 -0.0703,0.4883 -0.005,0.23344 0.26729,0.26495 4.48025,9.02312 7.50336,8.33707 4.14627,0.4151 1.09657,-0.2542 0.53691,-0.22652 0.32048,-0.54032 0.38617,0.88381 0.59677,0.53782 3.75501,8.35508 0.38134,2.08526 0.17008,0.10472 -0.006,0.48938 0.28412,0.64312 1.05331,0.16324 0.41743,-0.381 0.89707,0.58943 0.71916,-0.38867 1.17661,0.47829 0.71457,-0.62753 0.37216,-1.06673 1.34369,1.40664 1.1942,0.74283 1.78772,0.74983 1.08982,0.49714 1.09991,-0.41735 0.69406,-0.87189 0.54524,-0.28971 0.22702,-0.20651 0.3003,-0.0485 0.21393,-0.21159 0.0307,-0.19034 -0.13548,-0.14573 -0.14731,-0.12689 -0.23069,0.0451 -0.27304,-0.34524 0.16641,-0.5941 0.63103,-0.75984 0.31423,-0.0885 2.52246,-0.73608 8.569,-0.0685 2.75498,-2.65327 6.13758,0.55566 7.50336,6.66966 0.79577,4.31192 -1.62948,4.02514 5.99452,5.55999 0.89448,2.12236 6.72634,5.16882 5.38475,1.93403 2.28986,-0.47922 1.22013,2.36815 5.75674,0.83229 2.84444,-0.66747 2.39715,0.44495 1.70618,-0.83646 -0.029,-0.32514 -0.0448,-0.54124 -0.66288,-1.3933 0.0438,-0.745 0.12206,-0.56783 0.11788,-0.41077 -0.72399,-0.33015 -0.10521,-0.20942 0.38726,-0.22152 -0.14732,-0.61211 0.1178,-0.50739 -0.39567,-0.14907 -0.27354,-0.48722 -0.35783,-0.2336 0.0463,-0.68464 0.52199,0.0604 0.61035,-0.0483 0.0884,1.04705 0.50515,0.22152 0.31564,-0.34232 -0.0547,-0.51949 0.39567,-0.88197 0.61878,-0.71683 0.47563,0.46713 0.42511,-0.55166 -0.39985,-0.15307 -0.15157,-0.42686 -0.23569,-0.28996 0.71141,-0.21752 0.66504,0.15707 0.21885,-0.15707 -0.63978,-0.34232 0.24411,-0.76917 1.14926,0.32072 1.06556,0.47271 0.80469,0.11064 0.0464,-0.33424 -0.79136,-0.0363 -0.008,-0.30205 0.35358,-0.38259 -0.27779,-0.34632 -0.56826,-0.66046 -0.77034,0.24969 -0.72816,-0.2537 0.0126,-0.18525 0.29046,-0.24569 0.53457,-0.26579 -0.0842,-0.15707 -0.43953,-0.29204 -0.30322,-0.56567 -0.38459,-0.82162 -0.61811,-0.62386 -0.32206,-0.0599 -0.28529,-0.14631 -0.29605,-0.6924 0.12522,-0.38508 0.18875,-0.12923 0.13323,0.0179 0.16099,0.25678 0.0993,0.11897 0.20484,-0.11897 0.59127,0.15315 0.19592,-0.0504 0.0277,-0.5229 0.0984,-0.14548 0.11114,-0.0848 0.13864,0.0128 0.0448,0.1113 -0.0485,0.15315 0.0178,0.17116 0.10672,0.0565 0.10729,-0.0599 0.085,-0.20109 0.0224,-0.2311 -0.0134,-0.35516 0.009,-0.11555 0.21468,-0.0128 0.0805,-0.0855 -0.0493,-0.12414 -0.16925,-0.0779 -0.21534,-0.22168 -0.15657,-0.0813 -0.2542,0.0206 -0.11697,0.18908 -0.13347,0.0634 -0.19301,-0.0333 -0.14314,-0.10705 -0.0179,-0.28238 0.0403,-0.28671 0.23319,-0.35174 -0.0715,-0.23536 -0.0633,-0.21309 0.13039,-0.065 0.11555,0.0308 0.23327,0.059 0.076,-0.12831 0.11113,-0.3073 -0.0313,-0.23961 -0.20501,-0.15065 -0.21467,-0.0642 -0.15274,-0.1318 -0.0134,-0.22252 0.0671,-0.18825 -0.10671,-0.15916 -0.12589,-0.15748 0.009,-0.21827 0.14381,-0.0822 0.2587,-0.0462 0.0991,-0.12922 -0.0275,-0.26445 0.17508,-0.12923 -0.005,-0.26445 -0.0939,-0.10271 -0.16107,-0.0599 -0.23252,-0.004 -0.18784,-0.0428 -0.076,-0.11555 0.0633,-0.095 0.29446,-0.0548 0.24603,-0.0984 0.0767,-0.12498 -0.0856,-0.13606 -0.25878,-0.13356 -0.17958,-0.0761 -0.0894,-0.14123 0.0536,-0.12839 0.18408,-0.24053 0.0262,-0.29438 -0.0314,-0.2482 0.14315,-0.15406 0.2191,-0.21827 0.0946,-0.24903 0.0619,-0.38 0.11697,-0.24052 0.13347,-0.15749 0.21977,-0.0821 0.0485,-0.16182 -0.0753,-0.2833 0.044,-0.12322 0.17057,0.0762 0.13865,0.0642 0.22302,-0.0591 0.25486,-0.23536 0.25111,-0.22768 0.0262,-0.19592 -0.0358,-0.23544 -0.20001,-0.091 7.96856,-10.87328 6.33284,-16.09245 0.39359,-3.76661 1.03755,-2.46543 -1.50267,-1.95188 2.03933,-5.41042 1.39537,-1.84916 0.0358,-2.76098 1.21646,-2.7183 2.25401,-1.74654 1.39537,-4.76021 1.50409,-10.34304 3.82697,-5.37716 2.28985,-2.29478 -0.30422,-6.04729 2.58516,-1.88201 4.45124,-0.64787 0.87081,-2.89738 0.0716,-2.22641 -0.64403,-0.70223 1.62789,-3.18568 1.19862,-2.75756 0.85872,-1.62715 0.53666,-1.93545 0.0894,-2.0896 -0.0704,-3.17025 -0.0254,-1.14568 -0.0115,-0.51432 0.98194,-3.4713 1.00828,-3.56501 1.47775,-6.53259 -5.83594,-3.33483 2.50111,-5.00223 7.50336,-8.33707 1.23597,-2.36914 0.11238,-0.71632 -0.11029,-0.86497 0.88823,-4.57047 -0.10372,-0.39225 0.38184,-1.93537 0.11855,-0.55533 -0.057,-0.88298 0.66796,-0.81828 0.13448,-0.6984 0.30289,-0.31906 -0.13531,-0.43528 -0.20718,-0.24394 -0.174,-0.4201 -0.051,-0.22944 -0.88123,-0.88681 -0.8322,-1.04839 0.39359,-3.13123 3.36317,-3.71825 0.64404,-2.29603 -0.82287,-0.51406 -0.0537,-1.31943 0.93025,-0.70248 0.16099,-1.07956 -1.39537,-1.66216 0.62611,-3.97545 1.00186,-2.48469 -0.66196,-3.35876 2.89813,-0.0857 1.21646,-3.0161 1.43114,-1.90219 2.23617,-1.37094 1.03763,-5.12413 2.415,-2.14221 1.18069,-3.5134 -0.57242,-2.24509 1.93203,-3.01643 -0.076,-3.4854 4.24432,-4.60439 1.96779,1.6454 2.09311,0.37709 0.98385,1.23405 3.50632,-1.74828 h 6.04662 l 7.31678,-0.51415 6.38652,-1.64549 1.35961,0.13715 1.94445,-0.71732 1.47241,-0.84246 -0.59259,-1.52969 0.16248,-0.35341 0.11406,-0.10387 5.77233,-1.76671 3.54208,-3.68524 4.66918,-1.52551 4.86901,2.30353 6.04345,-4.13769 5.00074,-1.72777 0.11113,0.29655 0.18333,0.16282 0.26454,0.19626 0.0843,0.28796 0.0678,0.50915 0.0537,0.43277 0.10221,0.3008 0.18333,0.18 0.25937,0.11572 0.11188,0.24853 -0.0486,0.18341 -0.24661,0.18083 -0.30856,0.17575 -0.0537,0.20993 0.11247,0.20917 0.0351,0.29647 0.0984,0.21426 0.12147,0.004 0.26762,-0.22626 0.16098,-0.30856 0.13865,-0.13714 0.23711,-0.06 0.29513,0.0428 0.25936,0.10288 0.076,0.2657 0.0224,0.33424 0.13932,0.11055 0.17816,0.018 0.16999,0.03 0.16549,0.09 0.20193,0.0506 0.19158,-0.0506 0.0901,-0.11655 -0.0402,-0.14998 -0.24152,-0.21852 -0.0454,-0.13197 0.0275,-0.0995 0.0805,-0.1414 -0.0409,-0.14915 0.0447,-0.14565 0.21918,-0.24861 0.29138,-0.30505 0.20059,-0.11489 0.29513,0.0258 0.0895,0.10713 -0.0626,0.19709 -0.0977,0.27338 0.0665,0.25369 0.13864,0.1414 0.20568,0.0129 0.20125,-0.06 0.0716,-0.11571 0.0268,-0.14999 -0.0715,-0.23994 0.0186,-0.11655 0.13865,-0.0514 0.17816,0.0266 0.19684,0.18851 0.70665,0.28287 0.44336,0.17908 0.21468,-0.0385 0.46963,-0.34282 0.0888,-0.0892 -0.085,-0.20568 0.0274,-0.11221 0.11564,-0.0506 0.27795,0.23486 0.33991,0.20142 0.0574,0.15082 -0.12522,0.32564 -0.16099,0.45429 0.0454,0.27337 0.22293,0.21943 0.17057,0.0505 0.13798,-0.0505 0.12973,-0.0943 0.099,-0.28796 0.0262,-0.15774 0.12522,-0.15423 0.22427,-0.0394 0.46963,0.03 0.18266,-0.0292 0.13423,-0.10713 0.12522,-0.17999 0.076,-0.26137 0.0901,-0.11655 0.16099,0.0386 0.0306,0.1208 -0.004,0.39426 0.0939,0.14565 0.24603,0.0386 0.22802,-0.004 0.094,0.10279 0.10729,0.24853 0.15657,-0.0171 0.0633,-0.0865 -0.0268,-0.15857 -0.10355,-0.20917 -0.0888,-0.30081 0.0358,-0.15423 0.10279,-0.0943 0.16041,-0.042 0.22802,0.0258 0.28629,-0.0772 0.16099,0.0643 0.10288,0.1629 -0.005,0.13706 -0.10663,0.14057 0.0581,0.14998 0.1118,0.06 0.17891,-0.03 0.16549,-0.0685 0.46888,-0.43194 0.10805,-0.0866 0.19675,-0.004 0.19167,0.10371 0.10355,0.18341 0.14306,0.0128 0.25495,-0.0857 0.50022,-0.0849 0.13481,-0.0737 0.0313,-0.13715 -0.0715,-0.14139 -0.14382,-0.0763 -0.41593,-0.0599 -0.0574,-0.0823 0.0529,-0.0891 0.18341,-0.0558 0.22877,-0.0137 0.29447,0.0737 0.49647,0.23144 0.20567,0.009 0.22435,-0.0223 0.24528,-0.0463 0.22427,0.0249 0.30347,0.018 0.24594,0.10288 0.29138,0.24336 0.14698,0.0138 0.13481,-0.0566 0.0619,-0.14915 0.004,-0.22277 0.0671,-0.1243 0.193,-0.0223 0.2587,-0.003 0.12522,-0.09 0.10738,-0.18425 -0.0217,-0.28796 0.0485,-0.11914 0.31748,-0.1414 0.15657,-0.13714 0.21467,-0.39001 0.13865,-0.0728 0.19292,0.14907 0.24086,0.18516 0.26453,0.042 0.25879,8.3e-4 0.31305,0.19284 0.54116,0.38992 0.22802,0.47997 0.26462,0.28196 0.20125,0.0943 0.22294,0.005 0.0588,-0.078 0.009,-0.2442 -0.0984,-0.24427 -0.0895,-0.14999 0.0224,-0.14148 0.17374,-0.0548 0.17883,0.0643 0.20576,0.23135 -0.0134,0.21426 -0.12072,0.20568 -0.0448,0.19717 0.0857,0.14481 0.17883,-0.0171 0.14699,-0.0977 0.13414,-0.21859 -0.008,-0.19793 0.0351,-0.12347 0.0939,-0.11997 0.13864,-0.0643 h 0.15657 l 0.28171,0.10288 0.13932,0.1705 0.076,0.28712 0.15657,0.0857 0.14757,-0.004 0.14248,-0.0806 0.15206,-0.17141 0.13415,-0.33424 0.0849,-0.29996 v -0.22285 l -0.0932,-0.14223 -0.17507,-0.1063 0.009,-0.0643 0.0633,-0.0737 0.14307,-0.0343 0.21468,0.0428 0.21918,-0.0172 0.19167,0.0995 0.19292,0.22193 0.19617,0.0438 0.18783,-0.06 0.21018,-0.18 0.35399,-0.10371 0.19676,0.0943 0.0754,0.14657 -0.0537,0.17141 -0.12964,0.18858 -0.0626,0.31706 -0.21468,0.31281 -0.16099,0.20576 -0.005,0.15848 0.15724,0.19634 0.0932,0.2151 0.20642,0.14056 0.23636,0.0223 0.19233,-0.0343 0.37567,-0.0943 0.12964,-0.15423 0.15724,-0.18517 0.23636,-0.12772 0.2236,-0.0385 0.19233,0.0214 0.12072,0.12422 0.26837,0.22285 0.0492,0.18 -0.0715,0.14139 -0.17441,0.27429 0.0141,0.16199 0.11555,0.10797 h 0.26837 l 0.29588,-0.009 0.29447,0.0823 0.26387,0.28279 0.16615,0.0891 0.12006,-0.0463 0.0671,-0.2828 6.7e-4,-0.28371 -0.16099,-0.25277 -0.0186,-0.20485 0.0856,-0.0866 0.18717,-0.0634 0.16999,0.0128 0.15207,0.15857 0.11246,0.24769 0.12456,0.0737 0.26003,0.003 0.36608,0.0994 0.21918,0.0686 0.12589,-0.0866 0.0485,-0.23477 0.0895,-0.0986 0.51048,-0.0137 0.0977,-0.0549 -0.0313,-0.14998 -0.27213,-0.15516 -0.0678,-0.11054 0.0313,-0.15424 0.37125,-0.0985 0.0901,-0.0866 -0.10288,-0.2271 -0.0498,-0.13623 0.0722,-0.11663 h 0.14756 l 0.10672,0.0652 0.076,0.55709 -0.13423,0.41135 0.01,0.12772 0.13348,0.0609 0.26003,-0.0394 0.19167,-0.0935 0.0275,-0.20651 -0.21535,-0.86906 -0.0849,-0.34707 0.15715,-0.20234 0.22302,-0.003 0.17441,0.12006 0.12589,0.14481 0.23635,-0.008 0.24594,-0.19709 0.13423,-0.0128 0.13481,0.28196 0.15207,0.11997 0.15582,-0.0549 0.0633,-0.26653 0.0493,-0.41135 -0.005,-0.35058 0.0633,-0.1594 0.19234,-0.11147 0.21909,0.0258 0.26837,0.0214 0.29514,-0.0857 0.0888,0.11656 -0.067,0.22285 -0.29972,0.38567 -0.004,0.15423 0.13864,0.0686 0.19743,-0.10805 0.1208,-0.17991 0.1469,-0.23919 0.17441,-0.44562 0.16099,-0.21001 0.25044,-0.0685 0.36292,-0.0695 0.19167,-0.13197 -0.0581,-0.22711 0.009,-0.12005 0.14756,-0.0557 0.27279,0.0729 0.24603,0.21851 0.54116,0.43711 0.28621,0.0772 0.24219,-0.0223 0.19234,0.06 0.19158,0.13797 0.0537,0.17567 -0.0537,0.24002 -0.24152,0.44136 0.0857,0.18342 0.24528,0.0737 0.40318,-0.0779 0.18717,0.11221 0.0313,0.18859 -0.16549,0.32139 -0.0358,0.2271 0.12139,0.19626 0.21851,0.15515 0.22427,0.32481 0.31689,0.63512 0.25553,0.14907 0.32206,0.0643 0.42869,-0.0205 0.14307,0.0685 0.0582,0.19283 -0.0895,0.18859 -0.2281,0.15423 -0.56734,0.15341 -0.12138,0.0909 0.0536,0.18 0.29072,0.11997 0.45687,0.0463 0.23702,-0.0943 0.27729,-0.19284 0.14757,-0.0214 0.071,0.10371 -0.0537,0.15857 -0.24536,0.13197 -0.20635,0.12081 -0.0716,0.26145 -0.009,0.557 -0.11564,0.12772 -0.24661,0.12089 -0.17374,0.0205 -0.10805,-0.0934 -0.15132,-0.34365 -0.0767,-0.10205 -0.14315,-0.0257 -0.17374,0.0891 -0.34057,0.31798 -0.2587,0.41476 -0.31823,0.67797 -0.0223,0.26562 0.1073,0.22285 0.17958,0.14056 0.26387,0.0643 0.39284,0.30506 0.18858,0.012 0.1469,-0.0848 0.184,-0.29655 0.27663,-0.22201 0.48371,-0.15507 0.34432,-0.0428 0.23703,0.0214 0.65229,0.39935 0.22877,0.0206 0.0888,-0.0634 0.0671,-0.13715 -0.0619,-0.1594 -0.23703,-0.21852 -0.0582,-0.0943 0.0396,-0.13197 0.3048,-0.168 0.16033,-0.0205 0.28687,0.14482 0.23194,0.0137 0.64846,-0.23569 0.2326,-0.11563 0.19226,-0.28713 0.48304,-0.79703 0.10355,-0.30938 -0.0626,-0.27429 -0.3048,-0.62045 -0.0134,-0.19717 0.12147,-0.13364 0.96977,-0.17917 0.36675,-0.0343 0.35332,0.0385 0.43828,0.0815 0.42553,0.008 0.86764,-0.12855 0.31756,0.0685 0.42418,0.24085 0.11631,0.21852 0.0492,0.28713 -0.1073,0.23135 -0.16108,0.16282 -0.80502,0.29147 -0.28171,0.17141 -0.18784,0.26995 0.023,0.23477 0.27213,0.54508 0.13489,0.11055 0.21401,0.0309 0.29964,-0.10288 0.22426,-0.005 0.19167,0.13798 0.076,0.2657 -0.0985,0.30422 -0.067,0.26145 0.0939,0.14565 0.15274,0.0292 0.50022,-0.2306 0.2281,0.004 0.30414,0.13281 0.13864,0.19284 0.0179,0.28279 -0.11189,0.14999 -0.17441,0.0772 -0.2236,0.009 -0.26837,-0.0471 -0.12964,0.0172 -0.0635,0.13848 0.0241,0.18683 0.15482,0.0784 0.26428,0.0741 0.29472,-0.0355 0.29071,0.024 0.24553,0.30422 0.0349,0.1504 -0.1158,0.18425 -0.0398,0.15724 -0.0783,0.10763 -0.20884,-0.0596 -0.12164,-0.28755 -0.1579,-0.12855 -0.2066,0.0232 -0.36274,0.46963 -0.002,0.15174 0.20259,0.60076 0.18917,0.70615 0.33765,1.19379 0.23794,0.31714 0.28087,0.17775 0.23161,0.0767 0.34932,0.0549 0.29738,-0.13156 0.37033,-0.4006 0.22544,-0.14998 0.63462,-0.29313 1.3466,-0.45246 0.18383,-0.1243 0.27771,-0.38009 0.22185,-0.0261 0.15432,0.0754 0.0572,0.1329 -0.042,0.28537 -0.0899,0.18509 -0.49514,0.24385 -0.20976,0.18767 -0.0823,0.29097 -0.0791,0.13281 -0.21017,0.13839 -0.72633,0.76234 -0.24778,0.38993 9.2e-4,0.24377 0.0993,0.16716 0.21818,0.0489 0.5685,-0.21644 0.88456,-0.14656 0.68748,-0.09 0.22626,-0.17224 0.54958,-0.45654 0.19101,-0.0234 0.6096,0.23844 0.30014,0.24903 0.38567,0.18575 0.39334,0.018 0.54658,-0.0191 0.61311,-0.10455 1.19862,-0.35991 0.32197,0.0171 0.12523,0.0343 v 0.1243 l -0.0362,0.20393 0.0465,0.1524 0.16783,0.0434 0.37775,-0.0688 0.56692,-0.0188 0.63079,-0.14865 0.54432,-0.14206 0.16433,0.034 0.13656,0.0597 0.0715,0.14815 -0.01,0.14548 -0.12798,0.13389 -0.3439,0.078 -0.17666,0.0655 -0.23586,0.20009 -0.0562,0.14548 0.006,0.16499 0.0499,0.11572 0.15607,0.0543 0.16949,0.005 0.21535,0.0328 0.19475,0.0868 0.2051,0.17207 0.27837,0.18675 0.15674,0.0259 0.23127,-0.1559 0.26495,-0.12064 0.19367,0.003 0.24036,0.0499 0.25495,-0.0512 0.53132,-0.27938 0.14915,0.0124 0.22293,0.23227 0.0369,0.19884 -0.0448,0.13814 -0.17933,0.077 -0.25803,0.067 -0.187,0.19501 -0.21535,0.40359 -0.0351,0.18809 0.0537,0.24002 0.0763,0.12447 0.15965,0.0254 0.16391,-0.0338 0.27412,-0.1549 0.22852,-0.0801 0.27579,-0.0124 0.87298,0.11747 0.12497,-0.0374 0.10963,-0.11113 -0.009,-0.18642 -0.16908,-0.22369 -0.25844,-0.15657 -0.0877,-0.13972 0.0338,-0.13815 0.10939,-0.0703 0.11446,0.002 0.13757,0.14248 0.25178,0.22493 0.15965,0.18917 0.0771,0.35891 0.0412,0.2948 0.0512,0.1454 0.12322,0.0746 0.17842,-0.0238 0.22093,-0.0916 0.14273,-0.17033 0.0814,-0.2597 0.087,-0.41844 0.10196,-0.0677 0.16749,0.009 0.11138,0.10455 0.46513,0.70281 0.39809,0.40277 0.62612,1.02404 0.43828,0.73274 0.12522,0.31281 0.0313,0.41135 -0.16541,0.39843 0.009,0.21426 0.14314,0.19284 0.2191,0.0128 0.19234,-0.0557 0.17441,-0.18851 0.12072,-0.29138 0.13864,-0.24852 0.23703,-0.16283 0.21918,-0.20567 0.0671,-0.21426 -0.085,-0.19709 -0.24594,-0.29997 -0.0223,-0.12422 0.12072,-0.0729 0.18783,0.0128 0.34441,0.35999 0.2281,0.2828 -0.0153,0.25445 -0.23519,0.3454 -0.42219,0.77293 -0.19058,0.27254 -0.21018,0.13714 -0.34615,0.096 -0.13415,0.0943 -0.0429,0.13965 0.067,0.17141 0.41593,0.17991 0.33098,0.20143 0.14315,0.21426 0.0358,0.23135 -0.13598,0.31448 -0.13239,0.21684 0.0358,0.16283 0.13865,0.0471 0.18783,-0.0814 0.16099,-0.14998 0.15657,-0.2828 0.0895,-0.0815 0.13864,-0.0214 0.38459,0.0771 0.50089,0.24428 0.30864,0.21426 0.23703,0.43703 0.19675,0.557 0.094,0.15849 0.21017,0.10288 0.33099,0.0428 0.4472,0.0299 0.57692,0.0514 0.20126,-0.0557 0.30864,-0.15424 0.21017,-0.0943 0.37567,-0.004 0.39359,-0.0685 0.25045,-0.10288 0.27729,-0.17566 0.26829,-0.14999 0.57701,-0.15849 0.29063,0.009 0.31755,0.17141 0.1369,0.25878 -0.0358,0.19284 -0.30238,0.43536 -0.004,0.16282 0.12964,0.11138 0.2326,0.009 0.2236,-0.14573 0.12523,-0.45412 0.1118,-0.09 0.0984,0.03 0.17442,0.18 0.13864,0.44128 0.0966,0.28455 -0.0269,0.4156 0.11364,0.49097 0.45612,1.17402 0.27729,0.4327 0.0582,0.30422 -0.10913,0.36591 -0.1905,0.33682 0.004,0.19709 0.0805,0.0942 0.20568,-0.0171 0.27729,-0.13714 0.21468,-0.03 0.14315,0.0214 0.0939,0.15857 -0.11805,0.27162 -0.0116,0.19109 0.12522,0.36416 0.26387,0.40277 0.2236,0.15857 0.78268,0.26562 0.22811,-0.009 0.1699,-0.12856 0.16549,-0.17133 0.16992,-0.2657 0.18783,-0.10279 0.22368,-0.009 0.35333,0.0771 0.20567,0.17141 0.094,0.28279 0.004,0.377 0.0895,0.1414 0.25494,0.13714 0.3936,0.0429 0.27729,-0.0729 0.15198,-0.13714 0.13423,-0.37276 0.009,-0.27845 -0.0537,-0.16283 0.0313,-0.25278 0.0805,-0.19283 0.1253,-0.0771 0.43828,-0.12422 0.18784,-0.0857 0.0626,-0.11563 -0.0403,-0.13715 -0.14315,-0.0943 -0.2281,-0.0128 -0.22802,-0.0471 -0.16107,-0.17566 -0.21468,-0.43703 0.0313,-0.11572 0.15657,-0.0514 0.14306,0.0471 0.29522,0.26136 0.58584,0.33849 0.51882,0.10279 0.2236,0.03 0.16991,0.15849 0.10288,0.2657 0.17441,0.004 0.14765,-0.0172 0.0805,-0.10704 0.0805,-0.20568 0.0984,-0.15423 0.29521,-0.13281 0.32198,-0.20568 0.21018,-0.0428 0.18783,0.0343 0.19684,0.20568 0.14306,0.33848 -0.0581,0.47989 v 0.24419 l 0.10288,0.18425 0.21468,0.0899 0.3309,-0.0471 0.17441,0.0299 0.16549,0.15857 0.0895,0.22277 -0.076,0.17141 -0.51164,0.3745 -0.0921,0.14823 0.0403,0.15424 0.1118,0.0942 0.44278,-0.0257 0.28621,-0.0128 0.19234,0.1414 0.003,0.2416 -0.26837,0.43703 -0.18158,0.11397 -0.23252,0.0172 -0.32648,-0.0214 -0.094,0.0814 -0.0134,0.19709 0.1118,0.1885 0.39809,0.17999 0.29964,-0.0129 0.24152,-0.10279 0.17441,-0.4327 0.0984,-0.16282 0.21018,-0.06 0.55458,0.17141 0.0448,0.18425 -0.12256,0.2116 -0.27554,0.17824 -0.38008,0.2271 -0.42044,0.34274 -0.0626,0.23135 0.0895,0.16283 0.21468,0.0729 0.3399,-0.0386 0.35333,-0.0214 0.18783,0.10288 0.12523,0.13706 0.0206,0.21167 -0.10738,0.17133 -0.20843,0.10972 -0.23252,0.0943 -0.29522,-0.0686 -0.16549,-0.13707 -0.21017,-0.20142 -0.18067,0.0103 -0.12972,0.0728 -0.10555,0.20826 0.0671,0.73691 0.1118,0.26996 0.16099,0.18416 0.19234,0.0729 0.16099,-0.0514 0.0805,-0.16707 0.0178,-0.27421 0.076,-0.11564 0.13864,-0.0129 0.1655,0.11572 0.18783,0.24853 0.085,0.20134 -0.0734,0.24594 -0.23969,0.19109 -0.18067,0.11738 -0.0564,0.1354 0.0626,0.1885 0.38459,0.50981 0.2818,0.19709 0.21017,0.0857 0.55909,0.0557 0.28621,-0.11571 0.4562,-0.0685 0.41594,0.11138 0.27279,0.17991 0.28179,0.11997 0.49189,0.0686 0.59034,0.19275 0.38468,0.004 0.29071,0.0857 0.32198,0.30847 0.23702,0.49272 -0.042,0.26737 -0.16366,0.16107 -0.22993,0.13023 -0.0876,0.17391 0.0268,0.19283 0.085,0.09 0.31305,0.10713 0.33098,0.17566 0.23703,0.28271 0.18333,0.14565 0.25495,0.0258 0.13864,-0.0729 0.0223,-0.17992 -0.0358,-0.19709 -0.13414,-0.15848 -0.29964,-0.19284 -0.16999,-0.23994 -0.0492,-0.30414 0.0313,-0.19283 0.18341,-0.13706 0.23702,-0.0172 0.17892,0.0514 0.31755,0.4327 0.18784,0.35557 0.0223,0.4156 -0.22093,1.3727 -0.0653,0.36241 0.13865,0.82687 0.10729,0.2913 0.29072,0.19709 0.25044,0.0386 0.31756,-0.13281 0.27279,-0.0985 0.27729,0.0899 0.3399,0.2442 0.34883,0.1499 0.14314,0.14573 0.0178,0.197 -0.0823,0.20309 -0.17883,0.17567 -0.32023,0.1654 h -0.35332 l -0.65746,0.0343 -0.36225,-0.0729 -0.32648,-0.20993 -0.21018,-0.12855 -0.17449,0.0472 -0.19225,0.0985 -0.71291,0.81136 -0.21734,0.38384 -0.0582,0.23135 0.0314,0.26137 0.13865,0.29989 0.3399,0.35982 0.067,0.14999 -0.0464,0.15165 -0.0877,0.0669 -0.16991,0.0128 -0.17,-0.0815 -0.19675,-0.2527 -0.13865,-0.20567 -0.2326,-0.11998 -0.2236,-0.0856 -0.29697,0.0103 -0.15924,0.0368 -0.085,0.16707 0.076,0.32556 0.17,0.41561 0.085,0.3855 0.1118,0.2442 0.2487,0.15598 0.27904,0.0497 0.4562,0.0171 0.51432,-0.16274 h 0.18783 l 0.16991,0.0986 0.0626,0.14131 -0.0465,0.20309 -0.14757,0.15849 -0.31305,0.14565 -0.23527,0.0198 -0.43829,-0.0857 -0.3399,-0.03 -0.15206,0.06 -0.0313,0.13707 0.076,0.15423 0.1699,0.13281 0.46071,0.24419 0.2281,0.2056 0.0805,0.17566 0.009,0.2356 -0.1404,0.24161 -0.31572,0.21251 -0.13423,0.11139 -0.0313,0.11571 0.085,0.0942 0.25495,0.004 0.31756,-0.0985 0.2236,-0.004 0.25936,0.0343 0.66188,0.25278 0.36233,-0.03 0.30856,0.0343 0.28621,0.11571 0.3068,0.0788 0.31939,-0.0103 0.27279,0.03 0.28171,0.17991 0.17891,0.0642 0.14757,-0.0642 0.12972,-0.1885 0.12523,-0.0172 0.12522,0.0514 0.0223,0.18416 0.0268,0.39418 0.0161,0.19875 -0.11447,0.1439 -0.19675,0.0815 -0.69056,0.0617 -0.16366,0.0839 -0.0895,0.1885 0.0134,0.20993 0.14756,0.13706 0.23703,0.0557 0.20125,-0.0428 0.23261,-0.14139 0.23702,-0.18417 0.18333,-0.0814 0.20576,-0.03 0.32198,0.15423 0.68872,0.2442 0.29972,0.25703 0.0492,0.20134 -0.0465,0.19875 -0.27554,0.36241 -0.18784,0.12848 -0.21017,0.13281 -0.009,0.17141 0.0849,0.13706 0.18333,0.0771 0.18784,-0.0343 0.26386,-0.20567 0.24603,-0.36842 0.12964,-0.0343 0.12081,0.11138 0.005,0.24853 -0.29522,0.58684 0.005,0.33841 0.0715,0.15423 0.17441,0.0814 0.19675,-0.0257 0.0895,-0.0899 0.005,-0.38551 0.0358,-0.1885 0.15657,-0.12422 0.17441,-0.0643 0.19676,0.0257 0.39801,0.35557 0.26386,0.23986 0.16374,0.43444 0.18067,0.4352 0.16099,0.80536 0.27287,0.95534 0.41143,1.81198 0.15207,0.27846 0.18784,0.17132 0.15206,0.0214 0.085,-0.0642 0.0447,-0.17141 0.0537,-0.34266 -0.009,-0.39409 -0.0626,-0.4798 0.0313,-0.3299 0.094,-0.35982 0.13864,-0.32131 0.15207,-0.09 0.21018,0.0386 0.40701,0.30414 0.30406,0.17566 0.21026,0.0471 0.20125,-0.0385 0.14757,-0.10713 0.0447,-0.15848 0.0671,-0.23561 0.12072,-0.1414 0.16999,-0.0557 0.21018,0.11997 0.14315,0.33415 0.10288,0.27412 0.17441,0.17567 0.0939,0.17991 0.005,0.22277 -0.12973,0.26128 -0.0358,0.23561 0.0895,0.18424 0.19676,0.31265 0.076,0.30421 -0.0554,0.27154 -0.1163,0.19709 -0.25937,0.11989 -0.27996,0.0669 -0.1118,0.15424 0.0447,0.12847 0.17441,0.0985 0.26387,0.03 0.31305,-0.0428 0.27288,0.0557 0.29071,0.20984 0.2146,0.47121 0.14765,0.20568 0.0116,0.18591 -0.11446,0.11822 -0.24778,0.10022 -0.0609,0.18249 0.0985,0.25703 0.3309,0.37267 0.14314,0.20559 0.0403,0.19276 -0.0554,0.18166 -0.1414,0.0453 -0.26828,-0.0514 -0.32206,-0.11564 h -0.22811 l -0.21643,0.083 -0.11446,0.13539 0.0358,0.19276 0.15207,0.14565 0.64404,0.16274 0.17883,0.0771 0.51881,0.42411 0.21919,0.0428 0.15648,-0.0386 0.30864,-0.30839 0.23252,-0.11997 0.20393,0.0403 0.20751,0.16966 0.0359,0.20993 -0.0645,0.17299 -0.17891,0.15424 -0.21285,0.084 h -0.21918 l -0.3399,-0.0557 -0.13148,0.0232 -0.076,0.11988 -0.0116,0.20818 0.25495,0.51832 0.12964,0.17566 0.19233,0.0214 0.10288,-0.0386 0.20568,-0.28271 0.0985,-0.15848 0.55008,-0.38976 0.24152,-0.20993 0.18784,-0.1885 0.15648,-0.0685 0.23703,-0.0471 0.13864,0.0385 0.23261,0.34274 0.51431,0.72391 0.1118,0.29555 -0.0313,0.30847 -0.12072,0.42835 -0.15657,0.22702 0.005,0.16274 0.076,0.11139 0.16549,0.0857 0.26837,0.0471 0.24594,-0.03 0.29072,-0.16274 0.16549,-0.0771 h 0.23702 l 0.43828,0.20985 0.12072,-0.0299 0.076,-0.0985 0.0224,-0.16707 -0.0403,-0.32981 0.0268,-0.0985 0.0805,-0.0856 0.66196,-0.19709 0.21018,-0.0128 0.23252,0.10713 0.2281,0.28271 0.38017,0.49689 0.0895,0.30839 -0.0242,0.21159 -0.36941,0.67506 -0.085,0.24419 0.0715,0.15424 h 0.20126 l 0.18783,-0.11572 0.23703,-0.0642 0.16549,-0.11563 0.18783,-0.21418 0.0895,-0.19709 0.13864,-0.26128 0.18342,-0.0771 0.27279,0.0557 0.11447,0.31439 -0.009,0.38125 -0.0787,0.26812 -0.29696,0.22019 -0.38017,0.20134 -0.35149,0.46087 -0.14765,0.25278 0.0268,0.20559 0.18784,0.11997 0.25945,0.0471 0.42035,0.0343 0.40252,0.20126 0.50539,0.15848 0.24152,0.17141 0.16099,0.24845 0.0223,0.17133 -0.004,0.38975 0.0671,0.22702 0.18333,0.21418 0.20125,0.1028 0.1745,-0.0128 0.14756,-0.0728 0.0895,-0.1414 0.0447,-0.23986 -0.076,-0.31272 0.0448,-0.24411 0.1028,-0.21418 0.16549,-0.11997 0.19951,-0.0111 0.17616,0.0454 0.16107,0.17566 0.003,0.36149 -0.10288,0.22702 -0.40702,0.50114 -0.11446,0.24244 0.005,0.20993 0.11622,0.18417 0.18791,0.0771 0.2191,-0.0599 0.24603,-0.13714 0.62611,-0.68106 0.11622,-0.29121 0.19234,-1.16511 0.0671,-0.16707 0.16099,-0.14132 0.51431,-0.31272 0.3936,-0.17991 0.38017,-0.03 0.20567,0.09 0.0895,0.13281 0.0403,0.33415 0.0268,0.22268 0.11622,0.20559 0.27287,0.30848 0.14307,0.27837 0.0358,0.27846 -0.14315,1.1265 -0.0984,0.49689 -0.0403,0.23986 0.0492,0.18416 0.12522,0.14999 0.25495,0.13706 0.17441,0.0171 0.19676,-0.0599 0.8167,-0.4352 0.17174,-0.0659 h 0.12072 l 0.15207,0.0771 0.1163,0.13706 0.0804,0.40685 -0.0447,0.35982 -0.0895,0.32556 0.0223,0.11989 0.0626,0.0985 0.1208,0.0643 0.14756,-0.009 0.23253,-0.19276 0.18783,-0.18416 0.1118,0.004 0.0985,0.10713 0.61269,1.20354 0.18333,0.14565 0.17892,0.0428 0.18783,-0.0172 0.16099,-0.0642 0.1118,-0.17991 0.0358,-0.27413 0.0223,-0.197 0.1118,-0.0857 0.24595,-0.0771 0.15657,0.03 0.12972,0.14565 0.1028,0.41544 -0.004,0.38984 0.0134,0.18416 0.1028,0.1499 0.29971,0.17133 0.10997,0.1559 0.0331,0.20393 -0.0823,0.2201 -0.13414,0.0899 -0.23527,0.007 -0.28171,-0.13706 -0.18342,-0.077 -0.10288,0.0171 -0.0492,0.10705 -0.0134,0.1885 0.0403,0.12848 0.21018,0.0985 0.46962,0.0599 0.58143,0.0514 0.15207,-0.0343 0.15207,-0.0943 0.16991,-0.19267 0.17441,-0.26562 0.2281,-0.21843 0.1118,-0.11997 0.0268,-0.20126 -0.0984,-0.20559 -0.0492,-0.18417 0.1163,-0.13281 0.15649,-0.0557 0.28621,0.15424 0.17441,0.21409 0.20126,0.34699 0.0626,0.32982 0.0537,0.29121 0.2326,0.50114 0.23252,0.3384 0.25495,0.1885 0.085,0.2056 -0.0358,0.15415 -0.10913,0.18158 -0.15924,0.18675 0.0268,0.20559 0.085,0.17141 0.22368,0.23986 0.31306,0.28696 0.0403,0.14131 -0.0376,0.12164 -0.11631,0.0857 -0.20392,0.0239 -0.21018,-0.0685 -0.16099,-0.14556 -0.14765,-0.24845 -0.18333,-0.15423 -0.19675,-0.0856 -0.13156,0.006 -0.14131,0.10963 -0.076,0.20559 0.0223,0.22269 0.11631,0.16282 0.20576,0.11563 0.43828,0.15849 0.28179,0.26128 0.0715,0.22269 0.0223,0.47112 0.0537,0.11564 0.12523,0.0557 0.12972,-0.0343 0.16099,-0.26979 0.12522,-0.1028 0.17441,-0.0557 0.16991,0.0343 0.21918,0.13272 0.19676,0.0514 0.25945,0.0171 0.14757,0.0643 0.0671,0.17133 -0.009,0.28696 -0.17174,0.8969 -0.15023,0.55508 -0.0286,0.32298 -0.0698,0.13956 -0.094,0.0514 -0.15649,-0.004 -0.24602,-0.0857 -0.19676,-0.17133 -0.16549,-0.20559 -0.10288,-0.0771 -0.31931,-0.0411 -0.0805,0.0471 -0.20393,0.32815 -0.067,0.27404 -0.0153,0.54574 -0.0519,0.2081 -0.1163,0.20992 -0.0939,0.16274 0.0358,0.13707 0.14581,0.0916 0.26562,-0.0317 0.32648,-0.11564 0.18342,-0.009 0.15648,0.0599 0.31756,0.32981 0.18333,0.0771 0.15207,-0.0257 0.21468,-0.12422 0.12522,-0.0514 0.15207,0.0258 0.1118,0.10705 0.009,0.16699 -0.1654,0.3384 -0.15391,0.18592 -0.007,0.16099 0.0895,0.12847 0.24603,0.21843 0.13414,0.18851 0.12973,0.41118 0.11621,0.197 0.31756,0.28263 0.10288,0.17991 -0.002,0.15591 -0.0654,0.1268 -0.12256,0.0959 -0.18983,0.10071 -0.1118,0.20093 0.007,0.21242 0.15874,0.31906 0.26211,0.39101 0.098,0.19792 -0.0304,0.14298 -0.14531,0.0823 -0.65162,-0.17308 -0.32115,0.0317 -0.0984,0.0943 0.13014,0.22526 0.30364,0.16149 0.58368,0.0509 0.18108,0.12547 0.22368,0.2848 h 0.16991 l 0.1369,-0.10146 0.10863,-0.18892 0.12122,-0.0694 0.23252,0.06 0.32206,0.17132 0.24153,0.17133 0.10729,0.13706 v 0.24836 l -0.15206,0.23136 -0.28622,0.0684 -0.25044,0.0771 -0.0805,0.20559 0.12523,0.17992 0.28271,0.0531 0.36491,-0.096 0.40068,0.0591 0.46962,0.003 0.51524,-0.0595 0.50539,-0.11805 0.31481,-0.0559 0.25945,0.12847 0.24194,0.19792 0.13372,0.33323 0.12523,0.17984 0.39359,-0.0514 0.76026,-0.42828 0.38509,-0.13622 0.33048,0.0505 0.27729,0.16274 0.39359,0.60819 0.34032,0.31781 0.4021,0.16182 0.35824,0.0437 0.33048,0.27329 0.21468,0.5054 0.21468,0.11988 0.2236,-0.0257 0.34882,-0.22269 0.2236,-0.23986 0.13423,-0.2998 0.0178,-0.27412 -0.11622,-0.27412 -0.0448,-0.2141 0.0537,-0.23985 0.17891,-0.28263 0.18784,-0.31698 0.38459,-0.18841 0.29563,-0.0249 0.50047,0.21326 0.20568,-0.0171 0.20576,-0.1885 0.2236,-0.0942 0.16149,0.0694 0.18733,0.38459 0.0985,0.56533 0.20568,0.19701 0.16099,0.0343 0.16999,-0.21409 0.27729,-0.0343 0.22402,0.095 0.4647,0.20476 0.23261,-0.0514 0.0804,-0.0942 -0.0268,-0.29121 -0.12523,-0.32548 -0.15157,-0.14481 -0.41151,-0.23978 -0.26879,-0.34348 -0.12522,-0.4026 0.0358,-0.17133 0.15198,-0.22268 0.30414,-0.17991 0.77818,-0.26554 0.53674,-0.0857 0.42035,0.06 0.26838,-0.0771 0.26878,-0.2647 0.56309,-0.44628 0.20567,-0.077 0.25987,0.12072 0.14265,0.25612 -0.0984,0.24844 -0.46471,0.24928 -0.10771,0.18759 v 0.23985 l 0.0626,0.26554 0.26828,0.17983 0.38509,0.10363 0.25003,0.1534 0.13414,0.34257 -0.0443,0.42919 0.0174,0.25612 0.15207,0.15415 0.42936,0.0771 0.37608,0.30063 0.26796,0.12764 0.20567,-0.0771 0.10738,-0.17983 0.12522,-0.69389 -0.10688,-0.23894 -0.25044,-0.39401 -0.42086,-0.77176 -0.1163,-0.31698 -0.009,-0.27412 0.12522,-0.23986 0.28621,-0.11988 0.56351,-0.19701 0.0984,-0.21418 0.0448,-0.35115 0.0805,-0.18851 0.19683,-0.14556 0.11622,0.0514 0.26837,0.41118 0.41144,0.44545 0.60827,0.41969 0.42044,0.0429 0.35774,-0.21418 0.17891,-0.25695 0.16099,-0.23127 0.16149,-0.0848 0.20526,0.0934 0.12522,0.3083 0.19676,0.19701 0.28621,0.21418 0.12572,0.21501 -0.0715,0.23986 -0.17041,0.2647 0.0715,0.22268 0.25045,0.13706 0.36675,-0.10279 0.19675,-0.19701 0.35783,-0.0258 0.25986,0.10371 0.24144,0.30831 0.17,0.39409 -0.0452,0.24753 -0.10688,0.20643 -0.24153,0.0685 -0.25986,-0.0694 -0.20568,-0.22276 -0.2326,-0.0514 -0.1158,0.24928 0.13372,0.41026 0.40252,0.98503 0.29513,0.6853 0.32206,0.59961 0.47404,0.22268 0.50982,0.11138 0.31314,-0.0428 0.1073,-0.17133 0.0452,-0.33323 0.13414,-0.22268 0.26837,-0.24836 0.1695,-0.0951 0.54557,0.11138 0.35783,-0.0685 0.45621,-0.32548 0.39351,-0.0771 0.2241,0.018 0.13372,0.33315 0.26837,0.30839 0.31348,0.36066 0.33948,0.26462 0.81395,0.43686 0.4562,0.25695 0.57243,0.17992 0.4562,0.0685 0.55458,-0.11139 0.23302,-0.24752 0.31256,-0.55767 0.33098,-0.59101 0.25086,-0.91566 0.098,-0.69465 0.11631,-0.197 0.46554,-0.22185 0.42894,-0.3264 0.40251,-0.29121 0.74283,-0.5816 0.31265,-0.11221 h 0.16098 l 0.34933,0.15507 0.25044,0.47104 0.32198,0.58251 0.33948,0.46171 0.34883,0.64237 0.42085,1.05447 0.30364,0.56442 0.25945,0.37692 0.37567,0.28271 0.34031,0.0608 0.37526,-0.1379 0.32239,-0.39318 0.4021,-0.17216 0.42043,-0.0343 0.15207,0.0685 0.78711,0.69381 0.19725,0.018 0.12522,-0.0942 0.40202,-0.66046 0.3489,-0.66814 0.27721,-0.80511 0.32206,-0.95084 0.0269,-0.46254 0.2777,-1.01845 0.17892,-0.38543 0.27679,-0.18933 0.2326,-0.0599 0.21468,0.18841 0.25937,0.16274 0.31355,-0.0505 0.89399,-0.28354 0.14314,-0.14557 0.0358,-0.13706 -0.0448,-0.27412 -0.0178,-0.48822 0.0452,-0.41894 0.17841,-0.42911 0.25044,-0.197 0.21468,-0.009 0.1078,0.1208 0.0804,0.3169 0.0711,0.61594 0.20576,0.59101 0.32248,0.48914 0.46462,0.19609 0.36675,-0.009 1.14493,-0.53107 0.27771,-0.0677 0.32156,0.0762 0.46512,0.0428 0.9661,0.009 0.61711,-0.0514 0.63553,-0.12764 0.37567,-0.22269 0.49197,-0.36833 0.46471,-0.54049 0.31306,-0.22268 0.48305,-0.13707 0.30405,0.0257 0.31305,0.16274 0.38334,0.36191 0.66747,-7.75038 3.46355,-40.22633 -4.16853,-7.50336 3.33482,-10.83819 -4.16853,-11.67188 -6.66965,-6.66966 -21.67637,-25.8449 -11.67189,-33.34825 -9.17077,-21.67637 -9.17077,-32.51455 -18.34154,-11.67189 -10.00448,-11.67189 -0.8337,-3.33482 -0.83371,-5.83595 -5.00224,-5.00224 -16.67413,0.83371 -11.67188,-7.50336 -5.83595,-17.50783 -3.33483,-1.66741 -0.8337,-0.83371 -4.16853,-15.840416 -7.50336,0.8337 -7.50336,-3.33482 -20.84266,-13.339302 4.16853,-19.175247 -5.00224,-15.840422 3.33483,-13.339303 20.00895,-11.671889 -1.66741,-5.835945 h -3.33483 l 0.83371,-2.501119 -11.67189,2.501119 -4.16853,-3.334826 V 7.9277647 l -5.00224,0.833707 -1.66741,-4.168532 -4.16853,-1.667413 -10.83819,3.334826 -10.00447,-5.83594495 -4.16854,5.00223795 -8.81552,-0.429109 -3.36318,-0.03435 -2.21832,0.738413 -7.27934,5.5609893 -9.44723,-0.134977 -5.36682,0.515147 -3.89991,1.442312 -2.00356,2.438175 -1.79255,4.076407 -1.29342,4.319683 -1.51242,8.35107 -0.2813,0.611107 -0.29296,0.225017 -0.32039,0.142481 -1.2228,0.211845 -0.55083,0.0018 -0.32231,0.0056 -0.21101,0.06753 -0.16408,0.07687 -0.20701,0.193086 -0.51181,0.532405 -0.0801,0.106881 -0.0313,0.116219 -0.0176,0.215596 0.0625,0.281126 0.0918,0.281209 0.0469,0.06378 0.1875,0.06561 0.17583,0.0056 0.17967,0.01125 0.13089,0.05811 0.086,0.06753 0.10355,0.202424 0.0644,0.172494 0.0352,0.174328 -0.01,0.412434 -0.0137,0.530488 -0.0118,0.14248 -0.0332,0.116219 -0.086,0.08437 -0.1133,0.05994 -0.29305,0.03193 -0.39651,-0.05811 -0.36916,0.02434 -0.44537,0.140563 -0.086,0.07312 -0.10938,0.104964 -0.0528,0.123722 -0.004,0.168742 0.0313,0.16499 0.0605,0.33365 0.0176,0.363662 -0.0234,0.166825 -0.0254,0.140646 -0.0566,0.104964 -0.10355,0.04127 h -0.21293 l -0.73641,-0.09004 h -0.21093 l -0.16215,0.04502 -0.19926,0.112467 -0.2266,0.204342 -0.19534,0.09563 -0.19142,0.03743 -0.23635,-0.01309 -0.35158,0.0431 -0.22076,0.0787 -0.33991,0.148149 -0.24419,0.213679 -0.18166,0.206176 -0.38868,0.193086 -0.57525,0.172494 -0.3575,0.09087 -0.33598,-0.0018 -0.44245,-0.108715 -0.25978,-0.140647 -0.24028,-0.148066 -0.1514,-0.05619 -0.1123,-0.0075 -0.42102,0.0637 -0.62386,0.159905 -1.23039,0.612774 -0.40484,-0.747251 -0.57626,-1.061141 -0.28029,0.792104 -0.40493,0.23919 -0.10905,0.792021 -1.72869,0.971519 -0.62295,-0.433444 -0.93442,0.672551 -0.62294,0.119553 0.70081,0.537991 0.40493,1.464655 1.33935,1.658826 1.62765,0.0058 0.008,0.905906 z"
      data-name="Município de Silvânia-GO" id="municipio_de_silvania-go" />
</svg>