<?xml version="1.0" encoding="UTF-8" standalone="no"?>
<svg version="1.1" id="svg2" width="1000.0002" height="881.8822" viewBox="0 0 1000.0002 881.8822"
   xmlns="http://www.w3.org/2000/svg" xmlns:svg="http://www.w3.org/2000/svg">
   <defs id="defs6" />
   <path class="neighborhood"
      d="m 550.66028,77.159562 0.40304,1.027495 1.11775,1.473935 -5.49464,6.868288 -2.74731,26.09949 4.12097,19.23121 -6.86828,10.98926 2.74731,6.86829 -5.49462,9.61561 -12.36293,6.86828 -5.49463,15.11023 -32.96778,6.86829 -21.97852,-2.74732 -9.61561,16.48389 -21.97852,16.48389 v 16.4839 l 28.8468,15.11023 13.73659,-4.12097 20.60486,12.36292 9.61561,24.72583 10.98926,15.11023 -17.85755,9.61561 -6.8683,-4.12097 -15.11022,9.6156 -23.35218,1.37366 -5.49464,4.12097 -8.24194,16.48388 -15.11024,5.49464 -0.26868,9.62674 -0.003,-0.26485 -0.048,-0.24726 -0.13115,-0.19217 -0.47679,-0.1328 -0.5268,0.0148 -0.27638,-0.0423 -0.10907,-0.25221 0.0318,-0.36952 0.13988,-0.58271 -0.0442,-0.20851 -0.14368,-0.0707 -0.31689,0.0567 -0.35593,-0.17459 -0.29465,0.0283 -0.30371,0.24521 -0.37789,0.25632 -0.23586,0.0353 -0.30358,-0.11154 -0.66168,-0.35112 -0.70743,-0.0458 -0.69783,-0.0905 -0.35,0.003 -0.35016,0.032 -0.0811,0.12357 0.005,0.21759 -0.0165,0.2239 -0.0797,0.10809 -0.24314,0.0634 -0.43614,-0.0479 -0.51594,-0.12012 -0.35728,-0.16595 -0.21746,-0.22253 -0.24163,-0.41112 -0.18943,-0.22817 -0.25797,-0.21897 -0.0883,-0.22609 0.0919,-0.22254 0.43476,-0.12703 0.4496,-0.13082 0.15471,-0.14829 0.07,-0.22954 -0.0369,-0.23668 -0.11039,-0.0883 -0.12523,0.0425 -0.19162,0.31787 -0.39425,0.21897 -0.23805,0.0269 -0.13774,-0.10117 -0.0442,-0.22255 0.11797,-0.19422 0.40152,-0.26142 0.10693,-0.13428 -0.0295,-0.16951 -0.15488,-0.0741 -0.28737,0.0353 -0.16427,-0.0115 -0.24094,-0.19286 -0.50482,-0.38846 -0.098,-0.2099 -0.005,-0.26346 -0.0921,-0.11665 -0.14368,-0.007 -0.2136,0.15191 -0.1239,-0.0115 -0.182,-0.11155 -0.1952,-0.18724 -0.10693,-0.0672 h -0.20261 l -0.14236,-0.0862 -0.0115,-0.0742 0.10528,-0.11517 0.0405,-0.0989 -0.0611,-0.0896 -0.17693,-0.0389 -0.10314,-0.0672 -0.0346,-0.12209 0.07,-0.24026 0.0442,-0.27898 -0.0921,-0.34973 -0.14747,-0.0671 -0.30055,-0.0115 -0.67062,-0.1272 -0.23366,-0.0763 -0.20632,0.0148 -0.12522,-0.0705 0.048,-0.13428 0.23957,-0.0318 0.1658,-0.003 0.18557,-0.20274 0.017,-0.24575 -0.12902,-0.18022 -0.24683,-0.0353 -0.40756,0.0763 -0.1709,10e-4 -0.11056,-0.10594 -0.0979,-0.24163 -0.1585,-0.0919 -0.17679,0.003 -0.11056,0.0425 -0.24095,0.20261 -0.1127,0.0799 -0.38092,0.24148 -0.27267,0.14137 -0.17322,-0.003 -0.10545,-0.0862 0.0318,-0.18228 0.21003,-0.0883 0.33531,-0.10595 0.11945,-0.13577 0.0244,-0.12934 -0.0921,-0.0883 -0.15324,0.002 -0.24685,0.0636 -0.23943,-0.0213 -0.19891,-0.0634 -0.10841,-0.10809 -0.0552,-0.24726 0.0405,-0.15554 0.1216,-0.0353 0.17829,0.1717 0.20261,0.06 0.087,-0.0621 -0.0115,-0.14829 -0.19164,-0.27913 -0.0552,-0.18722 0.0493,-0.0437 0.2048,0.0297 0.18065,-0.0672 0.11187,-0.16032 -0.0132,-0.1717 -0.1805,-0.15191 -0.21594,-0.10034 -0.1562,-0.10809 -0.12011,-0.24865 0.007,-0.20343 0.14746,-0.17665 0.25427,-0.17308 0.0331,-0.2048 -0.07,-0.10611 -0.3706,-0.0473 -0.30729,-0.0269 -0.2948,0.11666 -0.28956,0.0728 -0.10693,-0.0636 -10e-4,-0.1328 0.22844,-0.0883 0.1952,-0.16594 0.16951,-0.24724 0.26153,-0.11666 0.11056,-0.30728 0.0405,-0.21896 0.0443,-0.39217 -0.087,-0.18861 -0.0789,-0.15043 0.003,-0.31444 0.0405,-0.31071 -0.10182,-0.14632 -0.24822,-0.0797 -0.26389,-0.0297 0.002,-0.18585 0.12901,-0.13412 0.29849,-0.14483 0.29109,-0.19782 0.15241,-0.17101 0.0465,-0.20345 -0.13626,-0.18722 -0.13643,-0.32845 0.13264,-0.0883 h 0.16213 l 0.23944,0.0636 0.21744,-0.007 0.0664,-0.13758 -0.0885,-0.15191 -0.32419,-0.159 -0.1473,-0.0883 -0.25798,-0.0989 -0.16213,-0.007 -0.48119,0.069 -0.22995,-0.0374 -0.2136,-0.30729 -0.13494,-0.29109 -0.12308,-0.19286 -0.20853,-0.0297 -0.20261,0.0919 -0.27267,0.14483 -0.053,0.20276 -0.10315,0.0812 -0.13494,-0.0331 -0.13774,-0.16114 -0.14961,-0.41827 -0.14565,-0.13642 h -0.23585 l -0.38313,0.0707 -0.20632,-0.0732 -0.25797,-0.32954 -0.30948,-0.25425 -0.1842,-0.0919 -0.39053,0.0283 -0.33902,0.0918 -0.2948,-0.0211 -0.32417,-0.19781 -0.65579,-0.14121 -0.47157,-0.007 -0.50112,-0.10133 -0.27267,-0.11764 -0.25797,0.1412 -0.22102,0.0849 -0.23586,-0.0425 -0.059,-0.24727 0.20633,-0.13675 0.42747,-0.15554 0.19149,-0.24479 -0.0662,-0.28503 -0.27267,0.10133 -0.28008,0.1272 -0.15471,-0.0778 v -0.325 l -0.0221,-0.25426 -0.22845,-0.21196 -0.30948,-0.0353 -0.11781,0.10348 -0.0812,0.33462 -0.10314,0.18366 -0.1989,-0.0731 -0.19891,-0.3154 -0.2875,-0.28957 -0.25784,0.0211 -0.1178,0.18366 -0.0591,0.33202 -0.0662,0.13412 -0.16951,0.10611 -0.28737,-0.0353 -0.10314,-0.22158 0.30206,-0.31786 v -0.26595 l -0.21373,-0.0847 -0.28737,0.17402 -0.41993,0.0167 -0.20632,0.11302 -0.14747,0.17665 -0.23584,0.0565 -0.11056,0.17418 0.0443,0.46869 -0.0957,0.21663 -0.32419,0.059 -0.13263,0.1272 v 0.23063 l -0.14005,0.10133 -0.30948,-0.1155 -0.29478,-0.18832 -0.22104,-0.0211 -0.54534,0.15554 -0.41263,0.0423 -0.61169,-0.15537 -0.81788,-0.38147 -0.39053,-0.13428 -0.25799,0.007 -0.39794,0.11303 -0.69259,-0.12011 -0.40537,0.0778 -1.46638,0.65702 -0.26525,0.0148 -0.2948,-0.24026 -0.13989,0.14137 -0.16213,0.27555 -0.13263,0.0989 -0.43477,0.1412 -0.32419,-0.0353 -0.13264,-0.14828 -0.0442,-0.23558 0.46431,-0.67571 0.53049,-0.56526 0.0664,-0.26141 -0.11039,-0.44754 -0.42007,-0.5485 -0.25054,-0.31086 0.0148,-0.39808 0.22843,-0.38146 0.25797,-0.35331 0.007,-0.11055 -0.15471,-0.0989 -0.19163,-0.0565 -0.39794,0.11303 -0.28736,-0.17196 -0.25785,-0.0115 -0.43476,0.0989 -0.45688,-0.0425 -0.27267,-0.0705 -0.54534,-0.4169 -0.30949,-0.12259 -0.25783,-0.0186 -0.28751,0.11303 -0.27252,0.14829 -0.38326,0.0494 -0.73683,-0.0944 -0.73697,-0.0989 -0.95786,-0.28709 -0.44959,-0.14828 -0.20632,0.007 -0.19891,0.13889 -0.31691,0.13676 -0.22843,-0.12012 -0.19162,-0.33449 -0.16213,-0.39312 -0.22103,-0.0847 -0.52321,0.0705 -0.23573,0.21195 -0.19904,0.33915 -0.0221,0.3154 -0.14005,0.17913 -0.21373,0.10594 -0.2136,0.0148 -0.22116,-0.12258 0.0295,-0.2731 -0.22843,-0.1695 -0.39054,-0.0166 -0.20632,-0.11056 -0.15488,-0.24024 -0.0148,-0.22597 0.059,-0.40976 -0.0516,-0.52282 0.059,-0.27555 -0.17693,-0.19066 -0.29478,0.11286 -0.64837,0.30386 -0.39795,0.1978 -0.36842,0.16246 -0.40537,0.10594 -0.42733,0.1908 -0.47158,0.29671 h -0.13263 l -0.13248,-0.30371 -0.19905,-0.0944 -0.0885,0.10133 0.0517,0.18366 -0.008,0.30384 -0.16213,0.20482 -0.32417,0.0567 -0.48642,0.0282 -0.53051,-0.14121 -0.0664,-0.26855 0.19903,-0.34615 0.33161,-0.21896 0.25782,-0.31086 0.18421,-0.36031 0.0738,-0.2897 -0.12523,-0.22598 -0.10314,0.0636 -0.0591,0.29671 -0.16213,0.13873 -0.2136,0.0236 -0.25056,-0.12703 -0.059,-0.14829 -0.0148,-0.34616 0.22116,-0.30386 0.32418,-0.0942 0.27995,0.0519 0.19905,-0.0494 -0.0369,-0.2191 -0.19903,-0.22611 -0.39796,-0.14368 -0.0957,-0.13164 0.0367,-0.27556 0.23587,-0.0802 0.22101,-0.28723 0.19162,0.10363 0.25056,0.27089 0.12522,0.0707 0.28739,0.068 0.23584,0.14829 0.24315,0.10133 0.1989,-0.0211 0.0885,-0.12259 -0.059,-0.18118 -0.24312,-0.10594 -0.35372,-0.0919 -0.25798,-0.2048 -0.10314,-0.26142 0.0736,-0.13675 0.33161,-0.0751 0.32432,0.15999 0.39794,0.0661 0.19149,-0.1272 -0.0367,-0.25439 -0.11056,-0.42391 -0.0957,-0.68519 -0.25784,-0.3816 -0.22116,-0.1978 -0.20632,-0.0732 -0.28737,-0.0682 -0.1989,-0.0872 -0.33161,0.059 -0.38324,-0.0211 -0.16951,-0.14137 0.008,-0.25427 0.0736,-0.16498 0.0959,-0.21909 -0.11056,-0.18366 -0.10314,0.0166 -0.13247,0.17665 -0.22117,0.0636 -0.34628,-0.0707 -0.39055,-0.10594 -0.31689,0.0494 -0.31691,-0.0425 -0.18421,-0.16246 -0.10314,-0.28256 -0.12522,-0.20729 -0.16213,0.01 -0.0811,0.16246 -0.16213,0.2261 -0.24313,0.0494 -0.15488,-0.13428 0.008,-0.23311 0.12522,-0.30373 -0.10314,-0.45467 -0.11056,-0.15998 -0.14005,-0.26388 -0.30221,0.045 -0.22102,0.12011 -0.0443,0.19782 0.0885,0.42143 0.0293,0.36746 -0.2283,0.22843 -0.26539,0.15307 -0.39781,0.0166 -0.23586,0.12703 -0.15488,-0.0165 -0.22843,-0.18133 -0.29465,-0.30371 -0.2948,-0.23311 -0.28008,-0.0425 -0.19149,-0.0519 -0.22843,0.14137 -0.17693,0.15076 -0.10314,0.1978 0.11056,0.21649 0.0957,0.29217 -0.12522,0.22611 -0.1473,0.068 -0.16938,-0.0259 -0.0517,-0.15537 0.0664,-0.21911 -0.21373,-0.24011 -0.10314,-0.1978 0.0516,-0.17666 0.26525,-0.0989 0.33161,-0.23311 0.11056,-0.24739 -0.0812,-0.22143 -0.20632,-0.10348 -0.28739,0.0964 -0.19147,-0.0824 -0.16229,-0.22144 -0.0736,-0.23778 -0.15488,-0.0776 -0.15472,0.12703 -0.19164,0.0213 -0.11055,-0.13412 0.0885,-0.13429 0.0811,-0.16949 -0.0737,-0.22858 -0.0811,-0.19081 0.19162,-0.12456 0.19892,-0.22858 -0.15488,-0.1812 -0.24314,-0.12967 -0.11056,-0.21195 -0.1473,-0.50619 -0.21373,-0.39562 -0.38325,-0.20495 -0.52309,-0.23311 -0.14747,-0.14829 -0.059,-0.30384 -0.14746,-0.12012 -0.14747,0.21896 -0.22843,0.1389 -0.26525,-0.04 -0.14005,-0.20027 -0.007,-0.18833 -0.0367,-0.28257 -0.16952,-0.0802 -0.15487,0.0944 v 0.27555 l -0.18421,0.32955 -0.21374,0.17911 -0.23572,0.0989 -0.30948,-0.0778 -0.008,-0.28255 -0.0369,-0.20729 -0.36113,-0.0966 -0.45688,-0.0282 -0.40522,0.0282 -0.18421,0.13428 -0.2871,0.2048 -0.19149,0.13429 0.007,0.11302 0.0148,0.36746 -0.15488,0.24725 -0.40523,0.12011 -0.27308,0.23077 -0.3533,0.29205 -0.20634,0.0919 -0.12522,-0.0705 -0.0295,-0.325 -0.16978,-0.44053 -0.23545,0.0166 -0.0295,0.1412 -0.0372,0.28024 -0.13988,0.12011 -0.14697,-0.0328 -0.0593,-0.31333 -0.29437,-0.17419 -0.36841,-0.0565 h -0.11056 l -0.15504,0.11402 -0.0217,0.12275 0.0331,0.26484 0.20964,0.52033 0.0593,0.22158 -0.0405,0.11649 -0.0664,0.046 -0.22102,-0.0148 -0.38683,-0.13775 -0.14368,-0.18366 0.0254,-0.18269 0.0443,-0.20838 -0.13972,-0.22721 -0.21003,-0.0389 -0.1952,-0.12704 -0.13642,-0.34273 -0.21003,-0.21895 -0.1952,0.0211 -0.1585,-0.0389 v -0.15537 l 0.11435,-0.318 -0.007,-0.31086 -0.0699,-0.31444 -0.18092,-0.10841 -0.0328,-0.12111 0.13593,-0.0591 0.232,-0.0741 0.003,-0.23764 -0.0442,-0.17665 0.0995,-0.17308 0.25797,0.0176 0.19494,-0.0695 0.0483,-0.12836 -0.0847,-0.12719 -0.28736,-0.0707 -0.15109,-0.15191 -0.0921,-0.19067 v -0.25084 l -0.13263,-0.17664 -0.26526,-0.0353 -0.19932,-0.0979 -0.0438,-0.16345 0.10314,-0.25084 0.3202,-0.29573 0.14368,-0.2084 -0.0292,-0.14944 -0.16951,-0.003 -0.26154,0.22254 -0.30592,0.0847 -0.13247,-0.10248 0.007,-0.18009 0.13643,-0.12357 0.34589,-0.14022 0.12934,-0.17059 0.0221,-0.19438 -0.1216,-0.20139 -0.32458,-0.24972 -0.24287,-0.29068 -0.12192,-0.30989 -0.1805,-0.62872 -0.13594,-0.45688 -0.10693,-0.19067 -0.15504,-0.0944 -0.25015,0.0203 -0.22472,-0.0672 -0.14747,-0.0283 -0.25426,-0.17308 -0.12522,0.0178 -0.0847,0.17309 -0.0257,0.1272 0.26155,0.25782 -0.003,0.15554 -0.20634,0.0529 -0.18791,0.0115 -0.32047,-0.14499 -0.21415,-0.16147 -0.0883,-0.23311 0.003,-0.28971 0.03,-0.20948 -0.0885,-0.18365 -0.15109,-0.0814 -0.16951,-0.01 -0.361,-0.01 -0.12901,-0.0389 -0.2985,-0.31799 -0.26154,-0.16609 -0.36856,-0.003 -0.27252,0.0389 -0.20276,0.10595 -0.3022,0.15735 -0.14351,0.0547 -0.30219,-0.14829 -0.49369,-0.16951 -0.15471,0.007 -0.0995,0.0847 -0.003,0.11665 0.26526,0.2014 0.0773,0.17307 -0.0405,0.21195 -0.21002,0.23311 -0.26897,0.12011 -0.37584,0.24727 -0.26897,0.10594 -0.23571,0.10957 -0.26553,0.0972 -0.15818,0.0689 -0.24685,0.26142 -0.14746,0.1043 -0.0735,0.25962 -0.0335,0.6235 -0.10314,0.24026 -0.0956,0.17487 -0.42363,0.11648 -0.32433,0.15192 -0.20631,0.159 -0.3242,0.46992 -0.16949,0.21538 -0.14746,0.0707 -0.40152,0.11649 -0.31691,0.0672 -0.53793,0.06 -0.28736,0.003 -0.0995,0.0707 -0.12522,0.0883 -0.07,0.13774 -0.16951,0.51224 -0.19519,0.22968 -0.26541,0.0423 -0.17307,-0.0918 -0.16213,-0.4981 -0.0591,-0.22966 -0.10331,-0.0334 -0.254,-0.005 -0.0847,0.13774 -0.003,0.13774 0.13626,0.22254 -0.0883,0.16951 -0.12901,0.0849 -0.23955,0.0458 -0.26525,-0.0425 -0.11781,0.0567 -0.12522,0.19424 -0.16213,0.11303 -0.18818,-0.0582 -0.26142,-0.33035 -0.12538,-0.28793 -0.0661,-0.48573 -0.1216,-0.55453 -0.16229,-0.21553 -0.42735,-0.17666 -0.35015,-0.2702 -0.34245,-0.42213 -0.0148,-0.25082 -0.0552,-0.25784 -2.31187,-0.91993 -12.17913,0.60193 3.12453,-5.22827 -3.4781,-3.8435 -3.06545,-7.29165 -10.7291,2.0348 -6.24876,-4.12633 -4.12661,2.93935 -7.25442,-0.19657 -7.36541,3.13593 -7.72258,-2.3175 -12.93971,1.56844 -2.62341,-3.99913 -4.89296,-0.90441 -7.19194,6.04822 -0.55,-0.58217 -0.12259,-0.12983 -2.15718,-2.28384 -3.00652,-3.27852 -2.53482,0.90441 -6.78684,7.89827 -7.322,1.63918 -3.13661,-6.94179 -7.10415,0.24315 1.71241,-8.03906 -6.07198,-1.13067 -3.94968,-13.17089 -17.80316,-3.44844 3.59597,-10.06245 -3.42124,-2.61695 -1.53066,-1.17077 -1.23793,-5.59683 -5.36456,-1.5264 -0.41264,-6.50154 -3.94981,-2.60073 -10.72897,7.06704 -20.57394,-13.05991 -4.21864,-9.76408 -1.31831,-1.11871 -1.9885,-3.04115 -4.14679,-3.49032 -2.32093,-4.0137 -0.0428,-0.074 -4.66384,-2.22148 -7.29757,-1.94591 -5.77719,1.58313 -5.36454,-2.94016 -18.982165,-0.62199 -10.552302,-8.82095 -12.67446,-4.74984 -8.724661,1.1874 -9.019574,-1.24399 -3.802269,-3.93003 -3.564925,-0.61622 -0.107592,-0.032 -4.70271,-1.39742 -7.04755,-1.28999 -5.979953,2.93041 20.231777,21.30145 4.120974,12.36292 28.846819,15.11023 -8.241948,19.23121 4.120974,24.72585 34.341445,23.35216 4.12097,8.24195 -2.74733,17.85756 15.11025,2.74731 32.96778,53.57265 12.36292,-5.49464 13.73657,39.83608 37.08875,23.35218 h 42.58339 l 10.98926,21.97852 1.37366,27.47316 v 6.86828 42.58339 l -6.86828,13.73657 -59.06729,-52.19898 -20.47601,-17.43474 -3.53703,-3.81272 -4.45093,-2.00514 -8.90157,-2.25939 -8.01735,3.19142 -8.18975,1.71569 -2.77506,4.44105 -6.57309,8.18988 -2.29909,6.24121 -3.53703,3.64294 -4.98129,2.93689 -3.53718,-0.22584 0.88436,2.598 -3.21284,0.87543 -6.86774,3.86863 -8.50486,4.60712 -2.81848,-4.62112 -3.50282,0.32473 -0.9286,1.14357 -1.93054,1.04494 -2.03382,-1.60965 -2.284408,1.31308 -1.81268,-2.45678 -1.871749,1.0731 -2.240147,0.53654 -1.20842,-1.36953 -1.311696,0.72007 -0.781069,-0.0707 -0.663196,-0.38119 -1.061154,-0.21182 0.147465,1.5249 -1.385477,0.8047 -2.696893,-3.75572 -3.168615,-0.0282 -2.800216,1.69427 -1.945366,-0.0423 -2.564339,2.24498 -2.417088,-1.18602 -1.945383,0.76239 -1.70952,-0.4518 -2.949643,1.53725 -2.747327,-2.74731 -0.492862,2.28315 -1.709653,2.56971 -2.682211,2.03301 -0.147301,2.03315 -1.836175,2.07024 h -2.747311 l -2.755977,10.12812 -3.183313,1.41184 -0.648499,3.2189 -3.124392,1.63766 -2.004302,3.69885 -1.739047,7.70814 -1.061153,2.79526 -1.591648,0.76225 -0.560037,1.91996 1.061137,0.67761 -0.412638,1.38342 -7.01514,3.38813 -2.25486,1.5951 0.500984,1.17873 -0.63367,0.67047 -0.117807,2.68222 1.679979,2.34332 -1.267341,1.6374 -2.711738,-1.41157 -1.090679,1.15744 -1.532728,-0.3669 -0.453302,1.51762 2.133412,3.11243 -1.355786,1.29864 -0.884361,3.5571 -4.288705,6.40853 0.02949,3.90984 -1.650601,-1.03039 -0.825292,2.51242 -1.518014,1.94785 -3.2717915,-0.47982 0.1474644,1.32682 1.3558031,0.70565 -0.648367,1.97615 -2.7412802,-0.7341 -3.0654557,0.76226 v -1.43974 L 2.7177848,600.2845 1.6043019,601.82973 1.4126635,604.93488 0,606.47077 l 1.7516843,1.30112 2.2401635,2.89334 2.6822119,4.46 1.4737914,0.33874 4.1266089,6.85922 1.739047,0.1412 2.387414,2.56861 0.44218,-1.43959 h 3.094998 l 2.299084,0.0565 1.237946,-1.60897 2.918057,0.47996 0.677894,-1.29851 2.947599,-0.0282 4.293236,-1.67848 2.043994,0.74699 -0.294781,2.11694 1.296866,0.45167 -0.530511,2.65334 2.652818,-0.25411 0.08848,0.93148 2.122159,-0.6209 1.267472,2.20156 3.271775,1.97588 2.476025,-0.87504 0.707287,1.07271 2.534961,-0.0847 -0.501116,2.11693 1.031611,2.1734 -0.79575,0.14121 0.79575,1.45359 1.476823,2.4046 18.818553,12.98862 -5.494621,13.73657 16.483897,-21.97852 20.604853,15.11023 9.61562,1.37366 12.3629,20.60486 -2.74731,8.24195 -6.86828,-1.37367 -5.49464,4.12098 8.24195,9.61561 v 1.37365 l 19.2312,1.37366 12.36293,-5.49462 8.24195,5.49462 16.48389,20.60487 2.74731,35.71509 2.74731,13.73659 10.98926,12.36292 15.11023,-9.61561 4.12098,-9.6156 21.97851,5.49462 h 34.34144 l 8.78482,13.72779 -0.11583,0.80455 -0.008,0.38463 0.4404,0.43654 7.38189,14.86696 12.36293,13.73658 6.83161,0.68395 1.80676,-0.41884 0.88464,-0.37322 0.52804,-0.89026 0.63627,1.45621 0.98327,0.88614 6.18695,13.76626 0.62832,3.43578 0.28023,0.17254 -0.01,0.80633 0.46813,1.05964 1.73549,0.26896 0.68778,-0.62776 1.47806,0.97118 1.18492,-0.64039 1.93865,0.78805 1.17736,-1.03395 0.61319,-1.7576 2.21393,2.31766 1.96763,1.22392 2.94554,1.23546 1.79564,0.81911 1.81227,-0.68765 1.14357,-1.43657 0.89836,-0.47734 0.37405,-0.34025 0.49479,-0.0799 0.35249,-0.34863 0.0506,-0.31362 -0.22322,-0.24011 -0.24272,-0.20907 -0.3801,0.0743 -0.44987,-0.56883 0.27418,-0.97887 1.03972,-1.25196 0.51774,-0.14581 4.15614,-1.21281 14.11872,-0.11286 4.53925,-4.37166 10.11259,0.91553 12.36293,10.98928 1.31115,7.10454 -2.68482,6.63202 9.87688,9.16093 1.4738,3.49691 11.08266,8.51641 8.87219,3.18661 3.77289,-0.78959 2.01035,3.90189 9.4851,1.37132 4.68665,-1.09975 3.94967,0.73312 2.81119,-1.3782 -0.0478,-0.53571 -0.0738,-0.89178 -1.09219,-2.29567 0.0722,-1.2275 0.20111,-0.93559 0.19423,-0.6768 -1.19288,-0.54397 -0.17335,-0.34506 0.63807,-0.36498 -0.24274,-1.00855 0.1941,-0.836 -0.65193,-0.24562 -0.4507,-0.80276 -0.58958,-0.3849 0.0763,-1.12804 0.86006,0.0995 1.00564,-0.0796 0.14565,1.72518 0.83232,0.36498 0.52006,-0.56402 -0.0901,-0.85594 0.65193,-1.45318 1.01953,-1.18108 0.78368,0.76966 0.70043,-0.90894 -0.65881,-0.25221 -0.24974,-0.70331 -0.38833,-0.47776 1.17215,-0.35839 1.09576,0.25879 0.36059,-0.25879 -1.05414,-0.56403 0.40221,-1.26732 1.89358,0.52843 1.75567,0.77887 1.32585,0.18229 0.0765,-0.55071 -1.30389,-0.0598 -0.0132,-0.49767 0.58258,-0.63038 -0.4577,-0.57061 -0.9363,-1.08821 -1.26925,0.4114 -1.19975,-0.41801 0.0208,-0.30522 0.47858,-0.40482 0.88078,-0.43793 -0.13873,-0.25879 -0.72419,-0.48118 -0.4996,-0.93203 -0.63367,-1.35374 -1.01843,-1.02791 -0.53065,-0.0987 -0.47006,-0.24107 -0.48778,-1.14083 0.20632,-0.63448 0.31099,-0.21293 0.21952,0.0295 0.26525,0.42308 0.16361,0.19602 0.33751,-0.19602 0.97421,0.25234 0.3228,-0.083 0.0456,-0.86156 0.16213,-0.2397 0.18312,-0.13972 0.22843,0.0211 0.0738,0.18338 -0.0799,0.25234 0.0293,0.28201 0.17584,0.0931 0.17678,-0.0987 0.14005,-0.33133 0.0369,-0.38077 -0.0221,-0.58518 0.0148,-0.19038 0.35371,-0.0211 0.13264,-0.14088 -0.0812,-0.20454 -0.27886,-0.12835 -0.35481,-0.36525 -0.25797,-0.13396 -0.41883,0.034 -0.19273,0.31153 -0.21991,0.10447 -0.31802,-0.0549 -0.23584,-0.17638 -0.0295,-0.46527 0.0664,-0.47239 0.38421,-0.57955 -0.1178,-0.38779 -0.1043,-0.3511 0.21484,-0.1071 0.19038,0.0507 0.38435,0.0972 0.12522,-0.21141 0.18311,-0.50632 -0.0516,-0.39479 -0.33778,-0.24822 -0.3537,-0.10578 -0.25166,-0.21716 -0.0221,-0.36664 0.11055,-0.31017 -0.17582,-0.26224 -0.20742,-0.25947 0.0148,-0.35963 0.23695,-0.13544 0.42625,-0.0761 0.16328,-0.21291 -0.0453,-0.43572 0.28847,-0.21293 -0.008,-0.43572 -0.15471,-0.16923 -0.26539,-0.0987 -0.38311,-0.007 -0.3095,-0.0705 -0.12522,-0.19038 0.1043,-0.15653 0.48516,-0.0903 0.40538,-0.16213 0.12637,-0.20592 -0.14104,-0.22418 -0.42638,-0.22006 -0.29588,-0.12539 -0.1473,-0.2327 0.0883,-0.21154 0.3033,-0.39631 0.0432,-0.48503 -0.0517,-0.40895 0.23586,-0.25384 0.361,-0.35963 0.15587,-0.41032 0.10199,-0.6261 0.19273,-0.3963 0.21991,-0.25948 0.3621,-0.13528 0.0799,-0.26662 -0.12407,-0.46678 0.0725,-0.20302 0.28104,0.12555 0.22845,0.10578 0.36746,-0.0974 0.41992,-0.38779 0.41374,-0.37514 0.0432,-0.32281 -0.059,-0.38792 -0.32954,-0.14993 13.12941,-17.91538 10.43431,-26.51475 0.6485,-6.20606 1.70952,-4.06217 -2.47588,-3.21602 3.36011,-8.91449 2.29908,-3.04677 0.059,-4.54913 2.0043,-4.47881 3.71382,-2.87769 2.29909,-7.84317 2.47821,-17.04172 6.30552,-8.85969 3.77287,-3.781 -0.50125,-9.96383 4.25945,-3.10089 7.33409,-1.06747 1.43479,-4.77387 0.11797,-3.66835 -1.06113,-1.15703 2.68219,-5.24889 1.97491,-4.5435 1.41487,-2.68097 0.88423,-3.18895 0.1473,-3.44293 -0.116,-5.22347 -0.0418,-1.88768 -0.0189,-0.84742 1.61789,-5.71949 1.6613,-5.8739 2.43481,-10.76343 -9.61559,-5.49464 4.12095,-8.24193 12.36293,-13.73659 2.03644,-3.90351 0.18517,-1.18025 -0.18172,-1.42517 1.46349,-7.53054 -0.17089,-0.64629 0.62914,-3.18882 0.19533,-0.91499 -0.0939,-1.45484 1.10057,-1.34824 0.22157,-1.15072 0.49906,-0.5257 -0.22295,-0.71719 -0.34136,-0.40193 -0.28669,-0.69218 -0.084,-0.37803 -1.45196,-1.46116 -1.37117,-1.72738 0.6485,-5.15917 5.54133,-6.12638 1.06115,-3.78306 -1.3558,-0.84699 -0.0885,-2.17396 1.53273,-1.15745 0.26525,-1.77874 -2.29908,-2.73866 1.03161,-6.55015 1.65072,-4.09391 -1.09068,-5.53406 4.77511,-0.14121 2.0043,-4.96948 2.35802,-3.13414 3.68443,-2.25883 1.70965,-8.44279 3.97908,-3.52961 1.94536,-5.78886 -0.94314,-3.69913 3.18331,-4.97002 -0.12522,-5.74273 6.99316,-7.58643 3.24223,2.71105 3.44871,0.62131 1.62105,2.03329 5.77719,-2.88056 h 9.96272 l 12.05551,-0.84714 10.52276,-2.71119 2.24016,0.22597 3.20378,-1.18189 2.42601,-1.38808 -0.97638,-2.5204 0.26771,-0.58229 0.18793,-0.17115 9.51079,-2.91092 5.83612,-6.07199 7.69318,-2.51351 8.02243,3.79542 9.9575,-6.81748 8.23948,-2.84676 0.1831,0.48861 0.30206,0.26827 0.43587,0.32337 0.1389,0.47446 0.11171,0.8389 0.0885,0.71305 0.16841,0.49562 0.30206,0.29658 0.42735,0.19066 0.18434,0.40949 -0.0801,0.3022 -0.40633,0.29794 -0.5084,0.28958 -0.0885,0.34589 0.18531,0.34464 0.0578,0.48848 0.16213,0.35302 0.20014,0.007 0.44095,-0.37279 0.26524,-0.5084 0.22844,-0.22596 0.39068,-0.0989 0.48627,0.0705 0.42733,0.16951 0.12523,0.43778 0.0369,0.55071 0.22955,0.18215 0.29355,0.0297 0.28008,0.0494 0.27267,0.14829 0.33271,0.0834 0.31566,-0.0834 0.14845,-0.19204 -0.0662,-0.24711 -0.39794,-0.36005 -0.0748,-0.21744 0.0453,-0.16394 0.13263,-0.23298 -0.0674,-0.24575 0.0736,-0.23998 0.36113,-0.40962 0.4801,-0.50261 0.3305,-0.1893 0.48627,0.0425 0.14747,0.17651 -0.10315,0.32474 -0.16097,0.45043 0.10957,0.41799 0.22843,0.23298 0.33889,0.0213 0.33159,-0.0989 0.11797,-0.19065 0.0441,-0.24713 -0.1178,-0.39534 0.0306,-0.19204 0.22845,-0.0847 0.29355,0.0438 0.32432,0.3106 1.16431,0.46607 0.73051,0.29506 0.35371,-0.0634 0.77379,-0.56485 0.14631,-0.14697 -0.14005,-0.33889 0.0452,-0.18488 0.19053,-0.0834 0.45797,0.38696 0.56005,0.33187 0.0946,0.2485 -0.20631,0.53654 -0.26526,0.74852 0.0748,0.45042 0.36731,0.36154 0.28104,0.0832 0.22735,-0.0832 0.21375,-0.15537 0.16311,-0.47446 0.0432,-0.2599 0.20632,-0.25412 0.36952,-0.0649 0.77379,0.0494 0.30096,-0.0481 0.22116,-0.17651 0.20632,-0.29656 0.12522,-0.43065 0.14846,-0.19203 0.26525,0.0636 0.0504,0.19903 -0.007,0.64961 0.15471,0.23998 0.40537,0.0636 0.3757,-0.007 0.15488,0.16937 0.17678,0.40949 0.25797,-0.0282 0.1043,-0.14252 -0.0442,-0.26127 -0.17061,-0.34464 -0.14632,-0.49563 0.059,-0.25411 0.16936,-0.15538 0.2643,-0.0692 0.3757,0.0425 0.47171,-0.1272 0.26525,0.10595 0.16951,0.2684 -0.008,0.22583 -0.17569,0.23161 0.0957,0.24711 0.18421,0.0989 0.29478,-0.0494 0.27267,-0.11286 0.77255,-0.71169 0.17803,-0.14269 0.32418,-0.007 0.3158,0.17088 0.17062,0.3022 0.23571,0.0211 0.42007,-0.14121 0.82419,-0.13988 0.22212,-0.12144 0.0516,-0.22597 -0.11781,-0.23296 -0.23697,-0.12572 -0.6853,-0.0987 -0.0946,-0.1356 0.0872,-0.14681 0.3022,-0.0919 0.37693,-0.0226 0.48519,0.12143 0.81801,0.38133 0.33887,0.0148 0.36965,-0.0367 0.40413,-0.0763 0.36952,0.041 0.50002,0.0297 0.40522,0.16951 0.48009,0.40097 0.24217,0.0227 0.22212,-0.0933 0.10199,-0.24575 0.007,-0.36704 0.11056,-0.20481 0.318,-0.0367 0.42625,-0.005 0.20631,-0.14829 0.17693,-0.30358 -0.0358,-0.47446 0.0799,-0.1963 0.52309,-0.23298 0.25798,-0.22596 0.3537,-0.6426 0.22844,-0.11995 0.31787,0.24562 0.39685,0.30508 0.43586,0.0692 0.42639,0.001 0.5158,0.31773 0.89164,0.64245 0.3757,0.79083 0.436,0.46457 0.33159,0.15537 0.36733,0.008 0.0969,-0.12852 0.0148,-0.40235 -0.16213,-0.40248 -0.14746,-0.24713 0.0369,-0.23311 0.28627,-0.0903 0.29465,0.10595 0.33902,0.38118 -0.0221,0.35303 -0.19891,0.33888 -0.0738,0.32487 0.1412,0.2386 0.29465,-0.0282 0.24219,-0.16097 0.22102,-0.36016 -0.0132,-0.32612 0.0578,-0.20344 0.15471,-0.19767 0.22843,-0.10594 h 0.25797 l 0.46416,0.16951 0.22956,0.28092 0.12522,0.47308 0.25797,0.1412 0.24314,-0.007 0.23476,-0.1328 0.25054,-0.28242 0.22104,-0.55071 0.13988,-0.49423 v -0.36718 l -0.15356,-0.23435 -0.28845,-0.17514 0.0148,-0.10595 0.1043,-0.12143 0.23573,-0.0565 0.35372,0.0705 0.36113,-0.0283 0.31581,0.16394 0.31786,0.36566 0.32322,0.0722 0.30948,-0.0989 0.3463,-0.29658 0.58325,-0.17088 0.3242,0.15538 0.12423,0.24149 -0.0885,0.28243 -0.2136,0.31071 -0.10314,0.52241 -0.35372,0.5154 -0.26526,0.33902 -0.008,0.26112 0.25908,0.3235 0.15356,0.35441 0.34011,0.23159 0.38944,0.0367 0.31689,-0.0565 0.61898,-0.15537 0.2136,-0.25412 0.25907,-0.3051 0.38944,-0.21043 0.36842,-0.0634 0.31689,0.0353 0.1989,0.20467 0.44218,0.36718 0.0811,0.29658 -0.11781,0.23296 -0.28736,0.45193 0.0232,0.26691 0.19038,0.17789 h 0.44218 l 0.48751,-0.0148 0.48518,0.1356 0.43477,0.46594 0.27376,0.1468 0.19781,-0.0763 0.11056,-0.46596 10e-4,-0.46746 -0.26526,-0.41647 -0.0306,-0.33752 0.14104,-0.14269 0.30839,-0.10446 0.28009,0.0211 0.25056,0.26127 0.18529,0.4081 0.20523,0.12144 0.42844,0.005 0.60317,0.16378 0.36114,0.11302 0.20742,-0.14268 0.0799,-0.38682 0.14747,-0.16246 0.84109,-0.0226 0.16097,-0.0905 -0.0516,-0.24711 -0.44837,-0.25565 -0.11171,-0.18213 0.0516,-0.25414 0.61169,-0.16229 0.14845,-0.14269 -0.16951,-0.37418 -0.082,-0.22446 0.11896,-0.19217 h 0.24313 l 0.17583,0.10743 0.12523,0.91789 -0.22117,0.67776 0.0165,0.21044 0.21993,0.10034 0.42844,-0.0649 0.3158,-0.15406 0.0453,-0.34026 -0.35482,-1.4319 -0.13989,-0.57186 0.25893,-0.33338 0.36746,-0.005 0.28737,0.19781 0.20742,0.2386 0.38942,-0.0132 0.40523,-0.32474 0.22116,-0.0211 0.22212,0.46457 0.25056,0.19767 0.25674,-0.0904 0.10429,-0.43915 0.0812,-0.67776 -0.008,-0.57764 0.1043,-0.26263 0.31691,-0.18367 0.36098,0.0425 0.44218,0.0353 0.48629,-0.1412 0.14631,0.19205 -0.11039,0.36718 -0.49383,0.63545 -0.007,0.25412 0.22843,0.11303 0.32529,-0.17803 0.19904,-0.29643 0.24204,-0.3941 0.28737,-0.73423 0.26525,-0.34602 0.41264,-0.11287 0.59796,-0.11451 0.31581,-0.21744 -0.0957,-0.3742 0.0148,-0.1978 0.24313,-0.0918 0.44946,0.12011 0.40537,0.36003 0.89164,0.7202 0.47158,0.1272 0.39904,-0.0367 0.31691,0.0989 0.31566,0.22733 0.0885,0.28944 -0.0885,0.39547 -0.39794,0.7272 0.1412,0.30222 0.40414,0.12143 0.6643,-0.12835 0.30839,0.18488 0.0516,0.31073 -0.27267,0.52954 -0.059,0.37418 0.2,0.32337 0.36003,0.25563 0.36952,0.53518 0.52213,1.04645 0.42102,0.24562 0.53064,0.10594 0.70633,-0.0338 0.23573,0.11287 0.0959,0.31772 -0.14747,0.31073 -0.37583,0.25411 -0.93478,0.25277 -0.19999,0.14977 0.0883,0.29658 0.479,0.19767 0.75276,0.0763 0.39053,-0.15537 0.45688,-0.31773 0.24314,-0.0353 0.11699,0.17088 -0.0885,0.26126 -0.40427,0.21744 -0.33999,0.19906 -0.11798,0.43078 -0.0148,0.91774 -0.19054,0.21044 -0.40633,0.19918 -0.28626,0.0338 -0.17803,-0.15389 -0.24932,-0.56622 -0.12638,-0.16814 -0.23586,-0.0423 -0.28626,0.14681 -0.56114,0.52392 -0.42625,0.68338 -0.52433,1.11706 -0.0367,0.43765 0.17679,0.36718 0.29589,0.23159 0.43476,0.10594 0.64726,0.50264 0.31072,0.0198 0.24204,-0.13972 0.30317,-0.48861 0.45579,-0.3658 0.79698,-0.2555 0.56732,-0.0705 0.39054,0.0353 1.07475,0.65799 0.37693,0.0339 0.14632,-0.10446 0.11055,-0.22598 -0.10199,-0.26263 -0.39054,-0.36005 -0.0959,-0.15537 0.0652,-0.21744 0.50221,-0.27681 0.26417,-0.0338 0.47266,0.23861 0.38215,0.0226 1.06844,-0.38833 0.38324,-0.19052 0.31678,-0.47309 0.79588,-1.31323 0.17062,-0.50975 -0.10315,-0.45193 -0.5022,-1.02229 -0.0221,-0.32487 0.20014,-0.22019 1.59785,-0.29521 0.60427,-0.0565 0.58215,0.0634 0.72213,0.13429 0.70113,0.0132 1.42957,-0.21181 0.52322,0.11287 0.69891,0.39683 0.19163,0.36005 0.0811,0.47309 -0.1768,0.38118 -0.2654,0.26827 -1.32639,0.48024 -0.46416,0.28243 -0.3095,0.44478 0.0379,0.38682 0.44838,0.8981 0.22225,0.18215 0.35261,0.0509 0.4937,-0.16951 0.36951,-0.008 0.3158,0.22735 0.12522,0.43778 -0.16229,0.50125 -0.11039,0.43078 0.15471,0.23998 0.25166,0.0481 0.82419,-0.37995 0.37583,0.007 0.50112,0.21882 0.22843,0.31774 0.0295,0.46594 -0.18436,0.24713 -0.28736,0.1272 -0.36842,0.0148 -0.44218,-0.0776 -0.2136,0.0283 -0.10462,0.22817 0.0397,0.30783 0.25509,0.12917 0.43544,0.12209 0.4856,-0.0585 0.47899,0.0396 0.40455,0.50125 0.0575,0.2478 -0.1908,0.30358 -0.0656,0.25908 -0.12902,0.17734 -0.34409,-0.0982 -0.20042,-0.47379 -0.26017,-0.2118 -0.3404,0.0382 -0.59767,0.77379 -0.003,0.25001 0.33379,0.98985 0.31169,1.16349 0.55633,1.96695 0.39204,0.52253 0.46278,0.29287 0.38161,0.12638 0.57556,0.0904 0.48998,-0.21676 0.61017,-0.66005 0.37145,-0.24712 1.04563,-0.48297 2.21873,-0.7455 0.30288,-0.2048 0.45757,-0.62626 0.36554,-0.043 0.25426,0.12423 0.0942,0.21898 -0.0692,0.47019 -0.14813,0.30496 -0.81582,0.40178 -0.34561,0.30921 -0.1356,0.47942 -0.13033,0.21883 -0.34629,0.22801 -1.19673,1.25608 -0.40826,0.64246 0.002,0.40165 0.16361,0.27542 0.35948,0.0806 0.93669,-0.35661 1.45745,-0.24148 1.13273,-0.14829 0.37279,-0.28379 0.90552,-0.75222 0.31472,-0.0386 1.00441,0.39287 0.49452,0.41031 0.63545,0.30605 0.64809,0.0297 0.90057,-0.0315 1.0102,-0.17226 1.9749,-0.59301 0.5305,0.0282 0.20633,0.0565 v 0.20481 l -0.0596,0.336 0.0766,0.2511 0.27653,0.0715 0.6224,-0.11336 0.93409,-0.031 1.03932,-0.24493 0.89685,-0.23406 0.27076,0.056 0.225,0.0984 0.11781,0.2441 -0.0165,0.2397 -0.21087,0.22061 -0.56662,0.12851 -0.29108,0.10793 -0.38861,0.32967 -0.0926,0.2397 0.01,0.27185 0.0822,0.19067 0.25715,0.0895 0.27926,0.008 0.35482,0.0541 0.32088,0.14301 0.33794,0.28351 0.45865,0.3077 0.25826,0.0427 0.38105,-0.25687 0.43655,-0.19878 0.3191,0.005 0.39603,0.0822 0.42006,-0.0844 0.87543,-0.46033 0.24575,0.0204 0.36731,0.3827 0.0608,0.32761 -0.0738,0.22761 -0.29548,0.12687 -0.42514,0.11039 -0.30811,0.32131 -0.35482,0.66498 -0.0578,0.3099 0.0885,0.39547 0.12572,0.20509 0.26305,0.0419 0.27006,-0.0557 0.45166,-0.25523 0.37652,-0.13197 0.4544,-0.0204 1.43837,0.19355 0.20591,-0.0616 0.18063,-0.1831 -0.0148,-0.30715 -0.27858,-0.36857 -0.42582,-0.25797 -0.1445,-0.23021 0.0557,-0.22762 0.18024,-0.11583 0.18859,0.003 0.22666,0.23476 0.41485,0.37061 0.26305,0.31168 0.12703,0.59136 0.0679,0.48573 0.0844,0.23957 0.20303,0.12291 0.29397,-0.0392 0.36402,-0.15093 0.23517,-0.28064 0.13411,-0.4279 0.14335,-0.68944 0.16799,-0.11155 0.27597,0.0148 0.18352,0.17226 0.76637,1.15799 0.65591,0.66363 1.03163,1.68726 0.72213,1.2073 0.20632,0.5154 0.0516,0.67776 -0.27254,0.65647 0.0148,0.35303 0.23585,0.31773 0.361,0.0211 0.31691,-0.0918 0.28736,-0.3106 0.19891,-0.48009 0.22843,-0.40948 0.39054,-0.26828 0.36113,-0.33888 0.11056,-0.35302 -0.14005,-0.32474 -0.40522,-0.49424 -0.0367,-0.20468 0.1989,-0.12011 0.30948,0.0211 0.56747,0.59314 0.37583,0.46595 -0.0252,0.41925 -0.38752,0.5691 -0.69562,1.27352 -0.31401,0.44905 -0.3463,0.22596 -0.57033,0.15817 -0.22104,0.15538 -0.0707,0.23009 0.11039,0.28242 0.68531,0.29643 0.54534,0.33189 0.23586,0.35303 0.059,0.38118 -0.22405,0.51815 -0.21813,0.35728 0.059,0.26829 0.22845,0.0776 0.30948,-0.13412 0.26525,-0.24711 0.25798,-0.46596 0.14746,-0.13428 0.22843,-0.0353 0.63367,0.12703 0.82529,0.40249 0.50853,0.35303 0.39055,0.72007 0.32417,0.91774 0.15488,0.26114 0.34629,0.16951 0.54535,0.0705 0.73683,0.0493 0.95057,0.0847 0.3316,-0.0918 0.50854,-0.25414 0.34628,-0.15537 0.61898,-0.007 0.64849,-0.11286 0.41266,-0.16952 0.45688,-0.28942 0.44204,-0.24713 0.95072,-0.26114 0.47885,0.0148 0.52321,0.28242 0.22557,0.42638 -0.059,0.31774 -0.49821,0.71732 -0.007,0.26827 0.21361,0.18351 0.38324,0.0148 0.36841,-0.24011 0.20634,-0.74823 0.18421,-0.14829 0.16213,0.0494 0.28738,0.29658 0.22843,0.72707 0.15916,0.46884 -0.0443,0.68477 0.18724,0.80894 0.75153,1.93438 0.45688,0.71294 0.0959,0.50125 -0.17981,0.60289 -0.31388,0.55496 0.007,0.32474 0.13264,0.15521 0.33889,-0.0282 0.45688,-0.22596 0.35371,-0.0494 0.23586,0.0353 0.15472,0.26127 -0.19451,0.44753 -0.0191,0.31485 0.20632,0.60001 0.43477,0.66363 0.36841,0.26127 1.28958,0.43765 0.37585,-0.0148 0.27994,-0.21183 0.27267,-0.28229 0.27997,-0.43778 0.30947,-0.16936 0.36855,-0.0148 0.58216,0.12703 0.33888,0.28243 0.15488,0.46594 0.007,0.62116 0.14746,0.23298 0.42005,0.22596 0.64852,0.0707 0.45688,-0.12011 0.25041,-0.22596 0.22116,-0.61418 0.0148,-0.45879 -0.0885,-0.26828 0.0516,-0.4165 0.13264,-0.31771 0.20645,-0.12704 0.72213,-0.20467 0.3095,-0.1412 0.10314,-0.19052 -0.0664,-0.22598 -0.23586,-0.15537 -0.37583,-0.0211 -0.3757,-0.0776 -0.26539,-0.28943 -0.35371,-0.72007 0.0516,-0.19067 0.25797,-0.0847 0.23571,0.0776 0.48642,0.43063 0.96526,0.55771 0.85484,0.16936 0.36841,0.0494 0.27996,0.26114 0.16951,0.43778 0.28736,0.007 0.24328,-0.0283 0.13263,-0.17637 0.13264,-0.33888 0.16213,-0.25412 0.4864,-0.21883 0.53051,-0.33889 0.34631,-0.0705 0.30948,0.0565 0.32432,0.33889 0.23571,0.5577 -0.0957,0.79069 v 0.40234 l 0.16951,0.30358 0.35372,0.14812 0.54521,-0.0776 0.28737,0.0493 0.27267,0.26127 0.14746,0.36705 -0.12522,0.28242 -0.843,0.61705 -0.15175,0.24423 0.0664,0.25413 0.1842,0.15521 0.72955,-0.0423 0.47158,-0.0211 0.31691,0.23297 0.005,0.39808 -0.44218,0.72007 -0.29918,0.18778 -0.38311,0.0283 -0.53793,-0.0353 -0.15488,0.13412 -0.0221,0.32474 0.18421,0.31058 0.65591,0.29656 0.49371,-0.0213 0.39794,-0.16936 0.28736,-0.71294 0.16213,-0.26827 0.34631,-0.0989 0.91375,0.28243 0.0738,0.30358 -0.20194,0.34864 -0.45399,0.29368 -0.62624,0.37418 -0.69274,0.56472 -0.10315,0.38118 0.14747,0.26829 0.35372,0.12011 0.56003,-0.0636 0.58217,-0.0353 0.30948,0.16951 0.20633,0.22583 0.0339,0.34876 -0.17692,0.28229 -0.34342,0.18078 -0.38311,0.15537 -0.48642,-0.11303 -0.27267,-0.22584 -0.34629,-0.33187 -0.29768,0.017 -0.21373,0.11995 -0.17391,0.34314 0.11055,1.21417 0.18421,0.4448 0.26526,0.30343 0.31691,0.12012 0.26525,-0.0847 0.13264,-0.27528 0.0293,-0.4518 0.12522,-0.19053 0.22843,-0.0213 0.27268,0.19067 0.30948,0.40949 0.14005,0.33174 -0.12094,0.40522 -0.39492,0.31485 -0.29768,0.1934 -0.0929,0.2231 0.10314,0.31058 0.63367,0.83999 0.46431,0.32473 0.34629,0.14121 0.92118,0.0918 0.47158,-0.19065 0.75166,-0.11286 0.68532,0.18351 0.44946,0.29643 0.4643,0.19767 0.81046,0.11303 0.97267,0.31758 0.63382,0.007 0.47899,0.14121 0.53051,0.50825 0.39053,0.81183 -0.0692,0.44053 -0.26966,0.26539 -0.37884,0.21457 -0.14434,0.28655 0.0442,0.31771 0.14005,0.14829 0.5158,0.17651 0.54534,0.28943 0.39054,0.46581 0.30207,0.23998 0.42006,0.0425 0.22843,-0.12012 0.0367,-0.29644 -0.059,-0.32474 -0.22101,-0.26112 -0.49371,-0.31773 -0.28008,-0.39534 -0.0811,-0.50111 0.0516,-0.31772 0.30219,-0.22583 0.39053,-0.0283 0.2948,0.0847 0.52321,0.71294 0.30949,0.58586 0.0367,0.68476 -0.36401,2.26173 -0.10759,0.59713 0.22844,1.36239 0.17678,0.47996 0.47901,0.32474 0.41263,0.0636 0.52323,-0.21883 0.44947,-0.16229 0.45687,0.14812 0.56004,0.40236 0.57475,0.24698 0.23584,0.24011 0.0293,0.32459 -0.1356,0.33462 -0.29465,0.28945 -0.52763,0.27252 h -0.58214 l -1.08327,0.0565 -0.59686,-0.12011 -0.53793,-0.34589 -0.3463,-0.21181 -0.2875,0.0778 -0.31676,0.16229 -1.17463,1.33684 -0.3581,0.63244 -0.0959,0.38118 0.0517,0.43065 0.22844,0.49411 0.56004,0.59286 0.11039,0.24713 -0.0765,0.24987 -0.1445,0.11023 -0.27995,0.0211 -0.2801,-0.13429 -0.32418,-0.41636 -0.22844,-0.33887 -0.38325,-0.19769 -0.36841,-0.14104 -0.48931,0.017 -0.26237,0.0606 -0.14005,0.27527 0.12522,0.53641 0.2801,0.68478 0.14005,0.63517 0.18421,0.40236 0.40977,0.257 0.45976,0.0819 0.75166,0.0282 0.84742,-0.26814 h 0.30948 l 0.27995,0.16246 0.10315,0.23283 -0.0766,0.33462 -0.24314,0.26114 -0.5158,0.23998 -0.38764,0.0326 -0.72215,-0.1412 -0.56004,-0.0494 -0.25054,0.0989 -0.0516,0.22584 0.12522,0.25412 0.27993,0.21882 0.75909,0.40234 0.37583,0.33876 0.13264,0.28943 0.0148,0.38818 -0.23133,0.39809 -0.5202,0.35014 -0.22116,0.18354 -0.0516,0.19065 0.14005,0.15521 0.42006,0.007 0.52323,-0.1623 0.36842,-0.007 0.42733,0.0565 1.09055,0.41649 0.59699,-0.0494 0.5084,0.0565 0.47158,0.19065 0.5055,0.12984 0.52624,-0.017 0.44946,0.0494 0.46416,0.29643 0.29478,0.10578 0.24315,-0.10578 0.21373,-0.31059 0.20634,-0.0283 0.20632,0.0847 0.0367,0.30344 0.0442,0.64947 0.0265,0.32747 -0.1886,0.23709 -0.32418,0.13429 -1.1378,0.10166 -0.26966,0.13824 -0.14746,0.31058 0.0221,0.34589 0.24313,0.22583 0.39054,0.0918 0.33159,-0.0705 0.38326,-0.23296 0.39052,-0.30345 0.30207,-0.13412 0.33902,-0.0494 0.53051,0.25412 1.13477,0.40236 0.49383,0.42349 0.0811,0.33174 -0.0766,0.32747 -0.45399,0.59713 -0.3095,0.21169 -0.34628,0.21882 -0.0148,0.28243 0.13988,0.22582 0.30207,0.12704 0.30949,-0.0565 0.43475,-0.33887 0.40537,-0.60703 0.21361,-0.0565 0.19905,0.18351 0.008,0.4095 -0.48642,0.9669 0.008,0.55758 0.1178,0.25412 0.28737,0.13412 0.32418,-0.0423 0.14746,-0.14813 0.008,-0.63518 0.059,-0.31059 0.25798,-0.20467 0.28736,-0.10594 0.3242,0.0423 0.65578,0.58586 0.43475,0.3952 0.26978,0.71581 0.29768,0.71706 0.26526,1.32695 0.44959,1.57407 0.6779,2.98551 0.25056,0.4588 0.30949,0.28228 0.25054,0.0353 0.14005,-0.10578 0.0737,-0.28242 0.0885,-0.56459 -0.0148,-0.64932 -0.10314,-0.79054 0.0516,-0.54356 0.15488,-0.59286 0.22843,-0.52941 0.25056,-0.14829 0.3463,0.0636 0.67061,0.50112 0.50099,0.28943 0.34643,0.0776 0.33159,-0.0634 0.24315,-0.17652 0.0737,-0.26112 0.11056,-0.3882 0.1989,-0.23298 0.28008,-0.0918 0.34631,0.19767 0.23586,0.55056 0.16951,0.45165 0.28737,0.28945 0.15471,0.29642 0.008,0.36705 -0.21375,0.4305 -0.059,0.3882 0.14747,0.30357 0.32419,0.51514 0.12522,0.50123 -0.0913,0.4474 -0.19162,0.32474 -0.42735,0.19753 -0.46128,0.11023 -0.18421,0.25414 0.0736,0.21167 0.28737,0.16229 0.43477,0.0494 0.51579,-0.0705 0.44962,0.0918 0.47898,0.34574 0.35359,0.77639 0.24328,0.33889 0.0191,0.30631 -0.18859,0.19479 -0.40826,0.16513 -0.10034,0.30068 0.1623,0.42349 0.5452,0.61403 0.23585,0.33874 0.0664,0.3176 -0.0913,0.29932 -0.23298,0.0746 -0.44203,-0.0847 -0.53064,-0.19054 h -0.37585 l -0.3566,0.13676 -0.18859,0.22307 0.059,0.3176 0.25056,0.23998 1.06116,0.26814 0.29465,0.12704 0.85481,0.69878 0.36115,0.0705 0.25783,-0.0636 0.50853,-0.50812 0.38311,-0.19767 0.33601,0.0664 0.3419,0.27954 0.0592,0.34589 -0.10627,0.28502 -0.29478,0.25414 -0.35071,0.1384 h -0.36113 l -0.56004,-0.0918 -0.21663,0.0382 -0.12522,0.19752 -0.0191,0.34301 0.42007,0.85401 0.2136,0.28943 0.31689,0.0353 0.16951,-0.0636 0.33889,-0.46581 0.16229,-0.26112 0.90634,-0.64219 0.39794,-0.34589 0.3095,-0.31058 0.25782,-0.11287 0.39055,-0.0776 0.22843,0.0634 0.38326,0.56472 0.8474,1.19275 0.18421,0.48697 -0.0516,0.50825 -0.19891,0.70577 -0.25797,0.37405 0.008,0.26814 0.12522,0.18353 0.27267,0.1412 0.44218,0.0776 0.40522,-0.0494 0.47901,-0.26814 0.27267,-0.12704 h 0.39052 l 0.72214,0.34576 0.1989,-0.0493 0.12522,-0.16229 0.0369,-0.27528 -0.0664,-0.54341 0.0442,-0.16229 0.13263,-0.14104 1.09068,-0.32474 0.34631,-0.0211 0.38311,0.17652 0.37583,0.4658 0.62638,0.8187 0.14747,0.50812 -0.0399,0.34863 -0.60866,1.11226 -0.14005,0.40234 0.1178,0.25414 h 0.33161 l 0.30948,-0.19067 0.39054,-0.10578 0.27267,-0.19052 0.30948,-0.35289 0.14746,-0.32474 0.22843,-0.43049 0.30222,-0.12704 0.44946,0.0918 0.18861,0.518 -0.0148,0.62817 -0.12967,0.44177 -0.48929,0.36279 -0.62639,0.33174 -0.57913,0.75936 -0.24328,0.41649 0.0442,0.33874 0.3095,0.19767 0.42748,0.0776 0.69259,0.0565 0.66321,0.3316 0.83271,0.26112 0.39794,0.28243 0.26526,0.40936 0.0367,0.28229 -0.007,0.64217 0.11055,0.37405 0.30207,0.35289 0.33159,0.16938 0.28751,-0.0211 0.24313,-0.11995 0.14747,-0.23297 0.0737,-0.39521 -0.12523,-0.51525 0.0738,-0.40221 0.16938,-0.3529 0.27267,-0.19766 0.32872,-0.0183 0.29025,0.0748 0.26539,0.28943 0.005,0.59561 -0.16951,0.37405 -0.67063,0.8257 -0.18859,0.39946 0.008,0.34589 0.19149,0.30345 0.30961,0.12703 0.361,-0.0987 0.40537,-0.22596 1.03162,-1.12215 0.19149,-0.47982 0.3169,-1.91969 0.11056,-0.27527 0.26526,-0.23285 0.8474,-0.51525 0.64852,-0.29643 0.62638,-0.0494 0.33888,0.14829 0.14746,0.21882 0.0664,0.55056 0.0442,0.3669 0.19149,0.33874 0.44959,0.50827 0.23573,0.45866 0.059,0.4588 -0.23586,1.85608 -0.16213,0.8187 -0.0664,0.39521 0.0811,0.30343 0.20632,0.24713 0.42007,0.22583 0.28737,0.0282 0.32419,-0.0987 1.34564,-0.71706 0.28296,-0.10858 h 0.19891 l 0.25056,0.12704 0.19162,0.22582 0.13247,0.67035 -0.0737,0.59286 -0.14746,0.53641 0.0367,0.19753 0.10314,0.1623 0.19904,0.10594 0.24313,-0.0148 0.38312,-0.3176 0.30948,-0.30343 0.18421,0.007 0.16229,0.17651 1.0095,1.98302 0.30207,0.23998 0.29479,0.0705 0.30948,-0.0283 0.26526,-0.10578 0.18421,-0.29643 0.059,-0.45167 0.0367,-0.32459 0.18421,-0.1412 0.40524,-0.12704 0.25797,0.0494 0.21374,0.23998 0.16938,0.6845 -0.007,0.64233 0.0221,0.30343 0.16938,0.24698 0.49382,0.28229 0.18119,0.25687 0.0545,0.33601 -0.1356,0.36264 -0.22102,0.14813 -0.38764,0.0115 -0.46416,-0.22583 -0.30221,-0.12686 -0.16951,0.0282 -0.0811,0.17638 -0.0221,0.31058 0.0664,0.21169 0.34631,0.1623 0.77377,0.0987 0.95799,0.0847 0.25056,-0.0565 0.25056,-0.15538 0.27995,-0.31745 0.28737,-0.43765 0.37583,-0.3599 0.1842,-0.19766 0.0442,-0.33161 -0.16213,-0.33874 -0.0811,-0.30345 0.19162,-0.21882 0.25784,-0.0918 0.47158,0.25414 0.28736,0.35274 0.33161,0.57172 0.10314,0.54343 0.0885,0.47981 0.38324,0.82571 0.38312,0.55756 0.42007,0.31058 0.14005,0.33876 -0.059,0.25399 -0.17981,0.29918 -0.26237,0.3077 0.0442,0.33874 0.14005,0.28242 0.36854,0.39521 0.51582,0.47281 0.0664,0.23283 -0.062,0.20042 -0.19164,0.1412 -0.33599,0.0394 -0.34631,-0.11287 -0.26525,-0.23983 -0.24328,-0.40936 -0.30206,-0.25411 -0.32418,-0.14104 -0.21676,0.01 -0.23283,0.18063 -0.12522,0.33875 0.0367,0.36691 0.19164,0.26827 0.33902,0.19052 0.72213,0.26114 0.46429,0.43049 0.11781,0.36692 0.0367,0.77624 0.0885,0.19054 0.20634,0.0918 0.21373,-0.0565 0.26526,-0.44452 0.20632,-0.16938 0.28736,-0.0918 0.27996,0.0565 0.36113,0.21867 0.32419,0.0847 0.42748,0.0282 0.24315,0.10594 0.11055,0.28229 -0.0148,0.47281 -0.28297,1.47778 -0.24753,0.91458 -0.0471,0.53216 -0.11501,0.22995 -0.15488,0.0847 -0.25784,-0.007 -0.40535,-0.1412 -0.3242,-0.28229 -0.27267,-0.33874 -0.16951,-0.12704 -0.52611,-0.0677 -0.13263,0.0776 -0.33601,0.54068 -0.11039,0.45152 -0.0252,0.89919 -0.0855,0.34287 -0.19163,0.34588 -0.15471,0.26814 0.059,0.22584 0.24024,0.15093 0.43765,-0.0522 0.53792,-0.19054 0.30222,-0.0148 0.25782,0.0987 0.52323,0.54341 0.30206,0.12703 0.25056,-0.0423 0.35372,-0.20467 0.20632,-0.0847 0.25056,0.0425 0.1842,0.17638 0.0148,0.27514 -0.27252,0.55757 -0.25359,0.30633 -0.0115,0.26525 0.14746,0.21168 0.40537,0.35989 0.22102,0.3106 0.21375,0.67748 0.19147,0.32459 0.52323,0.46568 0.16951,0.29642 -0.003,0.25689 -0.10776,0.20892 -0.20194,0.15801 -0.31277,0.16594 -0.18421,0.33106 0.0115,0.34999 0.26155,0.5257 0.43186,0.64425 0.16147,0.3261 -0.0501,0.23559 -0.23942,0.1356 -1.07364,-0.28518 -0.52914,0.0522 -0.16213,0.15538 0.21442,0.37115 0.5003,0.26608 0.9617,0.0839 0.29835,0.20673 0.36855,0.46925 h 0.27995 l 0.22557,-0.16717 0.17898,-0.31127 0.19973,-0.11435 0.38311,0.0989 0.53064,0.28228 0.39796,0.28229 0.17678,0.22582 v 0.40922 l -0.25054,0.3812 -0.4716,0.1127 -0.41263,0.12703 -0.13264,0.33874 0.20634,0.29645 0.4658,0.0875 0.60125,-0.15818 0.66018,0.0974 0.77377,0.005 0.84894,-0.098 0.8327,-0.19451 0.5187,-0.0921 0.42748,0.21167 0.39864,0.3261 0.22032,0.54905 0.20633,0.29631 0.6485,-0.0847 1.25265,-0.70565 0.63449,-0.22444 0.54452,0.0832 0.45687,0.26814 0.6485,1.00209 0.56073,0.52364 0.66252,0.26662 0.59026,0.072 0.54451,0.45029 0.35372,0.83272 0.35372,0.19752 0.36841,-0.0423 0.57474,-0.36692 0.36841,-0.3952 0.22117,-0.49397 0.0293,-0.45165 -0.19149,-0.45166 -0.0738,-0.35276 0.0885,-0.39519 0.29478,-0.46568 0.3095,-0.52227 0.63367,-0.31043 0.48709,-0.041 0.8246,0.35138 0.33889,-0.0282 0.33902,-0.31058 0.36842,-0.15521 0.26608,0.11435 0.30865,0.63367 0.16229,0.93147 0.33889,0.3246 0.26526,0.0565 0.28008,-0.35275 0.45688,-0.0565 0.36911,0.15652 0.76566,0.33738 0.38326,-0.0847 0.13247,-0.15521 -0.0442,-0.47982 -0.20633,-0.53627 -0.24974,-0.2386 -0.67802,-0.39507 -0.44287,-0.56594 -0.20632,-0.66334 0.059,-0.2823 0.25041,-0.36689 0.50112,-0.29643 1.28217,-0.43752 0.88436,-0.1412 0.69259,0.0989 0.4422,-0.12703 0.44285,-0.43613 0.92778,-0.73532 0.33887,-0.12687 0.42818,0.19891 0.23504,0.422 -0.16213,0.40934 -0.76568,0.41072 -0.17747,0.30909 v 0.39519 l 0.10314,0.43751 0.44203,0.2963 0.6345,0.17075 0.41196,0.25275 0.22102,0.56443 -0.073,0.70716 0.0287,0.422 0.25056,0.25398 0.70744,0.12703 0.61965,0.49534 0.4415,0.2103 0.33887,-0.12703 0.17693,-0.2963 0.20632,-1.14329 -0.1761,-0.39369 -0.41264,-0.64919 -0.69343,-1.27159 -0.19162,-0.52227 -0.0148,-0.45166 0.20632,-0.3952 0.47157,-0.19752 0.92847,-0.32461 0.16213,-0.35289 0.0738,-0.57857 0.13264,-0.3106 0.32431,-0.23983 0.19149,0.0847 0.44218,0.67748 0.67791,0.73394 1.00221,0.69151 0.69274,0.0707 0.58943,-0.35289 0.29478,-0.42337 0.26526,-0.38105 0.26608,-0.13972 0.33819,0.15389 0.20632,0.50797 0.3242,0.32461 0.47157,0.35289 0.20714,0.35426 -0.1178,0.39521 -0.28078,0.43613 0.11781,0.3669 0.41265,0.22583 0.60428,-0.16937 0.32417,-0.3246 0.58958,-0.0425 0.42816,0.17088 0.39781,0.50799 0.2801,0.64932 -0.0745,0.40784 -0.1761,0.34013 -0.39796,0.11286 -0.42816,-0.11435 -0.33889,-0.36703 -0.38324,-0.0847 -0.1908,0.41073 0.22032,0.67597 0.66321,1.62298 0.48628,1.12914 0.53064,0.98795 0.78105,0.3669 0.84001,0.18351 0.51594,-0.0705 0.1768,-0.28229 0.0745,-0.54905 0.22102,-0.3669 0.44218,-0.40921 0.27927,-0.15669 0.89891,0.18352 0.58958,-0.11287 0.75168,-0.53628 0.64836,-0.12703 0.36924,0.0297 0.22033,0.54891 0.44218,0.50812 0.5165,0.59424 0.55935,0.43601 1.3411,0.71979 0.75166,0.42336 0.94317,0.29645 0.75166,0.11286 0.91375,-0.18353 0.38394,-0.40783 0.51499,-0.91884 0.54534,-0.97378 0.41333,-1.50869 0.16147,-1.14454 0.19163,-0.32459 0.76705,-0.36553 0.70675,-0.53779 0.66319,-0.47981 1.22393,-0.95828 0.51513,-0.18488 h 0.26524 l 0.57558,0.2555 0.41264,0.77611 0.53051,0.95977 0.55934,0.76074 0.57475,1.0584 0.69342,1.7374 0.50029,0.92997 0.42748,0.62103 0.61897,0.46581 0.56072,0.10018 0.61829,-0.22722 0.53119,-0.64782 0.66252,-0.28366 0.69272,-0.0565 0.25056,0.11286 1.29689,1.14316 0.32499,0.0297 0.20632,-0.15521 0.66239,-1.08821 0.57487,-1.10086 0.45674,-1.32654 0.53065,-1.56666 0.0443,-0.7621 0.45755,-1.67805 0.2948,-0.63506 0.45605,-0.31195 0.38325,-0.0987 0.35371,0.31043 0.42736,0.26814 0.51662,-0.0832 1.47298,-0.46718 0.23585,-0.23985 0.059,-0.22582 -0.0738,-0.45166 -0.0293,-0.80442 0.0745,-0.69026 0.29396,-0.70703 0.41264,-0.32458 0.35372,-0.0148 0.17761,0.19903 0.13247,0.52214 0.11715,1.01486 0.33902,0.97378 0.53134,0.80593 0.76553,0.32309 0.60427,-0.0148 1.88645,-0.87502 0.45757,-0.11155 0.52982,0.12556 0.76635,0.0705 1.5918,0.0148 1.01678,-0.0847 1.04713,-0.2103 0.61898,-0.36692 0.81059,-0.60688 0.76568,-0.89054 0.51582,-0.36689 0.7959,-0.22585 0.50096,0.0423 0.5158,0.26814 0.63161,0.5963 1.09976,-12.76993 5.70677,-66.27897 -6.86833,-12.36293 5.49462,-17.85756 -6.86829,-19.23119 -10.98925,-10.98927 -35.71511,-42.58339 -19.23121,-54.9463 -15.11023,-35.7151 -15.11023,-53.57265 -30.22047,-19.23121 -16.4839,-19.23121 -1.37364,-5.49462 -1.37367,-9.61561 -8.24195,-8.24195 -27.47315,1.37367 -19.23119,-12.36293 -9.61561,-28.8468 -5.49464,-2.74731 -1.37365,-1.37366 -6.86828,-26.09949 -12.36293,1.37365 -12.36292,-5.49462 -34.34144,-21.97853 6.86828,-31.59412 -8.24194,-26.099494 5.49463,-21.978523 32.96778,-19.231206 -2.74731,-9.615604 h -5.49464 l 1.37367,-4.120973 -19.23121,4.120973 -6.86829,-5.494631 V 12.362917 L 704.66376,13.736576 701.91644,6.8682881 695.04816,4.1209724 677.1906,9.6156033 660.70672,0 l -6.8683,8.2419451 -14.52491,-0.7070221 -5.54135,-0.056597 -3.65501,1.2166473 -11.99382,9.1625727 -15.56574,-0.222395 -8.84265,0.848782 -6.4257,2.376428 -3.30116,4.017263 -2.9535,6.716498 -2.13111,7.117332 -2.49194,13.759654 -0.46348,1.006891 -0.4827,0.37075 -0.52789,0.234759 -2.01475,0.349047 -0.90757,0.003 -0.53106,0.0092 -0.34767,0.111266 -0.27035,0.126655 -0.34108,0.318139 -0.84328,0.877217 -0.13198,0.176103 -0.0516,0.191489 -0.029,0.355227 0.10298,0.463197 0.15125,0.463335 0.0773,0.105087 0.30893,0.108102 0.28971,0.0092 0.29603,0.01854 0.21566,0.09575 0.1417,0.111266 0.17062,0.333524 0.10611,0.28421 0.058,0.287232 -0.0165,0.679548 -0.0226,0.874059 -0.0194,0.234758 -0.0547,0.191488 -0.1417,0.139012 -0.18668,0.09876 -0.48284,0.05261 -0.65331,-0.09575 -0.60825,0.0401 -0.73381,0.231599 -0.1417,0.120476 -0.18022,0.172944 -0.087,0.203851 -0.007,0.278028 0.0516,0.271846 0.0997,0.549739 0.029,0.599188 -0.0385,0.27487 -0.0418,0.231735 -0.0933,0.172944 -0.17061,0.068 h -0.35084 l -1.21519,-0.147427 h -0.34754 l -0.26717,0.07418 -0.32831,0.185306 -0.37336,0.336684 -0.32185,0.157565 -0.31539,0.06167 -0.38943,-0.02157 -0.57928,0.07101 -0.36373,0.12967 -0.56006,0.244098 -0.40234,0.352069 -0.29931,0.339706 -0.64041,0.318138 -0.94781,0.28421 -0.58904,0.149722 -0.55357,-0.003 -0.72901,-0.179125 -0.42802,-0.231737 -0.3959,-0.243961 -0.24946,-0.09258 -0.18503,-0.01236 -0.69369,0.104955 -1.0279,0.263468 -2.02726,1.009638 -0.66703,-1.231209 -0.94948,-1.748391 -0.46182,1.305111 -0.66718,0.394102 -0.17968,1.304975 -2.84828,1.600725 -1.0264,-0.714165 -1.5396,1.10813 -1.02639,0.196981 1.15469,0.886422 0.66718,2.413241 2.20679,2.733167 2.6818,0.0096 0.0132,1.492617 z"
      data-name="Município de Silvânia-GO" id="municipio_de_silvania-go" />
</svg>