<?xml version="1.0" encoding="UTF-8" standalone="no"?>
<svg version="1.1" id="svg2" width="1000" height="1517.666" viewBox="0 0 1000 1517.666"
   xmlns="http://www.w3.org/2000/svg" xmlns:svg="http://www.w3.org/2000/svg">
   <defs id="defs6" />
   <path class="neighborhood"
      d="m 899.8932,1064.7752 -0.53533,0.5353 -0.53533,0.5353 -0.53533,0.5354 h -1.07067 l -1.07066,0.5353 -0.53533,1.0707 h -0.53534 l -0.53533,1.0706 -0.53533,1.0707 -0.53533,0.5353 -0.53533,0.5353 -0.53534,0.5354 -0.53533,0.5353 -0.53533,1.0707 v 0.5353 1.0707 l -0.53533,1.0706 -0.53533,0.5354 -0.53533,0.5353 h -0.53534 v 0.5353 1.0707 l -0.53533,0.5353 -0.53533,0.5354 -0.53533,0.5353 -0.53533,0.5353 v 1.0707 1.0706 l -0.53534,1.0707 v 1.0707 l -1.07066,1.0706 -0.53533,0.5354 -1.07067,1.0706 -1.07066,1.0707 -0.53533,0.5353 -0.53533,0.5354 -1.07067,1.0706 -0.53533,0.5354 -0.53533,1.0706 -0.53533,1.0707 -0.53533,0.5353 v 0.5353 l -0.53534,1.0707 v 0.5353 l -1.60599,3.212 -0.53533,1.0707 -1.606,1.606 h 0.53533 v 0.5353 0.5354 4.2826 2.1413 3.7474 l 2.14133,3.212 0.53533,1.0706 0.53533,1.606 -1.07066,2.1413 -1.07066,1.0707 -0.53534,0.5353 h -0.53533 l -1.60599,-1.0706 -3.74733,-3.7473 -2.14132,-1.606 -3.74733,4.2826 v 1.606 l -0.53533,3.212 -0.53533,2.1413 -1.07067,1.606 -0.53533,1.606 -0.53533,2.6767 -0.53533,3.212 v 1.0706 l -0.53533,2.6767 v 0.5353 l -0.53534,2.1414 v 3.2119 3.212 l -1.07066,1.606 -0.53533,0.5354 h -0.53533 -1.07067 -1.07066 -1.07066 -1.07067 -1.60599 l -1.07067,-0.5354 h -0.53533 -1.07066 -0.53534 l -1.07066,-0.5353 -2.14133,0.5353 -0.53533,-0.5353 -1.07066,0.5353 h -1.07067 -1.07066 -0.53533 -1.606 l -1.07066,0.5354 h -1.606 -1.60599 l -1.07067,-0.5354 -1.07066,-1.0706 h -0.53533 -0.53533 l -0.53534,0.5353 h -1.07066 -1.07066 l -1.606,-1.0707 -0.53533,-0.5353 -0.53533,-1.0707 v -0.5353 l -1.07067,-0.5353 h -1.60599 l -1.07067,-1.606 -1.07066,-1.0707 h -0.53533 l -1.07067,-0.5353 -1.60599,0.5353 -1.606,0.5353 h -1.60599 -1.07067 l -1.60599,-1.6059 -0.53534,-0.5354 -1.60599,-1.0706 -1.07072,-1.606 -1.07061,-0.5354 -1.07072,-1.0706 h -0.53533 v -0.5354 l -1.07061,-0.5353 h -1.07072 l -0.53533,-0.5353 -1.07061,0.5353 h -1.60605 l -2.14132,-0.5353 h -0.53534 l -1.07061,-0.5354 -1.07071,-1.0706 -0.53534,-0.5354 -0.53533,-1.606 v -0.5353 l -1.07066,-1.0707 -0.53533,-0.5353 -0.53534,-1.0706 v -0.5354 l -1.07061,-1.0706 v -0.5354 -1.0706 l -1.07071,-0.5354 -0.53533,-0.5353 h -0.53534 l -0.53533,-0.5353 v -0.5354 l -0.53533,-0.5353 -0.53533,-0.5353 -0.53533,-1.0707 -1.07061,-1.0707 -0.53534,-1.0706 -1.60599,-2.6767 -1.606,-2.6766 -0.53533,-1.0707 v -0.5353 l -0.53533,-1.606 -0.53533,-2.1414 -0.53534,-1.0706 -0.53533,-1.606 v -3.212 l 0.53533,-2.6767 -0.53533,-1.0706 -0.53533,-1.0707 -1.07066,-0.5353 -0.53534,-0.5354 v -1.0706 l -3.21199,1.606 -2.14132,1.606 -2.14133,0.5353 -3.74733,-0.5353 -1.60599,1.0706 -1.07066,0.5354 -1.07067,1.0706 v 0.5354 2.6766 l -0.53533,1.606 -1.07072,0.5353 -2.67666,1.0707 -0.53533,0.5353 -0.53533,2.1414 -2.14133,2.1413 v 1.606 l -0.53533,1.0707 -3.21194,1.606 v 0.5353 1.0706 6.9594 l -1.07072,2.6766 0.53534,4.2827 -0.53534,3.212 v 3.7473 l -0.53533,2.1413 -0.53533,3.212 -1.606,4.818 -2.14132,6.424 -4.81794,2.1413 h -4.28271 l -6.95931,2.1413 -6.42398,2.1414 -5.88865,3.7473 h -1.606 l -3.21199,1.606 h -3.21199 l -3.74733,1.606 -2.14127,-0.5354 h -1.07072 -1.60594 l -3.74738,1.0707 -3.74732,2.1413 -3.21194,0.5354 h -3.74737 l -3.74733,-0.5354 -3.21194,-1.0706 -5.35331,-2.6767 -4.81805,-3.212 -2.14132,-2.1413 -1.07061,-2.1413 -2.14138,-3.7474 -2.14133,-6.4239 -1.07061,-5.3534 -0.53533,-1.606 -5.35332,-5.3533 -3.21199,-1.606 -3.212,-1.606 h -0.53533 l -8.02998,-0.5353 -4.28265,-0.5353 -2.14133,-0.5354 h -2.67666 l -1.07066,0.5354 -0.53533,0.5353 -0.53534,0.5353 h -0.53533 l -1.07066,2.1414 -1.606,0.5353 -1.07066,1.606 -0.53533,0.5353 -1.07067,0.5354 h -3.21199 l -3.74732,-0.5354 -2.14133,-0.5353 -2.67666,-0.5353 h -1.07056 -1.07077 -2.14132 -1.606 l -2.14133,1.0706 -1.60599,1.0707 -0.53534,0.5353 v 0.5354 l -1.07066,0.5353 -0.53533,0.5353 -1.07072,1.606 v 1.0707 l -0.53533,0.5353 v 0.5353 l -1.07061,0.5354 h -1.60605 l -0.53533,-0.5354 -1.606,-0.5353 0.53533,-4.2826 1.07067,-4.2827 v -1.0707 l -0.53533,-2.6766 v -0.5354 -0.5353 -0.5353 h -0.53534 l -1.60599,-0.5354 h -1.07067 -2.14132 l -3.21199,0.5354 h -2.14133 -0.53533 -0.53534 -0.53533 -0.53533 -0.53533 v -1.606 h -2.67666 v -0.5354 -2.1413 -2.1413 -2.6767 -1.0706 -1.0707 h -0.53533 v -0.5353 -1.0707 h 0.53533 l 0.53533,-1.0707 1.07066,-2.6766 1.07067,-2.1413 0.53533,-0.5354 v -0.5353 l 0.53533,-1.0707 0.53533,-0.5353 v -0.5353 l 1.07072,-1.606 1.07061,-1.606 0.53533,0.5353 1.07072,0.5353 0.53533,0.5354 v 0.5353 h 0.53533 l 2.14133,1.606 1.07067,1.0707 h 0.53533 l 0.53533,0.5353 h 1.07061 v 0.5353 l 1.07066,-1.0706 h 0.53534 v -0.5354 h 0.53533 v -0.5353 -0.5353 h 0.53533 l 1.07066,-2.1414 0.53534,-0.5353 v -0.5353 l 0.53533,-0.5354 v -0.5353 l 0.53533,-0.5353 1.07066,-2.6767 0.53533,-1.606 1.07067,-2.1413 v -0.5353 l 0.53533,-1.606 h 0.53533 l 2.14133,-4.818 -4.81799,-3.7473 -0.53533,-0.5354 v -2.1413 l -1.07066,-3.7473 -1.606,-2.1414 -0.53533,-2.1413 -0.53533,-1.0706 -0.53533,-5.3534 -2.67666,-4.8179 h 1.07061 v -2.1414 l -0.53534,-2.1413 v -1.606 l -0.53533,-1.606 v -2.1413 l -0.53533,-1.606 v -1.606 -1.0707 -1.0706 -2.1414 h 2.14133 l 1.60599,-0.5353 4.81804,1.0707 1.60595,-0.5354 1.07071,-1.0706 1.07061,-2.1414 2.67666,-3.7473 2.14133,-1.606 1.07067,-1.606 0.53533,-1.0706 h 0.53533 l 0.53533,0.5353 2.14138,-2.1413 0.53533,-1.606 1.07067,-1.606 v -1.0707 l 1.60599,-1.606 2.14133,-3.212 h -0.53533 l 1.606,-1.606 1.60599,-1.0706 5.88865,-4.818 1.606,-2.6767 1.07066,-3.212 1.606,-1.606 2.14132,-1.0706 1.07067,-2.1414 2.14133,-1.606 -0.53534,-0.5353 -0.53533,-0.5353 v -1.0707 l 1.606,-5.8886 -10.17131,1.606 h -1.60599 l -0.53534,-0.5354 -1.07066,-0.5353 -0.53533,-0.5353 -1.07067,-0.5354 h -0.53533 l -0.53533,-0.5353 -0.53533,-0.53533 h -0.53533 l -1.07067,-1.07067 -1.07066,-0.53533 v -0.53533 l -1.07066,-1.07066 -0.53534,-0.53534 -1.07066,-0.53533 -0.53533,-1.60599 -2.14133,-1.07067 -0.53533,-1.07066 h -1.07067 l -0.53533,-0.53533 -0.53533,-0.53533 v -0.53534 l -1.07066,-0.53533 h -1.07061 l -0.53533,-0.53533 -1.606,-0.53533 -0.53533,-0.53533 h -1.07072 l -1.07066,-0.53534 -0.53534,-1.07066 -2.67666,-0.53533 -1.07066,-0.53533 -0.53533,-0.53534 -1.07066,-0.53533 -0.53534,-0.53533 h -0.53533 -0.53533 l -0.53533,-0.53533 -1.07067,0.53533 -1.07066,0.53533 -1.07066,0.53533 h -1.07067 l -2.67666,1.606 -0.53533,1.07066 -0.53533,0.53534 h -0.53533 l -1.07072,0.53533 -0.53533,0.53533 -0.53533,0.53533 v 0.53533 l -0.53534,0.53534 -0.53533,0.53533 h -0.53533 l -0.53533,0.53533 h -0.53533 l -1.606,1.07066 -0.53533,1.07067 -0.53533,0.53533 h -0.53533 l -0.53534,0.53533 h -1.07066 -0.53533 -0.53533 l -1.07067,-0.53533 h -1.07066 l -1.606,-1.606 v -0.53533 l -0.53533,-0.53533 -1.07066,-0.53533 h -0.53534 l -0.53533,-0.53533 h -0.53533 -1.60599 -0.53534 v -0.53534 h -0.53533 l -0.53533,-0.53533 -2.67666,2.67666 h -2.67666 l -1.07066,-1.60599 h -1.07067 -1.07066 l -1.07067,-0.53534 h -0.53533 l -1.07066,-0.53533 -1.07066,-1.07066 -0.53534,-0.53533 -1.07066,-1.07067 -0.53533,-1.07066 h -1.07067 l -0.53533,-1.07067 h -0.53533 -0.53533 -0.53533 v 1.07067 h -0.53534 v 0.53533 l -0.53533,0.53533 -1.07066,-0.53533 1.07066,-3.74732 -6.42398,5.88865 -6.95932,5.88865 -0.53533,0.53533 -6.95942,1.07066 -4.81799,1.606 h -0.53533 -0.53533 l -1.07066,-0.53533 h -0.53534 l -0.53533,-0.53533 h -0.53533 l -0.53533,-0.53534 -1.07072,-0.53533 -1.07066,-0.53533 h -0.53533 l -1.07067,-0.53533 -0.53533,-0.53533 -0.53533,-0.53533 -0.53533,-0.53534 -0.53534,-0.53533 -1.60599,-0.53533 h -1.606 -0.53533 -1.07061 -1.07072 -0.53533 -1.07061 -0.53533 -1.07066 l -0.53534,1.07066 h -0.53533 l -7.4947,2.67666 -3.74732,1.606 -2.14128,1.07066 -1.60605,-0.53533 -0.53533,-0.53533 -2.14132,-4.81799 -1.606,-5.88865 -0.53533,-3.74732 v -10.17131 l 0.53533,-1.07066 -0.53533,-2.14133 0.53533,-3.21199 0.53533,-1.07067 0.53533,-1.60599 1.07067,-0.53533 1.07071,-2.14133 1.07061,-1.606 0.53534,-0.53533 0.53533,-3.74732 v -1.606 -0.53533 l -0.53533,-2.14133 -1.07067,-1.07066 -2.67666,-1.07066 -3.21193,-0.53534 -2.14139,-1.07066 -3.74732,-2.67666 -5.35332,-10.70664 -1.60599,-2.14133 -2.67666,-2.67666 -1.07067,-2.67665 -2.14122,-3.212 -2.67666,-3.21199 0.53533,-2.14133 1.07067,-4.28265 v -6.95932 -3.74732 l -1.07067,-3.74732 -1.07066,-1.07067 -1.60599,-1.60599 -2.14133,-2.14133 -4.81799,-3.74732 -0.53533,-1.606 -1.07067,-1.60599 h -1.60599 l -2.67666,0.53533 h -1.606 l -1.60599,-1.07067 -0.53533,-1.07066 -0.53534,-0.53533 -2.67666,-2.67666 -1.60599,-0.53533 h -0.53533 l -3.21199,0.53533 -2.67666,-0.53533 -2.14133,-1.606 -2.67666,-1.07066 -2.14133,-1.07067 -3.21199,-0.53533 -2.67666,-1.60599 -3.21199,-0.53534 -4.28266,-0.53533 -1.60599,-1.07066 -3.21199,-1.07067 2.14132,3.212 0.53534,4.28265 1.60599,5.35332 2.14133,5.88865 -2.14133,5.88865 -1.07066,2.67666 -2.14133,4.28266 -4.28266,4.81798 -1.60599,1.606 -4.81799,3.74732 -1.60599,1.606 -2.14133,2.14133 -2.67666,5.88865 -1.07066,2.14133 -2.14133,2.14132 v 0.53533 l -0.53533,0.53534 -1.606,3.21199 -1.606,3.74732 -1.07066,5.88865 -2.67666,9.63598 v 2.67666 6.42398 l -0.53533,2.67666 -1.606,5.88865 -3.21199,6.95931 -1.07066,1.07067 -10.70664,4.81799 -4.81799,3.21199 -9.63597,8.02998 -5.35332,10.17131 -0.53533,3.7473 1.07066,6.424 2.14133,10.1713 v 1.606 l -2.14133,11.242 v 0.5353 l -1.07066,3.7473 -0.53533,1.0707 -1.07067,1.0707 3.21199,1.0706 2.14133,0.5353 2.67666,1.606 1.606,0.5354 2.67666,1.0706 5.35331,1.0707 2.14133,0.5353 2.14133,0.5354 2.67666,1.0706 3.21199,0.5354 h 6.95932 l 5.88865,0.5353 h 3.21199 l 3.21199,-0.5353 3.21199,-0.5354 h 2.67666 l 1.606,-1.606 3.21199,-0.5353 6.95931,-3.7473 3.74733,-1.0707 5.88865,-2.1413 0.53533,-0.5353 h 1.07066 l 1.07067,-0.5354 1.07066,-0.5353 h 0.53533 l 1.07067,-0.5353 h 1.07066 0.53533 l 0.53533,-0.5354 h 1.07067 0.53533 0.53533 1.07067 l 0.53533,0.5354 h 1.07066 0.53533 l 1.07067,0.5353 h 0.53533 0.53533 0.53533 l 0.53533,-0.5353 h 0.53534 0.53533 0.53533 l 2.14133,-0.5354 1.60599,0.5354 h 1.07067 v 3.212 3.2119 l 0.53533,11.7773 v 0.5354 0.5353 0.5353 1.0707 l -0.53533,1.0707 v 0.5353 1.0707 l -0.53533,1.606 -0.53534,0.5353 v 1.0707 l -0.53533,1.0706 -0.53533,1.606 -1.07066,2.6767 v 2.1413 l 0.53533,1.0707 1.07066,1.606 1.07067,1.606 2.14132,1.606 2.67666,2.6766 0.53533,0.5353 0.53534,1.0707 0.53533,0.5353 0.53533,0.5354 v 0.5353 l 0.53533,1.0707 0.53533,1.0706 0.53534,1.606 0.53533,0.5354 0.53533,1.0706 v 0.5354 l 0.53533,0.5353 1.07067,1.0707 v 0.5353 1.0706 l 0.53533,1.0707 1.07066,1.606 1.606,2.1413 0.53533,2.1414 1.60599,1.606 0.53534,0.5353 2.14132,3.212 1.606,1.606 2.14133,1.0706 1.60599,1.0707 1.07067,1.0707 1.60599,1.606 0.53533,1.606 1.07061,1.0706 3.74743,2.1414 1.60589,1.0706 1.07077,1.0707 2.67666,1.0706 1.07056,1.606 0.53533,0.5354 3.74743,1.606 1.60589,1.0706 3.21199,1.606 1.606,1.0707 0.53533,1.606 -0.53533,2.1413 -1.07056,1.606 v 1.0707 0.5353 l 4.28255,6.424 1.07077,1.606 4.28255,5.8886 v 0.5354 l 6.95931,9.1006 3.74733,5.3533 1.60599,2.6767 4.8181,6.9593 1.07055,2.1413 1.07067,1.0707 0.53533,0.5353 h 1.60594 l 2.14133,0.5354 2.14133,0.5353 2.67666,0.5353 3.21199,0.5354 4.28271,0.5353 1.60594,0.5353 1.07072,-1.0706 2.67666,-1.0707 2.14128,-1.0707 1.60599,0.5354 1.60605,-1.606 1.07061,-2.1414 1.07066,-1.0706 0.53533,-0.5354 6.42393,8.5653 4.28271,5.3534 1.60594,2.6766 v 0.5354 l 1.606,3.2119 1.07066,2.6767 0.53533,1.606 0.53533,2.1413 2.14123,5.8887 0.53533,2.1413 2.14127,5.8887 3.74732,11.2419 2.14139,5.8887 5.35331,16.0599 1.07062,2.1414 0.53533,1.606 1.07071,4.2826 2.14128,5.3533 3.21204,8.03 8.02998,8.5653 3.74727,2.1414 1.60605,1.606 8.56526,8.0299 6.95931,16.06 h -8.02998 l -2.14127,0.5353 -1.60605,0.5354 -1.07061,0.5353 h -0.53533 -0.53533 l -2.67666,1.0706 -2.67666,1.0707 h -1.07067 l -0.53533,0.5353 -1.60599,0.5354 -0.53534,0.5353 -1.07066,1.606 -0.53533,0.5353 -4.81799,10.1713 -1.07066,2.1414 -1.606,2.1413 -1.60599,1.0707 -1.606,2.1413 -3.74732,4.818 -1.07067,1.0706 -7.49464,0.5354 h -3.74733 l -2.67666,-0.5354 -3.74732,-2.1413 -10.17131,-7.4946 -3.74732,-3.212 -3.74731,-3.212 -2.67667,-2.1413 -2.67666,-3.212 -1.07067,-1.0707 -1.07066,-1.0707 -0.53533,-0.5353 -0.53533,-1.0707 v -1.606 l -1.07067,-0.5353 -0.53533,-1.606 -1.07066,-1.606 -0.53533,-0.5353 -0.53534,-1.0707 h -0.53533 l -1.07066,-0.5353 -0.53533,-0.5353 -0.53534,-2.1414 -1.07071,-1.606 -1.07067,-1.0706 -1.60599,-0.5354 -1.07067,-1.606 -1.07066,-1.0706 -1.606,-1.0707 -1.60599,-2.1413 -0.53533,-1.606 -1.07061,-2.6767 -0.53534,-1.606 -2.67666,-3.212 -3.21199,-4.8179 -2.67666,-4.818 h -0.53533 l -4.81799,-1.0707 -3.21199,-1.606 v -0.5353 h -1.07055 -0.53534 l -0.53533,-0.5354 -0.53533,-0.5353 -2.14133,-0.5353 h -1.07066 -0.53533 v -0.5353 -0.5354 l -0.53533,-0.5353 h -0.53534 v -0.5353 l -1.07066,-0.5354 H 480.728 v -0.5353 h -0.53533 v -0.5353 -0.5354 h -0.53534 -0.53533 l -0.53533,-0.5353 h -0.53533 -0.53533 v -1.0707 -0.5353 h -0.53534 v -0.5353 -0.5354 l -0.53533,-0.5353 -0.53533,-1.0707 -1.606,-0.5353 -2.14132,-1.0707 -0.53533,-1.0706 -1.60595,-1.606 v -0.5353 h -0.53533 -1.07066 -1.07061 l -1.07072,-0.5354 -1.07066,-0.5353 -1.606,-1.606 v -1.0707 L 463.0621,1250 v -0.5353 h -0.53533 l -0.53534,-0.5354 v -0.5353 -0.5353 h -0.53533 v -0.5354 h -0.53533 v -0.5353 h -0.53533 v -0.5353 0.5353 l -0.53533,-0.5353 v -0.5354 h -0.53533 l -0.53534,0.5354 v -0.5354 l -0.53533,0.5354 v -0.5354 h -0.53533 -0.53533 v -0.5353 h -0.53533 -0.53534 l -0.53533,-0.5353 h -0.53533 -0.53533 -0.53533 v -0.5354 -0.5353 h -0.53534 l -0.53533,-0.5353 v 0.5353 h -0.53533 v -0.5353 h -0.53533 v -0.5353 h -0.53533 v -0.5354 -0.5353 h 0.53533 -0.53533 v -0.5353 h -0.53534 -0.53533 -0.53533 v -0.5354 h -0.53533 -0.53533 v -0.5353 h -0.53533 v -0.5353 l -0.53534,-0.5354 h -0.53533 v -0.5353 h -0.53533 v -0.5353 h -0.53533 -0.53533 -0.53534 v -0.5354 h -0.53533 -0.53533 -0.53533 v -0.5353 h -0.53533 -0.53534 v -0.5353 h -0.53533 v -0.5354 h -0.53533 v -0.5353 h -0.53533 0.53533 -0.53533 v -0.5353 h -0.53533 l 0.53533,-0.5354 -0.53533,-0.5353 h 0.53533 v -0.5353 -0.5354 h -0.53533 l -1.606,-1.0706 -0.53533,-0.5353 h -0.53533 v -0.5354 h -0.53533 v -0.5353 l -0.53534,-0.5353 v -0.5354 h -0.53533 v -0.5353 0.5353 -0.5353 h -0.53533 -0.53533 -0.53533 v -0.5353 l -0.53534,-0.5354 v -0.5353 h -0.53533 -0.53533 l -0.53533,-0.5353 h -0.53533 v -0.5354 -0.5353 h -0.53534 l -0.53533,-0.5353 h -0.53533 v -0.5354 h -0.53533 -0.53533 v -0.5353 l -0.53534,-0.5353 h 0.53534 v -0.5354 -0.5353 h -0.53534 v -0.5353 h -0.53533 v -0.5354 h -0.53533 l -0.53533,-0.5353 v -0.5353 l -0.53533,-1.0707 v -0.5353 -0.5353 -0.5354 -0.5353 h -0.53533 v -0.5353 h -0.53534 v -0.5354 l -0.53533,-0.5353 -0.53533,-0.5353 h -0.53533 v -0.5354 -0.5353 0.5353 l 0.53533,-0.5353 h -0.53533 v -0.5353 -0.5354 -0.5353 -0.5353 h -0.53533 v -0.5354 h -0.53534 v -0.5353 -0.5353 h -0.53533 v 0.5353 -0.5353 h -0.53533 v -0.5354 -0.5353 h -0.53533 v -0.5353 -0.5354 h -0.53533 l -0.53534,-0.5353 -0.53533,-0.5353 v -0.5353 -0.5354 -0.5353 l -0.53533,-0.5353 -1.07066,-0.5354 -0.53534,-0.5353 v -1.0707 l -0.53533,-1.0706 -0.53533,-0.5354 v -1.0706 l -1.07066,-1.0707 -0.53533,-1.0707 -1.07067,-1.0706 -0.53533,-1.0707 -0.53533,-1.606 -0.53533,-1.0706 -1.07067,-2.6767 -0.53533,-1.606 -0.53533,-1.0707 v -1.606 l 0.53533,-1.606 v -1.0706 -1.0707 -0.5353 l -0.53533,-0.5353 v -0.5354 l -0.53533,-0.5353 -0.53534,-1.0707 v -0.5353 -0.5353 h -0.53533 v -0.5354 h -0.53533 v -0.5353 h -0.53533 v -0.5353 h -0.53533 -0.53534 v -0.5354 l -0.53533,-0.5353 v -0.5353 h -0.53533 v -0.5354 l -0.53533,-0.5353 v -0.5353 l -0.53533,-0.5354 v -0.5353 l -0.53533,-0.5353 v -0.5354 -0.5353 l -0.53534,-0.5353 v -0.5353 -0.5354 l -0.53533,-0.5353 v -0.5353 l -0.53533,0.5353 -0.53533,0.5353 h -0.53533 v -0.5353 h -0.53534 v -0.5353 l -0.53533,-0.5354 v -0.5353 h -0.53533 v -0.5353 h -0.53533 -0.53533 -0.53534 l -0.53533,0.5353 h -0.53533 -0.53533 l -1.07067,-0.5353 h -1.60599 l -1.07066,-0.5354 h -0.53534 -0.53533 -1.07066 l -0.53533,-0.5353 h -1.07067 l -1.07066,-0.5353 h -0.53533 l -0.53534,-0.5354 h -0.53533 v -0.5353 -0.5353 -0.5354 h -0.53533 l -0.53533,0.5354 -0.53533,0.5353 h -0.53534 v 0.5353 h -0.53533 l -0.53533,0.5354 v 0.5353 l -1.07066,0.5353 h -0.53533 l -1.07067,0.5354 v 0.5353 l 0.53533,0.5353 h 0.53534 l 0.53533,0.5354 0.53533,0.5353 h -0.53533 -0.53533 l -0.53534,0.5353 -0.53533,0.5354 -0.53533,0.5353 v 0.5353 l -0.53533,0.5353 -0.53533,1.0707 v 0.5353 l -0.53534,0.5354 v 0.5353 h -0.53533 -0.53533 -0.53533 -0.53533 -1.07067 -0.53533 -0.53533 l -0.53533,-0.5353 -1.07067,0.5353 -1.07066,0.5353 -0.53533,0.5354 -0.53534,0.5353 -0.53533,0.5353 -0.53533,1.0707 -0.53533,1.0707 v 0.5353 l -0.53533,0.5353 -0.53533,0.5354 h -0.53534 v -0.5354 l -0.53533,-0.5353 -0.53533,-0.5353 h -1.07066 -0.53534 -1.07066 -0.53533 l -0.53533,0.5353 -0.53534,1.0707 -0.53533,1.606 -0.53533,0.5353 -1.07066,0.5353 -0.53534,0.5353 -0.53533,1.0707 v 0.5353 h -0.53533 l -1.07066,0.5354 h -1.07067 l -1.07066,0.5353 h -1.07066 l -0.53534,-0.5353 -2.14132,-0.5354 -0.53534,-0.5353 -0.53533,-0.5353 -0.53533,-0.5354 h -1.07066 l -0.53534,-0.5353 -0.53533,-1.0706 h -0.53533 l -0.53533,-0.5354 -1.07066,-0.5353 v -0.5353 l -0.53534,-0.5354 h -0.53533 l -0.53533,0.5354 -3.74732,2.1413 -0.53534,0.5353 -0.53533,0.5353 -0.53533,0.5354 -0.53533,0.5353 v 0.5353 l 0.53533,0.5354 0.53533,0.5353 v 0.5353 l -0.53533,0.5354 h -0.53533 l -0.53533,-0.5354 -0.53534,-0.5353 -0.53533,-0.5353 h -0.53533 -0.53533 -0.53533 v 0.5353 l -0.53533,0.5353 -0.53534,0.5354 -0.53533,0.5353 -0.53533,1.0707 v 0.5353 l -0.53533,0.5353 v 0.5354 l -0.53533,0.5353 h -1.07067 -0.53533 -0.53533 -0.53533 l -0.53534,0.5353 -0.53533,0.5354 0.53533,0.5353 v 1.0707 l -0.53533,0.5353 -0.53533,0.5353 h -1.07066 -1.07067 -1.07066 l -0.53533,-0.5353 -0.53533,-0.5353 -0.53534,-0.5354 h -0.53533 l -4.28265,-1.0706 -2.14133,-1.0707 h -0.53533 -1.07067 l -1.60599,-0.5353 -0.53533,-0.5354 h -1.07067 l -1.60599,-0.5353 v -0.5353 l 1.07066,-1.606 v -1.0707 -1.0707 l 0.53533,-0.5353 v -0.5353 -1.0707 l -0.53533,-0.5353 v -0.5353 l -0.53533,-0.5354 -0.53533,-0.5353 h -0.53534 v -0.5353 h -0.53533 -0.53533 l -0.53533,0.5353 -0.53533,0.5353 v 0.5354 h -0.53534 -0.53533 -0.53533 l -0.53533,-0.5354 h -0.53533 -0.53534 l -0.53533,-0.5353 h -0.53533 -0.53533 v 0.5353 l -0.53533,0.5354 h -0.53533 l -0.53534,-0.5354 v -0.5353 l -0.53533,-0.5353 -0.53533,0.5353 v 0.5353 h -0.53533 v 0.5354 l -0.53533,0.5353 h -0.53534 l -0.53533,0.5353 -0.53533,0.5353 v 0.5354 l -0.53533,0.5353 -0.53533,0.5353 h -1.07067 -0.53533 -1.07066 l -0.53534,0.5354 h -0.53533 l -0.53533,0.5353 -0.53533,0.5353 -0.53533,0.5354 -1.07067,0.5353 h -0.53533 l -0.53533,-0.5353 v -0.5354 l -0.53533,-0.5353 -0.53533,-0.5353 -0.53534,-0.5354 h -1.07066 -0.53533 -0.53533 l -0.53534,0.5354 v 0.5353 0.5353 h -0.53533 -0.53533 l -0.53533,-0.5353 h -0.53533 -0.53534 v -0.5353 h -0.53533 l -0.53533,-0.5354 h -0.53533 -1.07066 -0.53534 l -0.53533,-0.5353 h -1.07066 -0.53533 -1.07067 l -1.60599,0.5353 h -1.606 -0.53533 l -0.53533,-0.5353 v -0.5353 -0.5354 l 0.53533,-0.5353 0.53533,-0.5353 -0.53533,-0.5353 h -0.53533 -1.07067 l -0.53533,-0.5354 -0.53533,-0.5353 -1.606,-0.5353 -1.07066,-0.5354 -1.07066,-1.0706 -0.53534,-0.5354 v -0.5353 -0.5353 -0.5354 -0.5353 -1.606 l -0.53533,-1.0707 v -1.0706 l 0.53533,-1.0707 v -2.1413 -0.5353 -0.5354 -0.5353 l -0.53533,-1.0707 -0.53533,-0.5353 -0.53533,-0.5353 -0.53533,-0.5354 h -0.53534 l -0.53533,-0.5353 h -0.53533 l -0.53533,0.5353 v 0.5354 0.5353 0.5353 h -0.53533 v 0.5354 h -0.53534 l -0.53533,0.5353 -1.07066,0.5353 h -1.606 -0.53533 L 250,1165.9529 h -1.07066 l -0.53534,0.5353 h -0.53533 l -1.60599,0.5354 h -0.53534 -0.53533 l -1.07066,-0.5354 -1.07066,-0.5353 -1.07067,-1.0707 -0.53533,-0.5353 h -1.07066 -1.07067 l -1.07066,0.5353 h -0.53533 -0.53534 v 0.5354 0.5353 0.5353 h -1.07066 -1.606 l -1.07066,-0.5353 h -1.07066 l -2.14133,0.5353 -2.14133,0.5354 -0.53533,0.5353 v 0.5353 l -0.53533,0.5354 0.53533,0.5353 h 0.53533 l 0.53533,1.0706 0.53534,0.5354 -0.53534,0.5353 v 0.5353 l -0.53533,1.606 h -0.53533 l -0.53533,1.0707 -1.07067,1.0707 -1.07066,0.5353 -0.53533,0.5353 -1.606,0.5354 -0.53533,1.0706 -0.53533,1.0707 -1.07066,1.606 -0.53534,1.0706 h -0.53533 l -0.53533,0.5354 -0.53533,0.5353 h -0.53533 l -0.53534,-0.5353 -1.07066,-0.5354 h -0.53533 -0.53533 v 0.5354 0.5353 l -0.53534,0.5353 h -1.07066 l -2.14133,-0.5353 h -2.67666 l -1.07066,0.5353 h -1.07066 l -0.53534,-1.606 h 0.53534 v -0.5353 -1.0706 l -1.606,-1.606 -1.07066,-0.5354 h -0.53534 -0.53533 -1.07066 -0.53533 l -1.07067,0.5354 -0.53533,-0.5354 -1.60599,-0.5353 -1.07067,-0.5353 h -1.60599 -0.53534 -1.07066 -1.07066 -0.53534 l -1.07066,0.5353 v -0.5353 h -0.53533 l -0.53533,-0.5354 h -1.07067 -0.53533 -0.53533 l -0.53533,0.5354 0.53533,0.5353 -0.53533,0.5353 v 0.5354 l -0.53533,0.5353 h -1.07067 l -0.53533,0.5353 h -0.53533 l -1.07067,0.5354 -0.53533,0.5353 -0.53533,-0.5353 h -0.53533 l -0.53533,-0.5354 -0.53534,-0.5353 h -0.53533 -0.53533 l -0.53533,-0.5353 -0.53533,-0.5354 v -0.5353 l -0.53534,-1.606 0.53534,-1.0707 v -0.5353 l -0.53534,-0.5353 -0.53533,-0.5354 h -0.53533 -0.53533 l -0.53533,0.5354 h -0.53533 -0.53534 v -0.5354 -0.5353 -0.5353 -0.5354 -0.5353 l -0.53533,-0.5353 v -0.5354 h -0.53533 l -0.53533,0.5354 h -0.53533 l -0.53534,0.5353 h -0.53533 -0.53533 -1.07066 -0.53534 -1.07066 l -1.07066,0.5353 -0.53534,0.5354 -0.53533,0.5353 h -0.53533 -0.53533 l -0.53533,-0.5353 h -0.53533 -0.53534 -0.53533 v -0.5354 l -0.53533,-1.0706 v -1.0707 -0.5353 l -0.53533,-0.5353 h -0.53533 -1.07067 -0.53533 l -1.07066,-0.5354 h -1.07067 l -0.53533,-0.5353 v -0.5353 -0.5354 l -0.53533,-0.5353 h -0.53533 l -0.53534,-1.0707 -0.53533,-1.0706 -1.07066,-1.0707 -1.07066,-0.5353 -0.53534,-1.0707 -0.53533,-0.5353 h -0.53533 l -0.53533,0.5353 v -0.5353 h -0.53533 l -0.53534,-0.5354 h -1.07066 l -1.07066,-0.5353 h -1.07067 v -0.5353 h -0.53533 v -0.5354 -0.5353 -0.5353 h -0.53533 -1.07067 l -1.07066,-1.606 v -0.5353 h 0.53533 0.53533 0.53534 v -0.5354 -0.5353 -0.5353 l -0.53534,-0.5354 -0.53533,-0.5353 h -0.53533 -0.53533 -0.53533 -0.53533 v 1.0707 1.0706 1.0707 l -0.53534,0.5353 -1.07066,1.0707 -2.14133,-0.5354 -2.67666,-1.0706 -3.74732,-1.606 -3.74732,-1.606 -3.74733,-0.5353 h -3.21199 l -1.606,1.0706 -3.74732,0.5354 -3.74732,1.606 -1.606,1.6059 -1.60599,1.0707 -0.53534,1.606 -0.53533,1.0707 -0.53533,0.5353 -1.07066,-0.5353 h -0.53533 -1.07067 l -1.60599,1.0706 -1.606,0.5354 h -1.07066 -0.535336 v 0.5353 l -0.535331,0.5353 -0.535332,1.0707 h -0.535332 v 0.5353 0.5354 0.5353 0.5353 h -0.535332 -0.535332 l -0.535332,0.5354 h -0.535332 l -0.535332,0.5353 H 94.753747 93.683084 93.147752 92.61242 92.077088 91.541756 91.006424 90.471092 89.93576 89.400428 88.865096 v 0.5353 0.5354 l -0.535332,0.5353 h -0.535331 l -1.070664,1.0706 h -0.535332 l -0.535332,0.5354 h 0.535332 v 0.5353 l -0.535332,0.5353 h -0.535332 v 0.5354 l -0.535332,0.5353 0.535332,0.5353 -0.535332,0.5354 0.535332,0.5353 v 0.5353 0.5354 h -0.535332 -0.535332 v 0.5353 h -1.070664 l -0.535332,0.5353 h -0.535331 v 0.5354 0.5353 l -0.535332,0.5353 h -0.535332 -1.605996 -1.070664 l -0.535332,0.5354 h -1.070663 -0.535332 -0.535332 -0.535332 v 0.5353 h -0.535332 v 0.5353 h -0.535332 -0.535332 -0.535332 v 0.5354 h -0.535332 -1.605995 l -4.282656,-0.5354 -2.676659,0.5354 -1.070664,2.1413 -0.535332,3.212 v 0.5353 0.5353 h -0.535332 v 0.5354 h -0.535332 -0.535332 -0.535332 v 0.5353 l -1.070663,1.0707 h -0.535332 v 1.0706 0.5354 0.5353 h -0.535332 -0.535332 l -0.535332,0.5353 -0.535332,0.5354 -0.535332,0.5353 h -0.535332 l -0.535332,0.5353 -0.535332,0.5353 -1.070663,0.5354 -1.605996,1.0706 -0.535332,1.0707 -0.535332,1.0707 -0.535332,0.5353 -0.535332,0.5353 h -0.535332 -0.535331 l -0.535332,1.0707 v 0.5353 0.5354 0.5353 1.0707 l 0.535332,0.5353 0.535331,0.5353 -0.535331,1.0707 -0.535332,0.5353 -0.535332,0.5354 v 0.5353 l -0.535332,0.5353 h -0.535332 l -0.535332,0.5353 v 0.5354 H 44.96788 44.432548 43.897216 l -1.070664,0.5353 h -0.535331 v 0.5353 0.5354 l -0.535332,0.5353 v 0.5353 1.0707 0.5353 l -0.535332,0.5354 -0.535332,0.5353 h 0.535332 l 0.535332,0.5353 v 0.5354 h 0.535332 0.535331 v 0.5353 l -0.535331,-0.5353 v 0.5353 l -0.535332,-0.5353 v 0.5353 h -0.535332 v 0.5353 h 0.535332 l -0.535332,0.5354 -0.535332,0.5353 v 0.5353 h -0.535332 v 0.5354 h 0.535332 0.535332 0.535332 v 0.5353 h -0.535332 v 0.5353 0.5353 h 0.535332 0.535332 v 0.5354 0.5353 l -0.535332,0.5353 v -0.5353 h -0.535332 v 0.5353 l 0.535332,0.5354 0.535332,0.5353 v 1.0707 1.0706 0.5354 h -0.535332 l -0.535332,0.5353 v 0.5353 h 0.535332 v 0.5354 0.5353 0.5353 h 0.535332 v 0.5354 h -0.535332 -0.535332 -0.535332 v 0.5353 l -0.535332,0.5353 -0.535332,0.5354 v 0.5353 0.5353 0.5354 l -0.535332,0.5353 v 0.5353 0.5353 h -0.535332 -0.535332 v -0.5353 h -0.535332 l -0.535332,-0.5353 H 36.40257 35.331906 34.796574 34.261242 l -0.535332,-0.5353 h -0.535332 -0.535332 -0.535332 l -0.535332,0.5353 -0.535331,0.5353 h -0.535332 l -0.535332,-0.5353 h -0.535332 v -0.5353 l -0.535332,-0.5354 h -0.535332 l -1.070664,-0.5353 -0.535332,-0.5353 -0.535332,-0.5354 H 25.695931 25.1606 24.625268 24.089936 23.554604 23.019272 22.48394 21.413276 20.877944 l -0.535332,0.5354 h -0.535331 -0.535332 l -0.535332,-0.5354 -0.535332,0.5354 h -0.535332 l -0.535332,0.5353 h -0.535332 v 0.5353 h -0.535332 v 0.5354 h 0.535332 v 0.5353 h -0.535332 v 0.5353 h 0.535332 v 0.5353 0.5354 l 0.535332,0.5353 v 0.5353 0.5354 0.5353 0.5353 0.5354 0.5353 l -0.535332,0.5353 v 0.5354 h -0.535332 -0.535332 l -0.535332,-0.5354 v -0.5353 l -0.535332,-0.5353 H 13.91863 13.383298 v -0.5354 h -0.535332 -0.535332 -0.535332 l -0.535332,-0.5353 H 10.706638 10.171306 9.6359743 9.1006424 8.5653105 8.0299786 v 0.5353 l -0.5353319,0.5354 v 0.5353 0.5353 1.606 0.5354 0.5353 0.5353 0.5354 l -0.5353319,0.5353 v 0.5353 0.5354 1.0706 0.5353 0.5354 0.5353 0.5353 0.5354 H 6.4239829 L 5.888651,1245.7173 H 5.3533191 l -0.5353319,-0.5353 -1.0706639,-0.5353 v -0.5354 H 3.2119914 v -0.5353 H 2.6766595 1.6059957 l -0.5353319,0.5353 h 0.5353319 v 0.5354 l 0.5353319,0.5353 0.5353319,1.0707 0.535332,1.606 v 0.5353 0.5353 0.5354 1.0706 l -0.535332,0.5354 v 0.5353 l -0.5353319,1.0707 -1.0706638,1.606 -0.53533189,1.0706 L 0,1255.8887 v 0.5353 1.0706 l 0.53533191,1.0707 H 1.0706638 v 0.5353 h 0.5353319 2.1413277 l 1.0706638,0.5354 h 0.5353319 l 0.5353319,0.5353 v 0.5353 1.606 l 0.5353319,1.0707 0.5353319,1.0707 0.5353319,1.0706 v 1.0707 l 1.0706638,0.5353 0.5353319,0.5354 1.0706636,1.0706 0.535332,1.0707 v 0.5353 l 0.535332,0.5353 2.67666,2.6767 0.535331,0.5353 h 1.605996 l 3.747324,0.5354 h 0.535331 0.535332 v 0.5353 0.5353 0.5354 l -0.535332,2.1413 v 0.5353 0.5354 h 0.535332 l 1.070664,0.5353 1.605996,0.5353 h 1.070664 1.070663 0.535332 0.535332 1.070664 0.535332 v 0.5354 h 0.535332 l 1.605996,1.0706 1.605995,0.5353 h 1.070664 l 1.605996,1.0707 h 1.605996 l 0.535331,0.5353 v 0.5354 l 0.535332,0.5353 v 0.5353 l 0.535332,0.5354 0.535332,0.5353 h 0.535332 l 2.141328,1.0707 h 1.070664 l 0.535331,0.5353 h 0.535332 l 0.535332,0.5353 0.535332,1.0707 h 0.535332 0.535332 0.535332 l 0.535332,-0.5353 h 1.070664 0.535332 0.535331 l 1.070664,-0.5354 0.535332,-0.5353 1.605996,-0.5353 h 1.070664 1.070663 l 1.070664,0.5353 1.605996,0.5353 h 1.070664 l 0.535332,0.5354 v 0.5353 l -0.535332,0.5353 v 0.5354 l 0.535332,0.5353 h 0.535332 1.070663 0.535332 v -0.5353 h -0.535332 l -0.535331,-0.5354 v -0.5353 l 0.535331,-0.5353 h 1.070664 l 0.535332,-0.5354 h 0.535332 0.535332 v -0.5353 l 1.070664,-1.0707 1.605996,-0.5353 1.605995,-0.5353 v 0.5353 h 0.535332 v -0.5353 l 0.535332,-0.5354 h 0.535332 0.535332 1.070664 0.535332 0.535331 0.535332 l 0.535332,-0.5353 v -0.5353 h 0.535332 l 0.535332,-0.5354 h 1.070664 0.535332 v -0.5353 h 0.535332 l 1.070664,-1.0707 1.070663,-2.1413 0.535332,-0.5353 0.535332,-0.5353 h 0.535332 v -1.0707 -0.5353 -0.5354 H 78.69379 v -0.5353 -0.5353 l 0.535332,-0.5354 h 1.070664 l 0.535332,-0.5353 h 1.070664 l 1.070663,0.5353 1.605996,0.5354 1.070664,0.5353 0.535332,0.5353 0.535332,0.5354 0.535332,0.5353 h 0.535332 l 1.605995,0.5353 0.535332,0.5354 0.535332,0.5353 h 0.535332 v 0.5353 l -0.535332,0.5354 v 0.5353 0.5353 l 0.535332,0.5353 h 0.535332 0.535332 l 2.141327,-0.5353 2.67666,-0.5353 h 1.070664 0.535332 l 0.535332,0.5353 0.535331,1.0707 0.535336,0.5353 h 0.53533 0.53533 l 0.53533,-0.5353 1.07067,-0.5354 h 0.53533 0.53533 1.07066 1.07067 l 0.53533,0.5354 h 0.53533 l 0.53533,0.5353 h 0.53533 1.07067 l 1.07066,-0.5353 h 1.07067 l 0.53533,-0.5354 v -0.5353 h 0.53533 0.53533 v -0.5353 h 0.53533 0.53534 l 1.07066,-0.5353 2.14133,-2.6767 1.60599,-1.606 v -0.5353 l 0.53533,-0.5354 v -0.5353 l 1.07067,-0.5353 h 0.53533 l 0.53533,-0.5354 h 1.07067 0.53533 0.53533 0.53533 0.53533 l 0.53534,0.5354 h 0.53533 l 0.53533,0.5353 h 0.53533 v 0.5353 0.5354 l -0.53533,1.0706 v 0.5354 0.5353 l -1.07066,1.0707 -0.53534,0.5353 H 124.197 l -0.53533,0.5353 h -0.53533 l -0.53533,0.5354 v 0.5353 l 1.07066,1.0706 v 0.5354 0.5353 l 0.53533,1.0707 v 0.5353 h 1.07067 l 2.67666,0.5353 2.14132,0.5354 1.606,1.0706 3.74732,1.606 3.74733,1.606 6.95931,2.6767 2.67666,0.5353 h 2.67666 3.21199 l 5.88865,0.5353 h 4.81799 l 3.21199,-1.0706 1.606,-0.5353 1.60599,-2.1414 h 0.53533 l 0.53534,-0.5353 h 0.53533 0.53533 0.53533 v 0.5353 h 0.53533 v 0.5354 0.5353 0.5353 l 0.53534,1.0707 1.60599,1.0706 5.35332,4.2827 3.21199,2.1413 4.81799,3.7474 3.74732,3.7473 4.28266,5.3533 0.53533,0.5353 1.60599,1.0707 0.53534,0.5353 0.53533,0.5354 v 0.5353 0.5353 l -0.53533,1.0707 0.53533,1.0706 -0.53533,1.0707 v 0.5353 h 0.53533 0.53533 v 0.5354 l 0.53533,0.5353 0.53533,0.5353 0.53534,0.5354 h 0.53533 0.53533 l 0.53533,1.0706 v 0.5354 0.5353 0.5353 l 0.53533,0.5354 v 1.0706 l -0.53533,0.5354 h 0.53533 l 0.53534,1.0706 1.07066,1.0707 h 0.53533 0.53533 v 0.5353 h -0.53533 -0.53533 v 0.5353 0.5354 l 0.53533,0.5353 h 0.53533 v -0.5353 h 1.07067 v 0.5353 l 0.53533,0.5353 v 1.0707 l 1.07066,0.5353 0.53533,0.5354 v 0.5353 0.5353 h 0.53534 v 0.5354 h 0.53533 0.53533 l 0.53533,0.5353 0.53533,0.5353 0.53534,0.5354 0.53533,0.5353 v 0.5353 0.5354 h 0.53533 l 1.07066,0.5353 0.53534,0.5353 h -0.53534 -0.53533 v 0.5354 h 0.53533 l 1.606,1.0706 h 0.53533 l 1.07067,0.5354 v 0.5353 h -0.53534 -0.53533 v 0.5353 h 0.53533 l 0.53534,0.5353 h 1.60599 0.53533 0.53533 0.53534 l 1.60599,1.0707 h 0.53533 0.53534 l 0.53533,0.5353 h -0.53533 v 0.5354 0.5353 0.5353 h 0.53533 0.53533 0.53533 v 0.5354 0.5353 0.5353 h -0.53533 -0.53533 v 0.5354 h 0.53533 v 0.5353 h 0.53533 0.53533 l 0.53534,-0.5353 h 1.60599 0.53533 l 0.53534,-0.5354 h 0.53533 0.53533 0.53533 0.53533 v -0.5353 0.5353 0.5354 0.5353 0.5353 l 0.53533,0.5354 h 0.53534 l 0.53533,0.5353 v 1.0707 1.0706 0.5354 h 0.53533 v 0.5353 h 0.53533 l 0.53533,0.5353 h 0.53534 0.53533 l 0.53533,0.5353 h 0.53533 0.53533 v -0.5353 h -0.53533 -0.53533 l -0.53533,-0.5353 h 0.53533 v -0.5353 h 0.53533 0.53533 0.53534 1.07066 1.07066 0.53534 v 0.5353 h -0.53534 -0.53533 -0.53533 -0.53533 v 0.5353 0.5353 h 0.53533 l 0.53533,0.5354 0.53533,0.5353 1.07067,1.606 1.07066,0.5353 0.53533,0.5354 0.53533,0.5353 1.07067,0.5353 v -0.5353 h 0.53533 v 0.5353 h 0.53533 l 0.53533,0.5354 v 0.5353 h 0.53534 v 0.5353 h 0.53533 v 0.5354 0.5353 l 0.53533,0.5353 -0.53533,1.0707 0.53533,0.5353 v 0.5354 0.5353 l -0.53533,1.0707 h -0.53533 -0.53534 -0.53533 -0.53533 l -0.53533,0.5353 h 0.53533 v 0.5353 h 0.53533 0.53533 v 0.5353 l -0.53533,0.5354 h -0.53533 -0.53533 -0.53533 l -0.53534,0.5353 v 1.0707 h 0.53534 0.53533 0.53533 0.53533 v 0.5353 0.5353 0.5354 h -0.53533 v 0.5353 0.5353 l -0.53533,0.5354 v 0.5353 l 0.53533,0.5353 v -0.5353 h 0.53533 0.53533 0.53534 l 0.53533,0.5353 v 0.5354 h -0.53533 l -0.53534,0.5353 v 0.5353 0.5354 0.5353 h 0.53534 v 0.5353 H 250 v 0.5354 l 0.53533,0.5353 v 0.5353 h 0.53533 l 1.07067,0.5353 v 0.5354 h 0.53533 l 0.53533,0.5353 v 0.5353 h 0.53533 l 0.53534,0.5354 h 0.53533 0.53533 l 0.53533,0.5353 v 0.5353 l 0.53533,0.5354 0.53533,0.5353 1.606,2.1413 v 0.5354 l 0.53533,0.5353 1.07067,0.5353 v 0.5354 h 0.53533 l 0.53533,0.5353 v 0.5353 0.5354 l 0.53533,0.5353 0.53533,1.0707 0.53534,1.0706 v 0.5353 0.5354 h 0.53533 l 0.53533,0.5353 v 0.5353 h 1.07066 0.53534 l 1.60599,-0.5353 h 0.53533 v -0.5353 -0.5354 -0.5353 h 0.53533 0.53534 0.53533 l 1.07066,1.606 0.53533,0.5353 1.07067,0.5354 0.53533,0.5353 0.53533,0.5353 0.53533,0.5354 h 0.53534 1.07066 l 1.606,-0.5354 1.07066,0.5354 h 0.53533 l 0.53533,0.5353 v 0.5353 l 0.53533,1.0707 v 0.5353 h 0.53534 l 0.53533,-0.5353 v -0.5353 l 0.53533,-0.5354 v -0.5353 h 0.53533 l 0.53533,-0.5353 h 0.53534 3.21199 v -0.5354 h 0.53533 v -0.5353 h 0.53533 0.53533 l 0.53534,0.5353 0.53533,0.5354 1.07066,0.5353 h 0.53533 l 0.53533,0.5353 h 0.53534 1.07066 v -0.5353 -0.5353 h 0.53533 l 0.53533,-0.5354 0.53534,-0.5353 h 0.53533 l 0.53533,-0.5353 -0.53533,-0.5354 -1.07067,-0.5353 -2.14132,-1.0707 -0.53534,-0.5353 h -0.53533 -0.53533 -0.53533 l -0.53533,-0.5353 v -0.5353 l 0.53533,-0.5354 0.53533,-0.5353 1.606,-0.5353 v -0.5354 l 0.53533,-0.5353 v -0.5353 -0.5354 h 0.53533 0.53533 l 0.53533,-0.5353 h 0.53534 l 0.53533,-0.5353 h 0.53533 v -0.5354 l 0.53533,-0.5353 h 0.53533 l 1.07067,-0.5353 h 0.53533 l 0.53533,0.5353 h 0.53533 l 1.07067,1.606 0.53533,0.5353 1.07066,0.5354 1.07067,0.5353 1.07066,0.5353 1.07066,1.0707 0.53534,0.5353 v 0.5354 0.5353 l -0.53534,0.5353 v 0.5353 0.5354 0.5353 h 0.53534 l 0.53533,0.5353 0.53533,-0.5353 0.53533,-0.5353 0.53533,-0.5354 v -0.5353 -0.5353 l 0.53534,-0.5353 h 0.53533 0.53533 0.53533 l 1.07067,-0.5354 h 1.07066 0.53533 l 0.53533,0.5354 0.53533,0.5353 0.53534,0.5353 v 0.5353 l -0.53534,0.5354 -0.53533,1.0706 v 1.0707 l -0.53533,1.606 v 1.0707 1.0706 l 0.53533,1.606 0.53533,1.0707 0.53534,0.5353 1.07066,0.5354 h 1.07066 0.53534 l 0.53533,-0.5354 0.53533,-0.5353 h 0.53533 l 1.07067,-1.0707 0.53533,-1.0706 1.60599,-0.5354 v -0.5353 l 1.07067,-1.0707 h 0.53533 0.53533 0.53533 v 0.5354 0.5353 l -1.07066,1.0707 0.53533,1.0706 v 0.5354 h 0.53533 v 0.5353 l 0.53533,0.5353 h 0.53534 0.53533 l 0.53533,-0.5353 0.53533,-1.0707 0.53533,-1.0706 v -1.606 l 0.53534,-1.0707 0.53533,-1.0707 v -0.5353 l 0.53533,-0.5353 v -0.5354 l 0.53533,-1.0706 0.53533,-0.5354 0.53534,-0.5353 0.53533,-0.5353 1.07066,-1.0707 0.53533,-0.5353 h 0.53534 l 0.53533,-0.5353 h 0.53533 l 0.53533,0.5353 h 0.53533 l 0.53533,0.5353 0.53534,0.5354 h 0.53533 l 0.53533,-0.5354 0.53533,-0.5353 1.07067,-0.5353 0.53533,-0.5354 1.60599,-1.0706 0.53534,-0.5354 1.07066,-0.5353 h 0.53533 0.53533 v 0.5353 l 0.53534,1.606 h 0.53533 v 0.5354 l 0.53533,0.5353 0.53533,0.5353 h 0.53533 0.53533 v 0.5354 0.5353 0.5353 0.5353 l -0.53533,0.5354 v 0.5353 0.5353 l 0.53533,0.5354 h 1.07067 l 1.07066,-1.0707 0.53533,-0.5353 0.53534,-0.5354 h 1.07066 0.53533 0.53533 0.53534 0.53533 l 1.07066,-1.0706 1.07067,-0.5353 0.53533,-0.5354 1.07066,-0.5353 1.07066,-0.5353 h 0.53534 0.53533 0.53533 0.53533 0.53533 0.53534 0.53533 l 0.53533,-0.5354 0.53533,-0.5353 0.53533,-0.5353 h 0.53534 l 0.53533,-0.5354 h 0.53533 l 0.53533,0.5354 2.14133,0.5353 v 0.5353 h 0.53533 l 0.53533,0.5354 h 0.53533 0.53534 v 0.5353 h 0.53533 l 0.53533,-0.5353 v -0.5354 -0.5353 -0.5353 -0.5354 -0.5353 -0.5353 -1.0707 h 0.53533 1.07067 1.07066 l 0.53533,0.5353 h 1.07067 l 0.53533,0.5354 0.53533,-0.5354 h 0.53533 l 1.07067,-0.5353 h 1.07066 l 1.606,-0.5353 h 0.53533 0.53533 0.53533 l 1.07066,-1.0707 0.53534,-0.5353 0.53533,-0.5354 h 1.07066 v -0.5353 h 0.53533 v -0.5353 l 0.53534,-0.5354 h 0.53533 0.53533 v 0.5354 0.5353 0.5353 l 0.53533,1.0707 0.53533,1.0707 v 0.5353 l 0.53534,0.5353 1.07066,0.5354 h 1.07066 l 1.07067,0.5353 h 0.53533 l 0.53533,0.5353 0.53533,0.5354 0.53533,1.0706 0.53534,0.5354 1.07066,0.5353 h 0.53533 1.606 0.53533 0.53533 l 0.53533,0.5353 h 0.53534 v 0.5354 l 0.53533,0.5353 1.07066,1.0706 h 1.606 l 0.53533,0.5354 0.53533,0.5353 v 1.0707 l 0.53533,1.0706 v 0.5354 h 1.07067 l 0.53533,0.5353 0.53533,0.5353 2.14133,1.0707 0.53533,0.5353 0.53533,0.5354 v 1.0706 l 1.606,2.1414 0.53533,0.5353 0.53533,0.5353 0.53533,0.5353 1.07067,-0.5353 h 1.07066 1.07066 1.606 0.53533 1.07067 0.53533 l 0.53533,0.5353 0.53533,0.5354 0.53533,0.5353 1.07067,0.5353 0.53533,0.5354 0.53533,0.5353 1.07067,1.606 -0.53534,0.5353 v 0.5354 0.5353 l -0.53533,0.5353 v 0.5354 0.5353 l -0.53533,1.606 0.53533,2.1413 v 0.5354 h 0.53533 1.07067 l 1.60599,0.5353 1.07067,0.5353 h 0.53533 l 0.53533,-0.5353 v -0.5353 -0.5354 h 0.53533 0.53533 l 0.53534,1.0707 v 0.5353 1.0707 l -0.53534,1.606 -0.53533,1.0706 -2.14133,4.2827 v 0.5353 l 0.53534,0.5354 h 0.53533 l 1.07066,-0.5354 h 0.53533 v -1.0706 h 0.53534 0.53533 l 0.53533,0.5353 0.53533,0.5353 0.53533,0.5354 h 0.53534 v 0.5353 h 0.53533 v 0.5353 h 0.53533 l 0.53533,0.5354 h 0.53533 l 0.53534,0.5353 h 0.53533 v 0.5353 h 0.53533 v 0.5353 l 0.53533,0.5354 v 1.0706 l 0.53533,0.5354 v 1.0706 l 0.53533,0.5354 v 0.5353 h 0.53534 l 1.07066,0.5353 0.53533,0.5354 v 0.5353 l 0.53533,1.0707 v 0.5353 0.5353 h -0.53533 v 0.5354 1.0706 l -0.53533,1.0707 v 1.0706 l -0.53533,1.606 v 0.5354 l -0.53533,0.5353 -0.53534,1.0707 -1.07066,0.5353 -1.07066,2.1413 v 0.5354 h -0.53533 -0.53534 l -0.53533,1.0706 0.53533,0.5354 1.07067,4.2826 0.53533,1.0707 0.53533,0.5353 h 0.53533 v 0.5353 1.0707 1.0707 0.5353 l 0.53533,0.5353 h 0.53534 0.53533 v -0.5353 -0.5353 -0.5354 l -0.53533,-0.5353 v -0.5353 -0.5354 h 0.53533 v -0.5353 h 0.53533 0.53533 l 1.07067,0.5353 0.53533,0.5354 0.53533,0.5353 v 0.5353 0.5354 0.5353 l -0.53533,2.1413 v 1.0707 1.0707 l 0.53533,0.5353 0.53533,0.5353 0.53533,0.5354 0.53534,0.5353 0.53533,0.5353 0.53533,0.5353 0.53533,0.5354 h -0.53533 v 0.5353 0.5353 h 0.53533 v 0.5354 0.5353 0.5353 0.5354 0.5353 h 0.53533 0.53534 v -0.5353 l 0.53533,-1.0707 h 0.53533 0.53533 0.53533 l 0.53533,0.5353 v 0.5354 0.5353 0.5353 h 0.53534 0.53533 l 0.53533,0.5354 h 0.53533 v 0.5353 0.5353 0.5354 0.5353 0.5353 0.5354 0.5353 h 0.53533 v 0.5353 0.5354 0.5353 l 1.07067,-0.5353 h 1.07066 0.53533 0.53534 0.53533 v 0.5353 0.5353 0.5354 0.5353 l 0.53533,0.5353 0.53533,0.5353 h 0.53533 1.07067 0.53533 l 0.53533,0.5354 v 0.5353 l 0.53533,0.5353 v 0.5354 l -0.53533,0.5353 -0.53533,0.5353 h -0.53533 v 0.5354 h 0.53533 0.53533 v 0.5353 0.5353 0.5354 l 0.53533,1.0706 v 0.5354 h 1.07067 0.53533 v -1.0707 l 0.53533,-0.5353 h -0.53533 l -0.53533,-0.5354 v -0.5353 -0.5353 h 0.53533 v -0.5354 h 0.53533 v 0.5354 l 0.53533,0.5353 v 0.5353 l 0.53533,0.5354 h 0.53534 l 0.53533,0.5353 h 0.53533 0.53533 l 0.53533,-0.5353 h -0.53533 v -0.5354 -0.5353 h -0.53533 v -0.5353 l 0.53533,-0.5354 0.53533,0.5354 0.53534,0.5353 v -0.5353 h 0.53533 l 0.53533,-0.5354 0.53533,-0.5353 h 0.53533 0.53534 l -0.53534,0.5353 v 0.5354 h 0.53534 0.53533 0.53533 v 0.5353 h 0.53533 0.53533 v -0.5353 -0.5354 h 0.53533 l 0.53534,0.5354 h 0.53533 l 1.07066,-0.5354 h 0.53533 0.53534 0.53533 v 0.5354 l 0.53533,0.5353 0.53533,1.0707 h 0.53533 v 0.5353 0.5353 h 0.53534 0.53533 l 0.53533,-0.5353 h 0.53533 v 0.5353 0.5354 0.5353 l 0.53533,0.5353 0.53534,0.5354 h 0.53533 1.07071 1.07061 0.53534 1.07071 l 1.07061,0.5353 v 0.5353 l 0.53534,0.5354 h 0.53533 l 1.07066,0.5353 1.07067,0.5353 0.53533,0.5353 0.53533,0.5354 0.53533,0.5353 1.07067,0.5353 1.07066,0.5354 1.07066,0.5353 0.53533,1.0707 v 0.5353 1.0707 l -0.53533,0.5353 -0.53533,0.5353 v 1.0707 0.5353 l 1.07066,0.5354 1.606,0.5353 h 1.07066 1.07067 1.60599 l 1.07067,0.5353 h 1.07066 1.07067 l 2.14132,0.5354 h 1.07067 l 1.07066,0.5353 0.53533,0.5353 v 0.5354 l -0.53533,1.0706 v 0.5353 0.5354 l 0.53533,0.5353 h 0.53533 1.07067 1.07066 0.53533 l 1.07067,-0.5353 h 0.53533 0.53533 1.07067 l 1.07066,-0.5354 0.53533,-0.5353 h 0.53533 0.53533 0.53534 l 0.53533,0.5353 0.53533,0.5354 v 0.5353 0.5353 l 0.53533,0.5354 v 0.5353 l 1.07067,0.5353 v 0.5354 h -0.53534 l -0.53533,0.5353 v 0.5353 l 1.07067,0.5354 0.53533,1.0706 1.07066,0.5354 h 0.53533 l 0.53534,-1.0707 1.60599,-0.5353 1.07067,-2.6767 v -0.5353 l -2.14133,-0.5354 -0.53533,-0.5353 -0.53534,-1.606 -1.07066,-1.0706 0.53533,-0.5354 2.67666,-1.0706 1.606,1.0706 v -3.7473 l 3.21199,-2.6767 4.81799,-1.0706 5.35331,-0.5354 9.10065,9.636 5.35332,-13.3833 5.35332,4.818 10.70663,11.242 h 16.05996 l 29.97859,-21.4133 13.3833,16.06 h 16.05995 l 56.20985,-21.4133 21.94861,10.7066 5.35332,18.7366 16.05996,5.3534 -5.35332,-13.3833 18.73661,-21.4133 -16.59528,-23.5546 5.88865,-34.2613 23.5546,-11.7773 46.03854,-24.6252 -5.35332,-42.8266 70.12848,-27.302 29.44326,5.8887 2.67666,-27.3019 13.3833,-2.6767 4.28265,-5.3533 -1.07066,-4.2827 0.53533,-2.6766 v -5.3534 l -1.07066,-1.606 -2.67666,-1.0706 -4.28266,-8.5653 -1.07066,-3.7474 -0.53533,-1.6059 -1.606,-9.1007 1.606,-4.818 2.14132,-4.818 2.67666,-3.7473 1.07067,-1.606 0.53533,-2.1413 1.07066,-1.606 1.606,-1.606 7.49464,-2.1413 3.74733,-1.0707 h 1.60599 l 1.07067,-0.5353 0.53533,-0.5354 v -0.5353 l 0.53533,-0.5353 0.53533,-0.5354 v -0.5353 -0.5353 l 0.53534,-0.5353 h -0.53534 v -0.5354 l 1.07067,-0.5353 1.07066,-0.5353 0.53533,-1.0707 0.53533,-1.0707 v -1.0706 -0.5354 l 1.606,-2.1413 v -1.606 l 2.67666,-2.6767 2.14133,-0.5353 2.67666,-1.606 2.14132,-1.0706 1.07067,-1.606 2.67666,-1.0707 1.07066,-0.5353 0.53533,-0.5354 h 0.53534 l 1.07066,-0.5353 h 0.53533 l 0.53533,-0.5353 0.53534,0.5353 h 0.53533 0.53533 1.07066 0.53533 l 0.53534,-0.5353 h 0.53533 0.53533 l 2.14133,-5.3533 1.60599,-0.5354 -0.53533,-0.5353 v -0.5353 l 0.53533,-0.5354 v -0.5353 l 1.07067,-0.5353 v -1.0707 l 0.53533,-4.2827 v -2.1413 l -1.07066,-2.6766 -1.07067,-3.7474 -3.74732,-5.3533 -2.14133,-3.7473 -0.53533,-2.1413 0.53533,-1.606 v -0.5354 l 2.14133,-2.6766 3.74732,-3.7473 6.95932,-3.7474 1.60599,-1.606 3.74733,-6.424 6.42398,-4.8179 1.60599,-2.1414 1.07067,-1.606 0.53533,-3.7473 -27.83726,-5.3533 -0.53533,-2.1413 -1.07066,-2.1414 -2.67666,-3.7473 -1.07067,-1.0706 -0.53533,-0.5354 -1.07066,-2.1413 -1.07067,-3.7473 -0.53533,-2.6767 -1.07066,-3.212 v -2.1413 l -0.53534,-1.0707 -0.53533,-1.0706 -1.07066,-1.0707 -0.53533,-1.0707 -1.07067,-1.0706 -2.14132,-1.0707 -1.07067,-0.5353 v -0.5354 l -0.53533,-0.5353 h -0.53533 l -0.53533,-0.5353 v -0.5354 l -0.53534,-0.5353 -0.53533,-0.5353 -0.53533,0.5353 -1.07066,-0.5353 h -0.53534 v -0.5353 -0.5354 -0.5353 -0.5353 l -0.53533,-0.5354 h -1.07066 -0.53533 l -1.07067,-0.5353 h -0.53533 l -0.53533,-1.0707 -0.53533,-0.5353 -0.53533,-0.5353 -0.53534,-0.5354 -0.53533,0.5354 h -0.53533 -0.53533 v -0.5354 l -0.53533,-0.5353 v -0.5353 h -1.07067 -0.53533 l -0.53533,-0.5354 v -0.5353 l -0.53533,-0.5353 -0.53534,-0.5354 h -1.07066 -0.53533 -0.53533 v -0.5353 l -0.53533,-0.5353 v -0.5354 l 0.53533,-0.5353 v -0.5353 l -0.53533,-0.5353 -0.53534,-1.0707 v -1.0707 -1.0706 l -0.53533,-1.0707 0.53533,-0.5353 -0.53533,-1.0707 v -1.0707 l -0.53533,-0.5353 -0.53533,-0.5353 h -1.07067 v -0.5354 l -0.53533,-0.5353 0.53533,-0.5353 v -1.606 l -0.53533,-0.5354 -1.60599,-1.0706 -1.07067,-0.5353 -1.07066,-1.0707 -1.07067,-0.5353 -0.53533,-0.5354 v -0.5353 -0.5353 -0.5354 l -0.53533,-0.5353 h -0.53533 -0.53533 l -1.07067,-0.5353 h -0.53533 l -0.53533,-0.5354 -0.53533,-0.5353 v -1.0707 l -0.53533,-0.5353 -0.53534,-0.5353 -1.07066,0.5353 -0.53533,0.5353 h -1.07067 l -0.53533,-1.0706 0.53533,-0.5354 -0.53533,-0.5353 -0.53533,-0.5353 h -0.53533 -0.53533 l -0.53534,-0.5354 -0.53533,-0.5353 v -1.0706 -0.5354 -0.5353 -0.5353 l -0.53533,-0.5354 h -0.53533 v 0.5354 h -0.53533 -0.53533 l -0.53534,0.5353 -0.53533,0.5353 h -0.53533 l -0.53533,0.5354 -0.53533,0.5353 h -0.53534 l -0.53533,-0.5353 v -0.5354 -0.5353 h -1.07066 -0.53533 l -0.53534,-0.5353 v -0.5354 -0.5353 l 0.53534,-0.5353 v -0.5354 l -0.53534,-0.5353 v -0.5353 h -0.53533 v 0.5353 l -0.53533,0.5353 -1.07066,1.0707 v 0.5353 0.5354 l -0.53534,0.5353 h -0.53533 l -0.53533,0.5353 v 0.5354 h -0.53533 v 0.5353 0.5353 l -1.07066,1.0707 -1.606,0.5353 -0.53533,0.5353 -0.53533,0.5354 h -0.53534 v 0.5353 0 z"
      data-name="Jardim Santa Felícia" id="jardim_santa_felicia" />
   <path class="neighborhood"
      d="m 258.56552,1162.7409 h 0.53534 l 0.53533,0.5353 h 0.53533 l 0.53533,0.5354 0.53533,0.5353 0.53534,0.5353 0.53533,1.0707 v 0.5353 0.5354 0.5353 2.1413 l -0.53533,1.0707 v 1.0706 l 0.53533,1.0707 v 1.606 0.5353 0.5354 0.5353 0.5353 l 0.53533,0.5354 1.07066,1.0706 1.07067,0.5354 1.60599,0.5353 0.53534,0.5353 0.53533,0.5354 h 1.07066 0.53533 l 0.53533,0.5353 -0.53533,0.5353 -0.53533,0.5353 v 0.5354 0.5353 l 0.53533,0.5353 h 0.53533 1.606 l 1.606,-0.5353 h 1.07066 0.53533 1.07067 l 0.53533,0.5353 h 0.53533 1.07066 0.53534 l 0.53533,0.5354 h 0.53533 v 0.5353 h 0.53533 0.53533 l 0.53533,0.5353 h 0.53534 0.53533 v -0.5353 -0.5353 l 0.53533,-0.5354 h 0.53533 0.53533 1.07067 l 0.53533,0.5354 0.53533,0.5353 0.53533,0.5353 v 0.5354 l 0.53534,0.5353 h 0.53533 l 1.07066,-0.5353 0.53533,-0.5354 0.53534,-0.5353 0.53533,-0.5353 h 0.53533 l 0.53533,-0.5354 h 1.07066 0.53534 1.07066 l 0.53533,-0.5353 0.53533,-0.5353 v -0.5354 l 0.53534,-0.5353 0.53533,-0.5353 h 0.53533 l 0.53533,-0.5353 v -0.5354 h 0.53533 v -0.5353 l 0.53534,-0.5353 0.53533,0.5353 v 0.5353 l 0.53533,0.5354 h 0.53533 l 0.53533,-0.5354 v -0.5353 h 0.53534 0.53533 l 0.53533,0.5353 h 0.53533 0.53533 l 0.53533,0.5354 h 0.53534 0.53533 0.53533 v -0.5354 l 0.53533,-0.5353 0.53533,-0.5353 h 0.53534 0.53533 v 0.5353 h 0.53533 l 0.53533,0.5353 0.53533,0.5354 v 0.5353 l 0.53534,0.5353 v 1.0707 0.5353 l -0.53534,0.5353 v 1.0707 1.0707 l -1.07066,1.606 v 0.5353 l 1.606,0.5353 h 1.07066 l 0.53533,0.5354 1.606,0.5353 h 1.07066 0.53533 l 2.14133,1.0707 4.28266,1.0706 h 0.53533 l 0.53533,0.5354 0.53533,0.5353 0.53533,0.5353 h 1.07067 1.07066 1.07066 l 0.53534,-0.5353 0.53533,-0.5353 v -1.0707 l -0.53533,-0.5353 0.53533,-0.5354 0.53533,-0.5353 h 0.53533 0.53533 0.53534 1.07066 l 0.53533,-0.5353 v -0.5354 l 0.53533,-0.5353 v -0.5353 l 0.53534,-1.0707 0.53533,-0.5353 0.53533,-0.5354 0.53533,-0.5353 v -0.5353 h 0.53533 0.53534 0.53533 l 0.53533,0.5353 0.53533,0.5353 0.53533,0.5354 h 0.53533 l 0.53534,-0.5354 v -0.5353 l -0.53534,-0.5353 -0.53533,-0.5354 v -0.5353 l 0.53533,-0.5353 0.53534,-0.5354 0.53533,-0.5353 0.53533,-0.5353 3.74732,-2.1413 0.53534,-0.5354 h 0.53533 l 0.53533,0.5354 v 0.5353 l 1.07066,0.5353 0.53534,0.5354 h 0.53533 l 0.53533,1.0706 0.53533,0.5353 h 1.07066 l 0.53534,0.5354 0.53533,0.5353 0.53533,0.5353 2.14133,0.5354 0.53533,0.5353 h 1.07066 l 1.07067,-0.5353 h 1.07066 l 1.07067,-0.5354 h 0.53533 v -0.5353 l 0.53533,-1.0707 0.53533,-0.5353 1.07066,-0.5353 0.53534,-0.5353 0.53533,-1.606 0.53533,-1.0707 0.53533,-0.5353 h 0.53533 1.07067 0.53533 1.07066 l 0.53534,0.5353 0.53533,0.5353 v 0.5354 h 0.53533 l 0.53533,-0.5354 0.53533,-0.5353 v -0.5353 l 0.53534,-1.0707 0.53533,-1.0707 0.53533,-0.5353 0.53533,-0.5353 0.53533,-0.5354 1.07067,-0.5353 1.07066,-0.5353 0.53533,0.5353 h 0.53533 0.53534 1.07066 0.53533 0.53533 0.53534 0.53533 v -0.5353 l 0.53533,-0.5354 v -0.5353 l 0.53533,-1.0707 0.53533,-0.5353 v -0.5353 l 0.53534,-0.5353 0.53533,-0.5354 0.53533,-0.5353 h 0.53533 0.53533 l -0.53533,-0.5353 -0.53533,-0.5354 h -0.53533 l -0.53533,-0.5353 v -0.5353 l 1.07066,-0.5354 h 0.53533 l 1.07066,-0.5353 v -0.5353 l 0.53534,-0.5354 h 0.53533 v -0.5353 h 0.53533 l 0.53533,-0.5353 0.53533,-0.5354 h 0.53534 v 0.5354 0.5353 0.5353 h 0.53533 l 0.53533,0.5354 h 0.53533 l 1.07067,0.5353 h 1.07066 l 0.53533,0.5353 h 1.07067 0.53533 0.53533 l 1.07066,0.5354 h 1.606 l 1.07066,0.5353 h 0.53533 0.53534 l 0.53533,-0.5353 h 0.53533 0.53533 0.53533 v 0.5353 h 0.53534 v 0.5353 l 0.53533,0.5354 v 0.5353 h 0.53533 v 0.5353 h 0.53533 l 0.53533,-0.5353 0.53534,-0.5353 v 0.5353 l 0.53533,0.5353 v 0.5354 0.5353 l 0.53533,0.5353 v 0.5353 0.5354 l 0.53533,0.5353 v 0.5353 l 0.53533,0.5354 v 0.5353 l 0.53533,0.5353 v 0.5354 h 0.53534 v 0.5353 l 0.53533,0.5353 v 0.5354 h 0.53533 0.53533 v 0.5353 h 0.53533 v 0.5353 h 0.53534 v 0.5354 h 0.53533 v 0.5353 0.5353 l 0.53533,1.0707 0.53533,0.5353 v 0.5354 l 0.53533,0.5353 v 0.5353 1.0707 1.0706 l -0.53533,1.606 v 1.606 l 0.53533,1.0707 0.53534,1.606 1.07066,2.6767 0.53533,1.0706 0.53533,1.606 0.53534,1.0707 1.07066,1.0706 0.53533,1.0707 1.07066,1.0707 v 1.0706 l 0.53534,0.5354 0.53533,1.0706 v 1.0707 l 0.53533,0.5353 1.07066,0.5354 0.53534,0.5353 v 0.5353 0.5354 0.5353 l 0.53533,0.5353 0.53533,0.5353 h 0.53533 v 0.5354 0.5353 h 0.53533 v 0.5353 0.5354 h 0.53534 v 0.5353 -0.5353 h 0.53533 v 0.5353 0.5353 h 0.53533 v 0.5354 h 0.53533 v 0.5353 0.5353 0.5354 0.5353 h 0.53533 l -0.53533,0.5353 v -0.5353 0.5353 0.5354 h 0.53533 l 0.53534,0.5353 0.53533,0.5353 v 0.5354 h 0.53533 v 0.5353 h 0.53533 v 0.5353 0.5354 0.5353 0.5353 l 0.53533,1.0707 v 0.5353 l 0.53533,0.5353 h 0.53534 v 0.5354 h 0.53533 v 0.5353 h 0.53533 v 0.5353 0.5354 h -0.53533 l 0.53533,0.5353 v 0.5353 h 0.53533 0.53533 v 0.5354 h 0.53534 l 0.53533,0.5353 h 0.53533 v 0.5353 0.5354 h 0.53533 l 0.53533,0.5353 h 0.53534 0.53533 v 0.5353 l 0.53533,0.5354 v 0.5353 h 0.53533 0.53533 0.53534 v 0.5353 -0.5353 0.5353 h 0.53533 v 0.5354 l 0.53533,0.5353 v 0.5353 h 0.53533 v 0.5354 h 0.53533 l 0.53533,0.5353 1.606,1.0706 h 0.53533 v 0.5354 0.5353 h -0.53533 l 0.53533,0.5353 -0.53533,0.5354 h 0.53533 v 0.5353 h 0.53533 -0.53533 0.53533 v 0.5353 h 0.53534 v 0.5354 h 0.53533 v 0.5353 h 0.53533 0.53533 v 0.5353 h 0.53533 0.53534 0.53533 v 0.5354 h 0.53533 0.53533 0.53533 v 0.5353 h 0.53534 v 0.5353 h 0.53533 l 0.53533,0.5354 v 0.5353 h 0.53533 v 0.5353 h 0.53533 0.53533 v 0.5354 h 0.53534 0.53533 0.53533 v 0.5353 h 0.53533 -0.53533 v 0.5353 0.5354 h 0.53533 v 0.5353 h 0.53533 v 0.5353 h 0.53534 v -0.5353 l 0.53533,0.5353 h 0.53533 v 0.5353 0.5354 h 0.53533 0.53533 0.53534 l 0.53533,0.5353 h 0.53533 0.53533 v 0.5353 h 0.53533 0.53534 v 0.5354 l 0.53533,-0.5354 v 0.5354 l 0.53533,-0.5354 h 0.53533 v 0.5354 l 0.53533,0.5353 v -0.5353 0.5353 h 0.53534 v 0.5353 h 0.53533 v 0.5354 h 0.53533 v 0.5353 0.5353 l 0.53533,0.5354 h 0.53533 V 1250 l 0.53533,0.5353 v 1.0707 l 1.606,1.606 1.07066,0.5353 1.07072,0.5354 h 1.07061 1.07067 0.53533 v 0.5353 l 1.60594,1.606 0.53533,1.0706 2.14133,1.0707 1.60599,0.5353 0.53534,1.0707 0.53533,0.5353 v 0.5354 0.5353 h 0.53533 v 0.5353 1.0707 h 0.53533 0.53533 l 0.53534,0.5353 h 0.53533 0.53533 v 0.5354 0.5353 h 0.53533 v 0.5353 h 0.53533 l 1.07067,0.5354 v 0.5353 h 0.53533 l 0.53533,0.5353 v 0.5354 0.5353 h 0.53533 1.07067 l 2.14132,0.5353 0.53534,0.5353 0.53533,0.5354 h 0.53533 1.07056 v 0.5353 l 3.21199,1.606 4.81799,1.0707 h 0.53533 l 2.67666,4.818 3.21199,4.8179 2.67666,3.212 0.53533,1.606 1.07061,2.6767 0.53533,1.606 1.606,2.1413 1.60599,1.0707 1.07067,1.0706 1.07066,1.606 1.606,0.5354 1.07066,1.0706 1.07072,1.606 0.53533,2.1414 0.53533,0.5353 1.07067,0.5353 h 0.53533 l 0.53533,1.0707 0.53533,0.5353 1.07067,1.606 0.53533,1.606 1.07061,0.5353 v 1.606 l 0.53533,1.0707 0.53533,0.5353 1.07067,1.0707 1.07066,1.0707 2.67666,3.212 2.67667,2.1413 3.74737,3.212 3.74726,3.212 10.17131,7.4946 3.74732,2.1413 2.67666,0.5354 h 3.74738 l 7.49459,-0.5354 1.07067,-1.0706 3.74732,-4.818 1.606,-2.1413 1.60599,-1.0707 1.606,-2.1413 1.07066,-2.1414 4.81799,-10.1713 0.53533,-0.5353 1.07066,-1.606 0.53534,-0.5353 1.60605,-0.5354 0.53533,-0.5353 h 1.07066 l 2.67666,-1.0707 2.67666,-1.0706 h 0.53533 0.53533 l 1.07067,-0.5353 1.60599,-0.5354 2.14133,-0.5353 h 8.02998 l -6.95931,-16.06 -8.56531,-8.0299 -1.606,-1.606 -3.74732,-2.1414 -8.02998,-8.5653 -3.21199,-8.03 -2.14133,-5.3533 -1.07067,-4.2826 -0.53533,-1.606 -1.07066,-2.1414 -5.35332,-16.0599 -2.14133,-5.8887 -3.74732,-11.2419 -2.14133,-5.8887 -0.53533,-2.1413 -2.14133,-5.8887 -0.53533,-2.1413 -0.53533,-1.606 -1.07067,-2.6767 -1.60599,-3.2119 v -0.5354 l -1.606,-2.6766 -4.28265,-5.3534 -6.42399,-8.5653 -0.53533,0.5354 -1.07066,1.0706 -1.07066,2.1414 -1.606,1.606 -1.60599,-0.5354 -2.14133,1.0707 -2.67666,1.0707 -1.07067,1.0706 -1.60599,-0.5353 -4.28266,-0.5353 -3.21199,-0.5354 -2.67666,-0.5353 -2.14133,-0.5353 -2.14132,-0.5354 h -1.606 l -0.53533,-0.5353 -1.07067,-1.0707 -1.07066,-2.1413 -4.81799,-6.9593 -1.60599,-2.6767 -3.74733,-5.3533 -6.95931,-9.1006 v -0.5354 l -4.28266,-5.8886 -1.07066,-1.606 -4.28266,-6.424 v -0.5353 -1.0707 l 1.07067,-1.606 0.53533,-2.1413 -0.53533,-1.606 -1.606,-1.0707 -3.21199,-1.606 -1.60599,-1.0706 -3.74733,-1.606 -0.53533,-0.5354 -1.07066,-1.606 -2.67666,-1.0706 -1.07067,-1.0707 -1.60599,-1.0706 -3.74733,-2.1414 -1.07061,-1.0706 -0.53533,-1.606 -1.6061,-1.606 -1.07056,-1.0707 -1.6061,-1.0707 -2.14133,-1.0706 -1.60589,-1.606 -2.14143,-3.212 -0.53533,-0.5353 -1.606,-1.606 -0.53533,-2.1414 -1.606,-2.1413 -1.07066,-1.606 -0.53533,-1.0707 v -1.0706 -0.5353 l -1.07067,-1.0707 -0.53533,-0.5353 v -0.5354 l -0.53533,-1.0706 -0.53533,-0.5354 -0.53533,-1.606 -0.53534,-1.0706 -0.53533,-1.0707 v -0.5353 l -0.53533,-0.5354 -0.53533,-0.5353 -0.53533,-1.0707 -0.53533,-0.5353 -2.67666,-2.6766 -2.14133,-1.606 -1.07067,-1.606 -1.07066,-1.606 -0.53533,-1.0707 v -2.1413 l 1.07066,-2.6767 0.53533,-1.606 0.53534,-1.0706 v -1.0707 l 0.53533,-0.5353 0.53533,-1.606 v -1.0707 -0.5353 l 0.53533,-1.0707 v -1.0707 -0.5353 -0.5353 -0.5354 l -0.53533,-11.7773 v -3.2119 -3.212 h -1.07066 l -1.606,-0.5354 -2.14133,0.5354 h -0.53533 -0.53533 -0.53533 l -0.53533,0.5353 h -0.53534 -0.53533 -0.53533 l -1.07066,-0.5353 h -0.53534 -1.07066 l -0.53533,-0.5354 h -1.07067 -0.53533 -0.53533 -1.07066 l -0.53534,0.5354 h -0.53533 -1.07066 l -1.07066,0.5353 h -0.53534 l -1.07066,0.5353 -1.07066,0.5354 h -1.07067 l -0.53533,0.5353 -5.88865,2.1413 -3.74732,1.0707 -6.95932,3.7473 -3.21199,0.5353 -1.606,1.606 h -2.67666 l -3.21199,0.5354 -3.21199,0.5353 h -3.21199 l -5.88865,-0.5353 h -6.95932 l -3.21199,-0.5354 -2.67666,-1.0706 -2.14132,-0.5354 -2.14133,-0.5353 -5.35332,-1.0707 -2.67666,-1.0706 -1.606,-0.5354 -2.67666,-1.606 -2.14132,-0.5353 -3.212,-1.0706 -3.74732,2.6766 -4.28265,6.424 v 0.5353 l -1.606,1.606 -1.07066,4.818 -2.14133,1.606 -5.35332,3.7473 -3.21199,5.3533 -1.606,0.5354 -2.14132,1.606 -0.53534,1.0706 -2.14132,3.212 -2.14133,3.7474 -0.53533,1.0706 v 0.5353 l 0.53533,0.5354 h 0.53533 l -0.53533,1.0706 1.60599,5.3534 -0.53533,0.5353 -0.53533,3.212 -1.606,2.1413 -0.53533,0.5353 -2.14133,2.6767 -1.07066,1.0707 0.53533,3.212 -0.53533,2.6766 -2.14133,2.1413 -2.67666,1.606 -0.53533,1.606 -1.60599,2.1414 -1.07067,1.606 h -0.53533 -0.53533 -1.07067 l -0.53533,-0.5354 h -0.53533 -0.53533 l -1.606,0.5354 v 0.5353 1.0707 l -8.02998,4.2826 -0.53533,1.0707 h -0.53533 l -4.81799,3.7473 -0.53533,0.5353 -1.07066,0.5354 h -0.53533 l -1.07067,0.5353 -1.07066,1.0707 -1.07067,1.606 v 0.5353 1.0707 l -1.07066,1.6059 v 0.5354 h -0.53533 -0.53533 -0.53533 l -0.53534,0.5353 v 0.5353 l -1.07066,2.6767 -0.53533,0.5353 v 0.5354 0.5353 l 0.53533,0.5353 -0.53533,0.5354 v 0.5353 l -0.53533,0.5353 v 0.5354 h -0.53534 v 0.5353 0.5353 0.5354 h -0.53533 l -0.53533,0.5353 v 0.5353 h -0.53533 v 0.5354 0.5353 0.5353 l -0.53533,0.5353 v 0.5354 0.5353 h -0.53534 v 0.5353 l 0.53534,0.5354 h -0.53534 v 0.5353 l -0.53533,0.5353 v 0.5354 l -1.07066,1.0706 -0.53533,0.5354 v 0.5353 0.5353 h 0.53533 v 0.5354 0.5353 0.5353 l -0.53533,0.5354 v 0.5353 l 1.07066,3.212 v 0.5353 l -0.53533,0.5353 0.53533,0.5354 v 0.5353 0.5353 0.5354 0.5353 h -0.53533 v 0.5353 h -0.53533 v 0.5354 h 0.53533 l 0.53533,0.5353 v 0 z"
      data-name="Bela Vista São-Carlense" id="bela_vista_sao-carlense" />
   <path class="neighborhood"
      d="m 899.8932,1064.7752 v -0.5354 h 0.53533 l 0.53534,-0.5353 0.53533,-0.5353 1.60599,-0.5354 1.07067,-1.0706 v -0.5354 -0.5353 h 0.53533 v -0.5353 l 0.53533,-0.5354 h 0.53533 l 0.53533,-0.5353 v -0.5353 -0.5354 l 1.07067,-1.0706 0.53533,-0.5353 v -0.5354 -1.606 -1.0706 l -0.53533,-1.0707 0.53533,-1.0707 1.07066,-0.5353 0.53534,-0.5353 v -0.5354 -0.5353 -1.0707 l 0.53533,-1.0706 0.53533,-1.0707 -0.53533,-1.0707 -0.53533,-0.5353 -0.53534,-1.0706 0.53534,-0.5354 v -1.606 -0.5353 l -0.53534,-0.5353 v -0.5354 l -0.53533,-0.5353 v -0.5353 -0.5354 h 0.53533 v -1.0706 -0.5354 -0.5353 -0.5353 l -0.53533,-1.606 v -1.0707 l 1.606,-0.5353 v -1.606 l 1.07066,-0.5353 1.606,-0.5354 1.60599,-1.606 0.53533,-0.5353 0.53534,-2.1413 1.07066,-1.0707 0.53533,-1.0707 v -0.5353 -1.606 l -0.53533,-1.0707 v -1.0706 l 0.53533,-1.0707 h 0.53533 v -1.606 l 0.53534,-1.0706 0.53533,-0.5354 0.53533,-1.0706 1.07066,-0.5354 1.07067,-0.5353 h 0.53533 1.07066 v -0.5353 -0.5354 -0.5353 l -0.53533,-0.5353 v -1.0707 -0.5353 -0.5354 -0.5353 -1.0706 -1.0707 l 0.53533,-1.0707 0.53534,-1.606 0.53533,-1.606 v -2.1413 l 0.53533,-2.14132 0.53533,-1.606 0.53533,-1.60599 0.53533,-1.606 0.53534,-1.606 0.53533,-1.07066 -0.53533,-0.53533 -0.53534,-0.53533 -0.53533,-1.07067 -0.53533,-1.07066 0.53533,-1.07067 v -1.07066 l -0.53533,-1.07066 -1.07066,-1.606 -1.606,-2.14133 -0.53533,-2.14132 1.07066,-3.74733 0.53534,-1.60599 0.53533,-3.21199 v -1.07067 -0.53533 l 1.60599,-4.28266 1.07067,-4.28265 0.53533,-2.14133 v -1.60599 -0.53534 l -0.53533,-1.07066 -1.07067,-2.14133 -0.53533,-1.60599 -1.07066,-1.606 -1.07067,-2.14133 -0.53533,-1.60599 -0.53533,-0.53533 -1.606,-4.28266 -0.53533,-2.14133 -0.53533,-0.53533 0.53533,-2.14133 -0.53533,-2.67666 -1.07066,-1.60599 -2.67666,-1.07067 -1.07067,-2.67665 -0.53533,-1.07067 -0.53533,-1.60599 -2.14133,-1.606 -0.53533,-0.53533 -0.53533,-1.07067 -0.53533,-1.07066 v -1.07066 l -0.53534,-1.07067 v -1.07066 l -0.53533,-1.07066 -0.53533,-1.07067 -0.53533,-1.07066 v -1.07067 l 0.53533,-3.21199 v -1.07066 -2.14133 l -1.07066,-1.07066 v -2.14133 l -2.14133,-3.21199 v -1.07067 l 0.53533,-4.81798 v -2.14133 -2.67666 l -1.07066,-2.14133 v -2.67666 -0.53533 -0.53533 -1.606 l -0.53534,-1.07066 -0.53533,-1.07066 V 875.803 l -0.53533,-1.606 v -2.14133 l -0.53533,-2.67666 v -2.14132 -1.606 l -0.53533,-0.53533 h -0.53533 -0.53534 l -1.07066,0.53533 v 0.53533 l -0.53533,0.53534 h -1.07067 -0.53533 l -0.53533,1.07066 h -1.07066 l -0.53534,-1.07066 -1.60599,0.53533 h -0.53533 l -2.67666,-0.53533 -129.55038,28.37259 h -0.53533 l -2.14133,2.67666 -2.14132,1.60599 -1.07067,1.07067 -2.14133,1.07066 -0.53533,0.53533 h -0.53533 l -1.07066,1.07067 -1.606,2.14132 -1.606,1.606 -1.60594,1.07066 -1.07071,0.53533 -0.53534,1.07067 -1.60599,1.60599 -1.07067,1.606 -1.07061,0.53533 h -1.07071 l -1.60595,1.07067 -0.53533,0.53533 h -0.53533 l -0.53533,0.53533 v 1.07066 l -0.53533,0.53533 -0.53534,1.606 -1.60604,1.07066 -2.14133,1.606 -0.53533,1.07066 -1.07061,1.07067 -1.60605,1.07066 -0.53534,0.53533 -0.53533,0.53534 h -0.53533 -0.53533 l -1.07067,0.53533 -0.53533,1.07066 v 0.53533 l -0.53533,1.07067 0.53533,0.53533 0.53533,0.53533 v 0.53533 l -0.53533,0.53533 h -0.53533 l -0.53533,-0.53533 v -0.53533 h -0.53533 l -1.07061,1.07066 v 0.53534 0.53533 l -0.53534,0.53533 h -0.53533 -1.07066 -0.53533 -0.53533 l -0.53534,1.07066 v 1.07067 l -0.53533,1.07066 -1.60599,1.07067 -0.53534,1.07066 v 1.07066 0.53533 h -1.07066 -0.53533 l -0.53533,0.53534 -1.07067,0.53533 h -1.07055 v 0.53533 1.07066 l -1.07078,0.53534 -0.53533,0.53533 v 0.53533 l -0.53533,0.53533 -0.53533,1.606 h -1.07066 -0.53534 v 0.53533 l -1.07066,0.53533 v 0.53533 l -1.606,-0.53533 h -0.53533 -0.53533 -1.07072 l -0.53533,0.53533 -1.07061,1.606 -0.53533,0.53533 -1.07067,0.53533 -1.07055,1.07067 v 0.53533 l -0.53533,-0.53533 h -1.07067 l -1.07061,-0.53534 h -0.53533 l -1.07066,0.53534 -0.53534,0.53533 -0.53533,0.53533 h -0.53533 -0.53533 l -1.07067,-0.53533 -0.53533,-0.53533 h -2.14138 l -0.53533,-0.53534 h -2.14133 -1.60599 l -1.07067,0.53534 -1.07066,0.53533 -1.07066,0.53533 -0.53534,1.07066 v 0.53534 1.07066 l -0.53533,1.07066 -1.6061,2.14133 -1.07056,1.606 -1.07077,1.60599 -1.07066,1.606 -0.53533,0.53533 -1.07072,2.14133 -1.07067,1.07066 -0.53533,0.53533 -1.07072,0.53534 -2.14132,1.07066 -6.42399,2.67666 -1.60599,0.53533 -0.53533,0.53533 h -1.07067 -1.60599 l -1.60595,0.53533 -1.07071,0.53534 -1.60594,0.53533 -1.07072,0.53533 -1.07067,0.53533 -1.07066,0.53533 -0.53533,1.07067 v 0.53533 l -1.07067,1.606 -1.60599,2.14132 -1.07066,1.07067 -2.14133,4.81798 -1.07061,1.07067 -0.53533,2.14133 -1.07067,1.60599 -2.67666,1.606 v 1.07066 2.14133 l -1.07061,4.28269 -1.60605,5.8886 v 1.0707 l 0.53533,0.5353 0.53534,0.5353 -2.14128,1.606 -1.07072,2.1414 -2.14132,1.0706 -1.606,1.606 -1.07066,3.212 -1.606,2.6767 -5.8886,4.818 -1.60604,1.0706 -1.606,1.606 h 0.53533 l -2.14138,3.212 -1.606,1.606 v 1.0707 l -1.07066,1.606 -0.53533,1.606 -2.14133,2.1413 -0.53533,-0.5353 h -0.53533 l -0.53533,1.0706 -1.07067,1.606 -2.14133,1.606 -2.67666,3.7473 -1.07061,2.1414 -1.07071,1.0706 -1.60595,0.5354 -4.81804,-1.0707 -1.60599,0.5353 h -2.14133 v 2.1414 1.0706 1.0707 1.606 l 0.53533,1.606 v 2.1413 l 0.53533,1.606 v 1.606 l 0.53534,2.1413 v 2.1414 h -1.07067 l 2.67666,4.8179 0.53533,5.3534 0.53534,1.0706 0.53533,2.1413 1.60599,2.1414 1.07067,3.7473 v 2.1413 l 0.53533,0.5354 4.81799,3.7473 -2.14133,4.818 h -0.53533 l -0.53533,1.606 v 0.5353 l -1.07062,2.1413 -0.53533,1.606 -1.07066,2.6767 -0.53533,0.5353 v 0.5353 l -0.53533,0.5354 v 0.5353 l -0.53534,0.5353 -1.07066,2.1414 h -0.53533 v 0.5353 0.5353 h -0.53533 v 0.5354 h -0.53534 l -1.07066,1.0706 v -0.5353 h -1.07061 l -0.53533,-0.5353 h -0.53533 l -1.07067,-1.0707 -2.14133,-1.606 h -0.53533 v -0.5353 l -0.53533,-0.5354 -1.07072,-0.5353 -0.53533,-0.5353 -1.07061,1.606 -1.07072,1.606 v 0.5353 l -0.53533,0.5353 -0.53533,1.0707 v 0.5353 l -0.53533,0.5354 -1.07072,2.1413 -1.07066,2.6766 -0.53533,1.0707 h -0.53534 v 1.0707 0.5353 h 0.53534 v 1.0707 1.0706 2.6767 2.1413 2.1413 0.5354 h 2.67665 v 1.606 h 0.53534 0.53533 0.53533 0.53533 0.53533 2.14122 l 3.2121,-0.5354 h 2.14122 1.07067 l 1.60599,0.5354 h 0.53534 v 0.5353 0.5353 0.5354 l 0.53533,2.6766 v 1.0707 l -1.07067,4.2827 -0.53533,4.2826 1.606,0.5353 0.53533,0.5354 h 1.6061 l 1.07056,-0.5354 v -0.5353 l 0.53533,-0.5353 v -1.0707 l 1.07077,-1.606 0.53533,-0.5353 1.07067,-0.5353 v -0.5354 l 0.53533,-0.5353 1.60599,-1.0707 2.14133,-1.0706 h 1.606 2.14133 1.07071 1.07061 l 2.67666,0.5353 2.14133,0.5353 3.74732,0.5354 h 3.212 l 1.07066,-0.5354 0.53533,-0.5353 1.07066,-1.606 1.606,-0.5353 1.07066,-2.1414 h 0.53534 l 0.53533,-0.5353 0.53533,-0.5353 1.07066,-0.5354 h 2.67666 l 2.14133,0.5354 4.28266,0.5353 8.02997,0.5353 h 0.53534 l 3.21199,1.606 3.21199,1.606 5.35332,5.3533 0.53533,1.606 1.07066,5.3534 2.14133,6.4239 2.14133,3.7474 1.07066,2.1413 2.14133,2.1413 4.81799,3.212 5.35332,2.6767 3.21199,1.0706 3.74732,0.5354 h 3.74733 l 3.21199,-0.5354 3.74732,-2.1413 3.74732,-1.0707 h 1.606 1.07066 l 2.14133,0.5354 3.74732,-1.606 h 3.212 l 3.21199,-1.606 h 1.60599 l 5.88865,-3.7473 6.42399,-2.1414 6.95931,-2.1413 h 4.28266 l 4.81798,-2.1413 2.14133,-6.424 1.606,-4.818 0.53533,-3.212 0.53533,-2.1413 v -3.7473 l 0.53533,-3.212 -0.53533,-4.2827 1.07066,-2.6766 v -6.9594 -1.0706 -0.5353 l 3.212,-1.606 0.53533,-1.0707 v -1.606 l 2.14133,-2.1413 0.53533,-2.1414 0.53533,-0.5353 2.67666,-1.0707 1.07066,-0.5353 0.53533,-1.606 v -2.6766 -0.5354 l 1.07067,-1.0706 1.07072,-0.5354 1.60594,-1.0706 3.74737,0.5353 2.14128,-0.5353 2.14133,-1.606 3.21199,-1.606 v 1.0706 l 0.53533,0.5354 1.07056,0.5353 0.53533,1.0707 0.53533,1.0706 -0.53533,2.6767 v 3.212 l 0.53533,1.606 0.53533,1.0706 0.53533,2.1414 0.53534,1.606 v 0.5353 l 0.53533,1.0707 1.60599,2.6766 1.606,2.6767 0.53533,1.0706 1.07061,1.0707 0.53533,1.0707 0.53534,0.5353 0.53533,0.5353 v 0.5354 l 0.53533,0.5353 h 0.53533 l 0.53533,0.5353 1.07072,0.5354 v 1.0706 0.5354 l 1.07061,1.0706 v 0.5354 l 0.53533,1.0706 0.53533,0.5353 1.07067,1.0707 v 0.5353 l 0.53533,1.606 0.53533,0.5354 1.07072,1.0706 1.07061,0.5354 h 0.53533 l 2.14133,0.5353 h 1.60605 l 1.07061,-0.5353 0.53533,0.5353 h 1.07072 l 1.07061,0.5353 v 0.5354 h 0.53533 l 1.07072,1.0706 1.07061,0.5354 1.07072,1.606 1.60599,1.0706 0.53533,0.5354 1.606,1.6059 h 1.07066 1.606 l 1.60599,-0.5353 1.606,-0.5353 1.07066,0.5353 h 0.53534 l 1.07066,1.0707 1.07066,1.606 h 1.606 l 1.07066,0.5353 v 0.5353 l 0.53533,1.0707 0.53534,0.5353 1.60599,1.0707 h 1.07067 1.07066 l 0.53533,-0.5353 h 0.53533 0.53534 l 1.07066,1.0706 1.07066,0.5354 h 1.606 1.60599 l 1.07067,-0.5354 h 1.60599 0.53534 1.07066 1.07066 l 1.07067,-0.5353 0.53533,0.5353 2.14133,-0.5353 1.07066,0.5353 h 0.53533 1.07067 0.53533 l 1.07066,0.5354 h 1.606 1.07066 1.07067 1.07066 1.07066 0.53533 l 0.53534,-0.5354 1.07066,-1.606 v -3.212 -3.2119 l 0.53533,-2.1414 v -0.5353 l 0.53533,-2.6767 v -1.0706 l 0.53534,-3.212 0.53533,-2.6767 0.53533,-1.606 1.07066,-1.606 0.53534,-2.1413 0.53533,-3.212 v -1.606 l 3.74732,-4.2826 2.14133,1.606 3.74732,3.7473 1.606,1.0706 h 0.53533 l 0.53533,-0.5353 1.07067,-1.0707 1.07066,-2.1413 -0.53533,-1.606 -0.53533,-1.0706 -2.14133,-3.212 v -3.7474 -2.1413 -4.2826 -0.5354 -0.5353 h -0.53533 l 1.60599,-1.606 0.53533,-1.0707 1.606,-3.212 v -0.5353 l 0.53533,-1.0707 v -0.5353 l 0.53533,-0.5353 0.53533,-1.0707 0.53534,-1.0706 0.53533,-0.5354 1.07066,-1.0706 0.53533,-0.5354 0.53534,-0.5353 1.07066,-1.0707 1.07066,-1.0706 0.53534,-0.5354 1.07066,-1.0706 v -1.0707 l 0.53533,-1.0707 v -1.0706 -1.0707 l 0.53533,-0.5353 0.53534,-0.5353 0.53533,-0.5354 0.53533,-0.5353 v -1.0707 -0.5353 h 0.53533 l 0.53533,-0.5353 0.53533,-0.5354 0.53534,-1.0706 v -1.0707 -0.5353 l 0.53533,-1.0707 0.53533,-0.5353 0.53533,-0.5354 0.53533,-0.5353 0.53534,-0.5353 0.53533,-1.0707 0.53533,-1.0706 h 0.53533 l 0.53533,-1.0707 1.07067,-0.5353 h 1.07066 l 0.53533,-0.5354 0.53534,-0.5353 0.53533,-0.5353 v 0 z"
      data-name="Vila Nery" id="vila_nery" />
   <path class="neighborhood"
      d="m 673.98308,963.0621 1.07067,-1.606 1.07071,-1.60599 1.07061,-1.606 1.60605,-2.14133 0.53534,-1.07066 v -1.07066 -0.53534 l 0.53533,-1.07066 1.07066,-0.53533 1.07067,-0.53533 1.07066,-0.53534 h 1.606 2.14143 l 0.53533,0.53534 h 2.14138 l 0.53533,0.53533 1.07067,0.53533 h 0.53533 0.53533 l 0.53533,-0.53533 0.53534,-0.53533 1.07066,-0.53534 h 0.53533 l 1.07061,0.53534 h 1.07067 l 0.53533,0.53533 v -0.53533 l 1.07055,-1.07067 1.07067,-0.53533 0.53533,-0.53533 1.07061,-1.606 0.53533,-0.53533 h 1.07072 0.53533 0.53533 l 1.60611,0.53533 v -0.53533 l 1.07055,-0.53533 v -0.53533 h 0.53534 1.07077 l 0.53533,-1.606 0.53533,-0.53533 v -0.53533 l 0.53533,-0.53533 1.07072,-0.53534 v -1.07066 -0.53533 h 1.07061 l 1.07066,-0.53533 0.53534,-0.53534 h 0.53533 1.07066 v -0.53533 -1.07066 l 0.53533,-1.07066 1.606,-1.07067 0.53533,-1.07066 v -1.07067 l 0.53533,-1.07066 h 0.53533 0.53534 1.07066 0.53533 l 0.53533,-0.53533 v -0.53533 -0.53534 l 1.07056,-1.07066 h 0.53533 v 0.53533 l 0.53533,0.53533 h 0.53534 l 0.53533,-0.53533 v -0.53533 l -0.53533,-0.53533 -0.53534,-0.53533 0.53534,-1.07067 v -0.53533 l 0.53533,-1.07066 1.07066,-0.53533 h 0.53533 0.53534 l 0.53533,-0.53534 0.53533,-0.53533 1.6061,-1.07066 1.07056,-1.07067 0.53533,-1.07066 2.14133,-1.606 1.6061,-1.07066 0.53533,-1.606 0.53534,-0.53533 v -1.07066 l 0.53533,-0.53533 h 0.53533 l 0.53533,-0.53533 1.606,-1.07067 h 1.07066 l 1.07066,-0.53533 1.07067,-1.606 1.60599,-1.60599 0.53534,-1.07067 1.07066,-0.53533 1.606,-1.07066 1.60599,-1.606 1.606,-2.14132 1.07066,-1.07067 h 0.53533 l 0.53533,-0.53533 2.14133,-1.07066 1.07067,-1.07067 2.14132,-1.60599 2.14133,-2.67666 h 0.53533 l 129.55032,-28.37259 -0.53533,-0.53534 h -1.60599 l -1.07067,-0.53533 -0.53533,-1.07066 -1.606,-1.606 -1.60599,-2.14133 -2.14133,-3.21199 -1.07066,-2.14132 -0.53533,-0.53534 -0.53534,-1.07066 -1.07066,-2.67666 -0.53533,-1.606 v -11.7773 l -1.606,-5.88865 -5.35332,-4.81799 -2.67666,-2.67666 -3.21199,-2.67665 -2.14133,-2.67666 -1.60599,-1.606 -3.21199,-2.14133 -3.21199,-1.60599 -2.14133,-1.606 -1.606,-0.53533 -0.53533,-0.53533 -0.53533,-0.53533 h -0.53533 v -0.53534 h -0.53533 -0.53534 -1.07066 v 1.07067 h -1.07066 l -1.606,0.53533 -0.53533,0.53533 -1.07067,-0.53533 -0.53533,-0.53533 -0.53533,-1.07067 -1.07066,-1.07066 -1.07067,-1.606 -0.53533,-1.07066 v -1.07066 l -0.53533,-0.53534 -0.53533,-0.53533 v -1.07066 l -0.53533,-0.53533 -0.53534,-1.07067 -0.53533,-1.07066 -0.53533,-0.53533 -0.53533,-1.07067 -1.606,-1.60599 -0.53533,-0.53533 v -1.07067 -1.07066 -0.53533 -2.14133 l 0.53533,-1.606 0.53533,-2.14132 0.53534,-4.28266 -0.53534,-1.07066 -0.53533,-1.07067 -1.60599,-1.60599 -1.606,-1.606 -5.35332,-3.74732 h -0.53533 v -0.53533 l -0.53533,-0.53534 v -0.53533 h -0.53533 l 0.53533,-0.53533 -0.53533,-0.53533 h -1.07067 -2.14133 l -2.14132,-0.53533 -2.67666,-1.606 -0.53533,-1.07066 v -1.606 l -0.53534,-1.60599 -1.07066,-0.53534 -1.606,-1.07066 -1.07066,-1.07066 -1.606,-0.53534 -1.07066,-0.53533 v -0.53533 -1.606 l -0.53533,-1.07066 -0.53533,-1.606 -0.53534,-1.07066 0.53534,-2.67666 0.53533,-1.60599 1.07056,-0.53534 1.07077,-0.53533 V 750 l 0.53533,-0.53533 0.53533,-0.53533 v -1.07067 -0.53533 l 0.53533,-1.07066 v -0.53534 l 0.53533,-0.53533 v -0.53533 l 0.53534,-1.07066 h 0.53533 1.07066 l 0.53533,0.53533 0.53534,0.53533 0.53533,0.53533 0.53533,1.07067 h 1.07066 l 0.53533,-1.07067 v -0.53533 -1.07066 l 0.53534,-0.53533 v -0.53534 h 0.53533 l 0.53533,-0.53533 0.53533,-1.07066 -0.53533,-1.07067 v -0.53533 l 0.53533,-0.53533 0.53533,-1.606 -0.53533,-0.53533 v -1.07066 -0.53533 l 0.53533,-0.53534 1.07067,-0.53533 0.53533,-0.53533 0.53533,-0.53533 v -0.53533 -1.07067 -0.53533 l 0.53533,-0.53533 0.53534,-0.53533 0.53533,-1.07067 0.53533,-0.53533 v -0.53533 l 0.53533,-0.53533 -0.53533,-1.07067 0.53533,-0.53533 v -0.53533 l 0.53533,-1.07066 0.53534,-1.07067 -0.53534,-0.53533 v -1.07066 l -0.53533,-0.53533 -0.53533,-1.606 -0.53533,-0.53533 v -1.07067 -0.53533 -0.53533 -0.53533 -0.53533 l 0.53533,-0.53534 v -0.53533 -0.53533 -0.53533 l 0.53533,-0.53533 v -0.53534 l 0.53533,-1.07066 v -0.53533 -0.53533 l -0.53533,-0.53533 h -0.53533 l -0.53533,-1.07067 0.53533,-0.53533 -3.21199,-2.67666 h -1.606 l -0.53533,0.53533 -7.49465,5.35332 -4.28265,2.67666 -2.14144,0.53533 -24.62516,1.606 -2.67666,0.53533 -2.67666,1.07066 -10.70663,7.49465 -3.2121,1.07066 -6.42399,0.53534 -3.21199,2.14132 h -2.67666 l -10.1713,-0.53533 -36.9379,-3.21199 -5.88865,-1.07066 -1.07056,4.28265 -2.14144,4.81799 -1.07066,2.67666 -2.67666,1.07066 -3.74732,1.07067 h -3.21199 l -3.74733,-0.53534 -3.21199,-1.07066 -11.7773,-4.81799 -0.53533,-0.53533 v -2.67666 l -1.07072,-2.67666 -1.60594,-3.21199 -0.53533,-1.60599 -1.07067,-4.28266 -1.07055,-5.35332 -2.67666,-5.35332 -4.28277,-5.35332 -5.88865,-5.88865 -2.67666,-2.14133 -3.21188,-1.60599 -5.88876,-2.67666 -3.21199,-1.606 -4.81799,-3.21199 -6.95931,-3.21199 -2.14133,-0.53533 -3.21199,0.53533 -0.53533,-2.14133 -1.60605,-1.07066 -1.606,-2.67666 -2.14127,-1.606 -0.53533,-1.60599 -0.53534,-0.53533 -2.14132,-2.14133 -0.53534,-0.53533 -1.07066,-3.74733 -1.07066,-3.21199 -2.14122,-2.67666 -1.07078,-3.21199 -0.53533,-1.60599 -1.60599,-1.07067 -1.606,-2.14133 v -1.60599 -3.21199 -1.07067 l -1.07066,1.07067 -3.21199,4.28265 -0.53534,1.07067 -1.07055,1.60599 -1.07077,3.21199 -1.07067,0.53533 h -1.07066 -1.606 l -1.07066,-1.07066 -1.07066,1.07066 -1.07056,-0.53533 -1.07077,-0.53533 -1.60589,-2.14133 -2.67666,-1.07066 -1.07077,-1.07066 -4.28255,-1.606 -2.14143,-2.14133 -1.606,-0.53533 h -2.67666 l -5.35332,-2.14133 h -2.14133 l -2.14122,-0.53533 -2.67666,-1.60599 -2.67666,-1.606 h -1.07077 l -1.60589,0.53533 -2.14143,1.07067 -1.606,-0.53534 -2.14132,0.53534 h -1.606 l -1.60599,1.07066 h -1.07066 -2.14134 l -1.60599,-0.53533 -1.606,0.53533 -1.07066,-0.53533 -3.74732,-3.21199 -5.35332,-3.212 -2.67666,-2.14132 -3.21199,-1.606 -3.21189,-1.60599 h -1.6061 l -6.42388,2.14132 h -2.14143 l -10.70664,-1.60599 h -1.606 l -2.14132,0.53533 -1.07067,1.07066 -1.07055,1.606 -1.07078,1.07066 h -3.21199 l -1.07055,0.53533 -1.60611,2.14133 -5.35332,4.81799 -1.60599,1.07066 h -1.606 -2.14132 l -5.35327,-0.53533 h -5.35332 l -1.07061,-0.53533 -3.74738,-3.21199 -1.07066,-1.606 -0.53533,-1.60599 v -1.07067 l 0.53533,-10.70664 -1.07066,-1.60599 -1.606,-1.07067 -2.67666,-0.53533 h -3.21199 l -4.28266,1.07067 -4.28265,-0.53534 -5.88865,1.606 -5.35332,0.53533 h -3.74732 l -4.81799,1.606 -4.81799,2.14133 -12.31263,9.63597 3.74732,1.606 3.74732,3.21199 -0.53533,2.14132 v 2.67666 l 2.14133,1.606 h 3.21199 2.67666 l 2.67666,1.07066 v 1.07067 l 1.606,1.07066 h 1.07066 l 2.14133,1.606 v 1.07066 l 0.53533,0.53533 0.53533,1.606 1.606,1.60599 1.07066,0.53534 1.07066,1.07066 -0.53533,1.07066 1.07067,2.14133 1.60599,0.53533 h 1.606 l 2.67666,-0.53533 2.67666,0.53533 1.07066,0.53534 0.53533,1.07066 1.07067,0.53533 1.07066,1.07066 h 0.53533 0.53533 v 0.53534 1.07066 l 0.53534,0.53533 h 0.53533 1.07066 l -0.53533,0.53533 -0.53533,1.07067 v 0.53533 l 0.53533,0.53533 v 0.53533 1.07067 0.53533 l 0.53533,1.07066 v 0.53534 h -0.53533 v 0.53533 h 0.53533 0.53533 v 0.53533 0.53533 0.53533 l 0.53534,0.53533 v 0.53534 0.53533 0.53533 0.53533 l -0.53534,0.53533 0.53534,0.53534 h 0.53533 l -0.53533,0.53533 v 0.53533 l -1.07067,0.53533 -0.53533,0.53533 -0.53533,0.53534 v 1.07066 1.07066 l 0.53533,0.53534 -0.53533,0.53533 -0.53533,0.53533 v 0.53533 l -0.53534,0.53533 0.53534,0.53533 0.53533,0.53534 0.53533,1.60599 v 0.53533 1.606 l -0.53533,4.81799 v 3.21199 l 1.07066,1.60599 -0.53533,2.14133 -0.53533,1.07067 v 0.53533 l 1.07066,2.14133 0.53533,1.07066 0.53534,0.53533 0.53533,1.606 4.28265,8.02998 1.606,3.74732 1.60599,1.60599 1.606,1.07067 1.606,2.67666 v 2.67666 2.14132 0.53534 l -2.14133,4.28265 -2.14133,4.81799 0.53533,3.74732 2.14133,4.28266 4.28266,4.28265 1.60599,3.21199 5.8886,10.70664 -1.60589,4.81799 -3.21205,5.35332 -1.07066,5.35332 -1.60599,5.88865 -0.53534,4.28265 -1.07066,5.88865 v 0.53534 l -1.07066,3.74732 -5.35332,3.74732 -1.606,3.74733 -1.07066,1.60599 -0.53533,0.53533 -7.49465,1.07067 -4.28266,1.07066 -2.67666,2.14133 -6.95931,0.53533 -6.42398,2.14133 -5.35332,5.35332 -12.31264,7.49464 -8.02998,2.67666 h -4.28265 l 0.53533,1.606 1.07067,2.14133 -0.53534,3.21199 1.606,3.74732 3.74732,0.53533 1.07067,0.53534 h 0.53533 1.07066 l 4.28266,4.81798 4.28265,4.28266 1.07067,1.07066 v 1.07067 0.53533 1.60599 l -0.53534,0.53534 h -0.53533 v 0.53533 0.53533 h -0.53533 -0.53533 l -0.53533,0.53533 v 0.53533 h 0.53533 v 0.53534 0.53533 l 0.53533,0.53533 0.53533,0.53533 v 3.21199 l -0.53533,0.53533 3.21199,1.07067 1.606,1.07066 4.28265,0.53533 3.21199,0.53534 2.67666,1.60599 3.212,0.53533 2.14132,1.07067 2.67666,1.07066 2.14133,1.606 2.67666,0.53533 3.21199,-0.53533 h 0.53533 l 1.606,0.53533 2.67666,2.67666 0.53533,0.53533 0.53533,1.07066 1.606,1.07067 h 1.60599 l 2.67666,-0.53533 h 1.606 l 1.07066,1.60599 0.53533,1.606 4.81799,3.74732 2.14133,2.14133 1.60599,1.60599 1.07067,1.07067 1.07066,3.74732 v 3.74732 6.95932 l -1.07066,4.28265 -0.53533,2.14133 2.67666,3.21199 2.14127,3.212 1.07066,2.67665 2.67666,2.67666 1.606,2.14133 5.35332,10.70664 3.74732,2.67666 2.14133,1.07066 3.21199,0.53534 2.67666,1.07066 1.07066,1.07066 0.53534,2.14133 v 0.53533 1.606 l -0.53534,3.74732 -0.53533,0.53533 -1.07066,1.606 -1.07067,2.14133 -1.07066,0.53533 -0.53533,1.60599 -0.53533,1.07067 -0.53533,3.21199 0.53533,2.14133 -0.53533,1.07066 v 10.17131 l 0.53533,3.74732 1.60599,5.88865 2.14133,4.81799 0.53533,0.53533 1.60611,0.53533 2.14122,-1.07066 3.74732,-1.606 7.49475,-2.67666 h 0.53533 l 0.53534,-1.07066 h 1.07066 0.53533 1.07067 0.53533 1.07066 1.07067 0.53533 1.60599 l 1.606,0.53533 0.53533,0.53533 0.53533,0.53534 0.53533,0.53533 0.53534,0.53533 1.07071,0.53533 h 0.53534 l 1.07066,0.53533 1.07072,0.53533 0.53533,0.53534 h 0.53533 l 0.53533,0.53533 h 0.53533 l 1.07067,0.53533 h 0.53533 0.53533 l 4.81799,-1.606 6.95942,-1.07066 0.53533,-0.53533 6.95932,-5.88865 6.42398,-5.88865 -1.07066,3.74732 1.07066,0.53533 0.53533,-0.53533 v -0.53533 h 0.53533 v -1.07067 h 0.53534 0.53533 0.53533 l 0.53533,1.07067 h 1.07067 l 0.53533,1.07066 1.07055,1.07067 0.53534,0.53533 1.07077,1.07066 1.07055,0.53533 h 0.53534 l 1.07077,0.53534 h 1.07055 1.07067 l 1.07066,1.60599 h 2.67666 l 2.67666,-2.67666 0.53533,0.53533 h 0.53533 v 0.53534 h 0.53534 1.60599 0.53533 l 0.53534,0.53533 h 0.53533 l 1.07061,0.53533 0.53533,0.53533 v 0.53533 l 1.606,1.606 h 1.07066 l 1.07072,0.53533 h 0.53533 0.53533 1.07066 l 0.53534,-0.53533 h 0.53533 l 0.53533,-0.53533 0.53533,-1.07067 1.606,-1.07066 h 0.53533 l 0.53533,-0.53533 h 0.53533 l 0.53534,-0.53533 0.53533,-0.53534 v -0.53533 l 0.53533,-0.53533 0.53533,-0.53533 1.07066,-0.53533 h 0.53534 l 0.53533,-0.53534 0.53533,-1.07066 2.67666,-1.606 h 1.07077 l 1.07056,-0.53533 1.07066,-0.53533 1.07067,-0.53533 0.53533,0.53533 h 0.53533 0.53533 l 0.53533,0.53533 1.07061,0.53533 0.53534,0.53534 1.07071,0.53533 2.67666,0.53533 0.53533,1.07066 1.07067,0.53534 h 1.07077 l 0.53533,0.53533 1.606,0.53533 0.53533,0.53533 h 1.07055 l 1.07067,0.53533 v 0.53534 l 0.53533,0.53533 0.53533,0.53533 h 1.07067 l 0.53533,1.07066 2.14133,1.07067 0.53533,1.60599 1.07066,0.53533 0.53533,0.53534 1.07067,1.07066 v 0.53533 l 1.07066,0.53533 1.07066,1.07067 h 0.53534 l 0.53533,0.53533 0.53533,0.5353 h 0.53533 l 1.07067,0.5354 0.53533,0.5353 1.07061,0.5353 0.53533,0.5354 h 1.606 l 10.17136,-1.606 1.07061,-4.28269 v -2.14133 -1.07066 l 2.67666,-1.606 1.07066,-1.60599 0.53533,-2.14133 1.07061,-1.07067 2.14133,-4.81798 1.07066,-1.07067 1.606,-2.14132 1.07066,-1.606 v -0.53533 l 0.53533,-1.07067 1.07067,-0.53533 1.07066,-0.53533 1.07072,-0.53533 1.60594,-0.53533 1.07072,-0.53534 1.60594,-0.53533 h 1.606 1.07066 l 0.53533,-0.53533 1.606,-0.53533 6.42398,-2.67666 2.14133,-1.07066 1.07072,-0.53534 0.53533,-0.53533 1.07066,-1.07066 1.07072,-2.14133 0.53533,-0.53533 v 0 z"
      data-name="Água Vermelha" id="agua_vermelha" />
   <path class="neighborhood"
      d="m 870.98528,464.13275 0.53533,0.53533 h 0.53533 v -1.07066 h 0.53533 l 0.53534,-0.53533 0.53533,-1.07067 v -0.53533 -0.53533 l 0.53533,-1.07066 h 0.53533 l 0.53533,-1.07067 v -0.53533 h 0.53534 l 0.53533,-0.53533 h 1.07066 0.53533 l 0.53534,-0.53533 -0.53534,-0.53534 v -0.53533 h 0.53534 0.53533 v -0.53533 -0.53533 h -0.53533 l -0.53534,-0.53533 v -0.53533 l 0.53534,-0.53534 0.53533,-0.53533 h 0.53533 0.53533 0.53533 l 0.53533,0.53533 v 0.53534 l 0.53534,-1.07067 v -0.53533 l 0.53533,-0.53533 h 0.53533 0.53533 v 0.53533 l 0.53533,-0.53533 0.53534,-0.53533 h 0.53533 l 0.53533,-0.53534 v -0.53533 l -0.53533,-0.53533 v -0.53533 l 0.53533,-0.53533 v -0.53534 h 0.53533 l 0.53533,-1.07066 0.53534,-0.53533 0.53533,-1.07067 0.53533,-0.53533 0.53533,-1.07066 v -0.53533 -0.53533 h 0.53533 l 0.53534,0.53533 h 0.53533 0.53533 1.07066 v -0.53533 l 0.53533,-1.07067 v -1.07066 -0.53533 l 0.53534,-0.53534 v -1.07066 -0.53533 l 0.53533,-0.53533 h 0.53533 l 0.53533,-0.53534 0.53533,-0.53533 0.53534,-0.53533 h 0.53533 0.53533 l 0.53533,0.53533 h 0.53533 l 0.53534,0.53533 h 0.53533 l 0.53533,-0.53533 v -0.53533 l -0.53533,-0.53533 v -0.53533 h 0.53533 0.53533 0.53533 l 0.53534,0.53533 h 0.53533 l 0.53533,-0.53533 v -0.53534 l -0.53533,-0.53533 h 0.53533 0.53533 l 0.53533,0.53533 h 0.53533 l 0.53534,-0.53533 -0.53534,-0.53533 v -0.53533 -0.53533 h 0.53534 l 1.07066,0.53533 h 0.53533 v -0.53533 -0.53533 h 0.53533 v -0.53534 l -0.53533,-1.07066 h 0.53533 l 0.53534,0.53533 v 1.07067 0.53533 h 1.07066 v -0.53533 -0.53534 l -0.53533,-1.07066 v -0.53533 h 0.53533 l 0.53533,-0.53533 h 0.53533 v -0.53534 l 0.53534,-0.53533 v -1.07066 h 0.53533 0.53533 v -0.53533 h 0.53533 v -0.53534 l 0.53533,-0.53533 v -0.53533 -0.53533 -0.53533 -0.53534 l 0.53534,-0.53533 0.53533,-0.53533 h 0.53533 0.53533 l 0.53533,-0.53533 v -0.53533 l 1.07067,-0.53533 h 0.53533 l 0.53533,-1.07067 -0.53533,-0.53533 v -0.53533 h -0.53533 l -0.53534,-0.53533 -0.53533,-1.07067 v -0.53533 l 0.53533,-0.53533 0.53534,-0.53533 0.53533,-0.53534 1.07066,-0.53533 0.53533,-0.53533 0.53534,-1.606 0.53533,-1.07066 0.53533,-1.07066 v -0.53533 -0.53534 -1.07066 -0.53533 -0.53533 l 0.53533,-1.07067 v -0.53533 l 0.53533,-0.53533 v -0.53533 l 0.53534,-0.53534 0.53533,-0.53533 0.53533,-0.53533 v -0.53533 l 0.53533,-0.53533 0.53533,-1.07067 0.53534,-0.53533 h 0.53533 1.07066 v -0.53533 l 0.53533,-0.53533 v -0.53533 -1.07067 h -0.53533 l -0.53533,-0.53533 v -0.53533 -1.07067 -0.53533 l 0.53533,-0.53533 0.53533,-0.53533 0.53533,-0.53533 v -1.07066 -0.53533 -0.53534 l 0.53534,-0.53533 0.53533,-0.53533 0.53533,-0.53533 -0.53533,-0.53533 h -0.53533 v -0.53534 l 0.53533,-0.53533 v -0.53533 h -0.53533 l -0.53534,-0.53533 -0.53533,-0.53533 v -0.53534 l -0.53533,-0.53533 v -0.53533 l 0.53533,-0.53533 0.53533,-0.53533 v -0.53533 -0.53534 h 0.53534 0.53533 l 0.53533,-0.53533 v -1.07066 l 0.53533,-1.07067 v -0.53533 -0.53533 l -0.53533,-1.07066 v -0.53534 -1.07066 l 0.53533,-0.53533 0.53533,-0.53533 h 1.07067 l 0.53533,-1.07067 0.53533,-0.53533 0.53533,-0.53533 0.53534,-0.53533 0.53533,-0.53533 0.53533,-0.53534 v -0.53533 -0.53533 h 1.07066 v -1.07066 -0.53534 l 0.53534,-0.53533 0.53533,-1.07066 0.53533,-0.53533 h 0.53533 l 0.53533,-1.07067 v -0.53533 -0.53533 -1.07067 -0.53533 -0.53533 l 0.53533,-1.07066 v -0.53533 l 0.53534,-0.53534 0.53533,-0.53533 v -1.07066 l 0.53533,-0.53533 v -1.07067 -0.53533 -0.53533 l 0.53533,-0.53533 0.53533,-0.53534 0.53534,-0.53533 0.53533,-0.53533 0.53533,-1.07066 v -0.53534 -1.60599 l 0.53533,-0.53533 0.53533,-0.53533 0.53534,-0.53534 0.53533,-0.53533 v -1.07066 h -0.53533 v -0.53533 -0.53534 l 0.53533,-1.07066 v -0.53533 -1.07067 l -1.07067,-1.07066 v -0.53533 l -0.53533,-0.53533 0.53533,-0.53534 v -1.07066 l 0.53534,-0.53533 -0.53534,-1.07066 v -0.53534 l -0.53533,-0.53533 v -0.53533 l -0.53533,-1.07066 h 0.53533 v -1.07067 -1.07066 l -0.53533,-0.53533 -1.07066,-0.53534 v -0.53533 -0.53533 -1.07066 -0.53534 l 0.53533,-0.53533 v -1.07066 l 0.53533,-0.53533 v -0.53533 -0.53534 -0.53533 l 0.53533,-0.53533 h 0.53533 1.07067 v -1.07066 -0.53534 -0.53533 l 0.53533,-1.07066 h 0.53533 1.07067 0.53533 v -0.53533 l -0.53533,-0.53534 0.53533,-0.53533 h 0.53533 1.07066 l 0.53533,0.53533 h 0.53534 l 0.53533,-0.53533 1.07066,0.53533 h 0.53533 l 1.07067,-0.53533 v -0.53533 -0.53533 l -0.53533,-0.53533 h -0.53534 l -0.53533,-1.07067 0.53533,-0.53533 0.53534,-0.53533 h 1.07066 l 0.53533,-0.53533 0.53533,-0.53533 v -0.53534 l -1.07066,-0.53533 -1.07066,-0.53533 h -0.53534 l -0.53533,-0.53533 1.07067,-0.53533 1.07066,-0.53534 0.53533,-0.53533 -0.53533,-1.60599 -0.53533,-1.606 -0.53533,-1.07066 -1.606,-1.07067 -2.14133,-1.60599 -2.67666,-0.53533 h -2.14132 l -6.95932,1.07066 -1.07066,-0.53533 -1.606,-0.53533 -2.14133,-1.07067 -2.14132,-1.60599 -2.14133,-2.14133 -2.14133,-2.67666 -1.60599,-2.67666 -0.53534,-1.606 -0.53533,-1.60599 v -4.81799 l -0.53533,-1.07066 -0.53533,-1.07067 -1.606,-1.60599 -3.21199,-1.606 h -1.07066 l -5.35332,-1.60599 -3.74733,-1.07067 -4.81798,-1.60599 -2.67666,-1.07067 -1.07067,-1.60599 -0.53533,-1.606 -0.53533,-2.67666 -0.53533,-1.60599 -1.07067,-1.07067 -1.60599,-1.60599 -2.14133,-1.07067 -1.60599,-0.53533 -1.606,-0.53533 -1.606,0.53533 h -1.07066 -2.67666 l -2.14133,-0.53533 -2.14132,-1.07067 -1.606,-1.60599 -1.606,-2.14133 -2.14132,-2.14133 -2.14133,-1.60599 h -1.07067 l -1.07066,-0.53533 h -2.67666 l -2.67666,0.53533 -4.81799,-0.53533 -7.49464,-0.53534 -8.02998,-0.53533 h -2.14133 l -2.67666,0.53533 -1.60599,0.53534 -1.606,0.53533 -2.67666,1.07066 -2.67666,2.14133 -1.60599,2.67666 -1.07067,3.74732 -1.07066,4.28266 v 2.67666 l -1.07067,3.74732 -2.14132,1.606 -1.07067,0.53533 h -1.60599 -3.21199 l -4.28266,-1.07067 -2.67666,-1.60599 -3.21204,-2.14133 -0.53534,-1.07066 -1.60594,-1.606 -2.14138,-2.14133 -1.60599,-1.60599 -1.60595,-2.14133 -1.07071,-0.53533 h -1.60595 l -3.21204,-0.53533 h -2.67666 l -2.67666,0.53533 -4.81793,0.53533 -4.28271,0.53533 -2.14133,0.53533 -1.60594,1.07067 -2.67666,3.21199 -1.60605,2.14133 -2.14133,1.60599 -3.21199,1.606 -3.21199,1.07066 -3.21194,0.53533 h -3.21204 l -3.74733,-1.07066 -4.81799,-1.606 -2.67665,-1.60599 -2.67666,-1.606 -1.60595,-1.60599 -1.07071,-1.606 v -1.60599 l 0.53533,-1.07067 0.53533,-1.07066 2.67666,-2.14133 2.67666,-2.67666 3.74727,-3.74732 1.60605,-2.67666 1.60594,-4.28266 1.07072,-4.28265 v -11.24197 -3.74733 l -0.53533,-3.21199 -1.606,-3.74732 -1.07066,-1.606 -1.07067,-0.53533 h -1.60599 -2.14128 -3.21204 l -2.67666,-0.53533 -2.14128,-1.07066 -2.67666,-1.606 -5.8887,-5.88865 -4.81793,-4.81799 -5.88871,-3.21199 -4.28265,-1.60599 h -3.21194 l -2.67666,-0.53534 h -1.60605 -2.14133 l -1.07066,-1.60599 -0.53533,-1.606 v -2.14133 l 1.60599,-1.60599 3.21199,-1.606 4.28266,-1.60599 3.21199,-1.07067 2.67666,-1.60599 2.14133,-2.67666 2.14133,-1.606 2.14132,-1.60599 3.74733,-1.606 2.14132,-1.07066 3.212,-0.53533 4.81798,-0.53533 1.606,-0.53533 1.07066,-0.53533 v -1.07067 -1.07066 l -0.53533,-1.07067 -0.53533,-1.07066 -1.606,-0.53533 -12.31263,-5.88865 -4.81799,-1.606 -2.67666,-0.53533 -2.14127,-1.07066 -1.60605,-1.07067 -0.53533,-1.07066 v -1.606 l 1.07066,-5.35332 2.14133,-4.81798 2.67666,-2.67666 2.14133,-1.07067 1.60599,-0.53533 2.67666,-1.07066 4.28266,-0.53533 2.14132,-1.07067 2.14138,-2.67666 2.67666,-3.74732 1.60595,-1.07067 2.14132,-1.07066 h 2.14133 2.14138 l 2.14128,1.07066 2.67666,1.606 3.21204,2.67666 1.60594,1.606 1.606,0.53533 h 1.60599 l 1.606,-0.53533 0.53533,-1.606 -0.53533,-2.14133 v -2.14133 l -1.606,-2.14132 -1.60599,-1.606 -0.53533,-1.07066 V 125.803 l 1.60594,-4.81799 2.67666,-4.28265 2.67666,-4.81799 2.14133,-3.74733 1.07066,-3.74732 1.606,-3.74732 1.60604,-1.605997 2.14128,-0.535332 2.14133,-0.535332 2.67666,0.535332 1.60599,-0.535332 1.606,-1.070664 v -0.535332 -2.141328 l -1.07067,-2.676659 -2.67666,-2.67666 -2.67666,-1.070663 -3.74727,-0.535332 -3.21204,0.535332 -3.21199,0.535331 -4.2826,3.211992 -2.67666,1.070664 h -1.07072 l -1.60594,-0.535332 -3.21205,-5.888651 -4.28265,-5.888651 -2.67666,-2.141328 -2.14133,-1.070664 -4.81799,-2.141327 -1.60594,-1.070664 -0.53533,-2.141328 v -2.676659 -2.67666 l 1.07066,-2.676659 1.606,-1.605996 3.74732,-3.211991 0.53533,-1.605996 V 56.20985 55.139186 l -0.53533,-1.070664 -2.14133,-1.070666 -2.14132,-0.535332 h -2.67666 l -1.60595,-0.535332 -1.60604,-1.070661 -1.07061,-1.605996 -1.60605,-6.959314 -0.53534,-1.070664 -1.07066,-1.070664 -2.14127,-0.535332 h -2.14138 l -4.28266,0.535332 -4.81799,0.535332 -2.67666,0.535332 -2.14127,1.070664 -1.60605,1.070663 -1.07061,1.605996 -2.67666,4.282655 -1.07072,1.070664 h -1.07066 -1.606 l -1.60594,-1.070664 -2.67666,-2.141327 -2.67666,-2.67666 -1.07072,-2.141327 v -2.141328 l 0.53534,-2.67666 0.53533,-2.141327 2.14127,-2.67666 1.606,-1.605995 2.67666,-3.747324 1.07066,-1.070664 0.53533,-1.605995 v -1.605996 l -0.53533,-1.070664 -1.07066,-1.605996 -0.53533,-1.605995 -1.07067,-1.605996 0.53533,-1.070664 0.53534,-1.070664 1.07066,-1.070663 1.606,-0.535332 h 1.60599 l 2.14133,0.535332 h 1.07072 1.07061 l 1.07066,-1.070664 v -0.535332 l -0.53533,-1.070664 -0.53533,-1.070664 -1.606,-0.5353317 -1.606,-1.0706638 -1.07066,-0.5353319 h -2.14127 l -1.60605,0.5353319 -1.606,1.0706638 -2.14127,1.6059957 -2.14138,1.605996 -0.53534,1.605995 -0.53533,1.605996 -0.53533,1.605996 -1.07066,1.605996 -1.606,0.535332 -1.07066,1.070663 -1.07067,0.535332 h -1.60599 l -1.07067,-0.535332 -1.07066,-0.535332 -1.07061,-1.070663 -1.07072,-1.605996 -0.53533,-1.070664 v -2.141328 l -0.53533,-2.141327 0.53533,-1.605996 V 9.6359743 8.0299786 6.9593148 L 678.80107,5.888651 677.73035,5.3533191 h -1.07066 l -1.606,0.5353319 -1.07066,1.6059957 -0.53533,1.6059957 -0.53533,2.6766596 0.53533,2.141328 0.53533,2.141327 1.07066,3.211992 1.07072,1.605995 1.60594,1.605996 0.53534,0.535332 0.53533,1.070664 0.53533,0.535332 -0.53533,1.070663 v 0.535332 l -0.53533,0.535332 h -1.606 l -1.07066,-0.535332 -1.07067,-0.535332 -1.07061,-1.605995 -0.53533,-1.605996 -1.07066,-2.676659 -1.07061,-3.211992 -1.07072,-1.070664 -0.53533,-0.535332 -3.212,-2.141327 -1.60599,-1.605996 -1.07066,-0.535332 -0.53534,-0.535332 V 9.6359743 9.1006424 L 662.20578,8.0299786 661.67045,5.3533191 660.59979,2.6766595 660.06445,2.1413276 V 1.6059957 L 659.52912,1.0706638 658.45846,0.53533191 657.38779,0 h -1.07066 -0.53533 -1.07067 -1.07066 l -0.53533,0.53533191 -0.53533,0.53533189 -0.53533,1.0706638 -0.53534,0.5353319 -2.14127,3.7473234 -0.53533,1.0706638 -1.07067,1.0706638 -0.53533,0.5353319 -0.53533,0.5353319 -1.07072,0.5353317 h -0.53533 -0.53533 -0.53533 l -1.07072,-0.5353317 -0.53533,-0.5353319 -0.53533,-0.5353319 -1.07067,-1.0706638 -0.53533,-0.5353319 -0.53533,-2.1413276 -0.53533,-1.0706638 -0.53534,-1.0706639 -1.07066,-0.5353319 -0.53533,-0.5353319 h -0.53533 -1.07067 l -0.53533,0.5353319 h -0.53533 l -0.53533,0.5353319 -0.53533,0.535332 v 0.5353319 l -0.53534,1.0706638 V 5.888651 l -0.53533,1.0706638 v 1.0706638 l 0.53533,1.0706638 v 0.5353319 1.0706637 l 0.53534,0.535332 v 1.070664 1.070664 0.535332 2.141327 1.605996 1.070664 l 0.53533,1.070664 v 0.535331 l 0.53533,1.070664 0.53533,0.535332 1.606,1.070664 1.07066,0.535332 0.53533,0.535332 0.53533,1.070664 0.53534,0.535331 v 0.535332 0.535332 l -0.53534,0.535332 -0.53533,0.535332 h -0.53533 -1.07066 -1.07067 l -1.07066,0.535332 h -0.53533 l -1.07067,0.535332 -1.07066,1.070664 -1.07066,1.070664 -2.14133,1.070663 -0.53533,0.535332 -0.53534,0.535332 h -1.07066 -1.07061 l -0.53533,-0.535332 h -1.07067 l -1.07061,-0.535332 -1.60605,-0.535332 -0.53533,-0.535331 -1.60599,-1.070664 -3.21199,-2.67666 -1.606,-1.070664 -1.07066,-0.535332 h -0.53534 -0.53533 -0.53533 -1.07066 -1.07061 l -0.53534,0.535332 h -0.53533 v 0.535332 l -0.53533,1.070664 v 0.535332 l 0.53533,0.535332 0.53533,1.070664 1.07067,1.070664 1.07066,1.070663 0.53533,0.535332 h 1.07067 l 0.53533,0.535332 1.07066,0.535332 3.2121,1.070664 1.07056,0.535332 h 0.53533 v 0.535332 l 0.53533,0.535332 v 0.535331 0.535332 0.535332 l -0.53533,1.070664 -0.53533,1.070664 -0.53533,0.535332 h -0.53533 l -1.07072,0.535332 -4.2826,21.948608 -1.07072,4.282655 -9.10064,9.635974 -2.14133,1.070664 -4.81799,5.888651 -2.67666,4.282655 -3.74732,23.554606 -17.66595,27.30193 -31.0492,33.19057 -10.17136,16.59529 -7.49465,12.31263 -3.74727,7.49465 -5.8887,4.81799 -9.10064,2.14132 -13.3833,2.67666 -8.56531,7.49465 -9.63598,14.98929 -3.74732,27.30193 -6.95931,26.23126 -2.67666,34.79658 -93.68309,32.65524 -29.97858,26.7666 40.68522,34.79657 18.73662,62.0985 -5.35332,16.05996 -64.77516,66.91649 5.35332,32.65525 H 330.3 l 1.07066,0.53533 0.53534,1.07067 -0.53534,1.07066 h 2.14133 l 1.606,-1.07066 0.53533,-1.07067 1.07066,0.53533 1.07067,-0.53533 h 2.67666 0.53533 l 1.60599,0.53533 1.07067,1.07067 1.07066,0.53533 h 2.14133 l 1.60599,0.53533 1.07067,0.53533 0.53533,1.606 1.07066,1.07066 1.606,0.53533 h 1.07066 l 2.67666,2.14133 2.14133,1.07067 1.07066,1.07066 1.07067,0.53533 1.60599,-0.53533 h 1.07067 0.53533 l 1.07066,1.07066 1.606,5.88865 1.07066,1.07067 h 1.07067 l 1.07066,1.07066 2.67666,1.07067 1.07066,0.53533 2.14133,0.53533 1.07067,0.53533 0.53533,0.53533 0.53533,0.53534 v 2.14132 1.07067 l 1.606,1.07066 2.14132,1.07067 1.606,1.07066 0.53533,2.14133 -0.53533,2.67666 0.53533,1.07066 h 1.07066 l 1.07067,-1.07066 3.74732,-0.53534 h 1.07067 l 2.14132,1.07067 1.606,0.53533 h 0.53533 l 12.31263,-9.63597 4.81799,-2.14133 4.81799,-1.606 h 3.74732 l 5.35332,-0.53533 5.88865,-1.606 4.28266,0.53534 4.28265,-1.07067 h 3.21199 l 2.67666,0.53533 1.606,1.07067 1.07066,1.60599 -0.53533,10.70664 v 1.07067 l 0.53533,1.60599 1.07067,1.606 3.74743,3.21199 1.07055,0.53533 h 5.35332 l 5.35332,0.53533 h 2.14133 1.606 l 1.60599,-1.07066 5.35332,-4.81799 1.60605,-2.14133 1.07061,-0.53533 h 3.21199 l 1.07072,-1.07066 1.07061,-1.606 1.07066,-1.07066 2.14133,-0.53533 h 1.606 l 10.70663,1.60599 h 2.14139 l 6.42392,-2.14132 h 1.60605 l 3.21194,1.60599 3.21199,1.606 2.67666,2.14132 5.35332,3.212 3.74733,3.21199 1.07066,0.53533 1.60599,-0.53533 1.606,0.53533 h 2.14134 1.07065 l 1.606,-1.07066 h 1.60599 l 2.14133,-0.53534 1.606,0.53534 2.14138,-1.07067 1.60594,-0.53533 h 1.07072 l 2.67666,1.606 2.67666,1.60599 2.14127,0.53533 h 2.14133 l 5.35332,2.14133 h 2.67666 l 1.60599,0.53533 2.14138,2.14133 4.28261,1.606 1.07071,1.07066 2.67666,1.07066 1.60594,2.14133 1.07072,0.53533 1.07061,0.53533 1.07067,-1.07066 1.07066,1.07066 h 1.606 1.07066 l 1.07066,-0.53533 1.07072,-3.21199 1.07061,-1.60599 0.53533,-1.07067 3.21199,-4.28265 1.07067,-1.07067 v 1.07067 3.21199 1.60599 l 1.60599,2.14133 1.606,1.07067 0.53533,1.60599 1.07072,3.21199 2.14127,2.67666 1.07067,3.21199 1.07066,3.74733 0.53533,0.53533 2.14133,2.14133 0.53533,0.53533 0.53533,1.60599 2.14128,1.606 1.60599,2.67666 1.60605,1.07066 0.53533,2.14133 3.212,-0.53533 2.14132,0.53533 6.95932,3.21199 4.81799,3.21199 3.21199,1.606 5.8887,2.67666 3.21194,1.60599 2.67666,2.14133 5.88865,5.88865 4.28271,5.35332 2.67666,5.35332 1.07061,5.35332 1.07066,4.28266 0.53533,1.60599 1.60595,3.21199 1.07071,2.67666 v 2.67666 l 0.53534,0.53533 11.7773,4.81799 3.21199,1.07066 3.74732,0.53534 h 3.21199 l 3.74733,-1.07067 2.67666,-1.07066 1.07066,-2.67666 2.14138,-4.81799 1.07061,-4.28265 5.88865,1.07066 36.9379,3.21199 10.17131,0.53533 h 2.67666 l 3.21199,-2.14132 6.42398,-0.53534 3.21205,-1.07066 10.70664,-7.49465 2.67666,-1.07066 2.67666,-0.53533 24.62521,-1.606 2.14138,-0.53533 4.28266,-2.67666 7.49464,-5.35332 0.53534,-0.53533 h 1.60599 l 3.21199,2.67666 v -1.07066 l -0.53533,-0.53534 v -0.53533 l -0.53533,-1.07066 -0.53533,-0.53533 -0.53534,-0.53534 v -1.07066 l 0.53534,-0.53533 0.53533,-0.53533 0.53533,-2.14133 -1.07066,-0.53533 -0.53534,-1.07067 -0.53533,-1.07066 v -0.53533 l -0.53533,-1.07067 v -0.53533 l 0.53533,-1.07066 v -0.53533 -1.07067 l 0.53533,-0.53533 v -0.53533 l 0.53534,-0.53533 v -0.53534 -0.53533 -0.53533 l -1.606,-1.07066 -1.07066,-0.53533 h -1.07067 l -1.07066,-0.53534 -0.53533,-0.53533 -1.07067,-0.53533 -0.53533,-0.53533 -1.60599,-1.07067 -0.53534,-1.07066 -1.07066,-1.07066 -0.53533,-1.07067 -1.07072,-0.53533 v -0.53533 l 4.28266,-1.07067 2.14132,-0.53533 1.07067,-1.07066 1.60599,-1.606 1.07067,-0.53533 0.53533,-1.07066 v -1.07067 l 0.53533,-0.53533 h 1.07072 l 1.07066,-0.53533 1.07067,-1.07066 1.07066,-1.07067 0.53533,-0.53533 2.14133,-2.14133 1.07066,-1.07066 1.07067,-1.07066 1.07066,-1.07067 1.606,-0.53533 1.07066,-1.606 0.53533,-1.07066 0.53533,-1.606 0.53534,-2.67666 v -1.07066 l 0.53533,-1.07066 1.07066,-1.07067 v -1.60599 h 0.53533 l 1.07067,-2.14133 1.60599,-3.21199 1.606,-2.67666 v -3.21199 l -0.53533,-2.67666 5.35332,-1.606 9.10064,-1.07066 5.35332,-3.74732 1.07066,-1.07067 2.14133,-6.95931 -0.53533,-4.81799 3.74732,-10.70664 v -4.28265 l 0.53533,-5.35332 -0.53533,-1.07067 -8.02998,-4.81798 -6.95931,-8.56531 -1.07067,-2.67666 1.07067,-5.35332 2.67666,-5.35332 0.53533,-3.74733 -1.07066,-2.67666 v -2.14132 l -1.07067,-1.07067 -1.07066,-1.60599 -0.53533,-1.606 -0.53534,-1.60599 -0.53533,-1.606 v -1.07066 -1.606 -1.07066 l 0.53533,-2.14133 3.212,-3.74732 0.53533,-0.53534 0.53533,-1.07066 0.53533,-1.07066 0.53533,-2.14133 0.53533,-2.14133 v -1.07066 l 0.53534,-1.60599 0.53533,-1.60601 -0.53533,-1.07067 v -1.07066 l 0.53533,-1.07067 0.53533,-1.07066 v -1.07066 l 1.07066,-1.07067 1.07067,-1.60599 1.07066,-1.07067 0.53533,-2.14132 0.53534,-2.67666 v -2.14133 -1.07067 l 1.07066,-1.60599 0.53533,-1.07066 1.07067,-0.53534 0.53533,-1.07066 1.07066,-3.21199 1.07066,-2.14133 1.07067,-2.14133 1.07066,-2.67666 v -1.60599 -1.07067 -1.60599 -0.53533 l 0.53533,-0.53534 0.53534,-1.60599 v -2.14133 l -0.53534,-1.07066 -0.53533,-1.606 v -1.60599 -1.07067 l -0.53533,-1.60599 v -0.53534 -1.07066 l -0.53533,-1.606 v -2.14132 l -0.53533,-2.14133 v -1.07066 l 0.53533,-1.07067 -0.53533,-0.53533 -0.53534,-1.606 0.53534,-1.07066 v -1.606 -1.60599 -0.53533 -1.606 -1.07066 -0.53533 z"
      data-name="Santa Eudóxia" id="santa_eudoxia" />
</svg>