<?xml version="1.0" encoding="UTF-8" standalone="no"?>
<svg
   version="1.1"
   id="svg2"
   width="186.8"
   height="283.5"
   viewBox="0 0 186.80001 283.5"
   xmlns="http://www.w3.org/2000/svg"
   xmlns:svg="http://www.w3.org/2000/svg">
  <defs
     id="defs6" />
  <path
     d="m 168.10005,198.9 -0.1,0.1 -0.1,0.1 -0.1,0.1 h -0.2 l -0.2,0.1 -0.1,0.2 h -0.1 l -0.1,0.2 -0.1,0.2 -0.1,0.1 -0.1,0.1 -0.1,0.1 -0.1,0.1 -0.1,0.2 v 0.1 0.2 l -0.1,0.2 -0.1,0.1 -0.1,0.1 h -0.1 v 0.1 0.2 l -0.1,0.1 -0.1,0.1 -0.1,0.1 -0.1,0.1 v 0.2 0.2 l -0.1,0.2 v 0.2 l -0.2,0.2 -0.1,0.1 -0.2,0.2 -0.2,0.2 -0.1,0.1 -0.1,0.1 -0.2,0.2 -0.1,0.1 -0.1,0.2 -0.1,0.2 -0.1,0.1 v 0.1 l -0.1,0.2 v 0.1 l -0.3,0.6 -0.1,0.2 -0.3,0.3 h 0.1 v 0.1 0.1 0.8 0.4 0.7 l 0.4,0.6 0.1,0.2 0.1,0.3 -0.2,0.4 -0.2,0.2 -0.1,0.1 h -0.1 l -0.3,-0.2 -0.7,-0.7 -0.4,-0.3 -0.7,0.8 v 0.3 l -0.1,0.6 -0.1,0.4 -0.2,0.3 -0.1,0.3 -0.1,0.5 -0.1,0.6 v 0.2 l -0.1,0.5 v 0.1 l -0.1,0.4 v 0.6 0.6 l -0.2,0.3 -0.1,0.1 h -0.1 -0.2 -0.2 -0.2 -0.2 -0.3 l -0.2,-0.1 h -0.1 -0.2 -0.1 l -0.2,-0.1 -0.4,0.1 -0.1,-0.1 -0.2,0.1 h -0.2 -0.2 -0.1 -0.3 l -0.2,0.1 h -0.3 -0.3 l -0.2,-0.1 -0.2,-0.2 h -0.1 -0.1 l -0.1,0.1 h -0.2 -0.2 l -0.3,-0.2 -0.1,-0.1 -0.1,-0.2 v -0.1 l -0.2,-0.1 h -0.3 l -0.2,-0.3 -0.2,-0.2 h -0.1 l -0.2,-0.1 -0.3,0.1 -0.3,0.1 h -0.3 -0.2 l -0.3,-0.3 -0.1,-0.1 -0.3,-0.2 -0.20001,-0.3 -0.19999,-0.1 -0.20001,-0.2 h -0.1 v -0.1 l -0.19999,-0.1 h -0.20001 l -0.1,-0.1 -0.19999,0.1 h -0.30001 l -0.4,-0.1 h -0.1 l -0.19999,-0.1 -0.20001,-0.2 -0.1,-0.1 -0.1,-0.3 v -0.1 l -0.2,-0.2 -0.1,-0.1 -0.1,-0.2 V 211 l -0.19999,-0.2 v -0.1 -0.2 l -0.20001,-0.1 -0.1,-0.1 h -0.1 l -0.1,-0.1 v -0.1 l -0.1,-0.1 -0.1,-0.1 -0.1,-0.2 -0.19999,-0.2 -0.1,-0.2 -0.3,-0.5 -0.3,-0.5 -0.1,-0.2 V 208 l -0.1,-0.3 -0.1,-0.4 -0.1,-0.2 -0.1,-0.3 v -0.6 l 0.1,-0.5 -0.1,-0.2 -0.1,-0.2 -0.2,-0.1 -0.1,-0.1 v -0.2 l -0.6,0.3 -0.4,0.3 -0.4,0.1 -0.7,-0.1 -0.3,0.2 -0.2,0.1 -0.2,0.2 v 0.1 0.5 l -0.1,0.3 -0.20001,0.1 -0.5,0.2 -0.1,0.1 -0.1,0.4 -0.4,0.4 v 0.3 l -0.1,0.2 -0.59999,0.3 v 0.1 0.2 1.3 l -0.20001,0.5 0.1,0.8 -0.1,0.6 v 0.7 l -0.1,0.4 -0.1,0.6 -0.3,0.9 -0.4,1.2 -0.89999,0.4 h -0.80001 l -1.3,0.4 -1.2,0.4 -1.1,0.7 h -0.3 l -0.6,0.3 h -0.6 l -0.7,0.3 -0.39999,-0.1 h -0.20001 -0.29999 l -0.70001,0.2 -0.7,0.4 -0.59999,0.1 h -0.70001 l -0.7,-0.1 -0.59999,-0.2 -1,-0.5 -0.90001,-0.6 -0.4,-0.4 -0.19999,-0.4 -0.40001,-0.7 -0.4,-1.2 -0.19999,-1 -0.1,-0.3 -1,-1 -0.6,-0.3 -0.6,-0.3 h -0.1 l -1.5,-0.1 -0.8,-0.1 -0.4,-0.1 h -0.5 l -0.2,0.1 -0.1,0.1 -0.1,0.1 h -0.1 l -0.2,0.4 -0.3,0.1 -0.2,0.3 -0.1,0.1 -0.2,0.1 h -0.6 l -0.7,-0.1 -0.4,-0.1 -0.5,-0.1 h -0.19998 -0.20002 -0.4 -0.3 l -0.4,0.2 -0.3,0.2 -0.1,0.1 v 0.1 l -0.2,0.1 -0.1,0.1 -0.20001,0.3 v 0.2 l -0.1,0.1 v 0.1 l -0.19999,0.1 h -0.30001 l -0.1,-0.1 -0.3,-0.1 0.1,-0.8 0.2,-0.8 v -0.2 l -0.1,-0.5 v -0.1 -0.1 -0.1 h -0.1 l -0.3,-0.1 h -0.2 -0.4 l -0.6,0.1 h -0.4 -0.1 -0.1 -0.1 -0.1 -0.1 v -0.3 h -0.5 v -0.1 -0.4 -0.4 -0.5 -0.2 -0.2 h -0.1 v -0.1 -0.2 h 0.1 l 0.1,-0.2 0.2,-0.5 0.2,-0.4 0.1,-0.1 v -0.1 l 0.1,-0.2 0.1,-0.1 v -0.1 l 0.20001,-0.3 0.19999,-0.3 0.1,0.1 0.20001,0.1 0.1,0.1 v 0.1 h 0.1 l 0.4,0.3 0.2,0.2 h 0.1 l 0.1,0.1 h 0.19999 v 0.1 l 0.2,-0.2 h 0.1 v -0.1 h 0.1 v -0.1 -0.1 h 0.1 l 0.2,-0.4 0.1,-0.1 v -0.1 l 0.1,-0.1 v -0.1 l 0.1,-0.1 0.2,-0.5 0.1,-0.3 0.2,-0.4 v -0.1 l 0.1,-0.3 h 0.1 l 0.4,-0.9 -0.9,-0.7 -0.1,-0.1 v -0.4 l -0.2,-0.7 -0.3,-0.4 -0.1,-0.4 -0.1,-0.2 -0.1,-1 -0.5,-0.9 h 0.19999 v -0.4 l -0.1,-0.4 v -0.3 l -0.1,-0.3 v -0.4 l -0.1,-0.3 v -0.3 -0.2 -0.2 -0.4 h 0.4 l 0.3,-0.1 0.90001,0.2 0.29999,-0.1 0.20001,-0.2 0.19999,-0.4 0.5,-0.7 0.4,-0.3 0.2,-0.3 0.1,-0.2 h 0.1 l 0.1,0.1 0.40001,-0.4 0.1,-0.3 0.2,-0.3 v -0.2 l 0.3,-0.3 0.4,-0.6 h -0.1 l 0.3,-0.3 0.3,-0.2 1.1,-0.9 0.3,-0.5 0.2,-0.6 0.3,-0.3 0.4,-0.2 0.2,-0.4 0.4,-0.3 -0.1,-0.1 -0.1,-0.1 v -0.2 l 0.3,-1.1 -1.9,0.3 h -0.3 l -0.1,-0.1 -0.2,-0.1 -0.1,-0.1 -0.2,-0.1 h -0.1 l -0.1,-0.1 -0.1,-0.1 h -0.1 l -0.2,-0.2 -0.2,-0.1 v -0.1 l -0.2,-0.2 -0.1,-0.1 -0.2,-0.1 -0.1,-0.3 -0.4,-0.2 -0.1,-0.2 h -0.2 l -0.1,-0.1 -0.1,-0.1 v -0.1 l -0.2,-0.1 h -0.19999 l -0.1,-0.1 -0.3,-0.1 -0.1,-0.1 h -0.20001 l -0.2,-0.1 -0.1,-0.2 -0.5,-0.1 -0.2,-0.1 -0.1,-0.1 -0.2,-0.1 -0.1,-0.1 h -0.1 -0.1 l -0.1,-0.1 -0.2,0.1 -0.2,0.1 -0.2,0.1 h -0.2 l -0.5,0.3 -0.1,0.2 -0.1,0.1 h -0.1 l -0.20001,0.1 -0.1,0.1 -0.1,0.1 v 0.1 l -0.1,0.1 -0.1,0.1 h -0.1 l -0.1,0.1 h -0.1 l -0.3,0.2 -0.1,0.2 -0.1,0.1 h -0.1 l -0.1,0.1 h -0.2 -0.1 -0.1 l -0.2,-0.1 h -0.2 l -0.3,-0.3 v -0.1 l -0.1,-0.1 -0.2,-0.1 h -0.1 l -0.1,-0.1 h -0.1 -0.3 -0.1 v -0.1 h -0.1 l -0.1,-0.1 -0.5,0.5 h -0.5 l -0.2,-0.3 h -0.2 -0.2 l -0.2,-0.1 h -0.1 l -0.2,-0.1 -0.2,-0.2 -0.1,-0.1 -0.2,-0.2 -0.1,-0.2 h -0.2 l -0.1,-0.2 h -0.1 -0.1 -0.1 v 0.2 h -0.1 v 0.1 l -0.1,0.1 -0.2,-0.1 0.2,-0.7 -1.2,1.1 -1.3,1.1 -0.1,0.1 -1.30002,0.2 -0.9,0.3 h -0.1 -0.1 l -0.2,-0.1 h -0.1 l -0.1,-0.1 h -0.1 l -0.1,-0.1 -0.20001,-0.1 -0.2,-0.1 h -0.1 l -0.2,-0.1 -0.1,-0.1 -0.1,-0.1 -0.1,-0.1 -0.1,-0.1 -0.3,-0.1 H 94.6 94.5 94.30001 94.1 94 h -0.19999 -0.1 -0.2 l -0.1,0.2 h -0.1 l -1.40001,0.5 -0.7,0.3 -0.39999,0.2 -0.30001,-0.1 -0.1,-0.1 -0.4,-0.9 -0.3,-1.1 -0.1,-0.7 v -1.9 l 0.1,-0.2 -0.1,-0.4 0.1,-0.6 0.1,-0.2 0.1,-0.3 0.2,-0.1 0.20001,-0.4 0.19999,-0.3 0.1,-0.1 0.1,-0.7 v -0.3 -0.1 l -0.1,-0.4 -0.2,-0.2 -0.5,-0.2 -0.59999,-0.1 -0.40001,-0.2 -0.7,-0.5 -1,-2 -0.3,-0.4 -0.5,-0.5 -0.2,-0.5 -0.39998,-0.6 -0.5,-0.6 0.1,-0.4 0.2,-0.8 v -1.3 -0.7 l -0.2,-0.7 -0.2,-0.2 -0.3,-0.3 -0.4,-0.4 -0.9,-0.7 -0.1,-0.3 -0.2,-0.3 h -0.3 l -0.5,0.1 h -0.3 l -0.3,-0.2 -0.1,-0.2 -0.1,-0.1 -0.5,-0.5 -0.3,-0.1 h -0.1 l -0.6,0.1 -0.5,-0.1 -0.4,-0.3 -0.5,-0.2 -0.4,-0.2 -0.6,-0.1 -0.5,-0.3 -0.6,-0.1 -0.8,-0.1 -0.3,-0.2 -0.6,-0.2 0.4,0.6 0.1,0.8 0.3,1 0.4,1.1 -0.4,1.1 -0.2,0.5 -0.4,0.8 -0.8,0.9 -0.3,0.3 -0.9,0.7 -0.3,0.3 -0.4,0.4 -0.5,1.1 -0.2,0.4 -0.4,0.4 v 0.1 l -0.1,0.1 -0.3,0.6 -0.3,0.7 -0.2,1.1 -0.5,1.8 v 0.5 1.2 l -0.1,0.5 -0.3,1.1 -0.6,1.3 -0.2,0.2 -2,0.9 -0.9,0.6 -1.8,1.5 -1,1.9 -0.1,0.7 0.2,1.2 0.4,1.9 v 0.3 l -0.4,2.1 v 0.1 l -0.2,0.7 -0.1,0.2 -0.2,0.2 0.6,0.2 0.4,0.1 0.5,0.3 0.3,0.1 0.5,0.2 1,0.2 0.4,0.1 0.4,0.1 0.5,0.2 0.6,0.1 h 1.3 l 1.1,0.1 h 0.6 l 0.6,-0.1 0.6,-0.1 h 0.5 l 0.3,-0.3 0.6,-0.1 1.3,-0.7 0.7,-0.2 1.1,-0.4 0.1,-0.1 h 0.2 l 0.2,-0.1 0.2,-0.1 h 0.1 l 0.2,-0.1 h 0.2 0.1 l 0.1,-0.1 h 0.2 0.1 0.1 0.2 l 0.1,0.1 h 0.2 0.1 l 0.2,0.1 h 0.1 0.1 0.1 l 0.1,-0.1 h 0.1 0.1 0.1 l 0.4,-0.1 0.3,0.1 h 0.2 v 0.6 0.6 l 0.1,2.2 v 0.1 0.1 0.1 0.2 l -0.1,0.2 v 0.1 0.2 l -0.1,0.3 -0.1,0.1 v 0.2 l -0.1,0.2 -0.1,0.3 -0.2,0.5 v 0.4 l 0.1,0.2 0.2,0.3 0.2,0.3 0.4,0.3 0.5,0.5 0.1,0.1 0.1,0.2 0.1,0.1 0.1,0.1 v 0.1 l 0.1,0.2 0.1,0.2 0.1,0.3 0.1,0.1 0.1,0.2 v 0.1 l 0.1,0.1 0.2,0.2 v 0.1 0.2 l 0.1,0.2 0.2,0.3 0.3,0.4 0.1,0.4 0.3,0.3 0.1,0.1 0.4,0.6 0.3,0.3 0.4,0.2 0.3,0.2 0.2,0.2 0.3,0.3 0.1,0.3 0.19999,0.2 0.70002,0.4 0.29998,0.2 0.20002,0.2 0.5,0.2 0.19998,0.3 0.1,0.1 0.70002,0.3 0.29998,0.2 0.6,0.3 0.3,0.2 0.1,0.3 -0.1,0.4 -0.19998,0.3 v 0.2 0.1 l 0.79998,1.2 0.20002,0.3 0.79998,1.1 v 0.1 l 1.3,1.7 0.7,1 0.3,0.5 0.90002,1.3 0.19998,0.4 0.2,0.2 0.1,0.1 H 95.6 l 0.4,0.1 0.4,0.1 0.5,0.1 0.6,0.1 0.80001,0.1 0.29999,0.1 0.20001,-0.2 0.5,-0.2 0.399992,-0.2 0.299998,0.1 0.30001,-0.3 0.19999,-0.4 0.2,-0.2 0.1,-0.1 1.19999,1.6 0.80001,1 0.29999,0.5 v 0.1 l 0.3,0.6 0.2,0.5 0.1,0.3 0.1,0.4 0.39998,1.1 0.1,0.4 0.39999,1.1 0.7,2.1 0.40001,1.1 1,3 0.19999,0.4 0.1,0.3 0.20001,0.8 0.39999,1 0.60001,1.5 1.5,1.6 0.69999,0.4 0.30001,0.3 1.59999,1.5 1.3,3 h -1.5 l -0.39999,0.1 -0.30001,0.1 -0.19999,0.1 h -0.1 -0.1 l -0.5,0.2 -0.5,0.2 h -0.2 l -0.1,0.1 -0.3,0.1 -0.1,0.1 -0.2,0.3 -0.1,0.1 -0.9,1.9 -0.2,0.4 -0.3,0.4 -0.3,0.2 -0.3,0.4 -0.7,0.9 -0.2,0.2 -1.4,0.1 h -0.7 l -0.5,-0.1 -0.7,-0.4 -1.9,-1.4 -0.7,-0.6 -0.699998,-0.6 -0.500002,-0.4 -0.5,-0.6 -0.2,-0.2 -0.2,-0.2 -0.1,-0.1 -0.1,-0.2 v -0.3 l -0.2,-0.1 -0.1,-0.3 -0.2,-0.3 -0.1,-0.1 -0.1,-0.2 h -0.1 l -0.2,-0.1 -0.1,-0.1 -0.1,-0.4 -0.20001,-0.3 -0.2,-0.2 -0.3,-0.1 -0.2,-0.3 -0.2,-0.2 -0.3,-0.2 -0.3,-0.4 -0.1,-0.3 -0.19999,-0.5 -0.1,-0.3 -0.5,-0.6 -0.6,-0.9 -0.5,-0.9 h -0.1 l -0.9,-0.2 -0.6,-0.3 v -0.1 h -0.19998 -0.1 l -0.1,-0.1 -0.1,-0.1 -0.4,-0.1 h -0.2 -0.1 v -0.1 -0.1 l -0.1,-0.1 h -0.1 v -0.1 l -0.2,-0.1 h -0.1 v -0.1 h -0.1 v -0.1 -0.1 h -0.1 -0.1 l -0.1,-0.1 h -0.1 -0.1 v -0.2 -0.1 h -0.1 v -0.1 -0.1 l -0.1,-0.1 -0.1,-0.2 -0.3,-0.1 -0.4,-0.2 -0.1,-0.2 L 87.8,234.4 v -0.1 H 87.7 87.5 87.30001 L 87.1,234.2 l -0.2,-0.1 -0.3,-0.3 v -0.2 l -0.1,-0.1 v -0.1 h -0.1 l -0.1,-0.1 v -0.1 -0.1 H 86.2 V 233 h -0.1 v -0.1 H 86 v -0.1 0.1 l -0.1,-0.1 v -0.1 h -0.1 l -0.1,0.1 v -0.1 l -0.1,0.1 v -0.1 h -0.1 -0.1 v -0.1 h -0.1 -0.1 l -0.1,-0.1 H 85 84.9 84.8 v -0.1 -0.1 h -0.1 l -0.1,-0.1 v 0.1 h -0.1 v -0.1 h -0.1 v -0.1 h -0.1 v -0.1 -0.1 h 0.1 -0.1 v -0.1 H 84.2 84.1 84 v -0.1 h -0.1 -0.1 v -0.1 h -0.1 v -0.1 l -0.1,-0.1 h -0.1 v -0.1 h -0.1 v -0.1 h -0.1 -0.1 -0.1 v -0.1 H 83 82.9 82.8 V 231 h -0.1 -0.1 v -0.1 h -0.1 v -0.1 h -0.1 v -0.1 h -0.1 0.1 -0.1 v -0.1 h -0.1 l 0.1,-0.1 -0.1,-0.1 h 0.1 v -0.1 -0.1 h -0.1 l -0.3,-0.2 -0.1,-0.1 h -0.1 v -0.1 h -0.1 v -0.1 l -0.1,-0.1 v -0.1 h -0.1 v -0.1 0.1 -0.1 h -0.1 -0.1 -0.1 v -0.1 L 81,229.2 v -0.1 H 80.9 80.8 L 80.7,229 h -0.1 v -0.1 -0.1 h -0.1 l -0.1,-0.1 h -0.1 v -0.1 h -0.1 -0.1 v -0.1 L 80,228.4 h 0.1 v -0.1 -0.1 H 80 v -0.1 H 79.9 V 228 h -0.1 l -0.1,-0.1 v -0.1 l -0.1,-0.2 v -0.1 -0.1 -0.1 -0.1 h -0.1 v -0.1 H 79.4 V 227 l -0.1,-0.1 -0.1,-0.1 h -0.1 v -0.1 -0.1 0.1 l 0.1,-0.1 h -0.1 v -0.1 -0.1 -0.1 -0.1 H 79 v -0.1 h -0.1 v -0.1 -0.1 h -0.1 v 0.1 -0.1 h -0.1 v -0.1 -0.1 h -0.1 v -0.1 -0.1 h -0.1 l -0.1,-0.1 -0.1,-0.1 v -0.1 -0.1 -0.1 l -0.1,-0.1 -0.2,-0.1 -0.1,-0.1 v -0.2 l -0.1,-0.2 -0.1,-0.1 V 224 l -0.2,-0.2 -0.1,-0.2 -0.2,-0.2 -0.1,-0.2 -0.1,-0.3 -0.1,-0.2 -0.2,-0.5 -0.1,-0.3 -0.1,-0.2 v -0.3 l 0.1,-0.3 v -0.2 -0.2 -0.1 l -0.1,-0.1 v -0.1 l -0.1,-0.1 -0.1,-0.2 v -0.1 -0.1 h -0.1 v -0.1 h -0.1 v -0.1 H 76 v -0.1 h -0.1 -0.1 v -0.1 l -0.1,-0.1 v -0.1 h -0.1 v -0.1 l -0.1,-0.1 V 219 l -0.1,-0.1 v -0.1 l -0.1,-0.1 v -0.1 -0.1 l -0.1,-0.1 v -0.1 -0.1 l -0.1,-0.1 V 218 l -0.1,0.1 -0.1,0.1 h -0.1 v -0.1 H 74.7 V 218 l -0.1,-0.1 v -0.1 h -0.1 v -0.1 h -0.1 -0.1 -0.1 l -0.1,0.1 H 74 73.9 l -0.2,-0.1 h -0.3 l -0.2,-0.1 H 73.1 73 72.8 l -0.1,-0.1 h -0.2 l -0.2,-0.1 h -0.1 l -0.1,-0.1 H 72 v -0.1 -0.1 -0.1 h -0.1 l -0.1,0.1 -0.1,0.1 h -0.1 v 0.1 h -0.1 l -0.1,0.1 v 0.1 l -0.2,0.1 h -0.1 l -0.2,0.1 v 0.1 l 0.1,0.1 h 0.1 l 0.1,0.1 0.1,0.1 h -0.1 -0.1 l -0.1,0.1 -0.1,0.1 -0.1,0.1 v 0.1 l -0.1,0.1 -0.1,0.2 v 0.1 l -0.1,0.1 v 0.1 h -0.1 -0.1 -0.1 -0.1 -0.2 -0.1 -0.1 l -0.1,-0.1 -0.2,0.1 -0.2,0.1 -0.1,0.1 -0.1,0.1 -0.1,0.1 -0.1,0.2 -0.1,0.2 v 0.1 l -0.1,0.1 -0.1,0.1 h -0.1 v -0.1 L 68.3,220 68.2,219.9 H 68 67.9 67.7 67.6 l -0.1,0.1 -0.1,0.2 -0.1,0.3 -0.1,0.1 -0.2,0.1 -0.1,0.1 -0.1,0.2 v 0.1 h -0.1 l -0.2,0.1 h -0.2 l -0.2,0.1 h -0.2 l -0.1,-0.1 -0.4,-0.1 -0.1,-0.1 -0.1,-0.1 -0.1,-0.1 h -0.2 l -0.1,-0.1 -0.1,-0.2 h -0.1 l -0.1,-0.1 -0.2,-0.1 v -0.1 l -0.1,-0.1 h -0.1 l -0.1,0.1 -0.7,0.4 -0.1,0.1 -0.1,0.1 -0.1,0.1 -0.1,0.1 v 0.1 l 0.1,0.1 0.1,0.1 v 0.1 l -0.1,0.1 h -0.1 l -0.1,-0.1 -0.1,-0.1 -0.1,-0.1 h -0.1 -0.1 -0.1 v 0.1 l -0.1,0.1 -0.1,0.1 -0.1,0.1 -0.1,0.2 v 0.1 l -0.1,0.1 v 0.1 l -0.1,0.1 h -0.2 -0.1 -0.1 -0.1 l -0.1,0.1 -0.1,0.1 0.1,0.1 v 0.2 l -0.1,0.1 -0.1,0.1 h -0.2 -0.2 -0.2 l -0.1,-0.1 -0.1,-0.1 -0.1,-0.1 h -0.1 l -0.8,-0.2 -0.4,-0.2 H 58.6 58.4 L 58.1,222.1 58,222 h -0.2 l -0.3,-0.1 v -0.1 l 0.2,-0.3 v -0.2 -0.2 l 0.1,-0.1 v -0.1 -0.2 l -0.1,-0.1 v -0.1 l -0.1,-0.1 -0.1,-0.1 h -0.1 v -0.1 h -0.1 -0.1 l -0.1,0.1 -0.1,0.1 v 0.1 h -0.1 -0.1 -0.1 l -0.1,-0.1 h -0.1 -0.1 l -0.1,-0.1 h -0.1 -0.1 v 0.1 l -0.1,0.1 h -0.1 l -0.1,-0.1 v -0.1 l -0.1,-0.1 -0.1,0.1 v 0.1 h -0.1 v 0.1 l -0.1,0.1 h -0.1 l -0.1,0.1 -0.1,0.1 v 0.1 l -0.1,0.1 -0.1,0.1 h -0.2 -0.1 -0.2 l -0.1,0.1 h -0.1 l -0.1,0.1 -0.1,0.1 -0.1,0.1 -0.2,0.1 h -0.1 l -0.1,-0.1 v -0.1 l -0.1,-0.1 -0.1,-0.1 -0.1,-0.1 H 53 52.9 52.8 l -0.1,0.1 v 0.1 0.1 h -0.1 -0.1 l -0.1,-0.1 h -0.1 -0.1 v -0.1 H 52.1 L 52,221.1 H 51.9 51.7 51.6 L 51.5,221 H 51.3 51.2 51 l -0.3,0.1 H 50.4 50.3 L 50.2,221 v -0.1 -0.1 l 0.1,-0.1 0.1,-0.1 -0.1,-0.1 H 50.2 50 l -0.1,-0.1 -0.1,-0.1 -0.3,-0.1 -0.2,-0.1 -0.2,-0.2 -0.1,-0.1 v -0.1 -0.1 -0.1 -0.1 -0.3 l -0.1,-0.2 v -0.2 l 0.1,-0.2 v -0.4 -0.1 -0.1 -0.1 l -0.1,-0.2 -0.1,-0.1 -0.1,-0.1 -0.1,-0.1 h -0.1 l -0.1,-0.1 h -0.1 l -0.1,0.1 v 0.1 0.1 0.1 h -0.1 v 0.1 H 48 l -0.1,0.1 -0.2,0.1 h -0.3 -0.1 l -0.6,-0.1 h -0.2 l -0.1,0.1 H 46.3 L 46,218 h -0.1 -0.1 l -0.2,-0.1 -0.2,-0.1 -0.2,-0.2 -0.1,-0.1 h -0.2 -0.2 l -0.2,0.1 h -0.1 -0.1 v 0.1 0.1 0.1 h -0.2 -0.3 l -0.2,-0.1 h -0.2 l -0.4,0.1 -0.4,0.1 -0.1,0.1 v 0.1 l -0.1,0.1 0.1,0.1 h 0.1 l 0.1,0.2 0.1,0.1 -0.1,0.1 v 0.1 l -0.1,0.3 h -0.1 l -0.1,0.2 -0.2,0.2 -0.2,0.1 -0.1,0.1 -0.3,0.1 -0.1,0.2 -0.1,0.2 -0.2,0.3 -0.1,0.2 H 41 l -0.1,0.1 -0.1,0.1 h -0.1 l -0.1,-0.1 -0.2,-0.1 h -0.1 -0.1 v 0.1 0.1 l -0.1,0.1 H 39.9 L 39.5,221 H 39 l -0.2,0.1 h -0.2 l -0.1,-0.3 h 0.1 v -0.1 -0.2 l -0.3,-0.3 -0.2,-0.1 H 38 37.9 37.7 37.6 l -0.2,0.1 -0.1,-0.1 L 37,220 36.8,219.9 H 36.5 36.4 36.2 36 35.9 l -0.2,0.1 v -0.1 h -0.1 l -0.1,-0.1 h -0.2 -0.1 -0.1 l -0.1,0.1 0.1,0.1 -0.1,0.1 v 0.1 l -0.1,0.1 h -0.2 l -0.1,0.1 h -0.1 l -0.2,0.1 -0.1,0.1 -0.1,-0.1 H 34 l -0.1,-0.1 -0.1,-0.1 h -0.1 -0.1 l -0.1,-0.1 -0.1,-0.1 V 220 l -0.1,-0.3 0.1,-0.2 v -0.1 l -0.1,-0.1 -0.1,-0.1 H 33.1 33 l -0.1,0.1 h -0.1 -0.1 v -0.1 -0.1 -0.1 -0.1 -0.1 l -0.1,-0.1 v -0.1 h -0.1 l -0.1,0.1 h -0.1 l -0.1,0.1 H 32.1 32 31.8 31.7 31.5 l -0.2,0.1 -0.1,0.1 -0.1,0.1 H 31 30.9 L 30.8,219 h -0.1 -0.1 -0.1 v -0.1 l -0.1,-0.2 v -0.2 -0.1 l -0.1,-0.1 H 30.2 30 29.9 l -0.2,-0.1 h -0.2 l -0.1,-0.1 v -0.1 -0.1 l -0.1,-0.1 h -0.1 l -0.1,-0.2 -0.1,-0.2 -0.2,-0.2 -0.2,-0.1 -0.1,-0.2 -0.1,-0.1 h -0.1 l -0.1,0.1 v -0.1 H 28.1 L 28,216.7 h -0.2 l -0.2,-0.1 h -0.2 v -0.1 h -0.1 v -0.1 -0.1 -0.1 H 27.2 27 l -0.2,-0.3 v -0.1 h 0.1 0.1 0.1 v -0.1 -0.1 -0.1 l -0.1,-0.1 -0.1,-0.1 h -0.1 -0.1 -0.1 -0.1 v 0.2 0.2 0.2 l -0.1,0.1 -0.2,0.2 -0.4,-0.1 -0.5,-0.2 -0.7,-0.3 -0.7,-0.3 -0.7,-0.1 h -0.6 l -0.3,0.2 -0.7,0.1 -0.7,0.3 -0.3,0.3 -0.3,0.2 -0.1,0.3 -0.1,0.2 -0.1,0.1 -0.2,-0.1 h -0.1 -0.2 l -0.3,0.2 -0.3,0.1 h -0.2 -0.1 v 0.1 l -0.1,0.1 -0.1,0.2 h -0.1 v 0.1 0.1 0.1 0.1 H 18.2 18.1 L 18,218 h -0.1 l -0.1,0.1 H 17.7 17.5 17.4 17.3 17.2 17.1 17 16.9 16.8 16.7 16.6 v 0.1 0.1 l -0.1,0.1 h -0.1 l -0.2,0.2 h -0.1 l -0.1,0.1 h 0.1 v 0.1 l -0.1,0.1 h -0.1 v 0.1 l -0.1,0.1 0.1,0.1 -0.1,0.1 0.1,0.1 v 0.1 0.1 h -0.1 -0.1 v 0.1 h -0.2 l -0.1,0.1 h -0.1 v 0.1 0.1 l -0.1,0.1 h -0.1 -0.3 -0.2 l -0.1,0.1 H 14.3 14.2 14.1 14 v 0.1 h -0.1 v 0.1 h -0.1 -0.1 -0.1 v 0.1 h -0.1 -0.3 l -0.8,-0.1 -0.5,0.1 -0.2,0.4 -0.1,0.6 v 0.1 0.1 h -0.1 v 0.1 h -0.1 -0.1 -0.1 v 0.1 l -0.2,0.2 h -0.1 v 0.2 0.1 0.1 h -0.1 -0.1 l -0.1,0.1 -0.1,0.1 -0.1,0.1 h -0.1 l -0.1,0.1 -0.1,0.1 -0.2,0.1 -0.3,0.2 -0.1,0.2 -0.1,0.2 -0.1,0.1 -0.1,0.1 H 9.1 9 l -0.1,0.2 v 0.1 0.1 0.1 0.2 l 0.1,0.1 0.1,0.1 -0.1,0.2 -0.1,0.1 -0.1,0.1 v 0.1 l -0.1,0.1 H 8.6 l -0.1,0.1 v 0.1 H 8.4 8.3 8.2 L 8,225.7 H 7.9 v 0.1 0.1 L 7.8,226 v 0.1 0.2 0.1 l -0.1,0.1 -0.1,0.1 h 0.1 l 0.1,0.1 v 0.1 H 7.9 8 v 0.1 l -0.1,-0.1 v 0.1 l -0.1,-0.1 v 0.1 H 7.7 v 0.1 h 0.1 l -0.1,0.1 -0.1,0.1 v 0.1 H 7.5 v 0.1 h 0.1 0.1 0.1 v 0.1 H 7.7 v 0.1 0.1 h 0.1 0.1 v 0.1 0.1 L 7.8,228 v -0.1 H 7.7 v 0.1 l 0.1,0.1 0.1,0.1 v 0.2 0.2 0.1 H 7.8 l -0.1,0.1 v 0.1 h 0.1 v 0.1 0.1 0.1 h 0.1 v 0.1 H 7.8 7.7 7.6 v 0.1 l -0.1,0.1 -0.1,0.1 v 0.1 0.1 0.1 L 7.3,230 v 0.1 0.1 H 7.2 7.1 v -0.1 H 7 L 6.9,230 H 6.8 6.6 6.5 6.4 L 6.3,229.9 H 6.2 6.1 6 L 5.9,230 5.8,230.1 H 5.7 L 5.6,230 H 5.5 v -0.1 L 5.4,229.8 H 5.3 L 5.1,229.7 5,229.6 4.9,229.5 H 4.8 4.7 4.6 4.5 4.4 4.3 4.2 4 3.9 l -0.1,0.1 H 3.7 3.6 l -0.1,-0.1 -0.1,0.1 H 3.3 l -0.1,0.1 H 3.1 v 0.1 H 3 v 0.1 H 3.1 V 230 H 3 v 0.1 h 0.1 v 0.1 0.1 l 0.1,0.1 v 0.1 0.1 0.1 0.1 0.1 0.1 l -0.1,0.1 v 0.1 H 3 2.9 L 2.8,231.1 V 231 L 2.7,230.9 H 2.6 2.5 v -0.1 H 2.4 2.3 2.2 L 2.1,230.7 H 2 1.9 1.8 1.7 1.6 1.5 v 0.1 l -0.1,0.1 v 0.1 0.1 0.3 0.1 0.1 0.1 0.1 l -0.1,0.1 v 0.1 0.1 0.2 0.1 0.1 0.1 0.1 0.1 H 1.2 L 1.1,232.7 H 1 l -0.1,-0.1 -0.2,-0.1 v -0.1 H 0.6 v -0.1 H 0.5 0.3 l -0.1,0.1 h 0.1 v 0.1 l 0.1,0.1 0.1,0.2 0.10000001,0.3 v 0.1 0.1 0.1 0.2 L 0.5,233.7 v 0.1 l -0.1,0.2 -0.2,0.3 -0.1,0.2 -0.1,0.1 v 0.1 0.2 l 0.1,0.2 h 0.1 v 0.1 h 0.1 0.40000001 l 0.2,0.1 H 1 l 0.1,0.1 v 0.1 0.3 l 0.1,0.2 0.1,0.2 0.1,0.2 v 0.2 l 0.2,0.1 0.1,0.1 0.2,0.2 0.1,0.2 v 0.1 l 0.1,0.1 0.5,0.5 0.1,0.1 H 3 l 0.7,0.1 h 0.1 0.1 v 0.1 0.1 0.1 l -0.1,0.4 v 0.1 0.1 h 0.1 l 0.2,0.1 0.3,0.1 H 4.6 4.8 4.9 5 5.2 5.3 v 0.1 h 0.1 l 0.3,0.2 0.3,0.1 h 0.2 l 0.3,0.2 h 0.3 l 0.1,0.1 v 0.1 l 0.1,0.1 v 0.1 l 0.1,0.1 0.1,0.1 h 0.1 l 0.4,0.2 h 0.2 l 0.1,0.1 h 0.1 l 0.1,0.1 0.1,0.2 h 0.1 0.1 0.1 l 0.1,-0.1 H 8.9 9 9.1 l 0.2,-0.1 0.1,-0.1 0.3,-0.1 h 0.2 0.2 l 0.2,0.1 0.3,0.1 h 0.2 l 0.1,0.1 v 0.1 l -0.1,0.1 v 0.1 l 0.1,0.1 h 0.1 0.2 0.1 v -0.1 h -0.1 l -0.1,-0.1 V 241 l 0.1,-0.1 h 0.2 l 0.1,-0.1 h 0.1 0.1 v -0.1 l 0.2,-0.2 0.3,-0.1 0.3,-0.1 v 0.1 h 0.1 v -0.1 l 0.1,-0.1 h 0.1 0.1 0.2 0.1 0.1 0.1 l 0.1,-0.1 V 240 h 0.1 l 0.1,-0.1 h 0.2 0.1 v -0.1 h 0.1 l 0.2,-0.2 0.2,-0.4 0.1,-0.1 0.1,-0.1 h 0.1 v -0.2 -0.1 -0.1 h -0.1 v -0.1 -0.1 l 0.1,-0.1 H 15 l 0.1,-0.1 h 0.2 l 0.2,0.1 0.3,0.1 0.2,0.1 0.1,0.1 0.1,0.1 0.1,0.1 h 0.1 l 0.3,0.1 0.1,0.1 0.1,0.1 H 17 v 0.1 l -0.1,0.1 v 0.1 0.1 l 0.1,0.1 h 0.1 0.1 l 0.4,-0.1 0.5,-0.1 h 0.2 0.1 l 0.1,0.1 0.1,0.2 0.1,0.1 h 0.1 0.1 l 0.1,-0.1 0.2,-0.1 h 0.1 0.1 0.2 0.2 l 0.1,0.1 H 20 l 0.1,0.1 h 0.1 0.2 l 0.2,-0.1 h 0.2 l 0.1,-0.1 v -0.1 h 0.1 0.1 v -0.1 h 0.1 0.1 l 0.2,-0.1 0.4,-0.5 0.3,-0.3 v -0.1 l 0.1,-0.1 v -0.1 l 0.2,-0.1 h 0.1 l 0.1,-0.1 h 0.2 0.1 0.1 0.1 0.1 l 0.1,0.1 h 0.1 l 0.1,0.1 h 0.1 v 0.1 0.1 l -0.1,0.2 v 0.1 0.1 l -0.2,0.2 -0.1,0.1 h -0.1 l -0.1,0.1 H 23 l -0.1,0.1 v 0.1 l 0.2,0.2 v 0.1 0.1 l 0.1,0.2 v 0.1 h 0.2 l 0.5,0.1 0.4,0.1 0.3,0.2 0.7,0.3 0.7,0.3 1.3,0.5 0.5,0.1 h 0.5 0.6 l 1.1,0.1 h 0.9 l 0.6,-0.2 0.3,-0.1 0.3,-0.4 h 0.1 l 0.1,-0.1 h 0.1 0.1 0.1 v 0.1 h 0.1 v 0.1 0.1 0.1 l 0.1,0.2 0.3,0.2 1,0.8 0.6,0.4 0.9,0.7 0.7,0.7 0.8,1 0.1,0.1 0.3,0.2 0.1,0.1 0.1,0.1 v 0.1 0.1 l -0.1,0.2 0.1,0.2 -0.1,0.2 v 0.1 h 0.1 0.1 v 0.1 l 0.1,0.1 0.1,0.1 0.1,0.1 h 0.1 0.1 l 0.1,0.2 v 0.1 0.1 0.1 l 0.1,0.1 v 0.2 l -0.1,0.1 h 0.1 l 0.1,0.2 0.2,0.2 h 0.1 0.1 v 0.1 h -0.1 -0.1 v 0.1 0.1 l 0.1,0.1 H 39 v -0.1 h 0.2 v 0.1 l 0.1,0.1 v 0.2 l 0.2,0.1 0.1,0.1 v 0.1 0.1 h 0.1 v 0.1 h 0.1 0.1 l 0.1,0.1 0.1,0.1 0.1,0.1 0.1,0.1 v 0.1 0.1 h 0.1 l 0.2,0.1 0.1,0.1 h -0.1 -0.1 v 0.1 h 0.1 l 0.3,0.2 H 41 l 0.2,0.1 V 251 H 41.1 41 v 0.1 h 0.1 l 0.1,0.1 h 0.3 0.1 0.1 0.1 l 0.3,0.2 h 0.1 0.1 l 0.1,0.1 h -0.1 v 0.1 0.1 0.1 h 0.1 0.1 0.1 v 0.1 0.1 0.1 h -0.1 -0.1 v 0.1 h 0.1 v 0.1 h 0.1 0.1 l 0.1,-0.1 h 0.3 0.1 l 0.1,-0.1 h 0.1 0.1 0.1 0.1 v -0.1 0.1 0.1 0.1 0.1 l 0.1,0.1 h 0.1 l 0.1,0.1 v 0.2 0.2 0.1 h 0.1 v 0.1 h 0.1 l 0.1,0.1 h 0.1 0.1 l 0.1,0.1 h 0.1 0.1 v -0.1 h -0.1 -0.1 l -0.1,-0.1 h 0.1 v -0.1 h 0.1 0.1 0.1 0.2 0.2 0.1 v 0.1 H 45.3 45.2 45.1 45 v 0.1 0.1 h 0.1 l 0.1,0.1 0.1,0.1 0.2,0.3 0.2,0.1 0.1,0.1 0.1,0.1 0.2,0.1 v -0.1 h 0.1 v 0.1 h 0.1 l 0.1,0.1 v 0.1 h 0.1 v 0.1 h 0.1 v 0.1 0.1 l 0.1,0.1 -0.1,0.2 0.1,0.1 v 0.1 0.1 l -0.1,0.2 h -0.1 -0.1 -0.1 -0.1 l -0.1,0.1 h 0.1 v 0.1 h 0.1 0.1 v 0.1 L 46.3,256 H 46.2 46.1 46 l -0.1,0.1 v 0.2 h 0.1 0.1 0.1 0.1 v 0.1 0.1 0.1 h -0.1 v 0.1 0.1 l -0.1,0.1 v 0.1 l 0.1,0.1 V 257 h 0.1 0.1 0.1 l 0.1,0.1 v 0.1 h -0.1 l -0.1,0.1 v 0.1 0.1 0.1 h 0.1 v 0.1 h 0.2 v 0.1 l 0.1,0.1 v 0.1 h 0.1 l 0.2,0.1 v 0.1 h 0.1 l 0.1,0.1 v 0.1 h 0.1 l 0.1,0.1 h 0.1 0.1 l 0.1,0.1 v 0.1 l 0.1,0.1 0.1,0.1 0.3,0.4 v 0.1 l 0.1,0.1 0.2,0.1 v 0.1 h 0.1 l 0.1,0.1 v 0.1 0.1 l 0.1,0.1 0.1,0.2 0.1,0.2 v 0.1 0.1 h 0.1 l 0.1,0.1 v 0.1 h 0.2 0.1 l 0.3,-0.1 H 50 v -0.1 -0.1 -0.1 h 0.1 0.1 0.1 l 0.2,0.3 0.1,0.1 0.2,0.1 0.1,0.1 0.1,0.1 0.1,0.1 h 0.1 0.2 l 0.3,-0.1 0.2,0.1 H 52 l 0.1,0.1 v 0.1 l 0.1,0.2 v 0.1 h 0.1 l 0.1,-0.1 v -0.1 l 0.1,-0.1 v -0.1 h 0.1 l 0.1,-0.1 h 0.1 0.6 v -0.1 h 0.1 v -0.1 h 0.1 0.1 l 0.1,0.1 0.1,0.1 0.2,0.1 h 0.1 l 0.1,0.1 h 0.1 0.2 v -0.1 -0.1 h 0.1 l 0.1,-0.1 0.1,-0.1 H 55 l 0.1,-0.1 -0.1,-0.1 -0.2,-0.1 -0.4,-0.2 -0.1,-0.1 H 54.2 54.1 54 l -0.1,-0.1 v -0.1 l 0.1,-0.1 0.1,-0.1 0.3,-0.1 v -0.1 l 0.1,-0.1 v -0.1 -0.1 h 0.1 0.1 l 0.1,-0.1 h 0.1 l 0.1,-0.1 h 0.1 v -0.1 l 0.1,-0.1 h 0.1 l 0.2,-0.1 h 0.1 l 0.1,0.1 h 0.1 l 0.2,0.3 0.1,0.1 0.2,0.1 0.2,0.1 0.2,0.1 0.2,0.2 0.1,0.1 v 0.1 0.1 l -0.1,0.1 v 0.1 0.1 0.1 H 57 l 0.1,0.1 0.1,-0.1 0.1,-0.1 0.1,-0.1 v -0.1 -0.1 l 0.1,-0.1 h 0.1 0.1 0.1 l 0.2,-0.1 h 0.2 0.1 l 0.1,0.1 0.1,0.1 0.1,0.1 v 0.1 l -0.1,0.1 -0.1,0.2 v 0.2 l -0.1,0.3 v 0.2 0.2 l 0.1,0.3 0.1,0.2 0.1,0.1 0.2,0.1 h 0.2 0.1 l 0.1,-0.1 0.1,-0.1 h 0.1 l 0.2,-0.2 0.1,-0.2 0.3,-0.1 v -0.1 l 0.2,-0.2 h 0.1 0.1 0.1 v 0.1 0.1 l -0.2,0.2 0.1,0.2 v 0.1 h 0.1 v 0.1 l 0.1,0.1 h 0.1 0.1 l 0.1,-0.1 0.1,-0.2 0.1,-0.2 v -0.3 l 0.1,-0.2 0.1,-0.2 v -0.1 l 0.1,-0.1 v -0.1 l 0.1,-0.2 0.1,-0.1 0.1,-0.1 0.1,-0.1 0.2,-0.2 0.1,-0.1 h 0.1 l 0.1,-0.1 h 0.1 l 0.1,0.1 h 0.1 l 0.1,0.1 0.1,0.1 h 0.1 l 0.1,-0.1 0.1,-0.1 0.2,-0.1 0.1,-0.1 0.3,-0.2 0.1,-0.1 0.2,-0.1 h 0.1 0.1 v 0.1 l 0.1,0.3 h 0.1 v 0.1 l 0.1,0.1 0.1,0.1 h 0.1 0.1 v 0.1 0.1 0.1 0.1 l -0.1,0.1 v 0.1 0.1 l 0.1,0.1 H 65 l 0.2,-0.2 0.1,-0.1 0.1,-0.1 h 0.2 0.1 0.1 0.1 0.1 l 0.2,-0.2 0.2,-0.1 0.1,-0.1 0.2,-0.1 0.2,-0.1 h 0.1 0.1 0.1 0.1 0.1 0.1 0.1 l 0.1,-0.1 0.1,-0.1 0.1,-0.1 H 68 l 0.1,-0.1 h 0.1 l 0.1,0.1 0.4,0.1 v 0.1 h 0.1 l 0.1,0.1 h 0.1 0.1 v 0.1 h 0.1 l 0.1,-0.1 v -0.1 -0.1 -0.1 -0.1 -0.1 -0.1 -0.2 h 0.1 0.2 0.2 l 0.1,0.1 h 0.2 l 0.1,0.1 0.1,-0.1 h 0.1 l 0.2,-0.1 h 0.2 l 0.3,-0.1 h 0.1 0.1 0.1 l 0.2,-0.2 0.1,-0.1 0.1,-0.1 H 72 v -0.1 h 0.1 v -0.1 l 0.1,-0.1 h 0.1 0.1 v 0.1 0.1 0.1 l 0.1,0.2 0.1,0.2 v 0.1 l 0.1,0.1 0.2,0.1 h 0.2 l 0.2,0.1 h 0.1 l 0.1,0.1 0.1,0.1 0.1,0.2 0.1,0.1 0.2,0.1 h 0.1 0.3 0.1 0.1 l 0.1,0.1 h 0.1 v 0.1 l 0.1,0.1 0.2,0.2 h 0.3 l 0.1,0.1 0.1,0.1 v 0.2 l 0.1,0.2 v 0.1 h 0.2 l 0.1,0.1 0.1,0.1 0.4,0.2 0.1,0.1 0.1,0.1 v 0.2 l 0.3,0.4 0.1,0.1 0.1,0.1 0.1,0.1 0.2,-0.1 h 0.2 0.2 0.3 0.1 0.2 0.1 l 0.1,0.1 0.1,0.1 0.1,0.1 0.2,0.1 0.1,0.1 0.1,0.1 0.2,0.3 -0.1,0.1 v 0.1 0.1 l -0.1,0.1 v 0.1 0.1 l -0.1,0.3 0.1,0.4 v 0.1 h 0.1 0.2 l 0.3,0.1 0.2,0.1 h 0.1 l 0.1,-0.1 v -0.1 -0.1 h 0.1 0.1 l 0.1,0.2 v 0.1 0.2 l -0.1,0.3 -0.1,0.2 -0.4,0.8 v 0.1 l 0.1,0.1 h 0.1 l 0.2,-0.1 h 0.1 v -0.2 h 0.1 0.1 l 0.1,0.1 0.1,0.1 0.1,0.1 h 0.1 v 0.1 h 0.1 v 0.1 h 0.1 l 0.1,0.1 h 0.1 l 0.1,0.1 h 0.1 v 0.1 h 0.1 v 0.1 l 0.1,0.1 v 0.2 l 0.1,0.1 v 0.2 l 0.1,0.1 v 0.1 h 0.1 l 0.2,0.1 0.1,0.1 v 0.1 l 0.1,0.2 v 0.1 0.1 h -0.1 v 0.1 0.2 l -0.1,0.2 v 0.2 l -0.1,0.3 v 0.1 l -0.1,0.1 -0.1,0.2 -0.2,0.1 -0.2,0.4 v 0.1 h -0.1 -0.1 l -0.1,0.2 0.1,0.1 0.2,0.8 0.1,0.2 0.1,0.1 H 82 v 0.1 0.2 0.2 0.1 l 0.1,0.1 h 0.1 0.1 v -0.1 -0.1 -0.1 l -0.1,-0.1 v -0.1 -0.1 h 0.1 v -0.1 h 0.1 0.1 l 0.2,0.1 0.1,0.1 0.1,0.1 v 0.1 0.1 0.1 l -0.1,0.4 v 0.2 0.2 l 0.1,0.1 0.1,0.1 0.1,0.1 0.1,0.1 0.1,0.1 0.1,0.1 0.1,0.1 h -0.1 v 0.1 0.1 h 0.1 v 0.1 0.1 0.1 0.1 0.1 h 0.1 0.1 v -0.1 l 0.1,-0.2 h 0.1 0.1 0.1 l 0.1,0.1 v 0.1 0.1 0.1 h 0.1 0.1 l 0.1,0.1 h 0.1 v 0.1 0.1 0.1 0.1 0.1 0.1 0.1 h 0.1 v 0.1 0.1 0.1 l 0.2,-0.1 h 0.2 0.1 0.1 0.1 v 0.1 0.1 0.1 0.1 l 0.1,0.1 0.1,0.1 h 0.1 0.2 0.1 l 0.1,0.1 v 0.1 l 0.1,0.1 v 0.1 l -0.1,0.1 -0.1,0.1 h -0.1 v 0.1 h 0.1 0.1 v 0.1 0.1 0.1 l 0.1,0.2 v 0.1 h 0.2 0.1 V 278 l 0.1,-0.1 h -0.1 l -0.1,-0.1 v -0.1 -0.1 h 0.1 v -0.1 h 0.1 v 0.1 l 0.1,0.1 v 0.1 l 0.1,0.1 h 0.1 L 87,278 h 0.1 0.1 l 0.1,-0.1 h -0.1 v -0.1 -0.1 h -0.1 v -0.1 l 0.1,-0.1 0.1,0.1 0.1,0.1 v -0.1 h 0.1 l 0.1,-0.1 0.1,-0.1 h 0.1 0.1 l -0.1,0.1 v 0.1 h 0.1 0.1 0.1 v 0.1 h 0.1 0.1 v -0.1 -0.1 h 0.1 l 0.1,0.1 h 0.1 l 0.2,-0.1 h 0.1 0.1 0.1 v 0.1 l 0.1,0.1 0.1,0.2 h 0.1 v 0.1 0.1 h 0.1 0.1 l 0.1,-0.1 h 0.1 v 0.1 0.1 0.1 l 0.1,0.1 0.1,0.1 h 0.1 0.20001 0.19999 0.1 0.20001 L 91,278.6 v 0.1 l 0.1,0.1 h 0.1 l 0.2,0.1 0.2,0.1 0.1,0.1 0.1,0.1 0.1,0.1 0.2,0.1 0.2,0.1 0.2,0.1 0.1,0.2 v 0.1 0.2 l -0.1,0.1 -0.1,0.1 v 0.2 0.1 l 0.2,0.1 0.3,0.1 h 0.2 0.2 0.3 l 0.2,0.1 h 0.2 0.2 l 0.4,0.1 h 0.2 l 0.2,0.1 0.1,0.1 v 0.1 l -0.1,0.2 v 0.1 0.1 l 0.1,0.1 h 0.1 0.2 0.2 0.1 l 0.2,-0.1 h 0.1 0.1 0.2 l 0.2,-0.1 0.1,-0.1 h 0.1 0.1 0.1 l 0.1,0.1 0.1,0.1 v 0.1 0.1 l 0.1,0.1 v 0.1 l 0.2,0.1 v 0.1 h -0.1 l -0.1,0.1 v 0.1 l 0.2,0.1 0.1,0.2 0.2,0.1 h 0.1 l 0.1,-0.2 0.3,-0.1 0.2,-0.5 V 282 l -0.4,-0.1 -0.1,-0.1 -0.1,-0.3 -0.2,-0.2 0.1,-0.1 0.5,-0.2 0.3,0.2 v -0.7 l 0.6,-0.5 0.9,-0.2 1,-0.1 1.7,1.8 1,-2.5 1,0.9 2,2.1 h 3 l 5.6,-4 2.5,3 h 3 l 10.5,-4 4.1,2 1,3.5 3,1 -1,-2.5 3.5,-4 -3.1,-4.4 1.1,-6.4 4.4,-2.2 8.6,-4.6 -1,-8.00001 13.1,-5.1 5.5,1.1 0.5,-5.1 2.5,-0.5 0.8,-1 -0.2,-0.8 0.1,-0.5 v -1 l -0.2,-0.3 -0.5,-0.2 -0.8,-1.6 -0.2,-0.7 -0.1,-0.3 -0.3,-1.7 0.3,-0.9 0.4,-0.9 0.5,-0.7 0.2,-0.3 0.1,-0.4 0.2,-0.3 0.3,-0.3 1.4,-0.4 0.7,-0.2 h 0.3 l 0.2,-0.1 0.1,-0.1 v -0.1 l 0.1,-0.1 0.1,-0.1 v -0.1 -0.1 l 0.1,-0.1 H 177 v -0.1 l 0.2,-0.1 0.2,-0.1 0.1,-0.2 0.1,-0.2 v -0.2 -0.1 l 0.3,-0.4 v -0.3 l 0.5,-0.5 0.4,-0.1 0.5,-0.3 0.4,-0.2 0.2,-0.3 0.5,-0.2 0.2,-0.1 0.1,-0.1 h 0.1 l 0.2,-0.1 h 0.1 l 0.1,-0.1 0.1,0.1 h 0.1 0.1 0.2 0.1 l 0.1,-0.1 h 0.1 0.1 l 0.4,-1 0.3,-0.1 -0.1,-0.1 v -0.1 l 0.1,-0.1 v -0.1 l 0.2,-0.1 v -0.2 l 0.1,-0.8 v -0.4 l -0.2,-0.5 -0.2,-0.7 -0.7,-1 -0.4,-0.7 -0.1,-0.4 0.1,-0.3 v -0.1 l 0.4,-0.5 0.7,-0.7 1.3,-0.7 0.3,-0.3 0.7,-1.2 1.2,-0.9 0.3,-0.4 0.2,-0.3 0.1,-0.7 -5.2,-1 -0.1,-0.4 -0.2,-0.4 -0.5,-0.7 -0.2,-0.2 -0.1,-0.1 -0.2,-0.4 -0.2,-0.7 -0.1,-0.5 -0.2,-0.6 v -0.4 l -0.1,-0.2 -0.1,-0.2 -0.2,-0.2 -0.1,-0.2 -0.2,-0.2 -0.4,-0.2 -0.2,-0.1 v -0.1 l -0.1,-0.1 h -0.1 l -0.1,-0.1 v -0.1 l -0.1,-0.1 -0.1,-0.1 -0.1,0.1 -0.2,-0.1 h -0.1 v -0.1 -0.1 -0.1 -0.1 l -0.1,-0.1 h -0.2 -0.1 l -0.2,-0.1 h -0.1 l -0.1,-0.2 -0.1,-0.1 -0.1,-0.1 -0.1,-0.1 -0.1,0.1 h -0.1 -0.1 v -0.1 l -0.1,-0.1 v -0.1 h -0.2 -0.1 l -0.1,-0.1 v -0.1 l -0.1,-0.1 -0.1,-0.1 h -0.2 -0.1 -0.1 v -0.1 l -0.1,-0.1 v -0.1 l 0.1,-0.1 v -0.1 l -0.1,-0.1 -0.1,-0.2 v -0.2 -0.2 l -0.1,-0.2 0.1,-0.1 -0.1,-0.2 v -0.2 l -0.1,-0.1 -0.1,-0.1 h -0.2 v -0.1 l -0.1,-0.1 0.1,-0.1 v -0.3 l -0.1,-0.1 -0.3,-0.2 -0.2,-0.1 -0.2,-0.2 -0.2,-0.1 -0.1,-0.1 v -0.1 -0.1 -0.1 l -0.1,-0.1 h -0.1 -0.1 l -0.2,-0.1 h -0.1 l -0.1,-0.1 -0.1,-0.1 v -0.2 l -0.1,-0.1 -0.1,-0.1 -0.2,0.1 -0.1,0.1 h -0.2 l -0.1,-0.2 0.1,-0.1 -0.1,-0.1 -0.1,-0.1 h -0.1 -0.1 l -0.1,-0.1 -0.1,-0.1 v -0.2 -0.1 -0.1 -0.1 l -0.1,-0.1 H 171 v 0.1 h -0.1 -0.1 l -0.1,0.1 -0.1,0.1 h -0.1 l -0.1,0.1 -0.1,0.1 h -0.1 l -0.1,-0.1 v -0.1 -0.1 h -0.2 -0.1 l -0.1,-0.1 v -0.1 -0.1 l 0.1,-0.1 v -0.1 l -0.1,-0.1 v -0.1 h -0.1 v 0.1 l -0.1,0.1 -0.2,0.2 v 0.1 0.1 l -0.1,0.1 h -0.1 l -0.1,0.1 v 0.1 h -0.1 v 0.1 0.1 l -0.2,0.2 -0.3,0.1 -0.1,0.1 -0.1,0.1 h -0.1 v 0.1 0 z"
     style="display:inline;fill:#000000;fill-opacity:1;fill-rule:evenodd;stroke:none;stroke-width:0.982677;stroke-linecap:square;stroke-linejoin:bevel;stroke-miterlimit:10;stroke-dasharray:none;stroke-opacity:1"
     id="jardim_santa_felicia" />
  <path
     d="m 48.30004,217.2 h 0.1 l 0.1,0.1 h 0.1 l 0.1,0.1 0.1,0.1 0.1,0.1 0.1,0.2 v 0.1 0.1 0.1 0.4 l -0.1,0.2 v 0.2 l 0.1,0.2 v 0.3 0.1 0.1 0.1 0.1 l 0.1,0.1 0.2,0.2 0.2,0.1 0.3,0.1 0.1,0.1 0.1,0.1 h 0.2 0.1 l 0.1,0.1 -0.1,0.1 -0.1,0.1 v 0.1 0.1 l 0.1,0.1 h 0.1 0.3 l 0.3,-0.1 h 0.2 0.1 0.2 l 0.1,0.1 h 0.1 0.2 0.1 l 0.1,0.1 h 0.1 v 0.1 h 0.1 0.1 l 0.1,0.1 h 0.1 0.1 v -0.1 -0.1 l 0.1,-0.1 h 0.1 0.1 0.2 l 0.1,0.1 0.1,0.1 0.1,0.1 v 0.1 l 0.1,0.1 h 0.1 l 0.2,-0.1 0.1,-0.1 0.1,-0.1 0.1,-0.1 h 0.1 l 0.1,-0.1 h 0.2 0.1 0.2 l 0.1,-0.1 0.1,-0.1 v -0.1 l 0.1,-0.1 0.1,-0.1 h 0.1 l 0.1,-0.1 v -0.1 h 0.1 v -0.1 l 0.1,-0.1 0.1,0.1 v 0.1 l 0.1,0.1 h 0.1 l 0.1,-0.1 v -0.1 h 0.1 0.1 l 0.1,0.1 h 0.1 0.1 l 0.1,0.1 h 0.1 0.1 0.1 v -0.1 l 0.1,-0.1 0.1,-0.1 h 0.1 0.1 v 0.1 h 0.1 l 0.1,0.1 0.1,0.1 v 0.1 l 0.1,0.1 v 0.2 0.1 l -0.1,0.1 v 0.2 0.2 l -0.2,0.3 v 0.1 l 0.3,0.1 h 0.2 l 0.1,0.1 0.3,0.1 h 0.2 0.1 l 0.4,0.2 0.8,0.2 h 0.1 l 0.1,0.1 0.1,0.1 0.1,0.1 h 0.2 0.2 0.2 l 0.1,-0.1 0.1,-0.1 v -0.2 l -0.1,-0.1 0.1,-0.1 0.1,-0.1 h 0.1 0.1 0.1 0.2 l 0.1,-0.1 V 222 l 0.1,-0.1 v -0.1 l 0.1,-0.2 0.1,-0.1 0.1,-0.1 0.1,-0.1 v -0.1 h 0.1 0.1 0.1 l 0.1,0.1 0.1,0.1 0.1,0.1 h 0.1 l 0.1,-0.1 v -0.1 l -0.1,-0.1 -0.1,-0.1 V 221 l 0.1,-0.1 0.1,-0.1 0.1,-0.1 0.1,-0.1 0.7,-0.4 0.1,-0.1 h 0.1 l 0.1,0.1 v 0.1 l 0.2,0.1 0.1,0.1 h 0.1 l 0.1,0.2 0.1,0.1 h 0.2 l 0.1,0.1 0.1,0.1 0.1,0.1 0.4,0.1 0.1,0.1 h 0.2 l 0.2,-0.1 h 0.2 l 0.2,-0.1 h 0.1 V 221 l 0.1,-0.2 0.1,-0.1 0.2,-0.1 0.1,-0.1 0.1,-0.3 0.1,-0.2 0.1,-0.1 h 0.1 0.2 0.1 0.2 l 0.1,0.1 0.1,0.1 v 0.1 h 0.1 l 0.1,-0.1 0.1,-0.1 v -0.1 l 0.1,-0.2 0.1,-0.2 0.1,-0.1 0.1,-0.1 0.1,-0.1 0.2,-0.1 0.2,-0.1 0.1,0.1 h 0.1 0.1 0.2 0.1 0.1 0.1 0.1 V 219 l 0.1,-0.1 v -0.1 l 0.1,-0.2 0.1,-0.1 v -0.1 l 0.1,-0.1 0.1,-0.1 0.1,-0.1 h 0.1 0.1 l -0.1,-0.1 -0.1,-0.1 h -0.1 l -0.1,-0.1 v -0.1 l 0.2,-0.1 h 0.1 l 0.2,-0.1 v -0.1 l 0.1,-0.1 h 0.1 v -0.1 h 0.1 l 0.1,-0.1 0.1,-0.1 h 0.1 v 0.1 0.1 0.1 h 0.1 l 0.1,0.1 h 0.1 l 0.2,0.1 h 0.2 l 0.1,0.1 h 0.2 0.1 0.1 l 0.2,0.1 h 0.3 l 0.2,0.1 h 0.1 0.1 l 0.1,-0.1 h 0.1 0.1 0.1 v 0.1 h 0.1 v 0.1 l 0.1,0.1 v 0.1 h 0.1 v 0.1 h 0.1 l 0.1,-0.1 0.1,-0.1 v 0.1 l 0.1,0.1 v 0.1 0.1 l 0.1,0.1 v 0.1 0.1 l 0.1,0.1 v 0.1 l 0.1,0.1 v 0.1 l 0.1,0.1 v 0.1 h 0.1 v 0.1 l 0.1,0.1 v 0.1 h 0.1 0.1 v 0.1 h 0.1 v 0.1 h 0.1 v 0.1 h 0.1 v 0.1 0.1 l 0.1,0.2 0.1,0.1 v 0.1 l 0.1,0.1 v 0.1 0.2 0.2 l -0.1,0.3 v 0.3 l 0.1,0.2 0.1,0.3 0.2,0.5 0.1,0.2 0.1,0.3 0.1,0.2 0.2,0.2 0.1,0.2 0.2,0.2 v 0.2 l 0.1,0.1 0.1,0.2 v 0.2 l 0.1,0.1 0.2,0.1 0.1,0.1 v 0.1 0.1 0.1 l 0.1,0.1 0.1,0.1 h 0.1 v 0.1 0.1 h 0.1 v 0.1 0.1 h 0.1 v 0.1 -0.1 h 0.1 v 0.1 0.1 h 0.1 v 0.1 h 0.1 v 0.1 0.1 0.1 0.1 h 0.1 l -0.1,0.1 v -0.1 0.1 0.1 h 0.1 l 0.1,0.1 0.1,0.1 v 0.1 h 0.1 v 0.1 h 0.1 v 0.1 0.1 0.1 0.1 l 0.1,0.2 v 0.1 l 0.1,0.1 h 0.1 v 0.1 h 0.1 v 0.1 h 0.1 v 0.1 0.1 h -0.1 l 0.1,0.1 v 0.1 h 0.1 0.1 v 0.1 h 0.1 l 0.1,0.1 h 0.1 v 0.1 0.1 h 0.1 l 0.1,0.1 h 0.1 0.1 v 0.1 l 0.1,0.1 v 0.1 h 0.1 0.1 0.1 v 0.1 -0.1 0.1 h 0.1 v 0.1 l 0.1,0.1 v 0.1 h 0.1 v 0.1 h 0.1 l 0.1,0.1 0.3,0.2 h 0.1 v 0.1 0.1 h -0.1 l 0.1,0.1 -0.1,0.1 h 0.1 v 0.1 h 0.1 -0.1 0.1 v 0.1 h 0.1 v 0.1 h 0.1 v 0.1 h 0.1 0.1 v 0.1 h 0.1 0.1 0.1 v 0.1 h 0.1 0.1 0.1 v 0.1 h 0.1 v 0.1 h 0.1 l 0.1,0.1 v 0.1 h 0.1 v 0.1 h 0.1 0.1 v 0.1 h 0.1 0.1 0.1 v 0.1 h 0.1 -0.1 v 0.1 0.1 h 0.1 v 0.1 h 0.1 v 0.1 h 0.1 v -0.1 l 0.1,0.1 h 0.1 v 0.1 0.1 h 0.1 0.1 0.1 l 0.1,0.1 h 0.1 0.1 v 0.1 h 0.1 0.1 v 0.1 l 0.1,-0.1 v 0.1 l 0.1,-0.1 h 0.1 v 0.1 l 0.1,0.1 v -0.1 0.1 h 0.1 v 0.1 h 0.1 v 0.1 h 0.1 v 0.1 0.1 l 0.1,0.1 h 0.1 v 0.1 l 0.1,0.1 v 0.2 l 0.3,0.3 0.2,0.1 0.20001,0.1 h 0.19999 0.2 0.1 v 0.1 l 0.29999,0.3 0.1,0.2 0.4,0.2 0.3,0.1 0.1,0.2 0.1,0.1 v 0.1 0.1 h 0.1 v 0.1 0.2 h 0.1 0.1 l 0.1,0.1 h 0.1 0.1 v 0.1 0.1 h 0.1 v 0.1 h 0.1 l 0.2,0.1 v 0.1 h 0.1 l 0.1,0.1 v 0.1 0.1 h 0.1 0.2 l 0.4,0.1 0.1,0.1 0.1,0.1 h 0.1 0.19998 v 0.1 l 0.6,0.3 0.9,0.2 h 0.1 l 0.5,0.9 0.6,0.9 0.5,0.6 0.1,0.3 L 95,241 l 0.1,0.3 0.3,0.4 0.3,0.2 0.2,0.2 0.2,0.3 0.3,0.1 0.2,0.2 0.20001,0.3 0.1,0.4 0.1,0.1 0.2,0.1 h 0.1 l 0.1,0.2 0.1,0.1 0.2,0.3 0.1,0.3 L 98,244.6 v 0.3 l 0.1,0.2 0.1,0.1 0.2,0.2 0.2,0.2 0.5,0.6 0.500002,0.4 0.700008,0.6 0.69999,0.6 1.9,1.4 0.7,0.4 0.5,0.1 h 0.70001 l 1.39999,-0.1 0.2,-0.2 0.7,-0.9 0.3,-0.4 0.3,-0.2 0.3,-0.4 0.2,-0.4 0.9,-1.9 0.1,-0.1 0.2,-0.3 0.1,-0.1 0.30001,-0.1 0.1,-0.1 h 0.2 l 0.5,-0.2 0.5,-0.2 h 0.1 0.1 l 0.2,-0.1 0.3,-0.1 0.4,-0.1 h 1.5 l -1.3,-3 -1.6,-1.5 -0.3,-0.3 -0.7,-0.4 -1.5,-1.6 -0.6,-1.5 -0.4,-1 -0.2,-0.8 -0.1,-0.3 -0.2,-0.4 -1,-3 -0.4,-1.1 -0.7,-2.1 -0.4,-1.1 -0.1,-0.4 -0.4,-1.1 -0.1,-0.4 -0.1,-0.3 -0.2,-0.5 -0.3,-0.6 v -0.1 l -0.3,-0.5 -0.8,-1 -1.2,-1.6 -0.1,0.1 -0.2,0.2 -0.2,0.4 -0.3,0.3 -0.299998,-0.1 -0.400002,0.2 -0.5,0.2 -0.2,0.2 -0.3,-0.1 -0.8,-0.1 -0.6,-0.1 -0.5,-0.1 -0.4,-0.1 -0.4,-0.1 h -0.3 l -0.1,-0.1 -0.2,-0.2 -0.2,-0.4 -0.9,-1.3 -0.3,-0.5 -0.7,-1 -1.3,-1.7 v -0.1 l -0.8,-1.1 -0.2,-0.3 -0.8,-1.2 v -0.1 -0.2 l 0.2,-0.3 0.1,-0.4 -0.1,-0.3 -0.3,-0.2 -0.6,-0.3 -0.3,-0.2 -0.7,-0.3 -0.1,-0.1 -0.2,-0.3 -0.5,-0.2 -0.2,-0.2 -0.3,-0.2 -0.7,-0.4 -0.19999,-0.2 -0.1,-0.3 L 85.5,207.7 85.30002,207.5 85,207.3 84.6,207.1 84.30002,206.8 83.9,206.2 l -0.1,-0.1 -0.3,-0.3 -0.1,-0.4 -0.3,-0.4 -0.2,-0.3 -0.1,-0.2 v -0.2 -0.1 l -0.2,-0.2 -0.1,-0.1 v -0.1 l -0.1,-0.2 -0.1,-0.1 -0.1,-0.3 -0.1,-0.2 -0.1,-0.2 v -0.1 l -0.1,-0.1 -0.1,-0.1 -0.1,-0.2 -0.1,-0.1 -0.5,-0.5 -0.4,-0.3 -0.2,-0.3 -0.2,-0.3 -0.1,-0.2 v -0.4 l 0.2,-0.5 0.1,-0.3 0.1,-0.2 V 199 l 0.1,-0.1 0.1,-0.3 v -0.2 -0.1 l 0.1,-0.2 v -0.2 -0.1 -0.1 -0.1 l -0.1,-2.2 v -0.6 -0.6 h -0.2 l -0.3,-0.1 -0.4,0.1 h -0.1 -0.1 -0.1 l -0.1,0.1 H 79.4 79.3 79.2 L 79,194.2 h -0.1 -0.2 l -0.1,-0.1 H 78.4 78.3 78.2 78 l -0.1,0.1 h -0.1 -0.2 l -0.2,0.1 h -0.1 l -0.2,0.1 -0.2,0.1 h -0.2 l -0.1,0.1 -1.1,0.4 -0.7,0.2 -1.3,0.7 -0.6,0.1 -0.3,0.3 h -0.5 l -0.6,0.1 -0.6,0.1 h -0.6 l -1.1,-0.1 h -1.3 l -0.6,-0.1 -0.5,-0.2 -0.4,-0.1 -0.4,-0.1 -1,-0.2 -0.5,-0.2 -0.3,-0.1 -0.5,-0.3 -0.4,-0.1 -0.6,-0.2 -0.7,0.5 -0.8,1.2 v 0.1 l -0.3,0.3 -0.2,0.9 -0.4,0.3 -1,0.7 -0.6,1 -0.3,0.1 -0.4,0.3 -0.1,0.2 -0.4,0.6 -0.4,0.7 -0.1,0.2 v 0.1 l 0.1,0.1 h 0.1 l -0.1,0.2 0.3,1 -0.1,0.1 -0.1,0.6 -0.3,0.4 -0.1,0.1 -0.4,0.5 -0.2,0.2 0.1,0.6 -0.1,0.5 -0.4,0.4 -0.5,0.3 -0.1,0.3 -0.3,0.4 -0.2,0.3 h -0.1 -0.1 -0.2 l -0.1,-0.1 H 54.1 54 l -0.3,0.1 v 0.1 0.2 l -1.5,0.8 -0.1,0.2 H 52 l -0.9,0.7 -0.1,0.1 -0.2,0.1 h -0.1 l -0.2,0.1 -0.2,0.2 -0.2,0.3 v 0.1 0.2 l -0.2,0.3 v 0.1 h -0.1 -0.1 -0.1 l -0.1,0.1 v 0.1 l -0.2,0.5 -0.1,0.1 v 0.1 0.1 l 0.1,0.1 -0.1,0.1 v 0.1 l -0.1,0.1 V 213 H 49 v 0.1 0.1 0.1 h -0.1 l -0.1,0.1 v 0.1 h -0.1 v 0.1 0.1 0.1 l -0.1,0.1 v 0.1 0.1 h -0.1 v 0.1 l 0.1,0.1 h -0.1 v 0.1 l -0.1,0.1 v 0.1 l -0.2,0.2 -0.1,0.1 v 0.1 0.1 h 0.1 v 0.1 0.1 0.1 l -0.1,0.1 v 0.1 l 0.2,0.6 v 0.1 l -0.1,0.1 0.1,0.1 v 0.1 0.1 0.1 0.1 h -0.1 v 0.1 h -0.1 v 0.1 h 0.1 l 0.1,0.1 v 0 z"
     style="display:inline;fill:#000000;fill-opacity:1;fill-rule:evenodd;stroke:none;stroke-width:0.982677;stroke-linecap:square;stroke-linejoin:bevel;stroke-miterlimit:10;stroke-dasharray:none;stroke-opacity:1"
     id="bela_vista_sao-carlense" />
  <path
     d="m 168.10005,198.9 v -0.1 h 0.1 l 0.1,-0.1 0.1,-0.1 0.3,-0.1 0.2,-0.2 v -0.1 -0.1 h 0.1 V 198 l 0.1,-0.1 h 0.1 l 0.1,-0.1 v -0.1 -0.1 l 0.2,-0.2 0.1,-0.1 v -0.1 -0.3 -0.2 l -0.1,-0.2 0.1,-0.2 0.2,-0.1 0.1,-0.1 v -0.1 -0.1 -0.2 l 0.1,-0.2 0.1,-0.2 -0.1,-0.2 -0.1,-0.1 -0.1,-0.2 0.1,-0.1 v -0.3 -0.1 l -0.1,-0.1 v -0.1 l -0.1,-0.1 v -0.1 -0.1 h 0.1 v -0.2 -0.1 -0.1 -0.1 l -0.1,-0.3 v -0.2 l 0.3,-0.1 v -0.3 l 0.2,-0.1 0.3,-0.1 0.3,-0.3 0.1,-0.1 0.1,-0.4 0.2,-0.2 0.1,-0.2 v -0.1 -0.3 l -0.1,-0.2 v -0.2 l 0.1,-0.2 h 0.1 v -0.3 l 0.1,-0.2 0.1,-0.1 0.1,-0.2 0.2,-0.1 0.2,-0.1 h 0.1 0.2 v -0.1 -0.1 -0.1 l -0.1,-0.1 v -0.2 -0.1 -0.1 -0.1 -0.2 -0.2 l 0.1,-0.2 0.1,-0.3 0.1,-0.3 v -0.4 l 0.1,-0.4 0.1,-0.3 0.1,-0.3 0.1,-0.3 0.1,-0.3 0.1,-0.2 -0.1,-0.1 -0.1,-0.1 -0.1,-0.2 -0.1,-0.2 0.1,-0.2 v -0.2 l -0.1,-0.2 -0.2,-0.3 -0.3,-0.4 -0.1,-0.4 0.2,-0.7 0.1,-0.3 0.1,-0.6 v -0.2 -0.1 l 0.3,-0.8 0.2,-0.8 0.1,-0.4 v -0.3 -0.1 l -0.1,-0.2 -0.2,-0.4 -0.1,-0.3 -0.2,-0.3 -0.2,-0.4 -0.1,-0.3 -0.1,-0.1 -0.3,-0.8 -0.1,-0.4 -0.1,-0.1 0.1,-0.4 -0.1,-0.5 -0.2,-0.3 -0.5,-0.2 -0.2,-0.5 -0.1,-0.2 -0.1,-0.3 -0.4,-0.3 -0.1,-0.1 -0.1,-0.2 -0.1,-0.2 v -0.2 l -0.1,-0.2 V 171 l -0.1,-0.2 -0.1,-0.2 -0.1,-0.2 v -0.2 l 0.1,-0.6 v -0.2 -0.4 l -0.2,-0.2 v -0.4 l -0.4,-0.6 v -0.2 l 0.1,-0.9 v -0.4 -0.5 l -0.2,-0.4 v -0.5 -0.1 -0.1 -0.3 l -0.1,-0.2 -0.1,-0.2 v -0.4 l -0.1,-0.3 v -0.4 l -0.1,-0.5 v -0.4 -0.3 l -0.1,-0.1 h -0.1 -0.1 l -0.2,0.1 v 0.1 l -0.1,0.1 h -0.2 -0.1 l -0.1,0.2 h -0.2 l -0.1,-0.2 -0.3,0.1 h -0.1 l -0.5,-0.1 -24.20001,5.3 h -0.1 l -0.4,0.5 -0.4,0.3 -0.2,0.2 -0.4,0.2 -0.1,0.1 h -0.1 l -0.2,0.2 -0.3,0.4 -0.3,0.3 -0.29999,0.2 -0.20001,0.1 -0.1,0.2 -0.3,0.3 -0.2,0.3 -0.19999,0.1 h -0.20001 l -0.29999,0.2 -0.1,0.1 h -0.1 l -0.1,0.1 v 0.2 l -0.1,0.1 -0.1,0.3 -0.30001,0.2 -0.4,0.3 -0.1,0.2 -0.19999,0.2 -0.30001,0.2 -0.1,0.1 -0.1,0.1 h -0.1 -0.1 l -0.2,0.1 -0.1,0.2 v 0.1 l -0.1,0.2 0.1,0.1 0.1,0.1 v 0.1 l -0.1,0.1 h -0.1 l -0.1,-0.1 v -0.1 h -0.1 l -0.19999,0.2 v 0.1 0.1 l -0.1,0.1 h -0.1 -0.2 -0.1 -0.1 l -0.1,0.2 v 0.2 l -0.1,0.2 -0.3,0.2 -0.1,0.2 v 0.2 0.1 h -0.2 -0.1 l -0.1,0.1 -0.2,0.1 h -0.19998 v 0.1 0.2 l -0.20002,0.1 -0.1,0.1 v 0.1 l -0.1,0.1 -0.1,0.3 h -0.2 -0.1 v 0.1 l -0.2,0.1 v 0.1 l -0.3,-0.1 h -0.1 -0.1 -0.20001 l -0.1,0.1 -0.19999,0.3 -0.1,0.1 -0.2,0.1 -0.19998,0.2 v 0.1 l -0.1,-0.1 h -0.2 l -0.19999,-0.1 h -0.1 l -0.2,0.1 -0.1,0.1 -0.1,0.1 h -0.1 -0.1 l -0.2,-0.1 -0.1,-0.1 h -0.40001 l -0.1,-0.1 h -0.4 -0.3 l -0.2,0.1 -0.2,0.1 -0.2,0.1 -0.1,0.2 v 0.1 0.2 l -0.1,0.2 -0.30002,0.4 -0.19998,0.3 -0.20002,0.3 -0.2,0.3 -0.1,0.1 -0.20001,0.4 -0.2,0.2 -0.1,0.1 -0.20001,0.1 -0.4,0.2 -1.2,0.5 -0.3,0.1 -0.1,0.1 h -0.2 -0.3 l -0.29999,0.1 -0.20001,0.1 -0.29999,0.1 -0.20001,0.1 -0.2,0.1 -0.2,0.1 -0.1,0.2 v 0.1 l -0.2,0.3 -0.3,0.4 -0.2,0.2 -0.4,0.9 -0.19999,0.2 -0.1,0.4 -0.2,0.3 -0.5,0.3 v 0.2 0.4 l -0.19999,0.8 -0.30001,1.1 v 0.2 l 0.1,0.1 0.1,0.1 -0.39999,0.3 -0.20001,0.4 -0.4,0.2 -0.3,0.3 -0.2,0.6 -0.3,0.5 -1.09999,0.9 -0.30001,0.2 -0.3,0.3 h 0.1 l -0.40001,0.6 -0.3,0.3 v 0.2 l -0.2,0.3 -0.1,0.3 -0.4,0.4 -0.1,-0.1 h -0.1 l -0.1,0.2 -0.2,0.3 -0.4,0.3 -0.5,0.7 -0.19999,0.4 -0.20001,0.2 -0.29999,0.1 -0.90001,-0.2 -0.3,0.1 h -0.4 v 0.4 0.2 0.2 0.3 l 0.1,0.3 v 0.4 l 0.1,0.3 v 0.3 l 0.1,0.4 v 0.4 h -0.2 l 0.5,0.9 0.1,1 0.1,0.2 0.1,0.4 0.3,0.4 0.2,0.7 v 0.4 l 0.1,0.1 0.9,0.7 -0.4,0.9 h -0.1 l -0.1,0.3 v 0.1 l -0.19999,0.4 -0.1,0.3 -0.2,0.5 -0.1,0.1 v 0.1 l -0.1,0.1 v 0.1 l -0.1,0.1 -0.2,0.4 h -0.1 v 0.1 0.1 h -0.1 v 0.1 h -0.1 l -0.2,0.2 v -0.1 h -0.19999 l -0.1,-0.1 h -0.1 l -0.2,-0.2 -0.4,-0.3 h -0.1 v -0.1 l -0.1,-0.1 -0.20001,-0.1 -0.1,-0.1 -0.19999,0.3 -0.20001,0.3 v 0.1 l -0.1,0.1 -0.1,0.2 v 0.1 l -0.1,0.1 -0.20001,0.4 -0.2,0.5 -0.1,0.2 h -0.1 v 0.2 0.1 h 0.1 v 0.2 0.2 0.5 0.4 0.4 0.1 h 0.5 v 0.3 h 0.1 0.1 0.1 0.1 0.1 0.39998 l 0.60002,-0.1 h 0.39998 0.2 l 0.3,0.1 h 0.1 v 0.1 0.1 0.1 l 0.1,0.5 v 0.2 l -0.2,0.8 -0.1,0.8 0.3,0.1 0.1,0.1 h 0.30002 l 0.19998,-0.1 v -0.1 l 0.1,-0.1 v -0.2 l 0.20002,-0.3 0.1,-0.1 0.2,-0.1 v -0.1 l 0.1,-0.1 0.3,-0.2 0.4,-0.2 h 0.3 0.4 0.20001 0.19999 l 0.5,0.1 0.4,0.1 0.7,0.1 h 0.6 l 0.2,-0.1 0.1,-0.1 0.2,-0.3 0.3,-0.1 0.2,-0.4 h 0.1 l 0.1,-0.1 0.1,-0.1 0.2,-0.1 h 0.5 l 0.4,0.1 0.8,0.1 1.5,0.1 h 0.1 l 0.6,0.3 0.6,0.3 1,1 0.1,0.3 0.2,1 0.4,1.2 0.4,0.7 0.2,0.4 0.4,0.4 0.9,0.6 1,0.5 0.6,0.2 0.7,0.1 h 0.7 l 0.6,-0.1 0.7,-0.4 0.7,-0.2 h 0.3 0.2 l 0.4,0.1 0.7,-0.3 h 0.6 l 0.6,-0.3 h 0.3 l 1.1,-0.7 1.2,-0.4 1.3,-0.4 h 0.8 l 0.9,-0.4 0.4,-1.2 0.3,-0.9 0.1,-0.6 0.1,-0.4 v -0.7 l 0.1,-0.6 -0.1,-0.8 0.2,-0.5 v -1.3 -0.2 -0.1 l 0.6,-0.3 0.1,-0.2 v -0.3 l 0.4,-0.4 0.1,-0.4 0.1,-0.1 0.5,-0.2 0.2,-0.1 0.1,-0.3 v -0.5 -0.1 l 0.2,-0.2 0.20001,-0.1 0.29999,-0.2 0.70001,0.1 0.39999,-0.1 0.4,-0.3 0.6,-0.3 v 0.2 l 0.1,0.1 0.19998,0.1 0.1,0.2 0.1,0.2 -0.1,0.5 v 0.6 l 0.1,0.3 0.1,0.2 0.1,0.4 0.1,0.3 v 0.1 l 0.1,0.2 0.3,0.5 0.3,0.5 0.1,0.2 0.19999,0.2 0.1,0.2 0.1,0.1 0.1,0.1 v 0.1 l 0.1,0.1 h 0.1 l 0.1,0.1 0.20001,0.1 v 0.2 0.1 L 148,211 v 0.1 l 0.1,0.2 0.1,0.1 0.2,0.2 v 0.1 l 0.1,0.3 0.1,0.1 0.20001,0.2 0.19999,0.1 h 0.1 l 0.4,0.1 h 0.30001 L 150,212.4 l 0.1,0.1 h 0.20001 l 0.19999,0.1 v 0.1 h 0.1 l 0.20001,0.2 0.19999,0.1 0.20001,0.3 0.3,0.2 0.1,0.1 0.3,0.3 h 0.2 0.3 l 0.3,-0.1 0.3,-0.1 0.2,0.1 h 0.1 l 0.2,0.2 0.2,0.3 h 0.3 l 0.2,0.1 v 0.1 l 0.1,0.2 0.1,0.1 0.3,0.2 h 0.2 0.2 l 0.1,-0.1 h 0.1 0.1 l 0.2,0.2 0.2,0.1 h 0.3 0.3 l 0.2,-0.1 h 0.3 0.1 0.2 0.2 l 0.2,-0.1 0.1,0.1 0.4,-0.1 0.2,0.1 h 0.1 0.2 0.1 l 0.2,0.1 h 0.3 0.2 0.2 0.2 0.2 0.1 l 0.1,-0.1 0.2,-0.3 v -0.6 -0.6 l 0.1,-0.4 v -0.1 l 0.1,-0.5 v -0.2 l 0.1,-0.6 0.1,-0.5 0.1,-0.3 0.2,-0.3 0.1,-0.4 0.1,-0.6 v -0.3 l 0.7,-0.8 0.4,0.3 0.7,0.7 0.3,0.2 h 0.1 l 0.1,-0.1 0.2,-0.2 0.2,-0.4 -0.1,-0.3 -0.1,-0.2 -0.4,-0.6 v -0.7 -0.4 -0.8 -0.1 -0.1 h -0.1 l 0.3,-0.3 0.1,-0.2 0.3,-0.6 v -0.1 l 0.1,-0.2 v -0.1 l 0.1,-0.1 0.1,-0.2 0.1,-0.2 0.1,-0.1 0.2,-0.2 0.1,-0.1 0.1,-0.1 0.2,-0.2 0.2,-0.2 0.1,-0.1 0.2,-0.2 v -0.2 l 0.1,-0.2 v -0.2 -0.2 l 0.1,-0.1 0.1,-0.1 0.1,-0.1 0.1,-0.1 v -0.2 -0.1 h 0.1 l 0.1,-0.1 0.1,-0.1 0.1,-0.2 v -0.2 -0.1 l 0.1,-0.2 0.1,-0.1 0.1,-0.1 0.1,-0.1 0.1,-0.1 0.1,-0.2 0.1,-0.2 h 0.1 l 0.1,-0.2 0.2,-0.1 h 0.2 l 0.1,-0.1 0.1,-0.1 0.1,-0.1 v 0 z"
     style="display:inline;fill:#000000;fill-opacity:1;fill-rule:evenodd;stroke:none;stroke-width:0.982677;stroke-linecap:square;stroke-linejoin:bevel;stroke-miterlimit:10;stroke-dasharray:none;stroke-opacity:1"
     id="vila_nery" />
  <path
     d="m 125.90004,179.9 0.2,-0.3 0.20001,-0.3 0.19999,-0.3 0.30001,-0.4 0.1,-0.2 v -0.2 -0.1 l 0.1,-0.2 0.2,-0.1 0.2,-0.1 0.2,-0.1 h 0.3 0.40002 l 0.1,0.1 h 0.40001 l 0.1,0.1 0.2,0.1 h 0.1 0.1 l 0.1,-0.1 0.1,-0.1 0.2,-0.1 h 0.1 l 0.19999,0.1 h 0.2 l 0.1,0.1 v -0.1 l 0.19998,-0.2 0.2,-0.1 0.1,-0.1 0.19999,-0.3 0.1,-0.1 h 0.20001 0.1 0.1 l 0.30002,0.1 v -0.1 l 0.19998,-0.1 v -0.1 h 0.1 0.20002 l 0.1,-0.3 0.1,-0.1 v -0.1 l 0.1,-0.1 0.20001,-0.1 v -0.2 -0.1 h 0.19999 l 0.2,-0.1 0.1,-0.1 h 0.1 0.2 v -0.1 -0.2 l 0.1,-0.2 0.3,-0.2 0.1,-0.2 v -0.2 l 0.1,-0.2 h 0.1 0.1 0.2 0.1 l 0.1,-0.1 v -0.1 -0.1 l 0.19998,-0.2 h 0.1 v 0.1 l 0.1,0.1 h 0.1 l 0.1,-0.1 v -0.1 l -0.1,-0.1 -0.1,-0.1 0.1,-0.2 v -0.1 l 0.1,-0.2 0.2,-0.1 h 0.1 0.1 l 0.1,-0.1 0.1,-0.1 0.30002,-0.2 0.19998,-0.2 0.1,-0.2 0.4,-0.3 0.30002,-0.2 0.1,-0.3 0.1,-0.1 V 171 l 0.1,-0.1 h 0.1 l 0.1,-0.1 0.3,-0.2 h 0.2 l 0.2,-0.1 0.2,-0.3 0.3,-0.3 0.1,-0.2 0.2,-0.1 0.3,-0.2 0.3,-0.3 0.3,-0.4 0.2,-0.2 h 0.1 l 0.1,-0.1 0.4,-0.2 0.2,-0.2 0.4,-0.3 0.4,-0.5 h 0.1 l 24.2,-5.3 -0.1,-0.1 h -0.3 l -0.2,-0.1 -0.1,-0.2 -0.3,-0.3 -0.3,-0.4 -0.4,-0.6 -0.2,-0.4 -0.1,-0.1 -0.1,-0.2 -0.2,-0.5 -0.1,-0.3 v -2.2 l -0.3,-1.1 -1,-0.9 -0.5,-0.5 -0.6,-0.5 -0.4,-0.5 -0.3,-0.3 -0.6,-0.4 -0.6,-0.3 -0.4,-0.3 -0.3,-0.1 -0.1,-0.1 -0.1,-0.1 h -0.1 v -0.1 h -0.1 -0.1 -0.2 v 0.2 h -0.2 l -0.3,0.1 -0.1,0.1 -0.2,-0.1 -0.1,-0.1 -0.1,-0.2 -0.2,-0.2 -0.2,-0.3 -0.1,-0.2 v -0.2 l -0.1,-0.1 -0.1,-0.1 V 150 l -0.1,-0.1 -0.1,-0.2 -0.1,-0.2 -0.1,-0.1 -0.1,-0.2 -0.3,-0.3 -0.1,-0.1 v -0.2 -0.2 -0.1 -0.4 l 0.1,-0.3 0.1,-0.4 0.1,-0.8 -0.1,-0.2 -0.1,-0.2 -0.3,-0.3 -0.3,-0.3 -1,-0.7 h -0.1 v -0.1 l -0.1,-0.1 v -0.1 h -0.1 l 0.1,-0.1 -0.1,-0.1 h -0.2 -0.4 l -0.4,-0.1 -0.5,-0.3 -0.1,-0.2 v -0.3 l -0.1,-0.3 -0.2,-0.1 -0.3,-0.2 -0.2,-0.2 -0.3,-0.1 -0.2,-0.1 v -0.1 -0.3 l -0.1,-0.2 -0.1,-0.3 -0.1,-0.2 0.1,-0.5 0.1,-0.3 0.19998,-0.1 0.20002,-0.1 v -0.1 l 0.1,-0.1 0.1,-0.1 v -0.2 -0.1 l 0.1,-0.2 v -0.1 l 0.1,-0.1 v -0.1 l 0.1,-0.2 h 0.1 0.2 l 0.1,0.1 0.1,0.1 0.1,0.1 0.1,0.2 h 0.2 l 0.1,-0.2 v -0.1 -0.2 l 0.1,-0.1 v -0.1 h 0.1 l 0.1,-0.1 0.1,-0.2 -0.1,-0.2 v -0.1 l 0.1,-0.1 0.1,-0.3 -0.1,-0.1 v -0.2 -0.1 l 0.1,-0.1 0.2,-0.1 0.1,-0.1 0.1,-0.1 v -0.1 -0.2 -0.1 l 0.1,-0.1 0.1,-0.1 0.1,-0.2 0.1,-0.1 v -0.1 l 0.1,-0.1 -0.1,-0.2 0.1,-0.1 v -0.1 l 0.1,-0.2 0.1,-0.2 -0.1,-0.1 v -0.2 l -0.1,-0.1 -0.1,-0.3 -0.1,-0.1 v -0.2 -0.1 -0.1 -0.1 -0.1 l 0.1,-0.1 v -0.1 -0.1 -0.1 l 0.1,-0.1 V 133 l 0.1,-0.2 v -0.1 -0.1 l -0.1,-0.1 h -0.1 l -0.1,-0.2 0.1,-0.1 -0.6,-0.5 h -0.3 l -0.1,0.1 -1.4,1 -0.8,0.5 -0.40002,0.1 -4.59998,0.3 -0.5,0.1 -0.5,0.2 -2,1.4 -0.60002,0.2 -1.2,0.1 -0.6,0.4 h -0.5 l -1.9,-0.1 -6.9,-0.6 -1.1,-0.2 -0.19998,0.8 -0.40002,0.9 -0.2,0.5 -0.5,0.2 -0.7,0.2 h -0.6 l -0.7,-0.1 -0.6,-0.2 -2.2,-0.9 -0.1,-0.1 V 136 l -0.20001,-0.5 -0.29999,-0.6 -0.1,-0.3 -0.2,-0.8 -0.19998,-1 -0.5,-1 -0.80002,-1 -1.1,-1.1 -0.5,-0.4 -0.59998,-0.3 -1.10002,-0.5 -0.6,-0.3 -0.9,-0.6 -1.3,-0.6 -0.4,-0.1 -0.6,0.1 -0.1,-0.4 -0.30001,-0.2 -0.3,-0.5 -0.39999,-0.3 -0.1,-0.3 -0.1,-0.1 -0.4,-0.4 -0.1,-0.1 -0.2,-0.7 -0.2,-0.6 -0.39998,-0.5 -0.20002,-0.6 -0.1,-0.3 -0.3,-0.2 -0.3,-0.4 v -0.3 -0.6 -0.2 l -0.2,0.2 -0.6,0.8 -0.1,0.2 -0.19998,0.3 -0.20002,0.6 -0.2,0.1 h -0.2 -0.3 l -0.2,-0.2 -0.2,0.2 -0.19998,-0.1 -0.20002,-0.1 -0.29998,-0.4 -0.5,-0.2 -0.20002,-0.2 -0.79998,-0.3 -0.40002,-0.4 -0.3,-0.1 h -0.5 l -1,-0.4 h -0.4 l -0.39998,-0.1 -0.5,-0.3 -0.5,-0.3 h -0.20002 l -0.29998,0.1 -0.40002,0.2 -0.3,-0.1 -0.4,0.1 h -0.3 l -0.3,0.2 H 99.900052 99.50005 l -0.3,-0.1 -0.3,0.1 -0.2,-0.1 -0.7,-0.6 -1,-0.6 -0.5,-0.4 -0.6,-0.3 -0.59998,-0.3 h -0.30002 l -1.19998,0.4 h -0.40002 l -2,-0.3 h -0.3 l -0.4,0.1 -0.2,0.2 -0.19998,0.3 -0.20002,0.2 h -0.6 l -0.19998,0.1 -0.30002,0.4 -1,0.9 -0.3,0.2 h -0.3 -0.4 l -0.99999,-0.1 h -1 l -0.19999,-0.1 -0.70001,-0.6 -0.2,-0.3 -0.1,-0.3 v -0.2 l 0.1,-2 -0.2,-0.3 -0.3,-0.2 -0.5,-0.1 h -0.6 l -0.8,0.2 -0.8,-0.1 -1.1,0.3 -1,0.1 h -0.7 l -0.9,0.3 -0.9,0.4 -2.3,1.8 0.7,0.3 0.7,0.6 -0.1,0.4 v 0.5 l 0.4,0.3 h 0.6 0.5 l 0.5,0.2 v 0.2 l 0.3,0.2 h 0.2 l 0.4,0.3 v 0.2 l 0.1,0.1 0.1,0.3 0.3,0.3 0.2,0.1 0.2,0.2 -0.1,0.2 0.2,0.4 0.3,0.1 h 0.3 l 0.5,-0.1 0.5,0.1 0.2,0.1 0.1,0.2 0.2,0.1 0.2,0.2 h 0.1 0.1 v 0.1 0.2 l 0.1,0.1 h 0.1 0.2 l -0.1,0.1 -0.1,0.2 v 0.1 l 0.1,0.1 v 0.1 0.2 0.1 l 0.1,0.2 v 0.1 h -0.1 v 0.1 h 0.1 0.1 v 0.1 0.1 0.1 l 0.1,0.1 v 0.1 0.1 0.1 0.1 l -0.1,0.1 0.1,0.1 h 0.1 l -0.1,0.1 v 0.1 l -0.2,0.1 -0.1,0.1 -0.1,0.1 v 0.2 0.2 l 0.1,0.1 -0.1,0.1 -0.1,0.1 v 0.1 l -0.1,0.1 0.1,0.1 0.1,0.1 0.1,0.3 v 0.1 0.3 l -0.1,0.9 v 0.6 l 0.2,0.3 -0.1,0.4 -0.1,0.2 v 0.1 l 0.2,0.4 0.1,0.2 0.1,0.1 0.1,0.3 0.8,1.5 0.3,0.7 0.3,0.3 0.3,0.2 0.3,0.5 v 0.5 0.4 0.1 l -0.4,0.8 -0.4,0.9 0.1,0.7 0.4,0.8 0.8,0.8 0.3,0.6 1.09999,2 -0.29998,0.9 -0.60001,1 -0.2,1 -0.3,1.1 -0.1,0.8 -0.2,1.1 v 0.1 l -0.2,0.7 -1,0.7 -0.3,0.7 -0.2,0.3 -0.1,0.1 -1.4,0.2 -0.8,0.2 -0.5,0.4 -1.3,0.1 -1.2,0.4 -1,1 -2.3,1.4 -1.5,0.5 h -0.8 l 0.1,0.3 0.2,0.4 -0.1,0.6 0.3,0.7 0.7,0.1 0.2,0.1 h 0.1 0.2 l 0.8,0.9 0.8,0.8 0.2,0.2 v 0.2 0.1 0.3 l -0.1,0.1 h -0.1 v 0.1 0.1 h -0.1 -0.1 l -0.1,0.1 v 0.1 h 0.1 v 0.1 0.1 l 0.1,0.1 0.1,0.1 v 0.6 l -0.1,0.1 0.6,0.2 0.3,0.2 0.8,0.1 0.6,0.1 0.5,0.3 0.6,0.1 0.4,0.2 0.5,0.2 0.4,0.3 0.5,0.1 0.6,-0.1 h 0.1 l 0.3,0.1 0.5,0.5 0.1,0.1 0.1,0.2 0.3,0.2 h 0.3 l 0.5,-0.1 h 0.3 l 0.2,0.3 0.1,0.3 0.9,0.7 0.4,0.4 0.3,0.3 0.2,0.2 0.2,0.7 v 0.7 1.3 l -0.2,0.8 -0.1,0.4 0.5,0.6 0.39999,0.6 0.2,0.5 0.5,0.5 0.3,0.4 1,2 0.7,0.5 0.4,0.2 0.6,0.1 0.5,0.2 0.2,0.2 0.1,0.4 v 0.1 0.3 l -0.1,0.7 -0.1,0.1 -0.2,0.3 -0.2,0.4 -0.2,0.1 -0.1,0.3 -0.1,0.2 -0.1,0.6 0.1,0.4 -0.1,0.2 v 1.9 l 0.1,0.7 0.3,1.1 0.4,0.9 0.1,0.1 0.30002,0.1 0.39998,-0.2 0.7,-0.3 1.40002,-0.5 h 0.1 l 0.1,-0.2 h 0.2 0.1 0.2 0.1 0.2 0.2 0.1 0.3 l 0.3,0.1 0.1,0.1 0.1,0.1 0.1,0.1 0.1,0.1 0.20001,0.1 h 0.1 l 0.2,0.1 0.20001,0.1 0.1,0.1 h 0.1 l 0.1,0.1 h 0.1 l 0.2,0.1 h 0.1 0.1 l 0.9,-0.3 1.30002,-0.2 0.1,-0.1 1.3,-1.1 1.2,-1.1 -0.2,0.7 0.2,0.1 0.1,-0.1 v -0.1 h 0.1 v -0.2 h 0.1 0.1 0.1 l 0.1,0.2 h 0.2 l 0.1,0.2 0.19998,0.2 0.1,0.1 0.20002,0.2 0.19998,0.1 h 0.1 l 0.20002,0.1 h 0.19998 0.2 l 0.2,0.3 h 0.5 l 0.5,-0.5 0.1,0.1 h 0.1 v 0.1 h 0.1 0.3 0.1 l 0.1,0.1 h 0.1 l 0.19999,0.1 0.1,0.1 v 0.1 l 0.3,0.3 h 0.2 l 0.20001,0.1 h 0.1 0.1 0.2 l 0.1,-0.1 h 0.1 l 0.1,-0.1 0.1,-0.2 0.3,-0.2 h 0.1 l 0.1,-0.1 h 0.1 l 0.1,-0.1 0.1,-0.1 v -0.1 l 0.1,-0.1 0.1,-0.1 0.2,-0.1 h 0.1 l 0.1,-0.1 0.1,-0.2 0.5,-0.3 h 0.20002 l 0.19998,-0.1 0.2,-0.1 0.2,-0.1 0.1,0.1 h 0.1 0.1 l 0.1,0.1 0.19999,0.1 0.1,0.1 0.20001,0.1 0.5,0.1 0.1,0.2 0.2,0.1 h 0.20002 l 0.1,0.1 0.3,0.1 0.1,0.1 h 0.19998 l 0.2,0.1 v 0.1 l 0.1,0.1 0.1,0.1 h 0.2 l 0.1,0.2 0.4,0.2 0.1,0.3 0.2,0.1 0.1,0.1 0.2,0.2 v 0.1 l 0.2,0.1 0.2,0.2 h 0.1 l 0.1,0.1 0.1,0.1 h 0.1 l 0.2,0.1 0.1,0.1 0.19999,0.1 0.1,0.1 h 0.3 l 1.90001,-0.3 0.19999,-0.8 v -0.4 -0.2 l 0.5,-0.3 0.2,-0.3 0.1,-0.4 0.19999,-0.2 0.4,-0.9 0.2,-0.2 0.3,-0.4 0.2,-0.3 v -0.1 l 0.1,-0.2 0.2,-0.1 0.2,-0.1 0.20001,-0.1 0.29999,-0.1 0.20001,-0.1 0.29999,-0.1 h 0.3 0.2 l 0.1,-0.1 0.3,-0.1 1.2,-0.5 0.4,-0.2 0.20001,-0.1 0.1,-0.1 0.2,-0.2 0.20001,-0.4 0.1,-0.1 v 0 z"
     style="display:inline;fill:#000000;fill-opacity:1;fill-rule:evenodd;stroke:none;stroke-width:0.982677;stroke-linecap:square;stroke-linejoin:bevel;stroke-miterlimit:10;stroke-dasharray:none;stroke-opacity:1"
     id="agua_vermelha" />
  <path
     d="m 162.70005,86.699998 0.1,0.1 h 0.1 v -0.2 h 0.1 l 0.1,-0.1 0.1,-0.2 v -0.1 -0.1 l 0.1,-0.2 h 0.1 l 0.1,-0.2 v -0.1 h 0.1 l 0.1,-0.1 h 0.2 0.1 l 0.1,-0.1 -0.1,-0.1 v -0.1 h 0.1 0.1 v -0.1 -0.1 h -0.1 l -0.1,-0.1 v -0.1 l 0.1,-0.1 0.1,-0.1 h 0.1 0.1 0.1 l 0.1,0.1 v 0.1 l 0.1,-0.2 v -0.1 l 0.1,-0.1 h 0.1 0.1 v 0.1 l 0.1,-0.1 0.1,-0.1 h 0.1 l 0.1,-0.1 v -0.1 l -0.1,-0.1 v -0.1 l 0.1,-0.1 v -0.1 h 0.1 l 0.1,-0.2 0.1,-0.1 0.1,-0.2 0.1,-0.1 0.1,-0.2 v -0.1 -0.1 h 0.1 l 0.1,0.1 h 0.1 0.1 0.2 v -0.1 l 0.1,-0.2 v -0.2 -0.1 l 0.1,-0.1 v -0.2 -0.1 l 0.1,-0.1 h 0.1 l 0.1,-0.1 0.1,-0.1 0.1,-0.1 h 0.1 0.1 l 0.1,0.1 h 0.1 l 0.1,0.1 h 0.1 l 0.1,-0.1 v -0.1 l -0.1,-0.1 v -0.1 h 0.1 0.1 0.1 l 0.1,0.1 h 0.1 l 0.1,-0.1 v -0.1 l -0.1,-0.1 h 0.1 0.1 l 0.1,0.1 h 0.1 l 0.1,-0.1 -0.1,-0.1 v -0.1 -0.1 h 0.1 l 0.2,0.1 h 0.1 v -0.1 -0.1 h 0.1 v -0.1 l -0.1,-0.2 h 0.1 l 0.1,0.1 v 0.2 0.1 h 0.2 v -0.1 -0.1 l -0.1,-0.2 v -0.1 h 0.1 l 0.1,-0.1 h 0.1 v -0.1 l 0.1,-0.1 v -0.2 h 0.1 0.1 v -0.1 h 0.1 v -0.1 l 0.1,-0.1 v -0.1 -0.1 -0.1 -0.1 l 0.1,-0.1 0.1,-0.1 h 0.1 0.1 l 0.1,-0.1 v -0.1 l 0.2,-0.1 h 0.1 l 0.1,-0.2 -0.1,-0.1 v -0.1 h -0.1 l -0.1,-0.1 -0.1,-0.2 v -0.1 l 0.1,-0.1 0.1,-0.1 0.1,-0.1 0.2,-0.1 0.1,-0.1 0.1,-0.3 0.1,-0.2 0.1,-0.2 v -0.1 -0.1 -0.2 -0.1 -0.1 l 0.1,-0.2 v -0.1 l 0.1,-0.1 v -0.1 l 0.1,-0.1 0.1,-0.1 0.1,-0.1 v -0.1 l 0.1,-0.1 0.1,-0.2 0.1,-0.1 h 0.1 0.2 v -0.1 l 0.1,-0.1 v -0.1 -0.2 h -0.1 l -0.1,-0.1 v -0.1 -0.2 -0.1 l 0.1,-0.1 0.1,-0.1 0.1,-0.1 v -0.199999 -0.1 -0.1 l 0.1,-0.1 0.1,-0.1 0.1,-0.1 -0.1,-0.1 h -0.1 v -0.1 l 0.1,-0.1 v -0.1 h -0.1 l -0.1,-0.1 -0.1,-0.1 v -0.1 l -0.1,-0.1 v -0.1 l 0.1,-0.1 0.1,-0.1 v -0.1 -0.1 h 0.1 0.1 l 0.1,-0.1 v -0.2 l 0.1,-0.2 v -0.1 -0.1 l -0.1,-0.2 v -0.1 -0.2 l 0.1,-0.1 0.1,-0.1 h 0.2 l 0.1,-0.2 0.1,-0.1 0.1,-0.1 0.1,-0.1 0.1,-0.1 0.1,-0.1 v -0.1 -0.1 h 0.2 v -0.2 -0.1 l 0.1,-0.1 0.1,-0.2 0.1,-0.1 h 0.1 l 0.1,-0.2 v -0.1 -0.1 -0.2 -0.1 -0.1 l 0.1,-0.2 v -0.1 l 0.1,-0.1 0.1,-0.1 v -0.2 l 0.1,-0.1 v -0.2 -0.1 -0.1 l 0.1,-0.1 0.1,-0.1 0.1,-0.1 0.1,-0.1 0.1,-0.2 v -0.1 -0.3 l 0.1,-0.1 0.1,-0.1 0.1,-0.1 0.1,-0.1 v -0.2 h -0.1 v -0.1 -0.1 l 0.1,-0.2 v -0.1 -0.2 l -0.2,-0.2 v -0.1 l -0.1,-0.1 0.1,-0.1 v -0.2 l 0.1,-0.1 -0.1,-0.2 v -0.1 l -0.1,-0.1 v -0.1 l -0.1,-0.2 h 0.1 v -0.2 -0.2 l -0.1,-0.1 -0.2,-0.1 v -0.1 -0.1 -0.2 -0.1 l 0.1,-0.1 v -0.2 l 0.1,-0.1 v -0.1 -0.1 -0.1 l 0.1,-0.1 h 0.1 0.2 v -0.2 -0.1 -0.1 l 0.1,-0.2 h 0.1 0.2 0.1 v -0.1 l -0.1,-0.1 0.1,-0.1 h 0.1 0.2 l 0.1,0.1 h 0.1 l 0.1,-0.1 0.2,0.1 h 0.1 l 0.2,-0.1 v -0.1 -0.1 l -0.1,-0.1 h -0.1 l -0.1,-0.2 0.1,-0.1 0.1,-0.1 h 0.2 l 0.1,-0.1 0.1,-0.1 v -0.1 l -0.2,-0.1 -0.2,-0.1 h -0.1 l -0.1,-0.1 0.2,-0.1 0.2,-0.1 0.1,-0.1 -0.1,-0.3 -0.1,-0.3 -0.1,-0.2 -0.3,-0.2 -0.4,-0.3 -0.5,-0.1 h -0.4 l -1.3,0.2 -0.2,-0.1 -0.3,-0.1 -0.4,-0.2 -0.4,-0.3 -0.4,-0.4 -0.4,-0.5 -0.3,-0.5 -0.1,-0.3 -0.1,-0.3 v -0.9 l -0.1,-0.2 -0.1,-0.2 -0.3,-0.3 -0.6,-0.3 h -0.2 l -1,-0.3 -0.7,-0.2 -0.9,-0.3 -0.5,-0.2 -0.2,-0.3 -0.1,-0.3 -0.1,-0.5 -0.1,-0.3 -0.2,-0.2 -0.3,-0.3 -0.4,-0.2 -0.3,-0.1 -0.3,-0.1 -0.3,0.1 h -0.2 -0.5 l -0.4,-0.1 -0.4,-0.2 -0.3,-0.3 -0.3,-0.4 -0.4,-0.4 -0.4,-0.3 h -0.2 l -0.2,-0.1 h -0.5 l -0.5,0.1 -0.9,-0.1 -1.4,-0.1 -1.5,-0.1 h -0.4 l -0.5,0.1 -0.3,0.1 -0.3,0.1 -0.5,0.2 -0.5,0.4 -0.3,0.5 -0.2,0.7 -0.2,0.8 v 0.5 l -0.2,0.7 -0.4,0.3 -0.2,0.1 h -0.3 -0.6 l -0.8,-0.2 -0.5,-0.3 -0.60001,-0.4 -0.1,-0.2 -0.29999,-0.3 -0.40001,-0.4 -0.3,-0.3 -0.29999,-0.4 -0.20001,-0.1 h -0.29999 l -0.60001,-0.1 h -0.5 l -0.5,0.1 -0.89999,0.1 -0.80001,0.1 -0.4,0.1 -0.29999,0.2 -0.5,0.6 -0.30001,0.4 -0.4,0.3 -0.6,0.3 -0.6,0.2 -0.59999,0.1 h -0.60001 l -0.7,-0.2 -0.9,-0.3 -0.5,-0.3 -0.5,-0.3 -0.29999,-0.3 -0.20001,-0.3 v -0.3 l 0.1,-0.2 0.1,-0.2 0.5,-0.4 0.5,-0.5 0.69999,-0.7 0.30001,-0.5 0.29999,-0.8 0.20001,-0.8 v -2.1 -0.7 l -0.1,-0.6 -0.3,-0.7 -0.2,-0.3 -0.2,-0.1 h -0.3 -0.39999 -0.60001 l -0.5,-0.1 -0.39999,-0.2 -0.5,-0.3 -1.10001,-1.1 -0.89999,-0.9 -1.10001,-0.6 -0.8,-0.3 h -0.59999 l -0.5,-0.1 h -0.30001 -0.4 l -0.2,-0.3 -0.1,-0.3 v -0.4 l 0.3,-0.3 0.6,-0.3 0.8,-0.3 0.6,-0.2 0.5,-0.3 0.4,-0.5 0.4,-0.3 0.4,-0.3 0.7,-0.3 0.4,-0.199999 0.6,-0.1 0.9,-0.1 0.3,-0.1 0.2,-0.1 v -0.2 -0.2 l -0.1,-0.2 -0.1,-0.2 -0.3,-0.1 -2.3,-1.1 -0.9,-0.3 -0.5,-0.1 -0.39999,-0.2 -0.30001,-0.2 -0.1,-0.2 v -0.3 l 0.2,-1 0.4,-0.9 0.5,-0.5 0.4,-0.2 0.3,-0.1 0.5,-0.2 0.8,-0.1 0.4,-0.2 0.40001,-0.5 0.5,-0.7 0.29999,-0.2 0.4,-0.2 h 0.4 0.40001 l 0.39999,0.2 0.5,0.3 0.60001,0.5 0.29999,0.3 0.3,0.1 h 0.3 l 0.3,-0.1 0.1,-0.3 -0.1,-0.4 v -0.4 l -0.3,-0.4 -0.3,-0.3 -0.1,-0.2 v -0.5 l 0.29999,-0.9 0.5,-0.8 0.5,-0.9 0.4,-0.7 0.2,-0.7 0.3,-0.7 0.30001,-0.3 0.39999,-0.1 0.4,-0.1 0.5,0.1 0.3,-0.1 0.3,-0.2 V 18 17.6 l -0.2,-0.5 -0.5,-0.5 -0.5,-0.2 -0.69999,-0.1 -0.60001,0.1 -0.6,0.1 -0.79999,0.6 -0.5,0.2 h -0.20001 l -0.29999,-0.1 -0.60001,-1.1 -0.8,-1.1 -0.5,-0.4 -0.4,-0.2 -0.9,-0.4 -0.29999,-0.2 -0.1,-0.4 v -0.5 -0.5 l 0.2,-0.5 0.3,-0.3 0.7,-0.6 0.1,-0.3 v -0.2 -0.2 l -0.1,-0.2 -0.4,-0.2000005 -0.4,-0.1 h -0.5 l -0.29999,-0.1 L 136.50004,9.5 l -0.19999,-0.3 -0.30001,-1.3 -0.1,-0.2 -0.2,-0.2 -0.39999,-0.1 h -0.40001 l -0.8,0.1 -0.9,0.1 -0.5,0.1 -0.39999,0.2 -0.30001,0.2 -0.19999,0.3 -0.5,0.8 -0.20001,0.2 h -0.2 -0.3 l -0.29999,-0.2 -0.5,-0.4 -0.5,-0.5 -0.20001,-0.4 V 7.5 l 0.1,-0.5 0.1,-0.4 0.39999,-0.5 0.3,-0.3 0.5,-0.7 0.2,-0.2 0.1,-0.3 V 4.3 l -0.1,-0.2 -0.2,-0.3 -0.1,-0.3 -0.2,-0.3 0.1,-0.2 0.1,-0.2 0.2,-0.2 0.3,-0.1 h 0.3 l 0.4,0.1 h 0.20001 0.19999 l 0.2,-0.2 V 2.3 l -0.1,-0.2 -0.1,-0.2 -0.3,-0.1 -0.3,-0.2 -0.2,-0.1 h -0.39999 l -0.30001,0.1 -0.3,0.2 -0.39999,0.3 -0.40001,0.3 -0.1,0.3 -0.1,0.3 -0.1,0.3 -0.2,0.3 -0.3,0.1 -0.2,0.2 -0.2,0.1 h -0.3 l -0.2,-0.1 -0.2,-0.1 -0.19999,-0.2 -0.20001,-0.3 -0.1,-0.2 V 2.7 l -0.1,-0.4 0.1,-0.3 V 1.8 1.5 1.3 L 126.80004,1.1 126.60003,1 h -0.2 l -0.3,0.1 -0.2,0.3 -0.1,0.3 -0.1,0.5 0.1,0.4 0.1,0.4 0.2,0.6 0.20001,0.3 0.29999,0.3 0.1,0.1 0.1,0.2 0.1,0.1 -0.1,0.2 v 0.1 l -0.1,0.1 h -0.3 l -0.2,-0.1 -0.2,-0.1 -0.19999,-0.3 -0.1,-0.3 -0.2,-0.5 -0.19999,-0.6 -0.20001,-0.2 -0.1,-0.1 -0.6,-0.4 -0.3,-0.3 -0.2,-0.1 -0.1,-0.1 V 1.8 1.7 l -0.1,-0.2 -0.1,-0.5 -0.2,-0.5 -0.1,-0.1 V 0.3 l -0.1,-0.1 -0.2,-0.1 -0.2,-0.1 h -0.2 -0.1 -0.2 -0.2 l -0.1,0.1 -0.1,0.1 -0.1,0.2 -0.1,0.1 -0.39999,0.7 -0.1,0.2 -0.2,0.2 -0.1,0.1 -0.1,0.1 -0.20001,0.1 h -0.1 -0.1 -0.1 l -0.20001,-0.1 -0.1,-0.1 -0.1,-0.1 -0.2,-0.2 -0.1,-0.1 -0.1,-0.39999999 -0.1,-0.2 -0.1,-0.20000001 -0.2,-0.1 -0.1,-0.1 h -0.1 -0.2 l -0.1,0.1 h -0.1 l -0.1,0.1 -0.1,0.10000001 v 0.1 l -0.1,0.2 V 1.1 l -0.1,0.2 v 0.2 l 0.1,0.2 V 1.8 2 l 0.1,0.1 V 2.3 2.5 2.6 3 3.3 3.5 l 0.1,0.2 v 0.1 l 0.1,0.2 0.1,0.1 0.3,0.2 0.2,0.1 0.1,0.1 0.1,0.2 0.1,0.1 V 4.9 5 l -0.1,0.1 -0.1,0.1 h -0.1 -0.2 -0.2 l -0.2,0.1 h -0.1 l -0.2,0.1 -0.2,0.2 -0.2,0.2 -0.4,0.2 -0.1,0.1 -0.1,0.1 h -0.2 -0.19999 l -0.1,-0.1 h -0.2 l -0.19999,-0.1 -0.30001,-0.1 -0.1,-0.1 -0.3,-0.2 -0.6,-0.5 -0.3,-0.2 -0.2,-0.1 h -0.1 -0.1 -0.1 -0.2 -0.19999 l -0.1,0.1 h -0.1 V 5 l -0.1,0.2 v 0.1 l 0.1,0.1 0.1,0.2 0.2,0.2 0.2,0.2 0.1,0.1 h 0.2 l 0.1,0.1 0.2,0.1 0.60002,0.2 0.19998,0.1 h 0.1 v 0.1 l 0.1,0.1 V 6.9 7 7.1 l -0.1,0.2 -0.1,0.2 -0.1,0.1 h -0.1 l -0.20001,0.1 -0.79999,4.1 -0.20001,0.8 -1.7,1.8 -0.4,0.2 -0.9,1.1 -0.5,0.8 -0.7,4.4 -3.3,5.1 -5.79999,6.2 -1.90001,3.099999 -1.4,2.3 -0.69999,1.4 -1.10001,0.9 -1.7,0.4 -2.5,0.5 -1.6,1.4 -1.8,2.8 -0.7,5.1 -1.3,4.9 -0.5,6.5 -17.5,6.1 -5.6,5 7.6,6.499999 3.5,11.6 -1,3 -12.1,12.500002 1,6.1 h 0.2 l 0.2,0.1 0.1,0.2 -0.1,0.2 h 0.4 l 0.3,-0.2 0.1,-0.2 0.2,0.1 0.2,-0.1 h 0.5 0.1 l 0.3,0.1 0.2,0.2 0.2,0.1 h 0.4 l 0.3,0.1 0.2,0.1 0.1,0.3 0.2,0.2 0.3,0.1 h 0.2 l 0.5,0.4 0.4,0.2 0.2,0.2 0.2,0.1 0.3,-0.1 h 0.2 0.1 l 0.2,0.2 0.3,1.1 0.2,0.2 h 0.2 l 0.2,0.2 0.5,0.2 0.2,0.1 0.4,0.1 0.2,0.1 0.1,0.1 0.1,0.1 v 0.4 0.2 l 0.3,0.2 0.4,0.2 0.3,0.2 0.1,0.4 -0.1,0.5 0.1,0.2 h 0.2 l 0.2,-0.2 0.7,-0.1 h 0.2 l 0.4,0.2 0.3,0.1 h 0.1 l 2.3,-1.8 0.9,-0.4 0.9,-0.3 h 0.7 l 1,-0.1 1.1,-0.3 0.8,0.1 0.8,-0.2 h 0.6 l 0.5,0.1 0.3,0.2 0.2,0.3 -0.1,2 v 0.2 l 0.1,0.3 0.2,0.3 0.70002,0.6 0.19998,0.1 h 1 l 1,0.1 h 0.4 0.3 l 0.3,-0.2 1,-0.9 0.30001,-0.4 0.19999,-0.1 h 0.6 l 0.20001,-0.2 0.19999,-0.3 0.2,-0.2 0.4,-0.1 h 0.3 l 2,0.3 h 0.40001 l 1.19999,-0.4 h 0.30001 l 0.59999,0.3 0.6,0.3 0.5,0.4 1,0.6 0.7,0.6 0.2,0.1 0.3,-0.1 0.3,0.1 h 0.400002 0.199998 l 0.3,-0.2 h 0.3 l 0.4,-0.1 0.3,0.1 0.40001,-0.2 0.29999,-0.1 h 0.20001 l 0.5,0.3 0.5,0.3 0.39999,0.1 h 0.4 l 1,0.4 h 0.5 l 0.3,0.1 0.40001,0.4 0.79999,0.3 0.20001,0.2 0.5,0.2 0.29999,0.4 0.20001,0.1 0.19999,0.1 0.2,-0.2 0.2,0.2 h 0.3 0.2 l 0.2,-0.1 0.20001,-0.6 0.19999,-0.3 0.1,-0.2 0.6,-0.8 0.2,-0.2 v 0.2 0.6 0.3 l 0.3,0.4 0.3,0.2 0.1,0.3 0.20001,0.6 0.39999,0.5 0.2,0.6 0.2,0.7 0.1,0.1 0.4,0.4 0.1,0.1 0.1,0.3 0.39999,0.3 0.3,0.5 0.30001,0.2 0.1,0.4 0.6,-0.1 0.4,0.1 1.3,0.6 0.9,0.6 0.6,0.3 1.10001,0.5 0.59999,0.3 0.5,0.4 1.1,1.1 0.80001,1 0.5,1 0.19999,1 0.2,0.8 0.1,0.3 0.29999,0.6 0.20001,0.5 v 0.5 l 0.1,0.1 2.2,0.9 0.6,0.2 0.7,0.1 h 0.6 l 0.7,-0.2 0.5,-0.2 0.2,-0.5 0.40001,-0.9 0.19999,-0.8 1.1,0.2 6.9,0.6 1.9,0.1 h 0.5 l 0.6,-0.4 1.2,-0.1 0.60001,-0.2 2,-1.4 0.5,-0.2 0.5,-0.1 4.59999,-0.3 0.40001,-0.1 0.8,-0.5 1.4,-1 0.1,-0.1 h 0.3 l 0.6,0.5 V 132 l -0.1,-0.1 v -0.1 l -0.1,-0.2 -0.1,-0.1 -0.1,-0.1 v -0.2 l 0.1,-0.1 0.1,-0.1 0.1,-0.4 -0.2,-0.1 -0.1,-0.2 -0.1,-0.2 V 130 l -0.1,-0.2 v -0.1 l 0.1,-0.2 v -0.1 -0.2 l 0.1,-0.1 V 129 l 0.1,-0.1 v -0.1 -0.1 -0.1 l -0.3,-0.2 -0.2,-0.1 h -0.2 l -0.2,-0.1 -0.1,-0.1 -0.2,-0.1 -0.1,-0.1 -0.3,-0.2 -0.1,-0.2 -0.2,-0.2 -0.1,-0.2 -0.20001,-0.1 v -0.1 l 0.8,-0.2 0.4,-0.1 0.2,-0.2 0.3,-0.3 0.2,-0.1 0.1,-0.2 v -0.2 l 0.1,-0.1 h 0.20001 l 0.2,-0.1 0.2,-0.2 0.2,-0.2 0.1,-0.1 0.4,-0.4 0.2,-0.2 0.2,-0.2 0.2,-0.2 0.3,-0.1 0.2,-0.3 0.1,-0.2 0.1,-0.3 0.1,-0.5 v -0.2 l 0.1,-0.2 0.2,-0.2 v -0.3 h 0.1 l 0.2,-0.4 0.3,-0.6 0.3,-0.5 v -0.6 l -0.1,-0.5 1,-0.3 1.7,-0.2 1,-0.7 0.2,-0.2 0.4,-1.3 -0.1,-0.9 0.7,-2 v -0.8 l 0.1,-1 -0.1,-0.2 -1.5,-0.9 -1.3,-1.6 -0.2,-0.5 0.2,-1 0.5,-1 0.1,-0.7 -0.2,-0.5 v -0.4 l -0.2,-0.2 -0.2,-0.3 -0.1,-0.3 -0.1,-0.3 -0.1,-0.3 v -0.2 -0.3 -0.2 l 0.1,-0.4 0.6,-0.7 0.1,-0.1 0.1,-0.2 0.1,-0.2 0.1,-0.4 0.1,-0.4 v -0.2 l 0.1,-0.299998 0.1,-0.300004 -0.1,-0.2 v -0.2 l 0.1,-0.2 0.1,-0.2 v -0.2 l 0.2,-0.2 0.2,-0.3 0.2,-0.2 0.1,-0.4 0.1,-0.5 v -0.4 -0.2 l 0.2,-0.3 0.1,-0.2 0.2,-0.1 0.1,-0.2 0.2,-0.6 0.2,-0.4 0.2,-0.4 0.2,-0.5 v -0.3 -0.2 -0.3 -0.1 l 0.1,-0.1 0.1,-0.3 v -0.4 l -0.1,-0.2 -0.1,-0.3 v -0.3 -0.2 l -0.1,-0.3 v -0.1 -0.2 l -0.1,-0.3 v -0.4 l -0.1,-0.4 v -0.2 l 0.1,-0.2 -0.1,-0.1 -0.1,-0.3 0.1,-0.2 v -0.3 -0.3 -0.1 -0.3 -0.2 -0.1 z"
     style="display:inline;fill:#000000;fill-opacity:1;fill-rule:evenodd;stroke:none;stroke-width:0.982677;stroke-linecap:square;stroke-linejoin:bevel;stroke-miterlimit:10;stroke-dasharray:none;stroke-opacity:1"
     id="santa_eudoxia" />
</svg>
