<?xml version="1.0" encoding="UTF-8" standalone="no"?>
<svg version="1.1" id="svg2" width="1000" height="1428.3007" viewBox="0 0 999.99999 1428.3006"
   xmlns="http://www.w3.org/2000/svg" xmlns:svg="http://www.w3.org/2000/svg">
   <defs id="defs6" />
   <path class="neighborhood"
      d="m 367.21777,1218.2713 h -0.26687 l -0.53375,-0.5338 -0.53374,-0.8006 -0.26688,-0.2669 h -0.53377 l -0.53375,0.2669 h -0.26687 l -0.26687,-0.2669 v -0.8006 l -0.26688,-0.8006 -0.26687,-0.5338 -0.26687,-0.5337 -0.80062,-0.5337 -0.26688,-0.5338 -0.53372,-0.5337 v -0.5338 -0.5337 l -0.26687,-0.5338 -0.26688,-0.2669 -0.80059,-0.2668 h -0.53377 l -0.26688,-0.2669 -0.26687,-0.5337 -0.53375,-0.2669 h -0.26687 l -0.53375,0.2669 -0.53374,0.2668 h -0.26688 l -0.53374,0.2669 v 0.2669 h -0.53375 l -0.26687,-0.2669 v -0.5337 -0.5338 -0.5337 l -16.54616,-9.8744 -11.47556,-2.9356 -10.67493,-6.1381 -6.13807,-10.9418 -3.73625,-11.2087 -12.27615,-7.4724 -8.00621,-0.8006 -0.26687,-0.2669 h -0.80062 l -1.33437,-0.8006 -1.06749,-0.2669 h -0.53369 -0.5338 -0.53375 l -0.80062,0.2669 -1.06749,-0.5338 -0.26688,-0.8006 -0.26687,-0.2669 h -0.53369 l -0.80068,-0.2668 h -0.80062 l -0.53375,0.5337 h -0.26687 l -0.53375,-0.2669 -0.53374,-0.2668 -0.80062,-0.2669 -0.26688,0.2669 -0.53374,0.5337 v 1.3344 l -0.26688,0.5337 -0.80064,0.2669 -1.0675,0.5337 -0.53374,0.5338 h -0.53375 l -0.53375,0.2669 -0.53372,0.8006 -0.80065,0.2669 -0.53372,0.2668 -1.33436,0.8007 -0.26687,0.2668 -0.26688,0.5338 -0.53374,0.2668 h -0.53374 -1.06746 -0.80066 l -0.53371,0.2669 -0.80065,0.2669 -0.80062,0.5337 -0.53375,0.5338 -0.53371,0.5337 -0.53379,1.8681 v 0.8007 l -0.26687,0.8006 -0.53371,0.5337 -0.53378,0.5338 -0.80059,0.8006 -1.06753,0.8006 -0.80062,0.5338 -1.33436,0.8006 -0.53375,0.2669 -0.80062,-0.2669 -0.53375,-0.5338 -0.80062,-0.5337 -0.26687,-0.5337 -0.80062,-0.8007 -0.80062,-0.2668 -2.13499,0.2668 -1.86811,0.5338 -2.40187,0.2669 h -1.06749 l -1.60124,0.2668 -1.33437,0.2669 -1.86808,0.2669 -1.33436,1.0675 h -0.80066 l -0.80062,0.2668 -1.06746,1.0675 -1.33437,1.6013 -1.33436,0.8006 -1.33437,0.2669 -1.33436,-0.8007 -2.13503,-1.6012 -1.86808,-1.6012 -1.33436,-0.5338 -0.53379,-0.2669 -0.80058,-0.2668 h -0.53378 -0.53375 l -0.80062,0.2668 -0.80058,0.2669 -1.06754,0.5338 -0.80062,0.5337 h -0.26687 l -0.53371,-0.2669 -0.53378,-0.5337 h -0.53375 -0.26687 l -0.53375,0.2669 -0.80062,0.2668 -0.80062,0.5338 v 0.2669 l -0.26687,0.2668 h -0.26688 l -0.53378,-0.5337 -1.06749,-0.5338 h -1.33437 l -1.06746,0.2669 h -1.06753 -0.53374 -0.53375 l -0.26687,-0.5337 -1.0675,-0.5338 -0.53375,-0.2669 -1.06749,-0.2668 h -1.06749 l -0.80062,-0.5338 -0.53375,-0.2668 -0.53375,-1.3344 -16.27928,2.9356 -13.34367,-8.2731 -12.27618,4.0031 -20.28238,-2.6687 -32.02481,-2.4019 -20.549254,1.3344 -17.88052,1.6012 -18.414265,-4.5368 v 62.4484 l 5.070593,3.4693 0.266873,0.8006 -0.266873,0.5338 0.533747,0.8006 0.80062,0.5338 0.80062,0.5337 1.067494,0.8006 0.533747,0.8006 0.266873,1.0675 0.533747,0.8007 -0.266873,0.8006 -0.533747,1.0675 0.266873,1.0675 v 0.2668 l 0.800621,0.2669 h 0.533746 l 0.533747,0.8006 0.533747,0.5338 0.266874,0.2669 0.80062,0.5337 0.80062,0.5337 v 0.5338 l -0.266873,0.5337 -0.533747,0.5338 -0.266873,0.5337 -0.533747,0.2669 -0.266874,0.5338 -0.266873,0.2668 v 0.5338 l 0.533747,0.8006 v 0.8006 l 0.266873,1.0675 -0.266873,0.8006 v 1.3344 0.8006 0.5338 l -0.266874,0.5337 h -0.266873 v 0.5338 l -0.266874,0.8006 0.266874,0.5337 0.266873,0.2669 h 0.800621 l 0.80062,-0.2669 h 1.067494 l 0.533746,0.2669 0.533747,0.5337 0.266874,0.5338 0.533747,1.0675 0.533747,0.5337 0.266873,0.5338 0.266873,0.5337 v 0.5338 l -0.266873,1.0675 -0.533747,0.5337 v 0.5338 l -0.266873,0.5337 v 0.2669 l 0.266873,0.2669 0.266874,0.2668 0.533746,0.2669 v 0.5337 l 0.266874,0.2669 0.266873,0.5338 v 0.8006 l 0.266874,0.8006 0.266873,0.5338 0.266874,0.8006 -0.266874,0.2668 -0.533747,0.8007 -0.533747,0.2668 -0.266873,0.8007 -0.266873,1.0675 -0.266874,1.0675 -0.266873,0.5337 -0.533747,0.8006 -1.067494,0.5338 -0.533747,0.2668 -0.266873,0.2669 v 0.5338 l 0.266873,0.5337 v 1.0675 l -0.266873,0.8006 -0.266874,0.8006 -1.067493,1.3344 -0.800621,0.8006 -0.533747,0.5338 -0.80062,0.8006 -0.533747,0.2669 -0.266873,0.2668 v 0.5338 l -0.266874,0.8006 -0.266873,0.5338 v 0.2668 0.5338 l -0.533747,0.5337 -0.80062,1.0675 -0.533747,0.5338 -1.334367,0.8006 -1.067494,0.8006 -1.334367,0.8006 -0.533747,1.3344 v 0.5337 l 1.334367,0.5338 0.80062,0.2669 0.533747,1.0675 v 1.3343 1.3344 l 0.533747,1.3344 -0.266873,1.6012 -0.800621,0.8006 -1.067494,0.8006 -0.533746,0.8007 0.266873,1.0674 0.80062,1.3344 1.601241,1.0675 1.334367,1.6013 v 0.8006 l -0.533747,0.2668 -0.266873,0.5338 -0.266874,0.5337 0.266874,1.0675 0.80062,1.6013 0.266874,0.8006 0.266873,1.3344 0.266873,0.8006 6.671836,1.0675 6.671836,2.4018 5.871216,6.6719 0.80062,0.8006 0.800621,0.8006 h 0.80062 l 1.067494,-0.2669 0.80062,0.2669 1.067494,0.5338 0.80062,0.8006 v 0.5337 l 0.266874,0.5338 h 1.334367 1.334367 l 0.80062,0.5337 1.334368,0.2669 0.80062,0.5337 h 0.266873 l 0.533747,0.2669 0.533747,0.5338 0.266874,0.2668 1.334367,0.5338 0.533747,0.5337 1.067493,0.5338 h 1.067494 l 0.533747,0.2668 1.067494,0.5338 0.266873,0.8006 0.533747,0.5338 0.533747,0.8006 0.533747,0.8006 0.80062,0.5337 0.800621,0.5338 0.80062,-0.2669 1.067498,0.2669 0.53374,0.5337 0.26688,0.5338 0.26687,1.0675 0.80062,0.8006 1.06749,1.0675 1.33437,1.0675 0.80062,0.5337 1.60124,0.2669 h 1.33437 l 0.80062,-0.8006 h 0.80062 l 4.26997,1.3344 1.60125,0.5337 1.86811,0.5338 0.80062,0.2668 1.60124,0.5338 h 0.26687 0.80062 l 0.26688,0.2668 h 0.53374 0.26688 l 0.53374,0.2669 0.26688,0.5338 v 0.2668 0.2669 0.2669 0.2669 l 0.26687,0.2668 v 0.2669 l -0.26687,0.2669 -0.26688,0.2669 0.26688,0.2668 0.53374,0.5338 1.0675,0.5337 0.53375,0.2669 0.26687,0.8006 0.26687,0.5338 0.80062,0.2668 1.33437,0.5338 0.53375,0.5337 0.26687,0.5338 0.26687,0.8006 0.53375,1.3344 1.06749,1.0675 0.53375,1.0675 v 0.8006 l -0.26687,0.8006 v 0.8006 l 0.26687,0.8006 0.53375,1.0675 1.06749,1.3344 0.80062,0.8006 0.53375,1.3344 -0.26687,1.3343 -0.26688,1.3344 -0.80062,1.3344 -1.06749,0.8006 -0.80062,0.8006 -0.53375,1.6013 v 0.8006 l 0.26687,0.5337 0.53375,0.2669 0.26687,0.2669 1.86812,1.0675 0.80062,0.8006 1.86811,2.135 1.0675,1.8681 0.80062,1.6012 0.53374,1.3344 2.13499,1.0675 0.53375,2.4019 v 2.1349 l 0.80062,2.135 0.53375,0.8007 0.53374,1.0674 v 0.5338 l -0.26687,0.2669 v 0.5337 1.6013 l 1.33437,2.1349 v 0.2669 l 0.80062,1.6013 5.60434,2.1349 h 2.66873 l 2.93561,0.8007 2.40186,-0.8007 3.73623,1.8682 4.0031,-0.2669 5.33747,0.2669 1.06749,-1.0675 h 2.93561 l 1.33437,0.2668 0.80062,0.5338 1.06749,-0.2669 1.33437,0.5338 1.06749,0.5337 1.33437,-0.2669 h 1.33437 l 2.66873,0.2669 1.86811,1.6012 2.40187,2.135 5.87121,2.9356 1.60124,1.6013 1.33437,3.4693 v 2.6688 l 1.33437,1.8681 0.80062,1.3344 2.9356,0.5337 0.26688,1.8681 1.86811,1.0675 h 2.4019 l 1.86808,-0.8006 0.26687,-0.8006 1.06749,-0.8007 1.0675,-0.5337 1.60124,0.2669 1.33437,0.2668 0.80065,0.2669 1.33437,0.2669 0.26687,-1.0675 0.26688,-0.5337 0.80062,-0.2669 h 0.26687 0.80062 l 0.53375,0.5337 0.26687,0.2669 0.53375,0.2669 h 0.80062 l 1.33436,-0.2669 h 1.33437 1.60124 1.0675 l 2.40186,-0.2669 2.9356,-0.5337 2.13503,-0.5338 0.80058,-0.5337 0.53378,-1.0675 1.06746,-1.0675 0.53375,-0.2669 1.06753,0.2669 1.86808,0.2669 2.13502,1.0675 1.33437,0.2668 0.53371,0.5338 0.53375,0.5337 2.40186,0.2669 0.80062,1.3344 0.26687,0.5337 2.40186,1.6013 1.06753,0.5337 0.80059,1.3344 0.80062,1.0675 0.80062,1.0675 1.60127,0.5337 1.86808,0.5338 4.0031,0.5337 2.40186,0.2669 h 2.40191 l 2.4018,-0.5338 1.86812,-1.3343 1.33437,-1.3344 1.33436,-1.6012 1.60124,-1.6013 2.66874,-0.5337 2.93561,0.2668 h 0.5338 l 1.06744,0.2669 1.33436,0.5338 1.33437,2.1349 0.53375,1.6013 0.53375,0.8006 1.60124,0.2669 h 2.13498 l 4.26998,0.2669 h 2.93561 l 1.60129,-0.2669 1.60119,-0.5338 1.60124,-0.2668 1.06749,-0.5338 1.33437,-0.5337 h 0.80062 l 1.60129,-0.5338 h 0.80057 l 1.06749,-0.8006 0.80068,-0.5337 0.26687,-1.6013 0.53375,-1.0675 0.53377,-2.4018 2.66874,-2.4019 1.33436,-0.5338 h 0.53372 l 1.60124,-0.2668 1.0675,-0.2669 1.06749,-0.5337 1.06752,-0.2669 1.06747,-0.5338 1.60127,-1.0675 1.86808,-0.5337 h 1.33437 2.40186 1.06752 0.8006 l 1.60124,-0.5338 1.33436,-0.8006 2.13499,-1.6012 1.33437,-0.8006 1.33437,-0.5338 0.53374,-1.8681 0.26688,-0.2669 v -0.2668 -1.0675 l 0.53369,-2.4019 0.80067,-1.3344 1.06744,-1.3343 0.53375,-0.8007 0.80062,-1.3343 0.53375,-1.8681 0.53374,-1.6013 0.26688,-0.5337 0.80062,-1.8681 0.53375,-0.2669 0.53374,-0.2669 v -0.2669 l 0.53375,-1.6012 0.80062,-3.2025 0.80062,-1.6012 0.26687,-0.8006 1.60122,-0.5338 1.60124,-0.5337 0.53374,-0.2669 1.60127,-1.6012 1.60122,-1.0675 0.53374,0.2668 h 0.80062 l 1.33437,0.2669 0.53375,0.2669 0.53377,0.2669 0.53372,0.2668 0.53375,-0.2668 h 1.60127 1.06746 0.53375 l 0.53375,-0.2669 0.53377,-0.5338 0.53372,-0.5337 0.80065,-0.5338 1.33436,-0.8006 0.8006,-0.5337 0.80062,-0.2669 0.26687,-0.2669 v -0.8006 l 0.26687,-1.0675 -0.53374,-1.0675 -0.53375,-0.8006 -0.26687,-1.3344 -0.53375,-1.3343 -0.26687,-1.0675 0.26687,-0.8007 v -0.5337 l 0.53375,-1.6012 0.80062,-1.3344 0.80062,-0.2669 0.80062,-0.8006 0.53375,-0.2669 0.80062,-0.8006 0.80064,-0.5337 0.26688,-1.3344 v -0.8006 l 0.26687,-1.0675 0.26687,-0.2669 0.26688,-0.2669 1.06749,-1.6012 v -0.8006 l 0.5338,-0.5338 1.06744,-1.3343 1.06749,-0.5338 1.0675,-0.8006 0.80067,-0.2669 0.5337,-0.2669 0.53374,-0.2668 0.53375,-0.5338 0.26687,-0.5337 0.53375,-1.0675 0.26687,-1.6013 v -0.8006 -0.5337 l 0.26688,-0.5338 0.53374,-1.0675 0.26688,-0.5337 0.53374,-1.6013 v -1.3343 l -1.06749,-1.3344 -0.53375,-0.8006 -1.33436,-0.5338 h -1.33437 l -1.06749,-0.5337 -1.0675,-0.5337 -0.80062,0.2668 h -0.53375 l -0.53374,0.2669 -1.0675,0.5337 h -1.06749 l -1.06749,-0.2668 -0.80062,-0.5338 -0.26688,-0.8006 -0.26687,-1.3344 0.26687,-0.2668 0.53375,-0.2669 1.06749,-0.5338 0.80062,-1.0675 -0.53374,-0.5337 -0.26688,-0.2669 -0.53377,-1.6012 v -0.5338 l -0.26687,-0.5337 0.26687,-0.5338 0.53377,-0.5337 0.53372,-1.3344 0.53375,-0.5337 v -1.3344 l 0.26687,-0.5337 0.26688,-0.8006 0.53374,-0.2669 0.26688,-0.5338 v -0.5337 -0.5338 -1.0675 -0.5337 l 0.26687,-0.2669 0.26687,-0.8006 h 0.53375 l 2.40186,0.2669 0.80065,0.2669 h 1.60121 l 1.06752,-0.8007 h 0.53372 l 0.53375,-0.8006 -0.26687,-1.6012 -0.8006,-0.2669 v -0.2669 -0.8006 l -0.53377,-0.8006 -0.80059,-1.0675 -0.26688,-0.8006 -0.80062,-1.0675 -0.26687,-0.5338 -1.60124,-0.8006 -0.26688,-0.2669 0.26688,-0.5337 -0.80062,-1.3344 -1.0675,-0.8006 -0.80062,-1.0675 v -1.0675 l -0.53374,-0.8006 -0.53375,-0.8006 -0.53375,-0.2669 -0.53374,-1.0675 -0.26688,-0.2669 -0.26687,-1.0675 -0.26687,-1.3343 -0.26688,-0.8007 -0.26687,-1.3343 0.26687,-0.8006 v -0.5338 l 0.80068,-0.5337 1.60118,0.2668 h 1.06755 l 2.93556,-0.2668 1.86811,-0.2669 0.80062,-0.5338 0.80062,-0.2668 0.26687,-0.2669 0.53372,-0.2669 0.26688,-0.5337 v -0.2669 l -0.26688,-1.0675 -0.53372,-0.5337 -0.26687,-0.8007 -1.06744,-1.0674 -1.06755,-0.8007 -1.06749,-0.5337 -1.0675,-0.8006 -1.60124,-0.2669 -1.33436,-0.8006 -1.33437,-0.8006 -1.06749,-1.0675 -0.53375,-1.0675 -0.80062,-1.0675 -0.26687,-1.0675 v -0.5338 l 0.26687,-1.3343 0.5338,-1.3344 v -1.0675 l 0.53369,-0.8006 0.80068,-1.0675 v -0.5338 l -0.80068,-0.2668 v -1.0675 l -0.26687,-1.6013 0.26687,-1.3343 0.80068,-1.3344 -0.26688,-1.0675 v -0.8006 l 0.26688,-1.0675 0.80056,-0.8006 0.26688,-1.3344 -0.53375,-0.5337 -2.40186,-2.9357 -2.40186,-2.6687 -1.06744,-1.3344 h -0.80068 l -1.33436,-1.8681 -0.80062,-1.6012 -1.33437,-1.3344 -0.80062,-1.0675 -0.26687,-1.3343 -0.26688,-0.2669 -1.06744,-2.9356 -0.26687,-1.0675 -0.53375,-1.8681 0.26687,-0.5338 -0.26687,-1.0675 0.26687,-1.3343 0.80062,-0.8007 0.53375,-0.8006 1.0675,-0.8006 0.80064,-0.8006 1.06747,-1.0675 0.80062,-0.5338 h 1.06749 l 1.06752,-0.5337 h 0.8006 1.06749 l 1.33437,-0.5337 0.26687,-1.0675 v -1.0675 -0.2669 -0.5338 l -0.26687,-0.5337 v -0.8006 l -0.26687,-0.5338 v -0.2668 -0.5338 l 0.26687,-0.5337 v -1.3344 -0.5338 h 0.26687 l -3.46933,-5.0705 -1.06752,-4.27 v 0 z"
      data-name="Cercadinho" id="cercadinho" />
   <path class="neighborhood"
      d="m 286.92922,1158.9703 8.09705,0.7497 12.2386,7.638 3.5994,11.1098 6.23924,10.8778 10.55879,6.2488 11.51858,3.0088 16.5528,9.8222 0.10114,0.5047 -0.0568,0.6204 0.0755,0.523 0.23992,0.1886 0.34656,-0.055 0.18922,-0.1945 0.32166,-0.2007 0.52352,-0.091 0.4855,-0.2554 0.35334,-0.2492 0.44776,-0.067 0.41622,0.2431 0.32772,0.6204 0.32772,0.3831 0.56753,-0.146 0.61816,0.4075 0.26474,0.1401 0.27755,0.4499 -0.0133,0.6508 0.12597,0.6203 0.38472,0.4622 0.42252,0.5473 0.61797,0.4987 0.34693,0.4013 0.28358,0.6387 0.20817,0.8453 0.17693,0.6385 0.15132,0.3831 0.34053,-0.037 0.40362,-0.213 0.58013,0.055 0.42262,0.3102 0.52339,0.6265 0.34053,0.4804 0.40362,0.1884 0.91887,4.2658 3.44104,4.9066 0.64621,-0.4912 0.63623,-0.3759 0.4291,-0.4176 0.84511,-0.7043 0.401,-0.3247 0.30069,-0.1382 0.22631,-0.2084 0.28216,-0.5027 0.27934,-0.6562 0.17907,-0.9322 0.0574,-0.4352 -0.008,-0.5041 -0.0187,-0.873 -0.0822,-1.079 -1.00369,-2.1736 -0.75674,-0.8727 -0.90497,-0.9678 -0.36188,-0.6189 0.0822,-0.8408 0.18254,-0.684 0.11288,-0.2734 0.34232,-0.5242 0.45286,-0.7487 1.66062,-1.4767 2.54469,-1.2895 0.3883,-0.9983 -0.0648,-1.3726 0.99202,-0.6656 0.94898,-0.6655 1.29394,-0.4369 2.35072,-0.4367 1.44486,-0.4159 1.85463,-0.1874 2.9762,-0.4783 1.31548,-0.8528 0.49606,-0.6239 0.56065,-0.5823 0.0355,-0.3606 0.0726,-0.7419 0.7117,-0.4367 0.53922,-0.3536 0.94889,-0.1871 0.3021,-0.6655 0.7548,-0.4993 1.58747,-0.7359 1.63228,-0.3046 h 1.31617 l 1.10581,-0.6094 0.57906,-1.2187 0.0526,-0.6601 1.05289,-0.2538 1.26376,-0.457 0.70972,-1.2371 0.37063,-1.2999 -1.3e-4,-0.3843 -0.26501,-0.9372 0.50792,-0.2981 1.45739,0.5857 0.81722,-0.3302 0.51894,-0.362 1.10411,-0.426 1.02701,-0.9264 0.59619,-0.6817 0.0883,-0.7454 1.08206,-0.1703 1.15946,-0.5964 0.98268,-0.6282 1.09306,-1.1288 0.67367,-0.5219 0.27008,-0.8285 -0.032,-1.0401 1.14572,-0.52 0.53913,-1.3649 -0.23591,-1.0075 -0.16867,-0.8777 0.13478,-0.7799 0.6402,-0.6826 0.37063,-0.8124 -0.26973,-0.6176 -0.6738,-0.8124 -0.67396,-1.1376 -0.53919,-0.6175 -0.84236,-0.91 -0.47189,-0.715 -0.43794,-0.6501 -0.42481,-0.6749 -0.4979,-0.8785 -0.0478,-0.4247 0.11555,-0.2771 0.61926,-0.2923 0.67348,-0.7351 0.23592,-0.8125 0.50559,-0.4875 0.23591,-0.7476 0.37064,-0.6825 0.46561,-0.5541 0.7592,-0.9851 0.70391,-1.1583 0.80046,-0.5457 0.97192,-0.095 1.24553,-0.5367 1.46634,-0.3153 1.58117,-0.1959 1.04233,-0.1278 1.34349,-0.4811 0.86277,-0.806 0.91655,-1.0661 0.26973,-0.884 0.51219,-0.8841 0.45819,-0.5981 0.10782,-0.8841 0.74407,-1.0053 1.07774,-0.8947 1.60604,-0.6282 1.57429,-0.083 0.90569,-0.3536 0.8842,0.624 0.36669,0.832 0.45283,0.1666 0.47447,0.624 0.38828,0.416 0.66846,0.2495 0.56078,0.1041 0.6254,-0.2704 1.20765,-1.061 0.50741,-1.0419 0.88452,-0.65 1.13723,-0.2437 0.56433,0.061 0.28785,0.1348 0.2634,-0.1348 0.74255,-0.5499 1.51171,-1.7864 0.21056,-1.0158 0.50546,-2.3563 1.05303,-0.8939 2.48518,-0.2439 1.06026,-0.3629 1.06272,0.2263 0.66264,0.2664 1.18695,0.253 2.08417,0.4261 1.46295,-0.1065 1.04908,0.253 1.32492,0.4392 1.90478,0.1065 1.53196,-0.3995 2.38783,-0.5457 1.79435,0.253 1.61477,0.2129 1.53214,0.8387 0.81429,0.3995 1.83577,-0.013 1.2835,-0.013 1.73916,-0.6257 1.94615,-0.1732 1.3388,0.093 0.91089,0.213 2.02898,-0.3861 0.96608,0.013 1.3941,0.8787 0.70388,0.3461 0.78671,-0.04 0.635,-0.2797 0.63489,0.3728 0.52446,0.4794 0.87086,0.3737 0.40237,0.1166 0.31526,0.03 0.38832,-0.3018 0.42463,-0.7514 0.38643,-0.093 0.55203,0.4527 0.16573,0.4127 1.06287,0.3196 1.14553,0.4393 0.91089,-0.013 0.33127,-0.4792 0.0963,-0.3062 1.65937,0.045 0.64023,-0.5525 1.28048,0.032 1.01089,0.4225 0.84236,0.5201 1.04465,-0.1625 1.07833,0.13 0.64023,0.7801 0.52233,2.0802 0.0526,1.5743 -0.21056,1.6252 0.73699,1.0664 0.94786,1.0665 v 1.9806 l 0.63182,0.711 0.6318,0.051 0.47383,-0.5079 1.15826,0.8126 1.36895,0.2031 1.15842,0.711 1.36896,0.1014 2.84313,-2.7931 -0.21056,-0.7617 -0.52662,-0.7619 v -0.9649 l 0.68458,-0.7111 1.00032,-1.371 0.26341,-1.1174 1.15828,-0.6094 0.84249,-0.3047 1.15826,-0.9142 1.47432,-0.457 0.73715,-0.4572 0.42108,0.3557 -0.10542,0.5585 0.6318,0.5079 1.42155,-0.051 1.10569,0.051 1.26359,0.2538 1.10582,0.5587 1.42152,0.4571 2.10601,1.3711 1.00045,0.965 -0.21056,1.4728 1.57954,1.0664 1.89542,1.1681 2.42198,1.5235 3.21177,1.422 1.89542,0.3555 1.15823,-0.5587 1.42171,-2.1329 1.47418,-0.8126 h 0.78974 l 0.15799,-1.0156 -0.21057,-0.9649 1.05303,-2.1839 1.42156,-1.4728 -0.0526,-1.9806 -0.21056,-2.3869 -0.73713,-0.6602 -1.3162,-1.0666 -1.21101,-0.254 -0.68443,0.7619 -1.26372,0.2537 -1.47419,-0.4571 -1.05302,-0.6094 -0.57923,-0.7619 -0.63179,-0.203 h -0.94772 l -1.0003,-0.5078 -0.21056,-0.7111 0.52659,-0.3047 0.84236,-0.7111 -0.21056,-0.7617 -0.0526,-0.8126 -0.52646,-0.5079 -0.73718,0.4062 -0.47381,0.5079 -0.73716,0.1524 -0.57906,-0.6603 0.10488,-0.8126 0.63183,-0.8126 0.57922,-0.5587 0.78973,-1.5237 1.15839,-1.1173 1.42156,-0.9141 2.31667,-1.6252 1.86595,-0.4826 1.7801,-0.3459 2.0158,-1.396 -0.11742,-1.8494 -1.45409,-1.7729 -2.20611,-1.0707 -4.8066,-2.5163 -1.48168,-1.2475 -1.41496,-1.9521 -1.69863,0.395 -3.31531,-1.2938 -1.68224,-0.6566 -3.69697,-1.8228 -2.28155,-0.7295 -0.81061,-0.6689 -2.35377,-0.4522 -1.52368,-0.4995 -1.34777,-0.7442 -1.30885,-0.7632 -1.53335,-0.5088 -1.18172,-0.8385 -0.76187,-0.4618 -1.16223,-0.1697 -0.86931,-0.6407 -0.21484,-0.2637 -0.25379,-0.7726 -0.15159,-0.317 -0.48827,-0.3203 -0.54698,-0.1129 -1.06872,-0.096 -1.18786,-0.1198 -1.14646,-0.013 -1.90614,-0.453 -1.0391,-0.1767 -1.16987,-0.61 h -0.0285 l -1.86798,-29.5926 0.33129,-17.8975 -0.40303,-7.4582 -0.27256,-4.3256 0.39519,-4.8202 -0.48659,-4.9079 -2.51232,-10.9842 -4.72139,-8.9723 -3.28503,-10.3128 -8.82302,-3.6894 -9.70523,-3.9733 -13.5284,-9.64975 -13.5284,-10.21754 -8.52888,-15.61079 -7.16424,-8.31831 -3.12909,-13.53809 -12.05806,-16.18043 -14.41064,-6.5292 -6.55067,-5.78576 -5.56079,-0.29287 -3.89769,-1.8221 -7.73975,-0.003 -29.10415,-0.48659 -10.15718,-1.42646 -7.70845,-1.62948 -18.90211,-3.87041 -27.51978,-3.29504 -0.73532,28.51314 -0.0801,18.15497 -9.43485,26.97188 -38.15736,59.88643 -18.20775,28.0304 -10.13923,17.2618 -4.98388,4.5538 -2.1553,7.1855 -4.35502,7.5878 -3.86564,8.7958 6.77943,13.5067 1.28157,0.5414 0.41283,0.6394 0.48763,1.677 0.2626,1.146 -0.1,0.7118 -0.17507,1.9665 0.0374,1.134 -0.0623,1.0978 -0.19997,1.1702 -0.1562,1.4355 -0.0875,1.8398 0.032,0.9169 -0.069,0.7117 0.0141,0.6514 -0.31277,0.7479 -0.30637,0.4826 -0.36878,0.9228 -0.032,0.4705 0.38768,0.8264 0.0936,0.8746 0.032,0.5488 0.0939,0.193 0.31278,0.1449 -0.0939,0.6212 -0.0141,0.8867 0.20637,1.0616 -0.0815,1.3631 0.12669,1.5952 -0.0438,0.4343 0.25655,1.5562 0.45635,1.1579 0.1,1.134 -0.0815,0.953 0.0248,1.8336 -0.13771,1.6646 -0.36266,1.2486 0.0438,0.3076 0.14376,0.1929 -0.0248,0.3319 -0.16901,0.2895 -0.44393,0.8322 -0.23771,1.0374 -0.11243,0.8686 -0.007,0.8444 -0.0936,1.6887 -0.16261,1.2666 0.10603,1.158 0.0248,0.7419 -0.35668,1.2717 0.5568,1.2432 0.6378,0.3619 0.79417,0.4524 1.03177,0.1871 0.988,0.2412 0.60655,0.1327 0.96915,0.555 0.26972,0.4588 0.58093,0.06 0.50435,0.1086 1.05686,-0.066 1.11304,-0.2413 1.38813,0.072 1.05995,0.3708 0.40301,0.5191 0.45024,-0.03 0.21243,-0.2111 -0.0179,-0.305 0.91303,-0.4584 0.68148,-0.3196 0.57538,-0.096 0.29392,-0.036 0.47525,-0.01 0.55648,0.38 0.46283,0.4161 0.37772,-0.1595 0.78162,-0.4584 0.89416,-0.4644 1.00046,-0.3559 0.75052,-0.2276 0.56264,-0.066 0.43152,0.1086 0.73162,0.1268 0.76294,0.2533 1.10044,0.5669 2.07635,1.8204 2.16669,1.595 1.26452,0.58 1.35301,-0.1449 1.34551,-0.8445 1.34411,-1.6207 1.11425,-1.0406 0.67213,-0.2218 h 0.67213 l 1.57399,-0.9894 1.71567,-0.4264 1.45023,-0.1877 1.55651,-0.3583 1.11425,0.034 2.42293,-0.29 1.76876,-0.5117 2.0693,-0.1537 0.7428,0.2046 0.81354,0.8189 0.44226,0.6142 0.69729,0.4725 0.47525,0.4464 0.80659,0.2111 0.55023,-0.2834 1.3507,-0.6574 0.9005,-0.6877 0.95046,-0.7417 0.91915,-0.7539 0.52542,-0.4343 0.37508,-0.5488 0.26901,-0.9167 0.0936,-0.7058 0.55648,-1.8696 0.50023,-0.4946 0.68163,-0.5609 0.68797,-0.5248 0.78773,-0.3438 0.42526,-0.1628 0.9943,-0.019 0.87548,-0.084 0.6752,0.03 0.48152,-0.2413 0.30637,-0.6151 0.2939,-0.2172 1.18185,-0.8746 0.77532,-0.3499 0.76294,-0.169 0.45635,-0.7298 0.43783,-0.2833 0.65651,-0.1388 0.56279,-0.386 1.01929,-0.4826 0.67538,-0.2533 0.42521,-0.6513 0.0499,-1.2124 0.46266,-0.6574 0.33164,-0.1326 0.66905,0.2231 0.50653,0.205 0.50022,0.1507 0.34374,0.097 0.64407,-0.6273 0.58779,0.01 1.01932,0.3015 h 0.38142 l 0.14384,0.03 0.0726,0.2329 0.39505,0.911 1.02482,0.478 0.85678,-0.1748 0.43137,-0.169 0.59745,0.1078 0.60943,0.037 0.98372,0.3347 1.28236,0.563 0.95506,0.2218 0.22124,0.111 z"
      data-name="Inhobim" id="inhobim" />
   <path class="neighborhood"
      d="m 28.713231,1171.1464 16.689411,-9.1395 1.647428,-0.4255 1.985112,0.3685 18.425332,4.6647 17.913613,-1.6116 20.445703,-1.3369 32.27966,2.4299 20.25281,2.4301 12.19683,-3.9452 13.25468,8.4468 16.28704,-3.063 0.35668,-1.2717 -0.0248,-0.7419 -0.1064,-1.158 0.16261,-1.2667 0.0936,-1.6887 0.003,-0.8443 0.1128,-0.8686 0.23771,-1.0374 0.44393,-0.8322 0.16902,-0.2896 0.0248,-0.3318 -0.14376,-0.193 -0.0438,-0.3076 0.36267,-1.2486 0.1377,-1.6645 -0.0248,-1.8337 0.0815,-0.9529 -0.1,-1.134 -0.45635,-1.1579 -0.25655,-1.5563 0.0438,-0.4342 -0.12669,-1.5952 0.0815,-1.3631 -0.20637,-1.0617 0.0141,-0.8866 0.0939,-0.6212 -0.31277,-0.145 -0.0939,-0.1929 -0.032,-0.5489 -0.0936,-0.8745 -0.38768,-0.8264 0.032,-0.4705 0.36878,-0.9229 0.30637,-0.4825 0.31278,-0.7479 -0.0142,-0.6515 0.069,-0.7117 -0.032,-0.9169 0.0875,-1.8397 0.1562,-1.4355 0.19997,-1.1702 0.0623,-1.0978 -0.0374,-1.1341 0.17507,-1.9664 0.1,-0.7118 -0.26261,-1.146 -0.48763,-1.6771 -0.41283,-0.6393 -1.28153,-0.5414 -6.77948,-13.5067 3.86565,-8.7959 4.35502,-7.5877 2.1553,-7.1855 4.98392,-4.5538 10.1392,-17.2619 18.20774,-28.0304 38.15733,-59.88632 9.43488,-26.97183 0.0801,-18.15498 0.73531,-28.51318 -15.7434,12.50094 -16.38192,13.3798 -122.04347,38.6429 -61.561825,27.97907 -0.447173,0.64989 -1.715249,0.27896 -46.446403,6.44015 25.150543,50.6107 -4.258553,12.5374 -2.178042,3.1208 -3.15996,3.6295 -1.659064,3.5574 0.130581,3.1308 0.691629,3.9779 -0.09287,5.3466 -4.035092,9.2122 -1.810469,4.826 2.858927,6.0243 -0.601925,6.2418 -0.90278,8.2015 2.050941,9.7717 -1.863988,4.9216 -1.023334,1.3294 -2.204375,4.9959 -0.566198,2.6733 0.206747,5.8112 1.539005,19.0303 z"
      data-name="Veredinha" id="veredinha" />
   <path class="neighborhood"
      d="m 637.31518,775.62749 -12.74969,-8.25143 -11.83448,2.97147 -16.56844,-3.20013 -8.28412,-8.22878 -5.20718,-16.00103 -25.79914,-8.91531 -26.03596,-13.25899 -7.073,-2.92974 -3.84938,-1.2898 -13.33716,-7.90079 -25.96316,-10.3059 -25.07382,-13.05471 -14.30941,-7.57536 -9.74067,10.74924 -10.00105,11.64006 -9.3789,12.39346 -13.82943,22.53098 -8.56813,13.11512 -4.6882,7.9626 -3.68563,4.14382 -2.91014,4.57443 -11.61212,17.56318 -7.75983,8.27388 -2.90998,4.215 -25.80912,39.64666 -27.7242,47.80525 -10.80766,10.46035 -7.02437,9.56325 27.51977,3.29503 18.90212,3.87041 7.70845,1.62945 10.15712,1.42647 29.1042,0.48659 7.73976,0.003 3.89769,1.8221 5.56079,0.29322 6.55067,5.78573 14.41063,6.52922 12.05807,16.18043 3.12909,13.53806 7.16424,8.31834 8.52885,15.61074 13.52843,10.21759 13.52837,9.64965 9.70523,3.9733 8.82305,3.6895 3.28502,10.3128 4.7214,8.9722 2.51232,10.9843 0.48659,4.9079 -0.39519,4.8202 0.27256,4.3255 0.40298,7.4582 -0.33127,17.8975 1.86798,29.5926 34.98713,-84.505 6.76567,-16.3062 180.84927,-195.30003 -0.20096,-0.27327 -0.35806,-0.23512 -0.31491,-0.23511 -0.33271,-0.032 -0.19722,0.0601 -0.41542,0.41501 -0.51557,0.47013 -0.81645,0.38723 -0.75906,0.19402 h -0.9739 l -0.7306,-0.19402 -0.83069,-0.29036 -0.80201,-0.37341 -0.44408,-0.0133 -0.54429,-0.083 -0.34373,-0.20736 -0.52983,-0.4148 -0.38675,-0.23512 -0.54423,-0.37341 -0.5013,-0.5947 0.0715,-0.88514 -0.21483,-0.33199 -0.63027,-0.15185 -1.16013,0.40117 -0.57287,-0.083 -0.77644,-0.34408 -0.39364,-0.008 -0.37829,0.0286 -0.32273,-0.10221 -0.42866,-0.11209 -0.46908,0.13637 -0.41942,0.18868 -0.57764,0.35121 -0.4495,0.24792 -0.50634,0.008 -0.42078,-0.0691 -0.44226,-0.22738 -0.32097,-0.0825 -0.11422,-0.24099 -0.032,-0.49532 0.0574,-0.26153 -0.0427,-0.62673 -0.19508,-0.37896 -0.10702,-0.57858 -0.0133,-0.75771 0.0187,-0.75279 0.003,-0.60434 0.0355,-0.64743 -0.0213,-0.82643 0.0734,-0.14518 0.0963,-0.12783 -0.0769,-0.0921 -0.0675,-0.0376 -0.23885,-0.0448 -0.42097,-0.17213 -0.49927,-0.1652 -0.38953,0.0187 -0.44397,0.0392 -0.38824,-0.0355 -0.59518,-0.0878 -0.56495,0.11716 -0.37109,-0.008 -0.20682,-0.0448 -0.40653,-0.0213 -0.40915,0.11182 -0.19615,0.0963 -0.2143,0.17907 -0.17106,0.17534 -0.1676,0.11715 -0.21457,0.0542 -0.11075,-0.0734 -0.14624,-0.0536 -0.16146,0.0825 -0.17641,0.13637 -0.20175,0.18975 -0.14625,0.26794 -0.24205,0.26794 -0.20176,0.1217 -0.34301,0.13637 -0.26722,-0.0355 -0.33912,-0.27152 -0.3935,-0.44806 -0.36314,-0.56494 -0.87836,-1.42356 -0.32062,-0.65159 -0.19989,-0.3238 -0.18548,-0.2618 -0.10007,-0.41329 0.14277,-0.3788 0.18922,-0.21856 0.0659,-0.29215 -0.0403,-0.31171 -0.0707,-0.24846 -0.19669,-0.19001 -0.2522,-0.0107 -0.29748,0.0875 -0.32772,0.0926 -0.21697,-0.003 -0.23191,0.024 -0.46911,-0.28251 -0.87318,-0.30282 -0.34232,-0.0793 -0.57538,-0.20603 -0.19242,-0.10968 -1.90782,-0.41515 -0.60893,-0.11609 -0.49841,0.0622 -0.5812,0.17827 -0.5168,0.0446 -0.45205,0.4009 -0.95968,-0.24953 -0.95031,0.1249 -1.32879,0.36529 -1.38401,0.12463 -0.81196,0.24046 -0.46145,0.36529 -0.6919,0.37416 -1.13493,0.26722 -1.83622,0.36546 -1.11655,-0.11609 -0.88575,-0.34729 -0.62753,-0.0889 -0.68992,0.14438 -1.08953,-0.0819 -0.93299,-0.32131 -0.57536,-0.26829 -0.57524,-0.41926 -0.54821,-0.22551 -0.83574,-0.10461 -0.21697,0.10461 -0.0926,0.0681 -0.14117,0.2255 -0.22818,0.1676 -0.29321,0.0419 -0.28751,-0.0286 -0.28753,-0.17293 -0.24952,0.003 -0.32025,0.10008 -0.14651,-0.003 -0.36896,0.0995 -0.37447,-0.0787 -0.2063,-0.18868 -0.21216,-0.28323 -0.19535,-0.10461 -0.33093,0.0472 -0.47215,0.21484 -0.22818,0.0801 -0.19321,-0.0286 -0.22204,-0.15238 -0.30779,-0.49086 -0.30778,-0.42188 -0.38681,-0.25593 -0.47978,-0.19348 -0.27221,-0.0899 -0.13638,-0.16573 -0.10701,-0.0285 -0.10755,0.0761 -0.0502,0.41496 -0.0931,0.26973 -0.29356,0.14518 -0.42249,0.0213 -0.50853,-0.2143 -0.44392,-0.33199 -0.15051,-0.25593 -0.0502,-0.22124 0.16466,-0.15906 0.20069,-0.31811 0.043,-0.20736 -0.4726,-0.37341 -0.3938,-0.31099 -0.20069,-0.30424 -0.30069,-0.10381 -0.52291,0.0899 -0.47968,0.19401 -0.48704,0.1241 -1.06702,-0.29036 -0.58733,-0.16573 -1.31144,0.0355 -0.46097,-0.10035 -0.47587,-0.80419 -0.44607,-0.80399 -0.62449,-0.70358 -0.16359,-0.57429 -0.25273,-1.07699 -0.49073,-0.0862 -1.15975,-0.18681 -0.75845,-0.73222 -0.38662,-0.73228 -0.10382,-0.70358 -0.84759,-0.73236 -0.44608,-0.4737 -0.53534,-0.45961 -0.33021,-0.0718 -0.3792,0.11502 -0.40885,-0.1652 -0.32702,-0.35155 -0.17107,-0.75376 0.0446,-0.78973 -0.28254,-0.78255 -0.41635,-0.48104 -0.66171,-0.40213 -0.79542,-0.20095 -0.61709,0.15078 -1.12266,0.20096 -0.33482,-0.0643 -0.54268,-0.46668 -0.52049,-0.64618 -0.42371,-0.30138 -0.57994,0.008 -0.75083,0.28715 -0.61984,0.3135 -0.17907,0.0187 -0.0777,-0.083 0.036,-0.25486 0.17213,-0.5085 0.0424,-0.57373 -0.62572,-0.5583 -0.77609,-0.71279 -0.45208,-0.71063 -0.49407,-0.45697 -0.44167,-0.0406 -0.84111,0.16252 -0.35747,-0.34517 -0.25273,-0.49748 -0.0737,-0.42646 0.11609,-0.44672 z"
      data-name="Cabeceira da Jiboia" id="cabeceira_da_jiboia" />
   <path class="neighborhood"
      d="m 381.33823,760.22227 -8.64787,-7.32343 -9.75828,-5.91544 -9.87747,-2.64962 -6.41585,-2.37155 0.27221,-2.59283 -0.83141,-1.42094 -1.64915,-2.14908 -5.13155,-0.0755 -3.38398,2.20427 -4.79142,3.38259 -3.93958,3.31358 -5.59698,4.21685 -5.2004,1.71767 -9.34071,1.47797 -6.80201,0.60314 -4.12728,-0.48211 -9.18429,-0.56158 -5.36466,1.98188 -4.08095,0.19615 -7.71091,-2.47904 -5.51079,-3.41416 -8.00641,-2.41008 -4.47109,-0.90385 -8.00642,2.41008 -8.31834,3.31385 -8.42227,4.01674 -9.1817,-3.45884 -3.39135,-0.19722 -3.1526,0.0982 -5.13798,0.25006 -8.46263,-1.54285 -5.0084,1.12589 -7.29689,3.37755 -3.19504,4.04476 -2.54747,3.9612 -2.15883,2.08481 -3.21166,4.31588 -4.79326,1.376 -2.24088,0.15612 -2.65618,0.26581 -4.45515,1.39137 -4.79251,2.37659 -3.28151,0.70879 -4.01534,1.95967 -2.46111,-0.70878 -4.57674,-0.1668 -2.07929,2.55635 0.61202,1.42044 4.47277,6.64854 12.77562,11.05485 17.44527,20.64968 41.90881,37.48187 66.01954,45.21866 2.60279,1.56756 7.02441,-9.56325 10.80765,-10.46031 27.7242,-47.80523 25.80912,-39.64669 2.90999,-4.215 7.75982,-8.27385 11.61212,-17.56324 2.91015,-4.57442 z"
      data-name="Dantilândia" id="dantilandia" />
   <path class="neighborhood"
      d="m 139.55598,779.70307 2.04831,6.11365 0.62413,2.7094 0.77703,5.6333 0.13698,3.10734 -0.4614,7.13921 -1.31284,6.23678 -2.78072,7.43734 -4.184,7.19365 -4.77334,5.79572 -2.17633,2.13216 -1.50528,1.33231 -2.1753,1.74727 -1.08632,0.8014 -0.28893,0.20576 1.72489,2.76705 -0.0413,0.1796 0.032,0.18468 1.0581,1.66524 0.0825,2.28201 2.2279,5.27328 0.38106,20.75099 -5.72732,4.57354 -3.4079,5.04124 -7.47569,8.33107 -4.01271,3.34301 -3.79281,1.69791 -2.91319,4.61645 -4.067612,0.31846 -2.819643,1.46983 -2.292443,2.40365 0.659711,4.82852 -3.133235,4.40405 -1.846836,8.33216 -3.957627,0.74282 -2.308703,3.23661 0.274701,13.47628 -2.638381,1.90996 -1.561247,3.02224 -0.91228,5.14825 -1.652515,4.85721 -4.383983,3.08834 -7.074033,3.37629 -9.059035,5.52202 -5.788664,6.03187 -6.599566,5.09891 -5.682697,2.55342 -4.651246,1.26607 -5.716749,7.00228 0.884027,3.58502 -1.554627,7.87698 -2.224834,2.49213 -1.984649,2.1582 46.446403,-6.44009 1.715211,-0.27899 0.447173,-0.64989 61.561829,-27.97904 122.04347,-38.64292 16.38196,-13.37978 15.7434,-12.50097 -2.60284,-1.56753 -66.01953,-45.21867 -41.90881,-37.48189 -17.44527,-20.64965 -12.77558,-11.05486 -4.4728,-6.64854 z"
      data-name="São João da Vitória" id="sao_joao_da_vitoria" />
   <path class="neighborhood"
      d="m 441.23024,677.68699 -5.7416,-5.88757 -4.41141,-10.51169 -2.64686,-7.31589 -2.13231,-5.54008 -3.82315,-10.58358 -5.14674,-13.06992 -28.61105,-1.25393 -14.19993,-10.58377 -11.1548,-10.61876 -8.91737,-8.2027 4.7384,-9.41127 -12.63574,-22.38419 7.94826,-41.48863 -0.13157,0.65619 -1.32988,1.7545 -0.86179,1.42812 -2.37941,2.59548 -4.92758,4.66997 -8.34687,21.32916 -11.4059,14.83774 -16.63372,23.77418 -7.62396,8.70552 -9.35653,15.06682 -13.72701,4.52614 -12.74935,5.43045 -19.55492,5.28047 -15.91131,3.98967 -11.11129,2.72569 -33.10003,11.003 -22.59141,6.21882 -38.18606,12.24688 -24.49155,7.487 -20.628388,11.10044 0.906905,3.39805 1.26363,2.2472 2.886503,2.74376 3.352995,2.86718 2.231276,2.44058 2.903655,5.29056 3.576459,0.72629 3.735125,5.83759 2.65817,3.07329 0.59085,0.26554 2.48737,4.28711 0.97576,0.92914 0.426,2.07054 1.53001,1.21451 2.19871,-0.27861 1.22296,0.39807 -0.12348,2.89344 1.53441,2.05044 2.12101,2.34272 1.69539,1.59897 1.45225,1.06395 3.51462,1.16437 0.24304,1.49961 -0.52599,0.97244 -0.34658,1.33215 1.53919,0.8494 2.22373,2.05888 0.54623,3.47013 3.47875,7.1509 -4.7359,8.65494 4.97267,4.61475 1.86292,2.09723 2.8063,3.6856 4.29182,7.6108 2.07927,-2.55635 4.57674,0.1668 2.46114,0.70873 4.0153,-1.95962 3.28155,-0.70882 4.79251,-2.37659 4.45512,-1.39134 2.65617,-0.26581 2.24092,-0.15612 4.79326,-1.37605 3.21163,-4.31588 2.15886,-2.08476 2.54743,-3.96123 3.19505,-4.04476 7.29688,-3.37755 5.0084,-1.12589 8.46266,1.54285 5.13796,-0.25006 3.15259,-0.0982 3.39136,0.19722 9.18169,3.45881 8.42228,-4.01671 8.31833,-3.31387 8.00642,-2.41003 4.47109,0.90385 8.00642,2.41003 5.51078,3.41416 7.71091,2.47909 4.081,-0.19561 5.36461,-1.98191 9.18432,0.56158 4.12725,0.48211 6.80202,-0.60314 9.3407,-1.47794 5.2004,-1.71771 5.59698,-4.21681 3.93958,-3.31361 4.79142,-3.38257 3.38399,-2.20426 5.13154,0.0755 1.64915,2.14905 0.83147,1.42094 -0.27221,2.59284 6.41588,2.37157 9.87741,2.6496 9.75828,5.91546 8.64787,7.32341 3.68563,-4.14382 4.68822,-7.9626 8.56813,-13.11512 13.82944,-22.53095 9.37889,-12.3935 10.00109,-11.64006 9.74061,-10.74923 z"
      data-name="Iguá" id="igua" />
   <path class="neighborhood"
      d="m 277.81517,620.20787 -13.07676,-8.80682 -14.94495,-5.87122 -16.27924,-13.0768 -0.26688,-6.13809 -4.53681,-9.87431 -0.53374,-7.73933 -6.13809,-7.47246 -1.86812,-10.14119 -5.07063,-9.0737 -6.13809,-2.66873 -8.0062,-7.47246 h -5.0706 l -5.87121,1.60124 -6.40496,-3.20248 -3.20248,-0.53375 -0.53375,-0.53374 -0.80062,-0.80062 -3.73623,-3.20248 0.80062,-2.13499 2.93561,-2.13499 3.20248,-0.80062 0.26687,-0.26687 v -0.26688 l 1.0675,-1.06749 0.53374,-4.0031 2.13499,-1.86812 1.33437,-0.53374 2.40186,-3.46936 5.87121,-4.53685 4.53685,-4.26997 v -4.53685 l 0.53375,-6.40496 4.53685,-2.93561 3.46935,-11.20868 0.80062,-8.53995 0.80062,-4.53685 -0.53371,-4.26998 0.26688,-5.87121 -1.33437,-3.73623 -1.0675,-4.80372 -2.13498,-2.40186 -3.73623,-3.20249 -5.0706,-5.60434 -5.33747,1.86812 -5.33746,4.26997 -1.60124,3.46936 -1.33437,2.13498 -1.0675,0.53375 -2.13498,-1.33437 -1.0675,-1.33436 0.26688,-2.93561 -1.0675,-2.66874 -2.66873,-3.46935 -3.73623,-3.73623 -2.13499,-1.06749 -3.46939,-3.20248 -2.13498,-0.26688 -2.93561,0.80062 -2.93561,-2.93561 -1.60121,-2.66873 -3.20248,-5.60434 -2.40186,-3.20248 -5.33747,-3.20248 -1.86811,-1.86812 -1.60124,-2.93561 -3.73623,-8.27307 -0.80062,-1.0675 -1.33437,-0.80062 -3.46939,-2.40186 -1.86808,-1.60124 -1.06749,-1.06749 -2.13502,-1.86812 -0.80062,-1.06749 -1.33437,-0.26687 -2.13499,-0.53375 -5.87121,-3.20248 -64.316499,13.34367 -35.494166,8.53995 0.266873,1.06749 0.533747,0.26688 0.533747,0.80062 0.80062,0.53374 1.334367,0.26688 0.533747,0.26687 0.533747,0.53375 v 0.53374 l 0.266874,0.80063 v 0.80062 l -0.266874,1.06749 -0.80062,1.33437 -0.533747,0.53374 -0.533747,0.53375 -1.334367,1.06749 -0.266874,0.53375 -1.067493,0.26687 -1.868114,0.80062 -1.601241,1.33437 -0.533747,0.26688 -0.266873,0.26687 v 0.26687 0.26688 0.26687 l 0.266873,0.53375 0.533747,0.26687 0.533747,0.53375 0.80062,0.26687 h 0.800621 0.533746 0.533747 0.266874 l 0.266873,0.53375 0.266874,0.53374 0.266873,0.80062 0.266873,0.26688 v 0.53374 l -0.266873,0.80062 -0.266873,0.53375 -0.533747,0.26687 v 0.53375 0.26687 0.53375 l 0.266873,0.26688 0.266874,0.26687 0.266873,0.26687 0.266873,0.26688 0.533747,0.26687 0.533747,0.26687 0.266874,0.26688 0.80062,0.53374 h 0.533747 0.266873 l 0.533747,0.26688 0.266874,0.26687 0.266873,0.26687 0.533747,0.53375 0.266873,0.26687 v 0.26688 0.53374 0.26688 0.26687 l -0.266873,0.80062 -0.266873,0.26687 -0.533747,1.0675 -0.266874,0.80062 -0.533747,0.80062 -1.60124,0.80062 -4.269975,0.80062 h -1.868114 l -1.067494,0.26687 h -1.067494 l -1.334367,0.53375 -1.0674936,0.53375 -0.2668735,0.53374 -0.2668734,0.26688 0.2668734,0.53374 -0.2668734,0.26688 v 0.53374 l -0.2668735,0.80062 -0.2668734,0.26688 -0.5337469,0.26687 -0.5337469,0.53375 H 6.938674 l -0.2668735,-0.26688 -0.2668734,-0.26687 v -0.53375 -0.26687 H 6.1380536 L 5.8711802,438.20018 5.6043068,437.93331 H 5.0705599 L 4.5368485,437.66644 H 4.269975 l -0.2668734,0.26687 -0.5337469,0.26687 H 3.2024813 l -0.533747,0.80062 -0.2668734,0.26688 v 0.53374 l -0.2668735,0.53375 v 0.26688 l 0.2668735,0.53374 0.2668734,0.80062 0.533747,0.53375 0.2668734,0.80062 0.5337469,0.53375 0.5337469,0.53374 0.2668734,0.53375 0.2668735,0.53375 v 0.53374 0.53375 l -0.2668735,0.26687 -0.2668734,0.53375 -1.0675293,1.60124 -0.5337114,0.80062 -0.2668735,0.80062 -0.2668734,1.0675 -0.2668735,0.53374 v 1.0675 l 0.2668735,0.80062 v 0.80062 0.53374 L 1.868114,455.81383 0.80062029,456.88132 0.26687344,457.41507 0,457.68195 v 0.53374 l 0.53374685,1.0675 0.53374685,0.53374 H 1.3343672 4.269975 l 1.3343672,-0.53374 H 6.671836 l 1.3343672,0.26687 0.2668734,0.80062 0.2668735,0.26687 0.8006203,1.0675 -0.2668734,0.26687 0.2668734,0.26687 0.2668734,0.26688 v 0.53374 l -0.2668734,0.53375 -1.0674938,1.06749 -0.5337468,0.80063 -0.5337469,0.26687 v 0.26687 0.80062 l 0.5337469,0.80062 0.8006203,1.0675 0.2668734,0.80062 v 0.26687 l 0.5337469,0.26687 v 0.53375 0.26687 l -0.2668734,0.53375 -0.5337469,0.80062 -0.2668735,0.53375 -0.5337468,0.26687 0.2668734,0.26687 0.2668734,0.26688 0.2668735,0.26687 0.2668734,0.26688 0.2668735,-0.26688 h 0.80062 0.80062 l 0.533747,-0.53375 0.266874,-0.26687 0.266873,-0.80062 0.533747,-0.80062 0.266873,-0.26687 h 0.266874 0.533747 l 0.266873,0.26687 0.266874,0.26687 v 0.53375 h -0.266874 l -0.266873,0.26687 -0.533747,1.33437 -0.533711,1.33437 0.266873,0.80062 v 0.53375 1.06749 1.86811 l 0.533711,2.13499 -1.334367,1.60124 -0.533711,2.40186 1.067494,0.53375 2.40186,-0.53375 h 1.067494 l 1.601241,0.26688 0.80062,0.53374 h 0.80062 l 0.533747,-1.06749 0.800621,-1.33437 1.067493,-1.33436 1.601241,-0.26688 1.60124,-0.53375 1.334369,0.26688 1.868112,1.33437 0.800621,1.06749 h 0.533747 l 2.134987,-0.53375 1.868114,-0.80062 1.067494,-0.53374 2.134988,0.26687 h 0.80062 l 0.533747,0.80062 0.533747,0.53375 -0.266874,1.60124 -1.067494,2.13498 -0.533746,1.33437 -0.266874,2.40186 -0.533747,1.33437 0.266874,0.53375 v 0.26687 l 0.80062,0.26687 1.334367,-0.53374 h 1.067494 l 0.533747,0.53374 0.533747,1.33437 v 2.13499 1.33437 l -0.800621,0.80062 -0.533746,1.86811 v 1.33437 l 0.533746,0.80062 1.067494,0.53374 2.134988,1.60124 1.067493,0.80062 0.800621,0.80063 v 1.06749 l -0.266874,0.80062 -0.533747,0.80062 -0.266873,1.60124 1.067494,1.06749 1.334367,1.0675 h 1.067494 l 0.80062,0.26687 0.533747,-0.53375 v -0.80062 l 0.266873,-0.53374 0.533747,-0.53375 0.800621,0.26687 1.067491,0.80062 1.60124,1.0675 0.800621,0.53374 0.533747,0.53375 0.533746,0.26687 0.533747,0.80063 0.266874,0.80062 -0.533747,0.80062 -0.533747,1.60124 -0.266873,0.53374 -0.533747,0.26688 -0.266874,0.26687 -2.668732,0.53375 -2.134987,0.80062 -0.533747,0.26687 -0.533747,1.06749 -0.80062,0.53375 -1.067494,0.26688 -0.266873,0.53374 0.266873,0.26688 v 0.53374 l 0.266874,0.53375 1.334367,0.80062 1.067493,0.53375 1.067494,1.06749 0.533747,0.53375 v 0.26687 l -0.266873,0.53375 -0.266874,0.26687 -0.266873,0.26687 v 0.26688 l 0.266873,0.26687 0.800621,0.53375 1.067491,0.80062 0.533747,0.53375 0.266873,0.53374 0.533747,0.53375 v 0.53375 l -0.266874,0.53374 -0.80062,1.0675 -0.533747,0.26687 h -0.800617 -0.266874 -0.533747 l -0.266873,0.26687 v 0.26688 0.26687 l 0.266873,0.26687 0.266874,0.53375 0.533747,0.53375 0.266873,0.53374 v 0.80062 l 0.266873,0.53375 1.067492,0.53375 0.533746,0.80062 0.266874,0.26687 -0.266874,0.53375 -0.533746,0.26687 -0.266874,0.26688 -0.266873,0.53374 v 0.26688 l -0.266874,0.26687 -0.533744,0.26687 H 47.77038 46.96976 l -0.533747,0.26688 -0.266873,0.26687 -0.266874,0.80062 -0.266873,0.80062 0.266873,0.53375 0.266874,0.26687 0.266873,0.53375 v 0.26687 0.80062 l -0.266873,0.26687 h -0.266874 l -0.80062,0.26688 -1.601241,0.26687 h -1.334367 l -1.067494,0.53375 -0.533746,0.26687 -0.533747,0.26688 -0.266874,1.06749 -0.266873,0.26687 v 0.53375 l 0.266873,0.26687 0.533747,0.26688 0.80062,0.53374 0.533747,0.26688 0.533747,0.53374 0.266874,0.80062 0.266873,0.53375 0.533747,0.80062 0.80062,0.26687 0.533747,0.26688 0.533747,0.53375 v 0.26687 1.06749 0.53375 l 0.266874,0.53375 v 0.80062 l -0.266874,0.80062 0.266874,1.06749 0.266873,0.53375 0.266873,0.53374 0.266874,0.26688 0.533747,-0.26688 0.80062,-0.53374 0.533747,-0.53375 0.533747,-0.26687 h 0.266873 l 0.266874,0.53374 0.266873,0.80062 v 0.80062 l -0.266873,0.26688 -0.266874,0.26687 -0.80062,-0.26687 h -0.533747 -0.266873 -0.533747 v 0.53374 0.53375 0.53375 l -0.266874,0.26687 -0.533747,0.26688 -1.067493,0.26687 -1.334368,0.80062 -0.80062,0.80062 -0.533747,0.26687 -0.266873,0.26688 -0.266874,0.53374 v 0.53375 l 0.266874,0.53375 h 0.266873 0.266874 l 0.533747,-0.26688 0.533746,-0.53374 1.067494,-0.26688 h 0.800621 0.266873 l 0.266873,0.26688 v 0.26687 0.53375 l -0.266873,0.26687 -0.266873,0.53375 -0.533747,0.80062 -0.266874,0.53374 v 0.53375 0.53375 l -0.266873,0.53375 v 0.53374 0.26688 l -0.266874,0.26687 h -0.266873 l -0.533747,-0.26687 -0.266873,-0.53375 -0.533747,-0.26687 -0.266874,0.26687 h -0.266873 v 0.26687 0.26688 l 0.266873,0.26687 0.266874,0.26687 0.266873,0.26688 v 0.26687 l 0.266874,0.80062 0.533746,0.53375 2.668735,1.86811 0.80062,0.80062 h 0.266874 1.60124 l 0.800621,0.53375 0.266873,0.26687 v 1.33437 l 0.266873,0.80062 h 0.266874 l 0.266873,0.26687 0.533747,-0.80062 0.533747,-0.26687 h 0.266874 0.266873 l 0.533747,0.26687 v 0.26688 0.53374 l -0.533747,0.80062 -0.266873,0.53375 v 0.53375 0.80062 l 0.266873,0.26687 0.266873,0.53375 1.601241,0.80062 0.533747,0.26687 0.533747,0.26687 0.80062,0.80062 0.533747,0.26688 0.266873,0.26687 0.266874,0.53375 1.067494,1.06749 0.266873,0.26688 h 0.266874 l 1.067493,-0.53375 h 0.266874 l 0.533747,-0.26687 0.266873,0.26687 v 0.53375 l 0.266874,0.53374 v 1.0675 l 0.266873,1.06749 v 0.26687 l 0.533747,0.26688 0.80062,0.26687 0.533747,0.26687 0.533747,0.53375 0.533747,0.26687 0.266873,0.53375 -0.533747,0.80062 -1.067493,0.80062 -1.868114,1.60124 -1.067494,1.86812 -0.266874,1.06749 1.868114,2.13499 1.334368,1.33436 0.533746,1.0675 -0.533746,0.53375 -0.800621,0.53374 1.067494,2.66874 -0.266873,0.80062 1.334367,1.33436 0.533747,1.0675 -0.800621,1.06749 1.334368,3.73623 v 0.26687 l -0.800621,0.53375 h -1.067494 v 1.33437 l 0.533747,1.60124 -0.266873,2.93561 -0.80062,2.40186 -0.800621,1.86811 -0.80062,0.80062 v 1.33437 l -1.334367,0.53375 1.60124,2.40186 -2.401861,1.33436 h -1.60124 v 1.33437 l -0.533747,2.93561 -0.266874,1.33437 1.334368,0.80062 1.334367,0.26687 0.266873,0.53375 v 0.26687 l 0.533747,0.53375 0.533747,0.26687 0.266874,0.26687 0.533746,0.26688 0.533747,0.26687 v -0.26687 l 0.266874,-0.26688 0.266873,-0.26687 0.266874,0.26687 0.266873,0.26688 v 0.26687 l 0.266873,0.53375 0.266874,0.26687 1.067494,0.53375 0.533747,1.33436 0.533746,0.80063 0.266874,0.53374 v 1.0675 l 0.266873,0.80062 0.266874,0.53374 0.533747,0.26688 0.80062,0.53374 0.266873,0.53375 0.533747,0.53375 0.533747,0.26687 v 0.80062 l 0.266874,0.53375 0.266873,0.53374 0.80062,0.26688 h 1.334368 l 1.067493,-0.53375 0.533747,0.26687 1.601241,-0.53374 0.533747,0.26687 0.266873,0.53375 0.533747,0.53374 0.266873,0.80063 0.266874,0.53374 h 0.266873 l 0.266874,0.26688 v 0.53374 1.0675 0.53374 l 0.266873,0.80062 0.266874,0.26688 0.266873,0.26687 -0.266873,0.53375 -0.266874,1.06749 -1.067494,1.60124 -0.533746,2.13499 -1.868114,2.40186 -0.266874,3.46935 0.80062,2.13499 v 1.86812 l 0.800621,2.40186 0.533747,1.60124 0.533746,0.53374 0.800621,2.40187 1.868114,2.13498 20.54925,-10.94181 24.55236,-7.47245 38.1629,-12.27618 22.68424,-6.40496 33.09231,-10.94182 10.94185,-2.66873 16.0124,-4.0031 19.48173,-5.33747 z"
      data-name="Bate-Pé" id="bate-pe" />
   <path class="neighborhood"
      d="m 354.49594,520.83501 12.14952,-5.31817 9.38055,-10.20885 4.23067,-8.75721 -1.336,-17.04563 -3.34016,-22.21247 -0.40082,-3.48686 -10.28767,-6.84495 -7.61551,-14.85258 -7.61552,-14.20746 -3.74098,-9.42888 -7.21468,-12.01253 -2.67213,-6.84616 -3.34011,-6.2003 -2.53858,-3.48779 -1.52523,-4.08568 -1.06269,-3.33461 -1.38262,1.82165 -3.91517,2.05859 -6.27174,5.77055 -0.16252,1.2254 -0.48165,1.98837 -3.24815,0.61738 -1.27952,1.5689 -1.63167,6.13144 -0.28753,0.59684 -0.95946,0.3512 -3.43199,0.73991 -1.91242,1.79144 -2.04126,1.84818 -2.19231,0.85261 -2.20288,1.44736 -1.48747,4.59054 -1.63487,1.26189 -1.82533,0.0133 -2.55788,-2.3993 -2.8738,-0.2199 -2.10793,0.86061 -3.99664,1.37814 -3.43992,2.36772 -3.69574,2.00676 -2.03849,0.37402 -1.44992,0.0819 -1.42772,1.12759 -0.52659,2.28967 -1.53703,2.41163 -1.88973,0.97436 -1.58747,-0.21911 -2.06613,-1.15073 -3.09936,-1.07176 -1.97775,-0.37186 -1.29778,-0.13958 -0.98498,-0.38859 -0.98035,-1.65755 -2.51865,-3.69004 -5.2737,-2.0716 -2.52537,-0.90065 -2.86857,-0.88791 -3.57842,-0.42999 -1.71767,0.0595 -1.31515,0.56433 -0.65448,1.20133 -0.79407,0.90649 -0.95751,1.07176 -1.66294,0.65768 -2.0699,0.55758 -0.52279,0.75357 -0.24198,1.18863 0.0214,1.39764 0.82165,1.58654 0.51204,0.72661 0.63979,1.19688 0.0452,0.88637 -0.0512,1.75677 -0.33626,1.05642 -0.969,0.83777 -2.06869,0.64805 -1.8804,1.21085 -1.17744,1.55267 -1.68824,1.9244 -1.2346,0.85248 -0.84435,-0.19883 -1.14844,-0.76907 -1.08835,-1.30685 -1.02604,-0.2586 -1.51189,0.17053 -2.0661,1.46158 -3.15409,1.53199 -3.90524,0.27221 -5.79553,2.90708 4.83727,5.55772 3.96225,3.11698 1.88897,2.38659 1.17713,4.76567 1.39841,3.79867 -0.32487,5.9279 0.58253,4.27937 -0.82421,4.43138 -0.9347,8.77192 -3.23507,10.94416 -4.7416,2.98741 -0.36053,6.47229 -0.19142,4.61064 -4.44441,4.10166 -5.92377,4.72945 -2.42107,3.28569 -1.19492,0.59636 -2.10165,1.79328 -0.66967,4.03235 -1.08251,1.06456 -0.0402,0.23351 -0.0708,0.41021 -3.18494,0.68117 -3.03908,2.24027 -0.77273,2.09079 3.77071,3.30593 0.73149,0.61477 0.59743,0.60929 3.24522,0.49791 6.33583,3.23568 5.92377,-1.54317 5.06913,-0.003 7.93006,7.46952 6.22356,2.71613 5.01896,9.02131 1.92993,10.15101 5.99095,7.46832 0.6263,7.66458 4.55844,10.01715 0.14697,6.03846 16.45097,13.17555 14.90118,5.6919 12.95637,8.87869 13.72701,-4.52617 9.35653,-15.06682 7.62396,-8.70552 16.63372,-23.77418 11.4059,-14.83771 8.34687,-21.32917 4.92758,-4.66999 2.37941,-2.59548 0.86179,-1.42812 1.32988,-1.7545 0.13157,-0.65619 z"
      data-name="Pradoso" id="pradoso" />
   <path class="neighborhood"
      d="m 814.78169,0 -169.18193,57.306374 -0.57271,-5.066077 -4.39626,-4.494397 -9.7419,-8.11007 -5.07742,-2.157333 -6.27447,-1.278468 -5.24737,-4.108426 -5.614,-5.673341 -3.71931,-1.833739 -169.76916,-7.978199 -4.43074,-1.851426 -6.84189,2.303332 -6.23152,1.639172 -1.94834,4.679181 -0.0905,2.304079 0.27114,1.808298 1.05474,3.208104 0.96427,9.740953 -1.81752,3.272936 -5.77623,1.072545 -8.52765,-1.254091 -6.08709,-2.420649 -7.98541,-1.691444 -6.81011,0.495779 -7.84415,4.322781 -3.24505,3.026524 -0.45195,0.729026 -3.25439,11.198543 -1.0253,2.094778 -3.61523,3.941862 -7.56356,4.432592 -4.87957,1.975752 -3.97193,0.44397 -5.07113,2.020694 -3.64088,0.609576 -2.43183,-0.01068 -5.22031,-0.721663 -4.27125,-1.892522 -3.78192,-0.301391 -3.33154,2.36724 -3.40347,2.041867 -0.31242,1.070696 -0.23832,0.796206 -0.11102,0.366188 -0.34979,0.453754 -0.56356,0.338396 -0.47298,0.242668 -0.31667,0.191081 -0.53874,0.155134 -0.28788,0.195004 -0.16866,0.01788 -0.35793,-0.07152 -0.84727,-0.09962 -0.70753,0.135225 -0.5306,0.493643 -0.17267,0.270789 -0.23885,0.73237 0.032,0.521401 0.0862,0.855845 0.24259,0.855703 0.14411,0.660778 0.0371,0.624911 0.53073,0.736392 0.41131,0.676578 0.23458,0.517414 0.14384,0.374156 -0.024,0.274704 -0.12783,0.314553 -0.23458,0.497452 -0.36604,0.903527 -0.22631,0.485533 -0.0825,0.334481 -0.20522,0.350138 -0.0616,0.222759 0.0187,0.188946 0.22391,0.436 0.31277,0.800014 0.024,0.358216 -0.65405,0.871644 -0.67871,0.995083 -0.43186,0.776102 -0.10702,0.298544 0.0134,0.453754 0.47845,1.891279 0.10114,0.606515 0.11343,1.060734 0.1796,0.850328 0.0931,0.21635 0.23512,0.12311 0.90189,0.79482 0.63882,0.48749 1.03285,1.22805 1.13171,1.73852 2.92821,3.38093 0.70724,1.38258 -0.96208,1.79773 -3.67137,2.69959 -1.03633,3.20945 -0.41957,1.45375 -0.15826,1.84573 1.96323,3.99478 1.69715,2.68179 1.93646,1.23523 1.31545,0.73917 1.71167,0.31491 2.00876,0.1644 2.70204,0.58854 1.28721,0.56111 1.25855,1.02085 0.79266,1.22388 0.35372,1.20459 0.16973,1.71077 1.21652,3.14811 0.24045,1.09493 0.54933,1.41603 1.23325,1.14339 1.27309,0.69803 1.0609,0.93072 0.76398,1.24548 1.58886,2.887 0.84434,1.49791 0.29713,1.49193 -0.49518,2.54561 -1.55606,2.43613 -0.16306,1.41222 0.0633,0.8635 0.19989,1.25807 1.0202,1.74194 1.33874,1.50574 1.06857,2.19519 0.21216,1.17254 0.18014,1.43211 0.0801,1.66461 -0.20042,1.74194 0.39286,1.1446 0.21537,0.84987 -0.73254,3.54483 -0.75146,2.24504 -1.11452,2.26853 -0.77302,1.3148 -2.6045,1.47983 -1.26085,1.57982 -2.02575,0.65989 -1.92226,2.75951 0.51661,1.95952 0.15932,1.28861 18.56826,11.27676 5.82195,7.96239 12.34666,3.39841 12.44716,0.29142 16.16124,8.73883 4.61739,5.04906 8.73314,2.71859 8.33155,11.16573 14.75578,8.73823 14.85612,10.09717 15.25775,12.03845 20.87911,13.68836 21.18009,14.94977 12.7483,8.63963 5.92243,4.85349 20.17627,14.3662 19.77575,13.25432 8.55031,5.47497 12.2366,11.09841 0.24899,0.22551 6.92665,6.82883 4.11502,5.68377 5.75123,1.26757 11.02375,9.55006 10.66122,3.72534 6.17555,-3.31515 2.84845,-1.48628 281.93226,-147.13552 -46.64209,-45.14278 -7.38687,-10.60954 -1.57765,0.95555 -3.15241,-0.70604 -2.45609,-0.71753 -2.27262,-1.51325 -1.9264,-1.1578 -4.81629,-2.06133 -3.03555,-1.63793 -1.72214,-0.93174 -0.39411,-0.72013 -0.36479,-1.9485 0.30671,-1.36956 -0.18974,-1.69436 -0.2772,-1.14368 -1.05077,-1.5674 -0.75896,-1.60957 -1.41419,-3.44441 -0.58546,-2.0187 0.43335,-1.75724 1.07331,-2.85554 0.18761,-1.30715 -0.80676,-1.92775 -1.50666,-1.81719 -1.30026,-2.2601 -1.98143,-5.03217 0.0825,-4.27356 0.63593,-3.47125 2.36909,-4.62626 1.1092,-4.46234 0.33947,-4.46697 -0.19349,-1.28045 -3.14014,-4.63869 -0.47925,-4.06043 0.84652,-4.74511 -0.4378,-1.94875 -1.3368,-3.803551 -1.15729,-1.748342 -1.12837,-0.982662 -1.23584,-0.825031 0.80417,-1.091403 2.01393,-2.118372 1.34273,-1.694681 0.92549,-1.677639 1.01564,-2.43214 0.23351,-0.805104 0.16039,-0.550686 0.11662,-0.833285 0.0729,-3.064703 -0.36191,-1.80677 -1.61111,-3.441029 -2.27451,-3.618911 -0.71826,-3.391961 0.0825,-4.134617 0.5295,-2.474915 0.97516,-4.055657 0.9925,-1.779795 1.43015,-1.694825 1.05092,-3.220343 0.11182,-1.284942 -0.14758,-1.282311 -0.72245,-2.696666 -0.88744,-2.856613 -0.80507,-1.737738 -1.42404,-0.679212 -1.89891,-1.098734 -0.59852,-1.018709 -0.59425,-1.548685 -2.76996,-6.128944 -1.54808,-3.575821 -1.13079,-3.32236 -0.65189,-2.72211 -0.26261,-1.921168 -0.9632,-2.14705 -1.34272,-2.542699 -1.1092,-2.062398 -0.37939,-1.779939 -0.25433,-2.3087042 0.82568,-2.1975071 0.90812,-1.7980153 0.0408,-2.6370297 0.52691,-1.26743527 z"
      data-name="José Gonçalves" id="jose_goncalves" />
   <path class="neighborhood"
      d="m 632.87801,408.67971 0.0446,1.21009 0.11822,1.06704 0.39914,1.36772 -0.0558,0.45806 -0.20202,0.49177 0.29961,0.47835 0.64101,0.99703 -0.0355,1.30686 0.13237,1.07774 0.0862,0.19962 0.2135,0.49444 0.67602,0.62643 1.05917,0.64679 0.7525,0.66022 0.32737,0.76782 v 0.43122 l 0.0134,0.36375 0.29962,0.5861 0.40495,0.68317 0.51405,0.26866 0.33519,0.15292 0.53653,0.17507 0.43201,0.44459 0.49852,0.23298 0.0659,0.14117 -0.032,0.10355 -0.31987,0.19402 -0.11422,0.0643 -0.13798,0.11849 -0.0929,0.49425 0.16146,0.26154 0.78039,0.3231 0.54885,0.28361 0.10275,0.0416 0.032,0.11529 0.008,0.31206 -0.0889,0.30744 -0.008,0.15024 0.21029,0.1225 0.32345,-0.22284 0.15506,-0.10702 0.58488,-0.0363 0.44994,0.1668 v 0.50022 l -0.22017,0.31953 -0.34979,0.50698 -0.18334,0.57474 0.19669,0.32489 0.67962,1.06392 1.09415,1.41603 0.87793,1.50898 0.62724,1.19904 0.65493,0.99693 0.89451,0.99296 -0.0446,1.56676 0.76643,1.45499 1.18818,2.72262 2.32553,2.84233 2.967,5.74803 1.63967,2.91116 2.24243,4.81063 0.12729,0.27077 0.38921,0.62107 1.85613,2.96182 4.29645,4.2748 6.14919,2.21679 2.27462,0.53799 2.46327,0.58255 6.55249,0.97441 4.38505,-0.2191 2.46986,-0.36543 1.13403,-0.0483 0.52921,0.29214 1.15932,1.07179 0.73751,0.21323 1.76472,0.51024 0.45836,0.0649 0.15265,0.0686 0.1241,0.0974 0.10061,-0.0566 0.44962,-0.0697 0.88208,-0.11448 2.1282,-0.29212 1.66754,-0.20363 h 0.83315 l 1.38996,0.29711 0.98006,0.32738 1.09872,1.14672 -0.16039,1.55041 -0.60588,1.73958 0.26724,1.22295 1.08708,0.12063 1.06918,-1.01626 2.03157,-1.51568 1.44334,-1.75696 0.30316,-2.82488 1.60389,-3.10043 1.81767,-1.92928 1.40776,-0.93006 2.37018,-1.44704 3.22541,-2.68712 3.84922,-2.80772 3.63535,-3.22108 3.20761,-3.89313 5.62521,-5.50269 2.46708,-2.47888 1.15826,-1.79157 1.72979,-4.75651 2.19261,-3.50819 2.49497,-2.43613 3.32663,-3.43519 3.88098,-1.82715 4.28431,-0.77962 3.22591,0.29212 3.93139,1.55926 3.72996,1.90033 0.74837,-0.37522 0.18441,0.0387 0.43276,0.34339 1.22175,0.51338 0.37799,0.16466 0.46618,0.70033 0.45561,0.8169 0.73945,0.34446 1.15842,0.41344 1.06917,0.44792 1.17619,0.2843 1.09613,0.06 0.55713,0.13584 0.59101,0.14598 L 1000,322.02244 l -73.20635,-70.34267 -16.3758,-15.84798 -281.93226,147.13555 -2.84847,1.48627 -6.17556,3.31513 0.66921,1.12022 1.10384,1.43875 0.43351,0.62888 0.8778,1.63575 0.92669,1.48753 0.52735,0.47154 0.75386,0.47172 0.33092,0.52921 0.13237,0.5053 -0.27186,0.84204 v 0.69387 l 0.34907,1.10032 0.0766,1.01043 0.30672,0.86243 0.39719,0.63994 0.54346,0.61981 1.12882,0.45806 0.7735,0.15479 0.85032,0.58229 0.36914,0.42276 0.98769,0.50209 0.38478,0.21857 1.27128,2.1814 0.65555,1.00032 0.024,0.50898 -0.20096,0.53535 0.008,0.15158 0.008,0.13798 z"
      data-name="São Sebastião" id="sao_sebastiao" />
   <path class="neighborhood"
      d="m 694.51296,796.74953 0.19295,0.10969 0.57538,0.20603 0.34232,0.0793 0.87318,0.30279 0.46909,0.28254 0.23191,-0.024 0.21697,0.003 0.32772,-0.0926 0.29745,-0.0875 0.2522,0.0107 0.19669,0.19001 0.0707,0.24846 0.0403,0.31171 -0.0654,0.29214 -0.18921,0.21857 -0.14278,0.37883 0.10008,0.41325 0.18548,0.26181 0.19988,0.32379 0.32063,0.6516 0.87838,1.42353 0.36314,0.56497 0.3935,0.44806 0.33912,0.27149 0.26722,0.0355 0.34304,-0.13637 0.20175,-0.1217 0.24206,-0.26794 0.14624,-0.26794 0.20176,-0.18974 0.1764,-0.13638 0.16146,-0.0825 0.14625,0.0536 0.11075,0.0734 0.21457,-0.0542 0.16759,-0.11716 0.17107,-0.17587 0.21377,-0.17907 0.19615,-0.0963 0.40914,-0.11182 0.40653,0.0214 0.20683,0.0448 0.37111,0.003 0.56492,-0.11662 0.59518,0.0878 0.38827,0.0355 0.44395,-0.0392 0.38953,-0.0133 0.49929,0.16519 0.42094,0.17213 0.23885,0.0448 0.0675,0.0376 0.0769,0.0921 -0.0963,0.12783 -0.0734,0.14518 0.0213,0.8264 -0.0355,0.64744 -0.003,0.60436 -0.0134,0.7528 0.0134,0.7577 0.10701,0.57858 0.19455,0.37896 0.0427,0.62673 -0.0568,0.26154 0.032,0.49531 0.11422,0.24099 0.32097,0.0825 0.44227,0.22738 0.42078,0.0686 0.50636,-0.008 0.44947,-0.24793 0.57767,-0.3512 0.41942,-0.18868 0.46911,-0.13637 0.4286,0.11208 0.32273,0.10222 0.37832,-0.0286 0.39367,0.008 0.77641,0.3441 0.5729,0.083 1.16007,-0.40116 0.63027,0.15238 0.21484,0.33199 -0.0715,0.88514 0.50129,0.5947 0.54424,0.37341 0.38672,0.23512 0.52983,0.4148 0.34373,0.20736 0.54429,0.083 0.44407,0.0133 0.80204,0.37341 0.8307,0.29036 0.73054,0.19348 h 0.97395 l 0.75907,-0.19348 0.81644,-0.38726 0.51558,-0.47015 0.41539,-0.41496 0.19722,-0.0601 0.33268,0.032 0.31491,0.23512 0.35812,0.23512 0.20095,0.27327 0.13558,-0.17533 0.16893,-0.12303 0.37079,-0.22978 0.35371,-0.2143 0.16467,-0.28609 0.0574,-0.34941 0.13211,-0.38139 0.12302,-0.73866 -0.024,-0.75466 -0.0134,-0.45529 0.0643,-0.40791 -0.0499,-0.43565 -0.24365,-0.4081 -0.58013,-0.24899 -0.18601,-0.16573 -0.10035,-0.23512 0.0894,-0.22764 0.0899,-0.14545 0.26474,-0.083 0.17,-0.0664 0.11529,-0.0931 -0.0747,-0.28609 -0.14011,-0.52158 -0.12276,-0.29177 0.008,-0.52462 0.14651,-0.40608 0.2602,-0.1369 0.4961,-0.39687 0.49606,-0.5611 0.26938,-0.4381 0.27896,-0.1321 0.31206,0.0683 0.41574,0.31029 0.29783,0.2602 0.56694,0.0867 0.34977,-0.032 0.58594,-0.12783 0.45364,-0.36052 -0.0107,-0.55192 0.28358,-0.45176 0.16519,-0.0456 0.24579,0.11849 0.21751,0.22337 0.0993,0.10035 0.30245,-0.0408 0.24045,-0.13904 0.0766,-0.0707 0.0707,-0.20523 -0.16039,-0.17374 -0.34016,-0.16893 -0.22657,-0.22337 -4.86196,-3.42463 0.41974,-6.32495 -4.18004,-0.76104 -1.28339,-2.85171 -4.80415,-4.04356 -0.6746,-2.97102 -2.69142,-4.21897 -0.0675,-4.1742 -2.76796,-5.72958 0.45286,-10.99049 0.71319,-1.63933 0.55347,-0.58301 1.20715,-0.80956 0.88869,-0.37245 0.9221,-0.14598 0.0187,-0.50193 0.67073,-0.19455 1.50898,-0.46957 0.98925,-0.93912 0.11742,-0.79344 -0.067,-1.36021 1.898,-3.63318 3.10382,-2.62566 2.31097,-3.10721 1.81247,-2.3194 0.43044,-3.78544 0.1716,-2.39626 -0.6117,-2.03496 -5.27543,-4.10948 -4.42596,-5.44603 -6.98544,-0.64901 -44.74819,-21.19896 0.13798,-0.88698 0.68055,-0.65725 0.61754,-0.1217 1.02085,-0.47479 0.41589,-0.25593 0.0502,-0.47477 -0.13851,-0.54773 -0.45363,-0.37744 -0.15132,-1.01025 0.54181,-1.19309 0.0504,-0.93723 -0.88223,-0.5113 0.12596,-0.46265 0.2772,-0.36514 0.81058,0.0403 1.0336,-1.15335 0.58824,-1.10184 0.39214,-1.23952 0.62134,-0.9988 1.00705,-0.74877 0.92671,-0.64562 0.2854,-0.20629 0.77521,-0.18067 0.8109,0.06 1.09618,0.18922 0.49009,-0.16333 0.25059,-0.52894 0.23939,-0.75475 0.21429,-0.82781 -0.21429,-0.89435 -0.64165,-1.27403 -0.28502,-0.55082 -0.0536,-0.39596 0.16946,-0.50789 0.32879,-0.44165 1.06931,-0.43044 0.83777,-0.55083 0.21216,-0.55699 -0.54194,-0.73038 -0.1764,-0.81567 0.30245,-0.66953 0.88207,-0.14625 0.60495,-0.63302 0.44597,-0.12196 0.15692,0.0654 0.4306,0.008 0.63009,-0.28006 0.29001,-0.73038 0.32772,-0.58445 0.22658,-1.01041 0.50407,-0.77916 1.00825,-0.18255 1.14678,-0.64516 0.40332,-0.0366 0.66783,-0.0608 0.65541,-0.1217 0.4159,-0.47479 0.4662,-0.49916 0.024,-0.66953 -0.12597,-0.37739 -0.35299,-0.23138 h -1.04596 l -0.84439,-0.24365 -0.71829,-0.14598 -0.31525,-0.32879 -0.36546,-0.8643 0.31491,-0.76704 0.61755,-0.9252 0.44103,-0.43826 0.60498,-0.0974 0.56708,0.20683 0.41589,0.15825 0.31529,-0.0974 0.8948,-1.63134 0.55448,-0.48688 0.63011,-0.66967 0.22711,-0.2191 0.61755,-0.70618 0.83179,-0.34087 0.70572,-0.18254 0.31491,-0.57229 0.13851,-0.75482 -0.22658,-0.68178 0.15079,-0.70602 0.25753,-0.44456 0.27184,-0.46863 0.063,-0.63302 -0.22711,-0.86446 0.24419,-0.75525 0.23591,-0.30461 0.12196,-0.32452 -0.0921,-0.44792 0.20069,-0.69592 -0.28891,-0.3053 -0.28289,-0.11236 -0.55451,-0.56006 -0.063,-0.94967 0.39057,-0.98623 0.5168,-0.51125 0.74345,-0.79144 1.03339,-0.49916 0.49147,-0.32879 0.52937,-0.58424 0.0502,-0.34087 -0.35297,-0.24366 -0.84436,-0.23138 -0.57858,-0.14598 -0.49012,-0.27541 -0.39209,-0.36159 -0.14277,-0.69744 0.15158,-0.39597 0.84666,-0.25833 0.97131,0.0606 0.85538,-0.11209 0.4634,-0.5338 0.27648,-0.46481 0.34731,-0.51664 -0.0467,-0.41557 -0.0534,-0.80062 0.53458,-0.23245 0.71292,-0.49927 0.24019,-0.31029 0.63011,-0.88882 -0.15131,-0.45043 -0.56708,-0.34088 -0.0947,-0.35299 0.30247,-0.71827 -0.20175,-0.56617 -0.0134,-0.6453 0.28075,-0.33981 0.26725,-0.44333 0.0286,-0.34053 -0.52289,-0.45667 -0.27008,-0.56786 -0.35929,-0.31026 -0.47247,-0.80356 0.003,-0.59056 0.28998,-0.52353 0.18922,-0.46879 -0.69942,-0.52355 -0.36559,-0.30424 0.0568,-0.38355 0.24579,-0.2982 -0.024,-0.25593 -0.42844,-0.21911 -0.83176,-0.0547 -0.37173,0.32273 -0.29607,0.46271 -0.23271,-0.0606 -0.35655,-0.0857 -0.0446,-0.18974 -0.0889,-0.37862 0.13343,-0.5939 -0.26722,-0.38755 -0.83763,-0.66292 -0.35654,0.0286 -0.56143,-0.15505 -0.25833,-0.63716 0.0702,-0.35684 0.0638,-0.32308 0.51677,-0.49932 0.74869,-0.36158 0.94262,-0.68504 0.58368,-0.55112 0.65953,-0.25407 0.74223,-0.14838 0.39379,-0.17373 0.54808,-0.72013 0.27259,-0.49703 0.34763,-0.80921 0.15131,-1.14508 -0.14277,-0.40468 -0.20496,-0.50805 -0.44549,-0.49932 -0.27649,-0.65432 0.098,-0.66291 0.28537,-0.44782 0.61495,-0.47354 -0.008,-0.38736 0.16039,-0.29284 0.46345,-0.10328 0.75464,0.12623 0.17213,0.0285 0.9,-0.23244 0.14278,-0.44774 -0.0622,-0.74898 0.55253,-0.27541 0.53455,-0.33557 0.7307,-0.62 -0.1321,-0.31598 0.0285,-0.17613 0.27115,-0.19669 -0.0406,-0.99127 -0.57028,-1.36034 -0.25833,-0.82656 -0.47234,-0.59411 -0.54362,-0.12917 -0.49009,-1.08495 0.32094,-0.63716 0.87332,-0.20682 1.22079,-0.31846 0.81983,0.0947 1.28324,0.18067 0.52584,0.0515 1.06042,0.32737 1.06043,-0.20683 0.68623,-0.46492 0.48123,-0.37877 0.19562,-0.59411 -0.15159,-0.74909 -0.36668,-0.52892 -0.68378,-0.84236 -0.30886,-0.2191 -0.38443,-0.54194 0.15719,-0.32273 0.0726,-0.032 0.79713,-0.35155 0.378,-0.3167 0.71829,-0.47474 0.30244,-0.88898 -0.16359,-0.86459 -0.64271,-0.9862 -0.20176,-1.22986 -0.70572,-0.75496 -0.4789,-0.1337 -0.84431,-0.14625 -0.22978,-0.5349 -0.0942,-0.43369 -0.27542,-0.39332 -0.29535,-0.12356 -0.68042,-0.23138 -0.52937,-0.28003 0.10115,-0.7307 0.55448,-0.76708 0.45379,-0.66979 -0.0133,-0.68181 -0.34019,-0.58456 -0.66304,-0.50621 -0.34942,-0.59822 -0.21003,-0.81063 -0.34942,-0.23165 -0.68914,-0.46326 -0.97825,-0.33092 -0.6215,-0.31385 -0.26829,-0.83254 -0.25513,-0.91073 -0.33911,-0.59361 -0.3602,-0.32096 0.0424,-0.38217 0.0739,-0.0982 0.32132,-0.0187 0.7062,-0.0953 0.84038,-0.0953 0.54378,-0.45713 0.21884,-0.53231 -0.0851,-0.56646 0.0285,-0.60727 -0.32489,-0.93484 -0.20469,-0.49819 -0.19775,-0.64135 -0.0286,-0.51859 0.0424,-0.34801 0.38142,-0.32062 0.42582,0.0387 0.61835,-0.39215 0.31881,-0.28929 0.1337,-0.40239 0.4105,-0.42016 0.31884,-0.79806 0.11422,-0.45358 0.70527,-0.48555 0.59897,-0.48534 0.24152,-0.57874 -0.47341,-0.56956 0.40581,-0.33591 0.37674,-0.61616 0.28003,-0.51344 -0.12569,-0.4108 -0.3961,-0.30778 -0.62139,-0.57922 -0.75816,-1.03633 -0.90857,-0.75247 -0.21216,-0.2111 0.0958,-0.54132 0.20496,-0.7129 -0.14332,-0.25086 -0.42769,-0.62598 -0.003,-0.50439 0.0213,-0.67551 -0.22871,-0.13531 -0.0798,-0.34765 0.26661,-0.42738 -0.0133,-0.86611 -0.27792,-0.0971 -0.24472,0.0382 -0.54837,0.14652 -0.14545,0.28753 -0.18494,0.26828 -0.45593,-0.46617 -1.16957,-0.36391 -1.24889,-0.977 -0.23138,0.6769 -0.54837,-0.19135 -0.18548,-0.47247 -0.0187,-0.55555 0.31064,-0.52358 0.58811,-0.42136 -0.3302,-0.58123 0.0926,-0.51709 -0.50879,-0.26181 -0.39639,0.0448 -0.7798,0.10221 -0.18495,-0.44061 -0.1321,-0.74065 -0.72029,-0.54285 -0.60799,-0.57479 0.0462,-0.54914 0.35014,-0.73423 0.29748,-0.71522 0.15879,-0.45977 -0.1257,-0.40866 -0.11876,0.0133 -0.26447,0.36391 -0.22417,-0.0355 -0.58179,-0.0371 -0.38985,-0.19135 -0.41554,-0.64239 -0.32594,-0.30885 -0.14704,-0.4262 0.12783,-0.2223 0.45374,-0.29036 0.10861,-0.14224 -0.10861,-0.31491 -0.31313,-0.18548 -0.2875,-0.44469 -0.19188,-0.32735 -0.2811,-0.28395 0.008,-0.30248 -0.008,-0.46329 -0.41541,-0.22231 -0.2811,-0.43855 -0.0766,-0.6979 0.28112,-0.61157 0.0384,-0.74129 -0.0187,-0.53735 -0.0536,-0.35887 -0.22391,-1.18601 -0.0811,-0.63422 0.10275,-0.46068 -0.13104,-0.4674 -0.16733,-0.30141 -0.0213,-0.40194 0.0499,-0.35227 -0.0286,-0.26234 -0.0686,-0.10594 -0.14705,-0.31492 0.0897,-0.2843 0.28894,-0.23725 0.11396,-0.1828 0.86934,-0.59302 1.00352,-0.26554 0.49855,-0.099 0.37077,-0.3028 0.34517,-0.58675 0.40268,-0.3892 0.51125,0.14838 0.83102,0.58061 0.63932,-0.26554 0.38353,-0.58061 0.41541,-0.69804 0.58168,-0.0803 0.37079,-0.40144 0.19135,-0.5869 0.22925,-1.29258 -0.0798,-0.54052 0.15906,-0.47896 0.21483,-0.11342 0.0472,-0.15079 -0.0286,-0.53705 -0.15986,-0.45096 -0.0691,-0.30782 0.15346,-0.2191 0.44749,-0.18548 0.20469,-0.73518 0.0187,-0.33874 0.13798,-0.86795 -0.0448,-0.65483 0.44101,-0.66719 -0.13424,-1.13666 -0.14811,-0.80188 0.22177,-0.57228 0.3448,-0.4424 0.15559,-0.59302 -0.0499,-0.26866 -0.0512,-0.11742 -0.067,-0.39991 -0.0958,-0.51267 -0.23031,-0.4757 -0.58888,-0.56097 -0.10035,-0.10007 -0.34515,-0.55587 0.16573,-0.60541 0.70695,-1.26196 0.47018,-0.58531 0.49713,-0.41928 0.4429,-0.3582 0.64007,-0.32559 1.32973,-0.77841 0.84369,-0.67952 0.28112,-0.40772 0.48577,-1.09952 0.14064,-2.12517 0.20469,-0.81551 0.64928,-0.74912 0.31952,-0.84219 -0.41861,-1.8244 6.13061,-2.89814 2.79433,-4.50974 1.12287,-3.20291 0.82165,-1.42937 0.24659,-1.48243 0.68469,-1.2705 0.80081,-1.77364 1.2645,-1.96531 0.40057,-1.26119 0.46479,-1.0857 1.10382,-1.70326 4.52289,-5.80002 6.70327,-8.10377 2.35532,-2.46207 0.62995,-1.50898 1.17774,-0.82058 1.69801,-2.27659 0.79422,-1.00598 0.54776,-1.19141 2.03405,-0.66275 0.56769,-1.45499 1.53381,-1.42956 1.52627,-1.47443 0.91965,-1.31422 0.7798,-1.23677 1.59943,-1.46879 1.29948,-2.08711 0.81971,-1.54608 1.78405,-1.51709 1.87457,-0.87932 1.61939,-0.44453 1.33949,-0.90831 2.6991,-2.4737 3.35871,-3.53672 3.49866,-2.22252 7.23339,-4.4919 -0.59102,-0.14598 -0.55712,-0.13584 -1.09616,-0.0601 -1.17616,-0.28433 -1.06921,-0.44792 -1.15839,-0.41344 -0.73945,-0.34442 -0.45561,-0.8169 -0.46617,-0.70033 -0.37803,-0.16466 -1.22174,-0.51341 -0.43274,-0.34339 -0.18441,-0.0387 -0.74831,0.37525 -3.72998,-1.90032 -3.93142,-1.55929 -3.22586,-0.29212 -4.28434,0.77964 -3.88098,1.82718 -3.32663,3.43519 -2.495,2.43613 -2.1926,3.50816 -1.7298,4.75649 -1.15823,1.79157 -2.46708,2.47893 -5.62524,5.50264 -3.20761,3.89312 -3.63529,3.22111 -3.84925,2.8077 -3.22543,2.68717 -2.37016,1.44699 -1.40778,0.93011 -1.81765,1.92928 -1.60391,3.10043 -0.30282,2.82485 -1.44331,1.75694 -2.03163,1.51573 -1.06912,1.01626 -1.08713,-0.12063 -0.26725,-1.22297 0.60588,-1.73962 0.16039,-1.55035 -1.09871,-1.14678 -0.98007,-0.32737 -1.38998,-0.29711 h -0.83316 l -1.66753,0.20362 -2.12818,0.29212 -0.88207,0.11449 -0.44963,0.0697 -0.10061,0.0566 -0.1241,-0.0979 -0.15265,-0.0686 -0.45838,-0.0649 -1.76475,-0.51018 -0.73746,-0.21323 -1.15932,-1.07179 -0.52924,-0.29215 -1.134,0.0483 -2.46986,0.36543 -4.38507,0.2191 -6.55247,-0.97436 -2.46327,-0.58261 -2.27466,-0.53793 -6.1492,-2.21684 -4.29639,-4.27478 -1.85616,-2.96179 -0.38921,-0.62107 -0.12783,-0.27114 -2.2424,-4.81061 -1.63965,-2.91119 -2.96702,-5.74802 -2.32553,-2.84234 -1.1882,-2.72259 -0.76644,-1.45499 0.0446,-1.56679 -0.89448,-0.9929 -0.65496,-0.99693 -0.6272,-1.19907 -0.87791,-1.50895 -1.09418,-1.41603 -0.67965,-1.06397 -0.19668,-0.3249 0.18334,-0.57476 0.34979,-0.50698 0.22017,-0.31955 v -0.50023 l -0.4499,-0.1668 -0.58488,0.0363 -0.15558,0.10701 -0.32345,0.22284 -0.2103,-0.12249 0.003,-0.14972 0.0894,-0.30744 -0.008,-0.31205 -0.032,-0.11529 -0.10275,-0.0416 -0.54879,-0.28361 -0.78045,-0.3231 -0.16146,-0.26154 0.0929,-0.49425 0.13798,-0.11849 0.11422,-0.0649 0.3199,-0.19348 0.032,-0.10355 -0.0659,-0.14118 -0.49855,-0.23298 -0.43199,-0.44458 -0.53655,-0.17507 -0.33519,-0.15292 -0.514,-0.26866 -0.405,-0.68317 -0.29962,-0.58608 -0.0133,-0.36378 v -0.43118 l -0.32737,-0.76785 -0.7525,-0.66017 -1.05917,-0.64684 -0.67599,-0.62644 -0.2135,-0.49438 -0.0862,-0.19962 -0.13237,-1.07774 0.0355,-1.30688 -0.64101,-0.99707 -0.29959,-0.47831 0.20202,-0.4918 0.0558,-0.45806 -0.39916,-1.3677 -0.11823,-1.06704 -0.0446,-1.21006 -0.003,-0.13851 -0.008,-0.15158 0.20095,-0.53535 -0.024,-0.50895 -0.65561,-1.00035 -1.27122,-2.18137 -0.3848,-0.21857 -0.98773,-0.50207 -0.36909,-0.42278 -0.85034,-0.58226 -0.7735,-0.15479 -1.1288,-0.45806 -0.54346,-0.61984 -0.39721,-0.63991 -0.30675,-0.86243 -0.0766,-1.01046 -0.34907,-1.1003 v -0.69387 l 0.27184,-0.84204 -0.13237,-0.50532 -0.33092,-0.52918 -0.75387,-0.47173 -0.52737,-0.47156 -0.92669,-1.4875 -0.87777,-1.63578 -0.43354,-0.62889 -1.10381,-1.43874 -0.66921,-1.12022 -10.66122,-3.72534 -11.02375,-9.55004 -5.75122,-1.26757 -4.11503,-5.68377 -6.92665,-6.82886 -0.24899,-0.22604 -12.2366,-11.09841 -8.55031,-5.47494 -19.77575,-13.25435 -20.17627,-14.36614 -5.92243,-4.85355 -12.7483,-8.63957 -21.18009,-14.9498 -20.87911,-13.68837 -15.25775,-12.03843 -14.85612,-10.09721 -14.75578,-8.73818 -8.33155,-11.16578 -8.73314,-2.71858 -4.61739,-5.04903 -16.16124,-8.73883 -12.44716,-0.29142 -12.34666,-3.39841 -5.82195,-7.9624 -18.56826,-11.27675 0.19349,179.81845 1.06271,3.33461 1.52524,4.0857 2.53858,3.48776 3.34008,6.2003 2.67215,6.84616 7.21466,12.01253 3.741,9.42891 7.61553,14.20743 7.6155,14.85258 10.28765,6.84495 0.40084,3.48687 3.34016,22.21249 1.336,17.04563 -4.23066,8.75721 -9.38055,10.20882 -12.14952,5.3182 -7.94827,41.4886 12.63574,22.38419 -4.73839,9.4113 8.91736,8.20267 11.1548,10.61876 14.19994,10.58378 28.61105,1.25395 5.1467,13.06989 3.82318,10.58359 2.13232,5.54008 2.64685,7.31591 4.41142,10.51166 5.74157,5.8876 14.30943,7.57536 25.07383,13.05471 25.96315,10.3059 13.33716,7.90076 3.84939,1.28983 7.073,2.92973 26.03596,13.25894 25.79913,8.91537 5.20718,16.00101 8.28413,8.22877 16.56841,3.20013 11.8345,-2.97147 12.74969,8.25143 -0.11609,0.44672 0.0737,0.42647 0.25273,0.49747 0.35748,0.34518 0.8411,-0.16253 0.44165,0.0406 0.49409,0.45696 0.45208,0.71064 0.7761,0.71279 0.62568,0.5583 -0.0424,0.57372 -0.17213,0.5085 -0.036,0.25487 0.0777,0.083 0.17907,-0.0187 0.61981,-0.31349 0.75085,-0.28716 0.57994,-0.008 0.42372,0.30138 0.52048,0.64619 0.54266,0.46668 0.3345,0.0643 1.12263,-0.20095 0.61709,-0.15079 0.79542,0.20096 0.66171,0.40212 0.41635,0.48104 0.28254,0.78256 -0.0446,0.78973 0.17107,0.75376 0.327,0.35155 0.40882,0.16519 0.3792,-0.11502 0.33021,0.0718 0.53534,0.45961 0.44611,0.4737 0.84756,0.73241 0.10382,0.70358 0.38662,0.73222 0.75845,0.73228 1.15981,0.18681 0.49072,0.0857 0.25273,1.077 0.16359,0.57428 0.62444,0.70359 0.44607,0.80398 0.47587,0.8042 0.46097,0.10034 1.31144,-0.0355 0.58733,0.16573 1.06702,0.29036 0.48704,-0.1241 0.47968,-0.19402 0.52291,-0.0899 0.30069,0.10381 0.20069,0.30424 0.3938,0.31098 0.4726,0.37341 -0.043,0.20736 -0.20069,0.31812 -0.16466,0.15905 0.0502,0.22124 0.15051,0.25593 0.44398,0.33199 0.50847,0.2143 0.42249,-0.0214 0.29356,-0.14518 0.0931,-0.26973 0.0502,-0.41496 0.10755,-0.0761 0.10701,0.0286 0.13638,0.16573 0.27221,0.0899 0.47984,0.19349 0.38675,0.25593 0.30778,0.42185 0.30779,0.49086 0.22204,0.15238 0.19321,0.0286 0.22818,-0.0801 0.47215,-0.21483 0.33093,-0.0472 0.19535,0.10462 0.21216,0.28323 0.2063,0.18868 0.37447,0.0787 0.36896,-0.0995 0.14651,0.003 0.32025,-0.10007 0.24952,-0.003 0.28753,0.17293 0.28751,0.0286 0.29321,-0.0419 0.22818,-0.1676 0.14117,-0.22551 0.0926,-0.0681 0.21697,-0.10461 0.83574,0.10461 0.54826,0.22551 0.57519,0.41923 0.57536,0.26831 0.93299,0.32132 1.08959,0.0819 0.68992,-0.14438 0.62747,0.0889 0.88575,0.34766 1.11655,0.11609 1.83622,-0.36546 1.13493,-0.26722 0.69195,-0.37416 0.4614,-0.36529 0.81202,-0.24046 1.38395,-0.12463 1.32879,-0.36529 0.95031,-0.1249 0.95967,0.24953 0.45206,-0.4009 0.5168,-0.0446 0.5812,-0.17827 0.49841,-0.0622 0.60893,0.11556 1.90782,0.41509 z"
      data-name="Sede" id="sede" />
</svg>