<?xml version="1.0" encoding="UTF-8" standalone="no"?>
<svg version="1.1" id="svg2" width="374.70944" height="535.19775" viewBox="0 0 374.70944 535.19775"
   xmlns="http://www.w3.org/2000/svg" xmlns:svg="http://www.w3.org/2000/svg">
   <defs id="defs6" />
   <path class="neighborhood"
      d="m 137.59997,456.49776 h -0.1 l -0.2,-0.2 -0.2,-0.3 -0.1,-0.1 h -0.20001 l -0.2,0.1 h -0.1 l -0.1,-0.1 v -0.3 l -0.1,-0.3 -0.1,-0.2 -0.1,-0.2 -0.3,-0.2 -0.1,-0.2 -0.19999,-0.2 v -0.2 -0.2 l -0.1,-0.2 -0.1,-0.1 -0.29999,-0.1 h -0.20001 l -0.1,-0.1 -0.1,-0.2 -0.2,-0.1 h -0.1 l -0.2,0.1 -0.2,0.1 h -0.1 l -0.2,0.1 v 0.1 h -0.2 l -0.1,-0.1 v -0.2 -0.2 -0.2 l -6.2,-3.7 -4.3,-1.1 -4,-2.3 -2.29999,-4.1 -1.40001,-4.2 -4.59999,-2.8 -3,-0.3 -0.1,-0.1 h -0.3 l -0.5,-0.3 -0.4,-0.1 H 106 h -0.20002 -0.2 l -0.3,0.1 -0.4,-0.2 -0.1,-0.3 -0.1,-0.1 H 104.5 l -0.30002,-0.1 h -0.3 l -0.2,0.2 h -0.1 l -0.2,-0.1 -0.2,-0.1 -0.3,-0.1 -0.1,0.1 -0.2,0.2 v 0.5 l -0.1,0.2 -0.30001,0.1 -0.4,0.2 -0.2,0.2 h -0.2 l -0.2,0.1 -0.19999,0.3 -0.30001,0.1 -0.19999,0.1 -0.499999,0.3 -0.1,0.1 -0.1,0.2 -0.2,0.1 h -0.199997 -0.399987 -0.300013 l -0.199987,0.1 -0.300013,0.1 -0.3,0.2 -0.2,0.2 -0.199987,0.2 -0.200013,0.7 v 0.3 l -0.1,0.3 -0.199987,0.2 -0.200013,0.2 -0.299987,0.3 -0.400013,0.3 -0.3,0.2 -0.5,0.3 -0.2,0.1 -0.3,-0.1 -0.2,-0.2 -0.3,-0.2 -0.1,-0.2 -0.3,-0.3 -0.3,-0.1 -0.8,0.1 -0.7,0.2 -0.9,0.1 h -0.4 l -0.6,0.1 -0.5,0.1 -0.699987,0.1 -0.5,0.4 h -0.300013 l -0.3,0.1 -0.399987,0.4 -0.5,0.6 -0.5,0.3 -0.5,0.1 -0.499999,-0.3 -0.800014,-0.6 -0.699986,-0.6 -0.5,-0.2 -0.200014,-0.1 -0.299986,-0.1 h -0.200014 -0.2 l -0.3,0.1 -0.299986,0.1 -0.400014,0.2 -0.3,0.2 h -0.1 l -0.199986,-0.1 -0.200014,-0.2 h -0.2 -0.1 l -0.2,0.1 -0.3,0.1 -0.3,0.2 v 0.1 l -0.1,0.1 h -0.1 l -0.200013,-0.2 -0.4,-0.2 h -0.5 l -0.399987,0.1 h -0.400013 -0.2 -0.2 l -0.1,-0.2 -0.4,-0.2 -0.2,-0.1 -0.4,-0.1 h -0.4 l -0.3,-0.2 -0.2,-0.1 -0.2,-0.5 -6.1,1.1 -5,-3.1 -4.6,1.5 -7.599999,-1 -12,-0.9 -7.7,0.5 -6.7,0.6 -6.899999,-1.7 v 23.4 l 1.899999,1.3 0.1,0.3 -0.1,0.2 0.2,0.3 0.3,0.2 0.3,0.2 0.4,0.3 0.2,0.3 0.1,0.4 0.2,0.3 -0.1,0.3 -0.2,0.4 0.1,0.4 v 0.1 l 0.3,0.1 h 0.2 l 0.2,0.3 0.2,0.2 0.1,0.1 0.3,0.2 0.3,0.2 v 0.2 l -0.1,0.2 -0.2,0.2 -0.1,0.2 -0.2,0.1 -0.1,0.2 -0.1,0.1 v 0.2 l 0.2,0.3 v 0.3 l 0.1,0.4 -0.1,0.3 v 0.5 0.3 0.2 l -0.1,0.2 h -0.1 v 0.2 l -0.1,0.3 0.1,0.2 0.1,0.1 h 0.3 l 0.3,-0.1 h 0.4 l 0.2,0.1 0.2,0.2 0.1,0.2 0.2,0.4 0.2,0.2 0.1,0.2 0.1,0.2 v 0.2 l -0.1,0.4 -0.2,0.2 v 0.2 l -0.1,0.2 v 0.1 l 0.1,0.1 0.1,0.1 0.2,0.1 v 0.2 l 0.1,0.1 0.1,0.2 v 0.3 l 0.1,0.3 0.1,0.2 0.1,0.3 -0.1,0.1 -0.2,0.3 -0.2,0.1 -0.1,0.3 -0.1,0.4 -0.1,0.4 -0.1,0.2 -0.2,0.3 -0.4,0.2 -0.2,0.1 -0.1,0.1 v 0.2 l 0.1,0.2 v 0.4 l -0.1,0.3 -0.1,0.3 -0.4,0.5 -0.3,0.3 -0.2,0.2 -0.3,0.3 -0.2,0.1 -0.1,0.1 v 0.2 l -0.1,0.3 -0.1,0.2 v 0.1 0.2 l -0.2,0.2 -0.3,0.4 -0.2,0.2 -0.5,0.3 -0.4,0.3 -0.5,0.3 -0.2,0.5 v 0.2 l 0.5,0.2 0.3,0.1 0.2,0.4 v 0.5 0.5 l 0.2,0.5 -0.1,0.6 -0.3,0.3 -0.4,0.3 -0.2,0.3 0.1,0.4 0.3,0.5 0.6,0.4 0.5,0.6 v 0.3 l -0.2,0.1 -0.1,0.2 -0.1,0.2 0.1,0.4 0.3,0.6 0.1,0.3 0.1,0.5 0.1,0.3 2.5,0.4 2.5,0.9 2.2,2.5 0.3,0.3 0.3,0.3 h 0.3 l 0.4,-0.1 0.3,0.1 0.4,0.2 0.3,0.3 v 0.2 l 0.1,0.2 h 0.5 0.5 l 0.3,0.2 0.5,0.1 0.3,0.2 h 0.1 l 0.2,0.1 0.2,0.2 0.1,0.1 0.5,0.2 0.2,0.2 0.4,0.2 h 0.4 l 0.2,0.1 0.4,0.2 0.1,0.3 0.2,0.2 0.2,0.3 0.2,0.3 0.3,0.2 0.3,0.2 0.3,-0.1 0.4,0.1 0.2,0.2 0.1,0.2 0.1,0.4 0.3,0.3 0.4,0.4 0.5,0.4 0.3,0.2 0.6,0.1 h 0.5 l 0.3,-0.3 h 0.3 l 1.6,0.5 0.6,0.2 0.7,0.2 0.3,0.1 0.6,0.2 h 0.1 0.3 l 0.1,0.1 h 0.2 0.1 l 0.2,0.1 0.1,0.2 v 0.1 0.1 0.1 0.1 l 0.1,0.1 v 0.1 l -0.1,0.1 -0.1,0.1 0.1,0.1 0.2,0.2 0.4,0.2 0.2,0.1 0.1,0.3 0.1,0.2 0.3,0.1 0.5,0.2 0.2,0.2 0.1,0.2 0.1,0.3 0.2,0.5 0.4,0.4 0.2,0.4 v 0.3 l -0.1,0.3 v 0.3 l 0.1,0.3 0.2,0.4 0.4,0.5 0.3,0.3 0.2,0.5 -0.1,0.5 -0.1,0.5 -0.3,0.5 -0.4,0.3 -0.3,0.3 -0.2,0.6 v 0.3 l 0.1,0.2 0.2,0.1 0.1,0.1 0.7,0.4 0.3,0.3 0.7,0.8 0.4,0.7 0.3,0.6 0.2,0.5 0.8,0.4 0.2,0.9 v 0.8 l 0.3,0.8 0.2,0.3 0.2,0.4 v 0.2 l -0.1,0.1 v 0.2 0.6 l 0.5,0.8 v 0.1 l 0.3,0.6 2.1,0.8 h 1 l 1.1,0.3 0.899999,-0.3 1.4,0.7 1.5,-0.1 2,0.1 0.4,-0.4 h 1.1 l 0.5,0.1 0.3,0.2 0.4,-0.1 0.5,0.2 0.4,0.2 0.5,-0.1 h 0.5 l 1,0.1 0.7,0.6 0.9,0.8 2.2,1.1 0.6,0.6 0.5,1.3 v 1 l 0.5,0.7 0.3,0.5 1.1,0.2 0.1,0.7 0.7,0.4 h 0.900013 l 0.699987,-0.3 0.1,-0.3 0.4,-0.3 0.4,-0.2 0.6,0.1 0.5,0.1 0.300013,0.1 0.5,0.1 0.1,-0.4 0.1,-0.2 0.3,-0.1 h 0.1 0.3 l 0.2,0.2 0.1,0.1 0.2,0.1 h 0.3 l 0.5,-0.1 h 0.5 0.6 0.4 l 0.9,-0.1 1.1,-0.2 0.800013,-0.2 0.299987,-0.2 0.200013,-0.4 0.399987,-0.4 0.2,-0.1 0.400013,0.1 0.699987,0.1 0.800013,0.4 0.5,0.1 0.199987,0.2 0.2,0.2 0.9,0.1 0.3,0.5 0.1,0.2 0.9,0.6 0.400013,0.2 0.299987,0.5 0.3,0.4 0.3,0.4 0.600013,0.2 0.699987,0.2 1.5,0.2 0.899997,0.1 H 100.5 l 0.89998,-0.2 0.7,-0.5 0.5,-0.5 0.5,-0.6 0.6,-0.6 1,-0.2 1.1,0.1 H 106 l 0.39998,0.1 0.5,0.2 0.5,0.8 0.2,0.6 0.2,0.3 0.6,0.1 h 0.8 l 1.6,0.1 h 1.1 l 0.60002,-0.1 0.59998,-0.2 0.6,-0.1 0.4,-0.2 0.5,-0.2 h 0.3 l 0.60002,-0.2 h 0.29998 l 0.4,-0.3 0.30002,-0.2 0.1,-0.6 0.2,-0.4 0.20001,-0.9 1,-0.9 0.5,-0.2 H 118.7 l 0.6,-0.1 0.4,-0.1 0.4,-0.2 0.40001,-0.1 0.39999,-0.2 0.60001,-0.4 0.69999,-0.2 h 0.5 0.9 0.40001 0.29999 l 0.6,-0.2 0.5,-0.3 0.8,-0.6 0.5,-0.3 0.5,-0.2 0.2,-0.7 0.1,-0.1 v -0.1 -0.4 l 0.19998,-0.9 0.30002,-0.5 0.39998,-0.5 0.2,-0.3 0.3,-0.5 0.2,-0.7 0.2,-0.6 0.1,-0.2 0.3,-0.7 0.2,-0.1 0.2,-0.1 v -0.1 l 0.2,-0.6 0.3,-1.2 0.3,-0.6 0.1,-0.3 0.59999,-0.2 0.6,-0.2 0.2,-0.1 0.60001,-0.6 0.59999,-0.4 0.2,0.1 h 0.3 l 0.5,0.1 0.2,0.1 0.20001,0.1 0.19999,0.1 0.2,-0.1 h 0.60001 0.39999 0.2 l 0.2,-0.1 0.20001,-0.2 0.19999,-0.2 0.30001,-0.2 0.5,-0.3 0.29999,-0.2 0.3,-0.1 0.1,-0.1 v -0.3 l 0.1,-0.4 -0.2,-0.4 -0.2,-0.3 -0.1,-0.5 -0.2,-0.5 -0.1,-0.4 0.1,-0.3 v -0.2 l 0.2,-0.6 0.3,-0.5 0.3,-0.1 0.3,-0.3 0.2,-0.1 0.3,-0.3 0.30001,-0.2 0.1,-0.5 v -0.3 l 0.1,-0.4 0.1,-0.1 0.1,-0.1 0.4,-0.6 v -0.3 l 0.20002,-0.2 0.39998,-0.5 0.4,-0.2 0.4,-0.3 0.30002,-0.1 0.19998,-0.1 0.2,-0.1 0.2,-0.2 0.1,-0.2 0.2,-0.4 0.1,-0.6 v -0.3 -0.2 l 0.1,-0.2 0.2,-0.4 0.1,-0.2 0.2,-0.6 v -0.5 l -0.4,-0.5 -0.2,-0.3 -0.5,-0.2 h -0.5 l -0.4,-0.2 -0.4,-0.2 -0.3,0.1 h -0.2 l -0.2,0.1 -0.4,0.2 h -0.4 l -0.4,-0.1 -0.3,-0.2 -0.1,-0.3 -0.1,-0.5 0.1,-0.1 0.2,-0.1 0.4,-0.2 0.3,-0.4 -0.2,-0.2 -0.1,-0.1 -0.20001,-0.6 v -0.2 l -0.1,-0.2 0.1,-0.2 0.20001,-0.2 0.19999,-0.5 0.2,-0.2 v -0.5 l 0.1,-0.2 0.1,-0.3 0.2,-0.1 0.1,-0.2 v -0.2 -0.2 -0.4 -0.2 l 0.1,-0.1 0.1,-0.3 h 0.2 l 0.9,0.1 0.30001,0.1 h 0.59999 l 0.40001,-0.3 h 0.19999 l 0.2,-0.3 -0.1,-0.6 -0.29999,-0.1 v -0.1 -0.3 l -0.20001,-0.3 -0.29999,-0.4 -0.1,-0.3 -0.3,-0.4 -0.1,-0.2 -0.6,-0.3 -0.1,-0.1 0.1,-0.2 -0.3,-0.5 -0.4,-0.3 -0.3,-0.4 v -0.4 l -0.2,-0.3 -0.2,-0.3 -0.2,-0.1 -0.2,-0.4 -0.1,-0.1 -0.1,-0.4 -0.1,-0.5 -0.1,-0.3 -0.1,-0.5 0.1,-0.3 v -0.2 l 0.30002,-0.2 0.59998,0.1 H 141 l 1.09998,-0.1 0.7,-0.1 0.3,-0.2 0.3,-0.1 0.1,-0.1 0.19999,-0.1 0.1,-0.2 v -0.1 l -0.1,-0.4 -0.19999,-0.2 -0.1,-0.3 -0.39998,-0.4 -0.40002,-0.3 -0.4,-0.2 -0.4,-0.3 -0.6,-0.1 -0.5,-0.3 -0.5,-0.3 -0.4,-0.4 -0.2,-0.4 -0.3,-0.4 -0.1,-0.4 v -0.2 l 0.1,-0.5 0.20002,-0.5 v -0.4 l 0.19998,-0.3 0.30002,-0.4 v -0.2 l -0.30002,-0.1 v -0.4 l -0.1,-0.6 0.1,-0.5 0.30002,-0.5 -0.1,-0.4 v -0.3 l 0.1,-0.4 0.29998,-0.3 0.1,-0.5 -0.2,-0.2 -0.9,-1.1 -0.9,-1 -0.39998,-0.5 h -0.30002 l -0.5,-0.7 -0.3,-0.6 -0.5,-0.5 -0.3,-0.4 -0.1,-0.5 -0.1,-0.1 -0.39998,-1.1 -0.1,-0.4 -0.2,-0.7 0.1,-0.2 -0.1,-0.4 0.1,-0.5 0.3,-0.3 0.2,-0.3 0.4,-0.3 0.30001,-0.3 0.39999,-0.4 0.3,-0.2 h 0.4 l 0.40001,-0.2 h 0.29999 0.4 l 0.5,-0.2 0.1,-0.4 v -0.4 -0.1 -0.2 l -0.1,-0.2 v -0.3 l -0.1,-0.2 v -0.1 -0.2 l 0.1,-0.2 v -0.5 -0.2 h 0.1 l -1.29999,-1.9 -0.40001,-1.6 v 0 z"
      data-name="Cercadinho" id="cercadinho" />
   <path class="neighborhood"
      d="m 107.51509,434.27711 3.03404,0.28093 4.58592,2.86205 1.34873,4.16294 2.3379,4.07599 3.95648,2.34151 4.31612,1.1274 6.20249,3.68049 0.0379,0.1891 -0.0213,0.23249 0.0283,0.19595 0.0899,0.0707 0.12986,-0.0205 0.0709,-0.0729 0.12053,-0.0752 0.19617,-0.0342 0.18192,-0.0957 0.1324,-0.0934 0.16778,-0.0251 0.15596,0.0911 0.1228,0.23248 0.1228,0.14354 0.21266,-0.0547 0.23163,0.15267 0.0992,0.0525 0.104,0.16858 -0.005,0.24388 0.0472,0.23242 0.14416,0.1732 0.15832,0.20508 0.23156,0.18686 0.13,0.15038 0.10626,0.23932 0.078,0.31673 0.0663,0.23927 0.0567,0.14354 0.1276,-0.0137 0.15124,-0.0798 0.21738,0.0205 0.15836,0.11626 0.19612,0.23473 0.1276,0.18003 0.15124,0.0706 0.34431,1.59841 1.28939,1.83855 0.24214,-0.18405 0.2384,-0.14084 0.16079,-0.15647 0.31667,-0.26392 0.15026,-0.12166 0.11267,-0.0518 0.0848,-0.0781 0.10573,-0.18836 0.10467,-0.24588 0.0671,-0.3493 0.0215,-0.16308 -0.003,-0.18888 -0.007,-0.32713 -0.0308,-0.4043 -0.37609,-0.81446 -0.28356,-0.32702 -0.3391,-0.36264 -0.1356,-0.23192 0.0308,-0.31506 0.0684,-0.25628 0.0423,-0.10245 0.12827,-0.19641 0.16969,-0.28058 0.62225,-0.5533 0.95352,-0.4832 0.1455,-0.37407 -0.0243,-0.51434 0.37172,-0.24939 0.35559,-0.24938 0.48485,-0.16371 0.88084,-0.16365 0.5414,-0.15584 0.69495,-0.0702 1.11521,-0.17922 0.49292,-0.31955 0.18588,-0.23381 0.21008,-0.21818 0.0133,-0.1351 0.0272,-0.278 0.26668,-0.16365 0.20205,-0.13249 0.35556,-0.0701 0.1132,-0.24938 0.28283,-0.1871 0.59484,-0.27575 0.61163,-0.11412 h 0.49318 l 0.41436,-0.22836 0.21698,-0.45665 0.0197,-0.24737 0.39453,-0.0951 0.47354,-0.17123 0.26594,-0.46355 0.13888,-0.4871 -5e-5,-0.144 -0.0993,-0.35115 0.19032,-0.1117 0.5461,0.21944 0.30622,-0.1237 0.19445,-0.13567 0.41372,-0.15963 0.38483,-0.34713 0.2234,-0.25541 0.0331,-0.27933 0.40546,-0.0638 0.43446,-0.22347 0.36822,-0.23542 0.40958,-0.42297 0.25243,-0.19555 0.1012,-0.31046 -0.012,-0.38971 0.42931,-0.19485 0.20202,-0.51147 -0.0884,-0.37752 -0.0632,-0.32885 0.0505,-0.29226 0.23989,-0.25576 0.13888,-0.30443 -0.10107,-0.2314 -0.25248,-0.30443 -0.25254,-0.42625 -0.20204,-0.2314 -0.31564,-0.34098 -0.17682,-0.26794 -0.1641,-0.24358 -0.15918,-0.25289 -0.18657,-0.3292 -0.0179,-0.15911 0.0433,-0.10384 0.23204,-0.10952 0.25236,-0.27547 0.0884,-0.30443 0.18945,-0.18267 0.0884,-0.28013 0.13888,-0.25576 0.17447,-0.20761 0.28448,-0.36914 0.26376,-0.43401 0.29994,-0.2045 0.36419,-0.0355 0.46671,-0.20112 0.54945,-0.11815 0.59248,-0.0734 0.39057,-0.0479 0.50342,-0.18026 0.32329,-0.30202 0.34344,-0.39947 0.10107,-0.33127 0.19192,-0.33127 0.17169,-0.2241 0.0404,-0.33127 0.27881,-0.37672 0.40384,-0.33523 0.6018,-0.23542 0.5899,-0.0312 0.33937,-0.13251 0.33132,0.23382 0.1374,0.31178 0.16968,0.0624 0.17779,0.23382 0.14549,0.15588 0.25048,0.0935 0.21013,0.039 0.23434,-0.10131 0.45252,-0.39758 0.19013,-0.39039 0.33144,-0.24358 0.42613,-0.0913 0.21146,0.0229 0.10786,0.0505 0.0987,-0.0505 0.27824,-0.20606 0.56645,-0.66937 0.0789,-0.38063 0.1894,-0.88295 0.39458,-0.33495 0.93122,-0.0914 0.39729,-0.13596 0.39821,0.0848 0.2483,0.0998 0.44476,0.0948 0.78096,0.15968 0.54818,-0.0399 0.3931,0.0948 0.49646,0.16457 0.71374,0.0399 0.57404,-0.14968 0.89474,-0.20451 0.67236,0.0948 0.60507,0.0798 0.57411,0.31425 0.30512,0.14969 0.68788,-0.005 0.48094,-0.005 0.65168,-0.23444 0.72924,-0.0649 0.50166,0.0349 0.34132,0.0798 0.76028,-0.14469 0.362,0.005 0.52238,0.32925 0.26375,0.12969 0.29479,-0.0149 0.23794,-0.10482 0.2379,0.13969 0.19652,0.17963 0.32632,0.14003 0.15077,0.0437 0.11813,0.0113 0.14551,-0.11308 0.15911,-0.28157 0.1448,-0.0349 0.20685,0.16962 0.0621,0.15463 0.39827,0.11976 0.42924,0.16462 0.34132,-0.005 0.12413,-0.17956 0.0361,-0.11476 0.62178,0.0168 0.2399,-0.20703 0.47981,0.0121 0.37879,0.1583 0.31564,0.19492 0.39144,-0.0609 0.40406,0.0487 0.2399,0.29231 0.19572,0.77947 0.0197,0.5899 -0.0789,0.60898 0.27616,0.39959 0.35517,0.39965 v 0.74212 l 0.23675,0.26645 0.23674,0.019 0.17755,-0.19032 0.43401,0.30449 0.51296,0.0761 0.43407,0.26639 0.51296,0.038 1.06535,-1.0466 -0.0789,-0.28542 -0.19733,-0.28547 v -0.36155 l 0.25652,-0.26645 0.37483,-0.51376 0.0987,-0.41867 0.43402,-0.22835 0.31569,-0.11417 0.43401,-0.34259 0.55244,-0.17123 0.27622,-0.1713 0.15778,0.13327 -0.0395,0.20927 0.23674,0.19032 0.53267,-0.019 0.41431,0.019 0.47348,0.0951 0.41436,0.20934 0.53266,0.17129 0.78914,0.51377 0.37488,0.3616 -0.0789,0.55187 0.59187,0.39959 0.71023,0.43768 0.90754,0.57088 1.20348,0.53285 0.71023,0.13319 0.434,-0.20933 0.53273,-0.79924 0.55239,-0.30449 h 0.29592 l 0.0592,-0.38056 -0.0789,-0.36155 0.39458,-0.81832 0.53267,-0.55186 -0.0197,-0.74218 -0.0789,-0.89439 -0.27621,-0.24737 -0.49319,-0.39965 -0.45378,-0.0952 -0.25646,0.28548 -0.47353,0.0951 -0.55239,-0.17129 -0.39458,-0.22836 -0.21704,-0.28547 -0.23674,-0.0761 h -0.35512 l -0.37482,-0.19026 -0.0789,-0.26645 0.19732,-0.11419 0.31564,-0.26645 -0.0789,-0.28541 -0.0197,-0.30449 -0.19727,-0.19031 -0.27623,0.15221 -0.17754,0.19032 -0.27622,0.0571 -0.21698,-0.24744 0.0393,-0.30449 0.23675,-0.30449 0.21704,-0.20933 0.29592,-0.57094 0.43406,-0.41867 0.53267,-0.34252 0.86808,-0.60898 0.69919,-0.18084 0.66702,-0.12962 0.75534,-0.52307 -0.044,-0.69299 -0.54486,-0.66432 -0.82665,-0.4012 -1.80108,-0.94289 -0.5552,-0.46745 -0.5302,-0.73149 -0.63649,0.14802 -1.24228,-0.4848 -0.63035,-0.24605 -1.38529,-0.68299 -0.85492,-0.27335 -0.30374,-0.25065 -0.88198,-0.16945 -0.57094,-0.18716 -0.50502,-0.27886 -0.49044,-0.28599 -0.57456,-0.19065 -0.4428,-0.3142 -0.28548,-0.17302 -0.4355,-0.0636 -0.32574,-0.24008 -0.0805,-0.0988 -0.0951,-0.2895 -0.0568,-0.11878 -0.18296,-0.12004 -0.20496,-0.0423 -0.40046,-0.0358 -0.4451,-0.0449 -0.42959,-0.005 -0.71425,-0.16974 -0.38936,-0.0662 -0.43836,-0.22858 h -0.0107 l -0.69995,-11.08863 0.12414,-6.70637 -0.15102,-2.79464 -0.10213,-1.62083 0.14808,-1.8062 -0.18233,-1.83901 -0.94139,-4.11592 -1.76915,-3.36198 -1.23093,-3.8643 -3.30607,-1.38248 -3.63664,-1.48883 -5.06922,-3.61584 -5.06922,-3.82861 -3.19585,-5.84951 -2.68451,-3.11695 -1.1725,-5.07285 -4.51827,-6.06296 -5.3998,-2.44655 -2.4546,-2.16798 -2.08368,-0.10974 -1.4605,-0.68276 -2.90016,-0.001 -10.9056,-0.18233 -3.80599,-0.53451 -2.88843,-0.61058 -7.0828,-1.45028 -10.31192,-1.23468 -0.27553,10.68414 -0.03,6.80284 -3.53533,10.10662 -14.297923,22.43998 -6.822613,10.50326 -3.799266,6.46818 -1.867507,1.70634 -0.807613,2.69248 -1.631867,2.84321 -1.448493,3.29589 2.54032,5.06107 0.480213,0.20289 0.154693,0.23956 0.18272,0.6284 0.0984,0.42942 -0.03747,0.26673 -0.0656,0.73684 0.014,0.42493 -0.02333,0.41136 -0.07493,0.43849 -0.05853,0.5379 -0.0328,0.68937 0.012,0.34357 -0.02587,0.26668 0.0053,0.2441 -0.1172,0.28024 -0.1148,0.18083 -0.138186,0.3458 -0.012,0.1763 0.145266,0.30966 0.03507,0.3277 0.012,0.20566 0.0352,0.0723 0.1172,0.0543 -0.0352,0.23278 -0.0053,0.33224 0.07733,0.39781 -0.03053,0.51077 0.04747,0.59772 -0.0164,0.16273 0.09613,0.58313 0.171,0.43389 0.03747,0.42493 -0.03053,0.35707 0.0093,0.68707 -0.0516,0.62374 -0.135893,0.46786 0.0164,0.11526 0.05387,0.0723 -0.0093,0.12435 -0.06333,0.10849 -0.166347,0.31184 -0.08907,0.38873 -0.04213,0.32547 -0.0027,0.31638 -0.03507,0.63277 -0.06093,0.47463 0.03973,0.4339 0.0093,0.278 -0.133653,0.47653 0.20864,0.46584 0.238987,0.13561 0.297586,0.16951 0.386614,0.0701 0.370213,0.0904 0.22728,0.0497 0.363147,0.20796 0.101066,0.17192 0.21768,0.0224 0.188987,0.0407 0.396013,-0.0248 0.417067,-0.0904 0.520147,0.0271 0.397173,0.13894 0.151013,0.19451 0.168707,-0.0113 0.0796,-0.0791 -0.0067,-0.11429 0.34212,-0.17176 0.25536,-0.11975 0.2156,-0.0361 0.110134,-0.0136 0.17808,-0.002 0.20852,0.14239 0.173426,0.15595 0.141534,-0.0598 0.29288,-0.17175 0.335053,-0.174 0.37488,-0.13336 0.281227,-0.0853 0.210826,-0.0248 0.161694,0.0407 0.274146,0.0475 0.28588,0.0949 0.412347,0.21243 0.778027,0.68213 0.811879,0.59766 0.473827,0.21732 0.506987,-0.0543 0.504173,-0.31644 0.503653,-0.60726 0.41752,-0.38993 0.251854,-0.0831 h 0.251853 l 0.589787,-0.37075 0.64288,-0.1598 0.543413,-0.0703 0.58324,-0.13429 0.41752,0.0128 0.907893,-0.10867 0.662774,-0.19175 0.775386,-0.0576 0.278334,0.0767 0.30484,0.30684 0.16572,0.23014 0.26128,0.17704 0.17808,0.16727 0.30224,0.0791 0.206173,-0.10619 0.50612,-0.24634 0.337427,-0.25766 0.356146,-0.27794 0.344414,-0.28248 0.19688,-0.16274 0.140546,-0.20565 0.1008,-0.34351 0.03507,-0.26444 0.20852,-0.70057 0.18744,-0.18532 0.255413,-0.21019 0.257787,-0.19664 0.295173,-0.12882 0.159347,-0.061 0.372573,-0.007 0.328053,-0.0316 0.253001,0.0113 0.18043,-0.0904 0.1148,-0.23048 0.110129,-0.0814 0.44285,-0.32771 0.29052,-0.13113 0.28588,-0.0633 0.171,-0.27346 0.16406,-0.10619 0.246,-0.052 0.21088,-0.14464 0.38194,-0.18083 0.25307,-0.0949 0.15933,-0.24404 0.0187,-0.4543 0.17336,-0.24634 0.12427,-0.0497 0.2507,0.0836 0.1898,0.0768 0.18744,0.0565 0.1288,0.0362 0.24134,-0.23508 0.22025,0.002 0.38195,0.11297 h 0.14292 l 0.0539,0.0113 0.0272,0.0873 0.14803,0.34133 0.38401,0.17911 0.32104,-0.0655 0.16164,-0.0633 0.22387,0.0404 0.22836,0.0138 0.36861,0.12544 0.48051,0.21094 0.35787,0.0831 0.0829,0.0416 z"
      data-name="Inhobim" id="inhobim" />
   <path class="neighborhood"
      d="m 10.759119,438.83963 6.25368,-3.42467 0.617307,-0.15945 0.74384,0.13808 6.904146,1.74793 6.7124,-0.60387 7.6612,-0.50095 12.095493,0.91048 7.58892,0.9106 4.570266,-1.47832 4.966654,3.16511 6.102906,-1.14774 0.133653,-0.47653 -0.0093,-0.278 -0.03987,-0.4339 0.06093,-0.47463 0.03507,-0.63277 0.0013,-0.31638 0.04227,-0.32547 0.08907,-0.38873 0.166347,-0.31184 0.06333,-0.10849 0.0093,-0.12435 -0.05387,-0.0723 -0.0164,-0.11526 0.135893,-0.46786 0.0516,-0.62374 -0.0093,-0.68708 0.03053,-0.35706 -0.03747,-0.42494 -0.171,-0.43388 -0.09613,-0.58314 0.0164,-0.16272 -0.04747,-0.59772 0.03053,-0.51078 -0.07733,-0.3978 0.0053,-0.33224 0.0352,-0.23278 -0.1172,-0.0543 -0.0352,-0.0723 -0.012,-0.20566 -0.03507,-0.3277 -0.145267,-0.30966 0.012,-0.1763 0.138187,-0.3458 0.1148,-0.18083 0.1172,-0.28024 -0.0053,-0.2441 0.02587,-0.26668 -0.012,-0.34357 0.0328,-0.68937 0.05853,-0.5379 0.07493,-0.43849 0.02333,-0.41136 -0.014,-0.42493 0.0656,-0.73684 0.03747,-0.26673 -0.0984,-0.42942 -0.18272,-0.6284 -0.154693,-0.23956 -0.4802,-0.20289 -2.540334,-5.06107 1.448494,-3.29589 1.631866,-2.84321 0.807614,-2.69248 1.86752,-1.70632 3.799253,-6.4682 6.822613,-10.50326 14.297913,-22.43998 3.53534,-10.1066 0.03,-6.80284 0.27553,-10.68416 -5.8992,4.68422 -6.138463,5.01354 -45.730839,14.47986 -23.067799,10.48402 -0.16756,0.24352 -0.64272,0.10453 -17.4039061,2.41317 9.4241461,18.96434 -1.59572,4.69785 -0.816133,1.1694 -1.184067,1.36001 -0.621667,1.33299 0.04893,1.17315 0.25916,1.49056 -0.0348,2.0034 -1.511987,3.4519 -0.6784,1.80838 1.071267,2.25733 -0.225547,2.33886 -0.33828,3.07318 0.768507,3.66158 -0.698454,1.84417 -0.383453,0.49814 -0.826,1.87199 -0.21216,1.00173 0.07747,2.1775 0.57668,7.13084 z"
      data-name="Veredinha" id="veredinha" />
   <path class="neighborhood"
      d="m 238.80802,290.63495 -4.77743,-3.09189 -4.43449,1.11344 -6.20835,-1.19912 -3.10414,-3.0834 -1.95118,-5.99574 -9.66718,-3.34065 -9.75592,-4.96827 -2.65032,-1.0978 -1.4424,-0.4833 -4.99756,-2.9605 -9.72864,-3.86172 -9.3954,-4.89172 -5.36187,-2.83856 -3.64992,4.02784 -3.74749,4.36164 -3.51436,4.64395 -5.18202,8.44257 -3.21056,4.91436 -1.75671,2.98366 -1.38104,1.55273 -1.09046,1.71408 -4.35117,6.58109 -2.90768,3.1003 -1.0904,1.5794 -9.67092,14.85598 -10.38852,17.91308 -4.04973,3.91959 -2.6321,3.58344 10.31192,1.23468 7.0828,1.45028 2.88843,0.61057 3.80597,0.53451 10.90562,0.18233 2.90016,10e-4 1.4605,0.68276 2.08368,0.10987 2.4546,2.16797 5.3998,2.44656 4.51827,6.06296 1.1725,5.07284 2.68451,3.11696 3.19584,5.84949 5.06923,3.82863 5.06921,3.61584 3.63664,1.48883 3.30608,1.38248 1.23093,3.86429 1.76915,3.36197 0.94139,4.11594 0.18233,1.83901 -0.14808,1.8062 0.10213,1.62081 0.151,2.79466 -0.12413,6.70636 0.69995,11.08863 13.11001,-31.66482 2.53516,-6.11009 67.76593,-73.18079 -0.0753,-0.1024 -0.13417,-0.0881 -0.118,-0.0881 -0.12467,-0.012 -0.0739,0.0225 -0.15566,0.15551 -0.19319,0.17616 -0.30593,0.1451 -0.28443,0.0727 h -0.36493 l -0.27376,-0.0727 -0.31127,-0.1088 -0.30052,-0.13992 -0.1664,-0.005 -0.20395,-0.0311 -0.1288,-0.0777 -0.19853,-0.15543 -0.14492,-0.0881 -0.20393,-0.13992 -0.18784,-0.22284 0.0268,-0.33167 -0.0805,-0.1244 -0.23617,-0.0569 -0.43471,0.15032 -0.21466,-0.0311 -0.29094,-0.12893 -0.1475,-0.003 -0.14175,0.0107 -0.12093,-0.0383 -0.16062,-0.042 -0.17577,0.0511 -0.15716,0.0707 -0.21645,0.1316 -0.16843,0.0929 -0.18973,0.003 -0.15767,-0.0259 -0.16572,-0.0852 -0.12027,-0.0309 -0.0428,-0.0903 -0.012,-0.1856 0.0215,-0.098 -0.016,-0.23484 -0.0731,-0.142 -0.0401,-0.2168 -0.005,-0.28392 0.007,-0.28208 9.9e-4,-0.22645 0.0133,-0.2426 -0.008,-0.30967 0.0275,-0.0544 0.0361,-0.0479 -0.0288,-0.0345 -0.0253,-0.0141 -0.0895,-0.0168 -0.15774,-0.0645 -0.18708,-0.0619 -0.14596,0.007 -0.16636,0.0147 -0.14548,-0.0133 -0.22302,-0.0329 -0.21169,0.0439 -0.13905,-0.003 -0.0775,-0.0168 -0.15233,-0.008 -0.15331,0.0419 -0.0735,0.0361 -0.0803,0.0671 -0.0641,0.0657 -0.0628,0.0439 -0.0804,0.0203 -0.0415,-0.0275 -0.0548,-0.0201 -0.0605,0.0309 -0.0661,0.0511 -0.0756,0.0711 -0.0548,0.1004 -0.0907,0.1004 -0.0756,0.0456 -0.12853,0.0511 -0.10013,-0.0133 -0.12707,-0.10174 -0.14745,-0.16789 -0.13607,-0.21169 -0.32913,-0.53342 -0.12014,-0.24416 -0.0749,-0.12133 -0.0695,-0.0981 -0.0375,-0.15486 0.0535,-0.14194 0.0709,-0.0819 0.0247,-0.10947 -0.0151,-0.1168 -0.0265,-0.0931 -0.0737,-0.0712 -0.0945,-0.004 -0.11147,0.0328 -0.1228,0.0347 -0.0813,-10e-4 -0.0869,0.009 -0.17578,-0.10586 -0.32719,-0.11347 -0.12827,-0.0297 -0.2156,-0.0772 -0.0721,-0.0411 -0.71488,-0.15556 -0.22817,-0.0435 -0.18676,0.0233 -0.21778,0.0668 -0.19365,0.0167 -0.16939,0.15022 -0.3596,-0.0935 -0.35609,0.0468 -0.49791,0.13688 -0.5186,0.0467 -0.30425,0.0901 -0.17291,0.13688 -0.25926,0.1402 -0.42527,0.10013 -0.68805,0.13694 -0.41838,-0.0435 -0.3319,-0.13013 -0.23514,-0.0333 -0.25852,0.0541 -0.40826,-0.0307 -0.3496,-0.1204 -0.21559,-0.10053 -0.21555,-0.1571 -0.20542,-0.0845 -0.31316,-0.0392 -0.0813,0.0392 -0.0347,0.0255 -0.0529,0.0845 -0.0855,0.0628 -0.10987,0.0157 -0.10773,-0.0107 -0.10774,-0.0648 -0.0935,0.001 -0.12,0.0375 -0.0549,-10e-4 -0.13825,0.0373 -0.14032,-0.0295 -0.0773,-0.0707 -0.0795,-0.10613 -0.0732,-0.0392 -0.124,0.0177 -0.17692,0.0805 -0.0855,0.03 -0.0724,-0.0107 -0.0832,-0.0571 -0.11533,-0.18393 -0.11533,-0.15808 -0.14494,-0.0959 -0.17978,-0.0725 -0.102,-0.0337 -0.0511,-0.0621 -0.0401,-0.0107 -0.0403,0.0285 -0.0188,0.15549 -0.0349,0.10107 -0.11,0.0544 -0.15831,0.008 -0.19055,-0.0803 -0.16634,-0.1244 -0.0564,-0.0959 -0.0188,-0.0829 0.0617,-0.0596 0.0752,-0.1192 0.0161,-0.0777 -0.17709,-0.13992 -0.14756,-0.11653 -0.0752,-0.114 -0.11267,-0.0389 -0.19594,0.0337 -0.17974,0.0727 -0.1825,0.0465 -0.39982,-0.1088 -0.22008,-0.0621 -0.49141,0.0133 -0.17273,-0.0376 -0.17831,-0.30134 -0.16715,-0.30126 -0.234,-0.26364 -0.0613,-0.21519 -0.0947,-0.40356 -0.18388,-0.0323 -0.43457,-0.07 -0.2842,-0.27437 -0.14487,-0.27439 -0.0389,-0.26364 -0.3176,-0.27442 -0.16715,-0.1775 -0.2006,-0.17222 -0.12373,-0.0269 -0.14209,0.0431 -0.1532,-0.0619 -0.12254,-0.13173 -0.0641,-0.28244 0.0167,-0.29592 -0.10587,-0.29323 -0.15601,-0.18025 -0.24795,-0.15068 -0.29805,-0.0753 -0.23123,0.0565 -0.42067,0.0753 -0.12546,-0.0241 -0.20335,-0.17487 -0.19503,-0.24213 -0.15877,-0.11293 -0.21731,0.003 -0.28134,0.1076 -0.23226,0.11747 -0.0671,0.007 -0.0291,-0.0311 0.0135,-0.0955 0.0645,-0.19054 0.0159,-0.21498 -0.23446,-0.2092 -0.29081,-0.26709 -0.1694,-0.26628 -0.18513,-0.17123 -0.1655,-0.0152 -0.31517,0.0609 -0.13395,-0.12934 -0.0947,-0.18641 -0.0276,-0.1598 0.0435,-0.16739 z"
      data-name="Cabeceira da Jiboia" id="cabeceira_da_jiboia" />
   <path class="neighborhood"
      d="m 142.89104,284.86247 -3.24044,-2.74416 -3.65652,-2.21657 -3.70118,-0.99284 -2.40408,-0.88864 0.102,-0.97156 -0.31154,-0.53244 -0.61795,-0.80528 -1.92284,-0.0283 -1.26801,0.82596 -1.79539,1.26749 -1.4762,1.24163 -2.09724,1.58009 -1.94864,0.64363 -3.50005,0.55381 -2.54878,0.226 -1.54653,-0.18065 -3.44144,-0.21043 -2.01019,0.74263 -1.52917,0.0735 -2.88935,-0.92892 -2.064943,-1.27932 -3.00008,-0.90308 -1.67536,-0.33868 -3.00008,0.90308 -3.11696,1.24173 -3.155906,1.50511 -3.440467,-1.29606 -1.270773,-0.0739 -1.181307,0.0368 -1.925253,0.0937 -3.171027,-0.57812 -1.876693,0.42188 -2.734213,1.2656 -1.197213,1.51561 -0.95456,1.4843 -0.808934,0.7812 -1.20344,1.6172 -1.79608,0.5156 -0.83968,0.0585 -0.995293,0.0996 -1.669387,0.52136 -1.795799,0.89053 -1.229614,0.26559 -1.504586,0.73431 -0.9222,-0.26559 -1.714947,-0.0625 -0.779133,0.95789 0.229333,0.53225 1.675987,2.49127 4.787146,4.14236 6.536907,7.73763 15.703626,14.04481 24.738149,16.94386 0.97529,0.58738 2.63211,-3.58344 4.04973,-3.91958 10.38852,-17.91307 9.67092,-14.85599 1.0904,-1.5794 2.90768,-3.10029 4.35117,-6.58111 1.09046,-1.71408 z"
      data-name="Dantilândia" id="dantilandia" />
   <path class="neighborhood"
      d="m 52.292945,292.16211 0.76752,2.29084 0.233867,1.01524 0.29116,2.11085 0.05133,1.16435 -0.172893,2.67513 -0.491934,2.33698 -1.04196,2.78684 -1.567786,2.69553 -1.788614,2.17171 -0.815493,0.79894 -0.56404,0.49923 -0.815107,0.65472 -0.407053,0.30029 -0.108267,0.0771 0.646334,1.03684 -0.01547,0.0673 0.012,0.0692 0.39648,0.62398 0.03093,0.85509 0.834814,1.97595 0.142786,7.77559 -2.14608,1.71375 -1.276973,1.889 -2.801213,3.12173 -1.5036,1.25266 -1.4212,0.63622 -1.0916,1.72983 -1.524173,0.11933 -1.056547,0.55076 -0.859,0.90067 0.2472,1.80929 -1.174053,1.65024 -0.692027,3.12214 -1.48296,0.27834 -0.865093,1.21279 0.102933,5.04969 -0.988626,0.71568 -0.585014,1.13246 -0.34184,1.9291 -0.619213,1.82004 -1.64272,1.15723 -2.650707,1.26513 -3.394506,2.06915 -2.169067,2.2602 -2.47292,1.91061 -2.12936,0.95679 -1.742866,0.47441 -2.1421198,2.62382 0.3312533,1.34334 -0.5825333,2.95158 -0.8336666,0.93381 -0.7436667,0.80872 17.4039061,-2.41317 0.642706,-0.10454 0.16756,-0.24352 23.0678,-10.48401 45.730839,-14.47987 6.138478,-5.01353 5.8992,-4.68423 -0.97531,-0.58737 -24.738141,-16.94386 -15.703627,-14.04482 -6.536906,-7.73762 -4.787133,-4.14236 -1.676,-2.49127 z"
      data-name="São João da Vitória" id="sao_joao_da_vitoria" />
   <path class="neighborhood"
      d="m 165.33314,253.93572 -2.15143,-2.20613 -1.653,-3.93883 -0.9918,-2.74133 -0.799,-2.07592 -1.43257,-3.96577 -1.92853,-4.89742 -10.72083,-0.46986 -5.32085,-3.96584 -4.17981,-3.97895 -3.34142,-3.07363 1.77552,-3.52649 -4.73473,-8.38757 2.97829,-15.54618 -0.0493,0.24588 -0.49832,0.65743 -0.32292,0.53513 -0.89159,0.97255 -1.84641,1.74988 -3.12765,7.99224 -4.2739,5.55984 -6.23281,8.90841 -2.85677,3.26204 -3.50598,5.64568 -5.14364,1.69599 -4.777303,2.03484 -7.327413,1.97864 -5.96212,1.49497 -4.163506,1.02134 -12.402893,4.12293 -8.465214,2.33025 -14.308679,4.58902 -9.177213,2.80545 -7.729653,4.15944 0.339826,1.27328 0.473494,0.84205 1.0816,1.02811 1.256399,1.07436 0.83608,0.91451 1.088027,1.98242 1.340133,0.27215 1.399587,2.1874 0.99604,1.15159 0.2214,0.0995 0.93204,1.60642 0.365627,0.34816 0.159626,0.77585 0.573307,0.45509 0.82388,-0.1044 0.458253,0.14916 -0.04627,1.0842 0.57496,0.76832 0.79476,0.87784 0.63528,0.59915 0.544173,0.39867 1.31696,0.4363 0.09107,0.56192 -0.197093,0.36438 -0.129867,0.49917 0.576747,0.31828 0.833253,0.77148 0.20468,1.30029 1.30352,2.67951 -1.774586,3.24309 1.863306,1.72919 0.698054,0.78585 1.051546,1.38103 1.608187,2.85184 0.77912,-0.95789 1.714947,0.0625 0.922213,0.26557 1.504573,-0.73429 1.229627,-0.2656 1.7958,-0.89053 1.669373,-0.52135 0.995293,-0.0996 0.839694,-0.0585 1.79608,-0.51562 1.203426,-1.6172 0.808947,-0.78118 0.954547,-1.48431 1.197213,-1.51561 2.734213,-1.2656 1.876693,-0.42188 3.17104,0.57812 1.92524,-0.0937 1.181307,-0.0368 1.270773,0.0739 3.440467,1.29605 3.155906,-1.5051 3.11696,-1.24174 3.00008,-0.90306 1.67536,0.33868 3.00008,0.90306 2.064943,1.27932 2.88935,0.92894 1.52919,-0.0733 2.01017,-0.74264 3.44145,0.21043 1.54652,0.18065 2.54878,-0.226 3.50005,-0.5538 1.94864,-0.64364 2.09724,-1.58008 1.4762,-1.24164 1.79539,-1.26748 1.26801,-0.82596 1.92284,0.0283 0.61795,0.80527 0.31156,0.53244 -0.102,0.97156 2.40409,0.88865 3.70116,0.99283 3.65652,2.21658 3.24044,2.74415 1.38104,-1.55273 1.75672,-2.98366 3.21056,-4.91436 5.18202,-8.44256 3.51436,-4.64396 3.7475,-4.36164 3.6499,-4.02784 z"
      data-name="Iguá" id="igua" />
   <path class="neighborhood"
      d="m 104.09997,232.39775 -4.899986,-3.3 -5.600013,-2.2 -6.099987,-4.9 -0.1,-2.3 -1.699987,-3.7 -0.199999,-2.9 -2.3,-2.8 -0.7,-3.8 -1.900014,-3.4 -2.3,-1 -3,-2.8 h -1.9 l -2.199999,0.6 -2.4,-1.2 -1.2,-0.2 -0.2,-0.2 -0.3,-0.3 -1.4,-1.2 0.3,-0.8 1.1,-0.8 1.2,-0.3 0.1,-0.1 v -0.1 l 0.4,-0.4 0.2,-1.5 0.8,-0.7 0.5,-0.2 0.9,-1.3 2.199999,-1.7 1.7,-1.6 v -1.7 l 0.2,-2.4 1.7,-1.1 1.3,-4.2 0.3,-3.2 0.3,-1.7 -0.199986,-1.6 0.1,-2.2 -0.5,-1.4 -0.4,-1.8 -0.8,-0.9 -1.4,-1.2 -1.9,-2.1 -2,0.7 -2,1.6 -0.6,1.3 -0.5,0.8 -0.4,0.2 -0.8,-0.5 -0.4,-0.5 0.1,-1.1 -0.4,-1 -1,-1.3 -1.4,-1.4 -0.8,-0.4 -1.300013,-1.2 -0.8,-0.1 -1.1,0.3 -1.1,-1.1 -0.599987,-1 -1.2,-2.1 -0.9,-1.2 -2,-1.2 -0.7,-0.7 -0.6,-1.1 -1.4,-3.1 -0.3,-0.4 -0.5,-0.3 -1.300013,-0.9 -0.699987,-0.6 -0.4,-0.4 -0.800013,-0.7 -0.3,-0.4 -0.5,-0.1 -0.8,-0.2 -2.2,-1.2 -24.099999,5 -13.2999994,3.2 0.1,0.4 0.2,0.1 0.2,0.3 0.3,0.2 0.5,0.1 0.2,0.1 0.2,0.2 v 0.2 l 0.1,0.3 v 0.3 l -0.1,0.4 -0.3,0.5 -0.2,0.2 -0.2,0.2 -0.5,0.4 -0.1,0.2 -0.4,0.1 -0.6999999,0.3 -0.6,0.5 -0.2,0.1 -0.1,0.1 v 0.1 0.1 0.1 l 0.1,0.2 0.2,0.1 0.2,0.2 0.3,0.1 h 0.2999999 0.2 0.2 0.1 l 0.1,0.2 0.1,0.2 0.1,0.3 0.1,0.1 v 0.2 l -0.1,0.3 -0.1,0.2 -0.2,0.1 v 0.2 0.1 0.2 l 0.1,0.1 0.1,0.1 0.1,0.1 0.1,0.1 0.2,0.1 0.2,0.1 0.1,0.1 0.3,0.2 h 0.2 0.1 l 0.2,0.1 0.1,0.1 0.1,0.1 0.2,0.2 0.1,0.1 v 0.1 0.2 0.1 0.1 l -0.1,0.3 -0.1,0.1 -0.2,0.4 -0.1,0.3 -0.2,0.3 -0.6,0.3 -1.5999999,0.3 h -0.7 l -0.4,0.1 h -0.4 l -0.5,0.2 -0.4,0.2 -0.1,0.2 -0.1,0.1 0.1,0.2 -0.1,0.1 v 0.2 l -0.1,0.3 -0.1,0.1 -0.2,0.1 -0.2,0.2 h -0.2 l -0.1,-0.1 -0.1,-0.1 v -0.2 -0.1 h -0.1 l -0.1,-0.2 -0.1,-0.1 h -0.2 L 1.7,163.99775 H 1.6 l -0.1,0.1 -0.2,0.1 H 1.2 l -0.20000004,0.3 -0.1,0.1 v 0.2 l -0.1,0.2 v 0.1 l 0.1,0.2 0.1,0.3 0.20000004,0.2 0.1,0.3 0.2,0.2 0.2,0.2 0.1,0.2 0.1,0.2 v 0.2 0.2 l -0.1,0.1 -0.1,0.2 -0.4000133,0.6 -0.1999867,0.3 -0.10000004,0.3 -0.1,0.4 -0.1,0.2 v 0.4 l 0.1,0.3 v 0.3 0.2 l -0.2,0.2 -0.39999997,0.4 -0.19999999,0.2 -0.1,0.1 v 0.2 l 0.19999999,0.4 0.2,0.2 h 0.1 H 1.6 l 0.5,-0.2 h 0.4 l 0.5,0.1 0.1,0.3 0.1,0.1 0.3,0.4 -0.1,0.1 0.1,0.1 0.1,0.1 v 0.2 l -0.1,0.2 -0.4,0.4 -0.2,0.3 -0.2,0.1 v 0.1 0.3 l 0.2,0.3 0.3,0.4 0.1,0.3 v 0.1 l 0.2,0.1 v 0.2 0.1 l -0.1,0.2 -0.2,0.3 -0.1,0.2 -0.2,0.1 0.1,0.1 0.1,0.1 0.1,0.1 0.1,0.1 0.1,-0.1 h 0.2999999 0.3 l 0.2,-0.2 0.1,-0.1 0.1,-0.3 0.2,-0.3 0.1,-0.1 h 0.1 0.2 l 0.1,0.1 0.1,0.1 v 0.2 h -0.1 l -0.1,0.1 -0.2,0.5 -0.1999866,0.5 0.1,0.3 v 0.2 0.4 0.7 l 0.1999866,0.8 -0.5,0.6 -0.1999866,0.9 0.4,0.2 0.8999999,-0.2 h 0.4 l 0.6,0.1 0.3,0.2 h 0.3 l 0.2,-0.4 0.3,-0.5 0.4,-0.5 0.6,-0.1 0.5999999,-0.2 0.5000004,0.1 0.6999995,0.5 0.3,0.4 h 0.2 l 0.8,-0.2 0.7,-0.3 0.4,-0.2 0.8,0.1 h 0.3 l 0.2,0.3 0.2,0.2 -0.1,0.6 -0.4,0.8 -0.2,0.5 -0.1,0.9 -0.2,0.5 0.1,0.2 v 0.1 l 0.3,0.1 0.5,-0.2 h 0.4 l 0.2,0.2 0.2,0.5 v 0.8 0.5 l -0.3,0.3 -0.2,0.7 v 0.5 l 0.2,0.3 0.4,0.2 0.8,0.6 0.4,0.3 0.3,0.3 v 0.4 l -0.1,0.3 -0.2,0.3 -0.1,0.6 0.4,0.4 0.5,0.4 h 0.4 l 0.3,0.1 0.2,-0.2 v -0.3 l 0.1,-0.2 0.2,-0.2 0.3,0.1 0.399999,0.3 0.6,0.4 0.3,0.2 0.2,0.2 0.2,0.1 0.2,0.3 0.1,0.3 -0.2,0.3 -0.2,0.6 -0.1,0.2 -0.2,0.1 -0.1,0.1 -0.999999,0.2 -0.8,0.3 -0.2,0.1 -0.2,0.4 -0.3,0.2 -0.4,0.1 -0.1,0.2 0.1,0.1 v 0.2 l 0.1,0.2 0.5,0.3 0.4,0.2 0.4,0.4 0.2,0.2 v 0.1 l -0.1,0.2 -0.1,0.1 -0.1,0.1 v 0.1 l 0.1,0.1 0.3,0.2 0.399999,0.3 0.2,0.2 0.1,0.2 0.2,0.2 v 0.2 l -0.1,0.2 -0.3,0.4 -0.2,0.1 h -0.299999 -0.1 -0.2 l -0.1,0.1 v 0.1 0.1 l 0.1,0.1 0.1,0.2 0.2,0.2 0.1,0.2 v 0.3 l 0.1,0.2 0.399999,0.2 0.2,0.3 0.1,0.1 -0.1,0.2 -0.2,0.1 -0.1,0.1 -0.1,0.2 v 0.1 l -0.1,0.1 -0.199999,0.1 h -0.8 -0.3 l -0.2,0.1 -0.1,0.1 -0.1,0.3 -0.1,0.3 0.1,0.2 0.1,0.1 0.1,0.2 v 0.1 0.3 l -0.1,0.1 h -0.1 l -0.3,0.1 -0.6,0.1 h -0.5 l -0.4,0.2 -0.2,0.1 -0.2,0.1 -0.1,0.4 -0.1,0.1 v 0.2 l 0.1,0.1 0.2,0.1 0.3,0.2 0.2,0.1 0.2,0.2 0.1,0.3 0.1,0.2 0.2,0.3 0.3,0.1 0.2,0.1 0.2,0.2 v 0.1 0.4 0.2 l 0.1,0.2 v 0.3 l -0.1,0.3 0.1,0.4 0.1,0.2 0.1,0.2 0.1,0.1 0.2,-0.1 0.3,-0.2 0.2,-0.2 0.2,-0.1 h 0.1 l 0.1,0.2 0.1,0.3 v 0.3 l -0.1,0.1 -0.1,0.1 -0.3,-0.1 h -0.2 -0.1 -0.2 v 0.2 0.2 0.2 l -0.1,0.1 -0.2,0.1 -0.4,0.1 -0.5,0.3 -0.3,0.3 -0.2,0.1 -0.1,0.1 -0.1,0.2 v 0.2 l 0.1,0.2 h 0.1 0.1 l 0.2,-0.1 0.2,-0.2 0.4,-0.1 h 0.3 0.1 l 0.1,0.1 v 0.1 0.2 l -0.1,0.1 -0.1,0.2 -0.2,0.3 -0.1,0.2 v 0.2 0.2 l -0.1,0.2 v 0.2 0.1 l -0.1,0.1 h -0.1 l -0.2,-0.1 -0.1,-0.2 -0.2,-0.1 -0.1,0.1 h -0.1 v 0.1 0.1 l 0.1,0.1 0.1,0.1 0.1,0.1 v 0.1 l 0.1,0.3 0.2,0.2 1,0.7 0.3,0.3 h 0.1 0.6 l 0.3,0.2 0.1,0.1 v 0.5 l 0.1,0.3 h 0.1 l 0.1,0.1 0.2,-0.3 0.2,-0.1 h 0.1 0.1 l 0.2,0.1 v 0.1 0.2 l -0.2,0.3 -0.1,0.2 v 0.2 0.3 l 0.1,0.1 0.1,0.2 0.6,0.3 0.2,0.1 0.2,0.1 0.3,0.3 0.2,0.1 0.1,0.1 0.1,0.2 0.4,0.4 0.1,0.1 h 0.1 l 0.4,-0.2 h 0.1 l 0.2,-0.1 0.1,0.1 v 0.2 l 0.1,0.2 v 0.4 l 0.1,0.4 v 0.1 l 0.2,0.1 0.3,0.1 0.2,0.1 0.2,0.2 0.2,0.1 0.1,0.2 -0.2,0.3 -0.4,0.3 -0.7,0.6 -0.4,0.7 -0.1,0.4 0.7,0.8 0.5,0.5 0.2,0.4 -0.2,0.2 -0.3,0.2 0.4,1 -0.1,0.3 0.5,0.5 0.2,0.4 -0.3,0.4 0.5,1.4 v 0.1 l -0.3,0.2 h -0.4 v 0.5 l 0.2,0.6 -0.1,1.1 -0.3,0.9 -0.3,0.7 -0.3,0.3 v 0.5 l -0.5,0.2 0.6,0.9 -0.9,0.5 h -0.6 v 0.5 l -0.2,1.1 -0.1,0.5 0.5,0.3 0.5,0.1 0.1,0.2 v 0.1 l 0.2,0.2 0.2,0.1 0.1,0.1 0.2,0.1 0.2,0.1 v -0.1 l 0.1,-0.1 0.1,-0.1 0.1,0.1 0.1,0.1 v 0.1 l 0.1,0.2 0.1,0.1 0.4,0.2 0.2,0.5 0.2,0.3 0.1,0.2 v 0.4 l 0.1,0.3 0.1,0.2 0.2,0.1 0.3,0.2 0.1,0.2 0.2,0.2 0.2,0.1 v 0.3 l 0.1,0.2 0.1,0.2 0.3,0.1 h 0.5 l 0.4,-0.2 0.2,0.1 0.6,-0.2 0.2,0.1 0.1,0.2 0.2,0.2 0.1,0.3 0.1,0.2 h 0.1 l 0.1,0.1 v 0.2 0.4 0.2 l 0.1,0.3 0.1,0.1 0.1,0.1 -0.1,0.2 -0.1,0.4 -0.4,0.6 -0.2,0.8 -0.7,0.9 -0.1,1.3 0.3,0.8 v 0.7 l 0.3,0.9 0.2,0.6 0.2,0.2 0.3,0.9 0.7,0.8 7.7,-4.1 9.2,-2.8 14.299999,-4.6 8.5,-2.4 12.4,-4.1 4.100013,-1 6,-1.5 7.299986,-2 z"
      data-name="Bate-Pé" id="bate-pe" />
   <path class="neighborhood"
      d="m 132.83298,195.1618 4.55254,-1.99277 3.51498,-3.82535 1.58527,-3.28141 -0.50061,-6.38716 -1.25159,-8.32322 -0.15019,-1.30656 -3.85489,-2.56487 -2.8536,-5.5654 -2.85361,-5.32367 -1.40178,-3.53309 -2.70341,-4.50121 -1.00127,-2.56532 -1.25157,-2.32331 -0.95123,-1.30691 -0.57152,-1.53094 -0.3982,-1.24951 -0.51808,0.68259 -1.46705,0.77137 -2.35008,2.16228 -0.0609,0.45917 -0.18048,0.74506 -1.21711,0.23134 -0.47945,0.58788 -0.6114,2.29751 -0.10774,0.22364 -0.35952,0.1316 -1.286,0.27725 -0.7166,0.67127 -0.76488,0.69253 -0.82148,0.31948 -0.82544,0.54234 -0.55737,1.72012 -0.6126,0.47284 -0.68397,0.005 -0.95846,-0.89904 -1.07684,-0.0824 -0.78986,0.32248 -1.49758,0.5164 -1.28897,0.88721 -1.38483,0.75195 -0.76384,0.14015 -0.5433,0.0307 -0.53498,0.42252 -0.19732,0.85796 -0.575939,0.90366 -0.708097,0.3651 -0.59484,-0.0821 -0.7742,-0.43119 -1.16136,-0.4016 -0.74108,-0.13934 -0.486293,-0.0523 -0.36908,-0.14561 -0.367347,-0.6211 -0.94376,-1.38269 -1.976107,-0.77625 -0.94628,-0.33748 -1.07488,-0.33271 -1.340866,-0.16112 -0.643627,0.0223 -0.4928,0.21146 -0.24524,0.45015 -0.297547,0.33967 -0.358786,0.4016 -0.62312,0.24644 -0.775613,0.20893 -0.195894,0.28237 -0.09067,0.44539 0.008,0.52371 0.30788,0.59449 0.191866,0.27227 0.239734,0.44848 0.01693,0.33213 -0.0192,0.65828 -0.126,0.39585 -0.363093,0.31392 -0.77516,0.24283 -0.7046,0.45372 -0.4412,0.5818 -0.6326,0.72109 -0.462614,0.31943 -0.316386,-0.0745 -0.430334,-0.28818 -0.407813,-0.48969 -0.384467,-0.0969 -0.56652,0.0639 -0.774186,0.54767 -1.181867,0.57405 -1.463333,0.102 -2.17164,1.08931 1.812573,2.08253 1.484693,1.16796 0.707814,0.89428 0.44108,1.78574 0.524,1.4234 -0.121734,2.22124 0.21828,1.60352 -0.30884,1.66048 -0.35024,3.28692 -1.212213,4.10088 -1.77672,1.11941 -0.135093,2.42523 -0.07173,1.72765 -1.66536,1.53693 -2.219693,1.77217 -0.9072,1.23118 -0.447746,0.22346 -0.787507,0.67196 -0.250933,1.51096 -0.405627,0.3989 -0.01507,0.0875 -0.02653,0.15371 -1.193427,0.25524 -1.138773,0.83945 -0.289547,0.78344 1.41292,1.23876 0.274094,0.23036 0.223866,0.22831 1.216014,0.18657 2.374093,1.21244 2.219693,-0.57824 1.899453,-9.6e-4 2.971467,2.7989 2.332027,1.01776 1.880653,3.38037 0.72316,3.80368 2.244867,2.79845 0.234679,2.87199 1.708094,3.75352 0.05507,2.26267 6.164334,4.937 5.583613,2.13281 4.854875,3.32693 5.14364,-1.696 3.50598,-5.64568 2.85677,-3.26204 6.23281,-8.90841 4.2739,-5.55983 3.12765,-7.99224 1.84641,-1.74989 0.89159,-0.97255 0.32292,-0.53513 0.49832,-0.65743 0.0493,-0.24588 z"
      data-name="Pradoso" id="pradoso" />
   <path class="neighborhood"
      d="m 305.3064,0 -63.39407,21.47324 -0.2146,-1.898307 -1.64732,-1.684093 -3.65038,-3.03892 -1.90256,-0.808373 -2.3511,-0.479054 -1.96624,-1.539466 -2.10362,-2.1258544 -1.39366,-0.6871195 -63.61411,-2.9895066 -1.66024,-0.6937467 -2.56372,0.86308 -2.33501,0.6142133 -0.73006,1.7533333 -0.0339,0.8633602 0.1016,0.6775864 0.39522,1.202107 0.36132,3.650027 -0.68104,1.2264 -2.16441,0.401893 -3.19539,-0.46992 -2.28089,-0.90704 -2.99221,-0.6338 -2.55181,0.185773 -2.93928,1.619787 -1.21595,1.134067 -0.16935,0.273173 -1.21945,4.1962 -0.38419,0.784933 -1.35466,1.477053 -2.83414,1.660934 -1.82842,0.740333 -1.48832,0.16636 -1.9002,0.757173 -1.36427,0.228414 -0.91123,-0.004 -1.9561,-0.270414 -1.60048,-0.709146 -1.41712,-0.112934 -1.24836,0.887027 -1.27531,0.765107 -0.11707,0.4012 -0.0893,0.298346 -0.0416,0.137214 -0.13107,0.170026 -0.21117,0.1268 -0.17723,0.09093 -0.11866,0.0716 -0.20187,0.05813 -0.10787,0.07307 -0.0632,0.0067 -0.13412,-0.0268 -0.31748,-0.03733 -0.26512,0.05067 -0.19882,0.184973 -0.0647,0.101467 -0.0895,0.274426 0.012,0.195374 0.0323,0.320693 0.0909,0.32064 0.054,0.2476 0.0139,0.23416 0.19887,0.275933 0.15412,0.25352 0.0879,0.19388 0.0539,0.1402 -0.009,0.102934 -0.0479,0.117866 -0.0879,0.1864 -0.13716,0.33856 -0.0848,0.181934 -0.0309,0.125333 -0.0769,0.1312 -0.0231,0.08347 0.007,0.0708 0.0839,0.163373 0.1172,0.299773 0.009,0.134227 -0.24508,0.326613 -0.25432,0.372867 -0.16182,0.290813 -0.0401,0.111867 0.005,0.170026 0.17928,0.70868 0.0379,0.227267 0.0425,0.397467 0.0673,0.318626 0.0349,0.08107 0.0881,0.04613 0.33795,0.297827 0.23937,0.182667 0.38702,0.46016 0.42406,0.65144 1.09723,1.266866 0.26501,0.518067 -0.3605,0.673627 -1.3757,1.01156 -0.38832,1.202613 -0.15722,0.544733 -0.0593,0.691614 0.73564,1.49688 0.63594,1.004893 0.72561,0.462853 0.49291,0.276974 0.64138,0.117999 0.7527,0.0616 1.01248,0.220534 0.48233,0.210253 0.47159,0.38252 0.29702,0.4586 0.13254,0.451373 0.0636,0.64104 0.45584,1.179627 0.0901,0.41028 0.20584,0.5306 0.46211,0.42844 0.47704,0.26156 0.39753,0.348747 0.28627,0.466693 0.59536,1.081787 0.31638,0.56128 0.11134,0.55904 -0.18555,0.953866 -0.58307,0.91284 -0.0611,0.529174 0.0237,0.32356 0.0749,0.471413 0.38228,0.65272 0.50164,0.564213 0.4004,0.82256 0.0795,0.43936 0.0675,0.536627 0.03,0.623746 -0.0751,0.65272 0.14721,0.428894 0.0807,0.318453 -0.27449,1.32828 -0.28158,0.84124 -0.41762,0.85004 -0.28966,0.492667 -0.97593,0.554506 -0.47245,0.591974 -0.75907,0.247266 -0.72029,1.034014 0.19358,0.734253 0.0597,0.482853 6.9577,4.225507 2.18154,2.983586 4.62641,1.273414 4.66407,0.1092 6.05577,3.27452 1.73018,1.891933 3.27239,1.01868 3.12191,4.183906 5.52913,3.274294 5.56673,3.783506 5.71722,4.51092 7.8236,5.12916 7.93638,5.60182 4.77691,3.23735 2.21919,1.81865 7.56024,5.38315 7.41016,4.96652 3.20388,2.05152 4.58517,4.15868 0.0933,0.0845 2.59548,2.55883 1.54194,2.12976 2.15504,0.47497 4.1307,3.5785 3.99486,1.39592 2.31404,-1.24222 1.06734,-0.55692 105.64268,-55.133073 -17.47723,-16.915426 -2.76793,-3.975493 -0.59116,0.358053 -1.18124,-0.26456 -0.92032,-0.268867 -0.85157,-0.567026 -0.72184,-0.43384 -1.80471,-0.7724 -1.13745,-0.613747 -0.6453,-0.349133 -0.14768,-0.26984 -0.13669,-0.73012 0.11493,-0.513187 -0.0711,-0.634893 -0.10387,-0.428547 -0.39373,-0.58732 -0.28439,-0.60312 -0.52991,-1.290653 -0.21938,-0.756427 0.16238,-0.658453 0.40218,-1.07 0.0703,-0.4898 -0.3023,-0.722347 -0.56456,-0.68092 -0.48722,-0.84688 -0.74246,-1.8856 0.0309,-1.601346 0.23829,-1.300707 0.88772,-1.733506 0.41563,-1.67208 0.1272,-1.673814 -0.0725,-0.4798 -1.17664,-1.73816 -0.17958,-1.52148 0.3172,-1.77804 -0.16405,-0.730213 -0.50091,-1.425227 -0.43365,-0.65512 -0.42281,-0.368213 -0.46308,-0.309147 0.30133,-0.408959 0.75464,-0.793774 0.50313,-0.635013 0.34679,-0.628627 0.38057,-0.911346 0.0875,-0.30168 0.0601,-0.206347 0.0437,-0.31224 0.0273,-1.148373 -0.13561,-0.677014 -0.6037,-1.289386 -0.85228,-1.35604 -0.26914,-1.271 0.0309,-1.54928 0.19841,-0.927374 0.3654,-1.519693 0.3719,-0.666906 0.53589,-0.635067 0.39379,-1.206693 0.0419,-0.48148 -0.0553,-0.480494 -0.27071,-1.010466 -0.33253,-1.0704 -0.30167,-0.651147 -0.5336,-0.254507 -0.71154,-0.411706 -0.22427,-0.38172 -0.22267,-0.580307 -1.03793,-2.296573 -0.58008,-1.339894 -0.42372,-1.2449199 -0.24427,-1.02 -0.0984,-0.71988 -0.36092,-0.8045199 -0.50313,-0.9527734 -0.41563,-0.7727999 -0.14216,-0.66696 -0.0953,-0.8650933 0.30939,-0.8234267 0.34028,-0.6737333 0.0153,-0.98811995 0.19744,-0.47491998 z"
      data-name="José Gonçalves" id="jose_goncalves" />
   <path class="neighborhood"
      d="m 237.14537,153.13615 0.0167,0.45343 0.0443,0.39983 0.14956,0.5125 -0.0209,0.17164 -0.0757,0.18427 0.11227,0.17924 0.24019,0.3736 -0.0133,0.48969 0.0496,0.40384 0.0323,0.0748 0.08,0.18527 0.25331,0.23473 0.39688,0.24236 0.28197,0.24739 0.12267,0.28771 v 0.16158 l 0.005,0.1363 0.11227,0.21962 0.15174,0.25599 0.19262,0.10067 0.1256,0.0573 0.20104,0.0656 0.16188,0.16659 0.1868,0.0873 0.0247,0.0529 -0.012,0.0388 -0.11986,0.0727 -0.0428,0.0241 -0.0517,0.0444 -0.0348,0.1852 0.0605,0.098 0.29242,0.12107 0.20566,0.10627 0.0385,0.0156 0.012,0.0432 0.003,0.11693 -0.0333,0.1152 -0.003,0.0563 0.0788,0.0459 0.1212,-0.0835 0.0581,-0.0401 0.21916,-0.0136 0.1686,0.0625 v 0.18744 l -0.0825,0.11973 -0.13107,0.18997 -0.0687,0.21536 0.0737,0.12174 0.25466,0.39866 0.40999,0.5306 0.32897,0.56543 0.23503,0.44929 0.24541,0.37356 0.33518,0.37207 -0.0167,0.58708 0.28719,0.5452 0.44522,1.02019 0.8714,1.06505 1.11176,2.15384 0.6144,1.09084 0.84026,1.80259 0.0477,0.10146 0.14584,0.23272 0.69551,1.10982 1.60992,1.60181 2.30416,0.83065 0.85232,0.20159 0.92301,0.21829 2.45528,0.36512 1.64312,-0.0821 0.92548,-0.13693 0.42493,-0.0181 0.1983,0.10947 0.43441,0.40161 0.27635,0.0799 0.66126,0.19119 0.17175,0.0243 0.0572,0.0257 0.0465,0.0365 0.0377,-0.0212 0.16848,-0.0261 0.33052,-0.0429 0.79746,-0.10946 0.62484,-0.0763 h 0.31219 l 0.52083,0.11133 0.36724,0.12267 0.4117,0.42969 -0.0601,0.58095 -0.22703,0.65184 0.10014,0.45825 0.40734,0.0452 0.40063,-0.3808 0.76125,-0.56794 0.54083,-0.65835 0.1136,-1.05851 0.60099,-1.16176 0.6811,-0.72292 0.5275,-0.3485 0.88813,-0.54222 1.20859,-1.00689 1.44234,-1.05208 1.3622,-1.20697 1.20192,-1.45879 2.10782,-2.06191 0.92444,-0.92886 0.43401,-0.67132 0.64817,-1.78231 0.82159,-1.31455 0.93489,-0.91284 1.24652,-1.2872 1.45424,-0.68465 1.60537,-0.29213 1.20878,0.10946 1.47313,0.58427 1.39765,0.71207 0.28042,-0.1406 0.0691,0.0145 0.16216,0.12867 0.4578,0.19237 0.14164,0.0617 0.17468,0.26242 0.17072,0.3061 0.27708,0.12907 0.43407,0.15492 0.40063,0.16784 0.44073,0.10653 0.41073,0.0225 0.20876,0.0509 0.22146,0.0547 82.51788,-41.24595 -27.43111,-26.358062 -6.13617,-5.938386 -105.64268,55.133078 -1.06735,0.55692 -2.31404,1.24221 0.25076,0.41976 0.41362,0.53911 0.16244,0.23565 0.32892,0.61293 0.34724,0.55739 0.1976,0.17669 0.28248,0.17676 0.124,0.1983 0.0496,0.18934 -0.10187,0.31552 v 0.26 l 0.1308,0.4123 0.0287,0.37862 0.11493,0.32316 0.14883,0.23979 0.20364,0.23225 0.42298,0.17164 0.28984,0.058 0.31862,0.21819 0.13832,0.15841 0.3701,0.18814 0.14418,0.0819 0.47636,0.81739 0.24564,0.37483 0.009,0.19072 -0.0753,0.2006 0.003,0.0568 0.003,0.0517 z"
      data-name="São Sebastião" id="sao_sebastiao" />
   <path class="neighborhood"
      d="m 260.24057,298.54958 0.0723,0.0411 0.2156,0.0772 0.12827,0.0297 0.32719,0.11346 0.17577,0.10587 0.0869,-0.009 0.0813,10e-4 0.1228,-0.0347 0.11146,-0.0328 0.0945,0.004 0.0737,0.0712 0.0265,0.0931 0.0151,0.1168 -0.0245,0.10947 -0.0709,0.0819 -0.0535,0.14195 0.0375,0.15485 0.0695,0.0981 0.0749,0.12133 0.12014,0.24416 0.32914,0.53341 0.13607,0.2117 0.14745,0.16789 0.12707,0.10173 0.10013,0.0133 0.12854,-0.0511 0.0756,-0.0456 0.0907,-0.1004 0.0548,-0.1004 0.0756,-0.0711 0.0661,-0.0511 0.0605,-0.0309 0.0548,0.0201 0.0415,0.0275 0.0804,-0.0203 0.0628,-0.0439 0.0641,-0.0659 0.0801,-0.0671 0.0735,-0.0361 0.15331,-0.0419 0.15233,0.008 0.0775,0.0168 0.13906,10e-4 0.21168,-0.0437 0.22302,0.0329 0.14549,0.0133 0.16635,-0.0147 0.14596,-0.005 0.18709,0.0619 0.15773,0.0645 0.0895,0.0168 0.0253,0.0141 0.0288,0.0345 -0.0361,0.0479 -0.0275,0.0544 0.008,0.30966 -0.0133,0.2426 -0.001,0.22646 -0.005,0.28208 0.005,0.28392 0.0401,0.2168 0.0729,0.142 0.016,0.23484 -0.0213,0.098 0.012,0.1856 0.0428,0.0903 0.12027,0.0309 0.16572,0.0852 0.15767,0.0257 0.18974,-0.003 0.16842,-0.0929 0.21646,-0.1316 0.15716,-0.0707 0.17578,-0.0511 0.1606,0.042 0.12093,0.0383 0.14176,-0.0107 0.14751,0.003 0.29093,0.12894 0.21467,0.0311 0.43469,-0.15032 0.23617,0.0571 0.0805,0.1244 -0.0268,0.33167 0.18784,0.22284 0.20393,0.13992 0.14491,0.0881 0.19853,0.15543 0.1288,0.0777 0.20395,0.0311 0.1664,0.005 0.30053,0.13992 0.31127,0.1088 0.27374,0.0725 h 0.36495 l 0.28443,-0.0725 0.30593,-0.14511 0.19319,-0.17617 0.15565,-0.15549 0.0739,-0.0225 0.12466,0.012 0.118,0.0881 0.13419,0.0881 0.0753,0.1024 0.0508,-0.0657 0.0633,-0.0461 0.13894,-0.0861 0.13254,-0.0803 0.0617,-0.1072 0.0215,-0.13093 0.0495,-0.14291 0.0461,-0.27678 -0.009,-0.28278 -0.005,-0.1706 0.0241,-0.15285 -0.0187,-0.16324 -0.0913,-0.15292 -0.21738,-0.0933 -0.0697,-0.0621 -0.0376,-0.0881 0.0335,-0.0853 0.0337,-0.0545 0.0992,-0.0311 0.0637,-0.0249 0.0432,-0.0349 -0.028,-0.1072 -0.0525,-0.19544 -0.046,-0.10933 0.003,-0.19658 0.0549,-0.15216 0.0975,-0.0513 0.18589,-0.14871 0.18588,-0.21025 0.10094,-0.16416 0.10453,-0.0495 0.11693,0.0256 0.15578,0.11627 0.1116,0.0975 0.21244,0.0325 0.13106,-0.012 0.21956,-0.0479 0.16998,-0.13509 -0.004,-0.20681 0.10626,-0.16928 0.0619,-0.0171 0.0921,0.0444 0.0815,0.0837 0.0372,0.0376 0.11333,-0.0153 0.0901,-0.0521 0.0287,-0.0265 0.0265,-0.0769 -0.0601,-0.0651 -0.12746,-0.0633 -0.0849,-0.0837 -1.82182,-1.28324 0.15728,-2.37002 -1.5663,-0.28517 -0.4809,-1.06856 -1.80016,-1.51516 -0.25278,-1.11327 -1.0085,-1.58089 -0.0253,-1.56411 -1.03718,-2.14693 0.16969,-4.11824 0.26724,-0.61427 0.20739,-0.21846 0.45233,-0.30335 0.333,-0.13956 0.34552,-0.0547 0.007,-0.18808 0.25133,-0.0729 0.56543,-0.17595 0.37068,-0.3519 0.044,-0.29731 -0.0251,-0.50968 0.7112,-1.36139 1.16303,-0.98386 0.86594,-1.1643 0.67915,-0.8691 0.16129,-1.41844 0.0643,-0.8979 -0.22921,-0.76252 -1.97675,-1.53986 -1.65845,-2.04068 -2.61751,-0.24319 -16.76757,-7.94345 0.0517,-0.33236 0.25501,-0.24628 0.2314,-0.0456 0.38252,-0.17791 0.15584,-0.0959 0.0188,-0.1779 -0.0519,-0.20524 -0.16998,-0.14143 -0.0567,-0.37855 0.20302,-0.44706 0.0189,-0.35119 -0.33058,-0.19159 0.0472,-0.17336 0.10387,-0.13682 0.30373,0.0151 0.3873,-0.43217 0.22042,-0.41287 0.14694,-0.46446 0.23282,-0.37426 0.37735,-0.28057 0.34725,-0.24192 0.10694,-0.0773 0.29048,-0.0677 0.30385,0.0225 0.41075,0.0709 0.18364,-0.0612 0.0939,-0.1982 0.0897,-0.28281 0.0803,-0.31019 -0.0803,-0.33512 -0.24043,-0.47739 -0.1068,-0.2064 -0.0201,-0.14837 0.0635,-0.19031 0.1232,-0.16549 0.40068,-0.16129 0.31392,-0.2064 0.0795,-0.20871 -0.20307,-0.27368 -0.0661,-0.30564 0.11333,-0.25088 0.33052,-0.0548 0.22668,-0.2372 0.16711,-0.0457 0.0588,0.0245 0.16135,0.003 0.2361,-0.10494 0.10867,-0.27368 0.1228,-0.219 0.0849,-0.37861 0.18888,-0.29196 0.3778,-0.0684 0.42971,-0.24175 0.15113,-0.0137 0.25024,-0.0228 0.24559,-0.0456 0.15584,-0.17791 0.17469,-0.18704 0.009,-0.25088 -0.0472,-0.14141 -0.13227,-0.0867 h -0.39193 l -0.3164,-0.0913 -0.26915,-0.0547 -0.11813,-0.1232 -0.13694,-0.32386 0.118,-0.28742 0.2314,-0.34668 0.16526,-0.16422 0.22669,-0.0365 0.21249,0.0775 0.15584,0.0593 0.11814,-0.0365 0.33529,-0.61128 0.20777,-0.18244 0.23611,-0.25093 0.0851,-0.0821 0.2314,-0.26461 0.31168,-0.12773 0.26444,-0.0684 0.118,-0.21444 0.0519,-0.28284 -0.0849,-0.25547 0.0565,-0.26455 0.0965,-0.16658 0.10186,-0.1756 0.0236,-0.2372 -0.0851,-0.32392 0.0915,-0.283 0.0884,-0.11414 0.0457,-0.1216 -0.0345,-0.16784 0.0752,-0.26077 -0.10826,-0.1144 -0.106,-0.0421 -0.20778,-0.20986 -0.0236,-0.35585 0.14635,-0.36955 0.19365,-0.19157 0.27858,-0.29656 0.38722,-0.18704 0.18416,-0.1232 0.19836,-0.21892 0.0188,-0.12773 -0.13226,-0.0913 -0.31639,-0.0867 -0.2168,-0.0547 -0.18365,-0.1032 -0.14692,-0.13549 -0.0535,-0.26134 0.0568,-0.14837 0.31725,-0.0968 0.36396,0.0227 0.32052,-0.042 0.17364,-0.20002 0.1036,-0.17417 0.13014,-0.19359 -0.0175,-0.15572 -0.02,-0.3 0.20031,-0.0871 0.26714,-0.18708 0.09,-0.11627 0.23611,-0.33305 -0.0567,-0.16878 -0.21249,-0.12773 -0.0355,-0.13227 0.11334,-0.26914 -0.0756,-0.21215 -0.005,-0.2418 0.1052,-0.12733 0.10014,-0.16612 0.0107,-0.1276 -0.19593,-0.17112 -0.1012,-0.21278 -0.13463,-0.11626 -0.17704,-0.3011 10e-4,-0.22129 0.10866,-0.19617 0.0709,-0.17566 -0.26208,-0.19618 -0.13699,-0.114 0.0213,-0.14372 0.0921,-0.11174 -0.009,-0.0959 -0.16054,-0.0821 -0.31167,-0.0205 -0.13929,0.12093 -0.11094,0.17338 -0.0872,-0.0227 -0.1336,-0.0321 -0.0167,-0.0711 -0.0333,-0.14187 0.05,-0.22254 -0.10013,-0.14522 -0.31387,-0.2484 -0.1336,0.0107 -0.21037,-0.0581 -0.0968,-0.23875 0.0263,-0.13371 0.0239,-0.12106 0.19364,-0.1871 0.28054,-0.13549 0.35321,-0.25669 0.21871,-0.20651 0.24713,-0.0952 0.27812,-0.0556 0.14756,-0.0651 0.20537,-0.26984 0.10214,-0.18624 0.13026,-0.30322 0.0567,-0.42907 -0.0535,-0.15164 -0.0768,-0.19037 -0.16693,-0.1871 -0.1036,-0.24518 0.0367,-0.2484 0.10693,-0.1678 0.23043,-0.17744 -0.003,-0.14515 0.0601,-0.10973 0.17366,-0.0387 0.28277,0.0473 0.0645,0.0107 0.33724,-0.0871 0.0535,-0.16777 -0.0233,-0.28065 0.20704,-0.1032 0.2003,-0.12574 0.2738,-0.23232 -0.0495,-0.1184 0.0107,-0.066 0.1016,-0.0737 -0.0152,-0.37144 -0.21369,-0.50973 -0.0968,-0.30972 -0.17699,-0.22262 -0.2037,-0.0484 -0.18364,-0.40654 0.12026,-0.23875 0.32724,-0.0775 0.45744,-0.11933 0.3072,0.0355 0.48084,0.0677 0.19704,0.0193 0.39735,0.12267 0.39735,-0.0775 0.25714,-0.17421 0.18032,-0.14193 0.0733,-0.22262 -0.0568,-0.28069 -0.1374,-0.19819 -0.25622,-0.31564 -0.11573,-0.0821 -0.14405,-0.20307 0.0589,-0.12093 0.0272,-0.012 0.29869,-0.13173 0.14164,-0.11867 0.26915,-0.17789 0.11333,-0.33311 -0.0613,-0.32397 -0.24083,-0.36954 -0.0756,-0.46084 -0.26444,-0.28289 -0.17945,-0.0501 -0.31637,-0.0548 -0.0861,-0.20043 -0.0353,-0.16251 -0.1032,-0.14738 -0.11067,-0.0463 -0.25496,-0.0867 -0.19836,-0.10493 0.0379,-0.2738 0.20777,-0.28743 0.17004,-0.25098 -0.005,-0.25548 -0.12747,-0.21904 -0.24845,-0.18968 -0.13093,-0.22416 -0.0787,-0.30375 -0.13093,-0.0868 -0.25823,-0.17359 -0.36656,-0.124 -0.23288,-0.1176 -0.10053,-0.31196 -0.0956,-0.34126 -0.12707,-0.22243 -0.13497,-0.12027 0.0159,-0.1432 0.0277,-0.0368 0.1204,-0.007 0.26462,-0.0357 0.3149,-0.0357 0.20376,-0.17129 0.082,-0.19946 -0.0319,-0.21226 0.0107,-0.22755 -0.12174,-0.35029 -0.0767,-0.18668 -0.0741,-0.24032 -0.0107,-0.19432 0.0159,-0.1304 0.14292,-0.12014 0.15956,0.0145 0.2317,-0.14694 0.11946,-0.1084 0.0501,-0.15078 0.15382,-0.15744 0.11947,-0.29904 0.0428,-0.16996 0.26427,-0.18194 0.22444,-0.18186 0.0905,-0.21686 -0.17739,-0.21342 0.15206,-0.12587 0.14117,-0.23088 0.10493,-0.19239 -0.0471,-0.15393 -0.14842,-0.11533 -0.23284,-0.21704 -0.28409,-0.38832 -0.34045,-0.28196 -0.0795,-0.0791 0.0359,-0.20284 0.0768,-0.26713 -0.0537,-0.094 -0.16026,-0.23456 -10e-4,-0.189 0.008,-0.25312 -0.0857,-0.0507 -0.0299,-0.13027 0.0999,-0.16014 -0.005,-0.32454 -0.10414,-0.0364 -0.0917,0.0143 -0.20548,0.0549 -0.0545,0.10774 -0.0693,0.10053 -0.17084,-0.17468 -0.43825,-0.13636 -0.46797,-0.36609 -0.0867,0.25364 -0.20548,-0.0717 -0.0695,-0.17704 -0.007,-0.20817 0.1164,-0.19619 0.22037,-0.15789 -0.12373,-0.21779 0.0347,-0.19376 -0.19065,-0.0981 -0.14853,0.0168 -0.2922,0.0383 -0.0693,-0.1651 -0.0495,-0.27753 -0.2699,-0.20341 -0.22782,-0.21538 0.0173,-0.20577 0.1312,-0.27512 0.11147,-0.268 0.0595,-0.17228 -0.0471,-0.15313 -0.0445,0.005 -0.0991,0.13636 -0.084,-0.0133 -0.218,-0.0139 -0.14608,-0.0717 -0.15571,-0.24071 -0.12213,-0.11573 -0.0551,-0.1597 0.0479,-0.0833 0.17002,-0.1088 0.0407,-0.0533 -0.0407,-0.118 -0.11733,-0.0695 -0.10773,-0.16663 -0.0719,-0.12266 -0.10533,-0.1064 0.003,-0.11334 -0.003,-0.1736 -0.15566,-0.0833 -0.10533,-0.16433 -0.0287,-0.26151 0.10534,-0.22916 0.0144,-0.27777 -0.007,-0.20135 -0.0201,-0.13447 -0.0839,-0.44441 -0.0304,-0.23765 0.0385,-0.17262 -0.0491,-0.17514 -0.0627,-0.11294 -0.008,-0.15061 0.0187,-0.132 -0.0107,-0.0983 -0.0257,-0.0397 -0.0551,-0.118 0.0336,-0.10653 0.10827,-0.0889 0.0427,-0.0685 0.32575,-0.22221 0.37603,-0.0995 0.18681,-0.0371 0.13893,-0.11346 0.12934,-0.21986 0.15089,-0.14584 0.19157,0.0556 0.31139,0.21756 0.23956,-0.0995 0.14371,-0.21756 0.15566,-0.26156 0.21796,-0.0301 0.13894,-0.15042 0.0717,-0.21992 0.0859,-0.48434 -0.0299,-0.20254 0.0596,-0.17947 0.0805,-0.0425 0.0177,-0.0565 -0.0107,-0.20124 -0.0599,-0.16898 -0.0259,-0.11534 0.0575,-0.0821 0.16768,-0.0695 0.0767,-0.27548 0.007,-0.12693 0.0517,-0.32523 -0.0168,-0.24537 0.16525,-0.25 -0.0503,-0.42592 -0.0555,-0.30047 0.0831,-0.21444 0.1292,-0.16577 0.0583,-0.22221 -0.0187,-0.10067 -0.0192,-0.044 -0.0251,-0.14985 -0.0359,-0.1921 -0.0863,-0.17825 -0.22066,-0.2102 -0.0376,-0.0375 -0.12933,-0.20829 0.0621,-0.22685 0.2649,-0.47287 0.17618,-0.21932 0.18628,-0.15711 0.16596,-0.13422 0.23984,-0.122 0.49826,-0.29168 0.31614,-0.25462 0.10534,-0.15278 0.18202,-0.412 0.0527,-0.79632 0.0767,-0.30558 0.24329,-0.2807 0.11973,-0.31558 -0.15686,-0.68362 2.2972,-1.08596 1.04706,-1.68984 0.42075,-1.20016 0.30788,-0.5356 0.0924,-0.55548 0.25656,-0.47607 0.30007,-0.6646 0.47382,-0.73642 0.1501,-0.47258 0.17416,-0.40682 0.41361,-0.63823 1.69477,-2.17332 2.51178,-3.03656 0.88256,-0.92256 0.23605,-0.56543 0.44131,-0.30748 0.63626,-0.85306 0.2976,-0.37695 0.20525,-0.44643 0.76218,-0.24834 0.21272,-0.5452 0.57473,-0.53567 0.57191,-0.55248 0.3446,-0.49245 0.2922,-0.46343 0.59932,-0.55037 0.48693,-0.78206 0.30715,-0.57933 0.6685,-0.56847 0.70242,-0.32949 0.6068,-0.16657 0.50192,-0.34035 1.01138,-0.92692 1.25854,-1.32524 1.31098,-0.8328 2.71042,-1.68316 -0.22146,-0.0547 -0.20876,-0.0509 -0.41074,-0.0225 -0.44072,-0.10654 -0.40064,-0.16784 -0.43406,-0.15492 -0.27708,-0.12906 -0.17072,-0.3061 -0.17468,-0.26242 -0.14165,-0.0617 -0.4578,-0.19238 -0.16215,-0.12867 -0.0691,-0.0145 -0.2804,0.14061 -1.39766,-0.71207 -1.47314,-0.58428 -1.20876,-0.10946 -1.60538,0.29214 -1.45424,0.68466 -1.24652,1.2872 -0.9349,0.91284 -0.82159,1.31454 -0.64817,1.7823 -0.434,0.67132 -0.92444,0.92888 -2.10783,2.06189 -1.20192,1.45879 -1.36218,1.20698 -1.44235,1.05207 -1.2086,1.00691 -0.88812,0.5422 -0.52751,0.34852 -0.68109,0.72292 -0.601,1.16176 -0.11347,1.0585 -0.54082,0.65834 -0.76127,0.56796 -0.40061,0.3808 -0.40736,-0.0452 -0.10014,-0.45826 0.22703,-0.65185 0.0601,-0.58093 -0.4117,-0.42971 -0.36724,-0.12267 -0.52084,-0.11133 H 262.529 l -0.62484,0.0763 -0.79745,0.10946 -0.33052,0.0429 -0.16848,0.0261 -0.0377,0.0212 -0.0465,-0.0367 -0.0572,-0.0257 -0.17176,-0.0243 -0.66127,-0.19117 -0.27633,-0.0799 -0.43441,-0.40161 -0.19831,-0.10947 -0.42492,0.0181 -0.92548,0.13693 -1.64313,0.0821 -2.45527,-0.3651 -0.92301,-0.21831 -0.85234,-0.20157 -2.30416,-0.83067 -1.6099,-1.6018 -0.69552,-1.10981 -0.14584,-0.23272 -0.0479,-0.1016 -0.84025,-1.80258 -0.61439,-1.09085 -1.11177,-2.15384 -0.8714,-1.06505 -0.44523,-1.02018 -0.28719,-0.5452 0.0167,-0.58709 -0.33517,-0.37205 -0.24542,-0.37356 -0.23502,-0.4493 -0.32896,-0.56542 -0.41,-0.5306 -0.25467,-0.39868 -0.0737,-0.12174 0.0687,-0.21537 0.13107,-0.18997 0.0825,-0.11974 v -0.18744 l -0.16858,-0.0625 -0.21916,0.0136 -0.0583,0.0401 -0.1212,0.0835 -0.0788,-0.0459 0.001,-0.0561 0.0335,-0.1152 -0.003,-0.11693 -0.012,-0.0432 -0.0385,-0.0156 -0.20564,-0.10627 -0.29244,-0.12107 -0.0605,-0.098 0.0348,-0.1852 0.0517,-0.0444 0.0428,-0.0243 0.11987,-0.0725 0.012,-0.0388 -0.0247,-0.0529 -0.18681,-0.0873 -0.16187,-0.16659 -0.20105,-0.0656 -0.1256,-0.0573 -0.1926,-0.10067 -0.15176,-0.25599 -0.11227,-0.21961 -0.005,-0.13631 v -0.16157 l -0.12267,-0.28772 -0.28197,-0.24737 -0.39688,-0.24238 -0.2533,-0.23473 -0.08,-0.18525 -0.0323,-0.0748 -0.0496,-0.40384 0.0133,-0.4897 -0.24019,-0.37361 -0.11226,-0.17923 0.0757,-0.18428 0.0209,-0.17164 -0.14957,-0.51249 -0.0443,-0.39983 -0.0167,-0.45342 -0.001,-0.0519 -0.003,-0.0568 0.0753,-0.2006 -0.009,-0.19071 -0.24566,-0.37484 -0.47634,-0.81738 -0.14419,-0.0819 -0.37011,-0.18813 -0.1383,-0.15842 -0.31863,-0.21818 -0.28984,-0.058 -0.42297,-0.17164 -0.20364,-0.23226 -0.14884,-0.23978 -0.11494,-0.32316 -0.0287,-0.37863 -0.1308,-0.41229 v -0.26 l 0.10186,-0.31552 -0.0496,-0.18935 -0.124,-0.19829 -0.28248,-0.17676 -0.19761,-0.1767 -0.34724,-0.55738 -0.32891,-0.61294 -0.16245,-0.23565 -0.41361,-0.53911 -0.25076,-0.41976 -3.99486,-1.39592 -4.1307,-3.57849 -2.15504,-0.47497 -1.54194,-2.12976 -2.59548,-2.55884 -0.0933,-0.0847 -4.58517,-4.15868 -3.20388,-2.05151 -7.41016,-4.96653 -7.56024,-5.38313 -2.21919,-1.81867 -4.77691,-3.23733 -7.93638,-5.60183 -7.8236,-5.12916 -5.71722,-4.510915 -5.56673,-3.78352 -5.52913,-3.27428 -3.12191,-4.18392 -3.27239,-1.01868 -1.73018,-1.89192 -6.05577,-3.27452 -4.66407,-0.1092 -4.62641,-1.273413 -2.18154,-2.983587 -6.9577,-4.225506 0.0725,67.379671 0.39821,1.24951 0.57152,1.53095 0.95123,1.3069 1.25156,2.32331 1.00128,2.56532 2.7034,4.50121 1.40179,3.5331 2.85361,5.32366 2.8536,5.5654 3.85488,2.56487 0.1502,1.30656 1.25159,8.32323 0.50061,6.38716 -1.58527,3.28141 -3.51498,3.82534 -4.55254,1.99278 -2.97829,15.54617 4.73473,8.38757 -1.77552,3.5265 3.34142,3.07362 4.17981,3.97895 5.32085,3.96584 10.72083,0.46987 1.92852,4.89741 1.43258,3.96577 0.799,2.07592 0.9918,2.74134 1.653,3.93882 2.15142,2.20614 5.36188,2.83856 9.3954,4.89172 9.72864,3.86172 4.99756,2.96049 1.4424,0.48331 2.65032,1.0978 9.75592,4.96825 9.66718,3.34067 1.95118,5.99573 3.10414,3.0834 6.20834,1.19912 4.4345,-1.11344 4.77743,3.09189 -0.0435,0.16739 0.0276,0.1598 0.0947,0.18641 0.13395,0.12934 0.31517,-0.0609 0.16549,0.0152 0.18514,0.17123 0.1694,0.26628 0.29081,0.26709 0.23445,0.2092 -0.0159,0.21498 -0.0645,0.19054 -0.0135,0.0955 0.0291,0.0311 0.0671,-0.007 0.23225,-0.11747 0.28135,-0.1076 0.21731,-0.003 0.15877,0.11293 0.19503,0.24213 0.20334,0.17487 0.12534,0.0241 0.42066,-0.0753 0.23123,-0.0565 0.29805,0.0753 0.24795,0.15068 0.15601,0.18025 0.10587,0.29323 -0.0167,0.29592 0.0641,0.28244 0.12253,0.13173 0.15319,0.0619 0.14209,-0.0431 0.12373,0.0269 0.2006,0.17222 0.16716,0.1775 0.31759,0.27444 0.0389,0.26364 0.14487,0.27437 0.2842,0.27439 0.43459,0.07 0.18388,0.0321 0.0947,0.40356 0.0613,0.21519 0.23398,0.26364 0.16715,0.30126 0.17831,0.30134 0.17273,0.0376 0.49141,-0.0133 0.22008,0.0621 0.39982,0.1088 0.1825,-0.0465 0.17974,-0.0727 0.19594,-0.0337 0.11267,0.0389 0.0752,0.114 0.14756,0.11653 0.17709,0.13992 -0.0161,0.0777 -0.0752,0.1192 -0.0617,0.0596 0.0188,0.0829 0.0564,0.0959 0.16636,0.1244 0.19053,0.0803 0.15831,-0.008 0.11,-0.0544 0.0349,-0.10107 0.0188,-0.15549 0.0403,-0.0285 0.0401,0.0107 0.0511,0.0621 0.102,0.0337 0.1798,0.0725 0.14492,0.0959 0.11533,0.15807 0.11533,0.18393 0.0832,0.0571 0.0724,0.0107 0.0855,-0.03 0.17692,-0.0805 0.124,-0.0177 0.0732,0.0392 0.0795,0.10613 0.0773,0.0707 0.14032,0.0295 0.13825,-0.0373 0.0549,0.001 0.12,-0.0375 0.0935,-10e-4 0.10774,0.0648 0.10773,0.0107 0.10987,-0.0157 0.0855,-0.0628 0.0529,-0.0845 0.0347,-0.0255 0.0813,-0.0392 0.31316,0.0392 0.20544,0.0845 0.21553,0.15709 0.21559,0.10054 0.3496,0.1204 0.40828,0.0307 0.25852,-0.0541 0.23512,0.0333 0.3319,0.13027 0.41838,0.0435 0.68805,-0.13694 0.42527,-0.10013 0.25928,-0.1402 0.17289,-0.13688 0.30427,-0.0901 0.51858,-0.0467 0.49791,-0.13688 0.35609,-0.0468 0.3596,0.0935 0.16939,-0.15022 0.19365,-0.0167 0.21778,-0.0668 0.18676,-0.0233 0.22817,0.0433 0.71488,0.15554 z"
      data-name="Sede" id="sede" />
</svg>