<?xml version="1.0" encoding="UTF-8" standalone="no"?>
<!-- Created with Inkscape (http://www.inkscape.org/) -->

<svg
   version="1.1"
   id="svg2"
   width="1064"
   height="561.33331"
   viewBox="0 0 1064 561.33331"
   sodipodi:docname="Boa_Vista-RR.svg"
   inkscape:version="1.2.2 (b0a8486541, 2022-12-01)"
   xmlns:inkscape="http://www.inkscape.org/namespaces/inkscape"
   xmlns:sodipodi="http://sodipodi.sourceforge.net/DTD/sodipodi-0.dtd"
   xmlns="http://www.w3.org/2000/svg"
   xmlns:svg="http://www.w3.org/2000/svg">
  <defs
     id="defs6" />
  <sodipodi:namedview
     id="namedview4"
     pagecolor="#505050"
     bordercolor="#eeeeee"
     borderopacity="1"
     inkscape:showpageshadow="0"
     inkscape:pageopacity="0"
     inkscape:pagecheckerboard="0"
     inkscape:deskcolor="#505050"
     showgrid="false"
     inkscape:zoom="0.83729219"
     inkscape:cx="533.26665"
     inkscape:cy="345.16027"
     inkscape:window-width="1366"
     inkscape:window-height="699"
     inkscape:window-x="0"
     inkscape:window-y="0"
     inkscape:window-maximized="1"
     inkscape:current-layer="svg2">
    <inkscape:page
       x="0"
       y="0"
       id="page8"
       width="1064"
       height="561.33331" />
  </sodipodi:namedview>
  <path
     d="M 0,1.07e-5 H 1064 V 562.00001 H 0 Z"
     style="fill:#ffffff;fill-opacity:1;fill-rule:nonzero;stroke:none"
     id="path22" />
  <path
     d="m 804.23966,475.73292 -1.54297,-2.67687 -3.65567,0.96799 -6.1932,2.12815 -16.94826,-19.15582 -2.48748,-1.43946 -4.20563,4.0808 -0.93647,0.78199 -2.76585,2.202 -0.60681,0.48971 -1.72804,1.38076 -3.43507,2.7606 -1.32576,1.06376 -6.23213,4.89586 -1.23463,1.03905 -1.93103,1.589 -3.74156,2.80417 -6.53059,5.22243 -1.22566,0.95439 -4.91223,3.82468 -3.60747,2.89469 -5.57157,4.40954 -3.42827,2.68058 -0.0726,0.0569 -7.8168,6.11287 -3.05875,2.46739 -1.11877,0.90249 -6.36436,5.0871 -0.58487,0.46747 0.90465,1.14996 0.15633,0.22276 2.22795,2.89655 3.98008,5.14673 3.70634,4.80132 0.24656,0.31761 1.88561,2.43125 2.15472,2.83506 0.40629,0.4551 0.42266,0.41402 5.88362,4.58967 1.79416,1.44039 2.6021,2.11486 1.76511,-1.41135 1.3094,-1.05944 0.95315,-0.803 1.16851,-0.94358 2.10899,-1.65975 4.40553,-3.54321 0.1483,-0.1276 6.2278,-4.97897 2.9086,-2.28047 4.24301,-3.33188 5.99021,-4.54425 5.48752,-4.68514 4.12685,-3.31921 1.36346,-1.05635 2.17542,-1.73329 -0.82957,-0.9269 -1.41753,-1.76758 -0.13193,-0.16437 -0.78663,-0.99394 -3.36308,-4.2495 -0.34974,-0.334 1.6511,-1.25316 1.63814,-1.2374 8.62567,-2.57955 7.66542,-5.49092 2.13803,1.39127 0.17611,-0.0207 0.13039,-0.0828 17.3632,-13.62041 z"
     style="fill:#987db7;fill-opacity:1;fill-rule:evenodd;stroke:#232323;stroke-width:0.982677;stroke-linecap:square;stroke-linejoin:bevel;stroke-miterlimit:10;stroke-dasharray:none;stroke-opacity:1"
     id="path26" />
  <path
     d="m 768.14084,496.13603 -1.63814,1.2374 -1.6511,1.25316 0.34974,0.334 3.36308,4.2495 0.78663,0.99394 0.13193,0.16437 1.41753,1.76758 0.82957,0.9269 -2.17542,1.73329 -1.36346,1.05635 2.74206,3.67915 4.55661,6.66221 7.45841,-6.19165 5.27063,-7.41639 1.8232,-3.47648 -3.47215,-13.65253 -2.13803,-1.39127 -7.66542,5.49092 z"
     style="fill:#987db7;fill-opacity:1;fill-rule:evenodd;stroke:#232323;stroke-width:0.982677;stroke-linecap:square;stroke-linejoin:bevel;stroke-miterlimit:10;stroke-dasharray:none;stroke-opacity:1"
     id="path28" />
  <path
     d="m 760.5196,260.83929 -0.90001,-1.77748 -0.20701,-0.38651 -0.13749,-0.25706 -0.0828,-0.15943 -0.11401,-0.21473 -0.35716,-0.67292 -0.934,-1.74565 -0.82803,-1.63257 -0.52802,-1.04121 -0.3689,-0.74585 -0.91114,-1.67675 -0.88889,-1.66346 -0.4789,-0.93586 -0.38466,-0.83142 -0.61515,-1.12216 -0.23358,-0.45233 -0.1103,-0.22647 -0.15355,-0.31792 -0.65346,-1.26336 -0.503,-0.85954 -0.49465,-0.84007 -0.9754,-1.62856 -0.13131,-0.26478 -1.25656,-2.35246 -0.55428,-1.12278 -0.17241,-0.34233 -0.78446,-1.36161 -0.72205,0.11865 -0.42946,-1.3579 -0.35592,-1.26274 -0.25892,-0.85058 -0.54903,-1.77933 -0.15726,-0.47581 -0.46345,-1.09806 -0.38899,-0.56911 -0.37415,-0.4307 -0.85089,-0.71154 -1.28282,-1.0063 -0.38497,-0.30928 -0.20824,0.0847 -3.6739,1.52103 -1.32052,0.6374 -1.50837,0.79249 -1.15923,0.63863 -1.59797,0.97633 -2.59159,1.58561 -0.0955,-0.007 -0.0837,-0.059 -0.0899,-0.11215 -1.51177,-2.08243 -3.66926,5.11368 -0.30897,0.4137 -1.00104,1.57912 -0.63925,1.05975 0.23389,0.28827 -0.23852,0.27405 -1.89056,2.44113 -0.90743,1.16201 -0.96397,1.35234 -1.35049,1.88963 -0.52153,0.85213 -0.88734,1.44904 -0.6856,1.27541 -0.81196,1.50805 -0.6309,1.36563 -0.46283,1.00166 -0.73534,1.87944 -0.25335,0.65067 -0.78446,2.33547 -0.85985,2.9191 -0.0819,0.35593 -0.45077,2.00672 -0.1514,0.99796 -0.29042,1.91311 -0.10351,1.19476 -0.21133,3.1567 0.004,3.29912 0.11462,3.32817 1.45245,0.34048 0.94419,0.22122 2.29839,0.56448 1.16356,0.24315 1.28869,0.28425 1.61064,0.35531 0.9031,0.20824 2.04597,0.47179 0.41123,0.0834 0.22307,0.0504 2.65092,0.59785 3.16503,0.81783 1.97027,0.46067 5.54159,1.2961 2.10374,0.49218 0.24007,0.0633 0.40722,0.11154 -0.19527,-0.46438 3.45392,-1.67922 2.55359,-1.27262 0.43657,-0.22277 0.98992,-0.4928 0.34419,-0.17271 1.60383,-0.89383 2.29963,-1.20651 0.65501,-0.30248 1.627,-0.85305 0.30032,-0.15046 1.43915,-0.72082 0.16159,-0.081 1.96471,-0.99054 1.97892,-0.98714 0.28641,-0.25613 0.22276,-0.29507 0.0955,-0.24068 3.1e-4,-0.37199 0.0102,-0.22678 0.0806,-0.21226 0.14367,-0.17611 0.67014,-0.71402 0.18816,-0.26694 0.22833,-0.94049 0.24439,-0.57066 0.27868,-0.45016 2.09942,-3.09676 0.262,-0.36581 0.70598,-1.0616 -1.1926,-2.3367 z"
     style="fill:#987db7;fill-opacity:1;fill-rule:evenodd;stroke:#232323;stroke-width:0.982677;stroke-linecap:square;stroke-linejoin:bevel;stroke-miterlimit:10;stroke-dasharray:none;stroke-opacity:1"
     id="path30" />
  <path
     d="m 729.01045,198.62553 0.0167,3.64176 0.13255,1.83742 0.1276,4.87731 0.25366,1.95946 0.79558,1.88685 0.13348,0.27621 0.22307,0.49249 0.67447,1.46418 0.43595,1.01063 1.26799,2.67996 0.0646,0.1415 0.24996,0.53977 0.78168,0.66211 1.41197,1.07767 1.29332,1.00877 0.92319,0.77797 0.4619,0.36365 1.33998,1.08941 0.6445,0.53884 0.30001,0.25983 0.38497,0.30928 1.28282,1.0063 0.85089,0.71154 0.37415,0.4307 0.38899,0.56911 0.46345,1.09806 0.15726,0.47581 0.54903,1.77933 0.25892,0.85058 0.35592,1.26274 0.42946,1.3579 0.72205,-0.11865 0.78446,1.36161 0.17241,0.34233 0.55428,1.12278 1.25656,2.35246 0.13131,0.26478 0.9754,1.62856 0.49465,0.84007 0.503,0.85954 0.65346,1.26336 0.15355,0.31792 0.1103,0.22647 0.23358,0.45233 0.61515,1.12216 0.38466,0.83142 0.4789,0.93586 0.88889,1.66346 0.91114,1.67675 0.3689,0.74585 0.52802,1.04121 0.82803,1.63257 0.934,1.74565 0.35716,0.67292 0.11401,0.21473 0.0828,0.15943 0.13749,0.25706 0.20701,0.38651 0.90001,1.77748 1.1926,2.3367 0.87561,-1.33133 2.16893,-3.25155 0.62411,-0.88024 1.82413,-2.7538 0.57746,-0.85274 0.33584,-0.4962 1.53741,-2.27058 0.49743,-0.67046 2.06914,-3.09799 1.7197,-2.54092 0.2759,-0.39857 0.23667,-0.44151 0.46746,-0.50546 0.26262,-0.46592 3.48111,-5.10441 0.20639,-0.31545 0.3207,-0.4755 0.71649,-1.06469 0.88889,-1.25285 0.48601,-0.67695 0.51844,-0.79311 0.28023,-0.36828 0.23976,-0.22956 0.21102,-0.20207 0.22523,-0.21566 0.73688,-0.77426 0.33956,-0.52462 2.39849,-3.70758 1.49076,-2.20879 0.64326,-0.95285 0.57838,-0.85706 1.63134,-2.41673 3.83981,-5.68896 1.22721,-1.81795 1.76048,-2.60828 1.03194,-1.52969 0.15479,-0.22956 0.60928,-0.8512 0.89631,-1.37211 0.17425,-0.26695 0.40629,-0.81782 0.36026,-0.86418 0.33986,-1.22783 0.81134,-2.93053 1.10517,-4.3221 1.95821,-7.65831 2.27244,-8.55586 0.20206,-1.20063 0.0643,-0.9615 -0.0331,-1.18581 -0.19712,-1.15522 -0.17457,-1.11227 -0.50546,-2.94474 -1.76543,0.82339 -2.57213,3.84383 -0.66304,5.6281 -0.80887,2.84402 -1.1271,2.64845 -2.38644,3.04577 -0.97479,1.54575 -2.25266,1.45832 -9.14536,-0.2997 -7.5514,-0.56448 -6.52843,0.70722 -0.72916,0.99332 0.33152,2.64845 -0.45078,2.71827 -1.52474,2.185 -3.71283,1.45677 -3.97761,-1.65543 -3.06308,-4.57206 -4.6598,-4.68267 -1.85472,-0.85738 -1.79848,-0.11185 -1.76265,0.2997 -1.79137,0.84965 -1.92455,3.20675 -1.33132,2.33732 -1.85225,1.27386 -3.37482,1.25965 -3.10571,-0.59198 -2.8604,-2.37409 -0.86819,-0.62781 -1.68602,-0.0457 -0.0983,1.45832 z"
     style="fill:#987db7;fill-opacity:1;fill-rule:evenodd;stroke:#232323;stroke-width:0.982677;stroke-linecap:square;stroke-linejoin:bevel;stroke-miterlimit:10;stroke-dasharray:none;stroke-opacity:1"
     id="path32" />
  <path
     d="m 726.70186,229.18677 1.51177,2.08243 2.69726,-1.67274 1.61218,-1.00877 1.14718,-0.62318 2.86689,-1.45028 0.65161,-0.2722 2.8641,-1.19198 -0.56973,-0.47303 -1.34956,-1.09343 -0.55583,-0.42606 -0.83297,-0.68528 -1.27571,-1.03998 -1.40703,-1.0823 -0.46962,-0.42297 -0.20639,-0.39393 -0.24996,-0.53977 -0.0646,-0.1415 -1.26799,-2.67996 -0.43595,-1.01063 -0.67447,-1.46418 -0.22307,-0.49249 -0.13348,-0.27621 -0.79558,-1.88685 -0.25366,-1.95946 -0.1276,-4.87731 -0.13255,-1.83742 -0.0167,-3.64176 0.0983,-1.45832 -0.41958,0.26664 0.0995,0.66211 -0.30989,0.6272 -0.89507,0.89414 -2.38675,0.82741 -1.47995,-0.16375 -2.81744,0.19866 -2.3985,0.79281 0.0615,1.35913 -0.26046,1.37242 -0.49713,1.87048 -0.431,1.95327 -3.57998,2.74793 -1.41382,0.49806 -0.87344,1.48828 -1.22628,1.15862 -0.9615,1.88715 -1.55811,3.45979 -0.53018,1.80435 -0.15727,2.50386 -0.7548,0.75449 0.86727,0.58919 1.04831,0.64759 0.4168,0.28363 0.3414,0.30001 0.25706,0.19434 1.68231,1.55409 1.97429,1.90786 0.25088,0.2277 2.05925,1.9678 2.00765,1.92207 1.999,1.88098 1.86059,1.7475 0.63925,-1.05975 1.00104,-1.57912 0.30897,-0.4137 3.66926,-5.11368 z"
     style="fill:#987db7;fill-opacity:1;fill-rule:evenodd;stroke:#232323;stroke-width:0.982677;stroke-linecap:square;stroke-linejoin:bevel;stroke-miterlimit:10;stroke-dasharray:none;stroke-opacity:1"
     id="path34" />
  <path
     d="m 707.06777,224.94531 -0.49094,-0.3065 -0.42977,-0.28085 -0.90527,1.67861 -1.67892,2.91508 -0.64141,1.88561 -0.16591,1.48983 -0.92813,0.89384 -1.16016,1.62237 -0.72916,1.82073 -1.16016,2.05276 -0.53049,1.58901 -0.13255,3.14526 -5.60215,10.4288 -2.83908,3.7428 -2.10003,1.3891 -1.69066,1.85379 -1.75677,2.64875 -1.13205,3.36772 1.70147,1.22474 5.04602,3.26328 0.26107,0.1965 0.37107,0.25583 0.36643,0.17858 0.44738,0.23203 0.46592,0.17951 0.2861,0.10999 0.94698,0.23389 1.48983,0.33955 1.77036,0.40351 1.95112,0.4446 3.90191,0.86417 5.85272,1.37397 -0.10783,-3.25031 0.0337,-3.30005 3.1e-4,-0.5546 0.19218,-2.61291 0.0562,-0.69703 0.21565,-1.82073 0.0955,-0.63801 0.11988,-0.80238 0.52524,-2.20879 0.0911,-0.3621 0.82308,-2.94722 1.01526,-3.01642 1.2958,-2.86163 1.38848,-2.92188 1.57727,-2.74516 1.89117,-2.75318 0.69085,-0.99147 1.20125,-1.54297 1.83649,-2.43433 -1.91929,-1.7679 -1.97861,-1.86645 -2.03453,-1.9471 -2.13742,-1.97892 -0.14738,-0.13347 -1.77994,-1.72804 -1.59333,-1.51238 -1.40857,-1.32454 -0.72731,-0.51689 z"
     style="fill:#987db7;fill-opacity:1;fill-rule:evenodd;stroke:#232323;stroke-width:0.982677;stroke-linecap:square;stroke-linejoin:bevel;stroke-miterlimit:10;stroke-dasharray:none;stroke-opacity:1"
     id="path36" />
  <path
     d="m 865.60068,339.39203 0.27714,0.27096 2.12073,1.73484 0.28703,0.1208 3.17647,2.00395 0.1276,0.10659 -0.75449,0.88611 0.42668,0.31762 1.34616,0.94821 0.21009,0.13224 0.20732,0.13255 0.23883,0.14459 0.66582,0.41927 0.75789,0.469 0.31792,0.2169 0.91979,0.5342 0.62071,0.38002 0.81443,0.52926 0.95532,0.5963 3.2673,1.475 0.22246,0.10041 4.45898,1.96193 0.67941,0.38095 0.42266,0.17364 0.29012,0.20701 0.72174,0.73904 0.43163,0.24934 0.1208,-0.15943 0.55583,0.0207 0.32627,-0.2654 0.22369,-1.11752 -0.58271,-0.43935 2.17727,-3.31581 0.0936,-0.10351 1.30414,-1.44255 0.82741,-1.02484 0.29815,-0.14954 0.85769,-0.82926 1.54204,-2.20848 0.0525,-0.0729 0.12112,-0.15634 0.61885,-0.97602 0.4616,-0.48013 1.1685,-1.84236 2.64814,-4.17535 0.2688,-0.75294 0.63492,-0.66551 1.03503,-1.83495 -0.0491,-0.7341 0.8963,-1.2408 0.74554,-1.4716 0.43502,-0.42143 0.82524,-0.7996 0.44429,-0.9204 0.54007,-0.0334 0.87468,-0.84749 0.63153,-0.30835 0.2518,-0.54748 0.26942,-0.26108 0.35377,-0.60279 0.45356,-0.17951 0.93616,-1.32453 0.43317,-0.36736 0.43039,-0.18229 0.37662,-0.50268 1.95884,-1.98881 0.31206,-0.20052 0.34511,-0.48476 -0.50423,-0.66212 -1.56614,-1.58622 -1.48334,-1.40301 -0.96119,-0.50516 -10.88483,-9.64742 -1.98263,-2.11456 -0.95563,-0.38867 -2.32866,-1.78767 -2.2125,-1.20867 -2.85916,-1.21671 -2.7263,-0.77797 -4.6076,-0.62071 -3.10787,0.0992 -2.63516,0.45541 -2.85484,0.77396 -3.12425,1.4027 -3.38533,2.12321 -2.90457,2.63206 -1.83556,2.1643 -2.12568,3.57998 -1.26799,3.0087 -0.94049,3.41838 -0.33152,2.58233 -0.0704,2.85576 0.41432,3.59635 0.82462,3.32724 0.3791,1.21392 1.12093,2.34937 1.99715,3.20335 1.8232,2.08582 1.66872,1.22659 z"
     style="fill:#987db7;fill-opacity:1;fill-rule:evenodd;stroke:#232323;stroke-width:0.982677;stroke-linecap:square;stroke-linejoin:bevel;stroke-miterlimit:10;stroke-dasharray:none;stroke-opacity:1"
     id="path38" />
  <path
     d="m 871.7429,390.47719 1.56985,-2.55205 7.35088,-8.37665 5.77085,-8.5231 0.40011,-0.76315 1.35512,-1.72896 1.07828,-1.99252 0.0754,-1.24729 -0.6445,-1.24667 -0.19094,-0.51474 0.0878,-0.56849 -0.17055,-0.73843 0.10443,-0.51535 0.0695,-0.34295 0.005,-2.44916 0.25335,-1.20775 0.0334,-0.66458 -0.28178,-1.12494 0.26509,-0.49836 -0.0995,-0.48168 -0.3961,-0.56695 -0.72174,-0.73904 -0.29012,-0.20701 -0.42266,-0.17364 -0.67941,-0.38095 -4.45898,-1.96193 -0.22246,-0.10041 -1.29981,1.8541 -0.57189,0.66458 -0.97911,1.13792 -1.42433,1.59796 -0.43719,0.55429 -1.58344,1.81764 -1.7302,1.89302 -1.87017,2.09355 -2.03021,2.37316 -0.30124,0.35345 -1.04862,1.25625 -1.62299,1.83927 -1.69962,1.92176 -0.20762,0.26849 -1.80621,1.99808 -0.14614,0.12266 -1.66131,1.80095 -0.20144,0.21381 -1.45028,1.73669 -0.42266,0.37261 -1.45307,1.70518 -0.4103,0.46159 -1.7197,1.9576 -0.25489,0.33275 12.0833,6.45675 4.40862,2.88264 z"
     style="fill:#987db7;fill-opacity:1;fill-rule:evenodd;stroke:#232323;stroke-width:0.982677;stroke-linecap:square;stroke-linejoin:bevel;stroke-miterlimit:10;stroke-dasharray:none;stroke-opacity:1"
     id="path40" />
  <path
     d="m 890.67595,282.08587 1.07921,-4.88319 0.16962,-0.68992 1.12185,-4.818 0.63647,-2.58727 0.52895,-2.30735 0.66118,-2.75782 0.12946,-0.52431 0.8237,-3.33064 0.11957,-0.69517 0.99857,-3.9152 0.74368,-3.20211 0.0451,-0.18971 -0.0222,-0.5376 -0.41618,0.0312 -0.4239,0.22307 -3.34145,1.88407 -4.16454,2.27985 -0.34944,0.21226 -3.84445,2.11548 -2.37625,1.27263 -2.56131,1.43452 -1.83247,1.01062 -3.12642,1.74844 -3.19253,1.75368 2.09849,1.9885 3.05628,2.68366 1.5649,1.48582 3.33775,2.77821 0.38188,0.33461 1.15769,1.01495 3.82344,3.37327 3.17338,2.81344 z"
     style="fill:#987db7;fill-opacity:1;fill-rule:evenodd;stroke:#232323;stroke-width:0.982677;stroke-linecap:square;stroke-linejoin:bevel;stroke-miterlimit:10;stroke-dasharray:none;stroke-opacity:1"
     id="path42" />
  <path
     d="m 889.14379,288.3594 1.44009,-5.91668 -1.3372,-1.14997 -1.84452,-1.644 -2.07903,-1.85286 -1.75492,-1.52783 -1.37396,-1.19384 -0.45047,-0.39949 -0.13626,-0.11216 -2.58572,-2.17418 -0.42916,-0.38219 -4.54641,-4.11047 -0.89507,-0.75943 -1.40239,-1.2992 -2.14638,1.22257 -5.78722,3.16689 -1.72372,0.95069 -1.26737,0.71865 -0.12389,0.0661 -2.8465,1.55965 -4.91655,2.71271 -3.50768,1.93876 -4.03477,2.25111 -5.16867,2.85175 -0.17302,0.10196 0.38868,0.34264 2.09231,1.8439 1.41907,1.19878 0.0958,0.085 2.7915,2.49334 2.34906,2.05462 4.82757,4.28843 0.54872,0.48724 0.24563,0.26602 0.35407,0.3173 1.23215,1.09065 1.5748,1.39436 1.27293,1.15707 0.75418,0.68559 0.15294,0.1378 0.45542,0.37138 3.17337,2.73124 0.2583,0.21659 0.11833,-0.10536 1.28375,-1.29889 1.3511,-1.11412 0.26942,-0.20546 1.78334,-1.13359 1.65389,-0.95254 0.23667,-0.11834 1.59271,-0.71834 1.23432,-0.47951 0.33337,-0.11278 1.19322,-0.37168 1.42093,-0.36211 1.1339,-0.21442 1.41073,-0.16313 0.87654,-0.0352 1.84359,-0.0346 2.5264,0.17333 1.46759,0.27776 1.09311,0.20824 1.0026,-4.21242 0.9031,-3.85681 0.3757,-1.35048 z"
     style="fill:#987db7;fill-opacity:1;fill-rule:evenodd;stroke:#232323;stroke-width:0.982677;stroke-linecap:square;stroke-linejoin:bevel;stroke-miterlimit:10;stroke-dasharray:none;stroke-opacity:1"
     id="path44" />
  <path
     d="m 914.42514,248.26967 -2.29932,-4.53066 -1.56089,0.74399 -0.24439,0.13965 -2.51466,1.40888 -0.49465,0.25088 -1.89025,1.06717 -0.22091,0.0788 -1.84854,1.06315 -1.14594,0.58703 -2.7603,1.54236 -0.70258,0.40814 -0.13811,0.0803 -0.17426,0.14799 -0.18259,0.35284 -0.36211,1.56614 -0.58549,2.32434 -0.90557,4.03508 -0.19959,0.74739 -0.68714,2.91261 -0.11865,0.46623 -0.15015,0.62905 -0.63122,2.65648 -0.52246,2.19396 -0.63708,2.77265 -0.61855,2.61168 -0.48507,2.15997 -0.53884,2.22856 -0.80362,3.43507 -0.0961,0.39053 -1.46666,5.95777 -1.18303,5.02006 -0.94852,4.15218 1.08323,0.2759 1.12834,0.34141 0.86078,0.34604 0.95501,0.45912 1.08817,0.45449 0.8512,0.47333 1.12587,0.68498 0.90804,0.60557 1.81641,1.35172 0.1069,0.0797 3.61674,-4.05269 0.29475,-0.34944 3.29357,-3.90346 0.24377,-0.27683 0.42606,-0.42915 3.82715,-4.35054 0.1378,-0.15448 0.64759,-0.74769 0.896,-1.0236 1.18302,-1.36933 1.34987,-1.56028 0.79558,-0.89569 2.22424,-2.54556 0.62596,-0.68559 1.09559,-1.30599 2.65494,-3.07575 2.58758,-2.95895 2.02001,-2.26688 2.04164,-2.33114 1.89333,-2.27521 1.99499,-2.29468 1.34801,-1.55101 1.32979,-1.53092 -0.2101,-0.14799 -0.38899,-0.27498 -1.4166,-1.07612 -0.91639,-0.59414 -0.47581,-0.4653 -0.71772,-0.39579 -0.52555,-0.34913 -2.00518,-0.61237 -0.6513,-0.29629 -3.29325,-0.99518 -3.4808,-1.19168 -1.18179,-0.23017 -0.40536,-4.14631 1.28251,-1.47531 1.43854,-1.65543 1.5025,-1.72866 -1.74071,-1.0097 -0.57684,0.96923 -0.81536,0.91793 -1.22659,1.29116 -1.11042,0.86078 -0.43069,0.23172 -0.38219,0.0454 -0.36056,-0.0859 -0.88179,-0.24099 -0.36427,-0.0825 z"
     style="fill:#987db7;fill-opacity:1;fill-rule:evenodd;stroke:#232323;stroke-width:0.982677;stroke-linecap:square;stroke-linejoin:bevel;stroke-miterlimit:10;stroke-dasharray:none;stroke-opacity:1"
     id="path46" />
  <path
     d="m 897.64619,303.29382 1.98263,2.11456 10.88483,9.64742 0.96119,0.50516 1.48334,1.40301 1.56614,1.58622 0.50423,0.66212 0.46994,-0.47828 0.28641,-0.1999 0.76901,-0.58456 0.36767,-0.41834 0.26323,-0.23234 0.34543,0.003 0.46314,-0.7168 5.52181,-4.87207 0.22153,-0.54532 0.6411,-0.1069 0.19681,-0.4687 0.46067,-0.88951 0.20392,-0.11988 0.85305,-0.73873 0.62071,-0.78076 0.23605,-0.32348 0.35005,-1.16665 0.3411,-0.51598 -0.28363,-0.25396 -1.99468,-1.78644 -0.12173,-0.10906 0.18167,-0.28858 -1.75986,-1.72371 -2.64505,-2.14792 -2.98089,-2.71302 -0.24253,-0.20268 -2.87276,-2.40282 -0.11493,-0.10505 -0.1341,-0.12266 -0.20391,-0.18445 -0.0735,-0.0664 -2.32156,-2.09911 -0.69424,-0.59568 -1.90013,-1.53895 -4.33509,5.02778 -0.23172,0.29939 -3.40294,3.81787 -0.30031,0.35161 -3.56206,4.08018 z"
     style="fill:#987db7;fill-opacity:1;fill-rule:evenodd;stroke:#232323;stroke-width:0.982677;stroke-linecap:square;stroke-linejoin:bevel;stroke-miterlimit:10;stroke-dasharray:none;stroke-opacity:1"
     id="path48" />
  <path
     d="m 947.51279,276.20781 7.28632,1.97274 14.09497,-16.70232 9.53527,-5.57713 32.52595,-19.14253 26.8731,-5.58144 -3.7462,-12.42657 1.4602,-1.64554 1.442,-2.82641 0.4816,-1.55101 0.3563,-1.70177 0.7653,-2.86009 0.079,-1.55131 -1.2356,-2.04102 -1.7005,-1.15893 -2.1977,-1.10393 -1.2946,-0.14089 -3.6575,0.43286 -0.9942,-0.0689 -0.5929,-0.64944 -0.5172,-0.7996 -1.1877,-1.44349 -1.6103,-1.64709 -1.2544,-1.50651 -0.6624,-0.13996 -1.6301,-0.34481 -2.224,-0.5101 -1.737,-0.61175 -1.2562,-0.29197 -1.4373,-0.26015 -0.7076,-1.1753 -0.6176,-1.81053 -0.1628,-0.88611 -0.032,-1.44441 -0.8707,-1.04739 -0.8144,-0.67942 -2.0151,-1.49601 -1.4163,-0.98992 -1.6415,-0.61206 -7.83473,1.35636 -2.77265,-1.30816 -5.1075,-2.38026 -2.14422,-0.6238 -2.29499,-0.22246 -5.15785,1.65883 -1.25965,-0.52987 -0.66675,-1.91095 0.13842,-1.82382 -0.0819,-1.36686 -1.19322,-1.52288 h -2.91694 l -3.50057,1.26119 -3.57997,1.72155 -15.36266,16.83426 -0.33337,0.27096 -0.13563,0.15046 -2.10189,2.32435 -0.13069,0.21534 -0.0185,0.0232 -0.025,0.0306 -3.0226,3.34578 -0.21133,0.29383 -1.40455,1.67304 -1.24761,1.41537 -0.17332,0.1965 1.93628,1.71074 -0.19341,0.27683 -3.02261,3.51448 -3.11282,3.49593 -3.07605,3.54012 -0.21102,0.24563 -3.12827,3.39645 -2.95185,3.57039 -3.08532,3.53487 -0.25397,0.17704 -3.40356,3.94949 0.28209,0.42328 1.63473,1.42526 1.98016,1.72649 0.11864,0.10382 0.18167,0.15479 2.07933,1.8164 -3.48636,4.01129 -1.30939,1.50651 -0.7409,0.85244 -0.58239,0.67014 -1.5025,1.72866 -1.43854,1.65543 -1.28251,1.47531 0.40536,4.14631 1.18179,0.23017 3.4808,1.19168 3.29325,0.99518 0.6513,0.29629 2.00518,0.61237 0.52555,0.34913 0.71772,0.39579 0.47581,0.4653 0.91639,0.59414 1.4166,1.07612 0.38899,0.27498 0.2101,0.14799 0.48075,0.39733 0.55335,0.25552 1.09374,0.96026 0.50886,0.59754 0.88333,0.69362 0.6961,0.43039 1.35913,1.2581 1.37088,1.75616 0.68436,1.02484 0.19526,0.19495 0.92937,0.92844 0.53296,0.53204 0.46407,0.43039 0.33152,0.69517 0.96119,0.72854 0.27683,0.66365 0.31978,0.19712 0.67447,0.29939 0.25366,0.26324 0.19897,0.46375 v 0.52957 l 0.13255,0.62905 0.39764,0.52988 0.56355,0.26478 -0.10938,0.47673 z"
     style="fill:#987db7;fill-opacity:1;fill-rule:evenodd;stroke:#232323;stroke-width:0.982677;stroke-linecap:square;stroke-linejoin:bevel;stroke-miterlimit:10;stroke-dasharray:none;stroke-opacity:1"
     id="path50" />
  <path
     d="m 951.46414,195.33073 15.36266,-16.83426 -3.51386,0.33121 -3.32786,-0.3343 -9.11075,-2.88048 -3.28244,-0.66705 -2.72105,0.20083 -2.29592,0.88487 -1.34276,0.25799 -4.1633,1.16665 -7.82453,0.009 -1.52444,-0.0568 -2.37408,-0.5515 -6.64491,-5.04941 -6.38321,-4.76888 -5.63521,-3.97266 -1.56707,-1.14472 -1.62917,-0.22431 -1.0443,0.27745 -0.82617,0.69672 -0.91237,1.48488 -2.3744,0.89631 -4.04403,-0.79435 -5.62193,-0.063 -4.13055,-0.19186 -3.23455,0.44583 -5.44334,2.45751 -4.01036,2.82054 2.21836,3.57225 1.89396,3.76535 1.5405,2.77667 1.34492,2.64999 3.02878,5.39792 1.21887,2.13124 0.0562,0.10845 0.15232,0.24655 0.0723,0.14923 0.12822,0.27004 0.43224,0.8549 0.44923,0.88488 1.70765,3.17986 0.25582,0.38096 1.37026,2.44669 1.33566,2.59994 0.262,0.3828 1.32299,2.40529 1.09404,1.93752 0.16808,0.3034 1.80651,3.07544 8.67728,16.04207 0.9893,1.82907 0.76068,1.2683 0.4517,0.74337 0.10968,0.15479 0.61453,1.26181 1.17592,1.74133 0.78076,2.13834 0.97324,1.78953 0.17518,0.31298 1.0579,1.9267 0.92782,1.58901 1.14162,1.92145 0.64636,1.35543 0.0646,0.10566 0.11741,0.19805 0.90681,1.94555 0.98714,1.86677 0.52833,0.91608 0.88179,0.24099 0.36056,0.0859 0.38219,-0.0454 0.43069,-0.23172 1.11042,-0.86078 1.22659,-1.29116 0.81536,-0.91793 0.57684,-0.96923 1.74071,1.0097 0.58239,-0.67014 0.7409,-0.85244 1.30939,-1.50651 3.48636,-4.01129 -2.07933,-1.8164 -0.18167,-0.15479 -0.11864,-0.10382 -1.98016,-1.72649 -1.63473,-1.42526 -0.28209,-0.42328 3.40356,-3.94949 0.25397,-0.17704 3.08532,-3.53487 2.95185,-3.57039 3.12827,-3.39645 0.21102,-0.24563 3.07605,-3.54012 3.11282,-3.49593 3.02261,-3.51448 0.19341,-0.27683 -1.93628,-1.71074 0.17332,-0.1965 1.24761,-1.41537 1.40455,-1.67304 0.21133,-0.29383 3.0226,-3.34578 0.025,-0.0306 0.0185,-0.0232 0.13069,-0.21534 2.10189,-2.32435 0.13563,-0.15046 0.33337,-0.27096 z"
     style="fill:#987db7;fill-opacity:1;fill-rule:evenodd;stroke:#232323;stroke-width:0.982677;stroke-linecap:square;stroke-linejoin:bevel;stroke-miterlimit:10;stroke-dasharray:none;stroke-opacity:1"
     id="path52" />
  <path
     d="m 911.97814,243.43036 -0.74306,-1.33009 -1.03658,-1.75925 -1.00413,-1.73669 -1.04492,-1.91867 -0.18971,-0.32441 -0.98497,-1.79694 -0.93864,-2.03021 -1.01773,-1.86182 -0.77859,-1.52753 -0.1758,-0.11091 -0.16746,0.0191 -0.0939,0.025 -0.0803,0.0553 -0.18012,0.12884 -0.11587,0.44738 -0.42822,0.26664 -3.02075,1.47005 -2.86812,1.42186 -2.86812,1.42216 -2.85545,1.39436 -0.33801,0.16375 -2.13803,1.01897 -1.75863,0.85738 -2.99974,1.50589 -2.7192,1.32886 -2.86101,1.41938 -2.8363,1.39034 -2.90643,1.45276 -2.71024,1.43297 -0.0674,0.1032 -0.006,0.13996 0.0964,0.21504 1.31341,2.44175 0.95131,1.72557 0.9652,1.81269 1.0236,1.89766 0.14491,0.28332 1.0443,2.05277 0.0856,0.15788 0.89847,1.65481 0.58827,1.09868 0.92813,1.69066 0.10875,0.2036 1.78397,-1.00166 3.84167,-2.13248 5.51563,-3.02878 2.89284,-1.56212 4.46485,-2.44299 1.01001,-0.55768 0.28393,-0.20948 0.26602,-0.31823 0.38775,0.006 0.37787,0.0244 3.08841,-1.69684 2.83012,-1.58591 0.17796,-0.0528 0.30618,-0.15293 2.24556,-1.32299 2.7606,-1.48087 1.55193,-0.78693 z"
     style="fill:#987db7;fill-opacity:1;fill-rule:evenodd;stroke:#232323;stroke-width:0.982677;stroke-linecap:square;stroke-linejoin:bevel;stroke-miterlimit:10;stroke-dasharray:none;stroke-opacity:1"
     id="path54" />
  <path
     d="m 776.2113,281.277 -1.41845,0.43749 -2.59902,0.80949 -0.72761,0.23574 -2.29035,0.64975 -2.41425,0.74337 -0.6754,0.25582 -1.58252,0.44955 -0.33121,-0.005 -0.14367,-0.14274 -0.18445,-0.21689 -0.33523,0.17611 -4.2152,-8.33278 -2.14082,-4.31655 -0.95748,0.40135 -1.97892,0.98714 -1.96471,0.99054 -0.16159,0.081 -1.43915,0.72082 -0.30032,0.15046 -1.627,0.85305 -0.65501,0.30248 -2.29963,1.20651 -1.60383,0.89383 -0.34419,0.17271 -0.98992,0.4928 -0.43657,0.22277 -2.55359,1.27262 -3.45392,1.67922 0.19527,0.46438 2.70004,0.64635 2.47048,0.55367 2.47327,0.56818 2.4022,0.56757 1.96254,0.45294 -0.034,0.18013 0.5892,2.10374 0.3343,1.20713 0.43811,1.47098 0.77365,2.55637 0.71278,2.51312 0.83019,2.55081 0.47086,1.49045 0.2308,0.92288 0.0188,0.076 1.45399,0.30928 1.77377,0.37663 1.41815,0.32595 0.0609,0.0139 0.29198,0.0602 0.23944,0.0358 0.11216,0.021 1.93164,0.41433 0.36304,0.0949 2.64288,0.52987 2.58542,0.51845 1.1614,0.23357 1.39281,0.28023 2.52023,0.46623 0.51751,0.10412 2.59191,0.52154 2.58943,0.51226 1.53772,0.30217 1.01773,0.21226 2.23536,0.45757 0.32936,0.0664 2.68026,0.49465 3.44836,0.66922 1.79447,0.3516 1.17623,0.21226 1.45986,0.31638 0.22678,0.0392 1.47438,0.25582 0.59444,0.11772 2.67255,0.51195 2.7365,0.53389 0.92782,0.16252 1.43483,0.2827 0.37292,0.0735 2.71179,0.49928 0.2345,0.0417 1.51269,0.26911 1.40209,0.23512 0.0831,-0.008 -0.52339,-1.38911 -1.30074,-3.69707 -0.94358,-2.54927 -0.60742,-1.49291 -0.15943,-0.38559 -0.0488,-0.12297 -0.51968,-1.45893 -0.1415,-0.43688 -0.47612,-1.24018 -0.35376,-0.32936 -0.30588,-0.19187 -0.49928,-0.2481 0.54748,0.0229 0.186,-0.1446 0.0158,-0.19866 -0.20825,-0.5858 -0.20793,-0.58549 -0.0933,-0.23388 -0.76499,-1.98912 -0.66088,-1.71877 -0.49033,-1.27479 -0.42513,-1.18642 -0.17117,-0.49867 -0.4069,-1.03318 -0.38219,-1.00784 -1.34956,-3.56082 -1.12494,-2.87121 -2.44082,-6.48146 -1.3956,0.56169 -2.52146,1.05203 -2.59623,1.01557 -2.70715,1.0721 -2.46245,0.57715 -1.91218,0.63894 -0.48847,0.16313 -0.62071,0.16623 -2.53599,0.81412 -1.3579,0.41834 z"
     style="fill:#987db7;fill-opacity:1;fill-rule:evenodd;stroke:#232323;stroke-width:0.982677;stroke-linecap:square;stroke-linejoin:bevel;stroke-miterlimit:10;stroke-dasharray:none;stroke-opacity:1"
     id="path56" />
  <path
     d="m 816.11256,331.37779 -0.35346,-0.98498 -1.03781,-2.73711 -1.0304,-2.68676 -1.46542,-3.75392 -0.48693,-1.30291 -0.72205,-1.91465 -0.34604,-0.86974 -1.0684,-2.78964 -0.0479,-0.12513 -0.31144,-0.81289 -0.17116,-0.49589 -0.3275,-0.9825 -0.0779,-0.23389 -0.0831,0.008 -1.40209,-0.23512 -1.51269,-0.26911 -0.2345,-0.0417 -2.71179,-0.49928 -0.37292,-0.0735 -1.43483,-0.2827 -0.92782,-0.16252 -2.7365,-0.53389 -2.67255,-0.51195 -0.59444,-0.11772 -1.47438,-0.25582 -0.22678,-0.0392 -1.45986,-0.31638 -1.17623,-0.21226 -1.79447,-0.3516 -3.44836,-0.66922 -2.68026,-0.49465 -0.44553,3.22775 -0.672,5.3383 0.0219,2.58047 0.22709,2.98985 -0.0714,0.1517 0.24253,5.77363 0.0881,0.3791 0.39362,3.6498 0.69115,5.28948 0.21628,1.54915 0.042,0.17302 1.27479,-0.0247 1.37489,-0.0504 2.70406,-0.0562 2.50014,-0.0936 2.6571,-0.0522 2.30827,-0.0674 0.40877,-0.0352 0.23759,-0.0127 2.61909,-0.12204 1.05048,-0.31453 0.60496,-0.27621 1.2374,-0.51659 0.68096,-0.23234 0.56602,-0.11741 0.88086,0.0596 0.76592,0.0979 1.07057,0.0881 3.1e-4,0.15943 3e-4,0.43656 0.15325,0.009 3.5015,0.20176 0.50855,-0.0708 0.42823,-0.19743 0.71834,-0.56417 0.65192,-0.54686 0.41617,-0.37539 0.60187,-0.69147 1.77037,-2.00425 0.66149,-0.40815 1.30198,-0.5756 z"
     style="fill:#987db7;fill-opacity:1;fill-rule:evenodd;stroke:#232323;stroke-width:0.982677;stroke-linecap:square;stroke-linejoin:bevel;stroke-miterlimit:10;stroke-dasharray:none;stroke-opacity:1"
     id="path58" />
  <path
     d="m 848.36909,99.297375 -7.05984,2.137725 -6.98569,2.65895 -0.35222,0.13409 -7.06356,2.19273 -7.01411,2.45596 -7.0169,2.44731 -0.34913,0.12111 -6.92854,2.39911 -7.5443,2.46122 0.51072,1.38138 0.66829,2.13 0.69054,2.14854 0.28147,0.90619 0.19897,0.76655 0.27158,0.92782 0.51844,1.85193 0.45758,2.11425 0.47055,2.19179 0.28363,1.23308 7.68921,-1.71568 7.36695,-1.63782 0.28023,-0.0636 1.16449,-0.26787 1.64647,-0.37848 4.39997,-1.05512 3.35968,-0.72081 0.0853,-0.0201 0.43348,-0.10196 3.38254,-0.77303 2.25081,-0.51628 4.91872,-1.12803 0.34202,-0.0772 0.3964,-0.0896 1.76358,-0.39857 2.02371,-0.45047 1.82784,-0.42946 0.18198,-0.0417 0.40382,-0.0924 1.71105,-0.39084 2.04411,-0.4687 1.78705,-0.40691 0.30402,-0.0695 2.1127,-0.4826 1.99962,-0.45696 0.10412,-0.0247 2.03113,-0.46314 0.0664,-2.84711 -0.26509,-2.84711 -1.6576,-5.09854 -0.24408,-0.30526 -1.90137,-1.68046 -2.09756,-1.58962 -1.32577,-1.39065 1.20991,-3.21138 -3.29851,0.9476 -0.53482,-1.915585 z"
     style="fill:#987db7;fill-opacity:1;fill-rule:evenodd;stroke:#232323;stroke-width:0.982677;stroke-linecap:square;stroke-linejoin:bevel;stroke-miterlimit:10;stroke-dasharray:none;stroke-opacity:1"
     id="path60" />
  <path
     d="m 785.90013,364.72961 2.11486,-0.13471 1.71383,0.17889 2.88882,1.78119 2.03114,2.81281 1.45862,3.24475 4.83282,5.19462 7.93669,8.07418 0.31854,0.3241 0.13224,0.0964 14.01588,-15.44885 0.61607,-0.70846 1.01125,-1.01773 0.43965,-0.51659 0.16406,-0.18507 1.54143,-1.83432 -1.30878,-2.07192 -0.4103,-0.59167 -1.89118,-8.44123 -0.48785,-2.16275 -0.31823,-1.48581 -0.59229,-2.68614 -0.68034,-2.67316 -0.38034,-1.14194 -1.6545,-5.22768 -1.20682,-3.25216 -1.91125,-5.53758 -0.16159,0.059 -1.30198,0.5756 -0.66149,0.40815 -1.77037,2.00425 -0.60187,0.69147 -0.41617,0.37539 -0.65192,0.54686 -0.71834,0.56417 -0.42823,0.19743 -0.50855,0.0708 -3.5015,-0.20176 -0.15325,-0.009 -3e-4,-0.43656 -3.1e-4,-0.15943 -1.07057,-0.0881 -0.76592,-0.0979 -0.88086,-0.0596 -0.56602,0.11741 -0.68096,0.23234 -1.2374,0.51659 -0.60496,0.27621 -1.05048,0.31453 -2.61909,0.12204 -0.23759,0.0127 -0.40877,0.0352 -2.30827,0.0674 -2.6571,0.0522 -2.50014,0.0936 -2.70406,0.0562 -1.37489,0.0504 -1.27479,0.0247 0.49063,3.61365 0.55367,3.9668 0.45449,3.55803 0.0352,0.36829 0.1656,1.06006 0.3031,2.42506 0.27034,2.16337 0.2033,1.54143 0.40165,3.26298 0.30403,2.6367 0.10566,0.77179 -0.0531,0.8027 0.14367,0.38682 0.0655,0.44089 z"
     style="fill:#987db7;fill-opacity:1;fill-rule:evenodd;stroke:#232323;stroke-width:0.982677;stroke-linecap:square;stroke-linejoin:bevel;stroke-miterlimit:10;stroke-dasharray:none;stroke-opacity:1"
     id="path62" />
  <path
     d="m 815.41151,328.49917 1.90941,5.43469 1.14626,3.13661 1.02236,3.01766 0.83204,2.34813 0.76284,2.40467 0.17147,-0.16004 0.89538,-0.30248 0.0365,-0.0124 0.92689,-0.37446 2.14916,-0.86819 0.0161,-0.006 0.0235,-0.009 6.26735,-2.49428 0.40938,-0.15726 2.68954,-1.01309 0.59228,-0.22864 6.48208,-2.54216 0.96768,-0.36427 2.79675,-1.06284 0.43193,-0.16097 6.04366,-2.37748 1.06778,-0.4134 0.80671,-0.29722 4.91378,-1.88623 -0.51752,-1.75369 -0.33924,-1.43576 -0.0769,-0.31946 -0.11616,-0.55738 -0.17395,-1.06222 -0.13348,-1.08879 -0.0643,-0.8478 -0.0538,-0.79682 -0.004,-2.28294 0.27066,-2.55576 0.13841,-0.83976 0.20824,-0.96459 0.29568,-1.16418 0.42977,-1.19446 1.29796,-2.99201 0.95563,-1.75214 0.77581,-1.18117 0.90929,-1.17221 -0.20608,-0.18353 -0.83915,-0.74708 -2.81343,-2.54803 -4.93201,-4.36011 -0.32843,-0.29352 -0.31483,-0.26632 -0.43626,-0.38837 -0.82617,-0.7375 -6.59393,-5.86941 -1.84915,-1.64523 -2.43928,-2.17172 -1.09652,-0.97231 -1.22411,-1.09373 -0.17519,-0.15603 -0.29907,-0.26602 -0.24378,0.14089 -2.40838,1.39096 -0.22585,0.12884 -0.87314,0.51164 -0.68899,0.36643 -0.56448,0.32874 -0.22214,0.11957 -1.15059,0.61948 -0.56262,0.31452 -2.76091,1.49786 -5.28175,2.8811 -0.81752,0.44646 -1.14781,0.62657 -0.91701,0.50269 -2.4884,1.36408 -0.93554,0.49342 -2.29345,1.24883 -0.12204,0.0862 -0.17611,0.0995 -0.32472,0.18383 -1.82907,1.0338 -1.35265,0.74491 -1.78983,0.97324 -1.33597,0.72947 -1.3304,0.72637 -0.68126,0.38621 0.0584,0.16777 0.20886,0.60001 0.29722,0.82463 0.77118,2.12042 0.52617,1.44596 0.19804,0.54408 0.79466,2.18469 0.59352,1.63164 0.0324,0.0887 0.76778,2.11146 0.051,0.13996 1.08725,2.89562 1.52597,3.93034 0.009,0.0229 1.492,3.84259 0.95408,2.58912 0.36797,0.96274 z"
     style="fill:#987db7;fill-opacity:1;fill-rule:evenodd;stroke:#232323;stroke-width:0.982677;stroke-linecap:square;stroke-linejoin:bevel;stroke-miterlimit:10;stroke-dasharray:none;stroke-opacity:1"
     id="path64" />
  <path
     d="m 729.1087,197.16721 1.68602,0.0457 -3.77833,-2.81251 -2.67656,-1.19971 -2.83939,-0.38559 -4.82417,2.82765 -7.2925,2.25112 -5.5558,0.53296 -3.77895,0.19867 -4.18987,-2.78408 -3.69924,-5.36023 -3.84537,-5.82677 -15.04937,-10.19677 -2.65184,-0.33121 -3.65969,3.57225 -5.96642,9.07121 -2.32063,3.64177 -0.66273,2.45009 -1.45862,1.589 -33.37777,34.70045 -12.93234,36.80141 11.00965,8.96801 22.82755,-4.73797 2.00086,-0.37138 15.40745,-3.28954 0.78354,-0.19249 3.74434,-0.77519 6.87508,-1.43113 3.00685,-0.58981 3.62941,1.28931 3.4743,2.05956 1.13205,-3.36772 1.75677,-2.64875 1.69066,-1.85379 2.10003,-1.3891 2.83908,-3.7428 5.60215,-10.4288 0.13255,-3.14526 0.53049,-1.58901 1.16016,-2.05276 0.72916,-1.82073 1.16016,-1.62237 0.92813,-0.89384 0.16591,-1.48983 0.64141,-1.88561 1.67892,-2.91508 0.90527,-1.67861 0.17147,-0.2277 0.7548,-0.75449 0.15727,-2.50386 0.53018,-1.80435 1.55811,-3.45979 0.9615,-1.88715 1.22628,-1.15862 0.87344,-1.48828 1.41382,-0.49806 3.57998,-2.74793 0.431,-1.95327 0.49713,-1.87048 0.26046,-1.37242 -0.0615,-1.35913 2.3985,-0.79281 2.81744,-0.19866 1.47995,0.16375 2.38675,-0.82741 0.89507,-0.89414 0.30989,-0.6272 -0.0995,-0.66211 0.41958,-0.26664 z"
     style="fill:#987db7;fill-opacity:1;fill-rule:evenodd;stroke:#232323;stroke-width:0.982677;stroke-linecap:square;stroke-linejoin:bevel;stroke-miterlimit:10;stroke-dasharray:none;stroke-opacity:1"
     id="path66" />
  <path
     d="m 822.51801,144.42816 4.94653,-0.56695 4.70986,-0.53296 0.50763,-0.0575 2.29808,-0.26076 1.96378,-0.27622 1.35203,-0.24624 2.3197,-0.53482 1.12216,-0.38466 2.56935,-0.88055 2.31508,-0.90898 1.21917,-0.47889 1.58499,-0.62257 0.36025,-0.1415 0.18013,-0.0575 1.65235,-0.52802 1.04461,-0.355 0.36735,-0.0964 0.19002,-0.0386 1.16356,-7.29805 0.0924,-0.53822 0.3825,-2.13896 0.32441,-1.77006 0.35315,-1.92547 0.36056,-1.96749 0.38466,-2.09849 -1.99962,0.45696 -2.1127,0.4826 -0.30402,0.0695 -1.78705,0.40691 -2.04411,0.4687 -1.71105,0.39084 -0.40382,0.0924 -0.18198,0.0417 -1.82784,0.42946 -2.02371,0.45047 -1.76358,0.39857 -0.3964,0.0896 -0.34202,0.0772 -4.91872,1.12803 -2.25081,0.51628 -3.38254,0.77303 -0.43348,0.10196 -0.0853,0.0201 -3.35968,0.72081 -4.39997,1.05512 -1.64647,0.37848 1.99839,8.94144 0.11462,0.5135 1.17314,5.24962 0.32441,1.45151 z"
     style="fill:#987db7;fill-opacity:1;fill-rule:evenodd;stroke:#232323;stroke-width:0.982677;stroke-linecap:square;stroke-linejoin:bevel;stroke-miterlimit:10;stroke-dasharray:none;stroke-opacity:1"
     id="path68" />
  <path
     d="m 570.4726,184.78081 0.5376,-1.67736 -0.4307,-0.76129 1.40301,-3.06277 1.61341,-3.49254 1.65729,-2.21806 0.53049,-1.72155 0.59661,-2.64844 2.48624,-1.95359 0.66273,-1.05913 -1.9267,0.5549 -6.29825,-2.38366 -5.23757,-1.98634 -6.62945,1.78798 -8.70231,0.59538 -11.71718,0.19897 -4.24301,0.33121 -5.0386,0.52957 -4.04403,0.92689 -5.37012,0.46376 -4.17659,-0.72854 -4.57453,-1.45646 -1.30877,-1.27108 -28.41611,53.00445 9.8878,2.64968 8.4196,2.185 5.30399,2.71487 2.98337,6.02543 -3.81293,7.93638 -5.07104,7.16056 0.0664,3.44311 5.76776,1.65543 7.95553,-0.3309 7.5579,-6.68785 3.30994,-0.80516 7.36386,-1.11506 7.49147,-2.84711 5.23757,-5.62841 8.06522,-3.09459 5.17732,1.21918 2.7847,-2.90767 3.57874,-3.24877 4.13734,-6.43913 2.20601,-6.82225 1.31712,-9.74197 -1.30352,-5.38711 -0.42019,-4.28009 0.72946,-4.07215 -0.1069,-3.55372 z"
     style="fill:#987db7;fill-opacity:1;fill-rule:evenodd;stroke:#232323;stroke-width:0.982677;stroke-linecap:square;stroke-linejoin:bevel;stroke-miterlimit:10;stroke-dasharray:none;stroke-opacity:1"
     id="path70" />
  <path
     d="m 853.05176,332.29449 -1.06778,0.4134 -6.04366,2.37748 -0.43193,0.16097 -2.79675,1.06284 -0.96768,0.36427 -6.48208,2.54216 -0.59228,0.22864 -2.68954,1.01309 -0.40938,0.15726 -6.26735,2.49428 -0.0235,0.009 -0.0161,0.006 -2.14916,0.86819 -0.92689,0.37446 -0.0365,0.0124 -0.89538,0.30248 -0.17147,0.16004 -0.0377,0.49527 0.38034,1.14194 0.68034,2.67316 0.59229,2.68614 0.31823,1.48581 0.48785,2.16275 1.89118,8.44123 0.4103,0.59167 1.30878,2.07192 1.99684,1.05789 2.34009,0.99394 20.14265,10.58668 3.65537,1.90847 0.25489,-0.33275 1.7197,-1.9576 0.4103,-0.46159 1.45307,-1.70518 0.42266,-0.37261 1.45028,-1.73669 0.20144,-0.21381 1.66131,-1.80095 0.14614,-0.12266 1.80621,-1.99808 0.20762,-0.26849 1.69962,-1.92176 1.62299,-1.83927 1.04862,-1.25625 0.30124,-0.35345 2.03021,-2.37316 1.87017,-2.09355 1.7302,-1.89302 1.58344,-1.81764 0.43719,-0.55429 1.42433,-1.59796 0.97911,-1.13792 0.57189,-0.66458 1.29981,-1.8541 -3.2673,-1.475 -0.95532,-0.5963 -0.81443,-0.52926 -0.62071,-0.38002 -0.91979,-0.5342 -0.31792,-0.2169 -0.75789,-0.469 -0.66582,-0.41927 -0.23883,-0.14459 -0.20732,-0.13255 -0.21009,-0.13224 -1.34616,-0.94821 -0.42668,-0.31762 0.75449,-0.88611 -0.1276,-0.10659 -3.17647,-2.00395 -0.28703,-0.1208 -2.12073,-1.73484 -0.27714,-0.27096 -1.66872,-1.22659 -1.8232,-2.08582 -1.99715,-3.20335 -1.12093,-2.34937 -0.21843,-0.41586 -4.91378,1.88623 -0.80671,0.29722 z"
     style="fill:#987db7;fill-opacity:1;fill-rule:evenodd;stroke:#232323;stroke-width:0.982677;stroke-linecap:square;stroke-linejoin:bevel;stroke-miterlimit:10;stroke-dasharray:none;stroke-opacity:1"
     id="path72" />
  <path
     d="m 822.60978,398.90297 1.14317,0.59383 2.24741,0.36087 7.88941,-0.13224 2.98985,0.43348 1.6508,1.28807 3.28491,3.30994 1.68757,3.3118 4.70708,4.63539 1.46511,0.63215 1.05388,0.03 1.00135,-0.69209 1.1268,0.72854 3.24196,1.6851 1.7333,0.0612 0.91947,-2.05091 1.42155,-3.25463 0.29537,-0.46994 0.0874,-0.49125 0.55768,-1.50744 -0.0874,-0.22925 1.83711,-3.2327 0.97324,-1.42 1.76048,-3.15638 0.92936,-0.22926 0.30619,-0.66643 0.39362,-0.90651 -0.0655,-0.66612 4.58195,-6.39094 -4.40862,-2.88264 -12.0833,-6.45675 -3.65537,-1.90847 -20.14265,-10.58668 -2.34009,-0.99394 -1.99684,-1.05789 -1.54143,1.83432 -0.16406,0.18507 -0.43965,0.51659 -1.01125,1.01773 -0.61607,0.70846 -14.01588,15.44885 0.59043,0.43749 0.40073,0.33492 0.40938,-0.11184 0.11802,0.30186 -0.11401,0.45108 0.61392,0.98684 3.50736,4.68298 2.0642,2.49952 5.17794,2.75133 0.51412,0.26695 z"
     style="fill:#987db7;fill-opacity:1;fill-rule:evenodd;stroke:#232323;stroke-width:0.982677;stroke-linecap:square;stroke-linejoin:bevel;stroke-miterlimit:10;stroke-dasharray:none;stroke-opacity:1"
     id="path74" />
  <path
     d="m 744.797,378.8595 0.38868,0.25798 0.49156,0.28672 0.65068,0.35778 0.81629,0.37045 0.61515,0.20268 1.62855,0.49466 2.52053,0.77797 2.60736,0.81412 2.64319,0.84347 0.82864,0.27529 0.78725,0.29599 0.96767,0.38064 2.63764,1.11197 2.48778,1.00908 1.0029,0.41185 0.57591,0.22122 1.07736,0.40783 2.60952,0.82803 2.64968,0.79805 2.55977,0.77643 2.69788,0.78415 1.66563,0.52401 0.39146,0.11586 0.20948,0.0544 0.3791,0.11061 2.52022,0.71865 2.83383,0.82679 2.19859,0.63616 2.05029,0.58116 1.90848,0.55026 3.08934,0.94142 1.55965,0.42019 2.47357,0.73719 0.63956,0.19218 1.5096,0.47241 0.7202,0.21164 0.31421,-0.59631 0.36273,-0.83204 0.51597,-1.36531 0.45727,-1.03596 0.32626,-0.7548 1.00507,-1.7886 1.02978,-1.62299 1.52721,-1.95513 0.64697,-0.6927 0.81999,-0.80949 -0.31854,-0.3241 -7.93669,-8.07418 -4.83282,-5.19462 -1.45862,-3.24475 -2.03114,-2.81281 -2.88882,-1.78119 -1.71383,-0.17889 -2.11486,0.13471 -0.34728,0.059 -8.31671,-0.23728 -5.2419,0.55675 -1.01989,-0.0806 -7.22051,-2.61476 -1.6647,-0.8478 -0.47055,-0.10413 -1.16171,-0.25705 -3.00128,-0.53266 -2.92466,-0.74213 -3.53363,-0.31329 -1.27139,0.22647 -0.14923,0.48384 -0.68281,2.51991 -0.2481,0.80269 -1.6026,5.84654 -1.29209,4.77567 -1.27016,4.35177 0.31607,0.23698 z"
     style="fill:#987db7;fill-opacity:1;fill-rule:evenodd;stroke:#232323;stroke-width:0.982677;stroke-linecap:square;stroke-linejoin:bevel;stroke-miterlimit:10;stroke-dasharray:none;stroke-opacity:1"
     id="path76" />
  <path
     d="m 798.75553,424.49112 0.81258,-2.82394 0.38652,-2.91477 0.68374,-6.30196 0.36921,-3.03403 0.24686,-2.64165 0.42143,-4.4735 0.32163,-2.38861 0.17766,-2.02186 -0.74801,-0.22246 -1.54297,-0.44799 -0.62998,-0.21813 -2.04164,-0.62936 -2.05152,-0.48106 -3.07667,-0.934 -2.75473,-0.83637 -2.19458,-0.63276 -3.19871,-0.91052 -3.28522,-0.98683 -0.39857,-0.10289 -0.21288,-0.0491 -0.49527,-0.14738 -2.47202,-0.75944 -1.47562,-0.43533 -0.93338,-0.27219 -1.9471,-0.59229 -1.94153,-0.60155 -2.02001,-0.62071 -2.31199,-0.77829 -0.69208,-0.25458 -1.59117,-0.65779 -1.84915,-0.78662 -1.58375,-0.63524 -1.01928,-0.43038 -0.64234,-0.27498 -0.8929,-0.34141 -1.16634,-0.39949 -1.00074,-0.30433 -1.99313,-0.63925 -2.03021,-0.62905 -1.99931,-0.64141 -0.30649,-0.0973 -2.08027,-0.62504 -2.01166,-0.58364 -0.75141,-0.21133 -0.22801,-0.0399 -1.02916,-0.35191 -1.93567,-0.62813 -0.33492,-0.10937 -2.22949,-0.68189 -0.43996,-0.13471 -1.95637,6.26025 -3.01796,10.19491 0.52184,0.1897 -3.04609,7.99107 2.91694,3.90685 2.054,2.88388 1.15954,1.01063 3.28337,2.26378 6.15921,1.48674 h 3.6461 l 7.2928,1.32422 3.98441,0.30124 2.57893,1.08941 0.7205,0.32071 0.12019,0.0479 0.13162,0.059 2.21003,0.89661 5.50235,3.04609 6.23213,3.90686 5.3698,3.77462 2.79119,2.95 2.18778,3.44341 0.99672,1.69652 0.22462,-0.22585 2.42136,-2.79798 1.94771,-2.61354 0.59198,-0.79496 0.21658,-0.29012 1.0616,-1.6715 0.0723,-0.13316 0.63956,-1.17562 0.10999,-0.26107 0.43317,-1.02885 0.56231,-1.33504 z"
     style="fill:#987db7;fill-opacity:1;fill-rule:evenodd;stroke:#232323;stroke-width:0.982677;stroke-linecap:square;stroke-linejoin:bevel;stroke-miterlimit:10;stroke-dasharray:none;stroke-opacity:1"
     id="path78" />
  <path
     d="m 748.64578,363.64854 0.2481,-0.80269 0.68281,-2.51991 0.14923,-0.48384 -0.6893,0.12297 -1.99561,0.61515 -2.29499,0.53883 -0.8237,-0.15077 -0.85243,-0.3411 -2.45287,-1.32422 -0.79219,-0.4684 -0.86695,0.37231 -0.87005,0.076 -0.87004,0.076 -1.68973,0.14799 -1.13019,0.0986 -0.36273,0.0318 -0.23234,0.0188 -1.57201,0.1273 -0.82679,0.0667 -0.90187,0.0729 -1.6922,0.13687 -1.80714,0.14645 -0.77951,0.063 -0.86789,0.0701 -1.60321,0.12204 -0.1721,0.0151 -1.46882,0.13996 -1.16047,0.11432 -0.58919,0.043 -1.72928,0.15571 -0.29104,0.0263 -1.33628,0.12018 -0.96149,0.0865 -0.27684,0.0247 -2.71981,0.2447 -0.8892,0.08 -2.25606,0.1687 -6.50155,0.73595 -1.64369,0.11401 -0.58487,0.0522 -1.91126,1.43206 -0.55088,0.42544 -0.47055,0.43348 -0.59507,0.42822 -0.37848,0.30619 -1.65945,1.30692 -1.49756,1.14255 -2.02402,1.93227 0.72915,0.56262 1.19322,1.29147 0.72947,1.45677 0.59661,1.39034 0.66304,1.45677 1.19322,2.38397 0.76253,1.25811 0.99425,1.22504 0.72946,0.86078 1.06068,0.69517 0.92813,0.46376 1.06067,0.3309 1.49169,0.33121 1.48735,0.95624 1.10857,0.99796 0.62503,0.90959 0.28085,0.86016 0.35778,1.23802 0.19002,1.03905 0.10103,2.02156 0.0516,1.52288 0.19434,2.0126 0.46191,2.1436 0.6859,1.61619 1.16603,1.79416 1.42587,1.71661 1.27541,0.541 2.11239,0.13749 4.25167,-0.96243 6.82873,-0.19866 4.31593,0.36736 3.04609,-7.99107 -0.52184,-0.1897 3.01796,-10.19491 1.95637,-6.26025 0.43996,0.13471 2.22949,0.68189 0.33492,0.10937 1.93567,0.62813 1.02916,0.35191 0.19248,-0.82092 -0.31607,-0.23698 1.27016,-4.35177 1.29209,-4.77567 1.6026,-5.84654 z"
     style="fill:#987db7;fill-opacity:1;fill-rule:evenodd;stroke:#232323;stroke-width:0.982677;stroke-linecap:square;stroke-linejoin:bevel;stroke-miterlimit:10;stroke-dasharray:none;stroke-opacity:1"
     id="path80" />
  <path
     d="m 932.89351,262.96002 -1.19909,1.37675 -2.15658,2.37563 -2.05245,2.39077 -1.94401,2.25235 -2.05801,2.35987 -2.42352,2.80911 -1.90137,2.20199 -1.06624,1.23493 -0.92164,0.98591 -2.81529,3.22281 -0.80825,0.91516 -0.95161,1.07736 -2.01754,2.28417 -0.40907,0.47643 -0.0599,0.0695 -0.63059,0.72422 1.90013,1.53895 0.69424,0.59568 2.32156,2.09911 0.0735,0.0664 0.20391,0.18445 0.1341,0.12266 0.11493,0.10505 2.87276,2.40282 0.24253,0.20268 2.98089,2.71302 2.64505,2.14792 1.75986,1.72371 -0.18167,0.28858 0.12173,0.10906 1.99468,1.78644 0.28363,0.25396 1.39838,-3.54042 0.50145,-0.78477 0.005,-0.61299 0.30866,-0.61546 0.0871,-0.47766 -0.0383,-0.51319 0.0355,-0.34696 0.18693,-0.42823 0.0636,-0.12142 0.11741,-0.6445 0.65624,-1.08014 0.37478,-0.21999 0.39609,-0.38497 0.94389,-1.17283 2.15781,-2.01043 1.34338,-1.51146 1.84977,-2.64103 1.90693,-1.94864 2.7433,-2.55081 2.07809,-2.04535 0.83544,-1.96316 0.61917,-0.85182 0.63276,-2.08489 0.46097,-0.75696 0.20855,-0.54162 0.10938,-0.47673 -0.56355,-0.26478 -0.39764,-0.52988 -0.13255,-0.62905 v -0.52957 l -0.19897,-0.46375 -0.25366,-0.26324 -0.67447,-0.29939 -0.31978,-0.19712 -0.27683,-0.66365 -0.96119,-0.72854 -0.33152,-0.69517 -0.46407,-0.43039 -0.53296,-0.53204 -0.92937,-0.92844 -0.19526,-0.19495 -0.68436,-1.02484 -1.37088,-1.75616 -1.35913,-1.2581 -0.6961,-0.43039 -0.88333,-0.69362 -0.50886,-0.59754 -1.09374,-0.96026 -0.55335,-0.25552 -1.34709,1.55533 z"
     style="fill:#987db7;fill-opacity:1;fill-rule:evenodd;stroke:#232323;stroke-width:0.982677;stroke-linecap:square;stroke-linejoin:bevel;stroke-miterlimit:10;stroke-dasharray:none;stroke-opacity:1"
     id="path82" />
  <path
     d="m 780.78275,320.91686 -0.12236,-0.14923 -0.28888,-3.3949 -0.0488,-1.92794 0.0157,-0.26694 0.093,-1.5782 0.52462,-3.76628 0.43719,-3.27101 -2.23536,-0.45757 -1.01773,-0.21226 -1.53772,-0.30217 -2.58943,-0.51226 -2.59191,-0.52154 -0.51751,-0.10412 -2.52023,-0.46623 -1.39281,-0.28023 -1.1614,-0.23357 -2.58542,-0.51845 -2.64288,-0.52987 -0.36304,-0.0949 -1.93164,-0.41433 -0.11216,-0.021 -0.23944,-0.0358 -0.50702,5.84283 0.004,0.24284 -0.24346,2.2712 -0.30217,3.37575 0.0525,3.19563 0.0232,1.42031 0.064,2.29838 0.0606,2.31292 0.29722,5.83974 0.34882,3.68471 0.80794,5.87558 0.0306,0.22246 0.53482,3.62447 0.55799,3.67575 0.45974,3.83456 0.50547,3.67544 0.48136,3.8528 0.48075,3.82405 -0.0862,0.4239 0.0936,0.10937 0.47055,0.10413 1.6647,0.8478 7.22051,2.61476 1.01989,0.0806 5.2419,-0.55675 8.31671,0.23728 0.34728,-0.059 -0.0655,-0.44089 -0.14367,-0.38682 -0.18723,-0.7752 -0.16252,-0.78662 -0.25119,-1.97212 -0.131,-0.72483 -0.40968,-3.17616 -0.21535,-1.60229 -0.28611,-2.1436 -0.28795,-2.50292 -0.10907,-0.93061 -0.0395,-0.36025 -0.46963,-3.60346 -0.57591,-3.81138 -0.48785,-3.7564 -0.0362,-0.17673 -0.19836,-1.53061 -0.72607,-5.27928 -0.32966,-3.34361 -0.002,-0.12822 0.0284,-0.19311 0.29939,-0.0349 -0.0881,-0.3791 -0.24253,-5.77363 z"
     style="fill:#987db7;fill-opacity:1;fill-rule:evenodd;stroke:#232323;stroke-width:0.982677;stroke-linecap:square;stroke-linejoin:bevel;stroke-miterlimit:10;stroke-dasharray:none;stroke-opacity:1"
     id="path84" />
  <path
     d="m 713.04686,361.43203 2.71981,-0.2447 0.27684,-0.0247 0.96149,-0.0865 1.33628,-0.12018 0.29104,-0.0263 1.72928,-0.15571 0.58919,-0.043 1.16047,-0.11432 1.46882,-0.13996 0.1721,-0.0151 1.60321,-0.12204 0.86789,-0.0701 0.77951,-0.063 1.80714,-0.14645 1.6922,-0.13687 0.90187,-0.0729 0.82679,-0.0667 1.57201,-0.1273 0.23234,-0.0188 0.36273,-0.0318 1.13019,-0.0986 1.68973,-0.14799 0.87004,-0.076 0.87005,-0.076 0.86695,-0.37231 0.79219,0.4684 2.45287,1.32422 0.85243,0.3411 0.8237,0.15077 2.29499,-0.53883 1.99561,-0.61515 0.6893,-0.12297 1.27139,-0.22647 3.53363,0.31329 2.92466,0.74213 3.00128,0.53266 1.16171,0.25705 -0.0936,-0.10937 -0.27714,-0.37848 -0.48044,-3.8222 -0.51412,-3.88431 -0.47426,-3.67452 -0.51411,-3.86144 -0.47859,-3.6946 -0.55892,-3.57966 -0.0303,-0.21906 -0.80887,-5.87342 -0.46653,-3.67328 -2.59623,0.17518 -0.82154,0.0553 -1.77161,0.11957 -2.67285,0.18043 -0.25613,0.0173 -0.35438,0.0238 -0.61052,0.0411 -0.54285,0.0368 -0.94512,0.0636 -1.78273,0.1205 -0.74862,0.0504 -1.12031,0.0757 -0.76778,0.0516 -0.76746,0.0519 -0.30681,0.0207 -1.8476,0.12451 -0.41093,0.0278 -1.41258,0.0955 -1.29518,0.0871 -0.57004,0.0386 -2.09479,0.14119 -2.48809,0.16808 -0.39949,0.0269 -2.45472,0.16499 -0.19558,0.0133 -2.60087,0.17488 -2.68799,0.18074 -0.22987,0.0155 -2.11208,0.14212 -0.22029,0.0238 -2.53599,0.17488 -0.17549,0.012 -2.61755,0.15355 -0.50021,0.0402 -2.14329,0.13532 -2.61168,0.18693 -0.21597,0.034 0.11,0.14182 0.0874,0.23141 0.34357,2.91725 0.90249,6.12553 0.27467,2.6018 0.0121,0.0809 0.50145,3.82406 0.1585,1.13328 0.36179,2.58326 0.53915,3.71592 0.41432,3.74959 0.30495,2.39108 z"
     style="fill:#987db7;fill-opacity:1;fill-rule:evenodd;stroke:#232323;stroke-width:0.982677;stroke-linecap:square;stroke-linejoin:bevel;stroke-miterlimit:10;stroke-dasharray:none;stroke-opacity:1"
     id="path86" />
  <path
     d="m 736.56247,283.09834 -0.53976,-0.13347 -0.33461,-0.0859 -1.88901,-0.45387 -0.0179,0.21566 -0.41463,4.96599 -0.35067,4.72623 -0.23049,4.13858 0.20793,0.42483 -0.40227,5.95993 -0.3102,4.59863 -0.3102,4.59894 -0.31576,4.66784 -0.33832,4.72963 -0.26231,4.54488 -0.31669,4.46083 2.48809,-0.16808 2.09479,-0.14119 0.57004,-0.0386 1.29518,-0.0871 1.41258,-0.0955 0.41093,-0.0278 1.8476,-0.12451 0.30681,-0.0207 0.76746,-0.0519 0.76778,-0.0516 1.12031,-0.0757 0.74862,-0.0504 1.78273,-0.1205 0.94512,-0.0636 0.54285,-0.0368 0.61052,-0.0411 0.35438,-0.0238 0.25613,-0.0173 2.67285,-0.18043 1.77161,-0.11957 0.82154,-0.0553 2.59623,-0.17518 -0.19558,-5.84283 -0.0646,-2.25143 0.006,-2.40807 -0.0309,-4.6181 0.51319,-5.66394 0.0343,-0.28888 0.47827,-5.81935 -0.0609,-0.0139 -1.41815,-0.32595 -1.77377,-0.37663 -1.45399,-0.30928 -0.0188,-0.076 -0.2308,-0.92288 -0.47086,-1.49045 -0.83019,-2.55081 -0.71278,-2.51312 -0.77365,-2.55637 -0.43811,-1.47098 -0.3343,-1.20713 -0.5892,-2.10374 -1.97119,-0.46746 -2.37965,-0.5478 -2.49149,-0.57004 -2.44515,-0.57374 -2.70715,-0.62319 z"
     style="fill:#987db7;fill-opacity:1;fill-rule:evenodd;stroke:#232323;stroke-width:0.982677;stroke-linecap:square;stroke-linejoin:bevel;stroke-miterlimit:10;stroke-dasharray:none;stroke-opacity:1"
     id="path88" />
  <path
     d="m 730.33807,330.48396 0.33183,-4.53777 0.28085,-4.51583 0.31947,-4.73117 0.31638,-4.67001 0.31267,-4.61964 0.30927,-4.57144 0.31854,-4.70955 0.0884,-1.30537 0.16993,-0.35161 0.23049,-4.13858 0.35067,-4.72623 0.41463,-4.96599 0.0179,-0.21566 -5.56013,-1.31526 -2.6262,-0.57808 -2.50416,-0.62441 -2.6401,-0.61361 -2.69325,-0.62689 -0.89414,-0.21071 -1.59426,-0.37601 -2.42599,-0.49126 -0.10227,1.31496 -0.28548,4.51737 -0.21875,2.91972 -0.034,0.69949 -0.13626,1.07798 -0.22029,3.20397 -0.0998,1.45244 -0.10629,1.46233 -0.0673,2.37749 -0.44059,4.94096 -0.0534,0.90156 -0.0466,0.60124 -0.1826,2.90211 -0.2515,3.26421 -0.0856,1.11197 -0.0226,0.33182 -0.0905,1.42928 -0.23296,3.36524 -0.23729,4.40058 -0.1276,1.69993 -0.0207,0.38497 -0.15139,2.51404 -0.21133,3.69986 -0.10351,1.7095 -0.0797,2.03021 2.61168,-0.18693 2.14329,-0.13532 0.50021,-0.0402 2.61755,-0.15355 0.17549,-0.012 2.53599,-0.17488 0.22029,-0.0238 2.11208,-0.14212 0.22987,-0.0155 2.68799,-0.18074 2.60087,-0.17488 0.19558,-0.0133 2.45472,-0.16499 z"
     style="fill:#987db7;fill-opacity:1;fill-rule:evenodd;stroke:#232323;stroke-width:0.982677;stroke-linecap:square;stroke-linejoin:bevel;stroke-miterlimit:10;stroke-dasharray:none;stroke-opacity:1"
     id="path90" />
  <path
     d="m 729.24186,434.7228 -1.1478,1.39466 -0.55923,0.69548 -1.34677,1.78366 -0.28981,0.35592 8.14184,8.53824 3.58708,3.35166 3.25494,-0.62226 4.96568,0.29135 4.70708,0.52957 4.64745,0.0399 5.56878,0.99332 9.08264,1.98633 2.45317,0.26509 0.98808,0.19187 0.55644,0.10783 1.4129,-1.42927 1.20063,-1.21454 0.87715,-0.89693 1.49601,-1.52937 0.20021,-0.21257 2.64165,-2.52548 3.35566,-3.48574 2.10931,-2.43742 1.06963,-1.33288 0.97664,-1.21732 1.027,-1.19538 0.25613,-0.32967 -0.99672,-1.69652 -2.18778,-3.44341 -2.79119,-2.95 -5.3698,-3.77462 -6.23213,-3.90686 -5.50235,-3.04609 -2.21003,-0.89661 -0.13162,-0.059 -0.0395,0.17889 -0.13254,0.83204 0.0578,0.32287 0.17828,0.29382 0.58023,0.49249 0.72916,0.47581 0.99456,0.70784 -1.00692,2.92589 -1.11042,3.22003 -0.19063,0.5339 -0.13687,0.28146 -0.27745,0.36396 -0.97787,0.98931 -0.84719,0.93647 -0.10195,0.15201 -0.17426,0.51628 -1.25934,3.97823 -0.68776,2.0404 -0.5345,1.72588 -0.12019,0.25243 -1.3301,1.61804 -0.37292,-0.0828 -0.31081,-0.0538 -0.51381,-0.0785 -0.65872,-0.15325 -4.77721,-1.53803 -2.64505,-0.64512 -4.40614,-1.39837 -2.06512,-0.66119 -2.44917,-0.7894 -1.71475,-0.59229 -1.05851,-0.40443 -1.93721,-0.66057 -1.72835,-0.65408 -0.0791,-0.03 -1.68447,-0.56324 -0.29228,-0.19465 -0.55429,0.67355 -2.04998,2.51713 -0.12544,0.148 z"
     style="fill:#987db7;fill-opacity:1;fill-rule:evenodd;stroke:#232323;stroke-width:0.982677;stroke-linecap:square;stroke-linejoin:bevel;stroke-miterlimit:10;stroke-dasharray:none;stroke-opacity:1"
     id="path92" />
  <path
     d="m 722.77801,442.77256 0.89075,1.02639 2.02433,2.20168 1.86244,2.0818 2.59809,2.69016 2.29962,2.52455 0.31669,0.2793 0.87931,-1.01216 0.88642,-0.35439 1.10919,-0.46684 1.98232,-0.90063 -3.58708,-3.35166 -8.14184,-8.53824 0.28981,-0.35592 1.34677,-1.78366 0.55923,-0.69548 1.1478,-1.39466 0.12544,-0.148 2.04998,-2.51713 0.55429,-0.67355 0.29228,0.19465 1.68447,0.56324 0.0791,0.03 1.72835,0.65408 1.93721,0.66057 1.05851,0.40443 1.71475,0.59229 2.44917,0.7894 2.06512,0.66119 4.40614,1.39837 2.64505,0.64512 4.77721,1.53803 0.65872,0.15325 0.51381,0.0785 0.31081,0.0538 0.37292,0.0828 1.3301,-1.61804 0.12019,-0.25243 0.5345,-1.72588 0.68776,-2.0404 1.25934,-3.97823 0.17426,-0.51628 0.10195,-0.15201 0.84719,-0.93647 0.97787,-0.98931 0.27745,-0.36396 0.13687,-0.28146 0.19063,-0.5339 1.11042,-3.22003 1.00692,-2.92589 -0.99456,-0.70784 -0.72916,-0.47581 -0.58023,-0.49249 -0.17828,-0.29382 -0.0578,-0.32287 0.13254,-0.83204 0.0395,-0.17889 -0.12019,-0.0479 -0.7205,-0.32071 -2.57893,-1.08941 -3.98441,-0.30124 -7.2928,-1.32422 h -3.6461 l -6.15921,-1.48674 -3.28337,-2.26378 -1.15954,-1.01063 -2.054,-2.88388 -2.91694,-3.90685 -4.31593,-0.36736 -6.82873,0.19866 -4.25167,0.96243 -2.24525,0.82555 -6.1657,2.84711 -5.62871,2.81776 -4.24951,3.40695 -2.66513,3.40418 -1.37891,1.76079 -4.01685,3.78389 0.27344,0.14799 3.33465,2.16152 4.05053,2.51837 2.15441,1.28313 1.44194,0.91052 0.24872,0.14058 0.48075,0.28147 3.79686,2.18067 2.66668,1.55687 0.81783,0.46623 0.37477,0.21751 3.56916,2.147 3.44589,2.10837 1.89457,1.14039 2.45287,1.46697 1.29611,0.96181 1.08848,1.03286 z"
     style="fill:#987db7;fill-opacity:1;fill-rule:evenodd;stroke:#232323;stroke-width:0.982677;stroke-linecap:square;stroke-linejoin:bevel;stroke-miterlimit:10;stroke-dasharray:none;stroke-opacity:1"
     id="path94" />
  <path
     d="m 701.07818,396.20262 -0.17796,-0.0973 -0.91176,-0.3 -1.09373,-0.35593 -2.0469,-0.62071 -0.33584,-0.10567 -1.99499,-0.61854 -1.9579,-0.60836 -2.02805,-0.61484 -1.95389,-0.5688 -2.06327,-0.60217 -1.94524,-0.59908 -2.04226,-0.63771 -1.97645,-0.61731 -1.9335,-0.53018 -0.2379,-0.0538 -1.14533,-0.23512 -1.06995,2.14761 -0.56355,1.64709 -0.86603,2.53691 -0.50145,1.39467 -0.12976,0.29907 -0.19743,0.45418 -0.40196,1.08849 -0.41989,1.14193 -0.7996,2.26409 -1.06562,3.15762 -0.66705,1.60415 -0.78879,-0.064 8.99366,4.36598 6.90845,2.00735 3.96927,1.10424 2.261,1.50558 2.8916,0.81351 2.66513,-3.40418 4.24951,-3.40695 5.62871,-2.81776 6.1657,-2.84711 2.24525,-0.82555 -2.11239,-0.13749 -1.27541,-0.541 -1.42587,-1.71661 -1.1098,0.52771 -0.89075,0.23574 -0.58425,-0.0704 -0.41865,-0.11154 -0.58826,-0.30216 -1.15615,-0.87746 -0.8824,-0.65377 -0.88673,-0.74492 -1.72804,-1.44039 -0.78107,-0.58982 -0.82246,-0.5793 z"
     style="fill:#987db7;fill-opacity:1;fill-rule:evenodd;stroke:#232323;stroke-width:0.982677;stroke-linecap:square;stroke-linejoin:bevel;stroke-miterlimit:10;stroke-dasharray:none;stroke-opacity:1"
     id="path96" />
  <path
     d="m 683.99212,426.36005 3.77679,3.68533 2.92373,2.90025 0.59661,-0.57127 4.43364,4.24641 1.73206,1.69683 1.52474,1.47315 1.49168,1.4237 1.44658,1.37613 2.24308,2.23876 2.00271,1.9539 2.06141,1.9715 1.63257,1.58653 2.26533,2.13866 1.69251,1.79045 3.77339,3.30716 0.97355,0.85305 0.40721,0.30124 4.22046,4.62026 2.42197,3.17647 2.38676,3.06276 2.40313,2.96328 2.76368,3.53487 2.76462,3.41499 2.43403,3.11282 0.45108,0.59383 3.44651,-2.72106 2.07037,-1.59024 3.18264,-2.37223 3.19038,-2.53289 1.32607,-1.15893 2.6228,-2.09416 3.605,-2.80169 3.01179,-2.41456 0.31113,-0.2135 6.37302,-5.08648 2.90025,-2.64876 2.60797,-2.55854 0.38806,-0.39269 -0.55644,-0.10783 -0.98808,-0.19187 -2.45317,-0.26509 -9.08264,-1.98633 -5.56878,-0.99332 -4.64745,-0.0399 -4.70708,-0.52957 -4.96568,-0.29135 -3.25494,0.62226 -1.98232,0.90063 -1.10919,0.46684 -0.88642,0.35439 -0.87931,1.01216 -0.31669,-0.2793 -2.29962,-2.52455 -2.59809,-2.69016 -1.86244,-2.0818 -2.02433,-2.20168 -0.89075,-1.02639 -1.08848,-1.03286 -1.29611,-0.96181 -2.45287,-1.46697 -1.89457,-1.14039 -3.44589,-2.10837 -3.56916,-2.147 -0.37477,-0.21751 -0.81783,-0.46623 -2.66668,-1.55687 -3.79686,-2.18067 -0.48075,-0.28147 -0.24872,-0.14058 -1.44194,-0.91052 -2.15441,-1.28313 -4.05053,-2.51837 -3.33465,-2.16152 -0.27344,-0.14799 -0.8892,0.8512 -2.24741,1.82443 -2.26162,1.63412 z"
     style="fill:#987db7;fill-opacity:1;fill-rule:evenodd;stroke:#232323;stroke-width:0.982677;stroke-linecap:square;stroke-linejoin:bevel;stroke-miterlimit:10;stroke-dasharray:none;stroke-opacity:1"
     id="path98" />
  <path
     d="m 716.8051,499.51394 0.31484,0.43224 0.23821,0.30248 1.97707,-1.52443 0.21874,-0.17827 0.20948,-0.17086 1.55008,-1.28097 1.76913,-1.4027 3.10849,-2.45349 5.01945,-3.96185 1.13791,-0.95903 4.86774,-3.84321 1.5992,-1.26274 -0.45108,-0.59383 -2.43403,-3.11282 -2.76462,-3.41499 -2.76368,-3.53487 -2.40313,-2.96328 -2.38676,-3.06276 -2.42197,-3.17647 -4.22046,-4.62026 -0.40721,-0.30124 -0.97355,-0.85305 -0.31484,0.87993 -2.12166,2.25173 -3.31488,2.11888 -3.57998,2.38398 -1.92268,0.72823 -4.24302,-1.98665 -1.69621,-1.14811 -3.01056,-0.63956 -4.70058,0.70197 -3.18234,1.65543 1.82258,2.73681 1.60816,2.10096 3.44743,4.47042 3.36988,4.16638 1.77902,2.18593 2.36049,3.09119 0.6065,0.69363 0.43842,0.55644 0.20113,0.17735 0.20207,0.1035 0.36674,0.13162 0.1035,0.33523 0.0809,0.16746 0.12822,0.18012 0.7168,0.95594 0.27961,-0.23419 3.54846,4.81985 1.70858,2.24401 1.67335,2.20508 2.86101,3.90284 z"
     style="fill:#987db7;fill-opacity:1;fill-rule:evenodd;stroke:#232323;stroke-width:0.982677;stroke-linecap:square;stroke-linejoin:bevel;stroke-miterlimit:10;stroke-dasharray:none;stroke-opacity:1"
     id="path100" />
  <path
     d="m 685.06299,470.59268 -1.03657,0.61237 -0.87746,0.52925 -0.29785,0.17982 -1.92176,1.1719 -1.86584,1.082 -2.01506,1.20342 -1.96687,0.97416 -2.00117,1.12556 -1.87696,1.10918 -2.98522,1.71507 -1.80033,1.01711 -0.66613,0.4239 -1.24451,0.95316 -0.8339,0.60031 -3.91026,2.62435 2.39479,3.08841 3.48234,4.46485 0.19002,0.29506 2.01475,2.7365 4.71944,6.29485 1.02978,1.43823 5.56075,7.6339 0.20546,0.27838 2.91076,3.78544 5.79247,7.52113 0.93369,-0.73719 4.04806,-3.19624 3.73785,-3.00839 3.76257,-2.96607 0.77303,-0.60464 1.23926,-0.96953 7.12164,-5.63984 0.25706,-0.20361 0.47828,-0.37879 6.59608,-5.22336 -0.21936,-0.32998 -3.16689,-4.35053 -1.69931,-2.17387 -5.19153,-7.0926 -0.7168,-0.95594 -0.12822,-0.18012 -0.0809,-0.16746 -0.1035,-0.33523 -0.36674,-0.13162 -0.20207,-0.1035 -0.20113,-0.17735 -0.43842,-0.55644 -0.6065,-0.69363 -2.36049,-3.09119 -1.77902,-2.18593 -3.36988,-4.16638 -3.44743,-4.47042 -1.60816,-2.10096 -1.82258,-2.73681 -4.18308,2.87369 -1.61526,0.46561 1.35913,2.73001 z"
     style="fill:#987db7;fill-opacity:1;fill-rule:evenodd;stroke:#232323;stroke-width:0.982677;stroke-linecap:square;stroke-linejoin:bevel;stroke-miterlimit:10;stroke-dasharray:none;stroke-opacity:1"
     id="path102" />
  <path
     d="m 659.7631,485.91424 3.91026,-2.62435 0.8339,-0.60031 1.24451,-0.95316 0.66613,-0.4239 1.80033,-1.01711 2.98522,-1.71507 1.87696,-1.10918 2.00117,-1.12556 1.96687,-0.97416 2.01506,-1.20342 1.86584,-1.082 1.92176,-1.1719 0.29785,-0.17982 0.87746,-0.52925 1.03657,-0.61237 -1.35913,-2.73001 1.61526,-0.46561 4.18308,-2.87369 3.18234,-1.65543 4.70058,-0.70197 3.01056,0.63956 1.69621,1.14811 4.24302,1.98665 1.92268,-0.72823 3.57998,-2.38398 3.31488,-2.11888 2.12166,-2.25173 0.31484,-0.87993 -3.77339,-3.30716 -1.69251,-1.79045 -2.26533,-2.13866 -1.63257,-1.58653 -2.06141,-1.9715 -2.00271,-1.9539 -2.24308,-2.23876 -1.44658,-1.37613 -1.49168,-1.4237 -1.52474,-1.47315 -1.73206,-1.69683 -4.43364,-4.24641 -0.59661,0.57127 -2.92373,-2.90025 -3.77679,-3.68533 -0.85429,0.61731 -2.98985,1.95018 -1.52505,1.32423 -3.97761,-0.0661 -3.37451,0.16869 -6.09928,-1.05944 -4.24981,-1.55934 -5.36332,-2.14885 -2.85081,1.05944 -3.51355,0.72854 -2.25421,0.19866 -3.6464,-0.72854 -2.78439,-0.92689 -2.98676,0.49311 -4.72222,3.0087 -4.18833,1.92639 -2.50663,2.06636 -0.79435,0.47951 -1.2442,0.28857 -3.55556,-0.0272 -1.06346,0.70105 0.87962,1.0684 4.88875,6.3174 1.96811,2.49983 2.00796,2.53413 1.94308,2.316 1.92701,2.45164 1.89396,2.46275 1.97861,2.54804 1.91898,2.29066 2.17943,2.88913 2.75751,3.51695 5.19957,6.5312 4.25476,5.73501 6.34273,8.04266 0.17549,-0.14398 z"
     style="fill:#987db7;fill-opacity:1;fill-rule:evenodd;stroke:#232323;stroke-width:0.982677;stroke-linecap:square;stroke-linejoin:bevel;stroke-miterlimit:10;stroke-dasharray:none;stroke-opacity:1"
     id="path104" />
  <path
     d="m 694.10824,368.05778 1.49756,-1.14255 1.65945,-1.30692 0.37848,-0.30619 0.59507,-0.42822 0.47055,-0.43348 -0.17457,-1.82258 -4.45156,0.47642 -2.42074,0.28672 -1.36933,-0.0142 -0.76284,-0.39455 -0.18352,-0.11493 -1.60229,-0.80146 -0.22709,-0.11339 -1.13823,-0.66736 -0.31298,-0.22987 -0.20917,-0.19836 -0.0983,-0.13687 -0.76191,1.88283 -0.67632,2.48871 -0.0899,0.25274 -0.99981,3.10046 -0.13316,0.54069 -0.0813,0.33151 -0.37786,1.57233 -0.19589,0.75449 -0.13471,0.51752 -0.16344,0.61453 -0.11833,0.45108 -0.0785,0.27776 -0.0436,0.1548 -0.11401,0.3 -0.12637,0.18013 -4.35177,14.12061 -0.0788,0.78694 1.14533,0.23512 0.2379,0.0538 1.9335,0.53018 1.97645,0.61731 2.04226,0.63771 1.94524,0.59908 2.06327,0.60217 1.95389,0.5688 2.02805,0.61484 1.9579,0.60836 1.99499,0.61854 0.33584,0.10567 2.0469,0.62071 1.09373,0.35593 0.91176,0.3 0.17796,0.0973 0.82246,0.5793 0.78107,0.58982 1.72804,1.44039 0.88673,0.74492 0.8824,0.65377 1.15615,0.87746 0.58826,0.30216 0.41865,0.11154 0.58425,0.0704 0.89075,-0.23574 1.1098,-0.52771 -1.16603,-1.79416 -0.6859,-1.61619 -0.46191,-2.1436 -0.19434,-2.0126 -0.0516,-1.52288 -0.10103,-2.02156 -0.19002,-1.03905 -0.35778,-1.23802 -0.28085,-0.86016 -0.62503,-0.90959 -1.10857,-0.99796 -1.48735,-0.95624 -1.49169,-0.33121 -1.06067,-0.3309 -0.92813,-0.46376 -1.06068,-0.69517 -0.72946,-0.86078 -0.99425,-1.22504 -0.76253,-1.25811 -1.19322,-2.38397 -0.66304,-1.45677 -0.59661,-1.39034 -0.72947,-1.45677 -1.19322,-1.29147 -0.72915,-0.56262 2.02402,-1.93227 z"
     style="fill:#987db7;fill-opacity:1;fill-rule:evenodd;stroke:#232323;stroke-width:0.982677;stroke-linecap:square;stroke-linejoin:bevel;stroke-miterlimit:10;stroke-dasharray:none;stroke-opacity:1"
     id="path106" />
  <path
     d="m 697.4049,332.72519 -0.95439,0.15201 -1.65327,0.1344 -1.42124,0.0599 -0.44028,-0.0365 -0.32317,0.017 -2.22702,0.11185 -2.2885,0.0915 -2.34566,0.16653 0.19928,4.73458 0.27312,4.57793 0.30248,4.59771 0.27343,4.58967 0.15758,2.06944 0.24964,3.03218 -0.56942,1.85132 -0.43348,0.95563 -0.39177,0.78291 -0.0534,0.0967 0.0983,0.13687 0.20917,0.19836 0.31298,0.22987 1.13823,0.66736 0.22709,0.11339 1.60229,0.80146 0.18352,0.11493 0.76284,0.39455 1.36933,0.0142 2.42074,-0.28672 4.45156,-0.47642 0.17457,1.82258 0.55088,-0.42544 1.91126,-1.43206 0.58487,-0.0522 1.64369,-0.11401 6.50155,-0.73595 2.25606,-0.1687 0.8892,-0.08 -0.30495,-2.39108 -0.41432,-3.74959 -0.53915,-3.71592 -0.36179,-2.58326 -0.1585,-1.13328 -0.50145,-3.82406 -0.0121,-0.0809 -0.27467,-2.6018 -0.90249,-6.12553 -0.34357,-2.91725 -0.0874,-0.23141 -0.11,-0.14182 -0.21195,0.0303 -0.84718,0.0738 -0.5447,0.0303 -0.58673,0.0331 -2.34998,0.16252 -0.27282,0.0158 -2.01476,0.13131 -1.68478,0.10505 -0.60804,0.0368 -2.51065,0.17024 z"
     style="fill:#987db7;fill-opacity:1;fill-rule:evenodd;stroke:#232323;stroke-width:0.982677;stroke-linecap:square;stroke-linejoin:bevel;stroke-miterlimit:10;stroke-dasharray:none;stroke-opacity:1"
     id="path108" />
  <path
     d="m 619.44753,434.85442 1.06346,-0.70105 3.55556,0.0272 1.2442,-0.28857 0.79435,-0.47951 2.50663,-2.06636 4.18833,-1.92639 4.72222,-3.0087 2.98676,-0.49311 2.78439,0.92689 3.6464,0.72854 2.25421,-0.19866 3.51355,-0.72854 2.85081,-1.05944 5.36332,2.14885 4.24981,1.55934 6.09928,1.05944 3.37451,-0.16869 3.97761,0.0661 1.52505,-1.32423 2.98985,-1.95018 0.85429,-0.61731 2.26162,-1.63412 2.24741,-1.82443 0.8892,-0.8512 4.01685,-3.78389 1.37891,-1.76079 -2.8916,-0.81351 -2.261,-1.50558 -3.96927,-1.10424 -6.90845,-2.00735 -8.99366,-4.36598 0.78879,0.064 0.66705,-1.60415 1.06562,-3.15762 0.7996,-2.26409 0.41989,-1.14193 0.40196,-1.08849 0.19743,-0.45418 0.12976,-0.29907 0.50145,-1.39467 0.86603,-2.53691 0.56355,-1.64709 -3.2982,0.16128 -4.41881,0.19279 -0.13873,0.006 -0.14088,0.008 -4.47412,0.26139 -4.56804,0.29104 -0.3445,0.0185 -1.8816,0.11216 -1.84452,0.10381 -1.87078,0.10505 -1.69992,0.0958 -1.7645,0.11957 -0.24192,-4.11448 -0.0105,-0.15726 -0.27344,-4.20594 -1.78551,0.11308 -1.76356,0.0884 -1.80343,0.11123 -1.7988,0.10876 -1.98046,0.0806 -2.1266,0.10381 -1.73453,0.11617 -0.0219,-0.30495 -0.21102,-4.2186 -1.84421,0.1174 -0.23883,-4.22911 -0.19712,-4.18832 -1.78365,0.0973 -1.81394,0.11834 -1.8164,0.114 -1.81053,0.1103 -1.82135,0.0658 -1.76357,0.10443 -1.86121,0.0745 -0.39269,0.0235 -1.80188,0.13748 -1.81023,0.0853 -1.8198,0.11339 -1.88592,0.13038 -0.0204,-0.4344 -0.13131,-4.17597 -0.25737,-4.23035 -0.29691,-4.10459 -0.23173,-4.19976 -0.12698,-4.66908 0.31514,-0.0238 -0.25057,-4.33786 -2.35215,0.12667 -2.32774,0.12544 -2.21651,0.11957 -2.41796,0.13039 -2.30611,0.12204 -0.31669,0.0195 -2.31384,0.17333 -3.41251,0.25521 -2.28943,0.17147 -2.28418,0.17117 -2.23351,0.16715 -0.0788,4.01778 -1.31681,0.16035 -1.63288,-0.0825 -11.06125,3.90377 -0.10968,0.0383 -3.91767,0.58641 -2.57399,0.39115 -2.61106,0.3859 -2.72105,0.41741 -2.37718,0.36458 -2.82486,0.5549 -4.22231,0.98714 -0.2549,0.15727 -0.22153,0.22956 -1.68849,2.36636 0.51783,2.17789 0.002,0.45881 -0.1653,0.24686 -0.2864,0.45418 -0.12359,0.18755 -0.30248,0.46746 -0.40938,0.61237 -0.94944,1.39096 -0.26108,0.40845 0.38528,0.30494 3.71499,3.29604 0.64543,0.58302 1.6474,1.48581 1.36068,1.22412 0.93585,0.84193 0.74955,0.67447 0.31298,0.28764 0.18446,0.1687 2.74453,2.50756 2.86101,2.7436 0.38127,0.33708 1.92207,1.82753 0.49867,0.4755 0.0958,0.37477 0.0967,0.38003 0.3686,0.34233 1.89796,1.76203 1.65482,1.513 5.13654,4.14105 9.7327,8.78696 1.12494,1.01557 1.69127,1.76295 1.01835,0.75078 0.94327,0.7443 2.2128,2.07748 3.53858,3.17029 2.85051,2.48315 3.19655,2.67038 0.1483,-0.1378 2.55328,2.27676 5.17485,4.81583 5.51904,4.83407 1.90601,2.25142 1.99838,2.53599 z"
     style="fill:#987db7;fill-opacity:1;fill-rule:evenodd;stroke:#232323;stroke-width:0.982677;stroke-linecap:square;stroke-linejoin:bevel;stroke-miterlimit:10;stroke-dasharray:none;stroke-opacity:1"
     id="path110" />
  <path
     d="m 675.64822,358.829 -2.65772,0.18847 -1.9267,0.0772 -0.2413,0.013 -4.28473,0.24748 -0.57992,0.0343 -4.09162,0.24253 -1.42186,0.0831 -3.15082,0.18446 0.36025,6.31091 0.21164,4.08328 0.021,0.45325 0.12081,2.1229 0.10505,2.03947 0.11802,2.15194 0.13749,2.06327 0.10443,2.09632 0.11957,2.12476 0.0114,0.31112 -0.31082,0.0198 -1.86893,0.0908 -1.78674,0.11926 -1.79261,0.0887 -1.82969,0.0837 -1.82166,0.1239 0.27344,4.20594 0.0105,0.15726 0.24192,4.11448 1.7645,-0.11957 1.69992,-0.0958 1.87078,-0.10505 1.84452,-0.10381 1.8816,-0.11216 0.3445,-0.0185 4.56804,-0.29104 4.47412,-0.26139 0.14088,-0.008 0.13873,-0.006 4.41881,-0.19279 3.2982,-0.16128 1.06995,-2.14761 0.0788,-0.78694 4.35177,-14.12061 0.12637,-0.18013 0.11401,-0.3 0.0436,-0.1548 0.0785,-0.27776 0.11833,-0.45108 0.16344,-0.61453 0.13471,-0.51752 0.19589,-0.75449 0.37786,-1.57233 0.0813,-0.33151 0.13316,-0.54069 0.99981,-3.10046 0.0899,-0.25274 0.67632,-2.48871 0.76191,-1.88283 0.0534,-0.0967 0.39177,-0.78291 0.43348,-0.95563 -1.70116,0.1724 -2.25823,0.24748 -2.38489,0.21751 -0.0881,-0.87653 -4.55692,0.19341 z"
     style="fill:#987db7;fill-opacity:1;fill-rule:evenodd;stroke:#232323;stroke-width:0.982677;stroke-linecap:square;stroke-linejoin:bevel;stroke-miterlimit:10;stroke-dasharray:none;stroke-opacity:1"
     id="path112" />
  <path
     d="m 647.6625,345.92076 -4.37927,0.28085 -1.61619,0.10351 0.16406,1.69312 -1.85039,0.12452 0.11308,1.7991 -1.11104,0.0312 -0.75047,0.55243 0.14954,1.48458 0.007,0.008 0.006,0.0161 0.19558,2.61106 0.17611,4.20161 0.23975,4.20625 0.25274,4.15588 0.21998,4.21953 0.0201,0.3479 -0.34696,0.0154 -1.87357,0.10257 -1.78519,0.11154 -1.80652,0.0958 0.19712,4.18832 0.23883,4.22911 1.84421,-0.1174 0.21102,4.2186 1.74411,-0.0915 0.0124,0.28023 2.1266,-0.10381 1.98046,-0.0806 -0.0167,-0.30433 1.8025,-0.1239 1.79478,-0.0967 1.78056,-0.11401 1.79292,-0.10196 1.8093,-0.12142 1.82629,-0.0602 1.78396,-0.11463 3.53858,-0.19248 0.1174,-0.006 -0.10319,-2.13495 -0.10907,-2.09014 -0.11462,-2.06327 -0.10412,-2.16924 -0.12204,-2.02959 -0.1446,-2.11703 -0.0192,-0.44954 -0.21875,-4.09317 -0.22894,-4.23837 -0.11185,-2.05647 0.29877,-0.0269 3.15082,-0.18446 1.42186,-0.0831 4.09162,-0.24253 0.57992,-0.0343 4.28473,-0.24748 0.2413,-0.013 1.9267,-0.0772 2.65772,-0.18847 4.55692,-0.19341 0.0881,0.87653 2.38489,-0.21751 2.25823,-0.24748 1.70116,-0.1724 0.56942,-1.85132 -0.24964,-3.03218 -0.15758,-2.06944 -2.29962,0.0664 -2.24988,0.11988 -0.2654,-4.56464 -2.34937,0.14892 -2.31198,0.12822 -2.28387,0.13224 -0.0139,-0.22895 -0.14212,-2.32928 -0.15355,-2.05647 -4.49575,0.2688 -0.36643,0.0235 -4.20563,1.09868 -2.62219,0.12884 -1.9922,0.0979 -4.58473,0.31113 -0.28394,0.0167 -0.18445,0.0164 -1.93443,0.16561 -1.56738,0.11895 -3.5809,0.21751 -1.24945,0.11864 z"
     style="fill:#987db7;fill-opacity:1;fill-rule:evenodd;stroke:#232323;stroke-width:0.982677;stroke-linecap:square;stroke-linejoin:bevel;stroke-miterlimit:10;stroke-dasharray:none;stroke-opacity:1"
     id="path114" />
  <path
     d="m 686.52625,347.33212 -0.30248,-4.59771 -0.27312,-4.57793 -0.19928,-4.73458 -2.28171,0.1341 -2.29715,0.13069 -1.33473,0.0831 -0.94111,0.0491 -2.40498,0.1307 -0.24161,0.0164 -2.0472,0.12297 -2.33979,0.12915 -0.24748,0.01 -2.1059,0.14769 -0.38806,0.0201 -2.19025,0.0989 -1.81486,0.11988 -1.56615,0.0911 -1.0029,0.0371 -2.03453,0.13255 -0.26756,0.0198 -1.80837,0.10845 -0.57993,0.0334 -0.32349,0.0204 -1.21392,0.0593 -0.39764,0.0235 0.26077,4.45651 0.18353,3.47369 0.0967,2.19674 4.58473,-0.31113 1.9922,-0.0979 2.62219,-0.12884 4.20563,-1.09868 0.36643,-0.0235 4.49575,-0.2688 0.15355,2.05647 0.14212,2.32928 0.0139,0.22895 2.28387,-0.13224 2.31198,-0.12822 2.34937,-0.14892 0.2654,4.56464 2.24988,-0.11988 2.29962,-0.0664 -0.27343,-4.58967 z"
     style="fill:#987db7;fill-opacity:1;fill-rule:evenodd;stroke:#232323;stroke-width:0.982677;stroke-linecap:square;stroke-linejoin:bevel;stroke-miterlimit:10;stroke-dasharray:none;stroke-opacity:1"
     id="path116" />
  <path
     d="m 626.44311,372.13859 1.80404,-0.10721 1.83804,-0.10969 1.79724,-0.0976 1.78088,-0.0964 1.8164,-0.10875 1.77222,-0.0973 1.87604,-0.0992 0.35098,-0.0142 -0.21998,-4.21953 -0.25274,-4.15588 -0.23975,-4.20625 -0.17611,-4.20161 -0.19558,-2.61106 -0.006,-0.0161 -0.007,-0.008 -0.14954,-1.48458 0.75047,-0.55243 1.11104,-0.0312 -0.11308,-1.7991 0.0238,-1.57603 -0.0269,-1.18859 -1.906,0.14058 -2.18377,0.1035 -1.93072,0.12204 -1.79416,0.10783 -0.27374,0.0207 -1.37983,0.10536 -1.64401,0.0915 -0.21627,0.012 -1.93907,0.12637 -0.22801,0.0145 -2.20848,0.13656 -2.2953,0.13657 -2.32465,0.17363 -0.49373,0.0349 -2.24123,0.14119 -2.34535,0.0887 -2.2678,0.16622 0.25057,4.33786 -0.31514,0.0238 0.12698,4.66908 0.23173,4.19976 0.29691,4.10459 0.25737,4.23035 0.13131,4.17597 1.91496,-0.11494 1.80868,-0.12667 1.80065,-0.0538 1.79261,-0.10783 0.39084,-0.0306 1.86986,-0.0745 1.76233,-0.0779 1.81795,-0.097 z"
     style="fill:#987db7;fill-opacity:1;fill-rule:evenodd;stroke:#232323;stroke-width:0.982677;stroke-linecap:square;stroke-linejoin:bevel;stroke-miterlimit:10;stroke-dasharray:none;stroke-opacity:1"
     id="path118" />
  <path
     d="m 692.61255,333.05207 0.32317,-0.017 0.43626,-0.11957 1.44596,-0.12791 1.59024,-0.08 0.99672,0.0176 -0.51474,-0.23976 -0.0411,-1.41011 -0.0451,-1.1407 -0.53852,-0.49898 0.089,-1.79694 0.1103,-1.71383 0.089,-1.18364 0.33955,-5.40287 0.14429,-2.26131 0.0813,-1.50311 0.12049,-2.23196 0.0358,-0.73287 0.1517,-2.93393 0.0513,-0.7412 0.0133,-0.22709 0.19341,-3.37668 -0.58023,-1.29116 -1.0026,-1.97398 -1.17684,-1.62639 -0.38528,-0.43039 -0.47673,-0.40567 -0.33121,-0.24006 -0.80362,-0.52741 -0.6031,-0.40381 -0.748,-0.65779 -0.33369,-0.31453 -0.41216,-0.46993 -0.28177,-0.34542 -0.55954,-0.99332 -0.20916,-0.27097 -0.2342,-0.19866 -0.224,-0.0819 -0.40629,-0.0408 -0.1792,-0.38404 -0.20268,-0.43503 -0.15294,-0.31298 -0.22183,-0.45572 -0.31329,-0.49867 -0.31484,-1.37489 -0.31205,-2.72476 -0.672,-2.5502 -0.58796,-2.09478 -0.14274,-0.46684 -5.15941,1.69034 -1.27478,-2.97687 -1.27603,-2.97255 -0.0788,-0.1273 -0.0717,-0.0547 -0.0714,-0.0281 -0.0745,-0.0164 -0.13779,0.0207 -1.42557,0.64697 -0.40382,-0.87066 -1.43545,-3.23641 -0.58023,-1.24111 -2.0988,1.73298 -2.19149,2.56163 0.23296,0.50238 2.03454,4.77072 2.55761,5.57805 4.48678,9.23835 3.2911,7.57057 0.78538,2.09231 0.13255,0.35809 1.77377,4.68792 0.19588,0.51906 0.95439,2.447 0.77705,1.72094 0.88024,2.31816 1.05944,2.51713 0.90063,2.21992 0.6961,1.72927 0.28919,0.73256 0.44707,1.08848 1.58067,4.07246 z"
     style="fill:#987db7;fill-opacity:1;fill-rule:evenodd;stroke:#232323;stroke-width:0.982677;stroke-linecap:square;stroke-linejoin:bevel;stroke-miterlimit:10;stroke-dasharray:none;stroke-opacity:1"
     id="path120" />
  <path
     d="m 697.93601,274.1016 -1.83463,-0.43533 -1.77779,-0.38343 -1.46758,-0.3448 -1.31186,-0.28301 -0.71711,-0.34759 -0.61113,-0.32688 -0.60279,-0.4202 -3.6152,-2.33886 -1.45306,-0.93987 -1.2683,-0.97324 -0.35129,-0.28981 -0.20979,-0.13285 -0.69919,1.00042 -2.33176,2.11734 -3.00097,2.42105 -0.0735,0.059 -0.37292,0.30093 -2.02218,1.48983 -0.38744,0.31978 0.58023,1.24111 1.43545,3.23641 0.40382,0.87066 1.42557,-0.64697 0.13779,-0.0207 0.0745,0.0164 0.0714,0.0281 0.0717,0.0547 0.0788,0.1273 1.27603,2.97255 1.27478,2.97687 5.15941,-1.69034 2.44329,-0.80053 1.66007,-0.5478 1.47407,-0.54594 1.66068,-0.61546 1.60755,-0.59537 0.97076,-0.35964 0.71866,-0.29784 1.80559,-0.74769 3.37605,-1.47871 1.16017,-0.49743 1.69065,-0.64604 0.59383,-0.22802 1.11382,-0.42823 -0.48971,-0.11586 -3.79409,-0.89847 -3.87225,-0.85552 z"
     style="fill:#987db7;fill-opacity:1;fill-rule:evenodd;stroke:#232323;stroke-width:0.982677;stroke-linecap:square;stroke-linejoin:bevel;stroke-miterlimit:10;stroke-dasharray:none;stroke-opacity:1"
     id="path122" />
  <path
     d="m 711.42201,292.70128 0.10041,-1.42093 0.23173,-3.28059 0.0692,-1.01186 0.0531,-0.66891 0.23018,-2.89716 0.32812,-4.54364 0.0992,-1.3752 -0.52741,-0.12822 -1.47654,-0.35902 -0.94667,-0.23017 -1.40301,-0.32102 -0.31421,-0.0661 -0.83019,-0.19341 -0.94389,-0.23358 -1.11382,0.42823 -0.59383,0.22802 -1.69065,0.64604 -1.16017,0.49743 -3.37605,1.47871 -1.80559,0.74769 -0.71866,0.29784 -0.97076,0.35964 -1.60755,0.59537 -1.66068,0.61546 -1.47407,0.54594 -1.66007,0.5478 -2.44329,0.80053 0.14274,0.46684 0.58796,2.09478 0.672,2.5502 0.31205,2.72476 0.31484,1.37489 0.31329,0.49867 0.22183,0.45572 0.15294,0.31298 0.20268,0.43503 0.1792,0.38404 0.40629,0.0408 0.224,0.0819 0.2342,0.19866 0.20916,0.27097 0.55954,0.99332 0.28177,0.34542 0.41216,0.46993 0.33369,0.31453 0.748,0.65779 0.6031,0.40381 0.80362,0.52741 0.33121,0.24006 0.47673,0.40567 0.38528,0.43039 1.17684,1.62639 1.0026,1.97398 0.58023,1.29116 -0.19341,3.37668 -0.0133,0.22709 -0.0513,0.7412 -0.1517,2.93393 -0.0358,0.73287 -0.12049,2.23196 -0.0813,1.50311 -0.14429,2.26131 -0.33955,5.40287 -0.089,1.18364 -0.1103,1.71383 -0.089,1.79694 0.53852,0.49898 0.0451,1.1407 0.0411,1.41011 0.51474,0.23976 2.51065,-0.17024 0.60804,-0.0368 1.68478,-0.10505 2.01476,-0.13131 0.27282,-0.0158 2.34998,-0.16252 0.58673,-0.0331 0.5447,-0.0303 0.84718,-0.0738 0.0287,-0.13254 0.0182,-0.10134 0.0569,-0.53019 0.0309,-0.27158 0.025,-0.29321 0.0352,-0.76685 0.19249,-4.19543 0.25891,-3.70819 0.0188,-0.41772 0.1758,-3.0464 0.16313,-3.16905 0.22678,-3.21539 0.10381,-1.47315 0.10505,-1.46604 0.23142,-3.23517 0.20391,-2.9123 0.0405,-0.58394 0.0664,-0.94203 0.35408,-4.99905 0.12636,-2.27893 0.13502,-1.52659 z"
     style="fill:#987db7;fill-opacity:1;fill-rule:evenodd;stroke:#232323;stroke-width:0.982677;stroke-linecap:square;stroke-linejoin:bevel;stroke-miterlimit:10;stroke-dasharray:none;stroke-opacity:1"
     id="path124" />
  <path
     d="m 838.99881,283.48702 -11.07113,-9.35607 -1.96811,-6.20865 13.36674,-6.7206 13.38189,-6.67209 45.70855,-22.79017 4.2495,-2.11888 0.40413,-1.6783 -0.67509,-1.25841 -30.09811,-56.14662 -0.45294,-0.81072 -5.25797,2.0163 -8.81754,2.11888 -3.89079,2.21899 -2.45905,9.82508 -2.56318,2.10096 -3.98039,-7.46397 -6.95387,0.11493 -6.5482,1.31526 -5.67352,-1.66192 -6.3208,-6.25777 -5.75447,-3.22436 -6.74315,0.94791 0.50546,2.94474 0.17457,1.11227 0.19712,1.15522 0.0331,1.18581 -0.0643,0.9615 -0.20206,1.20063 -2.27244,8.55586 -1.95821,7.65831 -1.10517,4.3221 -0.81134,2.93053 -0.33986,1.22783 -0.36026,0.86418 -0.40629,0.81782 -0.17425,0.26695 -0.89631,1.37211 -0.60928,0.8512 -0.15479,0.22956 -1.03194,1.52969 -1.76048,2.60828 -1.22721,1.81795 -3.83981,5.68896 -1.63134,2.41673 -0.57838,0.85706 -0.64326,0.95285 -1.49076,2.20879 -2.39849,3.70758 -0.33956,0.52462 -0.56386,0.93276 -0.64635,1.05512 -0.56664,1.20836 -0.26942,0.57406 -1.63659,2.39942 -0.85367,1.26397 -2.8814,4.35146 -0.46623,0.71031 -0.33491,0.53791 -0.33431,0.42884 -2.47326,3.65907 -0.15046,0.21535 -2.2505,3.36741 -0.35469,0.54841 -0.4066,0.57591 -0.75511,1.11351 -0.42792,0.6309 -0.99363,1.46511 -1.42618,2.15349 -1.12587,1.6783 -2.1677,3.20427 -0.58178,0.84934 -0.33831,0.48013 -0.26695,0.37941 -2.76276,4.10058 -0.16159,0.33894 -0.10227,0.54934 -0.008,0.46839 0.0154,0.15664 -0.0102,0.19434 -0.055,0.18106 -0.0621,0.0915 -0.15109,0.22709 -0.0902,0.23327 -0.0167,0.18785 0.038,0.19526 0.13718,0.36705 1.69035,3.39769 1.96007,3.8945 2.19983,4.38112 0.18445,0.21689 0.14367,0.14274 0.33121,0.005 1.58252,-0.44955 0.6754,-0.25582 2.41425,-0.74337 2.29035,-0.64975 0.72761,-0.23574 2.59902,-0.80949 1.41845,-0.43749 1.3579,-0.41834 2.53599,-0.81412 0.62071,-0.16623 0.48847,-0.16313 1.91218,-0.63894 2.46245,-0.57715 2.70715,-1.0721 2.59623,-1.01557 2.52146,-1.05203 1.3956,-0.56169 2.44082,6.48146 1.12494,2.87121 1.34956,3.56082 0.38219,1.00784 0.4069,1.03318 0.17117,0.49867 0.42513,1.18642 0.49033,1.27479 0.66088,1.71877 0.76499,1.98912 0.0933,0.23388 0.617,1.12865 0.40753,0.81072 1.21763,3.04702 0.14583,0.36457 0.16097,-0.0884 3.02137,-1.65729 0.48476,-0.27343 0.64697,-0.36489 2.12228,-1.19693 0.90743,-0.51504 0.30063,-0.16283 0.96428,-0.52493 0.17641,-0.0961 0.14954,-0.0813 0.60743,-0.32998 1.15429,-0.62689 0.79435,-0.46005 0.7789,-0.45572 0.42822,-0.25057 1.89952,-1.04615 0.77704,-0.4341 0.596,-0.32627 0.6927,-0.3757 3.95969,-2.14761 1.42371,-0.74708 0.83451,-0.43811 0.19156,-0.11555 0.13502,-0.0738 2.27305,-1.28961 0.49836,-0.27344 0.08,-0.0439 0.16932,-0.0927 1.28622,-0.68436 0.072,-0.0396 0.18198,-0.0995 0.16776,-0.0915 0.067,-0.0365 0.82493,-0.42792 0.33122,-0.186 2.95555,-1.65975 0.21968,-0.1205 0.33893,-0.20176 0.81752,-0.48229 z"
     style="fill:#987db7;fill-opacity:1;fill-rule:evenodd;stroke:#232323;stroke-width:0.982677;stroke-linecap:square;stroke-linejoin:bevel;stroke-miterlimit:10;stroke-dasharray:none;stroke-opacity:1"
     id="path126" />
  <path
     d="m 692.61255,333.05207 -1.58067,-4.07246 -0.44707,-1.08848 -0.28919,-0.73256 -0.6961,-1.72927 -0.90063,-2.21992 -1.05944,-2.51713 -0.88024,-2.31816 -0.77705,-1.72094 -0.95439,-2.447 -0.19588,-0.51906 -1.77377,-4.68792 -0.13255,-0.35809 -0.78538,-2.09231 -3.2911,-7.57057 -4.48678,-9.23835 -2.55761,-5.57805 -2.03454,-4.77072 -0.23296,-0.50238 -0.36087,0.28548 -1.78983,1.32422 -1.85657,2.54927 -5.07165,4.43674 -5.07166,3.84043 -0.7721,0.71556 2.75782,6.27106 0.10443,0.91577 0.0114,0.36705 -0.20299,2.95926 -0.33986,4.68885 -0.23204,4.58133 -0.31483,4.60605 -0.29846,4.70955 -0.0269,1.18982 0.0229,0.23821 0.029,0.18415 0.0806,0.46344 0.0272,0.21103 -9.2e-4,0.24624 -0.12359,2.12506 0.11617,5.10503 0.0952,4.21428 1.21392,-0.0593 0.32349,-0.0204 0.57993,-0.0334 1.80837,-0.10845 0.26756,-0.0198 2.03453,-0.13255 1.0029,-0.0371 1.56615,-0.0911 1.81486,-0.11988 2.19025,-0.0989 0.38806,-0.0201 2.1059,-0.14769 0.24748,-0.01 2.33979,-0.12915 2.0472,-0.12297 0.24161,-0.0164 2.40498,-0.1307 0.94111,-0.0491 1.33473,-0.0831 2.29715,-0.13069 2.28171,-0.1341 2.34566,-0.16653 2.2885,-0.0915 2.22702,-0.11185 z"
     style="fill:#987db7;fill-opacity:1;fill-rule:evenodd;stroke:#232323;stroke-width:0.982677;stroke-linecap:square;stroke-linejoin:bevel;stroke-miterlimit:10;stroke-dasharray:none;stroke-opacity:1"
     id="path128" />
  <path
     d="m 656.22453,330.9023 -0.11617,-5.10503 0.12359,-2.12506 9.2e-4,-0.24624 -0.0272,-0.21103 -0.0806,-0.46344 -0.029,-0.18415 -0.0229,-0.23821 0.0269,-1.18982 0.29846,-4.70955 0.31483,-4.60605 0.23204,-4.58133 0.33986,-4.68885 0.20299,-2.95926 -0.0114,-0.36705 -0.10443,-0.91577 -2.75782,-6.27106 -3.37143,3.12487 -1.69065,1.02638 -5.00523,1.0925 -4.23127,0.73008 -2.26595,0.56108 -4.30913,0.79466 -5.40318,0.23173 -3.73415,1.78952 -3.8531,1.77624 -0.72514,14.65018 -0.25767,4.64127 -0.22802,4.54024 -0.21102,4.57885 -0.27158,5.7347 0.28579,4.69472 0.31082,4.64188 2.32465,-0.17363 2.2953,-0.13657 2.20848,-0.13656 0.22801,-0.0145 1.93907,-0.12637 0.21627,-0.012 1.64401,-0.0915 1.37983,-0.10536 0.27374,-0.0207 1.79416,-0.10783 1.93072,-0.12204 2.18377,-0.1035 1.906,-0.14058 0.0269,1.18859 -0.0238,1.57603 1.85039,-0.12452 -0.16406,-1.69312 1.61619,-0.10351 4.37927,-0.28085 1.24945,-0.11864 3.5809,-0.21751 1.56738,-0.11895 1.93443,-0.16561 0.18445,-0.0164 -0.11277,-2.18994 -0.1931,-3.45052 -0.22276,-4.49482 0.27157,-0.008 0.39764,-0.0235 -0.0952,-4.21428 z"
     style="fill:#987db7;fill-opacity:1;fill-rule:evenodd;stroke:#232323;stroke-width:0.982677;stroke-linecap:square;stroke-linejoin:bevel;stroke-miterlimit:10;stroke-dasharray:none;stroke-opacity:1"
     id="path130" />
  <path
     d="m 535.07914,322.6965 -2.18469,-3.03125 -0.91948,-0.52401 -2.96235,-2.29066 -1.71784,-2.81343 -0.15727,-2.86596 -0.0754,-0.35964 -0.40968,-7.3824 -0.40258,-7.31937 -0.0856,-1.43051 -6.0384,1.28993 -4.23468,0.70351 -4.87144,0.60433 -6.67549,0.76315 -12.06817,1.42927 -16.91396,2.00302 -2.57677,0.30525 -1.50219,0.28672 -0.42699,0.18847 -0.27868,0.1239 -0.16962,0.0615 -0.0349,0.18569 -0.0423,0.11617 -0.051,0.21319 -0.0732,0.25427 0.0192,0.89446 0.62102,3.38038 1.09806,6.04953 1.1064,6.33501 1.1271,6.29856 0.45047,2.61477 0.5064,2.57306 0.78755,4.55228 0.70413,3.86546 0.21566,0.99332 0.26725,0.989 0.3791,1.3202 0.7789,1.7299 2.45318,4.63509 2.44453,4.44507 3.34794,6.23244 1.80652,3.16195 1.88963,3.53424 1.17684,2.04442 1.59086,2.97997 3.14094,5.78567 1.50836,2.71488 0.48044,0.65407 1.72372,2.185 2.14638,2.16028 2.17943,1.83773 4.96599,4.17535 2.11116,1.9165 12.59649,10.7356 4.75281,4.07463 20.50197,17.49606 5.22491,4.51026 7.10217,6.07549 1.3029,1.11412 17.32428,-19.78795 4.34497,-4.91594 0.2654,-0.29784 4.19419,-5.02933 0.56232,-0.10876 -1.01835,-0.75078 -1.69127,-1.76295 -1.12494,-1.01557 -9.7327,-8.78696 -5.13654,-4.14105 -0.19063,0.19063 -1.61094,-1.50003 -1.72866,-1.58746 -0.19001,-0.16746 -0.18971,-0.16715 -0.87128,-0.81134 -0.30618,-0.30433 -1.66687,-1.50497 -0.34017,-0.32534 -0.51226,-0.49001 -0.75017,-0.66798 -1.737,-1.64524 -1.55286,-1.3508 -1.45924,-1.33874 -0.23357,-0.21411 -0.97695,-0.91948 -0.64605,-0.59414 -0.27158,-0.24408 -1.35295,-1.21671 -1.62917,-1.53679 -1.70394,-1.52041 -1.63999,-1.45862 -0.85985,-0.90744 -0.1792,-0.22338 -0.0779,-0.23079 0.021,-0.15232 0.19805,-0.24161 0.26108,-0.40845 0.94944,-1.39096 0.40938,-0.61237 0.30248,-0.46746 0.12359,-0.18755 0.2864,-0.45418 0.1653,-0.24686 -0.002,-0.45881 -0.51783,-2.17789 -0.0442,-0.32318 0.0649,-0.22338 1.46666,-2.08242 0.24871,-0.23822 0.32535,-0.16962 0.469,-0.16159 3.66649,-0.79991 -3.01952,-5.09853 -1.45862,-3.77432 -2.12784,-2.19519 -1.05418,-3.3671 -0.60867,-2.85205 -0.12976,-0.60835 -0.1965,-0.91979 -0.79559,-3.57565 -0.53018,-2.7813 -0.0562,-1.17129 -1.31156,-0.085 -1.70703,-0.63894 -1.25007,-1.55162 -3.71283,-4.50255 -2.80169,-3.10787 -0.12297,-0.0457 -0.45696,-0.17055 z"
     style="fill:#987db7;fill-opacity:1;fill-rule:evenodd;stroke:#232323;stroke-width:0.982677;stroke-linecap:square;stroke-linejoin:bevel;stroke-miterlimit:10;stroke-dasharray:none;stroke-opacity:1"
     id="path132" />
  <path
     d="m 556.41934,359.14229 0.19032,0.25799 2.82486,-0.5549 2.37718,-0.36458 2.72105,-0.41741 2.61106,-0.3859 2.57399,-0.39115 3.91767,-0.58641 0.10968,-0.0383 11.06125,-3.90377 1.63288,0.0825 1.31681,-0.16035 0.0788,-4.01778 2.23351,-0.16715 2.28418,-0.17117 2.28943,-0.17147 3.41251,-0.25521 2.31384,-0.17333 0.31669,-0.0195 2.30611,-0.12204 2.41796,-0.13039 2.21651,-0.11957 2.32774,-0.12544 2.35215,-0.12667 2.2678,-0.16622 2.34535,-0.0887 2.24123,-0.14119 -0.25922,-4.6527 -0.24563,-4.6938 0.25645,-5.78907 0.17951,-4.56742 0.23141,-4.53468 0.22894,-4.65023 0.47395,0.0213 0.72514,-14.65018 -3.90377,1.79941 -3.49192,0.52802 -4.0774,0.16561 -4.03261,-1.08972 -1.16665,-0.31546 -0.17611,-0.0476 -0.25984,-0.0701 -2.08829,-0.0995 -4.03261,0.86263 -1.38046,0.12946 -0.71927,0.0674 -1.5062,0.92875 -1.17901,0.72668 -4.49976,3.57442 -6.01987,4.56866 -7.42504,4.23807 -5.3834,5.76065 -4.6938,4.0394 -2.95555,0.53049 -3.03157,0.14985 -1.64894,-0.43842 -1.42062,-0.66644 -1.51578,-0.22925 -1.43978,-9.2e-4 -1.94586,0.89198 -1.5269,1.15831 -2.78717,2.46893 0.0562,1.17129 0.53018,2.7813 0.79559,3.57565 0.1965,0.91979 0.12976,0.60835 0.60867,2.85205 1.05418,3.3671 2.12784,2.19519 1.45862,3.77432 3.01952,5.09853 z"
     style="fill:#987db7;fill-opacity:1;fill-rule:evenodd;stroke:#232323;stroke-width:0.982677;stroke-linecap:square;stroke-linejoin:bevel;stroke-miterlimit:10;stroke-dasharray:none;stroke-opacity:1"
     id="path134" />
  <path
     d="m 688.06366,523.45099 -5.79247,-7.52113 -0.24069,0.11092 -1.33225,-1.79911 -1.46975,-1.94987 -0.20299,-0.27035 -5.63428,-7.64039 -1.07736,-1.41753 -4.6286,-6.33223 -1.10671,-1.45893 -0.93184,-1.28715 -0.21226,-0.27343 -1.19909,-1.57356 -1.11073,-1.41444 -1.13823,-1.46758 -1.1994,-1.57696 -0.37724,-0.44923 -0.82216,-1.0718 -6.34273,-8.04266 -28.65216,21.29972 4.59091,6.19165 1.1685,1.61002 0.31484,0.45108 13.42513,18.10287 6.45026,8.82465 0.23945,0.33306 3.6084,4.89091 0.75696,0.69981 0.2756,0.32688 1.89086,2.45257 0.46067,0.59167 0.61731,0.53574 0.62349,0.39547 0.55336,0.25861 0.43286,0.0661 0.52215,-0.0516 0.9927,-0.45418 9.0159,-7.13647 5.86879,-4.72654 4.36938,-3.3603 0.22801,-0.19959 3.25587,-2.65864 1.67953,-1.35698 0.23791,-0.16591 1.8921,-1.48519 z"
     style="fill:#987db7;fill-opacity:1;fill-rule:evenodd;stroke:#232323;stroke-width:0.982677;stroke-linecap:square;stroke-linejoin:bevel;stroke-miterlimit:10;stroke-dasharray:none;stroke-opacity:1"
     id="path136" />
  <path
     d="m 654.61452,292.0404 0.7721,-0.71556 5.07166,-3.84043 5.07165,-4.43674 1.85657,-2.54927 1.78983,-1.32422 0.36087,-0.28548 2.19149,-2.56163 2.0988,-1.73298 0.38744,-0.31978 2.02218,-1.48983 0.37292,-0.30093 0.0735,-0.059 3.00097,-2.42105 2.33176,-2.11734 0.69919,-1.00042 -0.13224,-0.0834 -2.93547,-1.74565 -0.989,-0.52741 -0.76778,-0.29382 -0.38651,-0.11617 -0.0899,-0.0269 -0.70042,-0.19218 -0.39146,-0.0788 -0.45789,-0.0371 -0.45974,0.004 -0.3377,0.0164 -0.25922,0.0603 -0.38558,0.15448 -0.38899,0.0244 -1.14997,0.0791 -6.63718,1.40487 -0.24748,0.0639 -0.20701,0.034 -0.23975,0.0371 -0.6408,0.10381 -2.63732,0.53203 -1.24111,0.26911 -5.22892,1.13236 -0.69517,0.14274 -1.09497,0.22523 -7.9407,1.74318 -2.00086,0.37138 -13.27189,2.70499 -2.63794,0.54316 -5.12356,1.05449 -0.15449,0.0423 -0.93956,0.21195 -0.25582,0.0683 -0.49002,0.10721 -12.0972,2.49088 -21.15204,4.3876 -4.00882,0.83174 -1.77902,0.35314 -4.75466,1.09034 -1.87665,0.37848 -1.81424,0.3825 -23.40902,4.86527 -15.60303,3.17894 -1.01341,0.20886 -0.26911,0.055 -1.04337,0.21381 -6.21421,1.32762 0.0856,1.43051 0.40258,7.31937 0.40968,7.3824 0.0754,0.35964 0.15727,2.86596 1.71784,2.81343 2.96235,2.29066 0.91948,0.52401 2.18469,3.03125 0.45696,0.17055 0.12297,0.0457 2.80169,3.10787 3.71283,4.50255 1.25007,1.55162 1.70703,0.63894 1.31156,0.085 2.78717,-2.46893 1.5269,-1.15831 1.94586,-0.89198 1.43978,9.2e-4 1.51578,0.22925 1.42062,0.66644 1.64894,0.43842 3.03157,-0.14985 2.95555,-0.53049 4.6938,-4.0394 5.3834,-5.76065 7.42504,-4.23807 6.01987,-4.56866 4.49976,-3.57442 1.17901,-0.72668 1.5062,-0.92875 0.71927,-0.0674 1.38046,-0.12946 4.03261,-0.86263 2.08829,0.0995 0.25984,0.0701 0.17611,0.0476 1.16665,0.31546 4.03261,1.08972 4.0774,-0.16561 3.49192,-0.52802 3.90377,-1.79941 3.8531,-1.77624 3.73415,-1.78952 5.40318,-0.23173 4.30913,-0.79466 2.26595,-0.56108 4.23127,-0.73008 5.00523,-1.0925 1.69065,-1.02638 3.37143,-3.12487 z"
     style="fill:#987db7;fill-opacity:1;fill-rule:evenodd;stroke:#232323;stroke-width:0.982677;stroke-linecap:square;stroke-linejoin:bevel;stroke-miterlimit:10;stroke-dasharray:none;stroke-opacity:1"
     id="path138" />
  <path
     d="m 59.658082,22.182553 -0.06735,-0.01854 -1.965942,-1.961617 -0.04295,-0.02225 -0.0482,-0.01267 -0.04758,0.0074 -0.04295,0.02595 -16.127342,16.167199 -0.07539,0.09794 -0.0587,0.13409 -2.345042,7.501665 -1.636277,5.295347 -0.513809,1.809606 -0.04171,0.04727 -1.437922,5.28546 -1.306612,4.802548 -0.06148,0.224618 -0.591977,2.116408 -0.08589,0.349748 -0.907738,3.487285 -3.774314,13.719889 -0.131001,0.475806 -0.482603,1.754302 -0.415866,1.369332 -1.088792,4.083896 -1.027308,3.939609 32.750264,11.851886 1.718462,-1.86058 0.137798,-3.436618 0.673853,-16.427347 0.348821,-10.172047 0.06735,-1.966561 -6.18e-4,-1.263666 0.01823,-0.447999 0.09423,-0.809487 0.24779,-0.674779 3.309631,-4.611299 3.310866,-4.612844 0.268181,-0.466537 -0.734718,-0.397946 -0.39702,-0.183834 -1.290854,-0.486002 0.09887,-0.397947 0.110919,-0.281775 0.184143,-0.33739 3.307467,-4.264022 1.251926,-1.614032 3.871019,3.619831 0.09794,0.0655 0.102576,0.04171 0.117098,-0.0025 0.114935,-0.02842 5.223667,-2.715491 5.646949,-2.704369 4.684523,-3.41406 4.747553,-3.287385 -14.845139,-14.342144 -0.347585,-0.262002 -0.262929,-0.17611 -12.54675,-8.432884 -1.866456,-1.37582 -0.09732,-0.03306 -0.121423,-0.0012 -0.08836,0.01977 -0.07631,0.03893 -5.385256,5.11831 -0.05932,0.04047 -0.06025,0.01143 z"
     style="fill:#987db7;fill-opacity:1;fill-rule:evenodd;stroke:#232323;stroke-width:0.982677;stroke-linecap:square;stroke-linejoin:bevel;stroke-miterlimit:10;stroke-dasharray:none;stroke-opacity:1"
     id="path140" />
  <path
     d="m 774.59634,151.72128 -0.39145,-1.40363 -0.47674,-1.70888 -0.0902,-0.32349 -0.47086,-1.68818 -0.50021,-1.79231 -0.44182,-1.58406 -0.0726,-0.12822 -0.11802,-0.089 -0.15974,-0.0559 -0.16158,0.006 -7.05151,3.39089 -8.96152,4.30944 -6.61772,3.18234 -0.44058,0.21195 -0.085,0.11988 -0.0352,0.12853 0.0167,0.14058 0.63214,1.32515 0.76098,1.59549 0.14799,0.3102 0.78076,1.63659 0.66582,1.39621 0.0516,0.0726 0.0606,0.0337 0.13471,0.0476 0.1035,0.0124 0.11803,-0.0331 4.37463,-1.72618 2.07809,-0.81722 2.44144,-0.91638 6.93286,-2.60396 5.90988,-2.18994 0.8651,-0.85923 z"
     style="fill:#987db7;fill-opacity:1;fill-rule:evenodd;stroke:#232323;stroke-width:0.982677;stroke-linecap:square;stroke-linejoin:bevel;stroke-miterlimit:10;stroke-dasharray:none;stroke-opacity:1"
     id="path142" />
  <path
     d="m 490.28234,166.68691 -1.19322,2.05245 -0.53049,3.64177 -0.21257,3.21509 -0.15201,1.81733 2.10498,1.34894 2.61415,1.81084 2.45472,1.60291 2.30673,1.56058 4.77444,-8.6266 4.83838,-8.95318 -2.27676,-1.24853 -2.58418,-1.42186 -2.74515,-1.59672 -2.73063,-1.54112 -2.19334,-1.3097 z"
     style="fill:#987db7;fill-opacity:1;fill-rule:evenodd;stroke:#232323;stroke-width:0.982677;stroke-linecap:square;stroke-linejoin:bevel;stroke-miterlimit:10;stroke-dasharray:none;stroke-opacity:1"
     id="path144" />
</svg>
