<?xml version="1.0" encoding="UTF-8" standalone="no"?>
<!-- Created with Inkscape (http://www.inkscape.org/) -->

<svg
   version="1.1"
   id="svg2"
   width="657.58429"
   height="445.74899"
   viewBox="0 0 657.58429 445.74899"
   sodipodi:docname="Boa_Vista-RR.svg"
   inkscape:version="1.2.2 (b0a8486541, 2022-12-01)"
   xmlns:inkscape="http://www.inkscape.org/namespaces/inkscape"
   xmlns:sodipodi="http://sodipodi.sourceforge.net/DTD/sodipodi-0.dtd"
   xmlns="http://www.w3.org/2000/svg"
   xmlns:svg="http://www.w3.org/2000/svg">
  <path
     id="path56"
     style="display:inline;fill:#000000;fill-opacity:1;fill-rule:evenodd;stroke:none;stroke-width:0.982677;stroke-linecap:square;stroke-linejoin:bevel;stroke-miterlimit:10;stroke-dasharray:none;stroke-opacity:1"
     d="m 376.9665,172.35397 -0.89454,0.375 -0.002,-0.006 -0.95703,0.40039 -1.97852,0.98828 -1.96484,0.99024 -0.16211,0.0801 -1.43945,0.72266 -0.29883,0.15039 -1.62695,0.85156 -0.65625,0.30274 -2.29883,1.20703 -1.60352,0.89453 -0.34375,0.17187 -0.99023,0.49219 -0.4375,0.22266 -2.55274,1.27344 -3.45507,1.67968 0.19531,0.46289 2.70117,0.64649 2.4707,0.55469 2.47266,0.56836 2.40234,0.5664 1.96289,0.45313 -0.0351,0.18164 0.58984,2.10351 0.33399,1.20703 0.4375,1.47071 0.77343,2.55664 0.71289,2.51172 0.83008,2.55078 0.47266,1.49219 0.23047,0.92187 0.0176,0.0762 1.45507,0.3086 1.77344,0.37695 1.41797,0.32617 0.0605,0.0137 0.29297,0.0606 0.23828,0.0352 0.11328,0.0215 1.93164,0.41406 0.36328,0.0957 2.64258,0.52929 2.58594,0.51953 1.16015,0.23243 1.39258,0.28125 2.52148,0.46484 0.51758,0.10547 2.5918,0.52148 2.58789,0.51172 1.53906,0.30274 1.01758,0.21093 2.23438,0.45899 0.33007,0.0664 2.67969,0.49415 3.44922,0.66796 1.79492,0.35157 1.17578,0.21289 1.45899,0.3164 0.22656,0.0391 1.47461,0.25585 0.5957,0.11719 2.67188,0.51367 2.73633,0.53321 0.92773,0.16211 1.43555,0.2832 0.37304,0.0742 2.71094,0.49805 0.23438,0.043 1.51367,0.26758 1.40234,0.23633 0.082,-0.008 0.004,0.0117 0.37305,-0.01 -0.51172,-1.40625 -0.79492,-2.18555 -0.19727,-0.54296 -0.52734,-1.44727 -0.77149,-2.11914 -0.29687,-0.82617 -0.20899,-0.59961 -0.0586,-0.16797 0.0117,-0.006 -0.16407,-0.39258 -0.0156,0.008 -0.004,-0.008 -0.14257,-0.35742 -1.2168,-3.04688 -0.4082,-0.81054 -0.61719,-1.12891 -0.0918,-0.23437 -0.76562,-1.98828 -0.66211,-1.71875 -0.49024,-1.27539 -0.42383,-1.18555 -0.17187,-0.49805 -0.40625,-1.0332 -0.38281,-1.00781 -1.34961,-3.5625 -1.125,-2.8711 -2.44141,-6.48047 -1.39453,0.56055 -2.52148,1.05273 -2.59571,1.01563 -2.70703,1.07227 -2.46289,0.57617 -1.91211,0.64062 -0.48828,0.16211 -0.62109,0.16602 -2.53711,0.81445 -1.35743,0.41797 -1.41796,0.4375 -2.59961,0.81055 -0.72657,0.23437 -2.29101,0.65039 -2.41406,0.74414 -0.67579,0.25586 -1.58203,0.44922 -0.33203,-0.006 -0.14258,-0.14258 -0.18554,-0.21679 -2.19922,-4.38086 -1.96094,-3.89454 -1.68945,-3.39843 -0.13672,-0.36719 -0.0391,-0.19531 0.0176,-0.1875 0.0899,-0.23242 z"
     inkscape:label="Jardim Floresta" />
  <path
     id="path30"
     style="display:inline;fill:#000000;fill-opacity:1;fill-rule:evenodd;stroke:none;stroke-width:0.982677;stroke-linecap:square;stroke-linejoin:bevel;stroke-miterlimit:10;stroke-dasharray:none;stroke-opacity:1"
     d="m 359.46064,125.91452 -0.20899,0.084 -3.67383,1.52148 -1.32031,0.63672 -1.50781,0.79297 -1.16016,0.63867 -1.59765,0.97657 -2.5918,1.58593 -0.0957,-0.008 -0.084,-0.0586 -0.0898,-0.11328 -1.51172,-2.08203 -3.66797,5.11328 -0.30859,0.41406 -1.00196,1.58008 -0.63867,1.05859 0.23242,0.28906 -0.23828,0.27344 -1.89062,2.44141 -0.90625,1.16211 -0.96485,1.35156 -1.34961,1.89062 -0.52148,0.85157 -0.88867,1.44922 -0.68555,1.27539 -0.81055,1.50781 -0.63085,1.36523 -0.4629,1.00196 -0.73632,1.88085 -0.25391,0.6504 -0.7832,2.33593 -0.85938,2.91797 -0.082,0.35547 -0.45117,2.00781 -0.15235,0.99805 -0.28906,1.91211 -0.10351,1.19531 -0.21289,3.15625 0.004,3.29883 0.11524,3.32813 1.45312,0.34179 0.94336,0.22071 2.29883,0.56445 1.16406,0.24219 1.28906,0.28515 1.60938,0.35547 0.9043,0.20898 2.04492,0.47071 0.41211,0.084 0.22265,0.0508 2.65039,0.59766 3.16602,0.81641 1.96875,0.46093 5.54297,1.29688 2.10351,0.49219 0.24024,0.0625 0.40625,0.11132 -0.19531,-0.46289 3.45507,-1.67968 2.55274,-1.27344 0.4375,-0.22266 0.98828,-0.49219 0.3457,-0.17382 1.60352,-0.89258 2.29883,-1.20703 0.65625,-0.30274 1.62695,-0.85351 0.29883,-0.15039 1.43945,-0.72071 0.16211,-0.0801 1.96484,-0.99024 1.97852,-0.98828 0.95703,-0.40039 0.002,0.006 0.89454,-0.375 0.0273,-0.041 0.0625,-0.0918 0.0547,-0.18164 0.0117,-0.19336 -0.0156,-0.15821 0.008,-0.46679 0.10157,-0.55079 0.1621,-0.33789 2.76172,-4.10156 0.26758,-0.3789 0.33789,-0.48047 0.55274,-0.80469 -0.64258,-0.72461 -0.0254,0.0371 -1.19336,-2.33789 -0.90039,-1.77734 -0.20703,-0.38672 -0.13672,-0.25586 -0.084,-0.16016 -0.11328,-0.21484 -0.35742,-0.67188 -0.93359,-1.74609 -0.82813,-1.63281 -0.52734,-1.04102 -0.36914,-0.74609 -0.91211,-1.67774 -0.88867,-1.66211 -0.47852,-0.93554 -0.38477,-0.83204 -0.61523,-1.12304 -0.23242,-0.45117 -0.11133,-0.22657 -0.1543,-0.31836 -0.65234,-1.26367 -0.50391,-0.85937 -0.49414,-0.83985 -0.97461,-1.6289 -0.13281,-0.26367 -1.25586,-2.35352 -0.55469,-1.12305 -0.17187,-0.34179 -0.78516,-1.36133 -0.7207,0.11914 -0.42969,-1.35938 -0.35547,-1.26172 -0.25976,-0.85156 -0.54883,-1.77929 -0.1582,-0.47461 -0.46289,-1.09961 -0.38868,-0.56836 -0.375,-0.42969 -0.84961,-0.71289 -1.2832,-1.00586 z"
     inkscape:label="Caranã" />
  <path
     id="path3752"
     style="display:inline;fill:#000000;stroke:none;stroke-width:0;stroke-linecap:square;stroke-linejoin:bevel;stroke-miterlimit:10;paint-order:stroke fill markers;stop-color:#000000"
     d="m 325.29462,176.53756 -0.2793,0.13867 -0.006,-0.002 -1.11328,0.42774 -0.59375,0.22851 -1.6914,0.64649 -1.16016,0.49609 -3.375,1.47852 -1.80664,0.74804 -0.71875,0.29883 -0.9707,0.35937 -1.60742,0.59571 -1.66016,0.61523 -1.47461,0.54492 -1.66016,0.54883 -2.44336,0.80078 0.14258,0.4668 0.58789,2.09375 0.67188,2.55078 0.3125,2.72461 0.31445,1.375 0.31445,0.49805 0.22071,0.45703 0.15429,0.3125 0.20118,0.43555 0.17968,0.38281 0.40625,0.041 0.22461,0.082 0.23438,0.19921 0.20898,0.27149 0.5586,0.99219 0.2832,0.3457 0.41211,0.4707 0.33398,0.31446 0.74805,0.65625 0.60156,0.40429 0.80469,0.52735 0.33008,0.24023 0.47656,0.40625 0.38672,0.42969 1.17578,1.62695 1.00391,1.97461 0.58007,1.29102 -0.19335,3.375 -0.0137,0.22851 -0.0508,0.74024 -0.15234,2.93359 -0.0352,0.73437 -0.12109,2.23047 -0.082,1.50391 -0.14453,2.26172 -0.33985,5.40234 -0.0879,1.1836 -0.11133,1.71484 -0.0879,1.79688 0.53907,0.49804 0.0449,1.14063 0.041,1.41015 0.51367,0.24024 2.51172,-0.16992 0.60742,-0.0371 1.68555,-0.10547 2.01367,-0.13086 0.27344,-0.0156 2.34961,-0.16211 0.58594,-0.0332 0.54492,-0.0312 0.84766,-0.0742 0.21289,-0.0293 0.21484,-0.0332 0.66406,-0.0488 -0.66406,0.0469 0.0801,-2.0293 0.10351,-1.70898 0.21094,-3.70117 0.15235,-2.51368 0.0195,-0.38476 0.1289,-1.69922 0.23633,-4.40039 0.23438,-3.36524 0.0898,-1.42968 0.0215,-0.33203 0.0859,-1.11133 0.25196,-3.26563 0.18359,-2.90234 0.0449,-0.59961 0.0547,-0.90234 0.43945,-4.94141 0.0684,-2.37695 0.10547,-1.46289 0.0996,-1.45118 0.2207,-3.20507 0.13672,-1.07813 0.0332,-0.69922 0.21875,-2.91992 0.28516,-4.51758 0.10352,-1.31055 -0.004,-0.002 0.0117,-0.21289 -0.0117,-0.002 -2.29883,-0.56445 -0.94336,-0.22071 -1.45117,-0.34179 h -0.002 v -0.002 l -0.004,-0.006 -0.30664,-0.13867 0.002,0.0801 z"
     inkscape:label="Santa Tereza" />
  <path
     id="path3626"
     style="display:inline;fill:#000000;stroke:none;stroke-width:0;stroke-linecap:square;stroke-linejoin:bevel;stroke-miterlimit:10;paint-order:stroke fill markers;stop-color:#000000"
     d="m 331.78681,178.08053 -0.0156,0.27344 h 0.002 l -0.0977,1.25195 -0.28516,4.51758 -0.21875,2.91992 -0.0332,0.69922 -0.13672,1.07813 -0.2207,3.20507 -0.0996,1.45118 -0.10547,1.46289 -0.0684,2.37695 -0.43945,4.94141 -0.0547,0.90234 -0.0449,0.59961 -0.18359,2.90234 -0.25196,3.26563 -0.0859,1.11133 -0.0215,0.33203 -0.0898,1.42968 -0.23438,3.36524 -0.23633,4.40039 -0.1289,1.69922 -0.0195,0.38476 -0.15235,2.51368 -0.21094,3.70117 -0.10351,1.70898 -0.0801,2.0293 2.61328,-0.18555 2.14258,-0.13672 0.5,-0.0391 2.61719,-0.1543 0.17578,-0.0117 2.53515,-0.17383 0.22071,-0.0254 2.11328,-0.14063 0.22851,-0.0156 2.68946,-0.18164 2.59961,-0.17383 0.19531,-0.0137 2.45508,-0.16602 0.40039,-0.0254 0.31641,-4.46094 0.26171,-4.54492 0.33789,-4.73047 0.31641,-4.66797 0.31055,-4.59961 0.31054,-4.59765 0.40235,-5.96094 -0.20899,-0.42383 0.23047,-4.13867 0.35157,-4.72656 0.41406,-4.96485 0.0176,-0.21679 -0.006,-0.002 0.0176,-0.18359 -5.52148,-1.29102 -1.96875,-0.46093 -3.16602,-0.81641 -2.65039,-0.59766 -0.22265,-0.0508 -0.41211,-0.084 -2.04492,-0.47071 -0.9043,-0.20898 -1.60938,-0.35547 -1.28906,-0.28515 z"
     inkscape:label="Tancredo Neves" />
  <path
     id="path1693-5"
     style="display:inline;fill:#000000;stroke:none;stroke-width:0;stroke-linecap:square;stroke-linejoin:bevel;stroke-miterlimit:10;paint-order:stroke fill markers;stop-color:#000000"
     d="m 352.72821,182.94186 -0.0176,0.18359 0.006,0.002 -0.0176,0.21679 -0.41406,4.96485 -0.35157,4.72656 -0.23047,4.13867 0.20899,0.42383 -0.40235,5.96094 -0.31054,4.59765 -0.31055,4.59961 -0.31641,4.66797 -0.33789,4.73047 -0.26171,4.54492 -0.31641,4.46094 2.48828,-0.16992 2.09375,-0.14063 0.57031,-0.0391 1.29492,-0.0859 1.41211,-0.0957 0.41211,-0.0273 1.84766,-0.125 0.30664,-0.0215 0.76758,-0.0508 0.76758,-0.0527 1.11914,-0.0742 0.75,-0.0508 1.78125,-0.1211 0.94531,-0.0625 0.54297,-0.0371 0.61133,-0.041 0.35351,-0.0254 0.25586,-0.0156 2.67383,-0.18164 1.77148,-0.11914 0.82227,-0.0547 2.5957,-0.17578 -0.19531,-5.84375 -0.0645,-2.25 0.006,-2.4082 -0.0312,-4.61914 0.51367,-5.66407 0.0332,-0.2871 0.47852,-5.82032 -0.0605,-0.0137 -1.41797,-0.32617 -1.77344,-0.37695 -1.45507,-0.3086 -0.0176,-0.0762 -0.23242,-0.92383 -0.47071,-1.49023 -0.83008,-2.55078 -0.71289,-2.51172 -0.77343,-2.55664 -0.4375,-1.47071 -0.33399,-1.20898 -0.58984,-2.10352 0.0351,-0.17968 -1.96289,-0.45313 -2.40234,-0.5664 -2.47266,-0.56836 -2.4707,-0.55469 -2.70117,-0.64649 h -0.004 l -0.40234,-0.11132 -0.24024,-0.0625 -2.10351,-0.49219 z"
     inkscape:label="Caimbé" />
  <path
     id="path4767"
     style="fill:#000000;stroke:none;stroke-width:0;stroke-linecap:square;stroke-linejoin:bevel;stroke-miterlimit:10;paint-order:stroke fill markers;stop-color:#000000"
     d="m 369.91571,260.31881 -1.27148,0.22656 -0.15039,0.48243 -0.68164,2.52148 -0.24805,0.80274 -1.60351,5.8457 -1.29102,4.77539 -1.27148,4.35156 0.3164,0.23828 -0.1914,0.82032 0.22656,0.0391 0.75195,0.21289 2.01172,0.58203 2.08008,0.625 0.30664,0.0977 2,0.64257 2.0293,0.62891 1.99414,0.63867 1,0.30469 1.16601,0.39844 0.89258,0.34179 0.64258,0.27539 1.01953,0.42969 1.58398,0.63477 1.84961,0.78711 1.58985,0.6582 0.69336,0.25391 2.31054,0.77929 2.02149,0.6211 1.9414,0.60156 1.94727,0.5918 0.93359,0.27148 1.47461,0.43555 2.47266,0.75976 0.49414,0.14649 0.21289,0.0508 0.39844,0.10156 3.28515,0.98828 3.19922,0.91016 2.19532,0.63281 2.7539,0.83594 3.07617,0.93359 2.05274,0.48047 2.04101,0.63086 0.63086,0.2168 1.54297,0.44922 0.74024,0.2207 0.0195,-0.23047 h 0.002 l 0.31445,-0.5957 0.36329,-0.83399 0.51562,-1.36523 0.45703,-1.03516 0.32617,-0.7539 1.00586,-1.78907 1.0293,-1.62304 1.52734,-1.95508 0.64649,-0.69336 0.82031,-0.80859 -0.31836,-0.32422 -7.9375,-8.07422 -4.83203,-5.19531 -1.45899,-3.24414 -2.03124,-2.8125 -2.88868,-1.78125 -1.71289,-0.17969 -2.11523,0.13476 -0.34766,0.0586 -8.3164,-0.23633 -5.24219,0.55664 -1.01953,-0.0801 -7.22071,-2.61523 -1.66406,-0.84766 -0.4707,-0.10547 -1.16211,-0.25586 -3.00195,-0.5332 -2.92383,-0.74219 z"
     inkscape:label="Cinturão Verde" />
  <path
     d="m 331.96455,262.13466 2.71981,-0.2447 0.27684,-0.0247 0.96149,-0.0865 1.33628,-0.12018 0.29104,-0.0263 1.72928,-0.15571 0.58919,-0.043 1.16047,-0.11432 1.46882,-0.13996 0.1721,-0.0151 1.60321,-0.12204 0.86789,-0.0701 0.77951,-0.063 1.80714,-0.14645 1.6922,-0.13687 0.90187,-0.0729 0.82679,-0.0667 1.57201,-0.1273 0.23234,-0.0188 0.36273,-0.0318 1.13019,-0.0986 1.68973,-0.14799 0.87004,-0.076 0.87005,-0.076 0.86695,-0.37231 0.79219,0.4684 2.45287,1.32422 0.85243,0.3411 0.8237,0.15077 2.29499,-0.53883 1.99561,-0.61515 0.6893,-0.12297 1.27139,-0.22647 3.53363,0.31329 2.92466,0.74213 3.00128,0.53266 1.16171,0.25705 -0.0936,-0.10937 -0.27714,-0.37848 -0.48044,-3.8222 -0.51412,-3.88431 -0.47426,-3.67452 -0.51411,-3.86144 -0.47859,-3.6946 -0.55892,-3.57966 -0.0303,-0.21906 -0.80887,-5.87342 -0.46653,-3.67328 -2.59623,0.17518 -0.82154,0.0553 -1.77161,0.11957 -2.67285,0.18043 -0.25613,0.0173 -0.35438,0.0238 -0.61052,0.0411 -0.54285,0.0368 -0.94512,0.0636 -1.78273,0.1205 -0.74862,0.0504 -1.12031,0.0757 -0.76778,0.0516 -0.76746,0.0519 -0.30681,0.0207 -1.8476,0.12451 -0.41093,0.0278 -1.41258,0.0955 -1.29518,0.0871 -0.57004,0.0386 -2.09479,0.14119 -2.48809,0.16808 -0.39949,0.0269 -2.45472,0.16499 -0.19558,0.0133 -2.60087,0.17488 -2.68799,0.18074 -0.22987,0.0155 -2.11208,0.14212 -0.22029,0.0238 -2.53599,0.17488 -0.17549,0.012 -2.61755,0.15355 -0.50021,0.0402 -2.14329,0.13532 -2.61168,0.18693 -0.21597,0.034 0.11,0.14182 0.0874,0.23141 0.34357,2.91725 0.90249,6.12553 0.27467,2.6018 0.0121,0.0809 0.50145,3.82406 0.1585,1.13328 0.36179,2.58326 0.53915,3.71592 0.41432,3.74959 0.30495,2.39108 z"
     style="fill:#000000;fill-opacity:1;fill-rule:evenodd;stroke:none;stroke-width:0.982677;stroke-linecap:square;stroke-linejoin:bevel;stroke-miterlimit:10;stroke-dasharray:none;stroke-opacity:1"
     id="path86"
     inkscape:label="Asa Branca" />
  <path
     d="m 367.56347,264.35117 0.2481,-0.80269 0.68281,-2.51991 0.14923,-0.48384 -0.6893,0.12297 -1.99561,0.61515 -2.29499,0.53883 -0.8237,-0.15077 -0.85243,-0.3411 -2.45287,-1.32422 -0.79219,-0.4684 -0.86695,0.37231 -0.87005,0.076 -0.87004,0.076 -1.68973,0.14799 -1.13019,0.0986 -0.36273,0.0318 -0.23234,0.0188 -1.57201,0.1273 -0.82679,0.0667 -0.90187,0.0729 -1.6922,0.13687 -1.80714,0.14645 -0.77951,0.063 -0.86789,0.0701 -1.60321,0.12204 -0.1721,0.0151 -1.46882,0.13996 -1.16047,0.11432 -0.58919,0.043 -1.72928,0.15571 -0.29104,0.0263 -1.33628,0.12018 -0.96149,0.0865 -0.27684,0.0247 -2.71981,0.2447 -0.8892,0.08 -2.25606,0.1687 -6.50155,0.73595 -1.64369,0.11401 -0.58487,0.0522 -1.91126,1.43206 -0.55088,0.42544 -0.47055,0.43348 -0.59507,0.42822 -0.37848,0.30619 -1.65945,1.30692 -1.49756,1.14255 -2.02402,1.93227 0.72915,0.56262 1.19322,1.29147 0.72947,1.45677 0.59661,1.39034 0.66304,1.45677 1.19322,2.38397 0.76253,1.25811 0.99425,1.22504 0.72946,0.86078 1.06068,0.69517 0.92813,0.46376 1.06067,0.3309 1.49169,0.33121 1.48735,0.95624 1.10857,0.99796 0.62503,0.90959 0.28085,0.86016 0.35778,1.23802 0.19002,1.03905 0.10103,2.02156 0.0516,1.52288 0.19434,2.0126 0.46191,2.1436 0.6859,1.61619 1.16603,1.79416 1.42587,1.71661 1.27541,0.541 2.11239,0.13749 4.25167,-0.96243 6.82873,-0.19866 4.31593,0.36736 3.04609,-7.99107 -0.52184,-0.1897 3.01796,-10.19491 1.95637,-6.26025 0.43996,0.13471 2.22949,0.68189 0.33492,0.10937 1.93567,0.62813 1.02916,0.35191 0.19248,-0.82092 -0.31607,-0.23698 1.27016,-4.35177 1.29209,-4.77567 1.6026,-5.84654 z"
     style="display:inline;fill:#000000;fill-opacity:1;fill-rule:evenodd;stroke:none;stroke-width:0.982677;stroke-linecap:square;stroke-linejoin:bevel;stroke-miterlimit:10;stroke-dasharray:none;stroke-opacity:1"
     id="path80-2"
     inkscape:label="Jóquei Clube" />
  <path
     d="m 313.02593,268.76041 1.49756,-1.14255 1.65945,-1.30692 0.37848,-0.30619 0.59507,-0.42822 0.47055,-0.43348 -0.17457,-1.82258 -4.45156,0.47642 -2.42074,0.28672 -1.36933,-0.0142 -0.76284,-0.39455 -0.18352,-0.11493 -1.60229,-0.80146 -0.22709,-0.11339 -1.13823,-0.66736 -0.31298,-0.22987 -0.20917,-0.19836 -0.0983,-0.13687 -0.76191,1.88283 -0.67632,2.48871 -0.0899,0.25274 -0.99981,3.10046 -0.13316,0.54069 -0.0813,0.33151 -0.37786,1.57233 -0.19589,0.75449 -0.13471,0.51752 -0.16344,0.61453 -0.11833,0.45108 -0.0785,0.27776 -0.0436,0.1548 -0.11401,0.3 -0.12637,0.18013 -4.35177,14.12061 -0.0788,0.78694 1.14533,0.23512 0.2379,0.0538 1.9335,0.53018 1.97645,0.61731 2.04226,0.63771 1.94524,0.59908 2.06327,0.60217 1.95389,0.5688 2.02805,0.61484 1.9579,0.60836 1.99499,0.61854 0.33584,0.10567 2.0469,0.62071 1.09373,0.35593 0.91176,0.3 0.17796,0.0973 0.82246,0.5793 0.78107,0.58982 1.72804,1.44039 0.88673,0.74492 0.8824,0.65377 1.15615,0.87746 0.58826,0.30216 0.41865,0.11154 0.58425,0.0704 0.89075,-0.23574 1.1098,-0.52771 -1.16603,-1.79416 -0.6859,-1.61619 -0.46191,-2.1436 -0.19434,-2.0126 -0.0516,-1.52288 -0.10103,-2.02156 -0.19002,-1.03905 -0.35778,-1.23802 -0.28085,-0.86016 -0.62503,-0.90959 -1.10857,-0.99796 -1.48735,-0.95624 -1.49169,-0.33121 -1.06067,-0.3309 -0.92813,-0.46376 -1.06068,-0.69517 -0.72946,-0.86078 -0.99425,-1.22504 -0.76253,-1.25811 -1.19322,-2.38397 -0.66304,-1.45677 -0.59661,-1.39034 -0.72947,-1.45677 -1.19322,-1.29147 -0.72915,-0.56262 2.02402,-1.93227 z"
     style="fill:#000000;fill-opacity:1;fill-rule:evenodd;stroke:none;stroke-width:0.982677;stroke-linecap:square;stroke-linejoin:bevel;stroke-miterlimit:10;stroke-dasharray:none;stroke-opacity:1"
     id="path106"
     inkscape:label="Olímpico" />
  <path
     d="m 316.32259,233.42782 -0.95439,0.15201 -1.65327,0.1344 -1.42124,0.0599 -0.44028,-0.0365 -0.32317,0.017 -2.22702,0.11185 -2.2885,0.0915 -2.34566,0.16653 0.19928,4.73458 0.27312,4.57793 0.30248,4.59771 0.27343,4.58967 0.15758,2.06944 0.24964,3.03218 -0.56942,1.85132 -0.43348,0.95563 -0.39177,0.78291 -0.0534,0.0967 0.0983,0.13687 0.20917,0.19836 0.31298,0.22987 1.13823,0.66736 0.22709,0.11339 1.60229,0.80146 0.18352,0.11493 0.76284,0.39455 1.36933,0.0142 2.42074,-0.28672 4.45156,-0.47642 0.17457,1.82258 0.55088,-0.42544 1.91126,-1.43206 0.58487,-0.0522 1.64369,-0.11401 6.50155,-0.73595 2.25606,-0.1687 0.8892,-0.08 -0.30495,-2.39108 -0.41432,-3.74959 -0.53915,-3.71592 -0.36179,-2.58326 -0.1585,-1.13328 -0.50145,-3.82406 -0.0121,-0.0809 -0.27467,-2.6018 -0.90249,-6.12553 -0.34357,-2.91725 -0.0874,-0.23141 -0.11,-0.14182 -0.21195,0.0303 -0.84718,0.0738 -0.5447,0.0303 -0.58673,0.0331 -2.34998,0.16252 -0.27282,0.0158 -2.01476,0.13131 -1.68478,0.10505 -0.60804,0.0368 -2.51065,0.17024 z"
     style="fill:#000000;fill-opacity:1;fill-rule:evenodd;stroke:none;stroke-width:0.982677;stroke-linecap:square;stroke-linejoin:bevel;stroke-miterlimit:10;stroke-dasharray:none;stroke-opacity:1"
     id="path108"
     inkscape:label="Cambará" />
  <path
     d="m 319.99587,296.90525 -0.17796,-0.0973 -0.91176,-0.3 -1.09373,-0.35593 -2.0469,-0.62071 -0.33584,-0.10567 -1.99499,-0.61854 -1.9579,-0.60836 -2.02805,-0.61484 -1.95389,-0.5688 -2.06327,-0.60217 -1.94524,-0.59908 -2.04226,-0.63771 -1.97645,-0.61731 -1.9335,-0.53018 -0.2379,-0.0538 -1.14533,-0.23512 -1.06995,2.14761 -0.56355,1.64709 -0.86603,2.53691 -0.50145,1.39467 -0.12976,0.29907 -0.19743,0.45418 -0.40196,1.08849 -0.41989,1.14193 -0.7996,2.26409 -1.06562,3.15762 -0.66705,1.60415 -0.78879,-0.064 8.99366,4.36598 6.90845,2.00735 3.96927,1.10424 2.261,1.50558 2.8916,0.81351 2.66513,-3.40418 4.24951,-3.40695 5.62871,-2.81776 6.1657,-2.84711 2.24525,-0.82555 -2.11239,-0.13749 -1.27541,-0.541 -1.42587,-1.71661 -1.1098,0.52771 -0.89075,0.23574 -0.58425,-0.0704 -0.41865,-0.11154 -0.58826,-0.30216 -1.15615,-0.87746 -0.8824,-0.65377 -0.88673,-0.74492 -1.72804,-1.44039 -0.78107,-0.58982 -0.82246,-0.5793 z"
     style="fill:#000000;fill-opacity:1;fill-rule:evenodd;stroke:none;stroke-width:0.982677;stroke-linecap:square;stroke-linejoin:bevel;stroke-miterlimit:10;stroke-dasharray:none;stroke-opacity:1"
     id="path96"
     inkscape:label="Jardim Tropical" />
  <path
     d="m 294.56591,259.53163 -2.65772,0.18847 -1.9267,0.0772 -0.2413,0.013 -4.28473,0.24748 -0.57992,0.0343 -4.09162,0.24253 -1.42186,0.0831 -3.15082,0.18446 0.36025,6.31091 0.21164,4.08328 0.021,0.45325 0.12081,2.1229 0.10505,2.03947 0.11802,2.15194 0.13749,2.06327 0.10443,2.09632 0.11957,2.12476 0.0114,0.31112 -0.31082,0.0198 -1.86893,0.0908 -1.78674,0.11926 -1.79261,0.0887 -1.82969,0.0837 -1.82166,0.1239 0.27344,4.20594 0.0105,0.15726 0.24192,4.11448 1.7645,-0.11957 1.69992,-0.0958 1.87078,-0.10505 1.84452,-0.10381 1.8816,-0.11216 0.3445,-0.0185 4.56804,-0.29104 4.47412,-0.26139 0.14088,-0.008 0.13873,-0.006 4.41881,-0.19279 3.2982,-0.16128 1.06995,-2.14761 0.0788,-0.78694 4.35177,-14.12061 0.12637,-0.18013 0.11401,-0.3 0.0436,-0.1548 0.0785,-0.27776 0.11833,-0.45108 0.16344,-0.61453 0.13471,-0.51752 0.19589,-0.75449 0.37786,-1.57233 0.0813,-0.33151 0.13316,-0.54069 0.99981,-3.10046 0.0899,-0.25274 0.67632,-2.48871 0.76191,-1.88283 0.0534,-0.0967 0.39177,-0.78291 0.43348,-0.95563 -1.70116,0.1724 -2.25823,0.24748 -2.38489,0.21751 -0.0881,-0.87653 -4.55692,0.19341 z"
     style="fill:#000000;fill-opacity:1;fill-rule:evenodd;stroke:none;stroke-width:0.982677;stroke-linecap:square;stroke-linejoin:bevel;stroke-miterlimit:10;stroke-dasharray:none;stroke-opacity:1"
     id="path112"
     inkscape:label="Sílvio Botelho" />
  <path
     id="path114"
     style="fill:#000000;fill-opacity:1;fill-rule:evenodd;stroke:none;stroke-width:0.982677;stroke-linecap:square;stroke-linejoin:bevel;stroke-miterlimit:10;stroke-dasharray:none;stroke-opacity:1"
     d="m 293.64814,244.04147 -4.4961,0.26953 -0.36718,0.0234 -4.20508,1.09765 -2.6211,0.12891 -1.99218,0.0977 -4.58594,0.3125 -0.2832,0.0156 -0.18555,0.0176 -1.9336,0.16406 -1.56835,0.11914 -3.58008,0.21875 -1.25,0.11719 -4.37891,0.28125 -1.61523,0.10352 0.16406,1.69336 -1.85156,0.12304 0.11328,1.80078 -1.11133,0.0293 -0.75,0.55273 0.15039,1.48438 0.006,0.01 0.006,0.0156 0.19531,2.61133 0.17578,4.20117 0.24024,4.20508 0.2539,4.15625 0.21875,4.2207 0.0215,0.34766 -0.34766,0.0156 -1.87305,0.10157 -1.78515,0.11132 -1.80664,0.0957 0.19726,4.18945 0.23828,4.22852 1.84375,-0.11719 0.21094,4.21875 0.0215,0.30468 1.73437,-0.11718 v 0.002 l 2.12695,-0.10547 1.98047,-0.0801 1.79883,-0.10937 1.80469,-0.11133 1.76367,-0.0879 1.78516,-0.11328 1.82031,-0.12305 1.83008,-0.084 1.79297,-0.0899 1.78711,-0.11914 1.86914,-0.0898 0.31054,-0.0195 -0.0117,-0.3125 -0.11914,-2.12305 -0.10546,-2.09765 -0.13672,-2.0625 -0.11719,-2.15235 -0.10547,-2.03906 -0.12109,-2.12305 -0.0215,-0.45312 -0.21094,-4.08399 -0.36132,-6.31054 3.15234,-0.1836 1.42188,-0.082 4.08984,-0.24414 0.58008,-0.0332 4.28515,-0.24805 0.24219,-0.0137 1.92578,-0.0762 2.6582,-0.18946 4.55665,-0.19336 0.0879,0.87696 2.38476,-0.2168 2.25781,-0.24805 1.70118,-0.17187 0.57031,-1.85156 -0.25,-3.03321 -0.1582,-2.06836 -2.29883,0.0664 -2.25,0.11914 -0.26563,-4.56445 -2.34961,0.14843 -2.31054,0.12891 -2.28516,0.13281 -0.0137,-0.22851 -0.14258,-2.33008 z"
     inkscape:label="Pintolândia" />
  <path
     id="path32"
     style="display:inline;fill:#000000;fill-opacity:1;fill-rule:evenodd;stroke:none;stroke-width:0.982677;stroke-linecap:square;stroke-linejoin:bevel;stroke-miterlimit:10;stroke-dasharray:none;stroke-opacity:1"
     d="m 425.79853,72.478966 -1.76563,0.824219 -2.57226,3.84375 -0.66211,5.626953 -0.8086,2.845703 -1.12695,2.648437 -2.38672,3.044922 -0.97461,1.544922 -2.2539,1.458984 -9.14454,-0.298828 -7.55078,-0.564453 -6.52929,0.707031 -0.72852,0.992188 0.33203,2.648437 -0.45117,2.718749 -1.52539,2.18555 -3.71289,1.45703 -3.97656,-1.65625 -3.06446,-4.572266 -4.66015,-4.681641 -1.85352,-0.857422 -1.79883,-0.113281 -1.76172,0.300781 -1.79296,0.84961 -1.92383,3.207031 -1.33203,2.335937 -1.85157,1.275391 -3.375,1.25977 -3.10547,-0.5918 -2.86132,-2.375001 -0.86719,-0.626953 -1.68555,-0.04687 -0.0996,1.458984 0.0176,3.64062 0.13281,1.83789 0.12696,4.87696 0.2539,1.96093 0.79492,1.88672 0.13477,0.27539 0.22266,0.49219 0.67383,1.46485 0.43554,1.00976 1.26953,2.67969 0.0645,0.14258 0.25,0.53906 0.78125,0.66211 1.41211,1.07812 1.29296,1.00977 0.92383,0.77734 0.46094,0.36328 1.33984,1.08985 0.64454,0.53906 0.30078,0.25977 0.38476,0.30859 1.2832,1.00586 0.84961,0.71289 0.375,0.42969 0.38868,0.56836 0.46289,1.09961 0.1582,0.47461 0.54883,1.77929 0.25976,0.85156 0.35547,1.26172 0.42969,1.35938 0.7207,-0.11914 0.78516,1.36133 0.17187,0.34179 0.55469,1.12305 1.25586,2.35352 0.13281,0.26367 0.97461,1.6289 0.49414,0.83985 0.50391,0.85937 0.65234,1.26367 0.1543,0.31836 0.11133,0.22657 0.23242,0.45117 0.61523,1.12304 0.38477,0.83204 0.47852,0.93554 0.88867,1.66211 0.91211,1.67774 0.36914,0.74609 0.52734,1.04102 0.82813,1.63281 0.93359,1.74609 0.35742,0.67188 0.11328,0.21484 0.084,0.16016 0.13672,0.25586 0.20703,0.38672 0.90039,1.77734 1.19336,2.33789 0.0254,-0.0371 0.64258,0.72461 0.0293,-0.0449 2.16797,-3.20313 1.125,-1.67968 1.42774,-2.15235 0.99218,-1.46484 0.42969,-0.63086 0.75391,-1.11328 0.40625,-0.57617 0.35547,-0.54883 2.25,-3.36719 0.15039,-0.21484 2.47461,-3.66016 0.33398,-0.42774 0.33399,-0.53906 0.46679,-0.71094 2.88086,-4.35156 0.85352,-1.26367 1.63672,-2.39844 0.26953,-0.57422 0.5664,-1.20898 0.64649,-1.05469 0.56445,-0.93359 0.33984,-0.52344 2.39844,-3.70703 1.49024,-2.20898 0.64258,-0.95313 0.57812,-0.85742 1.63281,-2.41602 3.83985,-5.68945 1.22656,-1.81836 1.75976,-2.60742 1.03321,-1.53125 0.15429,-0.22852 0.60938,-0.85156 0.89648,-1.37109 0.17383,-0.26758 0.40625,-0.81836 0.36133,-0.86328 0.33984,-1.22852 0.81055,-2.92968 1.10547,-4.322269 1.95703,-7.658203 2.27344,-8.55664 0.20117,-1.201172 0.0645,-0.960938 -0.0332,-1.185547 -0.19727,-1.15625 -0.17382,-1.111328 z"
     inkscape:label="Cauamé" />
  <path
     id="path6085"
     style="fill:#000000;stroke:none;stroke-width:0;stroke-linecap:square;stroke-linejoin:bevel;stroke-miterlimit:10;paint-order:stroke fill markers;stop-color:#000000"
     d="m 522.404,62.398888 -1.04493,0.277343 -0.82617,0.697266 -0.91211,1.484375 -2.375,0.896484 -4.04297,-0.792968 -5.62304,-0.06445 -4.12891,-0.191407 -3.23437,0.445313 -5.44336,2.458984 -4.01172,2.820313 2.21875,3.572265 1.89453,3.765625 1.54101,2.775391 1.34375,2.65039 3.0293,5.398438 1.21875,2.130859 0.0566,0.107422 0.15235,0.248047 0.0723,0.148438 0.12695,0.269531 0.4336,0.855469 0.44922,0.884765 1.70703,3.179688 0.25586,0.380859 1.37109,2.447266 1.33399,2.599606 0.26367,0.38282 1.32226,2.40625 1.09375,1.9375 0.16797,0.30273 1.80664,3.07617 8.67774,16.04102 0.98828,1.83008 0.76172,1.26757 0.45117,0.74414 0.10937,0.1543 0.61524,1.26172 1.17578,1.74023 0.78125,2.13868 0.97266,1.79101 0.17578,0.3125 1.05664,1.92578 0.92773,1.58985 1.14258,1.92187 0.64648,1.35547 0.0645,0.10547 0.10156,0.16992 -0.22461,0.14649 2.29883,4.52734 0.36328,0.082 0.31836,0.0859 0.56445,0.15429 0.35938,0.0859 0.38281,-0.0449 0.42969,-0.23047 1.11133,-0.86133 1.22656,-1.29101 0.81445,-0.91797 0.57813,-0.96875 1.74023,1.00781 0.58203,-0.66992 0.74219,-0.85156 1.30859,-1.50586 3.48633,-4.01172 -2.08008,-1.81641 -0.18164,-0.15429 -0.11718,-0.10547 -1.98047,-1.72657 -1.63477,-1.42382 -0.2832,-0.42383 3.40429,-3.94922 0.25391,-0.17773 3.08594,-3.53516 2.95117,-3.57031 3.12891,-3.39649 0.21093,-0.24414 3.07618,-3.54101 3.11132,-3.4961 3.02344,-3.51367 0.19336,-0.27734 -1.93555,-1.71094 0.17188,-0.19727 1.24805,-1.41406 1.40429,-1.67383 0.21289,-0.29297 3.02149,-3.345699 0.0254,-0.03125 0.0176,-0.02344 0.13086,-0.214844 2.10156,-2.324219 0.13672,-0.15039 0.33398,-0.271485 15.36126,-16.833894 -3.51367,0.330078 -3.32813,-0.333984 -9.10937,-2.88086 -3.28321,-0.666015 -2.7207,0.201171 -2.29687,0.884766 -1.3418,0.257813 -4.16406,1.166015 -7.82422,0.0098 -1.52344,-0.05664 -2.375,-0.552734 -6.64453,-5.048828 -6.38281,-4.769531 -5.63672,-3.972657 -1.56641,-1.144531 z"
     inkscape:label="Paraviana" />
  <path
     d="m 566.43048,176.91044 7.28632,1.97274 14.09497,-16.70232 9.53527,-5.57713 32.52595,-19.14253 26.8731,-5.58144 -3.7462,-12.42657 1.4602,-1.64554 1.442,-2.82641 0.4816,-1.55101 0.3563,-1.70177 0.7653,-2.86009 0.079,-1.55131 -1.2356,-2.04102 -1.7005,-1.15893 -2.1977,-1.10393 -1.2946,-0.14089 -3.6575,0.43286 -0.9942,-0.0689 -0.5929,-0.64944 -0.5172,-0.7996 -1.1877,-1.44349 -1.6103,-1.647094 -1.2544,-1.50651 -0.6624,-0.13996 -1.6301,-0.34481 -2.224,-0.5101 -1.737,-0.61175 -1.2562,-0.29197 -1.4373,-0.26015 -0.7076,-1.1753 -0.6176,-1.81053 -0.1628,-0.88611 -0.032,-1.44441 -0.8707,-1.04739 -0.8144,-0.67942 -2.0151,-1.49601 -1.4163,-0.98992 -1.6415,-0.61206 -7.83473,1.35636 -2.77265,-1.30816 -5.1075,-2.38026 -2.14422,-0.6238 -2.29499,-0.22246 -5.15785,1.65883 -1.25965,-0.52987 -0.66675,-1.91095 0.13842,-1.82382 -0.0819,-1.36686 -1.19322,-1.52288 h -2.91694 l -3.50057,1.26119 -3.57997,1.72155 -15.36266,16.83426 -0.33337,0.27096 -0.13563,0.15046 -2.10189,2.32435 -0.13069,0.21534 -0.0185,0.0232 -0.025,0.0306 -3.0226,3.345784 -0.21133,0.29383 -1.40455,1.67304 -1.24761,1.41537 -0.17332,0.1965 1.93628,1.71074 -0.19341,0.27683 -3.02261,3.51448 -3.11282,3.49593 -3.07605,3.54012 -0.21102,0.24563 -3.12827,3.39645 -2.95185,3.57039 -3.08532,3.53487 -0.25397,0.17704 -3.40356,3.94949 0.28209,0.42328 1.63473,1.42526 1.98016,1.72649 0.11864,0.10382 0.18167,0.15479 2.07933,1.8164 -3.48636,4.01129 -1.30939,1.50651 -0.7409,0.85244 -0.58239,0.67014 -1.5025,1.72866 -1.43854,1.65543 -1.28251,1.47531 0.40536,4.14631 1.18179,0.23017 3.4808,1.19168 3.29325,0.99518 0.6513,0.29629 2.00518,0.61237 0.52555,0.34913 0.71772,0.39579 0.47581,0.4653 0.91639,0.59414 1.4166,1.07612 0.38899,0.27498 0.2101,0.14799 0.48075,0.39733 0.55335,0.25552 1.09374,0.96026 0.50886,0.59754 0.88333,0.69362 0.6961,0.43039 1.35913,1.2581 1.37088,1.75616 0.68436,1.02484 0.19526,0.19495 0.92937,0.92844 0.53296,0.53204 0.46407,0.43039 0.33152,0.69517 0.96119,0.72854 0.27683,0.66365 0.31978,0.19712 0.67447,0.29939 0.25366,0.26324 0.19897,0.46375 v 0.52957 l 0.13255,0.62905 0.39764,0.52988 0.56355,0.26478 -0.10938,0.47673 z"
     style="fill:#000000;fill-opacity:1;fill-rule:evenodd;stroke:none;stroke-width:0.982677;stroke-linecap:square;stroke-linejoin:bevel;stroke-miterlimit:10;stroke-dasharray:none;stroke-opacity:1"
     id="path50"
     inkscape:label="Caçari" />
  <path
     id="path4355"
     style="display:inline;fill:#000000;fill-opacity:1;fill-rule:evenodd;stroke:none;stroke-width:0.982677;stroke-linecap:square;stroke-linejoin:bevel;stroke-miterlimit:10;stroke-dasharray:none;stroke-opacity:1"
     d="m 490.76142,70.428185 -5.25782,2.017578 -8.8164,2.11914 -3.89063,2.21875 -2.46093,9.824219 -2.5625,2.101563 -3.98047,-7.464844 -6.95313,0.115234 -6.54883,1.316406 -5.67382,-1.662109 -6.32032,-6.257813 -5.7539,-3.224609 -6.74414,0.947266 0.50586,2.945312 0.17382,1.111328 0.19727,1.15625 0.0332,1.185547 -0.0645,0.960938 -0.20117,1.201172 -2.27344,8.55664 -1.95703,7.658203 -1.10547,4.322274 -0.81055,2.92968 -0.33984,1.22852 -0.36133,0.86328 -0.40625,0.81836 -0.17383,0.26758 -0.89648,1.37109 -0.60938,0.85156 -0.15429,0.22852 -1.03321,1.53125 -1.75976,2.60742 -1.22656,1.81836 -3.83985,5.68945 -1.63281,2.41602 -0.57812,0.85742 -0.64258,0.95313 -1.49024,2.20898 -2.39844,3.70703 -0.33984,0.52344 -0.56445,0.93359 -0.64649,1.05469 -0.5664,1.20898 -0.26953,0.57422 -1.63672,2.39844 -0.85352,1.26367 -2.88086,4.35156 -0.46679,0.71094 -0.33399,0.53906 -0.33398,0.42774 -2.47461,3.66016 -0.15039,0.21484 -2.25,3.36719 -0.35547,0.54883 -0.40625,0.57617 -0.75391,1.11328 -0.42969,0.63086 -0.99218,1.46484 -1.42774,2.15235 -1.125,1.67968 -2.16797,3.20313 -0.58203,0.84961 -0.33789,0.48047 -0.26758,0.3789 -2.76172,4.10156 -0.1621,0.33789 -0.10157,0.55079 -0.008,0.46679 0.0156,0.15821 -0.0117,0.19336 -0.0547,0.18164 -0.0625,0.0918 -0.15039,0.22657 -0.0899,0.23242 -0.0176,0.1875 0.0391,0.19531 0.13672,0.36719 1.68945,3.39843 1.96094,3.89454 2.19922,4.38086 0.18554,0.21679 0.14258,0.14258 0.33203,0.006 1.58203,-0.44922 0.67579,-0.25586 2.41406,-0.74414 2.29101,-0.65039 0.72657,-0.23437 2.59961,-0.81055 1.41796,-0.4375 1.35743,-0.41797 2.53711,-0.81445 0.62109,-0.16602 0.48828,-0.16211 1.91211,-0.64062 2.46289,-0.57617 2.70703,-1.07227 2.59571,-1.01563 2.52148,-1.05273 1.39453,-0.56055 2.44141,6.48047 1.125,2.8711 1.34961,3.5625 0.38281,1.00781 0.40625,1.0332 0.17187,0.49805 0.42383,1.18555 0.49024,1.27539 0.66211,1.71875 0.76367,1.98828 0.0937,0.23437 0.61719,1.12891 0.4082,0.81054 1.2168,3.04688 0.14648,0.36523 0.0156,-0.008 0.16407,0.39258 0.66992,-0.37891 1.33008,-0.72656 1.33593,-0.73047 1.79102,-0.97265 1.35156,-0.7461 1.83008,-1.0332 0.32422,-0.18359 0.17578,-0.0996 0.12305,-0.0859 2.29297,-1.24805 0.93554,-0.49414 2.48828,-1.36328 0.91602,-0.50391 1.14844,-0.62695 0.81836,-0.44531 5.28125,-2.88086 2.76172,-1.49805 0.5625,-0.31445 1.15039,-0.61914 0.2207,-0.1211 0.56445,-0.32812 0.68946,-0.36719 0.87304,-0.51172 0.22657,-0.1289 2.4082,-1.39063 0.24023,-0.13867 -10.26757,-10.30859 0.004,-0.006 -0.006,-0.006 -1.96875,-6.20899 13.36719,-6.7207 13.38281,-6.67188 45.70703,-22.79101 4.25,-2.11914 v -0.004 l 1.69336,-0.85351 -0.22851,-0.37696 -0.76172,-1.26757 -0.98828,-1.83008 -8.67774,-16.04102 -1.80664,-3.07617 -0.16797,-0.30273 -1.09375,-1.9375 -1.32226,-2.40625 -0.26367,-0.38282 -1.33399,-2.599609 -1.37109,-2.447266 -0.25586,-0.380859 -1.70703,-3.179688 -0.44922,-0.884765 -0.4336,-0.855469 -0.12695,-0.269531 -0.0723,-0.148438 -0.15235,-0.248047 -0.0566,-0.107422 -1.21875,-2.130859 -3.0293,-5.398438 -1.34375,-2.65039 -1.54101,-2.775391 -1.89453,-3.765625 -2.19922,-3.541015 z"
     inkscape:label="Aeroporto" />
  <path
     id="path120"
     style="display:inline;fill:#000000;fill-opacity:1;fill-rule:evenodd;stroke:none;stroke-width:0.982677;stroke-linecap:square;stroke-linejoin:bevel;stroke-miterlimit:10;stroke-dasharray:none;stroke-opacity:1"
     d="m 292.74579,175.29733 -2.09961,1.73242 -2.1914,2.56055 0.23242,0.5039 2.03516,4.76953 2.55664,5.57813 4.48828,9.23828 3.29101,7.57031 0.78516,2.09375 0.13281,0.35743 1.77344,4.6875 0.19531,0.51953 0.95508,2.44726 0.77734,1.72071 0.87891,2.31835 1.06055,2.51758 0.90039,2.21875 0.69531,1.73047 0.28906,0.73242 0.44727,1.08789 1.58203,4.07227 0.32226,-0.0176 0.44141,0.0371 1.41992,-0.0605 1.6543,-0.13281 0.95312,-0.15234 -0.51367,-0.24024 -0.041,-1.41015 -0.0449,-1.14063 -0.53907,-0.49804 0.0879,-1.79688 0.11133,-1.71484 0.0899,-1.1836 0.33789,-5.40234 0.14453,-2.26172 0.082,-1.50391 0.12109,-2.23047 0.0352,-0.73437 0.15234,-2.93359 0.0508,-0.74024 0.0137,-0.22851 0.19335,-3.375 -0.58007,-1.29102 -1.00391,-1.97461 -1.17578,-1.62695 -0.38672,-0.42969 -0.47656,-0.40625 -0.33008,-0.24023 -0.80469,-0.52735 -0.60156,-0.40429 -0.74805,-0.65625 -0.33398,-0.31446 -0.41211,-0.4707 -0.2832,-0.3457 -0.5586,-0.99414 -0.20898,-0.26954 -0.23438,-0.19921 -0.22461,-0.082 -0.40625,-0.041 -0.17968,-0.38281 -0.20118,-0.43555 -0.15429,-0.3125 -0.22071,-0.45703 -0.31445,-0.49805 -0.31445,-1.375 -0.3125,-2.72461 -0.67188,-2.55078 -0.58789,-2.09375 -0.14258,-0.4668 -5.1582,1.68946 -1.27539,-2.97657 -1.27539,-2.97265 -0.0801,-0.12695 -0.0703,-0.0547 -0.0723,-0.0293 -0.0742,-0.0156 -0.13867,0.0215 -1.42578,0.64648 -0.40234,-0.87109 -1.43555,-3.23633 z"
     inkscape:label="Jardim Primavera" />
  <path
     id="path3624"
     style="display:inline;fill:#000000;stroke:none;stroke-width:0;stroke-linecap:square;stroke-linejoin:bevel;stroke-miterlimit:10;paint-order:stroke fill markers;stop-color:#000000"
     d="m 301.90204,167.57858 -0.24804,0.0234 -0.0117,-0.008 h -0.0137 l -0.69531,0.99414 -2.33203,2.11719 -3,2.42188 -0.0742,0.0586 -0.37304,0.30078 -2.02149,1.49024 -0.38672,0.32031 0.58008,1.24023 1.43555,3.23633 0.40234,0.87109 1.42578,-0.64648 0.13867,-0.0215 0.0742,0.0176 0.0723,0.0273 0.0703,0.0547 0.0801,0.12695 1.27539,2.97265 1.27539,2.97657 5.1582,-1.68946 2.44336,-0.80078 1.66016,-0.54883 1.47461,-0.54492 1.66016,-0.61523 1.60742,-0.59571 0.9707,-0.35937 0.71875,-0.29883 1.80664,-0.74804 3.375,-1.47852 1.16016,-0.49609 1.6914,-0.64649 0.59375,-0.22851 1.11328,-0.42774 0.004,0.002 0.28125,-0.13867 -4.37695,-1.02734 -3.90235,-0.86328 -1.95117,-0.44531 -1.76953,-0.40235 -1.49023,-0.33984 -0.94727,-0.23438 -0.28516,-0.10937 -0.46679,-0.17969 -0.44727,-0.23242 -0.36719,-0.17774 -0.37109,-0.25586 -0.25976,-0.19726 -5.04688,-3.26367 -1.70117,-1.22461 z"
     inkscape:label="Piscicultura" />
  <path
     id="path3305-9"
     style="display:inline;fill:#000000;stroke:none;stroke-width:0;stroke-linecap:square;stroke-linejoin:bevel;stroke-miterlimit:10;paint-order:stroke fill markers;stop-color:#000000"
     d="m 325.23603,124.83248 -0.17188,0.22852 -0.90429,1.67773 -1.67969,2.91602 -0.64063,1.88477 -0.16601,1.49023 -0.92774,0.89453 -1.16015,1.62109 -0.73047,1.82032 -1.16016,2.05468 -0.5293,1.5879 -0.13281,3.14453 -5.60156,10.42968 -2.83984,3.74219 -2.09961,1.39063 -1.69141,1.85351 -1.75586,2.64844 -1.13281,3.36719 1.70117,1.22461 5.04688,3.26367 0.25976,0.19726 0.37109,0.25586 0.36719,0.17774 0.44727,0.23242 0.46679,0.17969 0.28516,0.10937 0.94727,0.23438 1.49023,0.33984 1.76953,0.40235 1.95117,0.44531 3.90235,0.86328 5.85351,1.375 v -0.006 l 0.31055,0.0762 v -0.004 h -0.002 v -0.008 l -0.11524,-3.32031 -0.004,-3.29883 0.21289,-3.15625 0.10351,-1.19531 0.28906,-1.91211 0.15235,-0.99805 0.45117,-2.00781 0.082,-0.35547 0.85938,-2.91797 0.7832,-2.33593 0.25391,-0.6504 0.73632,-1.88085 0.4629,-1.00196 0.63085,-1.36523 0.81055,-1.50781 0.68555,-1.27539 0.88867,-1.44922 0.52148,-0.85157 1.34961,-1.89062 0.96485,-1.35156 0.90625,-1.16211 1.89062,-2.44141 0.23828,-0.27344 -0.22461,-0.27929 -0.008,-0.01 -1.86133,-1.74609 -1.99804,-1.88282 -2.00782,-1.92187 -2.06054,-1.9668 -0.25,-0.22851 -1.97461,-1.90821 -0.91211,-0.84179 -0.76953,-0.71094 -0.25781,-0.19531 -0.3418,-0.29883 -0.41602,-0.28516 -1.04883,-0.64648 z"
     inkscape:label="União" />
  <path
     id="path34"
     style="fill:#000000;fill-opacity:1;fill-rule:evenodd;stroke:none;stroke-width:0.982677;stroke-linecap:square;stroke-linejoin:bevel;stroke-miterlimit:10;stroke-dasharray:none;stroke-opacity:1"
     d="m 348.02704,97.869591 -0.41992,0.267578 0.0996,0.662109 -0.31055,0.626953 -0.89453,0.894539 -2.38672,0.82617 -1.48047,-0.16407 -2.8164,0.19922 -2.39844,0.79297 0.0605,1.35938 -0.25977,1.37304 -0.49804,1.86915 -0.43165,1.95312 -3.57812,2.74805 -1.41406,0.49804 -0.875,1.48829 -1.22461,1.1582 -0.96289,1.88867 -1.55664,3.45898 -0.53125,1.80469 -0.15625,2.50391 -0.75586,0.7539 0.86718,0.58985 1.04883,0.64648 0.41602,0.28516 0.3418,0.29883 0.25781,0.19531 1.68164,1.55273 1.97461,1.90821 0.25,0.22851 2.06054,1.9668 2.00782,1.92187 1.99804,1.88282 1.86133,1.74609 0.63867,-1.05859 1.00196,-1.58008 0.30859,-0.41406 3.66797,-5.11328 1.51172,2.08203 0.0898,0.11328 0.084,0.0586 0.0957,0.008 2.5918,-1.58593 1.59765,-0.97657 1.16016,-0.63867 1.50781,-0.79297 1.32031,-0.63672 3.67383,-1.52148 0.20899,-0.084 -0.30078,-0.25977 -0.64454,-0.53906 -1.33984,-1.08985 -0.46094,-0.36328 -0.92383,-0.77734 -1.29296,-1.00977 -1.41211,-1.07812 -0.78125,-0.66211 -0.25,-0.53906 -0.0645,-0.14258 -1.26953,-2.67969 -0.43554,-1.00976 -0.67383,-1.46485 -0.22266,-0.49219 -0.13477,-0.27539 -0.79492,-1.88672 -0.2539,-1.96093 -0.12696,-4.87696 -0.13281,-1.83789 -0.0176,-3.640625 z"
     inkscape:label="Jardim Caranã" />
  <path
     id="path3863"
     style="display:inline;fill:#000000;stroke:none;stroke-width:0;stroke-linecap:square;stroke-linejoin:bevel;stroke-miterlimit:10;paint-order:stroke fill markers;stop-color:#000000"
     d="m 289.53095,74.828575 -3.66016,3.572266 -5.96679,9.072265 -2.32032,3.640625 -0.66211,2.451172 -1.45898,1.587891 -33.37695,34.701176 -12.9336,36.80078 11.00977,8.96875 22.82812,-4.73828 2,-0.37109 15.40821,-3.28907 0.7832,-0.19336 2.95703,-0.61133 0.33203,-0.0547 0.23828,-0.0371 0.20703,-0.0352 0.24805,-0.0625 6.63672,-1.40625 1.15039,-0.0781 0.38867,-0.0254 0.38672,-0.1543 0.25781,-0.0586 0.33789,-0.0176 0.46094,-0.004 0.45703,0.0371 0.39258,0.0781 0.69922,0.19335 0.0898,0.0273 0.24219,0.0723 0.44141,0.15821 0.4707,0.17968 0.99023,0.52735 2.93555,1.74414 0.13086,0.084 0.0215,0.0137 0.24804,-0.0234 0.01,0.006 1.13281,-3.36719 1.75586,-2.64844 1.69141,-1.85351 2.09961,-1.39063 2.83984,-3.74219 5.60156,-10.42968 0.13281,-3.14453 0.5293,-1.58985 1.16016,-2.05273 0.73047,-1.82032 1.16015,-1.62109 0.92774,-0.89453 0.16601,-1.49023 0.64063,-1.88477 1.67969,-2.91602 0.90429,-1.67773 0.17188,-0.22852 0.75586,-0.7539 0.15625,-2.50391 0.53125,-1.80469 1.55664,-3.45898 0.96289,-1.88867 1.22461,-1.1582 0.875,-1.48829 1.41406,-0.49804 3.57812,-2.74805 0.43165,-1.95312 0.49804,-1.86915 0.25977,-1.37304 -0.0605,-1.35938 2.39844,-0.79297 2.8164,-0.19922 1.48047,0.16407 2.38672,-0.82617 0.89453,-0.894539 0.31055,-0.626953 -0.0996,-0.662109 0.41992,-0.267578 1.68555,0.04687 -3.7793,-2.8125 -2.67578,-1.201172 -2.83984,-0.384766 -4.82422,2.828125 -7.29102,2.25 -5.55664,0.533203 -3.77929,0.199219 -4.18946,-2.785156 -3.69922,-5.359375 -3.8457,-5.826172 -15.04883,-10.197266 z"
     inkscape:label="Cidade Satélite" />
  <path
     d="m 305.44394,248.03475 -0.30248,-4.59771 -0.27312,-4.57793 -0.19928,-4.73458 -2.28171,0.1341 -2.29715,0.13069 -1.33473,0.0831 -0.94111,0.0491 -2.40498,0.1307 -0.24161,0.0164 -2.0472,0.12297 -2.33979,0.12915 -0.24748,0.01 -2.1059,0.14769 -0.38806,0.0201 -2.19025,0.0989 -1.81486,0.11988 -1.56615,0.0911 -1.0029,0.0371 -2.03453,0.13255 -0.26756,0.0198 -1.80837,0.10845 -0.57993,0.0334 -0.32349,0.0204 -1.21392,0.0593 -0.39764,0.0235 0.26077,4.45651 0.18353,3.47369 0.0967,2.19674 4.58473,-0.31113 1.9922,-0.0979 2.62219,-0.12884 4.20563,-1.09868 0.36643,-0.0235 4.49575,-0.2688 0.15355,2.05647 0.14212,2.32928 0.0139,0.22895 2.28387,-0.13224 2.31198,-0.12822 2.34937,-0.14892 0.2654,4.56464 2.24988,-0.11988 2.29962,-0.0664 -0.27343,-4.58967 z"
     style="fill:#000000;fill-opacity:1;fill-rule:evenodd;stroke:none;stroke-width:0.982677;stroke-linecap:square;stroke-linejoin:bevel;stroke-miterlimit:10;stroke-dasharray:none;stroke-opacity:1"
     id="path116"
     inkscape:label="Nova Canaã" />
  <path
     d="m 311.53024,233.7547 -1.58067,-4.07246 -0.44707,-1.08848 -0.28919,-0.73256 -0.6961,-1.72927 -0.90063,-2.21992 -1.05944,-2.51713 -0.88024,-2.31816 -0.77705,-1.72094 -0.95439,-2.447 -0.19588,-0.51906 -1.77377,-4.68792 -0.13255,-0.35809 -0.78538,-2.09231 -3.2911,-7.57057 -4.48678,-9.23835 -2.55761,-5.57805 -2.03454,-4.77072 -0.23296,-0.50238 -0.36087,0.28548 -1.78983,1.32422 -1.85657,2.54927 -5.07165,4.43674 -5.07166,3.84043 -0.7721,0.71556 2.75782,6.27106 0.10443,0.91577 0.0114,0.36705 -0.20299,2.95926 -0.33986,4.68885 -0.23204,4.58133 -0.31483,4.60605 -0.29846,4.70955 -0.0269,1.18982 0.0229,0.23821 0.029,0.18415 0.0806,0.46344 0.0272,0.21103 -9.2e-4,0.24624 -0.12359,2.12506 0.11617,5.10503 0.0952,4.21428 1.21392,-0.0593 0.32349,-0.0204 0.57993,-0.0334 1.80837,-0.10845 0.26756,-0.0198 2.03453,-0.13255 1.0029,-0.0371 1.56615,-0.0911 1.81486,-0.11988 2.19025,-0.0989 0.38806,-0.0201 2.1059,-0.14769 0.24748,-0.01 2.33979,-0.12915 2.0472,-0.12297 0.24161,-0.0164 2.40498,-0.1307 0.94111,-0.0491 1.33473,-0.0831 2.29715,-0.13069 2.28171,-0.1341 2.34566,-0.16653 2.2885,-0.0915 2.22702,-0.11185 z"
     style="fill:#000000;fill-opacity:1;fill-rule:evenodd;stroke:none;stroke-width:0.982677;stroke-linecap:square;stroke-linejoin:bevel;stroke-miterlimit:10;stroke-dasharray:none;stroke-opacity:1"
     id="path128"
     inkscape:label="Silvio Leite" />
  <path
     id="path130"
     style="fill:#000000;fill-opacity:1;fill-rule:evenodd;stroke:none;stroke-width:0.982677;stroke-linecap:square;stroke-linejoin:bevel;stroke-miterlimit:10;stroke-dasharray:none;stroke-opacity:1"
     d="m 273.5329,192.74264 -3.37109,3.125 -1.69141,1.02734 -5.00586,1.0918 -4.23047,0.73047 -2.26562,0.56055 -4.31055,0.79492 -5.40234,0.23242 -3.73438,1.78906 -3.85351,1.77539 -0.72461,14.65039 -0.25781,4.64063 -0.22852,4.54102 -0.21094,4.57812 -0.27148,5.73633 0.28711,4.69336 0.31054,4.64258 2.32422,-0.17383 2.29492,-0.13672 2.20899,-0.13672 0.22851,-0.0137 1.9375,-0.12695 0.2168,-0.0117 1.64453,-0.0918 1.37891,-0.10547 0.27344,-0.0195 1.79492,-0.10938 1.93164,-0.12109 2.18359,-0.10351 1.90625,-0.14063 0.0254,1.1875 -0.0234,1.57617 1.85156,-0.12304 -0.16406,-1.69336 1.61523,-0.10352 4.37891,-0.28125 1.25,-0.11914 3.58008,-0.2168 1.56835,-0.11914 1.9336,-0.16601 0.18555,-0.0156 0.2832,-0.0156 4.58398,-0.3125 -4.58398,0.31054 -0.0957,-2.19531 -0.1836,-3.47461 -0.26172,-4.45703 0.39844,-0.0234 -0.0957,-4.21289 v -0.002 l -0.11719,-5.10352 0.125,-2.125 v -0.24609 l -0.0273,-0.21094 -0.0801,-0.46484 -0.0293,-0.1836 -0.0234,-0.23828 0.0273,-1.18945 0.29882,-4.70898 0.31446,-4.60743 0.23242,-4.58007 0.33984,-4.68946 0.20313,-2.95898 -0.0117,-0.36719 -0.10352,-0.91601 z"
     inkscape:label="Alvorada" />
  <path
     id="path118"
     style="display:inline;fill:#000000;fill-opacity:1;fill-rule:evenodd;stroke:none;stroke-width:0.982677;stroke-linecap:square;stroke-linejoin:bevel;stroke-miterlimit:10;stroke-dasharray:none;stroke-opacity:1"
     d="m 258.89618,246.061 -1.90625,0.14063 -2.18359,0.10351 -1.93164,0.12109 -1.79492,0.10743 -0.27344,0.0215 -1.37891,0.10547 -1.64453,0.0918 -0.2168,0.0117 -1.9375,0.12695 -0.22851,0.0137 -2.20899,0.13672 -2.29492,0.13672 -2.32422,0.17383 -0.49414,0.0351 -2.24218,0.14063 -2.34375,0.0879 -2.26953,0.16601 0.25195,4.33789 -0.31641,0.0254 0.12696,4.66797 0.23242,4.20118 0.29687,4.10351 0.25781,4.23047 0.13086,4.17578 0.0215,0.43359 1.88476,-0.1289 1.82032,-0.11328 1.81054,-0.0859 1.80078,-0.13672 0.39258,-0.0234 1.86133,-0.0762 1.76367,-0.10351 1.82227,-0.0664 1.81054,-0.10938 1.81641,-0.11523 1.8125,-0.11719 1.78516,-0.0976 1.80664,-0.0957 1.78515,-0.11132 1.87305,-0.10157 0.34766,-0.0156 -0.0215,-0.34766 -0.21875,-4.2207 -0.2539,-4.15625 -0.24024,-4.20508 -0.17578,-4.20312 -0.19531,-2.60938 -0.006,-0.0176 -0.008,-0.008 -0.14844,-1.48438 0.75,-0.55273 1.11133,-0.0312 -0.11328,-1.79883 0.0234,-1.57617 z"
     inkscape:label="Santa Luzia" />
  <path
     id="path134"
     style="fill:#000000;fill-opacity:1;fill-rule:evenodd;stroke:none;stroke-width:0.982677;stroke-linecap:square;stroke-linejoin:bevel;stroke-miterlimit:10;stroke-dasharray:none;stroke-opacity:1"
     d="m 239.66767,203.86959 -3.90235,1.80078 -3.49218,0.52735 -4.07813,0.16601 -4.0332,-1.08984 -1.16602,-0.31641 -0.17578,-0.0469 -0.25976,-0.0703 -2.08789,-0.0996 -4.03321,0.86328 -1.38086,0.1289 -0.71875,0.0664 -1.50586,0.92969 -1.17968,0.72656 -4.5,3.57422 -6.01954,4.56836 -7.42578,4.23828 -5.38281,5.76172 -4.69336,4.03906 -2.95508,0.5293 -3.0332,0.15039 -1.64844,-0.4375 -1.41992,-0.66797 -1.51562,-0.22852 h -1.43946 l -1.94726,0.89063 -1.52735,1.1582 -2.78711,2.46875 0.0566,1.17188 0.53125,2.78125 0.79493,3.57617 0.19726,0.91992 0.12891,0.60742 0.60937,2.85352 1.05274,3.36719 2.1289,2.19336 1.45899,3.77539 3.01953,5.09765 0.18945,0.25782 2.82422,-0.55469 2.37891,-0.36328 2.7207,-0.41797 2.61133,-0.38672 2.57422,-0.39063 3.91601,-0.58593 0.11133,-0.0391 11.06055,-3.90234 1.63281,0.082 1.31641,-0.16015 0.0781,-4.01758 2.23438,-0.16797 2.28515,-0.17188 2.28907,-0.16992 3.41211,-0.25586 2.31445,-0.17383 0.3164,-0.0195 2.30469,-0.12109 2.41797,-0.13086 2.2168,-0.11914 2.32812,-0.12695 2.35157,-0.125 2.26953,-0.16602 2.34375,-0.0898 2.24218,-0.14063 0.49414,-0.0351 -0.31054,-4.64258 -0.28711,-4.69336 0.27148,-5.73633 0.21094,-4.57812 0.22852,-4.54102 0.25781,-4.64063 z"
     inkscape:label="Equatorial" />
  <path
     d="m 273.53221,192.74303 0.7721,-0.71556 5.07166,-3.84043 5.07165,-4.43674 1.85657,-2.54927 1.78983,-1.32422 0.36087,-0.28548 2.19149,-2.56163 2.0988,-1.73298 0.38744,-0.31978 2.02218,-1.48983 0.37292,-0.30093 0.0735,-0.059 3.00097,-2.42105 2.33176,-2.11734 0.69919,-1.00042 -0.13224,-0.0834 -2.93547,-1.74565 -0.989,-0.52741 -0.76778,-0.29382 -0.38651,-0.11617 -0.0899,-0.0269 -0.70042,-0.19218 -0.39146,-0.0788 -0.45789,-0.0371 -0.45974,0.004 -0.3377,0.0164 -0.25922,0.0603 -0.38558,0.15448 -0.38899,0.0244 -1.14997,0.0791 -6.63718,1.40487 -0.24748,0.0639 -0.20701,0.034 -0.23975,0.0371 -0.6408,0.10381 -2.63732,0.53203 -1.24111,0.26911 -5.22892,1.13236 -0.69517,0.14274 -1.09497,0.22523 -7.9407,1.74318 -2.00086,0.37138 -13.27189,2.70499 -2.63794,0.54316 -5.12356,1.05449 -0.15449,0.0423 -0.93956,0.21195 -0.25582,0.0683 -0.49002,0.10721 -12.0972,2.49088 -21.15204,4.3876 -4.00882,0.83174 -1.77902,0.35314 -4.75466,1.09034 -1.87665,0.37848 -1.81424,0.3825 -23.40902,4.86527 -15.60303,3.17894 -1.01341,0.20886 -0.26911,0.055 -1.04337,0.21381 -6.21421,1.32762 0.0856,1.43051 0.40258,7.31937 0.40968,7.3824 0.0754,0.35964 0.15727,2.86596 1.71784,2.81343 2.96235,2.29066 0.91948,0.52401 2.18469,3.03125 0.45696,0.17055 0.12297,0.0457 2.80169,3.10787 3.71283,4.50255 1.25007,1.55162 1.70703,0.63894 1.31156,0.085 2.78717,-2.46893 1.5269,-1.15831 1.94586,-0.89198 1.43978,9.2e-4 1.51578,0.22925 1.42062,0.66644 1.64894,0.43842 3.03157,-0.14985 2.95555,-0.53049 4.6938,-4.0394 5.3834,-5.76065 7.42504,-4.23807 6.01987,-4.56866 4.49976,-3.57442 1.17901,-0.72668 1.5062,-0.92875 0.71927,-0.0674 1.38046,-0.12946 4.03261,-0.86263 2.08829,0.0995 0.25984,0.0701 0.17611,0.0476 1.16665,0.31546 4.03261,1.08972 4.0774,-0.16561 3.49192,-0.52802 3.90377,-1.79941 3.8531,-1.77624 3.73415,-1.78952 5.40318,-0.23173 4.30913,-0.79466 2.26595,-0.56108 4.23127,-0.73008 5.00523,-1.0925 1.69065,-1.02638 3.37143,-3.12487 z"
     style="fill:#000000;fill-opacity:1;fill-rule:evenodd;stroke:none;stroke-width:0.982677;stroke-linecap:square;stroke-linejoin:bevel;stroke-miterlimit:10;stroke-dasharray:none;stroke-opacity:1"
     id="path138"
     inkscape:label="Murilo Teixeira Cidade" />
  <path
     d="m 348.15955,335.42543 -1.1478,1.39466 -0.55923,0.69548 -1.34677,1.78366 -0.28981,0.35592 8.14184,8.53824 3.58708,3.35166 3.25494,-0.62226 4.96568,0.29135 4.70708,0.52957 4.64745,0.0399 5.56878,0.99332 9.08264,1.98633 2.45317,0.26509 0.98808,0.19187 0.55644,0.10783 1.4129,-1.42927 1.20063,-1.21454 0.87715,-0.89693 1.49601,-1.52937 0.20021,-0.21257 2.64165,-2.52548 3.35566,-3.48574 2.10931,-2.43742 1.06963,-1.33288 0.97664,-1.21732 1.027,-1.19538 0.25613,-0.32967 -0.99672,-1.69652 -2.18778,-3.44341 -2.79119,-2.95 -5.3698,-3.77462 -6.23213,-3.90686 -5.50235,-3.04609 -2.21003,-0.89661 -0.13162,-0.059 -0.0395,0.17889 -0.13254,0.83204 0.0578,0.32287 0.17828,0.29382 0.58023,0.49249 0.72916,0.47581 0.99456,0.70784 -1.00692,2.92589 -1.11042,3.22003 -0.19063,0.5339 -0.13687,0.28146 -0.27745,0.36396 -0.97787,0.98931 -0.84719,0.93647 -0.10195,0.15201 -0.17426,0.51628 -1.25934,3.97823 -0.68776,2.0404 -0.5345,1.72588 -0.12019,0.25243 -1.3301,1.61804 -0.37292,-0.0828 -0.31081,-0.0538 -0.51381,-0.0785 -0.65872,-0.15325 -4.77721,-1.53803 -2.64505,-0.64512 -4.40614,-1.39837 -2.06512,-0.66119 -2.44917,-0.7894 -1.71475,-0.59229 -1.05851,-0.40443 -1.93721,-0.66057 -1.72835,-0.65408 -0.0791,-0.03 -1.68447,-0.56324 -0.29228,-0.19465 -0.55429,0.67355 -2.04998,2.51713 -0.12544,0.148 z"
     style="fill:#000000;fill-opacity:1;fill-rule:evenodd;stroke:none;stroke-width:0.982677;stroke-linecap:square;stroke-linejoin:bevel;stroke-miterlimit:10;stroke-dasharray:none;stroke-opacity:1"
     id="path92"
     inkscape:label="São Bento" />
  <path
     d="m 417.67322,325.19375 0.81258,-2.82394 0.38652,-2.91477 0.68374,-6.30196 0.36921,-3.03403 0.24686,-2.64165 0.42143,-4.4735 0.32163,-2.38861 0.17766,-2.02186 -0.74801,-0.22246 -1.54297,-0.44799 -0.62998,-0.21813 -2.04164,-0.62936 -2.05152,-0.48106 -3.07667,-0.934 -2.75473,-0.83637 -2.19458,-0.63276 -3.19871,-0.91052 -3.28522,-0.98683 -0.39857,-0.10289 -0.21288,-0.0491 -0.49527,-0.14738 -2.47202,-0.75944 -1.47562,-0.43533 -0.93338,-0.27219 -1.9471,-0.59229 -1.94153,-0.60155 -2.02001,-0.62071 -2.31199,-0.77829 -0.69208,-0.25458 -1.59117,-0.65779 -1.84915,-0.78662 -1.58375,-0.63524 -1.01928,-0.43038 -0.64234,-0.27498 -0.8929,-0.34141 -1.16634,-0.39949 -1.00074,-0.30433 -1.99313,-0.63925 -2.03021,-0.62905 -1.99931,-0.64141 -0.30649,-0.0973 -2.08027,-0.62504 -2.01166,-0.58364 -0.75141,-0.21133 -0.22801,-0.0399 -1.02916,-0.35191 -1.93567,-0.62813 -0.33492,-0.10937 -2.22949,-0.68189 -0.43996,-0.13471 -1.95637,6.26025 -3.01796,10.19491 0.52184,0.1897 -3.04609,7.99107 2.91694,3.90685 2.054,2.88388 1.15954,1.01063 3.28337,2.26378 6.15921,1.48674 h 3.6461 l 7.2928,1.32422 3.98441,0.30124 2.57893,1.08941 0.7205,0.32071 0.12019,0.0479 0.13162,0.059 2.21003,0.89661 5.50235,3.04609 6.23213,3.90686 5.3698,3.77462 2.79119,2.95 2.18778,3.44341 0.99672,1.69652 0.22462,-0.22585 2.42136,-2.79798 1.94771,-2.61354 0.59198,-0.79496 0.21658,-0.29012 1.0616,-1.6715 0.0723,-0.13316 0.63956,-1.17562 0.10999,-0.26107 0.43317,-1.02885 0.56231,-1.33504 z"
     style="display:inline;fill:#000000;fill-opacity:1;fill-rule:evenodd;stroke:none;stroke-width:0.982677;stroke-linecap:square;stroke-linejoin:bevel;stroke-miterlimit:10;stroke-dasharray:none;stroke-opacity:1"
     id="path78-5"
     inkscape:label="Centenário" />
  <path
     d="m 341.6957,343.47519 0.89075,1.02639 2.02433,2.20168 1.86244,2.0818 2.59809,2.69016 2.29962,2.52455 0.31669,0.2793 0.87931,-1.01216 0.88642,-0.35439 1.10919,-0.46684 1.98232,-0.90063 -3.58708,-3.35166 -8.14184,-8.53824 0.28981,-0.35592 1.34677,-1.78366 0.55923,-0.69548 1.1478,-1.39466 0.12544,-0.148 2.04998,-2.51713 0.55429,-0.67355 0.29228,0.19465 1.68447,0.56324 0.0791,0.03 1.72835,0.65408 1.93721,0.66057 1.05851,0.40443 1.71475,0.59229 2.44917,0.7894 2.06512,0.66119 4.40614,1.39837 2.64505,0.64512 4.77721,1.53803 0.65872,0.15325 0.51381,0.0785 0.31081,0.0538 0.37292,0.0828 1.3301,-1.61804 0.12019,-0.25243 0.5345,-1.72588 0.68776,-2.0404 1.25934,-3.97823 0.17426,-0.51628 0.10195,-0.15201 0.84719,-0.93647 0.97787,-0.98931 0.27745,-0.36396 0.13687,-0.28146 0.19063,-0.5339 1.11042,-3.22003 1.00692,-2.92589 -0.99456,-0.70784 -0.72916,-0.47581 -0.58023,-0.49249 -0.17828,-0.29382 -0.0578,-0.32287 0.13254,-0.83204 0.0395,-0.17889 -0.12019,-0.0479 -0.7205,-0.32071 -2.57893,-1.08941 -3.98441,-0.30124 -7.2928,-1.32422 h -3.6461 l -6.15921,-1.48674 -3.28337,-2.26378 -1.15954,-1.01063 -2.054,-2.88388 -2.91694,-3.90685 -4.31593,-0.36736 -6.82873,0.19866 -4.25167,0.96243 -2.24525,0.82555 -6.1657,2.84711 -5.62871,2.81776 -4.24951,3.40695 -2.66513,3.40418 -1.37891,1.76079 -4.01685,3.78389 0.27344,0.14799 3.33465,2.16152 4.05053,2.51837 2.15441,1.28313 1.44194,0.91052 0.24872,0.14058 0.48075,0.28147 3.79686,2.18067 2.66668,1.55687 0.81783,0.46623 0.37477,0.21751 3.56916,2.147 3.44589,2.10837 1.89457,1.14039 2.45287,1.46697 1.29611,0.96181 1.08848,1.03286 z"
     style="fill:#000000;fill-opacity:1;fill-rule:evenodd;stroke:none;stroke-width:0.982677;stroke-linecap:square;stroke-linejoin:bevel;stroke-miterlimit:10;stroke-dasharray:none;stroke-opacity:1"
     id="path94"
     inkscape:label="Profa. Araceli Souto Maior" />
  <path
     d="m 153.99683,223.39913 -2.18469,-3.03125 -0.91948,-0.52401 -2.96235,-2.29066 -1.71784,-2.81343 -0.15727,-2.86596 -0.0754,-0.35964 -0.40968,-7.3824 -0.40258,-7.31937 -0.0856,-1.43051 -6.0384,1.28993 -4.23468,0.70351 -4.87144,0.60433 -6.67549,0.76315 -12.06817,1.42927 -16.913957,2.00302 -2.57677,0.30525 -1.50219,0.28672 -0.42699,0.18847 -0.27868,0.1239 -0.16962,0.0615 -0.0349,0.18569 -0.0423,0.11617 -0.051,0.21319 -0.0732,0.25427 0.0192,0.89446 0.62102,3.38038 1.09806,6.04953 1.1064,6.33501 1.1271,6.29856 0.45047,2.61477 0.5064,2.57306 0.78755,4.55228 0.70413,3.86546 0.21566,0.99332 0.26725,0.989 0.3791,1.3202 0.7789,1.7299 2.45318,4.63509 2.444527,4.44507 3.34794,6.23244 1.80652,3.16195 1.88963,3.53424 1.17684,2.04442 1.59086,2.97997 3.14094,5.78567 1.50836,2.71488 0.48044,0.65407 1.72372,2.185 2.14638,2.16028 2.17943,1.83773 4.96599,4.17535 2.11116,1.9165 12.59649,10.7356 4.75281,4.07463 20.50197,17.49606 5.22491,4.51026 7.10217,6.07549 1.3029,1.11412 17.32428,-19.78795 4.34497,-4.91594 0.2654,-0.29784 4.19419,-5.02933 0.56232,-0.10876 -1.01835,-0.75078 -1.69127,-1.76295 -1.12494,-1.01557 -9.7327,-8.78696 -5.13654,-4.14105 -0.19063,0.19063 -1.61094,-1.50003 -1.72866,-1.58746 -0.19001,-0.16746 -0.18971,-0.16715 -0.87128,-0.81134 -0.30618,-0.30433 -1.66687,-1.50497 -0.34017,-0.32534 -0.51226,-0.49001 -0.75017,-0.66798 -1.737,-1.64524 -1.55286,-1.3508 -1.45924,-1.33874 -0.23357,-0.21411 -0.97695,-0.91948 -0.64605,-0.59414 -0.27158,-0.24408 -1.35295,-1.21671 -1.62917,-1.53679 -1.70394,-1.52041 -1.63999,-1.45862 -0.85985,-0.90744 -0.1792,-0.22338 -0.0779,-0.23079 0.021,-0.15232 0.19805,-0.24161 0.26108,-0.40845 0.94944,-1.39096 0.40938,-0.61237 0.30248,-0.46746 0.12359,-0.18755 0.2864,-0.45418 0.1653,-0.24686 -0.002,-0.45881 -0.51783,-2.17789 -0.0442,-0.32318 0.0649,-0.22338 1.46666,-2.08242 0.24871,-0.23822 0.32535,-0.16962 0.469,-0.16159 3.66649,-0.79991 -3.01952,-5.09853 -1.45862,-3.77432 -2.12784,-2.19519 -1.05418,-3.3671 -0.60867,-2.85205 -0.12976,-0.60835 -0.1965,-0.91979 -0.79559,-3.57565 -0.53018,-2.7813 -0.0562,-1.17129 -1.31156,-0.085 -1.70703,-0.63894 -1.25007,-1.55162 -3.71283,-4.50255 -2.80169,-3.10787 -0.12297,-0.0457 -0.45696,-0.17055 z"
     style="fill:#000000;fill-opacity:1;fill-rule:evenodd;stroke:none;stroke-width:0.982677;stroke-linecap:square;stroke-linejoin:bevel;stroke-miterlimit:10;stroke-dasharray:none;stroke-opacity:1"
     id="path132"
     inkscape:label="Laura Moreira" />
  <path
     id="path110"
     style="fill:#000000;fill-opacity:1;fill-rule:evenodd;stroke:none;stroke-width:0.982677;stroke-linecap:square;stroke-linejoin:bevel;stroke-miterlimit:10;stroke-dasharray:none;stroke-opacity:1"
     d="m 231.22236,247.7817 -2.35157,0.12696 -2.32812,0.125 -2.2168,0.12109 -2.41797,0.12891 -2.30469,0.12304 -0.3164,0.0195 -2.31445,0.17383 -3.41211,0.25391 -2.28907,0.17187 -2.28515,0.17188 -2.23438,0.16601 -0.0781,4.01758 -1.31641,0.16211 -1.63281,-0.084 -11.06055,3.90429 -0.11133,0.0391 -3.91601,0.58593 -2.57422,0.39063 -2.61133,0.38672 -2.7207,0.41601 -2.37891,0.36524 -2.82422,0.55469 -0.18945,-0.25782 -3.01953,-5.09765 -1.45899,-3.77539 1.45703,3.77539 3.01954,5.09765 -3.66602,0.80078 -0.46875,0.16211 -0.32422,0.16993 -0.25,0.23632 -1.46679,2.08399 -0.0645,0.22265 0.0449,0.32227 0.51758,2.17773 0.002,0.45899 -0.16602,0.24805 -0.28516,0.45312 -0.12304,0.1875 -0.30274,0.46875 -0.41015,0.61133 -0.94922,1.39062 -0.26172,0.40821 v 0.002 l -0.19727,0.24023 -0.0215,0.15235 0.0781,0.23047 0.17774,0.22461 0.86133,0.90625 1.63867,1.45898 1.70508,1.52148 1.6289,1.53711 1.35352,1.2168 0.27148,0.24219 0.64649,0.5957 0.97656,0.91797 0.23242,0.21484 1.45899,1.33985 1.55273,1.34961 1.73828,1.64648 0.75,0.66797 0.51172,0.48828 0.33984,0.32617 1.66797,1.50586 0.30664,0.30274 0.8711,0.8125 0.18945,0.16601 0.18945,0.16797 1.72852,1.58789 1.61133,1.5 0.1914,-0.1914 5.13672,4.14062 9.73242,8.78711 1.125,1.01563 1.69141,1.76367 1.01758,0.75 0.94336,0.74414 2.21289,2.07812 3.53906,3.16993 2.84961,2.48242 3.19726,2.67187 0.14844,-0.13867 2.55274,2.27734 5.17578,4.81641 5.51758,4.83398 1.90625,2.25 1.99804,2.53711 1.06446,-0.70117 3.55468,0.0274 1.24414,-0.28907 0.79493,-0.47851 2.50586,-2.06641 4.18945,-1.92773 4.7207,-3.00782 2.98828,-0.49414 2.78321,0.92774 3.64648,0.72851 2.25391,-0.19921 3.51367,-0.72852 2.85156,-1.05859 5.36328,2.14843 4.25,1.56055 6.09961,1.05859 3.37305,-0.16796 3.97851,0.0645 1.52539,-1.32422 2.99024,-1.94922 0.85352,-0.61719 2.26171,-1.63476 2.24805,-1.82422 0.88867,-0.85156 4.01563,-3.78321 1.3789,-1.76172 -2.89062,-0.8125 -2.26172,-1.50585 -3.96875,-1.10352 -6.9082,-2.00781 -8.99414,-4.36719 0.78906,0.0645 0.66797,-1.60351 1.06445,-3.15821 0.80078,-2.26367 0.41992,-1.14258 0.40039,-1.08789 0.19727,-0.45312 0.13086,-0.30078 0.50195,-1.39453 0.86524,-2.53711 0.56445,-1.64649 -3.29883,0.16211 -4.41992,0.19141 -0.13867,0.006 -0.14063,0.01 -4.47265,0.25977 -4.56836,0.29101 -0.34571,0.0195 -1.88086,0.11132 -1.84374,0.10352 -1.8711,0.10547 -1.70117,0.0957 -1.76367,0.12109 -0.24219,-4.11523 -0.01,-0.1582 -0.27343,-4.20508 -1.78516,0.11328 -1.76367,0.0879 -1.80469,0.11133 -1.79883,0.10937 -1.98047,0.0801 -2.12695,0.10352 -1.73437,0.11718 -0.0215,-0.30664 -0.21094,-4.21679 -1.84375,0.11719 -0.23828,-4.23047 -0.19726,-4.1875 -1.78516,0.0976 -1.8125,0.11719 -1.81641,0.11523 -1.81054,0.10938 -1.82227,0.0664 -1.76367,0.10351 -1.86133,0.0762 -0.39258,0.0234 -1.80078,0.13672 -1.81054,0.0859 -1.82032,0.11328 -1.88476,0.1289 -0.0215,-0.43359 -0.13086,-4.17578 -0.25781,-4.23047 -0.29687,-4.10547 -0.23242,-4.19922 -0.12696,-4.66797 0.31641,-0.0254 z"
     inkscape:label="Senador Hélio Campos" />
  <path
     d="m 278.68079,386.61687 3.91026,-2.62435 0.8339,-0.60031 1.24451,-0.95316 0.66613,-0.4239 1.80033,-1.01711 2.98522,-1.71507 1.87696,-1.10918 2.00117,-1.12556 1.96687,-0.97416 2.01506,-1.20342 1.86584,-1.082 1.92176,-1.1719 0.29785,-0.17982 0.87746,-0.52925 1.03657,-0.61237 -1.35913,-2.73001 1.61526,-0.46561 4.18308,-2.87369 3.18234,-1.65543 4.70058,-0.70197 3.01056,0.63956 1.69621,1.14811 4.24302,1.98665 1.92268,-0.72823 3.57998,-2.38398 3.31488,-2.11888 2.12166,-2.25173 0.31484,-0.87993 -3.77339,-3.30716 -1.69251,-1.79045 -2.26533,-2.13866 -1.63257,-1.58653 -2.06141,-1.9715 -2.00271,-1.9539 -2.24308,-2.23876 -1.44658,-1.37613 -1.49168,-1.4237 -1.52474,-1.47315 -1.73206,-1.69683 -4.43364,-4.24641 -0.59661,0.57127 -2.92373,-2.90025 -3.77679,-3.68533 -0.85429,0.61731 -2.98985,1.95018 -1.52505,1.32423 -3.97761,-0.0661 -3.37451,0.16869 -6.09928,-1.05944 -4.24981,-1.55934 -5.36332,-2.14885 -2.85081,1.05944 -3.51355,0.72854 -2.25421,0.19866 -3.6464,-0.72854 -2.78439,-0.92689 -2.98676,0.49311 -4.72222,3.0087 -4.18833,1.92639 -2.50663,2.06636 -0.79435,0.47951 -1.2442,0.28857 -3.55556,-0.0272 -1.06346,0.70105 0.87962,1.0684 4.88875,6.3174 1.96811,2.49983 2.00796,2.53413 1.94308,2.316 1.92701,2.45164 1.89396,2.46275 1.97861,2.54804 1.91898,2.29066 2.17943,2.88913 2.75751,3.51695 5.19957,6.5312 4.25476,5.73501 6.34273,8.04266 0.17549,-0.14398 z"
     style="fill:#000000;fill-opacity:1;fill-rule:evenodd;stroke:none;stroke-width:0.982677;stroke-linecap:square;stroke-linejoin:bevel;stroke-miterlimit:10;stroke-dasharray:none;stroke-opacity:1"
     id="path104"
     inkscape:label="Operário" />
  <path
     d="m 302.90981,327.06268 3.77679,3.68533 2.92373,2.90025 0.59661,-0.57127 4.43364,4.24641 1.73206,1.69683 1.52474,1.47315 1.49168,1.4237 1.44658,1.37613 2.24308,2.23876 2.00271,1.9539 2.06141,1.9715 1.63257,1.58653 2.26533,2.13866 1.69251,1.79045 3.77339,3.30716 0.97355,0.85305 0.40721,0.30124 4.22046,4.62026 2.42197,3.17647 2.38676,3.06276 2.40313,2.96328 2.76368,3.53487 2.76462,3.41499 2.43403,3.11282 0.45108,0.59383 3.44651,-2.72106 2.07037,-1.59024 3.18264,-2.37223 3.19038,-2.53289 1.32607,-1.15893 2.6228,-2.09416 3.605,-2.80169 3.01179,-2.41456 0.31113,-0.2135 6.37302,-5.08648 2.90025,-2.64876 2.60797,-2.55854 0.38806,-0.39269 -0.55644,-0.10783 -0.98808,-0.19187 -2.45317,-0.26509 -9.08264,-1.98633 -5.56878,-0.99332 -4.64745,-0.0399 -4.70708,-0.52957 -4.96568,-0.29135 -3.25494,0.62226 -1.98232,0.90063 -1.10919,0.46684 -0.88642,0.35439 -0.87931,1.01216 -0.31669,-0.2793 -2.29962,-2.52455 -2.59809,-2.69016 -1.86244,-2.0818 -2.02433,-2.20168 -0.89075,-1.02639 -1.08848,-1.03286 -1.29611,-0.96181 -2.45287,-1.46697 -1.89457,-1.14039 -3.44589,-2.10837 -3.56916,-2.147 -0.37477,-0.21751 -0.81783,-0.46623 -2.66668,-1.55687 -3.79686,-2.18067 -0.48075,-0.28147 -0.24872,-0.14058 -1.44194,-0.91052 -2.15441,-1.28313 -4.05053,-2.51837 -3.33465,-2.16152 -0.27344,-0.14799 -0.8892,0.8512 -2.24741,1.82443 -2.26162,1.63412 z"
     style="display:inline;fill:#000000;fill-opacity:1;fill-rule:evenodd;stroke:none;stroke-width:0.982677;stroke-linecap:square;stroke-linejoin:bevel;stroke-miterlimit:10;stroke-dasharray:none;stroke-opacity:1"
     id="path98"
     inkscape:label="Raiar do Sol" />
  <path
     id="path100"
     style="display:inline;fill:#000000;fill-opacity:1;fill-rule:evenodd;stroke:none;stroke-width:0.982677;stroke-linecap:square;stroke-linejoin:bevel;stroke-miterlimit:10;stroke-dasharray:none;stroke-opacity:1"
     d="m 336.50751,358.27975 -0.31641,0.88086 -2.12109,2.25195 -3.31445,2.11719 -3.58008,2.38477 -1.92383,0.72851 -4.24219,-1.98633 -1.69531,-1.14843 -3.01172,-0.64063 -4.70117,0.70313 -3.18164,1.65429 1.82227,2.73828 1.60937,2.09961 3.44727,4.47071 3.36914,4.16601 1.77929,2.1875 2.36133,3.08985 0.60547,0.69335 0.43945,0.55665 0.20118,0.17773 0.20117,0.10352 0.36719,0.13281 0.10351,0.33398 0.0801,0.16797 0.12891,0.17969 0.71679,0.95703 5.19141,7.0918 1.69922,2.17382 3.16601,4.35157 0.21289,0.3164 0.34375,-0.27539 0.01,0.0137 1.97851,-1.5254 0.21876,-0.17773 0.20898,-0.16992 1.55078,-1.28125 1.76758,-1.40235 3.10937,-2.45507 5.01953,-3.96094 1.13672,-0.95899 4.86914,-3.84375 1.59961,-1.26171 -0.45117,-0.59375 -2.43554,-3.11329 -2.76368,-3.41601 -2.76367,-3.53516 -2.4043,-2.96289 -2.38671,-3.0625 -2.42188,-3.17578 -4.21875,-4.62109 -0.4082,-0.30078 z"
     inkscape:label="Bela Vista" />
  <path
     id="path102"
     style="display:inline;fill:#000000;fill-opacity:1;fill-rule:evenodd;stroke:none;stroke-width:0.982677;stroke-linecap:square;stroke-linejoin:bevel;stroke-miterlimit:10;stroke-dasharray:none;stroke-opacity:1"
     d="m 308.41962,365.22506 -4.18359,2.875 -1.61524,0.46485 1.35938,2.73046 -1.03516,0.61329 -0.87891,0.52734 -0.29687,0.18164 -1.92187,1.17188 -1.86524,1.08203 -2.01562,1.20312 -1.9668,0.97266 -2.00195,1.12695 -1.87696,1.10938 -2.98437,1.71484 -1.80078,1.01758 -0.66602,0.42383 -1.24414,0.95312 -0.83398,0.59961 -3.91016,2.625 -0.17578,0.14258 0.82226,1.07226 0.37696,0.44922 1.19922,1.57617 1.13867,1.46876 1.11133,1.41406 1.19726,1.57422 0.21289,0.27343 0.93164,1.28711 1.10742,1.45899 4.62891,6.33203 1.07617,1.41797 5.63477,7.63867 0.20312,0.27148 1.47071,1.94922 1.33203,1.79883 0.24023,-0.10937 5.79297,7.51953 0.93359,-0.73633 4.04688,-3.19531 3.73828,-3.00977 3.76172,-2.96484 0.77344,-0.60547 1.24023,-0.96875 7.1211,-5.64063 0.25781,-0.20312 0.47851,-0.37891 6.59571,-5.22461 -0.22071,-0.32812 -3.16601,-4.35157 -1.69922,-2.17382 -5.19141,-7.0918 -0.71679,-0.95703 -0.12891,-0.17969 -0.0801,-0.16797 -0.10351,-0.33398 -0.36719,-0.13281 -0.20117,-0.10352 -0.20118,-0.17773 -0.43945,-0.55665 -0.60547,-0.69335 -2.36133,-3.08985 -1.77929,-2.1875 -3.36914,-4.16601 -3.44727,-4.47071 -1.60937,-2.09961 z"
     inkscape:label="Nova Cidade" />
  <path
     d="m 306.98135,424.15362 -5.79247,-7.52113 -0.24069,0.11092 -1.33225,-1.79911 -1.46975,-1.94987 -0.20299,-0.27035 -5.63428,-7.64039 -1.07736,-1.41753 -4.6286,-6.33223 -1.10671,-1.45893 -0.93184,-1.28715 -0.21226,-0.27343 -1.19909,-1.57356 -1.11073,-1.41444 -1.13823,-1.46758 -1.1994,-1.57696 -0.37724,-0.44923 -0.82216,-1.0718 -6.34273,-8.04266 -28.65216,21.29972 4.59091,6.19165 1.1685,1.61002 0.31484,0.45108 13.42513,18.10287 6.45026,8.82465 0.23945,0.33306 3.6084,4.89091 0.75696,0.69981 0.2756,0.32688 1.89086,2.45257 0.46067,0.59167 0.61731,0.53574 0.62349,0.39547 0.55336,0.25861 0.43286,0.0661 0.52215,-0.0516 0.9927,-0.45418 9.0159,-7.13647 5.86879,-4.72654 4.36938,-3.3603 0.22801,-0.19959 3.25587,-2.65864 1.67953,-1.35698 0.23791,-0.16591 1.8921,-1.48519 z"
     style="fill:#000000;fill-opacity:1;fill-rule:evenodd;stroke:none;stroke-width:0.982677;stroke-linecap:square;stroke-linejoin:bevel;stroke-miterlimit:10;stroke-dasharray:none;stroke-opacity:1"
     id="path136"
     inkscape:label="Pérola" />
  <path
     id="path26-5"
     style="display:inline;fill:#000000;fill-opacity:1;fill-rule:evenodd;stroke:none;stroke-width:0.982677;stroke-linecap:square;stroke-linejoin:bevel;stroke-miterlimit:10;stroke-dasharray:none;stroke-opacity:1"
     d="m 392.33398,356.25781 v 0.004 l 2.48438,1.4375 v -0.002 z m 2.48438,1.44141 16.94726,19.1543 h 0.002 z m 26.79687,16.05859 -3.65429,0.9668 -0.002,0.002 z m -18.26562,15.00977 -7.66602,5.49023 -8.625,2.58008 -1.63867,1.23828 -1.65039,1.25195 0.34961,0.33399 3.36328,4.25 0.78711,0.99414 0.13086,0.16406 1.41797,1.76758 0.83008,0.92773 -2.17578,1.73243 -1.36328,1.05664 2.74218,3.67773 4.55664,6.66211 7.45899,-6.19141 5.27148,-7.41601 1.82227,-3.47656 -3.47266,-13.65235 z"
     inkscape:label="Jardim das Copaíbas" />
  <path
     id="path26-2"
     style="display:inline;fill:#000000;fill-opacity:1;fill-rule:evenodd;stroke:none;stroke-width:0.982677;stroke-linecap:square;stroke-linejoin:bevel;stroke-miterlimit:10;stroke-dasharray:none;stroke-opacity:1"
     d="m 392.28876,355.811 -2.51562,2.46875 -2.90039,2.64844 -6.37305,5.08594 -0.31055,0.21289 -3.01172,2.41601 -3.60547,2.80078 -2.62304,2.09375 -1.32617,1.16016 -3.18946,2.5332 -3.18359,2.3711 -2.07031,1.58984 -3.44532,2.72266 -1.59961,1.26171 -4.86914,3.84375 -1.13672,0.95899 -5.01953,3.96094 -3.10937,2.45507 -1.76758,1.40235 -1.55078,1.28125 -0.20898,0.16992 -0.21876,0.17773 -1.97851,1.5254 -0.01,-0.0137 -0.34375,0.27539 0.008,0.0117 -6.59571,5.22461 -0.47851,0.37891 -0.25781,0.20312 -7.1211,5.64063 -1.24023,0.96875 -0.77344,0.60547 -0.10352,0.082 0.54688,0.11328 0.89258,1.13672 0.1582,0.22265 2.22656,2.89649 3.98047,5.14648 3.70703,4.80078 0.2461,0.31836 1.88476,2.42969 2.15625,2.83594 0.40625,0.45508 0.42188,0.41406 5.88281,4.58984 1.79492,1.43946 2.60156,2.11523 1.76563,-1.41016 1.30859,-1.06054 0.95313,-0.80274 1.16992,-0.94336 2.10937,-1.66015 4.4043,-3.54297 0.14844,-0.12695 6.22851,-4.98047 2.90821,-2.2793 4.24218,-3.33203 5.99024,-4.54492 5.48828,-4.68555 4.12695,-3.31836 1.36329,-1.05664 2.17578,-1.73242 -0.83008,-0.92774 -1.41797,-1.76757 -0.13086,-0.16407 -0.78711,-0.99414 -3.36328,-4.25 -0.34961,-0.33398 1.65039,-1.25195 1.63867,-1.23829 8.625,-2.58007 7.66602,-5.49024 2.13867,1.39063 0.17578,-0.0195 0.13086,-0.084 17.36328,-13.61914 -1.54297,-2.67773 -3.65625,0.96875 -6.19336,2.12695 -16.94726,-19.1543 -2.48438,-1.4375 z"
     inkscape:label="Distrito Industrial" />
  <path
     d="m 441.4357,45.130786 4.94653,-0.56695 4.70986,-0.53296 0.50763,-0.0575 2.29808,-0.26076 1.96378,-0.27622 1.35203,-0.24624 2.3197,-0.53482 1.12216,-0.38466 2.56935,-0.88055 2.31508,-0.90898 1.21917,-0.47889 1.58499,-0.62257 0.36025,-0.1415 0.18013,-0.0575 1.65235,-0.52802 1.04461,-0.355 0.36735,-0.0964 0.19002,-0.0386 1.16356,-7.29805 0.0924,-0.53822 0.3825,-2.13896 0.32441,-1.77006 0.35315,-1.92547 0.36056,-1.96749 0.38466,-2.09849 -1.99962,0.45696 -2.1127,0.4826 -0.30402,0.0695 -1.78705,0.40691 -2.04411,0.4687 -1.71105,0.39084 -0.40382,0.0924 -0.18198,0.0417 -1.82784,0.42946 -2.02371,0.45047 -1.76358,0.39857 -0.3964,0.0896 -0.34202,0.0772 -4.91872,1.12803 -2.25081,0.51628 -3.38254,0.77303 -0.43348,0.10196 -0.0853,0.0201 -3.35968,0.72081 -4.39997,1.05512 -1.64647,0.37848 1.99839,8.94144 0.11462,0.5135 1.17314,5.24962 0.32441,1.45151 z"
     style="fill:#000000;fill-opacity:1;fill-rule:evenodd;stroke:none;stroke-width:0.982677;stroke-linecap:square;stroke-linejoin:bevel;stroke-miterlimit:10;stroke-dasharray:none;stroke-opacity:1"
     id="path68"
     inkscape:label="Pedra Pintada" />
  <path
     d="m 393.51403,52.423906 -0.39145,-1.40363 -0.47674,-1.70888 -0.0902,-0.32349 -0.47086,-1.68818 -0.50021,-1.79231 -0.44182,-1.58406 -0.0726,-0.12822 -0.11802,-0.089 -0.15974,-0.0559 -0.16158,0.006 -7.05151,3.39089 -8.96152,4.30944 -6.61772,3.18234 -0.44058,0.21195 -0.085,0.11988 -0.0352,0.12853 0.0167,0.14058 0.63214,1.32515 0.76098,1.59549 0.14799,0.3102 0.78076,1.63659 0.66582,1.39621 0.0516,0.0726 0.0606,0.0337 0.13471,0.0476 0.1035,0.0124 0.11803,-0.0331 4.37463,-1.72618 2.07809,-0.81722 2.44144,-0.91638 6.93286,-2.60396 5.90988,-2.18994 0.8651,-0.85923 z"
     style="fill:#000000;fill-opacity:1;fill-rule:evenodd;stroke:none;stroke-width:0.982677;stroke-linecap:square;stroke-linejoin:bevel;stroke-miterlimit:10;stroke-dasharray:none;stroke-opacity:1"
     id="path142"
     inkscape:label="Monte Cristo" />
  <path
     d="m 467.28678,0 -7.05984,2.137726 -6.98569,2.65895 -0.35222,0.13409 -7.06356,2.19273 -7.01411,2.4559601 -7.0169,2.4473099 -0.34913,0.12111 -6.92854,2.39911 -7.5443,2.46122 0.51072,1.38138 0.66829,2.13 0.69054,2.14854 0.28147,0.90619 0.19897,0.76655 0.27158,0.92782 0.51844,1.85193 0.45758,2.11425 0.47055,2.19179 0.28363,1.23308 7.68921,-1.71568 7.36695,-1.63782 0.28023,-0.0636 1.16449,-0.26787 1.64647,-0.37848 4.39997,-1.05512 3.35968,-0.72081 0.0853,-0.0201 0.43348,-0.10196 3.38254,-0.77303 2.25081,-0.51628 4.91872,-1.12803 0.34202,-0.0772 0.3964,-0.0896 1.76358,-0.39857 2.02371,-0.45047 1.82784,-0.42946 0.18198,-0.0417 0.40382,-0.0924 1.71105,-0.39084 2.04411,-0.4687 1.78705,-0.40691 0.30402,-0.0695 2.1127,-0.4826 1.99962,-0.45696 0.10412,-0.0247 2.03113,-0.46314 0.0664,-2.84711 -0.26509,-2.84711 -1.6576,-5.09854 -0.24408,-0.30526 -1.90137,-1.68046 -2.09756,-1.58962 -1.32577,-1.39065 L 471.1201,0.96807604 467.82159,1.915676 467.28677,9e-5 Z"
     style="display:inline;fill:#000000;fill-opacity:1;fill-rule:evenodd;stroke:none;stroke-width:0.982677;stroke-linecap:square;stroke-linejoin:bevel;stroke-miterlimit:10;stroke-dasharray:none;stroke-opacity:1"
     id="path60"
     inkscape:label="Said Salomão" />
  <path
     d="m 109.20003,67.389536 -1.19322,2.05245 -0.53049,3.64177 -0.21257,3.21509 -0.15201,1.81733 2.10498,1.34894 2.61415,1.81084 2.45472,1.60291 2.30673,1.56058 4.77444,-8.6266 4.83838,-8.95318 -2.27676,-1.24853 -2.58418,-1.42186 -2.74515,-1.59672 -2.73063,-1.54112 -2.19334,-1.3097 z"
     style="display:inline;fill:#000000;fill-opacity:1;fill-rule:evenodd;stroke:none;stroke-width:0.982677;stroke-linecap:square;stroke-linejoin:bevel;stroke-miterlimit:10;stroke-dasharray:none;stroke-opacity:1"
     id="path144"
     inkscape:label="Sítios de Recreio Jardim América" />
  <path
     d="m 189.39029,85.483436 0.5376,-1.67736 -0.4307,-0.76129 1.40301,-3.06277 1.61341,-3.49254 1.65729,-2.21806 0.53049,-1.72155 0.59661,-2.64844 2.48624,-1.95359 0.66273,-1.05913 -1.9267,0.5549 -6.29825,-2.38366 -5.23757,-1.98634 -6.62945,1.78798 -8.70231,0.59538 -11.71718,0.19897 -4.24301,0.33121 -5.0386,0.52957 -4.04403,0.92689 -5.37012,0.46376 -4.17659,-0.72854 -4.57453,-1.45646 -1.30877,-1.27108 -28.41611,53.004454 9.8878,2.64968 8.4196,2.185 5.30399,2.71487 2.98337,6.02543 -3.81293,7.93638 -5.07104,7.16056 0.0664,3.44311 5.76776,1.65543 7.95553,-0.3309 7.5579,-6.68785 3.30994,-0.80516 7.36386,-1.11506 7.49147,-2.84711 5.23757,-5.62841 8.06522,-3.09459 5.17732,1.21918 2.7847,-2.90767 3.57874,-3.24877 4.13734,-6.43913 2.20601,-6.82225 1.31712,-9.74197 -1.30352,-5.387114 -0.42019,-4.28009 0.72946,-4.07215 -0.1069,-3.55372 z"
     style="fill:#000000;fill-opacity:1;fill-rule:evenodd;stroke:none;stroke-width:0.982677;stroke-linecap:square;stroke-linejoin:bevel;stroke-miterlimit:10;stroke-dasharray:none;stroke-opacity:1"
     id="path70"
     inkscape:label="João de Barro" />
  <path
     d="m 34.32484,28.690188 -0.0673,-0.0185 -1.96594,-1.96161 -0.043,-0.0222 -0.0482,-0.0127 -0.0476,0.007 -0.043,0.026 -16.12734,16.167201 -0.0754,0.0979 -0.0587,0.13409 -2.34505,7.50166 -1.63627,5.29535 -0.51381,1.8096 -0.0417,0.0473 -1.43792,5.28546 -1.30662,4.80255 -0.0615,0.22462 -0.59197,2.116411 -0.0859,0.34975 -0.90774,3.48728 -3.77431,13.71989 -0.13101,0.47581 -0.4826,1.7543 L 2.1161,91.34668 1.0273,95.43058 0,99.370182 l 32.75026,11.851898 1.71846,-1.86058 0.1378,-3.43662 0.67385,-16.42735 0.34882,-10.17205 0.0673,-1.96656 -6.1e-4,-1.26367 0.0182,-0.448 0.0942,-0.80948 0.24779,-0.67478 3.30963,-4.6113 3.31086,-4.612851 0.26818,-0.46653 -0.73471,-0.39795 -0.39702,-0.18383 -1.29086,-0.48601 0.0989,-0.39794 0.11092,-0.28178 0.18414,-0.33739 3.30747,-4.26402 1.25193,-1.61403 3.87102,3.61983 0.0979,0.0655 0.10257,0.0417 0.1171,-0.002 0.11493,-0.0284 5.22367,-2.71549 5.646952,-2.70437 4.68452,-3.41406 4.747561,-3.28739 -14.845143,-14.342141 -0.34759,-0.262 -0.26293,-0.17611 -12.54675,-8.43289 -1.86645,-1.37582 -0.0973,-0.0331 -0.12143,-10e-4 -0.0884,0.0198 -0.0763,0.0389 -5.38525,5.11831 -0.0593,0.0405 -0.0602,0.0114 z"
     style="fill:#000000;fill-opacity:1;fill-rule:evenodd;stroke:none;stroke-width:0.982677;stroke-linecap:square;stroke-linejoin:bevel;stroke-miterlimit:10;stroke-dasharray:none;stroke-opacity:1"
     id="path140"
     inkscape:label="Colina Park" />
  <path
     id="path1322"
     style="display:inline;fill:#000000;stroke-width:0;stroke-linecap:square;stroke-linejoin:bevel;stroke-miterlimit:10;paint-order:stroke fill markers;stop-color:#000000"
     d="m 523.27734,129.46484 -1.69336,0.85352 v 0.004 l -4.25,2.11914 -28.62304,14.27148 8.67383,16.1582 20.06835,-11 0.0703,-0.0586 0.13672,-0.082 0.70312,-0.4082 2.75977,-1.54102 1.14648,-0.58789 1.84766,-1.0625 0.22265,-0.0801 1.88868,-1.0664 0.49609,-0.25 2.51367,-1.41016 0.24414,-0.13867 1.56055,-0.74414 0.002,0.004 0.22461,-0.14648 -0.10156,-0.16992 -0.0644,-0.10547 -0.64649,-1.35547 -1.14258,-1.92188 -0.92773,-1.58984 -1.05664,-1.92578 -0.17578,-0.3125 -0.97266,-1.79102 -0.78125,-2.13867 -1.17578,-1.74023 -0.61523,-1.26172 -0.10938,-0.1543 z"
     inkscape:label="Estados" />
  <path
     id="path38"
     style="display:inline;fill:#000000;fill-opacity:1;fill-rule:evenodd;stroke:none;stroke-width:0.982677;stroke-linecap:square;stroke-linejoin:bevel;stroke-miterlimit:10;stroke-dasharray:none;stroke-opacity:1"
     d="m 500.8747,197.99655 -3.10938,0.0996 -2.63476,0.45507 -2.85352,0.77344 -3.125,1.40235 -3.38476,2.12304 -2.90625,2.63281 -0.21094,0.24805 -1.05078,1.24024 -0.11719,-0.10547 -0.89844,1.1582 -0.77734,1.18164 -0.95508,1.75195 -1.29687,2.99219 -0.43164,1.19336 -0.29493,1.16602 -0.20898,0.96289 -0.13672,0.83984 -0.27148,2.55664 0.004,2.28321 0.0547,0.79687 0.0645,0.84766 0.13282,1.08789 0.17382,1.0625 0.11524,0.55859 0.0781,0.31836 0.33789,1.43555 0.51758,1.7539 -2.17383,0.83399 0.002,0.002 2.17187,-0.83398 0.21875,0.41406 v 0.002 l 0.9375,1.96289 0.1836,0.38477 1.99804,3.20312 1.82227,2.08594 1.66992,1.22656 0.27539,0.27149 2.12109,1.73437 0.28711,0.1211 3.17774,2.0039 0.12695,0.10742 -0.75391,0.88477 0.42579,0.31836 1.3457,0.94726 0.21094,0.13282 0.20703,0.13281 0.23828,0.14453 0.66602,0.41992 0.75781,0.46875 0.31836,0.2168 0.91992,0.5332 0.62109,0.38086 0.81446,0.5293 0.95507,0.5957 3.26758,1.47461 0.22266,0.10156 4.45898,1.96094 0.67774,0.38086 0.42383,0.17383 0.28906,0.20703 0.72265,0.74024 0.43164,0.24804 0.1211,-0.1582 0.55469,0.0195 0.32617,-0.26563 0.22461,-1.11718 -0.58203,-0.43946 2.17578,-3.31445 0.0937,-0.10351 1.30468,-1.44336 0.82813,-1.02539 0.29687,-0.14844 0.85743,-0.83008 1.54297,-2.20898 0.0527,-0.0723 0.12109,-0.15625 0.61914,-0.97656 0.46094,-0.47852 1.16797,-1.84375 2.64844,-4.17578 0.26953,-0.75195 0.63476,-0.66602 1.03516,-1.83398 -0.0488,-0.73438 0.89649,-1.24023 0.74414,-1.47266 0.43554,-0.42187 0.82618,-0.79883 0.44336,-0.91992 0.54101,-0.0332 0.87305,-0.84765 0.63281,-0.3086 0.25195,-0.54687 0.26954,-0.26172 0.35351,-0.60352 0.45313,-0.17968 0.93554,-1.32422 0.4336,-0.36719 0.42968,-0.18164 0.37696,-0.50391 1.95898,-1.98828 0.3125,-0.20117 0.3457,-0.48437 -0.50586,-0.66211 -1.56445,-1.58594 -1.48437,-1.40234 -0.96094,-0.50586 -10.88477,-9.64649 -1.98242,-2.11523 -0.95508,-0.38868 -2.33007,-1.7871 -2.2129,-1.20899 -2.85742,-1.2168 -2.72656,-0.77734 z"
     inkscape:label="Centro" />
  <path
     d="m 551.8112,163.66265 -1.19909,1.37675 -2.15658,2.37563 -2.05245,2.39077 -1.94401,2.25235 -2.05801,2.35987 -2.42352,2.80911 -1.90137,2.20199 -1.06624,1.23493 -0.92164,0.98591 -2.81529,3.22281 -0.80825,0.91516 -0.95161,1.07736 -2.01754,2.28417 -0.40907,0.47643 -0.0599,0.0695 -0.63059,0.72422 1.90013,1.53895 0.69424,0.59568 2.32156,2.09911 0.0735,0.0664 0.20391,0.18445 0.1341,0.12266 0.11493,0.10505 2.87276,2.40282 0.24253,0.20268 2.98089,2.71302 2.64505,2.14792 1.75986,1.72371 -0.18167,0.28858 0.12173,0.10906 1.99468,1.78644 0.28363,0.25396 1.39838,-3.54042 0.50145,-0.78477 0.005,-0.61299 0.30866,-0.61546 0.0871,-0.47766 -0.0383,-0.51319 0.0355,-0.34696 0.18693,-0.42823 0.0636,-0.12142 0.11741,-0.6445 0.65624,-1.08014 0.37478,-0.21999 0.39609,-0.38497 0.94389,-1.17283 2.15781,-2.01043 1.34338,-1.51146 1.84977,-2.64103 1.90693,-1.94864 2.7433,-2.55081 2.07809,-2.04535 0.83544,-1.96316 0.61917,-0.85182 0.63276,-2.08489 0.46097,-0.75696 0.20855,-0.54162 0.10938,-0.47673 -0.56355,-0.26478 -0.39764,-0.52988 -0.13255,-0.62905 v -0.52957 l -0.19897,-0.46375 -0.25366,-0.26324 -0.67447,-0.29939 -0.31978,-0.19712 -0.27683,-0.66365 -0.96119,-0.72854 -0.33152,-0.69517 -0.46407,-0.43039 -0.53296,-0.53204 -0.92937,-0.92844 -0.19526,-0.19495 -0.68436,-1.02484 -1.37088,-1.75616 -1.35913,-1.2581 -0.6961,-0.43039 -0.88333,-0.69362 -0.50886,-0.59754 -1.09374,-0.96026 -0.55335,-0.25552 -1.34709,1.55533 z"
     style="fill:#000000;fill-opacity:1;fill-rule:evenodd;stroke:none;stroke-width:0.982677;stroke-linecap:square;stroke-linejoin:bevel;stroke-miterlimit:10;stroke-dasharray:none;stroke-opacity:1"
     id="path82"
     inkscape:label="Canarinho" />
  <path
     d="m 516.56388,203.99645 1.98263,2.11456 10.88483,9.64742 0.96119,0.50516 1.48334,1.40301 1.56614,1.58622 0.50423,0.66212 0.46994,-0.47828 0.28641,-0.1999 0.76901,-0.58456 0.36767,-0.41834 0.26323,-0.23234 0.34543,0.003 0.46314,-0.7168 5.52181,-4.87207 0.22153,-0.54532 0.6411,-0.1069 0.19681,-0.4687 0.46067,-0.88951 0.20392,-0.11988 0.85305,-0.73873 0.62071,-0.78076 0.23605,-0.32348 0.35005,-1.16665 0.3411,-0.51598 -0.28363,-0.25396 -1.99468,-1.78644 -0.12173,-0.10906 0.18167,-0.28858 -1.75986,-1.72371 -2.64505,-2.14792 -2.98089,-2.71302 -0.24253,-0.20268 -2.87276,-2.40282 -0.11493,-0.10505 -0.1341,-0.12266 -0.20391,-0.18445 -0.0735,-0.0664 -2.32156,-2.09911 -0.69424,-0.59568 -1.90013,-1.53895 -4.33509,5.02778 -0.23172,0.29939 -3.40294,3.81787 -0.30031,0.35161 -3.56206,4.08018 z"
     style="fill:#000000;fill-opacity:1;fill-rule:evenodd;stroke:none;stroke-width:0.982677;stroke-linecap:square;stroke-linejoin:bevel;stroke-miterlimit:10;stroke-dasharray:none;stroke-opacity:1"
     id="path48"
     inkscape:label="São Pedro" />
  <path
     id="path5864-8"
     style="display:inline;fill:#000000;stroke:none;stroke-width:0;stroke-linecap:square;stroke-linejoin:bevel;stroke-miterlimit:10;paint-order:stroke fill markers;stop-color:#000000"
     d="m 517.45282,151.87155 -26.77734,14.67773 1.39258,1.28906 0.89648,0.75977 4.54492,4.11133 0.42969,0.38086 2.58594,2.17578 0.13672,0.11133 0.44922,0.40039 1.375,1.19336 1.7539,1.52734 2.08008,1.85352 1.84375,1.64257 1.33789,1.15039 v 0.002 l 0.3418,0.21289 0.0762,-0.3086 0.80469,-3.43359 0.53711,-2.22851 0.48633,-2.16016 0.61914,-2.61133 0.63671,-2.77344 0.52149,-2.19336 0.63086,-2.65625 0.15039,-0.63086 0.11914,-0.46484 0.6875,-2.91406 0.19922,-0.7461 0.90625,-4.03515 0.58398,-2.32422 0.36328,-1.56641 0.18165,-0.35351 z"
     inkscape:label="Trinta e Um de Março" />
  <path
     id="path46"
     style="display:inline;fill:#000000;fill-opacity:1;fill-rule:evenodd;stroke:none;stroke-width:0.982677;stroke-linecap:square;stroke-linejoin:bevel;stroke-miterlimit:10;stroke-dasharray:none;stroke-opacity:1"
     d="m 531.04267,144.44186 -1.56055,0.74414 -0.24414,0.13867 -2.51367,1.41016 -0.4961,0.25 -1.88867,1.0664 -0.22265,0.0801 -1.84766,1.0625 -1.14648,0.58789 -2.75977,1.54102 -0.70312,0.4082 -0.13672,0.082 -0.17578,0.14649 -0.18165,0.35351 -0.36328,1.56641 -0.58398,2.32422 -0.90625,4.03515 -0.19922,0.7461 -0.6875,2.91406 -0.11914,0.46484 -0.15039,0.63086 -0.63086,2.65625 -0.52149,2.19336 -0.63671,2.77344 -0.61914,2.61133 -0.48633,2.16016 -0.53711,2.22851 -0.80469,3.43359 -0.0957,0.39063 -1.4668,5.95898 -1.18359,5.01953 -0.94727,4.15235 h 0.004 l -0.0645,0.24023 2.04297,0.58203 2.85742,1.2168 2.2129,1.20899 2.33007,1.7871 0.95508,0.38868 3.5625,-4.08008 0.29883,-0.35156 3.4043,-3.81836 0.23047,-0.29883 4.33593,-5.02735 v -0.002 l 0.63086,-0.72265 0.0586,-0.0703 0.41015,-0.47656 2.01758,-2.2832 0.95117,-1.07813 0.8086,-0.91406 2.81445,-3.22266 0.92187,-0.98632 1.06641,-1.23633 1.90234,-2.20117 2.42188,-2.8086 2.05859,-2.35937 1.94532,-2.25391 2.05078,-2.39062 2.1582,-2.375 1.19727,-1.37696 h 0.002 l 1.3457,-1.55469 -0.48047,-0.39843 -0.21093,-0.14649 -0.38868,-0.27539 -1.41601,-1.07617 -0.91602,-0.59375 -0.47656,-0.4668 -0.7168,-0.39453 -0.52539,-0.34961 -2.00586,-0.61328 -0.65039,-0.29492 -3.29492,-0.99609 -3.48047,-1.19141 -1.18164,-0.23047 -0.4043,-4.14648 1.28125,-1.47461 1.43946,-1.65625 1.50195,-1.72852 -1.74023,-1.00976 -0.57813,0.9707 -0.81445,0.91602 -1.22656,1.29296 -1.11133,0.85938 -0.42969,0.23242 -0.38281,0.0449 -0.35938,-0.0859 -0.88281,-0.24023 -0.36328,-0.082 z"
     inkscape:label="Nossa Senhora Aparecida" />
  <path
     id="path44"
     style="display:inline;fill:#000000;fill-opacity:1;fill-rule:evenodd;stroke:none;stroke-width:0.982677;stroke-linecap:square;stroke-linejoin:bevel;stroke-miterlimit:10;stroke-dasharray:none;stroke-opacity:1"
     d="m 490.66602,166.53906 -2.14649,1.22266 -5.78711,3.16797 -1.72265,0.94922 -1.26758,0.71875 -0.125,0.0664 -2.84571,1.56055 -4.91601,2.71289 -3.50781,1.9375 -4.03516,2.25195 -3.20117,1.76563 -1.9668,1.08594 -0.0742,0.043 h -0.004 l -1.94336,1.13477 0.0508,0.0449 0.24414,0.2168 0.17578,0.15625 1.22266,1.09375 1.09765,0.97265 2.43946,2.17188 1.84765,1.64453 3.26367,2.90625 3.33008,2.96484 0.82617,0.73633 0.4375,0.38867 0.31446,0.26758 0.32812,0.29297 4.93164,4.35938 2.81446,2.54883 0.83789,0.74609 0.20703,0.18359 -0.01,0.0137 0.11719,0.10547 1.05078,-1.24023 0.21094,-0.24805 2.90625,-2.63281 3.38476,-2.12305 3.125,-1.40234 2.85352,-0.77344 2.63476,-0.45508 3.10938,-0.0996 4.60742,0.6211 0.6836,0.19531 0.0645,-0.24023 h -0.004 l 0.94727,-4.15235 1.18359,-5.01953 1.4668,-5.95898 0.0195,-0.082 -0.3418,-0.2129 v -0.002 l -1.33789,-1.15039 -1.84375,-1.64258 -2.08008,-1.85351 -0.1289,-0.11328 h -0.002 l -1.62305,-1.41407 -1.375,-1.19336 -0.44922,-0.40039 -0.13672,-0.11133 -2.58594,-2.17382 -0.42968,-0.38282 -4.54493,-4.11132 -0.89648,-0.75782 z m -9.1836,40.32617 -0.82226,1.05665 0.002,0.002 z"
     inkscape:label="São Francisco" />
  <path
     d="m 434.3292,229.2018 1.90941,5.43469 1.14626,3.13661 1.02236,3.01766 0.83204,2.34813 0.76284,2.40467 0.17147,-0.16004 0.89538,-0.30248 0.0365,-0.0124 0.92689,-0.37446 2.14916,-0.86819 0.0161,-0.006 0.0235,-0.009 6.26735,-2.49428 0.40938,-0.15726 2.68954,-1.01309 0.59228,-0.22864 6.48208,-2.54216 0.96768,-0.36427 2.79675,-1.06284 0.43193,-0.16097 6.04366,-2.37748 1.06778,-0.4134 0.80671,-0.29722 4.91378,-1.88623 -0.51752,-1.75369 -0.33924,-1.43576 -0.0769,-0.31946 -0.11616,-0.55738 -0.17395,-1.06222 -0.13348,-1.08879 -0.0643,-0.8478 -0.0538,-0.79682 -0.004,-2.28294 0.27066,-2.55576 0.13841,-0.83976 0.20824,-0.96459 0.29568,-1.16418 0.42977,-1.19446 1.29796,-2.99201 0.95563,-1.75214 0.77581,-1.18117 0.90929,-1.17221 -0.20608,-0.18353 -0.83915,-0.74708 -2.81343,-2.54803 -4.93201,-4.36011 -0.32843,-0.29352 -0.31483,-0.26632 -0.43626,-0.38837 -0.82617,-0.7375 -6.59393,-5.86941 -1.84915,-1.64523 -2.43928,-2.17172 -1.09652,-0.97231 -1.22411,-1.09373 -0.17519,-0.15603 -0.29907,-0.26602 -0.24378,0.14089 -2.40838,1.39096 -0.22585,0.12884 -0.87314,0.51164 -0.68899,0.36643 -0.56448,0.32874 -0.22214,0.11957 -1.15059,0.61948 -0.56262,0.31452 -2.76091,1.49786 -5.28175,2.8811 -0.81752,0.44646 -1.14781,0.62657 -0.91701,0.50269 -2.4884,1.36408 -0.93554,0.49342 -2.29345,1.24883 -0.12204,0.0862 -0.17611,0.0995 -0.32472,0.18383 -1.82907,1.0338 -1.35265,0.74491 -1.78983,0.97324 -1.33597,0.72947 -1.3304,0.72637 -0.68126,0.38621 0.0584,0.16777 0.20886,0.60001 0.29722,0.82463 0.77118,2.12042 0.52617,1.44596 0.19804,0.54408 0.79466,2.18469 0.59352,1.63164 0.0324,0.0887 0.76778,2.11146 0.051,0.13996 1.08725,2.89562 1.52597,3.93034 0.009,0.0229 1.492,3.84259 0.95408,2.58912 0.36797,0.96274 z"
     style="display:inline;fill:#000000;fill-opacity:1;fill-rule:evenodd;stroke:none;stroke-width:0.982677;stroke-linecap:square;stroke-linejoin:bevel;stroke-miterlimit:10;stroke-dasharray:none;stroke-opacity:1"
     id="path64"
     inkscape:label="Mecejana" />
  <path
     id="path58"
     style="fill:#000000;fill-opacity:1;fill-rule:evenodd;stroke:none;stroke-width:0.982677;stroke-linecap:square;stroke-linejoin:bevel;stroke-miterlimit:10;stroke-dasharray:none;stroke-opacity:1"
     d="m 400.64032,207.33248 -0.44531,3.22657 -0.67187,5.33789 0.0215,2.58203 0.22656,2.98828 -0.0703,0.15234 0.24219,5.77344 0.0879,0.37891 0.39453,3.65039 0.68945,5.28906 0.2168,1.54883 0.043,0.17383 1.27344,-0.0254 1.375,-0.0488 2.70507,-0.0566 2.5,-0.0937 2.65625,-0.0527 2.3086,-0.0664 0.4082,-0.0352 0.23828,-0.0137 2.61914,-0.1211 1.05078,-0.31445 0.60547,-0.27734 1.23633,-0.51563 0.68164,-0.23242 0.56641,-0.11719 0.88086,0.0586 0.76562,0.0977 1.07031,0.0879 v 0.16016 0.43555 l 0.1543,0.01 3.5,0.20118 0.50977,-0.0703 0.42773,-0.19726 0.71875,-0.56446 0.65235,-0.54687 0.41601,-0.375 0.60156,-0.69141 1.76953,-2.0039 0.66211,-0.40821 1.30274,-0.57617 0.082,-0.0293 0.0781,-0.0293 0.11329,-0.043 -0.97461,-2.77734 -0.36719,-0.9629 -0.95508,-2.58984 -1.49219,-3.8418 -0.008,-0.0234 -1.52734,-3.92969 -1.08594,-2.89649 -0.0527,-0.13867 -0.76758,-2.11133 -0.0312,-0.0898 -0.082,-0.22461 -0.37305,0.01 -0.004,-0.0117 -0.082,0.008 -1.40234,-0.23633 -1.51367,-0.26758 -0.23438,-0.043 -2.71094,-0.49805 -0.37304,-0.0742 -1.43555,-0.2832 -0.92773,-0.16211 -2.73633,-0.53321 -2.67188,-0.51171 -0.5957,-0.11915 -1.47461,-0.25585 -0.22656,-0.0391 -1.45899,-0.3164 -1.17578,-0.21094 -1.79492,-0.35156 -3.44922,-0.66992 z"
     inkscape:label="Liberdade" />
  <path
     id="path84"
     style="fill:#000000;fill-opacity:1;fill-rule:evenodd;stroke:none;stroke-width:0.982677;stroke-linecap:square;stroke-linejoin:bevel;stroke-miterlimit:10;stroke-dasharray:none;stroke-opacity:1"
     d="m 376.57978,202.50045 -0.47852,5.82032 -0.0332,0.2871 -0.51367,5.66407 0.0312,4.61914 -0.006,2.4082 0.0645,2.25 0.19531,5.84375 0.4668,3.67383 0.80859,5.87305 0.0293,0.21875 0.56055,3.58007 0.47851,3.69532 0.51367,3.86132 0.47461,3.67383 0.51368,3.88477 0.48046,3.82226 0.27735,0.37696 0.0937,0.10937 0.4707,0.10547 1.66406,0.84766 7.22071,2.61523 1.01953,0.0801 5.24219,-0.55664 8.3164,0.23633 0.34766,-0.0586 -0.0664,-0.4414 -0.14258,-0.38672 0.0527,-0.80274 -0.10547,-0.77148 -0.30469,-2.63672 -0.40039,-3.26172 -0.20508,-1.54297 -0.26953,-2.16211 -0.30273,-2.42578 -0.16602,-1.06054 -0.0351,-0.36719 -0.45508,-3.55859 -0.55274,-3.9668 -0.49023,-3.61328 -0.043,-0.17383 -0.2168,-1.54883 -0.68945,-5.28906 -0.39453,-3.65039 -0.0879,-0.37891 -0.24219,-5.77344 0.0703,-0.15234 -0.22656,-2.98828 -0.0215,-2.58203 0.67187,-5.33789 0.44531,-3.22657 -0.33007,-0.0664 v -0.002 l -2.23438,-0.45704 -1.01758,-0.21289 -1.53906,-0.30078 -2.58789,-0.51172 -2.5918,-0.52343 -0.51758,-0.10352 -2.52148,-0.4668 -1.39258,-0.27929 -1.16015,-0.23438 -2.58594,-0.51758 -2.64258,-0.52929 -0.36328,-0.0957 -1.93164,-0.41406 -0.11328,-0.0215 -0.23828,-0.0352 z"
     inkscape:label="Buritis" />
  <path
     id="path62"
     style="display:inline;fill:#000000;fill-opacity:1;fill-rule:evenodd;stroke:none;stroke-width:0.982677;stroke-linecap:square;stroke-linejoin:bevel;stroke-miterlimit:10;stroke-dasharray:none;stroke-opacity:1"
     d="m 435.30439,231.97897 -0.11329,0.043 -0.16015,0.0586 -1.30274,0.57617 -0.66211,0.40821 -1.76953,2.0039 -0.60156,0.69141 -0.41601,0.375 -0.65235,0.54687 -0.71875,0.56446 -0.42773,0.19726 -0.50977,0.0703 -3.5,-0.20118 -0.1543,-0.01 v -0.43555 -0.16016 l -1.07031,-0.0879 -0.76562,-0.0977 -0.88086,-0.0606 -0.56641,0.11914 -0.68164,0.23047 -1.23633,0.51758 -0.60547,0.27539 -1.05078,0.31445 -2.61914,0.12305 -0.23828,0.0117 -0.4082,0.0352 -2.3086,0.0684 -2.65625,0.0527 -2.5,0.0937 -2.70507,0.0547 -1.375,0.0508 -1.27344,0.0254 0.49023,3.61328 0.55274,3.9668 0.45508,3.55859 0.0351,0.36719 0.16602,1.06054 0.30273,2.42578 0.26953,2.16211 0.20508,1.54297 0.40039,3.26172 0.30469,2.63672 0.10547,0.77148 -0.0527,0.80274 0.14258,0.38672 0.0664,0.4414 2.11523,-0.13476 1.71289,0.17969 2.88868,1.78125 2.03124,2.8125 1.45899,3.24414 4.83203,5.19531 7.9375,8.07422 0.31836,0.32422 0.13281,0.0957 14.01563,-15.44922 0.61523,-0.70703 1.01172,-1.01953 0.43945,-0.51563 0.16407,-0.18554 1.54101,-1.83399 -1.30859,-2.07226 -0.41016,-0.5918 -1.89062,-8.44141 -0.48828,-2.16211 -0.31836,-1.48632 -0.5918,-2.68555 -0.67969,-2.67383 -0.38086,-1.14062 0.0371,-0.4961 -0.76172,-2.40429 -0.83203,-2.34766 -1.02344,-3.01758 -1.14648,-3.13672 z"
     inkscape:label="Pricumã" />
  <path
     d="m 471.96945,232.99712 -1.06778,0.4134 -6.04366,2.37748 -0.43193,0.16097 -2.79675,1.06284 -0.96768,0.36427 -6.48208,2.54216 -0.59228,0.22864 -2.68954,1.01309 -0.40938,0.15726 -6.26735,2.49428 -0.0235,0.009 -0.0161,0.006 -2.14916,0.86819 -0.92689,0.37446 -0.0365,0.0124 -0.89538,0.30248 -0.17147,0.16004 -0.0377,0.49527 0.38034,1.14194 0.68034,2.67316 0.59229,2.68614 0.31823,1.48581 0.48785,2.16275 1.89118,8.44123 0.4103,0.59167 1.30878,2.07192 1.99684,1.05789 2.34009,0.99394 20.14265,10.58668 3.65537,1.90847 0.25489,-0.33275 1.7197,-1.9576 0.4103,-0.46159 1.45307,-1.70518 0.42266,-0.37261 1.45028,-1.73669 0.20144,-0.21381 1.66131,-1.80095 0.14614,-0.12266 1.80621,-1.99808 0.20762,-0.26849 1.69962,-1.92176 1.62299,-1.83927 1.04862,-1.25625 0.30124,-0.35345 2.03021,-2.37316 1.87017,-2.09355 1.7302,-1.89302 1.58344,-1.81764 0.43719,-0.55429 1.42433,-1.59796 0.97911,-1.13792 0.57189,-0.66458 1.29981,-1.8541 -3.2673,-1.475 -0.95532,-0.5963 -0.81443,-0.52926 -0.62071,-0.38002 -0.91979,-0.5342 -0.31792,-0.2169 -0.75789,-0.469 -0.66582,-0.41927 -0.23883,-0.14459 -0.20732,-0.13255 -0.21009,-0.13224 -1.34616,-0.94821 -0.42668,-0.31762 0.75449,-0.88611 -0.1276,-0.10659 -3.17647,-2.00395 -0.28703,-0.1208 -2.12073,-1.73484 -0.27714,-0.27096 -1.66872,-1.22659 -1.8232,-2.08582 -1.99715,-3.20335 -1.12093,-2.34937 -0.21843,-0.41586 -4.91378,1.88623 -0.80671,0.29722 z"
     style="fill:#000000;fill-opacity:1;fill-rule:evenodd;stroke:none;stroke-width:0.982677;stroke-linecap:square;stroke-linejoin:bevel;stroke-miterlimit:10;stroke-dasharray:none;stroke-opacity:1"
     id="path72"
     inkscape:label="São Vicente" />
  <path
     d="m 490.66059,291.17982 1.56985,-2.55205 7.35088,-8.37665 5.77085,-8.5231 0.40011,-0.76315 1.35512,-1.72896 1.07828,-1.99252 0.0754,-1.24729 -0.6445,-1.24667 -0.19094,-0.51474 0.0878,-0.56849 -0.17055,-0.73843 0.10443,-0.51535 0.0695,-0.34295 0.005,-2.44916 0.25335,-1.20775 0.0334,-0.66458 -0.28178,-1.12494 0.26509,-0.49836 -0.0995,-0.48168 -0.3961,-0.56695 -0.72174,-0.73904 -0.29012,-0.20701 -0.42266,-0.17364 -0.67941,-0.38095 -4.45898,-1.96193 -0.22246,-0.10041 -1.29981,1.8541 -0.57189,0.66458 -0.97911,1.13792 -1.42433,1.59796 -0.43719,0.55429 -1.58344,1.81764 -1.7302,1.89302 -1.87017,2.09355 -2.03021,2.37316 -0.30124,0.35345 -1.04862,1.25625 -1.62299,1.83927 -1.69962,1.92176 -0.20762,0.26849 -1.80621,1.99808 -0.14614,0.12266 -1.66131,1.80095 -0.20144,0.21381 -1.45028,1.73669 -0.42266,0.37261 -1.45307,1.70518 -0.4103,0.46159 -1.7197,1.9576 -0.25489,0.33275 12.0833,6.45675 4.40862,2.88264 z"
     style="display:inline;fill:#000000;fill-opacity:1;fill-rule:evenodd;stroke:none;stroke-width:0.982677;stroke-linecap:square;stroke-linejoin:bevel;stroke-miterlimit:10;stroke-dasharray:none;stroke-opacity:1"
     id="path40"
     inkscape:label="Calungá" />
  <path
     id="path74"
     style="fill:#000000;fill-opacity:1;fill-rule:evenodd;stroke:none;stroke-width:0.982677;stroke-linecap:square;stroke-linejoin:bevel;stroke-miterlimit:10;stroke-dasharray:none;stroke-opacity:1"
     d="m 446.0329,267.29342 -1.54101,1.83399 -0.16407,0.18554 -0.43945,0.51563 -1.01172,1.01953 -0.61523,0.70703 -14.01563,15.44922 0.58985,0.4375 0.375,0.31445 0.4414,0.65625 -0.002,0.006 0.61328,0.98633 3.50781,4.68359 2.06446,2.5 5.17773,2.75 0.51367,0.26758 1.14453,0.59375 2.2461,0.36133 7.89062,-0.13281 2.98828,0.43359 1.65235,1.28711 3.2832,3.31055 1.6875,3.3125 4.70898,4.63476 1.46485,0.63282 1.05273,0.0293 1.00196,-0.6914 1.12695,0.72851 3.24219,1.6836 1.73242,0.0625 0.91992,-2.05079 1.42188,-3.25586 0.29492,-0.46874 0.0879,-0.49219 0.55664,-1.50781 -0.0859,-0.22852 1.83594,-3.23242 0.97265,-1.41992 1.76172,-3.15625 0.92969,-0.23047 0.30469,-0.66602 0.39453,-0.90625 -0.0664,-0.66601 4.58204,-6.39063 -4.40821,-2.88281 -12.08203,-6.45703 -3.65625,-1.90821 -20.14258,-10.58593 -2.33984,-0.99414 z"
     inkscape:label="Treze de Setembro" />
  <defs
     id="defs6" />
  <sodipodi:namedview
     id="namedview4"
     pagecolor="#505050"
     bordercolor="#eeeeee"
     borderopacity="1"
     inkscape:showpageshadow="0"
     inkscape:pageopacity="0"
     inkscape:pagecheckerboard="0"
     inkscape:deskcolor="#505050"
     showgrid="false"
     inkscape:zoom="0.61626974"
     inkscape:cx="356.98654"
     inkscape:cy="288.02323"
     inkscape:window-width="959"
     inkscape:window-height="694"
     inkscape:window-x="26"
     inkscape:window-y="23"
     inkscape:window-maximized="0"
     inkscape:current-layer="svg2"
     showguides="false">
    <inkscape:page
       x="0"
       y="0"
       id="page8"
       width="657.58429"
       height="445.74899" />
  </sodipodi:namedview>
</svg>
